<svg width="145" height="41" viewBox="0 0 145 41" fill="none" xmlns="http://www.w3.org/2000/svg">
<rect x="0.872314" y="0.872314" width="144" height="40" rx="20" fill="#D6CBF9"/>
<mask id="mask0_11_17" style="mask-type:luminance" maskUnits="userSpaceOnUse" x="23" y="5" width="100" height="29">
<path d="M122.076 5.87231H23.6685V33.8723H122.076V5.87231Z" fill="white"/>
</mask>
<g mask="url(#mask0_11_17)">
<path d="M25.3906 28.4332L26.0582 33.8723H49.43L48.6652 27.6434H37.7682L37.673 26.8716L47.7099 19.8578L47.0394 14.4077H23.6685L24.4333 20.6367H35.3484L35.4446 21.4155L25.3906 28.4332Z" fill="#1A0826"/>
<path d="M49.8127 14.4077L52.2024 33.8723H97.5198L95.1292 14.4077H49.8127Z" fill="#AA8FFF"/>
<path d="M121.99 21.4206C121.451 17.0461 118.014 14.3938 113.343 14.4128H97.7856L100.175 33.8774H107.174L106.695 29.9841H114.102C119.932 29.9791 122.599 26.3465 121.99 21.4206ZM113.346 24.528L106.028 24.5361L105.456 19.8649L112.814 19.8709C114.545 19.8909 115.43 20.8662 115.572 22.1994C115.661 23.0515 115.267 24.522 113.346 24.522V24.528Z" fill="#1A0826"/>
<path d="M55.5546 12.5511C56.7858 11.2296 56.5712 9.02885 55.0755 7.63559C53.5798 6.24233 51.3694 6.18419 50.1382 7.50572C48.9072 8.82723 49.1219 11.028 50.6175 12.4213C52.1132 13.8145 54.3237 13.8727 55.5546 12.5511Z" fill="#1A0826"/>
<path d="M60.2217 27.2024L60.5456 29.8487H56.5731L55.2168 18.8143H61.7635C66.3494 18.8143 68.3793 20.2458 68.7352 23.1077C69.071 25.8462 67.2095 27.2174 62.9452 27.1984L60.2217 27.2024ZM59.5642 21.8485L59.8649 24.3255H62.4561C64.2293 24.3255 64.7888 24.0178 64.6785 23.1227C64.5482 22.0611 63.8063 21.8456 62.1012 21.8456L59.5642 21.8485Z" fill="#1A0826"/>
<path d="M77.6303 27.9581H72.8799L72.3456 29.8507H68.5366L72.07 18.8243H76.2039L82.4128 29.8507H78.6397L77.6303 27.9581ZM74.5229 22.1272L73.6097 25.3429H76.2399L74.5229 22.1272Z" fill="#1A0826"/>
<path d="M84.8014 29.8507L84.2632 25.4673L78.8452 18.8203H83.0292L85.8751 22.4359L87.9431 18.8203H92.112L88.0953 25.4823L88.6316 29.8517L84.8014 29.8507Z" fill="#1A0826"/>
</g>
</svg>
