<svg width="85" height="33" viewBox="0 0 85 33" fill="none" xmlns="http://www.w3.org/2000/svg">
<g clip-path="url(#clip0_3080_447)">
<path fill-rule="evenodd" clip-rule="evenodd" d="M5.5735 30.1571C4.52229 30.1571 3.98676 29.6534 3.98676 28.8255C3.98676 27.2817 5.75598 26.7625 8.98302 26.4287C8.98302 28.4859 7.55297 30.1571 5.56359 30.1571H5.5735ZM6.96191 18.5878C4.65518 18.5878 2.00333 19.6434 0.563355 20.7608L1.87837 23.4625C3.03273 22.4339 4.89914 21.5539 6.58307 21.5539C8.1837 21.5539 9.06831 22.075 9.06831 23.1248C9.06831 23.8292 8.4832 24.1862 7.37644 24.3271C3.239 24.8481 -0.00390625 25.9597 -0.00390625 29.061C-0.00390625 31.5196 1.79507 33.0074 4.60559 33.0074C6.61282 33.0074 8.39791 31.9229 9.24682 30.4987V32.6215H12.9876V23.7269C12.9876 20.0603 10.3714 18.5801 6.96389 18.5801L6.96191 18.5878Z" fill="#101820"/>
<path fill-rule="evenodd" clip-rule="evenodd" d="M44.5063 18.9875V32.6043H48.5089V26.0429C48.5089 22.9263 50.4487 22.0096 51.7994 22.0096C52.4075 22.005 53.0033 22.1763 53.5111 22.5017L54.243 18.9026C53.6759 18.6817 53.0687 18.5747 52.4579 18.588C50.4011 18.588 49.1079 19.4738 48.255 21.2763V18.9875H44.5063Z" fill="#101820"/>
<path fill-rule="evenodd" clip-rule="evenodd" d="M72.7919 18.5879C70.6756 18.5879 69.0928 19.8037 68.2697 20.977C67.5061 19.4621 65.8896 18.5879 63.9458 18.5879C61.8315 18.5879 60.3657 19.7303 59.6893 21.0465V18.9874H55.8296V32.6042H59.8361V25.5932C59.8361 23.0844 61.1908 21.8705 62.4543 21.8705C63.5987 21.8705 64.6499 22.5903 64.6499 24.4488V32.6042H68.6485V25.5932C68.6485 23.0477 69.9695 21.8705 71.2924 21.8705C72.3516 21.8705 73.4742 22.6193 73.4742 24.4218V32.6042H77.4728V23.1905C77.4728 20.1318 75.3565 18.5879 72.7998 18.5879" fill="#101820"/>
<path fill-rule="evenodd" clip-rule="evenodd" d="M34.7655 18.9872H31.1398V17.6035C31.1398 15.801 32.197 15.2877 33.1074 15.2877C33.729 15.2956 34.3402 15.4442 34.8925 15.7219L36.1262 12.9758C36.1262 12.9758 34.8746 12.1807 32.5996 12.1807C30.043 12.1807 27.1333 13.5836 27.1333 17.9856V18.9872H21.0739V17.6035C21.0739 15.801 22.1291 15.2877 23.0415 15.2877C23.6641 15.2876 24.2772 15.4368 24.8265 15.7219L26.0602 12.9758C25.3244 12.557 24.1403 12.1807 22.5357 12.1807C19.979 12.1807 17.0693 13.5836 17.0693 17.9856V18.9872H14.7527V21.99H17.0753V32.604H21.0739V21.99H27.1412V32.604H31.1398V21.99H34.7655V18.9872Z" fill="#101820"/>
<path d="M41.1484 18.9873H37.1538V32.5984H41.1484V18.9873Z" fill="#101820"/>
<path fill-rule="evenodd" clip-rule="evenodd" d="M37.3005 16.6737H41.2139C43.4968 9.6897 51.2421 3.55092 60.4531 3.55092C71.6556 3.55092 81.3367 11.8492 81.3367 24.7674C81.3708 27.4191 80.9964 30.0607 80.226 32.6044H84.0243L84.062 32.4771C84.702 29.9589 85.0178 27.373 85.0021 24.779C85.0021 10.3729 74.2122 0.00390625 60.4611 0.00390625C49.6593 0.00390625 40.0317 7.29864 37.3025 16.6776L37.3005 16.6737Z" fill="#4A4AF4"/>
</g>
<defs>
<clipPath id="clip0_3080_447">
<rect width="85" height="33" fill="white"/>
</clipPath>
</defs>
</svg>
