<svg width="70" height="70" viewBox="0 0 70 70" fill="none" xmlns="http://www.w3.org/2000/svg">
<path d="M35 70C54.33 70 70 54.33 70 35C70 15.67 54.33 0 35 0C15.67 0 0 15.67 0 35C0 54.33 15.67 70 35 70Z" fill="#FAFAFA"/>
<path d="M53.5683 27.6116C52.6746 26.7416 51.4711 26.2672 50.226 26.2941C48.9802 26.3207 47.7954 26.8411 46.9307 27.7408L46.7314 27.9528L46.7311 16.1762C46.7292 15.5272 46.2053 15.0017 45.5583 15H25.6216C24.9746 15.0016 24.4507 15.5275 24.4487 16.1762V31.6706C24.2404 31.7153 24.0363 31.7782 23.8389 31.8585L21.2119 32.7056C20.9148 32.797 20.6671 33.0043 20.5236 33.281C20.3802 33.5574 20.3537 33.8802 20.4497 34.1763C20.5433 34.4751 20.7523 34.7239 21.0298 34.8675C21.3072 35.011 21.6302 35.0376 21.9273 34.941L24.4486 34.1293L24.6363 34.0704C25.0507 33.9061 25.4925 33.8225 25.938 33.8234H35.59C36.1417 33.8228 36.676 34.0172 37.0987 34.373C37.5212 34.7288 37.8051 35.2226 37.9004 35.7679C37.9957 36.3129 37.8959 36.8745 37.6188 37.353C37.5177 37.5309 37.3911 37.6932 37.2438 37.8351C36.809 38.282 36.2121 38.5328 35.59 38.5295H25.035C24.7233 38.5282 24.4242 38.652 24.2033 38.8727C23.9826 39.0933 23.8583 39.3931 23.8583 39.7061C23.8583 40.0188 23.9826 40.3185 24.2033 40.5392C24.4242 40.7598 24.7233 40.8836 25.035 40.8823H35.59C36.7192 40.8817 37.81 40.4721 38.6627 39.7295C38.6743 39.7295 38.6743 39.7178 38.6863 39.7178C38.7542 39.6692 38.8167 39.6141 38.8736 39.5532L38.9088 39.5062L40.9847 37.3534L43.2362 35L44.3854 33.8001L46.731 31.3531L48.6192 29.3765C49.0462 28.9212 49.6383 28.6585 50.261 28.6468C50.885 28.6342 51.4887 28.871 51.938 29.3059C52.3882 29.7355 52.6463 30.3295 52.6534 30.9528C52.6705 31.5776 52.4383 32.1832 52.0084 32.6352L42.2513 42.8116C40.5391 44.6035 38.2671 45.7534 35.813 46.0703L23.8391 47.6234C21.9044 47.8823 20.2225 49.0851 19.3475 50.8352L18.1279 53.2942C17.9861 53.5716 17.9612 53.8943 18.0581 54.1902C18.155 54.4863 18.366 54.7313 18.6437 54.8706C18.8062 54.9575 18.9877 55.0022 19.1715 54.9999C19.6147 55.0041 20.0207 54.7524 20.2154 54.3532L21.4467 51.8825C21.9745 50.8349 22.9842 50.1172 24.1441 49.9646L36.118 48.3999C39.0964 48.0084 41.8537 46.6148 43.9404 44.4471L53.6974 34.2707C54.5556 33.3679 55.0233 32.1616 54.9991 30.9144C54.9749 29.6673 54.4608 28.4802 53.5683 27.6116ZM37.7362 17.3523V21.1055L36.024 20.4114C35.7453 20.3015 35.4352 20.3012 35.1565 20.4111L33.4443 21.1051V17.3523H37.7362ZM40.0935 34.8698C39.8115 33.89 39.2201 33.0287 38.4081 32.4156C37.5957 31.8022 36.6067 31.4704 35.5902 31.4701H26.7948V17.3519H31.0988V22.8461C31.0952 23.2349 31.29 23.5988 31.6146 23.811C31.934 24.034 32.3433 24.0826 32.7053 23.9403L35.5904 22.7755L38.4754 23.9403C38.6149 23.9902 38.7612 24.0181 38.9095 24.0226C39.1453 24.0249 39.3756 23.9504 39.5662 23.811C39.8911 23.5988 40.0855 23.2349 40.082 22.8461V17.3519H44.3859L44.3862 30.3992L40.0935 34.8698Z" fill="#3C3C40"/>
</svg>
