<svg xmlns="http://www.w3.org/2000/svg" width="74" height="24" viewBox="0 0 74 24" fill="none">
  <path d="M31.6811 12.6296C31.6811 16.0825 28.9799 18.6269 25.6649 18.6269C22.3499 18.6269 19.6487 16.0825 19.6487 12.6296C19.6487 9.15238 22.3499 6.63232 25.6649 6.63232C28.9799 6.63232 31.6811 9.15238 31.6811 12.6296ZM29.0475 12.6296C29.0475 10.4719 27.4819 8.99555 25.6649 8.99555C23.8479 8.99555 22.2823 10.4719 22.2823 12.6296C22.2823 14.7657 23.8479 16.2637 25.6649 16.2637C27.4819 16.2637 29.0475 14.763 29.0475 12.6296Z" fill="white"/>
  <path d="M44.6599 12.6296C44.6599 16.0825 41.9587 18.6269 38.6437 18.6269C35.3287 18.6269 32.6274 16.0825 32.6274 12.6296C32.6274 9.15508 35.3287 6.63232 38.6437 6.63232C41.9587 6.63232 44.6599 9.15238 44.6599 12.6296ZM42.0263 12.6296C42.0263 10.4719 40.4607 8.99555 38.6437 8.99555C36.8266 8.99555 35.2611 10.4719 35.2611 12.6296C35.2611 14.7657 36.8266 16.2637 38.6437 16.2637C40.4607 16.2637 42.0263 14.763 42.0263 12.6296Z" fill="white"/>
  <path d="M57.0981 6.99465V17.7617C57.0981 22.1907 54.4862 23.9996 51.3983 23.9996C48.4916 23.9996 46.7421 22.0555 46.0824 20.4656L48.3753 19.5111C48.7836 20.4872 49.784 21.6391 51.3956 21.6391C53.3721 21.6391 54.597 20.4196 54.597 18.124V17.2614H54.5051C53.9156 17.9888 52.78 18.6242 51.3469 18.6242C48.3483 18.6242 45.6011 16.0122 45.6011 12.6513C45.6011 9.26594 48.3483 6.63232 51.3469 6.63232C52.7773 6.63232 53.9129 7.26775 54.5051 7.97347H54.597V6.99735H57.0981V6.99465ZM54.7836 12.6513C54.7836 10.5395 53.3749 8.99555 51.5822 8.99555C49.7651 8.99555 48.2428 10.5395 48.2428 12.6513C48.2428 14.7414 49.7651 16.2637 51.5822 16.2637C53.3749 16.2637 54.7836 14.7414 54.7836 12.6513Z" fill="white"/>
  <path d="M61.2216 0.684082V18.2596H58.6528V0.684082H61.2216Z" fill="white"/>
  <path d="M71.2317 14.6037L73.2758 15.9665C72.6161 16.9426 71.0262 18.6245 68.279 18.6245C64.872 18.6245 62.3276 15.9909 62.3276 12.6272C62.3276 9.06071 64.8937 6.62988 67.9842 6.62988C71.0965 6.62988 72.6188 9.10668 73.1163 10.4451L73.3894 11.1265L65.3723 14.4469C65.986 15.6502 66.9405 16.264 68.279 16.264C69.6201 16.264 70.5503 15.6042 71.2317 14.6037ZM64.9396 12.446L70.2988 10.2207C70.0041 9.4717 69.1172 8.94985 68.0735 8.94985C66.735 8.94985 64.872 10.1315 64.9396 12.446Z" fill="white"/>
  <path d="M9.92527 11.0699V8.52547H18.4994C18.5832 8.96891 18.6265 9.49347 18.6265 10.0613C18.6265 11.9703 18.1046 14.3308 16.4228 16.0126C14.7869 17.7161 12.6968 18.6246 9.92797 18.6246C4.79593 18.6246 0.480469 14.4444 0.480469 9.31231C0.480469 4.18026 4.79593 0 9.92797 0C12.7671 0 14.7896 1.11402 16.3092 2.56602L14.5138 4.36143C13.4241 3.33934 11.9478 2.54439 9.92527 2.54439C6.17763 2.54439 3.24658 5.56467 3.24658 9.31231C3.24658 13.0599 6.17763 16.0802 9.92527 16.0802C12.3561 16.0802 13.7405 15.1041 14.6274 14.2172C15.3466 13.498 15.8198 12.4705 16.0064 11.0672L9.92527 11.0699Z" fill="white"/>
</svg>