<svg xmlns="http://www.w3.org/2000/svg" width="74" height="24" viewBox="0 0 74 24" fill="none">
  <path d="M31.6811 12.6299C31.6811 16.0828 28.9799 18.6272 25.6649 18.6272C22.3499 18.6272 19.6487 16.0828 19.6487 12.6299C19.6487 9.15262 22.3499 6.63257 25.6649 6.63257C28.9799 6.63257 31.6811 9.15262 31.6811 12.6299ZM29.0475 12.6299C29.0475 10.4721 27.4819 8.9958 25.6649 8.9958C23.8479 8.9958 22.2823 10.4721 22.2823 12.6299C22.2823 14.766 23.8479 16.2639 25.6649 16.2639C27.4819 16.2639 29.0475 14.7633 29.0475 12.6299Z" fill="#18181A"/>
  <path d="M44.6599 12.6299C44.6599 16.0828 41.9587 18.6272 38.6437 18.6272C35.3287 18.6272 32.6274 16.0828 32.6274 12.6299C32.6274 9.15533 35.3287 6.63257 38.6437 6.63257C41.9587 6.63257 44.6599 9.15262 44.6599 12.6299ZM42.0263 12.6299C42.0263 10.4721 40.4607 8.9958 38.6437 8.9958C36.8266 8.9958 35.2611 10.4721 35.2611 12.6299C35.2611 14.766 36.8266 16.2639 38.6437 16.2639C40.4607 16.2639 42.0263 14.7633 42.0263 12.6299Z" fill="#18181A"/>
  <path d="M57.0981 6.99489V17.7619C57.0981 22.1909 54.4862 23.9999 51.3983 23.9999C48.4916 23.9999 46.7421 22.0557 46.0824 20.4658L48.3753 19.5114C48.7836 20.4875 49.784 21.6393 51.3956 21.6393C53.3721 21.6393 54.597 20.4199 54.597 18.1242V17.2617H54.5051C53.9156 17.989 52.78 18.6245 51.3469 18.6245C48.3483 18.6245 45.6011 16.0125 45.6011 12.6515C45.6011 9.26619 48.3483 6.63257 51.3469 6.63257C52.7773 6.63257 53.9129 7.26799 54.5051 7.97371H54.597V6.9976H57.0981V6.99489ZM54.7836 12.6515C54.7836 10.5397 53.3749 8.9958 51.5822 8.9958C49.7651 8.9958 48.2428 10.5397 48.2428 12.6515C48.2428 14.7416 49.7651 16.2639 51.5822 16.2639C53.3749 16.2639 54.7836 14.7416 54.7836 12.6515Z" fill="#18181A"/>
  <path d="M61.2216 0.684204V18.2597H58.6528V0.684204H61.2216Z" fill="#18181A"/>
  <path d="M71.2317 14.6039L73.2758 15.9666C72.6161 16.9428 71.0262 18.6246 68.279 18.6246C64.872 18.6246 62.3276 15.991 62.3276 12.6273C62.3276 9.06083 64.8937 6.63 67.9842 6.63C71.0965 6.63 72.6188 9.1068 73.1163 10.4452L73.3894 11.1266L65.3723 14.447C65.986 15.6503 66.9405 16.2641 68.279 16.2641C69.6201 16.2641 70.5503 15.6043 71.2317 14.6039ZM64.9396 12.4461L70.2988 10.2208C70.0041 9.47183 69.1172 8.94997 68.0735 8.94997C66.735 8.94997 64.872 10.1316 64.9396 12.4461Z" fill="#18181A"/>
  <path d="M9.92527 11.07V8.52559H18.4994C18.5832 8.96903 18.6265 9.49359 18.6265 10.0614C18.6265 11.9704 18.1046 14.3309 16.4228 16.0127C14.7869 17.7162 12.6968 18.6247 9.92797 18.6247C4.79593 18.6247 0.480469 14.4445 0.480469 9.31243C0.480469 4.18039 4.79593 0.00012207 9.92797 0.00012207C12.7671 0.00012207 14.7896 1.11414 16.3092 2.56614L14.5138 4.36155C13.4241 3.33947 11.9478 2.54451 9.92527 2.54451C6.17763 2.54451 3.24658 5.56479 3.24658 9.31243C3.24658 13.0601 6.17763 16.0803 9.92527 16.0803C12.3561 16.0803 13.7405 15.1042 14.6274 14.2173C15.3466 13.4981 15.8198 12.4706 16.0064 11.0673L9.92527 11.07Z" fill="#18181A"/>
</svg>