<svg width="68" height="102" viewBox="0 0 68 102" fill="none" xmlns="http://www.w3.org/2000/svg">
<path d="M4.48912 38.808C3.146 39.5248 2.32275 40.0092 2.32275 40.0092C2.32275 40.0092 8.52766 66.6282 16.1941 76.3686C27.2877 90.4653 44.2807 98.8934 66.6976 101.415C66.7425 101.42 66.7847 101.423 66.8281 101.423C67.4173 101.423 67.9254 100.977 67.9923 100.376C68.0666 99.7299 67.6014 99.1511 66.9585 99.0795L66.9605 99.0717C45.1876 96.6246 28.7264 88.4933 18.0339 74.9077C12.0715 67.3319 9.0345 55.9662 6.60585 46.8772C6.04337 44.7721 5.51352 42.7892 4.98752 41.0038C4.73053 40.1315 4.5888 39.5042 4.48912 38.808Z" fill="#DEE5F2"/>
<path d="M24.0361 35.7202C24.0358 35.7256 24.0354 35.7304 24.035 35.7349C24.0343 35.743 24.0337 35.7502 24.0341 35.7592C26.6779 62.1571 40.6254 76.6394 66.6762 80.0249C66.7277 80.0308 66.78 80.0327 66.83 80.0327C67.4097 80.0327 67.9139 79.6011 67.9904 79.0093C68.0727 78.365 67.6214 77.7723 66.9799 77.6889C42.3447 74.4884 29.0764 60.8599 26.4268 36.0483C26.2952 34.816 26.219 34.004 26.219 33.004C25.7206 33.0037 24.9231 33.0035 23.9263 33.0038C23.9263 34.0032 23.9263 34.5032 24.0361 35.7202Z" fill="#DEE5F2"/>
</svg>
