<svg width="38" height="50" viewBox="0 0 38 50" fill="none" xmlns="http://www.w3.org/2000/svg">
<path d="M2.49997 35C4.00002 48 13.3333 48 17.5 47.5C23 46.5 26 40 24 35.5L35.5 23C35.5 23 34.5 21.5 33 22C31.4354 22.5215 27 24.8333 25 26.5H24V25.5V8.5C24 6.5 22.1667 5 21.5 5C20.8333 5 19.3 5.3 18.5 6.5C18.5 5 18.5 1 15.5 1C13.5 1 13 3.5 13 6.5C12.2 3.7 8.99998 4 7.99998 6.5C7.99998 9.16668 7.99998 11.5 7.49998 13C6.50002 12 4 12.3571 3.49998 13.5C2.33332 16.1667 1.19581 23.6979 2.49997 35Z" fill="white"/>
<path d="M25.5419 36.3398C25.5419 36.3398 22.6175 45.4279 15.5007 46.3045C10.3728 47.2248 4.94917 42.5862 4.04063 36.2112C2.81158 27.5872 2.8006 24.7007 4.04063 14.6281C4.1255 13.9403 4.99409 13.4429 5.76158 13.4879C6.53423 13.5182 6.55416 14.0038 6.56449 14.2377C6.56449 14.2399 6.56597 14.2414 6.56597 14.2436C6.55859 14.4562 6.55194 14.668 6.54457 14.8805C6.45084 17.7727 6.36229 20.5052 6.36229 21.5267C6.36229 22.1754 6.8892 22.7023 7.53788 22.7023C8.18655 22.7023 8.71348 22.1754 8.71348 21.5267C8.71348 20.543 8.80129 17.8288 8.89428 14.9566C8.9939 11.8425 9.09869 8.62345 9.09869 7.33275C9.09869 6.05386 9.89571 5.59852 10.5776 5.59852C11.2794 5.59852 12.0306 6.06861 12.0306 7.38737V19.5535C12.0306 20.2021 12.5576 20.729 13.2062 20.729C13.8549 20.729 14.3818 20.2021 14.3818 19.5535L14.3811 7.38869V5.31869C14.3811 5.22718 14.3493 5.14601 14.3294 5.06114C14.3493 4.97553 14.3811 4.89436 14.3811 4.80285C14.3811 3.70475 14.6785 3.11142 14.9286 2.80596C15.7279 1.82814 17.3876 2.48273 17.389 4.67302V18.3431C17.389 18.9918 17.9159 19.5187 18.5646 19.5187C19.2132 19.5187 19.7401 18.9918 19.7401 18.3431V8.25721C19.7401 7.58713 19.901 7.06023 20.2043 6.73404C20.4884 6.42852 20.8353 6.36359 21.0766 6.36359C21.8434 6.36359 22.6175 6.99381 22.6175 8.19967C22.6175 9.54646 22.6071 11.0017 22.5953 12.5839C22.571 15.9248 22.5422 20.0323 22.6057 24.9066C18.9438 24.8948 15.1433 27.2402 11.2689 31.935C10.8549 32.4361 10.9265 33.1763 11.4276 33.5903C11.646 33.7711 11.9117 33.8597 12.1752 33.8597C12.5139 33.8597 12.8497 33.7135 13.0829 33.4316C17.4169 28.1795 21.4441 26.2725 25.0519 27.7574C25.0999 27.7774 25.1493 27.7729 25.198 27.7855C25.2954 27.8113 25.3928 27.8416 25.4932 27.843C25.5766 27.843 25.6556 27.8172 25.7367 27.7995C25.8039 27.7855 25.8711 27.784 25.9353 27.7582C26.0438 27.7146 26.136 27.6453 26.2282 27.5722C26.2556 27.5486 26.2902 27.5405 26.3161 27.5161C26.3198 27.5139 26.322 27.5102 26.3257 27.508C26.3271 27.5065 26.3279 27.5058 26.3294 27.5043C30.0908 23.8765 32.2877 23.137 33.4567 23.1975C33.7187 23.2056 33.9585 23.2514 34.1822 23.3377L23.4181 34.8309C23.4085 34.8405 23.4062 34.8545 23.3967 34.8641C23.3406 34.929 23.3037 35.0065 23.2623 35.0825C23.2291 35.1423 23.1885 35.1969 23.1671 35.2603C23.145 35.3238 23.145 35.3917 23.1354 35.4589C23.1214 35.5445 23.1037 35.6271 23.1096 35.7127C23.1111 35.7268 23.1052 35.7386 23.1059 35.7526C23.5014 39.6894 23.9123 41.2316 24.0007 42.501C25.0007 41.501 25.5014 40.3558 25.7367 39.501C25.9721 38.6461 25.8822 39.5346 25.5081 36.0428L36.8012 23.9844C37.2196 23.5365 37.2255 22.842 36.813 22.3889C35.9193 21.4096 34.8169 20.8916 33.5343 20.8503C31.2466 20.7772 28.5264 22.2576 25.2269 25.3275C25.1398 25.2994 25.052 25.2714 24.9634 25.2448C24.8941 20.2326 24.9236 16.0157 24.9479 12.6034C24.9598 11.0138 24.9701 9.55405 24.9701 8.20138C24.9701 5.48263 22.9651 4.01415 21.078 4.01415C20.5961 4.01415 20.1356 4.11157 19.7083 4.2872C19.5393 1.5095 17.636 0.000976562 15.8222 0.000976562C14.7691 0.000976562 13.8053 0.467383 13.1102 1.31752C12.6151 1.92192 12.2955 2.70121 12.1406 3.59704C11.6572 3.37638 11.131 3.2502 10.5768 3.2502C8.71934 3.2502 6.74682 4.68185 6.74682 7.33484C6.74682 8.08979 6.70918 9.5539 6.65753 11.2727C6.40366 11.2033 6.13947 11.1531 5.85462 11.1413C4.06061 11.0779 1.95889 12.2719 1.70498 14.3433C0.441725 24.6045 0.452879 27.683 1.70499 36.501C2.86017 44.6363 9.62437 50.1161 16.0007 49.0576C22.3771 47.999 25.1822 42.9608 25.7367 41.6572C26.2913 40.3537 25.5419 36.3398 25.5419 36.3398Z" fill="#DEE5F2"/>
</svg>
