<svg width="67" height="70" viewBox="0 0 67 70" fill="none" xmlns="http://www.w3.org/2000/svg">
<path d="M65.1724 67.0679C43.3294 64.6208 26.8153 56.4895 16.0884 42.9039C8.72142 33.5736 5.80615 18.4945 3 9C14.5 5.00051 14.5 4.50045 22.1099 3.71638C22.1091 3.73164 22.1072 3.74142 22.1079 3.75544C24.7602 30.1533 38.7525 44.6356 64.8872 48.0211C64.9389 48.027 64.9913 48.0289 65.0415 48.0289C65.623 48.0289 66.1288 47.5973 66.2056 47.0055C66.2882 46.3612 65.8354 45.7685 65.1919 45.6851C40.4773 42.4846 27.1664 28.8562 24.5083 4.04451C22.5 -5 0.32666 8.00545 0.32666 8.00545C0.32666 8.00545 6.55153 34.6244 14.2427 44.3648C25.372 58.4615 42.4196 66.8896 64.9087 69.4117C64.9537 69.4161 64.996 69.4195 65.0395 69.4195C65.6307 69.4195 66.1404 68.9733 66.2075 68.3726C66.282 67.7261 65.8154 67.1473 65.1704 67.0757L65.1724 67.0679Z" fill="#DEE5F2"/>
</svg>
