<svg width="278" height="249" viewBox="0 0 278 249" fill="none" xmlns="http://www.w3.org/2000/svg">
<path d="M276.571 216.708C233.237 219.447 187.482 221.123 139.492 221.362C91.1566 221.601 45.0557 220.352 1.42871 218.038C5.7116 210.512 10.0211 203.013 14.3572 195.541C17.842 189.504 21.3801 183.494 24.9181 177.511C62.4266 179.639 102.968 180.49 146.143 179.426C186.817 178.415 225.07 175.809 260.583 172.166C263.855 176.767 267.633 182.989 270.719 190.834C274.709 201.019 276.092 210.14 276.571 216.708Z" fill="white" stroke="#161616" stroke-miterlimit="10"/>
<path d="M21.5168 212.614C36.6266 214.236 51.8428 214.741 67.059 214.13C67.5645 214.103 67.5645 213.305 67.059 213.332C51.8694 213.943 36.6532 213.438 21.5168 211.816C21.0113 211.763 21.0113 212.561 21.5168 212.614Z" fill="#161616"/>
<path d="M48.4054 208.785C55.7741 209.077 63.1694 208.891 70.5381 208.891C78.0132 208.864 85.4618 208.864 92.9369 208.838C93.4423 208.838 93.4423 208.04 92.9369 208.04C85.4618 208.067 78.0132 208.067 70.5381 208.093C63.1694 208.12 55.7741 208.279 48.4054 207.987C47.9 207.96 47.9 208.758 48.4054 208.785Z" fill="#161616"/>
<path d="M146.754 206.844C169.286 205.408 191.791 203.706 214.296 201.738C214.802 201.685 214.802 200.887 214.296 200.94C191.818 202.908 169.286 204.61 146.754 206.046C146.249 206.073 146.249 206.87 146.754 206.844Z" fill="#161616"/>
<path d="M205.491 193.174C222.942 192.536 240.366 191.445 257.764 189.823C258.269 189.77 258.269 188.972 257.764 189.025C240.366 190.621 222.942 191.738 205.491 192.376C204.986 192.376 204.986 193.174 205.491 193.174Z" fill="#161616"/>
<path d="M220.761 210.245C235.419 209.607 250.077 208.969 264.734 208.304C265.24 208.277 265.24 207.48 264.734 207.506C250.077 208.144 235.419 208.783 220.761 209.448C220.256 209.474 220.256 210.272 220.761 210.245Z" fill="#161616"/>
<path d="M21.7767 156.103C21.3777 154.826 22.4417 153.63 22.1491 152.3C21.8033 150.891 20.42 150.305 20.5796 148.683C20.686 147.566 21.2447 146.503 21.0584 145.359C20.9254 144.641 20.4732 144.216 20.154 143.578C19.7815 142.78 19.9412 142.035 20.154 141.211C20.3668 140.28 20.7126 139.27 20.3402 138.312C20.154 137.807 19.7816 137.568 19.4623 137.169C18.7175 136.291 18.8239 135.387 19.0101 134.323C19.5953 131.026 19.6219 127.862 18.7707 124.591C18.6377 124.085 17.8662 124.298 17.9992 124.803C18.4781 126.665 18.7441 128.553 18.6909 130.468C18.6377 132.09 18.212 133.605 18.079 135.201C17.9726 136.504 18.3983 137.062 19.1963 137.993C20.2338 139.243 19.3559 140.679 19.1697 142.088C19.1165 142.541 19.1165 143.019 19.2495 143.471C19.4623 144.216 20.1274 144.721 20.2604 145.519C20.4732 146.795 19.6751 148.045 19.7549 149.322C19.8614 150.704 21.2979 151.422 21.4043 152.752C21.5107 154.002 20.6062 155.012 21.0052 156.315C21.1648 156.794 21.9363 156.581 21.7767 156.103Z" fill="#E8E8E8"/>
<path d="M25.6372 155.493C24.8125 154.722 25.85 153.925 25.5574 153.02C25.3978 152.515 24.8657 152.143 24.8391 151.584C24.8125 151.079 25.1584 150.521 25.2382 150.015C25.3712 149.058 24.8657 148.606 24.6263 147.728C24.3071 146.532 25.0253 145.202 25.2382 144.032C25.3978 143.128 25.318 142.357 24.9987 141.506C24.7327 140.814 24.4667 140.229 24.5199 139.485C24.5731 138.873 24.8391 138.315 24.9721 137.73C25.5042 135.602 23.6155 133.342 24.5199 131.374C24.7327 130.922 24.0411 130.497 23.8283 130.975C22.7642 133.236 24.7327 135.39 24.1475 137.73C23.8549 138.9 23.509 139.751 23.9081 140.947C24.1475 141.612 24.4933 142.25 24.5199 142.995C24.5731 143.74 24.3071 144.458 24.1209 145.149C23.8815 146.053 23.6155 147.01 23.8549 147.941C24.0677 148.712 24.5731 149.297 24.3869 150.148C24.2805 150.574 24.0943 150.973 24.0677 151.425C24.0411 151.85 24.0943 152.169 24.3071 152.542C24.4135 152.728 24.7327 153.02 24.7593 153.153C24.8125 153.366 24.6263 153.792 24.5731 153.978C24.3869 154.802 24.4401 155.414 25.0785 156.025C25.451 156.398 26.0096 155.839 25.6372 155.493Z" fill="#E8E8E8"/>
<path d="M163.565 208.356C158.324 209.154 153.908 209.34 150.849 209.34C149.173 233.725 149.413 246.091 151.594 246.436C153.429 246.729 156.648 238.485 161.224 221.705C167.528 220.136 173.86 218.567 180.164 216.999C180.803 210.829 179.366 208.436 177.93 207.346C175.27 205.351 171.545 207.106 163.565 208.356Z" fill="#161616" stroke="#161616" stroke-width="3" stroke-miterlimit="10"/>
<path d="M137.84 165.143C133.424 169.158 134.94 180.061 141.511 191.469C143.054 191.283 145.474 191.124 148.374 191.363C149.571 191.469 153.322 191.842 162.899 195.325C164.894 196.07 167.66 197.107 170.959 198.516C168.379 199.208 165.798 199.899 163.191 200.59C163.484 203.702 164.016 207.239 164.974 211.015C166.729 218.008 169.336 223.726 171.73 228.007C177.716 226.252 182.611 224.524 186.149 223.247C194.635 220.136 199.13 217.902 203.44 214.897C208.042 211.679 210.463 208.967 211.208 205.563C211.633 203.595 211.394 201.893 211.314 201.282C210.782 197.984 208.946 195.751 207.031 193.623C202.828 188.916 200.726 186.576 197.295 183.97C189.447 178.04 182.291 174.929 174.337 171.552C168.192 168.945 164.096 167.217 158.137 165.781C148.613 163.574 141.458 161.845 137.84 165.143Z" fill="url(#paint0_linear_12312_1175)"/>
<path d="M156.222 165.648C164.229 167.988 172.023 170.967 179.578 174.557C186.202 177.694 192.852 181.178 198.598 185.779C201.258 187.906 203.732 190.273 205.887 192.932C208.228 195.83 211.261 199.74 211.208 203.649C211.154 207.292 207.696 210.616 205.169 212.903C202.482 215.323 199.423 217.237 196.178 218.806C188.25 222.636 179.472 224.205 171.438 227.795C170.959 228.007 171.385 228.699 171.837 228.486C179.551 225.029 187.958 223.46 195.645 219.923C198.891 218.434 202.003 216.599 204.77 214.286C207.35 212.132 210.276 209.286 211.527 206.095C212.883 202.638 211.048 199.075 209.212 196.203C207.217 193.065 204.796 190.219 202.057 187.693C196.63 182.667 190.166 178.944 183.595 175.647C174.896 171.259 165.798 167.643 156.434 164.903C155.929 164.744 155.716 165.489 156.222 165.648Z" fill="url(#paint1_linear_12312_1175)"/>
<path d="M184.34 194.501C180.802 195.511 177.238 196.522 173.7 197.532C170.215 198.516 166.65 199.394 163.245 200.617C162.766 200.803 162.979 201.574 163.458 201.388C166.863 200.138 170.427 199.287 173.912 198.303C177.45 197.293 181.015 196.282 184.553 195.272C185.032 195.139 184.819 194.368 184.34 194.501Z" fill="url(#paint2_linear_12312_1175)"/>
<path d="M162.928 200.671C163.806 210.324 166.493 219.764 171.121 228.3C171.361 228.752 172.052 228.354 171.813 227.901C167.264 219.498 164.604 210.191 163.726 200.697C163.699 200.166 162.901 200.166 162.928 200.671Z" fill="url(#paint3_linear_12312_1175)"/>
<path d="M171.066 198.517C161.836 193.225 151.355 190.459 140.687 190.885C140.182 190.911 140.182 191.709 140.687 191.683C151.195 191.23 161.543 193.97 170.641 199.208C171.12 199.448 171.519 198.756 171.066 198.517Z" fill="url(#paint4_linear_12312_1175)"/>
<path opacity="0.11" d="M140.155 174.69C142.629 175.249 146.247 176.179 150.529 177.589C153.695 178.626 159.68 180.727 173.434 187.667C178.062 190.007 184.154 193.172 191.204 197.134C182.239 201.096 173.274 205.059 164.309 208.994C163.83 206.255 163.325 203.543 162.846 200.804C165.16 200.059 167.475 199.341 169.789 198.597C166.251 196.655 161.25 194.369 154.972 192.933C149.785 191.736 145.209 191.443 141.618 191.47C141.112 185.859 140.634 180.275 140.155 174.69Z" fill="#3D3D3D"/>
<path opacity="0.11" d="M141.591 191.363C145.821 190.618 152.684 189.927 160.824 191.576C167.847 192.985 173.22 195.618 176.705 197.665C172.316 200.165 167.953 202.638 163.564 205.138C163.271 203.675 163.005 202.186 162.713 200.724C165.054 199.979 167.395 199.261 169.762 198.516C166.65 196.841 162.686 195.059 157.898 193.677C151.487 191.842 145.821 191.363 141.591 191.363Z" fill="#3D3D3D"/>
<path d="M107.037 216.947C111 218.33 114.964 219.712 118.901 221.095C119.726 238.194 120.923 246.784 122.466 246.837C124.354 246.916 126.775 234.578 129.755 209.793C123.45 208.278 117.172 206.735 110.867 205.22C109.617 209.129 108.34 213.038 107.037 216.947Z" fill="#161616" stroke="#161616" stroke-width="3" stroke-miterlimit="10"/>
<path d="M141.566 191.392C141.326 183.76 140.448 177.431 139.597 172.804C137.815 163.044 136.272 161.502 134.915 160.864C131.962 159.508 128.956 162.114 121.455 165.544C115.31 168.363 116.108 167.166 105.573 171.128C97.859 174.027 88.5483 178.016 78.6524 183.813C76.5243 185.063 71.5232 188.068 66.7082 193.493C62.1859 198.572 61.8667 201.258 61.8667 202.561C61.8667 203.89 62.1859 206.869 66.5486 211.336C71.6828 216.575 77.482 218.835 94.2145 224.18C98.8166 225.643 103.02 226.973 106.771 228.116C108.792 224.26 110.335 220.909 111.452 218.303C114.591 210.964 115.257 207.507 115.523 205.752C115.815 203.811 115.948 202.188 115.975 201.071C113.261 200.354 110.521 199.662 107.808 198.944C110.894 197.189 114.724 195.381 119.3 193.945C128.291 191.153 136.192 190.993 141.566 191.392Z" fill="url(#paint5_linear_12312_1175)"/>
<path d="M108.605 199.157C109.776 199.423 110.973 199.689 112.143 199.955C113.314 200.221 114.644 200.354 115.628 201.099C116.027 201.418 116.426 200.726 116.027 200.407C115.096 199.689 113.952 199.53 112.835 199.29C111.505 198.998 110.148 198.679 108.818 198.386C108.313 198.28 108.1 199.051 108.605 199.157Z" fill="url(#paint6_linear_12312_1175)"/>
<path d="M123.583 164.96C111.931 168.018 100.599 172.166 89.6919 177.299C83.946 180.011 78.3862 183.308 73.3584 187.191C67.772 191.499 57.7698 200.407 63.1433 208.225C65.6173 211.815 69.3682 214.475 73.0924 216.629C76.125 218.41 79.3438 219.9 82.6159 221.149C84.5312 221.867 86.5263 222.399 88.4949 223.011C94.4803 224.819 100.466 226.707 106.424 228.622C106.903 228.781 107.116 228.01 106.637 227.851C101.716 226.255 96.7946 224.686 91.8467 223.197C89.2663 222.399 86.6327 221.734 84.079 220.83C77.8009 218.676 71.3367 215.432 66.5218 210.858C64.9523 209.369 63.3296 207.614 62.7443 205.513C61.9995 202.907 62.9305 200.301 64.234 198.067C66.3356 194.451 69.448 191.446 72.6668 188.813C77.8275 184.611 83.6533 181.128 89.6653 178.256C100.625 173.017 112.091 168.842 123.849 165.784C124.301 165.598 124.088 164.827 123.583 164.96Z" fill="url(#paint7_linear_12312_1175)"/>
<path d="M92.0322 195.355C95.9958 196.366 99.9861 197.376 103.95 198.36C107.86 199.344 111.851 200.195 115.681 201.472C116.16 201.631 116.373 200.86 115.894 200.701C112.063 199.451 108.073 198.6 104.163 197.589C100.199 196.579 96.2086 195.568 92.245 194.584C91.7395 194.478 91.5267 195.249 92.0322 195.355Z" fill="url(#paint8_linear_12312_1175)"/>
<path d="M115.441 200.779C114.457 210.405 111.398 219.739 106.37 227.983C106.104 228.435 106.796 228.834 107.062 228.382C112.169 219.979 115.255 210.512 116.239 200.752C116.292 200.247 115.494 200.274 115.441 200.779Z" fill="url(#paint9_linear_12312_1175)"/>
<path d="M107.569 199.29C117.97 193.972 129.542 191.339 141.22 191.764C141.726 191.791 141.726 190.993 141.22 190.967C129.409 190.515 117.678 193.2 107.17 198.599C106.718 198.838 107.117 199.529 107.569 199.29Z" fill="url(#paint10_linear_12312_1175)"/>
<path opacity="0.13" d="M136.006 176.871C124.567 182.429 117.039 186.338 113.66 187.96C104.775 192.162 96.1032 196.018 87.6704 199.581C94.108 198.863 100.386 201.841 103.658 207.213C107.356 213.276 106.584 221.307 101.663 226.838C103.365 227.45 105.068 228.061 106.744 228.646C108.18 226.359 109.617 223.753 110.92 220.828C114.379 213.143 115.789 206.016 116.374 200.485C113.953 199.687 111.532 198.916 109.111 198.118C111.293 197.161 113.66 196.23 116.188 195.406C125.764 192.268 134.569 191.523 141.592 191.63C141.512 189.715 141.406 187.774 141.273 185.779C141.007 181.977 140.608 178.334 140.156 174.877C139.198 175.329 137.762 176.047 136.006 176.871Z" fill="#3D3D3D"/>
<path opacity="0.15" d="M140.66 190.939C140.634 190.593 133.797 189.982 125.524 191.152C116.16 192.481 108.845 195.54 104.083 197.986C106.504 199.794 108.925 201.629 111.345 203.438C110.042 211.389 108.765 219.34 107.461 227.291C110.148 222.877 113.181 216.707 114.937 208.916C115.628 205.804 116.001 202.932 116.187 200.3C115.469 200.087 114.724 199.874 113.979 199.661C112.25 199.183 110.574 198.757 108.925 198.412C110.228 197.827 112.064 197.029 114.298 196.204C128.743 190.833 140.66 191.365 140.66 190.939Z" fill="#3D3D3D"/>
<path d="M160.985 103.183C162.342 102.731 164.39 104.832 165.614 106.055C167.582 108.049 168.566 110.07 168.859 110.682C172.477 118.181 171.838 115.203 174.898 122.17C178.649 130.759 181.202 138.87 181.202 138.87C182.453 142.832 183.224 145.784 185.645 149.427C188.385 153.522 190.646 154.613 191.577 154.985C194.663 156.261 197.589 155.703 198.892 155.357C200.302 153.975 201.393 152.778 202.138 151.927C203.654 150.198 204.293 149.268 205.49 149.135C205.756 149.108 206.979 148.975 207.618 149.693C207.911 150.012 207.964 150.358 208.256 150.438C208.629 150.544 209.001 150.119 209.453 149.693C209.64 149.507 210.863 148.364 212.14 147.832C212.805 147.539 214.082 147.167 214.455 147.646C214.827 148.124 214.002 149.135 214.375 149.507C214.747 149.879 215.652 149.028 216.609 149.427C217.141 149.667 217.594 150.252 217.62 150.81C217.673 151.501 217.088 151.661 216.982 152.565C216.875 153.31 217.221 153.443 217.168 154.054C217.062 154.985 216.21 155.118 215.04 156.474C214.375 157.245 214.561 157.299 213.364 159.08C212.912 159.745 212.326 160.623 211.874 161.128C210.118 163.096 207.139 163.255 205.57 163.362C202.537 163.521 200.143 162.617 198.786 161.979C197.882 162.617 196.498 163.415 194.716 164.026C190.114 165.542 186.07 164.479 184.421 164.026C177.85 162.192 173.993 157.219 171.439 153.815C167.635 148.762 166.252 144.375 163.751 136.397C162.98 133.977 160.666 126.292 159.761 116.001C159.389 111.32 158.777 103.928 160.985 103.183Z" fill="white"/>
<path d="M161.731 104.138C164.072 104.909 165.695 106.797 167.051 108.792C168.461 110.839 169.711 112.993 170.908 115.2C173.329 119.721 175.351 124.428 177.24 129.188C179.155 133.975 180.911 138.814 182.693 143.628C184.13 147.457 185.859 151.526 189.184 154.079C192.27 156.445 196.659 157.429 200.117 155.275C200.543 155.009 200.144 154.318 199.718 154.584C196.047 156.871 191.312 155.275 188.466 152.377C185.22 149.026 183.837 144.372 182.267 140.118C178.942 131.023 175.537 121.769 170.775 113.286C168.701 109.589 166.253 104.803 161.944 103.367C161.465 103.207 161.252 103.978 161.731 104.138Z" fill="#161616"/>
<path d="M161.463 129.904C163.83 138.094 165.825 146.657 170.693 153.784C174.71 159.687 180.669 164.394 187.985 164.979C191.948 165.298 195.965 164.341 199.157 161.948C199.556 161.655 199.157 160.937 198.758 161.256C195.034 164.075 190.219 164.793 185.697 163.862C181.228 162.932 177.37 160.352 174.311 157.055C167.368 149.529 165.054 139.264 162.287 129.718C162.101 129.212 161.33 129.425 161.463 129.904Z" fill="#161616"/>
<path d="M200.198 155.385C201.315 153.816 202.352 152.008 203.709 150.652C204.507 149.854 205.811 149.056 206.954 149.695C207.939 150.253 208.019 151.529 207.433 152.38C207.141 152.806 207.832 153.205 208.125 152.779C209.375 150.998 208.072 148.604 205.89 148.711C204.587 148.79 203.523 149.615 202.725 150.599C201.581 151.981 200.597 153.524 199.533 154.986C199.213 155.385 199.905 155.784 200.198 155.385Z" fill="#161616"/>
<path d="M203.896 151.9C203.31 153.07 204.029 154.426 205.332 154.639C206.902 154.878 208.045 153.548 208.311 152.139C208.418 151.634 207.646 151.421 207.54 151.926C207.38 152.777 206.928 153.655 205.997 153.841C205.119 154.027 204.135 153.256 204.587 152.325C204.8 151.846 204.108 151.447 203.896 151.9Z" fill="#161616"/>
<path d="M198.628 162.195C201.687 162.806 204.587 164.216 207.753 163.551C210.306 163.019 212.488 161.45 213.898 159.296C214.19 158.871 213.499 158.472 213.206 158.897C211.823 160.998 209.641 162.461 207.141 162.86C204.268 163.312 201.581 161.982 198.814 161.424C198.336 161.344 198.123 162.115 198.628 162.195Z" fill="#161616"/>
<path d="M206.158 153.843C205.307 154.348 205.413 155.518 206.131 156.129C206.743 156.635 207.568 156.555 208.313 156.555C209.59 156.528 210.654 156.741 211.771 157.379C212.223 157.619 212.622 156.954 212.17 156.688C211.345 156.209 210.467 155.89 209.51 155.784C209.057 155.731 208.605 155.757 208.126 155.757C207.834 155.757 207.541 155.784 207.275 155.731C206.956 155.651 205.918 154.933 206.557 154.561C206.983 154.268 206.584 153.577 206.158 153.843Z" fill="#161616"/>
<path d="M206.686 154.186C208.681 153.042 211.128 153.282 212.831 154.851C213.203 155.196 213.762 154.638 213.389 154.292C211.421 152.484 208.601 152.165 206.287 153.494C205.835 153.76 206.234 154.452 206.686 154.186Z" fill="#161616"/>
<path d="M208.419 150.941C209.297 150.303 210.148 149.691 211.026 149.053C211.398 148.787 211.744 148.521 212.143 148.282C212.409 148.122 212.675 147.963 212.968 147.857C214.218 147.431 214.511 148.043 213.819 149.691C213.34 149.851 213.553 150.622 214.032 150.463C215.468 149.957 215.974 148.016 214.484 147.192C213.659 146.713 212.675 147.059 211.93 147.484C210.574 148.255 209.323 149.346 208.046 150.25C207.594 150.569 207.993 151.26 208.419 150.941Z" fill="#161616"/>
<path d="M210.118 153.072C211.183 152.407 212.247 151.716 213.311 151.051C213.79 150.758 214.268 150.413 214.8 150.173C215.199 149.96 215.625 149.881 216.077 149.881C217.008 149.881 217.354 150.439 217.115 151.529C216.795 151.928 217.354 152.487 217.673 152.088C218.684 150.811 217.78 149.242 216.237 149.11C215.226 149.003 214.322 149.508 213.497 150.014C212.22 150.785 210.97 151.609 209.719 152.407C209.267 152.646 209.666 153.338 210.118 153.072Z" fill="#161616"/>
<path d="M213.233 154.321C213.951 153.922 214.669 153.55 215.388 153.204C215.627 153.071 216.425 152.592 216.664 152.646C217.329 152.778 216.877 153.443 216.718 153.709C216.452 154.135 217.143 154.56 217.409 154.108C217.835 153.417 218.207 152.06 217.063 151.848C216.452 151.715 215.787 152.14 215.255 152.406C214.43 152.805 213.605 153.204 212.807 153.656C212.382 153.895 212.807 154.587 213.233 154.321Z" fill="#161616"/>
<path d="M212.116 154.136C214.031 155.199 214.403 157.566 212.887 159.162C212.541 159.534 213.1 160.092 213.446 159.72C215.308 157.779 214.882 154.747 212.515 153.444C212.089 153.205 211.663 153.896 212.116 154.136Z" fill="#161616"/>
<path d="M217.009 153.842C216.158 154.932 215.174 155.889 214.083 156.687C213.684 156.98 214.057 157.671 214.482 157.378C215.653 156.528 216.69 155.544 217.595 154.4C217.887 154.001 217.329 153.443 217.009 153.842Z" fill="#161616"/>
<path d="M204.083 156.954C205.759 157.087 207.329 157.619 208.739 158.55C209.164 158.842 209.563 158.151 209.138 157.859C207.595 156.875 205.919 156.316 204.083 156.157C203.578 156.13 203.578 156.928 204.083 156.954Z" fill="#161616"/>
<path opacity="0.09" d="M158.299 109.617C158.778 113.021 159.549 117.807 160.693 123.551C161.438 127.274 161.97 130.013 162.954 133.656C164.444 139.188 165.668 143.841 168.541 149.24C170.429 152.776 171.706 155.196 174.366 157.802C176.255 159.637 181.203 164.477 188.652 164.583C193.2 164.637 196.792 162.908 198.893 161.605C200.143 162.297 202.298 163.227 205.091 163.28C206.395 163.307 208.842 163.334 211.157 161.738C211.955 161.18 214.083 159.744 214.242 157.324C214.269 156.951 214.375 154.93 212.939 153.867C211.343 152.697 208.736 153.388 208.523 154.212C208.337 154.984 210.252 155.622 210.199 156.712C210.119 158.095 206.98 158.946 206.395 159.105C187.667 164.158 177.585 155.781 177.585 155.781C174.526 153.228 172.903 150.463 169.126 141.023C166.013 133.258 162.103 122.647 158.299 109.617Z" fill="#3D3D3D"/>
<path d="M82.2964 160.623C83.5201 161.527 86.7655 163.628 91.208 163.601C95.3579 163.575 98.2841 161.687 99.9334 160.623C102.673 158.868 104.243 156.926 105.679 155.065C110.148 149.401 111.931 143.497 113.208 139.216C114.352 135.387 113.899 135.599 114.99 132.275C117.038 126.053 118.794 124.643 120.55 120.202C123.449 112.863 123.636 104.114 121.348 103.157C120.284 102.731 118.714 103.981 115.602 106.534C114.671 107.305 113.021 108.661 111.292 110.762C109.909 112.464 107.488 115.815 104.802 123.819C102.62 130.361 103.099 131.424 100.519 138.658C98.9225 143.152 97.9116 144.987 96.688 146.662C95.3047 148.523 93.0169 151.555 88.867 153.15C85.7014 154.374 82.855 154.214 81.2855 154.001C81.0727 152.938 80.3545 150.012 77.8805 148.576C77.2686 148.204 75.779 147.353 74.7149 147.991C74.103 148.364 73.8902 149.055 73.8104 149.427C72.6399 147.779 71.363 147.061 70.6448 146.742C69.9531 146.449 68.5433 145.811 67.958 146.396C67.426 146.928 67.9048 148.151 67.958 148.311C67.2132 147.912 66.3619 147.965 65.7501 148.417C65.2978 148.763 64.7924 149.454 64.9786 150.199C65.1116 150.704 65.5107 151.023 65.6437 151.103C65.484 151.555 65.351 152.246 65.5905 152.964C65.7235 153.337 65.8831 153.576 66.8407 154.64C68.0644 156.022 68.091 155.969 68.3305 156.315C68.9955 157.299 68.8625 157.831 69.2881 158.708C70.033 160.33 71.6291 161.101 72.1611 161.341C73.8636 162.165 75.4331 161.952 78.0135 161.58C79.6628 161.394 81.0993 161.022 82.2964 160.623Z" fill="white"/>
<path d="M121.27 102.441C117.2 104.489 113.529 107.307 110.683 110.897C107.836 114.487 105.868 118.636 104.378 122.944C102.888 127.305 101.824 131.799 100.68 136.24C99.5898 140.548 97.7543 145.015 94.8813 148.446C91.5294 152.461 86.3155 154.004 81.2345 153.419C80.7291 153.365 80.7291 154.163 81.2345 154.216C85.2514 154.669 89.4279 153.897 92.7531 151.531C96.2646 149.031 98.4725 144.856 100.042 140.92C101.718 136.745 102.463 132.198 103.686 127.89C104.99 123.236 106.586 118.609 109.14 114.487C112.172 109.568 116.509 105.738 121.669 103.159C122.148 102.893 121.722 102.202 121.27 102.441Z" fill="#161616"/>
<path d="M115.549 128.552C113.128 137.753 111.16 147.672 105.095 155.304C102.461 158.602 99.0293 161.42 94.8795 162.537C90.57 163.707 85.9146 163.043 82.4298 160.171C82.0308 159.851 81.4721 160.41 81.8712 160.729C87.1649 165.09 94.7198 164.638 100.253 160.915C106.318 156.846 109.909 149.986 112.25 143.258C113.9 138.524 115.044 133.605 116.321 128.765C116.454 128.26 115.682 128.047 115.549 128.552Z" fill="#161616"/>
<path d="M81.6583 153.816C80.7272 152.38 79.8494 150.864 78.8119 149.508C78.0936 148.551 77.136 147.647 75.8591 147.54C73.6511 147.407 72.6935 149.934 73.7575 151.609C74.0236 152.035 74.7152 151.636 74.4492 151.21C73.9438 150.412 73.9703 149.083 74.8748 148.524C76.1517 147.727 77.4552 149.03 78.1468 149.934C79.1843 151.29 80.0356 152.779 80.9666 154.215C81.2327 154.641 81.9243 154.242 81.6583 153.816Z" fill="#161616"/>
<path d="M76.9763 151.158C77.4019 152.062 76.524 152.967 75.593 152.647C74.8215 152.381 74.4757 151.504 74.3427 150.759C74.2629 150.254 73.4914 150.467 73.5712 150.972C73.8106 152.302 74.7683 153.685 76.2846 153.498C77.5881 153.339 78.1733 151.876 77.6679 150.759C77.4551 150.281 76.7634 150.68 76.9763 151.158Z" fill="#161616"/>
<path d="M82.2163 160.28C79.7689 160.812 77.3748 162.115 74.821 161.716C72.4002 161.344 70.3785 159.802 69.1548 157.754C68.8888 157.302 68.1971 157.727 68.4632 158.153C69.7134 160.254 71.682 161.849 74.1027 162.408C77.0289 163.072 79.6359 161.663 82.4291 161.051C82.9345 160.945 82.7217 160.174 82.2163 160.28Z" fill="#161616"/>
<path d="M75.1926 153.361C75.3788 153.494 75.4054 153.76 75.3256 153.946C75.166 154.478 74.5807 154.531 74.1019 154.585C73.5965 154.611 73.091 154.531 72.559 154.585C71.6545 154.691 70.8299 155.01 70.0584 155.489C69.6328 155.755 70.0318 156.446 70.4575 156.18C71.4417 155.568 72.426 155.329 73.5965 155.356C74.2881 155.382 75.0064 155.436 75.565 154.957C76.2832 154.372 76.3631 153.175 75.565 152.67C75.166 152.404 74.767 153.095 75.1926 153.361Z" fill="#161616"/>
<path d="M75.4861 152.352C73.3846 150.996 70.7244 151.368 68.9687 153.15C68.5963 153.522 69.1815 154.081 69.5273 153.708C71.0436 152.192 73.2516 151.873 75.0871 153.043C75.5127 153.309 75.9117 152.618 75.4861 152.352Z" fill="#161616"/>
<path d="M73.997 149.164C72.9063 148.286 71.8422 147.356 70.6983 146.558C70.0067 146.079 69.1288 145.601 68.2776 145.92C66.6017 146.531 66.9475 148.765 68.4106 149.324C68.8894 149.51 69.1022 148.739 68.6234 148.552C67.6391 147.382 67.7189 146.85 68.8628 146.957C69.2885 146.744 69.6609 146.771 69.9801 147.037C70.4323 147.249 70.858 147.701 71.257 147.994C71.9752 148.579 72.7201 149.164 73.4383 149.749C73.8107 150.042 74.396 149.483 73.997 149.164Z" fill="#161616"/>
<path d="M72.3467 151.235C71.2028 150.437 70.0589 149.612 68.9151 148.841C68.1702 148.336 67.3456 147.857 66.4411 147.937C65.0046 148.07 64.1268 149.639 65.0046 150.862C65.2972 151.261 65.9889 150.862 65.6963 150.463C65.111 149.4 65.5899 148.841 67.0795 148.788C67.4254 148.894 67.7446 149.027 68.0372 149.214C68.4096 149.426 68.7555 149.692 69.1013 149.932C70.0589 150.596 71.0166 151.261 71.9743 151.926C72.3733 152.218 72.7723 151.527 72.3467 151.235Z" fill="#161616"/>
<path d="M69.501 152.486C68.7828 152.034 68.0379 151.608 67.2665 151.236C66.761 150.97 66.0694 150.491 65.4575 150.704C64.4999 151.05 64.8723 152.326 65.2447 152.964C65.4841 153.416 66.1758 153.017 65.9364 152.565C65.8566 152.406 65.5639 151.927 65.6438 151.741C65.7502 151.475 66.1758 151.635 66.362 151.688C66.5748 151.741 66.7876 151.901 67.0005 152.007C67.7187 152.379 68.4103 152.778 69.102 153.204C69.5276 153.443 69.9532 152.752 69.501 152.486Z" fill="#161616"/>
<path d="M69.7628 152.301C67.5282 153.684 67.2356 156.636 68.9115 158.577C69.2573 158.976 69.816 158.391 69.4702 158.019C68.1401 156.476 68.3795 154.083 70.1618 152.993C70.5874 152.727 70.1884 152.035 69.7628 152.301Z" fill="#161616"/>
<path d="M65.0846 153.177C65.8827 154.294 66.8137 155.305 67.9044 156.182C68.3034 156.501 68.8621 155.943 68.4631 155.624C67.4256 154.799 66.5477 153.869 65.7763 152.778C65.4571 152.353 64.7654 152.752 65.0846 153.177Z" fill="#161616"/>
<path d="M77.4542 155.011C75.7783 155.171 74.2088 155.729 72.8255 156.713C72.3999 157.005 72.7989 157.697 73.2245 157.404C74.5014 156.5 75.8847 155.942 77.4542 155.809C77.9863 155.756 77.9863 154.958 77.4542 155.011Z" fill="#161616"/>
<path opacity="0.17" d="M119.937 113.022C116.612 121.106 114.058 127.621 112.436 131.876C108.632 141.768 107.568 145.225 103.976 149.773C100.917 153.628 97.2993 158.442 91.1809 159.372C87.3502 159.957 84.1048 158.787 82.2161 157.936C81.7372 158.309 78.0928 160.915 74.5548 159.532C72.5862 158.761 70.6443 156.766 71.0433 155.543C71.4423 154.293 74.1025 154.373 74.0759 153.788C74.0493 153.309 72.2138 152.645 70.5645 153.15C70.3251 153.23 68.7024 153.761 68.1703 155.224C67.4787 157.165 69.2876 159.16 69.7664 159.692C72.2138 162.404 75.9647 162.271 76.6297 162.244C79.3165 162.165 81.285 160.968 82.2161 160.33C83.4132 161.34 85.5147 162.829 88.4409 163.361C93.8411 164.372 98.2038 161.34 100.598 159.851C107.435 155.517 110.015 148.602 112.117 143.39C113.127 140.864 113.58 139.215 116.054 129.137C117.596 122.755 118.927 117.277 119.937 113.022Z" fill="#3D3D3D"/>
<path opacity="0.17" d="M66.2288 148.497C67.1332 148.337 68.3037 150.73 69.1018 152.645C68.7027 154.693 68.1973 155.145 67.8249 155.198C66.7608 155.384 64.9519 152.778 65.2711 150.411C65.2977 150.225 65.5105 148.63 66.2288 148.497Z" fill="#3D3D3D"/>
<path d="M120.976 102.624C115.948 108.395 115.842 115.521 115.815 128.02C115.789 143.151 118.502 155.889 121.402 165.382C125.764 166.685 132.095 168.068 139.783 168.068C147.365 168.068 153.616 166.685 157.952 165.382C158.937 161.313 160.24 155.33 161.251 148.044C164.736 123.339 167.024 107.091 157.952 99.1138C148.801 91.0829 129.568 92.7582 120.976 102.624Z" fill="white" stroke="#161616" stroke-miterlimit="10"/>
<path opacity="0.1" d="M145.902 94.5127C147.046 96.8528 148.562 100.469 149.52 105.07C150.398 109.271 151.754 118.605 144.066 141.847C141.885 148.469 138.586 157.351 133.665 167.562C135.767 167.775 138.028 167.908 140.422 167.881C147.259 167.855 153.191 166.738 157.899 165.408C159.921 155.516 161.357 147.086 162.342 140.677C163.565 132.806 164.417 126.158 164.151 117.754C163.831 107.117 162.023 104.033 161.012 102.597C156.676 96.2678 148.855 94.885 145.902 94.5127Z" fill="#3D3D3D"/>
<path opacity="0.13" d="M163.725 110.337C162.528 113.954 160.799 119.538 159.096 126.505C156.968 135.201 156.649 138.844 155.478 143.498C153.909 149.561 150.637 158.124 142.949 167.91C145.476 167.989 148.854 167.803 152.685 166.766C154.707 166.208 156.489 165.49 157.952 164.798C159.309 157.406 160.506 150.465 161.57 144.03C163.459 132.754 164.124 128.101 164.204 121.931C164.283 117.065 163.991 113.076 163.725 110.337Z" fill="#3D3D3D"/>
<path d="M134.091 88.2403C133.213 89.437 133.639 90.5273 133.452 94.9948C133.319 97.92 133.027 100.26 132.814 101.749C133.718 102.387 136.272 104.01 139.89 104.01C144.146 104.01 146.993 101.776 147.764 101.111C147.418 100.154 146.993 98.7177 146.647 96.936C145.663 91.8569 146.674 90.2879 145.53 88.5594C143.481 85.5013 136.192 85.3683 134.091 88.2403Z" fill="white" stroke="#161616" stroke-miterlimit="10"/>
<path d="M123.318 73.9051C123.211 77.6812 124.063 80.5 124.754 82.7603C125.792 86.0844 126.936 89.8073 130.234 93.2111C133.107 96.1895 136.459 97.7319 139.093 98.5296C141.114 97.7053 144.44 96.0299 147.472 92.7325C150.771 89.1425 152.021 85.4994 152.952 82.7603C153.75 80.3936 155.107 76.1122 154.548 70.5278C154.149 66.6187 153.724 62.3906 150.372 59.1197C145.424 54.3065 138.188 55.5563 137.177 55.7425C130.154 57.0455 126.616 62.6033 125.765 64.1191C123.477 68.0016 123.371 71.8043 123.318 73.9051Z" fill="white" stroke="#161616" stroke-miterlimit="10"/>
<path d="M137.284 76.8049C137.125 80.2087 137.444 83.586 138.269 86.8834C138.348 87.1493 138.748 87.2823 138.934 87.0696C139.546 86.3516 139.945 85.5804 140.131 84.6496C140.237 84.1444 139.466 83.9317 139.359 84.4369C139.2 85.2613 138.907 85.8729 138.375 86.5111C138.588 86.5643 138.827 86.6175 139.04 86.6973C138.242 83.453 137.949 80.1555 138.082 76.8315C138.082 76.2996 137.284 76.2996 137.284 76.8049Z" fill="#161616"/>
<path d="M142.87 77.9757C144.758 79.9702 148.562 80.5286 149.573 77.3109C149.733 76.8323 148.961 76.6195 148.802 77.0982C147.977 79.7308 144.891 78.9065 143.455 77.3907C143.056 77.045 142.497 77.6034 142.87 77.9757Z" fill="#161616"/>
<path d="M129.543 83.1334C129.543 83.0537 129.516 83.16 129.49 83.16C129.463 83.1866 129.41 83.1866 129.357 83.1866C129.277 83.0271 129.171 82.8675 129.091 82.708C129.117 82.6814 129.117 82.6548 129.144 82.6282C128.931 82.6814 128.798 82.8941 128.878 83.1069C128.931 83.3196 129.171 83.4526 129.357 83.3728C129.596 83.293 129.756 83.1334 129.862 82.8941C129.942 82.708 129.782 82.442 129.596 82.4154C129.25 82.3357 128.851 82.5218 128.772 82.8941C128.745 83.1069 128.825 83.3462 129.038 83.3728C129.25 83.4791 129.516 83.3728 129.543 83.1334Z" fill="#161616"/>
<path d="M133.48 82.0982C133.426 82.4971 133.32 82.5237 133.16 82.178C132.868 81.9386 132.921 81.8323 133.32 81.8854C133.134 81.7791 132.894 81.8323 132.761 82.0184C132.655 82.2046 132.708 82.4705 132.894 82.5769C133.347 82.8428 133.905 82.2577 133.559 81.8323C133.214 81.4068 132.522 81.7791 132.655 82.2843C132.708 82.4971 132.948 82.63 133.134 82.5503C133.426 82.5503 133.533 82.3109 133.48 82.0982Z" fill="#161616"/>
<path d="M132.042 84.8621C132.042 84.9153 132.015 84.9685 131.962 85.0217C132.015 84.9685 131.909 85.0483 131.935 85.0217C131.962 84.9951 131.855 85.0483 131.935 85.0217C131.882 85.0217 131.855 85.0217 131.882 85.0217C131.909 85.0217 131.909 85.0217 131.829 85.0217C131.802 85.0217 131.802 84.9951 131.776 84.9951C131.802 85.0217 131.802 84.9951 131.749 84.9685C131.643 84.8621 131.643 84.7026 131.722 84.5962C131.829 84.4898 132.015 84.543 132.068 84.6494C131.962 84.4632 131.722 84.41 131.51 84.5164C131.323 84.6228 131.244 84.8887 131.377 85.0749C131.536 85.3408 131.882 85.4206 132.148 85.261C132.414 85.1281 132.521 84.7823 132.361 84.5164C132.042 84.0112 131.19 84.3037 131.19 84.8621C131.19 85.0749 131.377 85.261 131.589 85.261C131.855 85.261 132.042 85.1015 132.042 84.8621Z" fill="#161616"/>
<path d="M145.582 81.485C145.768 81.5116 145.875 81.6179 145.901 81.7509C145.928 81.9105 145.821 82.0168 145.582 82.0966C145.502 82.07 145.449 82.07 145.369 82.0434C145.236 81.9636 145.21 81.8573 145.289 81.7243C145.422 81.5116 145.821 81.5913 145.742 81.8839C145.795 81.6711 145.688 81.4318 145.476 81.4052C145.263 81.352 145.05 81.4584 144.997 81.6711C144.89 82.0434 145.21 82.4423 145.609 82.3891C145.954 82.3359 146.167 81.9902 146.061 81.6445C146.008 81.4584 145.821 81.2988 145.609 81.2988C145.449 81.2988 145.289 81.4052 145.21 81.5382C145.05 81.8307 145.263 82.3093 145.635 82.2828C145.848 82.2562 146.034 82.1232 146.034 81.8839C145.981 81.6977 145.821 81.4584 145.582 81.485Z" fill="#161616"/>
<path d="M148.588 81.7773C148.615 81.7773 148.615 81.7507 148.588 81.7773C148.561 81.8038 148.508 81.857 148.455 81.9102C148.295 81.857 148.162 81.8038 148.003 81.7241C148.003 81.6443 148.003 81.5911 148.003 81.5113C148.003 81.4847 148.029 81.4847 148.029 81.4581C148.083 81.405 148.136 81.3518 148.162 81.3252C148.322 81.3784 148.455 81.4316 148.615 81.5113C148.615 81.5911 148.615 81.6443 148.615 81.7241V81.6975C148.668 81.4847 148.561 81.2454 148.349 81.2188C148.136 81.1656 147.923 81.272 147.87 81.4847C147.737 82.0166 148.535 82.3357 148.774 81.8039C148.881 81.5911 148.774 81.3252 148.561 81.2188C148.322 81.0858 148.056 81.1656 147.923 81.3784C147.79 81.5645 147.896 81.8304 148.056 81.9368C148.242 82.0432 148.482 81.9368 148.588 81.7773Z" fill="#161616"/>
<path d="M147.125 84.4088C147.098 84.3291 147.125 84.4088 147.098 84.4354C147.098 84.462 147.019 84.5152 147.098 84.462C146.886 84.4354 146.673 84.4088 146.46 84.3822C146.3 84.1429 146.593 83.9302 146.806 84.0365C146.62 83.9302 146.38 83.9834 146.247 84.1695C146.141 84.3557 146.194 84.6216 146.38 84.728C146.593 84.8343 146.859 84.8077 147.019 84.6216C147.178 84.462 147.231 84.1695 147.098 83.9568C146.965 83.744 146.646 83.6908 146.46 83.877C146.274 84.0631 146.194 84.3557 146.274 84.595C146.354 84.8077 146.54 84.9407 146.753 84.8609C147.045 84.8609 147.205 84.6216 147.125 84.4088Z" fill="#161616"/>
<path d="M135.527 89.092C137.416 91.0599 140.422 91.0067 142.204 88.9059C142.524 88.507 141.965 87.9485 141.646 88.3474C140.156 90.1025 137.709 90.2089 136.086 88.5336C135.74 88.1613 135.181 88.7197 135.527 89.092Z" fill="#161616"/>
<path d="M130.632 72.9738C131.43 72.0963 132.548 71.724 133.718 71.9633C134.224 72.0697 134.436 71.2985 133.931 71.1921C132.494 70.8996 131.058 71.3251 130.074 72.4154C129.728 72.7877 130.286 73.3461 130.632 72.9738Z" fill="#161616"/>
<path d="M143.135 71.3497C144.359 71.2167 145.476 71.5093 146.46 72.2272C146.886 72.5198 147.285 71.8284 146.859 71.5358C145.769 70.7381 144.465 70.3924 143.135 70.5519C142.63 70.6051 142.63 71.4029 143.135 71.3497Z" fill="#161616"/>
<path d="M129.193 78.2121C131.082 80.2065 134.886 80.7649 135.897 77.5473C136.057 77.0686 135.285 76.8558 135.126 77.3345C134.301 79.9672 131.215 79.1428 129.779 77.627C129.406 77.2547 128.821 77.8398 129.193 78.2121Z" fill="#161616"/>
<path d="M137.975 61.5141C139.704 63.5883 141.779 65.822 144.279 68.0824C147.685 71.1671 151.01 73.5604 153.909 75.3687C153.75 77.762 153.244 81.4318 151.435 85.5536C149.653 89.6488 147.285 92.4942 145.663 94.2227C145.503 95.4991 145.45 97.6797 146.487 99.8603C148.908 104.939 155.878 107.226 161.225 105.498C161.863 105.285 166.359 103.769 167.822 99.7273C168.221 98.6105 168.434 97.2542 167.822 93.6643C166.944 88.4788 165.401 84.676 164.949 83.506C163.672 80.2617 162.023 75.5814 160.533 69.4652C160.054 67.3378 158.086 59.7058 151.169 55.2914C149.36 54.1214 145.477 51.6483 140.582 52.3929C138.454 52.712 136.804 53.5363 135.767 54.1746C133.532 54.3607 129.542 54.9989 125.711 57.7645C117.039 63.9872 117.279 75.2091 117.305 76.3526C117.039 77.762 116.587 79.8894 115.789 82.4157C113.82 88.5851 112.171 89.3563 111.799 93.159C111.692 94.1163 111.213 98.9562 114.406 102.918C115.071 103.743 117.119 106.216 120.604 106.907C125.233 107.838 130.207 105.232 132.255 101.137C133.399 98.8498 133.373 96.6426 133.266 95.4725C132.495 94.7811 125.392 88.3458 126.243 78.3205C127.201 66.9123 137.496 61.7534 137.975 61.5141Z" fill="#5B87E0"/>
<path opacity="0.11" d="M147.817 71.1667C148.296 72.975 148.828 75.714 148.535 79.0115C148.163 83.2131 146.673 86.1649 145.13 89.1964C143.906 91.5897 141.991 94.8606 138.958 98.291C139.437 98.2112 139.996 98.0517 140.555 97.8389C141.858 97.3603 142.842 96.6954 143.507 96.137C143.295 98.6367 143.082 101.136 142.896 103.636C144.412 102.971 145.928 102.333 147.444 101.668C147.125 99.009 146.779 96.3763 146.46 93.7171C147.099 92.9193 148.003 91.7493 148.961 90.2335C150.291 88.1327 152.18 85.1012 153.164 80.873C153.483 79.5168 153.802 77.5223 153.776 75.0758C151.807 73.7994 149.812 72.4698 147.817 71.1667Z" fill="#3D3D3D"/>
<path opacity="0.16" d="M153.803 75.5552C153.59 75.502 153.005 78.241 151.223 82.3363C151.223 82.3363 149.893 85.3678 148.376 87.9473C146.967 90.3406 144.173 94.356 138.906 98.5576C139.491 98.8236 140.103 99.0895 140.689 99.3554C142.418 99.1693 144.147 99.0097 145.876 98.8236C145.796 97.361 145.69 95.8984 145.61 94.4624C147.685 92.335 150.531 88.8514 152.314 83.852C153.75 79.677 154.069 75.6084 153.803 75.5552Z" fill="#3D3D3D"/>
<path opacity="0.29" d="M113.98 87.3356C113.927 88.2132 113.98 89.7289 114.698 91.3511C115.735 93.6646 118.156 96.1909 120.763 96.1643C123.929 96.1377 127.44 92.3084 127.281 86.8835C127.786 88.16 128.557 89.7023 129.701 91.3511C131.005 93.2391 132.415 94.6485 133.532 95.6324C133.559 96.51 133.479 97.8662 133 99.382C132.734 100.233 132.069 101.961 130.579 103.584C129.941 104.275 127.866 106.509 124.514 107.067C119.646 107.865 115.975 104.488 115.31 103.85C110.947 99.6745 111.692 93.771 111.825 92.8668C112.197 90.2874 113.261 88.3993 113.98 87.3356Z" fill="#3D3D3D"/>
<path opacity="0.12" d="M153.989 75.4485C154.202 76.7515 154.495 78.8257 154.708 81.4318C155.16 87.0162 154.708 88.5054 155.612 91.3507C155.745 91.8028 157.794 98.0786 160.8 98.1318C163.14 98.185 165.747 94.5152 166.785 89.117C167.61 91.8028 167.955 94.0898 168.115 95.7119C168.381 98.3445 168.142 99.2221 168.035 99.6476C167.29 102.067 165.322 103.397 164.284 104.115C160.613 106.615 156.65 106.242 156.064 106.163C155.133 106.056 150.824 105.498 147.951 101.881C147.499 101.323 146.062 99.4348 145.636 96.616C145.503 95.6853 145.503 94.8609 145.557 94.3025C147.179 92.707 149.334 90.1807 151.09 86.6173C153.271 82.0966 153.83 77.9748 153.989 75.4485Z" fill="#3D3D3D"/>
<path d="M164.082 27.5448C159.342 28.2804 156.025 24.929 146.625 17.7358C132.487 6.86418 129.485 6.53721 127.352 6.7007C126.326 6.78244 124.43 7.1094 115.504 14.0574C102.471 24.1934 101.681 27.2995 97.4161 27.5448C89.6754 27.8717 88.5695 17.7358 79.328 16.8366C70.9553 16.0192 68.3487 23.9481 58.0013 23.5394C50.0236 23.2942 45.3633 18.2262 44.6524 19.2889C43.7835 20.6785 51.2874 31.3866 62.1087 33.1032C70.0864 34.3293 71.8241 29.5066 79.5649 30.6509C90.3072 32.2858 92.3609 42.4217 100.26 41.686C104.92 41.1956 105.552 37.599 113.609 31.8771C117.874 28.8526 125.299 23.6212 133.434 22.9672C148.363 21.8229 156.104 36.7816 165.108 32.4493C169.453 30.4057 171.901 24.8473 171.349 24.1934C170.954 23.5394 168.189 26.8908 164.082 27.5448Z" fill="#5B87E0"/>
<circle cx="177.267" cy="12.5173" r="0.834485" fill="#DBFBB9"/>
<path d="M61.3902 43.1474C62.481 42.4878 62.7148 40.9213 62.8706 39.8494C63.416 35.9744 60.689 32.8414 60.2215 32.1818C57.3387 28.8014 55.7025 30.5328 52.9756 27.3998C50.9498 25.0912 51.1056 23.1949 47.9891 20.1443C45.9633 18.0831 45.2621 18.3305 45.1063 18.4129C44.0155 18.9076 44.9504 21.4635 43.8596 25.421C42.9247 28.7189 41.756 28.719 41.3664 31.5222C41.2885 32.2642 40.7431 35.9744 42.8468 38.118C43.7817 39.1074 45.0283 39.3547 47.5995 39.8494C50.5602 40.4266 50.9498 40.0968 52.9756 40.509C57.8841 41.4984 59.5982 44.2192 61.3902 43.1474Z" fill="#F1F4FC"/>
<path opacity="0.8" d="M52.3317 26.6216C52.7513 26.4017 52.8412 25.8795 52.9011 25.5222C53.1109 24.2306 52.062 23.1862 51.8822 22.9664C50.7735 21.8396 50.1442 22.4167 49.0953 21.3724C48.3162 20.6028 48.3761 19.9707 47.1774 18.9539C46.3983 18.2668 46.1286 18.3493 46.0687 18.3767C45.6491 18.5416 46.0087 19.3936 45.5892 20.7128C45.2296 21.8121 44.7801 21.8121 44.6303 22.7465C44.6003 22.9938 44.3905 24.2306 45.1996 24.9451C45.5592 25.2749 46.0387 25.3573 47.0276 25.5222C48.1663 25.7146 48.3162 25.6047 49.0953 25.7421C50.9832 26.0719 51.6425 26.9788 52.3317 26.6216Z" fill="url(#paint11_linear_12312_1175)"/>
<path d="M61.7291 40.0552C73.9663 52.4163 86.2035 64.8567 98.4407 77.2179C99.9805 78.9611 100.061 81.576 98.6838 83.3192C97.144 85.221 94.3886 85.6964 92.2005 84.3493C79.6392 70.0864 67.1588 55.7443 54.5975 41.4815C56.9477 41.006 59.2978 40.5306 61.7291 40.0552Z" fill="black"/>
<circle cx="57.1011" cy="7.51029" r="2.50346" fill="url(#paint12_linear_12312_1175)"/>
<circle cx="132.205" cy="29.207" r="0.834485" fill="url(#paint13_linear_12312_1175)"/>
<circle cx="133.039" cy="1.66897" r="1.66897" fill="#5B87E0"/>
<circle cx="15.377" cy="15.8552" r="0.834485" fill="#C4C4C4"/>
<path d="M30.3226 9.47473C30.6088 8.59374 31.8552 8.59374 32.1414 9.47473V9.47473C32.2695 9.86872 32.6366 10.1355 33.0509 10.1355V10.1355C33.9772 10.1355 34.3624 11.3208 33.6129 11.8653V11.8653C33.2778 12.1088 33.1375 12.5404 33.2656 12.9344V12.9344C33.5518 13.8154 32.5435 14.548 31.7941 14.0035V14.0035C31.4589 13.76 31.0051 13.76 30.6699 14.0035V14.0035C29.9205 14.548 28.9122 13.8154 29.1985 12.9344V12.9344C29.3265 12.5404 29.1862 12.1088 28.8511 11.8653V11.8653C28.1017 11.3208 28.4868 10.1355 29.4131 10.1355V10.1355C29.8274 10.1355 30.1946 9.86872 30.3226 9.47473V9.47473Z" fill="url(#paint14_linear_12312_1175)"/>
<path d="M169.15 16.8867C169.341 16.2994 170.172 16.2994 170.363 16.8867V16.8867C170.448 17.1494 170.693 17.3272 170.969 17.3272V17.3272C171.587 17.3272 171.843 18.1175 171.344 18.4804V18.4804C171.12 18.6428 171.027 18.9305 171.112 19.1932V19.1932C171.303 19.7805 170.631 20.2689 170.131 19.9059V19.9059C169.908 19.7436 169.605 19.7436 169.382 19.9059V19.9059C168.882 20.2689 168.21 19.7805 168.401 19.1932V19.1932C168.486 18.9305 168.393 18.6428 168.169 18.4804V18.4804C167.67 18.1175 167.926 17.3272 168.544 17.3272V17.3272C168.82 17.3272 169.065 17.1494 169.15 16.8867V16.8867Z" fill="url(#paint15_linear_12312_1175)"/>
<path d="M175.826 30.2385C176.017 29.6512 176.848 29.6512 177.039 30.2385V30.2385C177.124 30.5012 177.369 30.679 177.645 30.679V30.679C178.263 30.679 178.52 31.4693 178.02 31.8322V31.8322C177.797 31.9946 177.703 32.2823 177.788 32.545V32.545C177.979 33.1323 177.307 33.6207 176.807 33.2577V33.2577C176.584 33.0954 176.281 33.0954 176.058 33.2577V33.2577C175.558 33.6207 174.886 33.1323 175.077 32.545V32.545C175.162 32.2823 175.069 31.9946 174.845 31.8322V31.8322C174.346 31.4693 174.603 30.679 175.22 30.679V30.679C175.496 30.679 175.741 30.5012 175.826 30.2385V30.2385Z" fill="#D9E0F2" fill-opacity="0.5"/>
<path d="M25.7497 26.4982C25.8993 26.0375 26.551 26.0375 26.7007 26.4982L27.6118 29.3021C27.6787 29.5081 27.8707 29.6476 28.0873 29.6476H31.0355C31.5199 29.6476 31.7212 30.2674 31.3294 30.5521L28.9442 32.285C28.769 32.4123 28.6957 32.638 28.7626 32.844L29.6737 35.6479C29.8233 36.1086 29.2961 36.4916 28.9042 36.2069L26.5191 34.474C26.3438 34.3467 26.1065 34.3467 25.9313 34.474L23.5462 36.2069C23.1543 36.4916 22.6271 36.1086 22.7767 35.6479L23.6878 32.844C23.7547 32.638 23.6814 32.4123 23.5061 32.285L21.121 30.5521C20.7291 30.2674 20.9305 29.6476 21.4149 29.6476H24.3631C24.5797 29.6476 24.7717 29.5081 24.8386 29.3021L25.7497 26.4982Z" fill="#5B87E0"/>
<defs>
<linearGradient id="paint0_linear_12312_1175" x1="182.906" y1="163.307" x2="195.164" y2="253.145" gradientUnits="userSpaceOnUse">
<stop stop-color="#EE4266"/>
<stop offset="1" stop-color="#FA5E7E"/>
</linearGradient>
<linearGradient id="paint1_linear_12312_1175" x1="190.972" y1="164.881" x2="206.85" y2="252.006" gradientUnits="userSpaceOnUse">
<stop stop-color="#EE4266"/>
<stop offset="1" stop-color="#FA5E7E"/>
</linearGradient>
<linearGradient id="paint2_linear_12312_1175" x1="176.63" y1="194.485" x2="177.128" y2="204.264" gradientUnits="userSpaceOnUse">
<stop stop-color="#EE4266"/>
<stop offset="1" stop-color="#FA5E7E"/>
</linearGradient>
<linearGradient id="paint3_linear_12312_1175" x1="168.512" y1="200.295" x2="184.596" y2="232.036" gradientUnits="userSpaceOnUse">
<stop stop-color="#EE4266"/>
<stop offset="1" stop-color="#FA5E7E"/>
</linearGradient>
<linearGradient id="paint4_linear_12312_1175" x1="159.656" y1="190.842" x2="160.174" y2="202.723" gradientUnits="userSpaceOnUse">
<stop stop-color="#EE4266"/>
<stop offset="1" stop-color="#FA5E7E"/>
</linearGradient>
<linearGradient id="paint5_linear_12312_1175" x1="111.679" y1="160.498" x2="124.467" y2="254.394" gradientUnits="userSpaceOnUse">
<stop stop-color="#EE4266"/>
<stop offset="1" stop-color="#FA5E7E"/>
</linearGradient>
<linearGradient id="paint6_linear_12312_1175" x1="113.239" y1="198.376" x2="113.465" y2="202.33" gradientUnits="userSpaceOnUse">
<stop stop-color="#EE4266"/>
<stop offset="1" stop-color="#FA5E7E"/>
</linearGradient>
<linearGradient id="paint7_linear_12312_1175" x1="100.663" y1="164.944" x2="115.021" y2="252.69" gradientUnits="userSpaceOnUse">
<stop stop-color="#EE4266"/>
<stop offset="1" stop-color="#FA5E7E"/>
</linearGradient>
<linearGradient id="paint8_linear_12312_1175" x1="107.006" y1="194.574" x2="107.45" y2="204.34" gradientUnits="userSpaceOnUse">
<stop stop-color="#EE4266"/>
<stop offset="1" stop-color="#FA5E7E"/>
</linearGradient>
<linearGradient id="paint9_linear_12312_1175" x1="112.517" y1="200.386" x2="127.565" y2="233.406" gradientUnits="userSpaceOnUse">
<stop stop-color="#EE4266"/>
<stop offset="1" stop-color="#FA5E7E"/>
</linearGradient>
<linearGradient id="paint10_linear_12312_1175" x1="128.614" y1="190.918" x2="129.078" y2="202.811" gradientUnits="userSpaceOnUse">
<stop stop-color="#EE4266"/>
<stop offset="1" stop-color="#FA5E7E"/>
</linearGradient>
<linearGradient id="paint11_linear_12312_1175" x1="47.7132" y1="18.3586" x2="45.866" y2="29.8649" gradientUnits="userSpaceOnUse">
<stop stop-color="#5B87E0"/>
<stop offset="1" stop-color="#215DD5"/>
</linearGradient>
<linearGradient id="paint12_linear_12312_1175" x1="57.727" y1="5.00684" x2="58.8353" y2="11.9106" gradientUnits="userSpaceOnUse">
<stop stop-color="#EE4266"/>
<stop offset="1" stop-color="#FA5E7E"/>
</linearGradient>
<linearGradient id="paint13_linear_12312_1175" x1="132.413" y1="28.3726" x2="132.783" y2="30.6738" gradientUnits="userSpaceOnUse">
<stop stop-color="#EE4266"/>
<stop offset="1" stop-color="#FA5E7E"/>
</linearGradient>
<linearGradient id="paint14_linear_12312_1175" x1="32.4837" y1="6.67578" x2="34.7003" y2="20.4833" gradientUnits="userSpaceOnUse">
<stop stop-color="#FCC2CE"/>
<stop offset="1" stop-color="#FDCAD5"/>
</linearGradient>
<linearGradient id="paint15_linear_12312_1175" x1="170.591" y1="15.0208" x2="172.069" y2="24.2258" gradientUnits="userSpaceOnUse">
<stop stop-color="#EE4266"/>
<stop offset="1" stop-color="#FA5E7E"/>
</linearGradient>
</defs>
</svg>
