<svg width="48" height="48" viewBox="0 0 48 48" fill="none" xmlns="http://www.w3.org/2000/svg">
<path d="M12.7395 41.3093C12.8912 42.0002 13.2713 42.6195 13.8181 43.0665C14.365 43.5135 15.0464 43.762 15.7519 43.7717C15.948 43.7713 16.1436 43.7506 16.3355 43.7098L42.1636 38.6462C42.8884 38.461 43.5288 38.0341 43.9795 37.4355C44.785 37.4189 45.5521 37.0869 46.1168 36.5104C46.6814 35.934 46.9988 35.159 47.001 34.3509V3.0937C47.001 2.68743 46.9212 2.28514 46.7662 1.90979C46.6111 1.53445 46.3839 1.1934 46.0975 0.906124C45.811 0.618847 45.4709 0.390967 45.0966 0.235494C44.7224 0.0800211 44.3212 0 43.9161 0H17.6745C16.8563 0 16.0717 0.325943 15.4931 0.906124C14.9146 1.48631 14.5896 2.2732 14.5896 3.0937V5.87636L9.15184 6.95748C8.35859 7.12003 7.66173 7.59083 7.21352 8.26702C6.76531 8.94321 6.60219 9.76982 6.7598 10.5662L12.7395 41.3093ZM43.9219 35.4914H17.6753C17.5257 35.493 17.3772 35.4646 17.2386 35.4079C17.1 35.3512 16.9741 35.2673 16.8683 35.1611C16.7624 35.055 16.6788 34.9287 16.6222 34.7898C16.5657 34.6508 16.5374 34.5019 16.5389 34.3518V33.5073L22.8913 25.8065L27.8013 31.2949C27.8977 31.4043 28.0177 31.4902 28.1522 31.546C28.2868 31.6017 28.4322 31.626 28.5775 31.6168C28.7228 31.6089 28.8645 31.5684 28.9922 31.4984C29.1199 31.4283 29.2303 31.3305 29.3154 31.2121L37.0626 20.3975L45.0592 31.6076V34.3509C45.0614 34.5014 45.0336 34.6507 44.9773 34.7902C44.921 34.9297 44.8375 35.0564 44.7315 35.163C44.6256 35.2695 44.4995 35.3537 44.3606 35.4105C44.2216 35.4674 44.0728 35.4957 43.9228 35.4939L43.9219 35.4914ZM16.5389 3.09454C16.5371 2.94445 16.5653 2.79552 16.6217 2.65649C16.6781 2.51747 16.7617 2.39116 16.8675 2.28498C16.9733 2.17881 17.0992 2.09491 17.2378 2.03823C17.3763 1.98154 17.5248 1.9532 17.6745 1.95488H43.9219C44.0717 1.95321 44.2202 1.98153 44.3589 2.0382C44.4976 2.09487 44.6236 2.17874 44.7295 2.28489C44.8355 2.39104 44.9192 2.51734 44.9758 2.65637C45.0324 2.7954 45.0607 2.94437 45.0592 3.09454V28.2538L37.8589 18.1558C37.7688 18.0299 37.6502 17.9271 37.5128 17.8562C37.3753 17.7852 37.223 17.7481 37.0685 17.7478C36.914 17.7479 36.7619 17.7848 36.6244 17.8554C36.487 17.9261 36.3683 18.0285 36.2781 18.1542L28.4374 29.0883L23.585 23.6601C23.4895 23.5583 23.3743 23.4771 23.2464 23.4214C23.1185 23.3658 22.9807 23.3369 22.8413 23.3365C22.7015 23.3396 22.564 23.3727 22.4381 23.4337C22.3122 23.4948 22.2009 23.5822 22.1117 23.6902L16.5389 30.447V3.09454ZM9.54454 8.86889L14.5929 7.86553V34.3526C14.594 35.1724 14.9195 35.9582 15.4979 36.5375C16.0764 37.1168 16.8604 37.4421 17.6778 37.4421H38.1782L15.9511 41.7992C15.663 41.848 15.3671 41.7842 15.1243 41.6211C14.8815 41.458 14.7102 41.2079 14.6455 40.9221L8.6666 10.1799C8.6187 9.89058 8.68282 9.59379 8.84585 9.35026C9.00888 9.10672 9.25851 8.93483 9.54371 8.86972L9.54454 8.86889Z" fill="#3C3C40"/>
<path d="M27.7918 19.7103C28.714 19.7112 29.608 19.3914 30.3214 18.8053C31.0348 18.2193 31.5235 17.4032 31.7041 16.4963C31.8847 15.5893 31.7461 14.6477 31.3119 13.8317C30.8777 13.0158 30.1748 12.3762 29.3229 12.0218C28.4711 11.6675 27.5231 11.6203 26.6405 11.8885C25.7579 12.1566 24.9953 12.7234 24.4828 13.4922C23.9702 14.2611 23.7394 15.1844 23.8297 16.1048C23.92 17.0252 24.3258 17.8857 24.9779 18.5397C25.3472 18.9106 25.7858 19.2049 26.2687 19.4058C26.7515 19.6067 27.2691 19.7101 27.7918 19.7103ZM27.7918 13.6759C28.2636 13.6749 28.7211 13.8382 29.0863 14.1377C29.4515 14.4373 29.7018 14.8546 29.7945 15.3185C29.8872 15.7824 29.8166 16.2642 29.5947 16.6818C29.3728 17.0993 29.0133 17.4267 28.5776 17.6082C28.1419 17.7897 27.6569 17.814 27.2053 17.6769C26.7538 17.5399 26.3636 17.25 26.1013 16.8567C25.839 16.4634 25.7208 15.9911 25.767 15.5202C25.8132 15.0493 26.0208 14.6091 26.3544 14.2745C26.736 13.8916 27.2536 13.6763 27.7935 13.6759H27.7918Z" fill="#3C3C40"/>
<path d="M36.6136 6.21179H40.8199V6.55461C40.8161 6.6851 40.8384 6.81503 40.8856 6.9367C40.9328 7.05837 41.0038 7.16932 41.0945 7.26297C41.1852 7.35662 41.2937 7.43107 41.4136 7.48191C41.5335 7.53275 41.6623 7.55894 41.7925 7.55894C41.9227 7.55894 42.0515 7.53275 42.1714 7.48191C42.2913 7.43107 42.3998 7.35662 42.4905 7.26297C42.5812 7.16932 42.6522 7.05837 42.6994 6.9367C42.7465 6.81503 42.7689 6.6851 42.7651 6.55461V5.23602C42.7648 4.9773 42.6623 4.72924 42.4798 4.54629C42.2974 4.36335 42.0501 4.26048 41.7921 4.26025H36.6136C36.3556 4.26025 36.1081 4.36306 35.9256 4.54605C35.7431 4.72904 35.6406 4.97723 35.6406 5.23602C35.6406 5.49481 35.7431 5.743 35.9256 5.926C36.1081 6.10899 36.3556 6.21179 36.6136 6.21179Z" fill="#3C3C40"/>
<path d="M41.5992 8.48681C41.5381 8.49793 41.4789 8.51764 41.4233 8.54534C41.3614 8.56696 41.3025 8.59646 41.2482 8.63313C41.1975 8.66957 41.1488 8.70865 41.1023 8.75019C40.9215 8.93522 40.8203 9.18392 40.8203 9.44293C40.8203 9.70194 40.9215 9.95063 41.1023 10.1357C41.1515 10.1741 41.1998 10.2134 41.2482 10.2527C41.3028 10.2879 41.3616 10.316 41.4233 10.3363C41.4786 10.3646 41.5379 10.3844 41.5992 10.3949C41.6631 10.4059 41.7278 10.4123 41.7926 10.4141C41.9849 10.4132 42.1727 10.3554 42.3324 10.248C42.4921 10.1406 42.6167 9.98828 42.6905 9.81019C42.7642 9.6321 42.784 9.43613 42.7472 9.24683C42.7105 9.05753 42.6188 8.88331 42.4838 8.74601C42.3685 8.6339 42.2276 8.5517 42.0735 8.50653C41.9193 8.46136 41.7565 8.45459 41.5992 8.48681Z" fill="#3C3C40"/>
<path d="M37.4362 25.0422C37.1991 24.9452 36.9336 24.9452 36.6966 25.0422C36.5738 25.0866 36.4636 25.1604 36.3756 25.2571C36.2851 25.3458 36.2134 25.452 36.165 25.5693C36.1165 25.6865 36.0923 25.8125 36.0938 25.9394C36.0924 26.0677 36.1166 26.195 36.165 26.3137C36.2134 26.4325 36.285 26.5403 36.3756 26.6309C36.5598 26.8124 36.8078 26.914 37.066 26.9135C37.1926 26.9148 37.3182 26.8904 37.4353 26.8418C37.5523 26.7933 37.6584 26.7215 37.7472 26.6309C37.8392 26.5405 37.9124 26.4327 37.9625 26.3137C38.0126 26.1947 38.0386 26.0669 38.039 25.9377C38.0384 25.8102 38.0122 25.6841 37.9621 25.5669C37.912 25.4497 37.8389 25.3438 37.7472 25.2554C37.6608 25.1614 37.5545 25.088 37.4362 25.0405V25.0422Z" fill="#3C3C40"/>
<path d="M23.4003 29.6526C23.35 29.6142 23.2937 29.5846 23.2336 29.5649C23.1755 29.5353 23.113 29.5155 23.0485 29.5063C22.8588 29.4677 22.6619 29.4882 22.484 29.5649C22.3682 29.6123 22.2625 29.6819 22.1731 29.7697C22.0799 29.8608 22.0069 29.9704 21.9588 30.0916C21.8679 30.3304 21.8679 30.5945 21.9588 30.8333C22.0117 30.9519 22.0841 31.0607 22.1731 31.1552C22.3585 31.3349 22.6056 31.4363 22.8634 31.4386C22.9255 31.4362 22.9873 31.4295 23.0485 31.4186C23.1132 31.4093 23.176 31.3895 23.2344 31.36C23.2945 31.3402 23.3508 31.3105 23.4012 31.2722C23.453 31.2377 23.5015 31.1985 23.5462 31.1552C23.6385 31.0651 23.7119 30.9574 23.762 30.8384C23.8121 30.7194 23.8379 30.5916 23.8379 30.4624C23.8379 30.3333 23.8121 30.2054 23.762 30.0865C23.7119 29.9675 23.6385 29.8598 23.5462 29.7697C23.5043 29.7233 23.4554 29.6838 23.4012 29.6526H23.4003Z" fill="#3C3C40"/>
<path d="M7.62023 14.9869L3.62571 16.3808C3.11957 16.5572 2.65502 16.8362 2.26088 17.2002C1.86674 17.5643 1.55144 18.0057 1.33456 18.4971C1.11767 18.9885 1.00383 19.5193 1.00009 20.0567C0.996364 20.5941 1.10283 21.1265 1.31287 21.6208L11.2262 44.9532C11.555 45.7262 12.16 46.3481 12.9225 46.6967C13.6851 47.0452 14.55 47.0953 15.3475 46.837L37.0626 39.1295" stroke="#3C3C40" stroke-width="2" stroke-miterlimit="10" stroke-linecap="round"/>
</svg>
