<svg width="285" height="283" viewBox="0 0 285 283" fill="none" xmlns="http://www.w3.org/2000/svg">
<path opacity="0.07" d="M100.031 249.406C85.8019 260.533 71.6008 271.661 57.3714 282.789C38.2381 274.443 19.1332 266.097 0 257.751C20.2671 246.624 40.5341 235.496 60.8012 224.369C63.9475 223.971 66.7254 224.056 69.1348 224.369C87.7011 226.867 98.0188 245.574 100.031 249.406Z" fill="#353535"/>
<path d="M57.2581 97.5097C56.9746 140.459 56.6912 183.38 56.4077 226.329C70.3537 235.129 84.2997 243.929 98.2457 252.729C113.042 242.311 127.838 231.893 142.663 221.446C142.578 185.31 142.465 149.145 142.38 113.009C130.049 102.307 117.747 91.5768 105.417 80.875C89.3452 86.4104 73.3016 91.9458 57.2581 97.5097Z" fill="white"/>
<path d="M97.9618 133.9C97.9618 164.87 97.9618 195.84 97.9618 226.81C97.9618 235.496 97.9618 244.182 97.9618 252.869C97.9618 253.408 98.8122 253.408 98.8122 252.869C98.8122 221.899 98.8122 190.929 98.8122 159.959C98.8122 151.272 98.8122 142.586 98.8122 133.9C98.8122 133.36 97.9618 133.332 97.9618 133.9Z" fill="#161616"/>
<path d="M142.011 113.291C142.067 141.536 142.096 169.809 142.152 198.054C142.152 205.974 142.181 213.866 142.181 221.786C142.181 222.325 143.031 222.325 143.031 221.786C142.974 193.541 142.946 165.267 142.889 137.023C142.889 129.103 142.861 121.211 142.861 113.291C142.833 112.752 141.982 112.752 142.011 113.291Z" fill="#161616"/>
<path d="M57.0308 97.6792C69.2761 93.5631 81.5497 89.447 93.795 85.3309C96.8279 84.309 99.8326 83.3154 102.866 82.2935C103.517 82.0664 104.311 81.6122 105.02 81.8393C105.558 82.0096 106.295 82.918 106.749 83.3154C108.024 84.4225 109.328 85.5012 110.604 86.6083C115.479 90.7528 120.326 94.8972 125.202 99.0417C130.786 103.811 136.37 108.551 141.954 113.32C141.982 113.093 142.011 112.866 142.039 112.639C127.696 119.849 113.24 126.747 98.6137 133.39C98.7838 133.418 98.9538 133.447 99.1239 133.447C94.4186 129.359 89.7132 125.243 85.0078 121.155C77.4679 114.598 69.928 108.012 62.3881 101.455C60.659 99.9501 58.9583 98.4456 57.2292 96.9411C56.9458 96.714 56.4922 96.8559 56.4922 97.2534C56.4922 105.003 56.4922 112.781 56.4922 120.531C56.4922 136.995 56.4922 153.431 56.4922 169.895C56.4922 184.798 56.4922 199.701 56.4922 214.604C56.4922 218.295 56.4922 221.957 56.4922 225.647C56.4922 226.215 56.3789 226.697 56.7757 227.095C57.1158 227.464 57.7111 227.691 58.1363 227.975C59.1 228.599 60.0638 229.195 60.9992 229.82C73.0744 237.513 85.1212 245.177 97.1964 252.87C97.5082 253.068 97.82 253.267 98.1035 253.466C98.2169 253.551 98.4153 253.551 98.5287 253.466C113.24 242.991 127.951 232.545 142.634 222.07C143.088 221.758 142.663 221.02 142.209 221.332C134.471 226.839 126.732 232.346 118.994 237.853C115.082 240.635 111.171 243.417 107.287 246.199C105.36 247.561 103.461 248.924 101.533 250.287C100.711 250.883 99.4357 251.479 98.7838 252.245C98.5853 252.472 98.6137 252.699 98.4436 252.699C98.0468 252.699 97.1681 251.876 96.8563 251.678C95.7225 250.939 94.5886 250.23 93.4265 249.492C89.9967 247.306 86.5669 245.12 83.137 242.934C75.8522 238.279 68.5674 233.652 61.2543 228.996C60.2339 228.344 59.2418 227.719 58.2213 227.066C57.9662 226.896 57.6828 226.669 57.3993 226.555C57.2009 226.47 57.0308 226.186 57.2009 226.555C57.3993 226.981 57.2859 226.357 57.3143 226.186C57.3426 225.675 57.3143 225.164 57.3143 224.653C57.3143 219.884 57.3143 215.087 57.3143 210.318C57.3143 202.37 57.3143 194.421 57.3143 186.473C57.3143 177.105 57.3143 167.738 57.3143 158.37C57.3143 149.173 57.3143 139.975 57.3143 130.778C57.3143 123.483 57.3143 116.187 57.3143 108.892C57.3143 106.507 57.3143 104.095 57.3143 101.71C57.3143 100.461 57.4843 99.0701 57.3143 97.8211C57.2859 97.6508 57.3143 97.4805 57.3143 97.3101C57.0591 97.4237 56.8324 97.5088 56.5773 97.6224C61.2826 101.71 65.988 105.826 70.6933 109.914C78.2333 116.471 85.7732 123.057 93.3131 129.614C95.0422 131.119 96.7429 132.623 98.472 134.128C98.642 134.27 98.8121 134.27 98.9822 134.185C113.58 127.542 128.065 120.644 142.408 113.434C142.634 113.32 142.691 112.923 142.493 112.753C132.402 104.151 122.311 95.5501 112.22 86.9489C111.001 85.8986 109.782 84.8767 108.563 83.8264C107.996 83.3438 107.429 82.8613 106.834 82.3503C106.38 81.9813 105.587 81.0161 105.02 80.8174C104.623 80.6755 104.283 80.9026 103.886 81.0445C103.092 81.3 102.299 81.5838 101.477 81.8393C99.8892 82.3787 98.2736 82.918 96.6862 83.4574C90.4785 85.5296 84.2425 87.6302 78.0348 89.7025C70.9201 92.087 63.8337 94.4714 56.719 96.8559C56.2655 97.0263 56.4922 97.8495 57.0308 97.6792Z" fill="#161616"/>
<path d="M62.899 229.651C62.899 224.059 62.899 218.495 62.899 212.903C62.899 212.363 62.0486 212.363 62.0486 212.903C62.0486 218.495 62.0486 224.059 62.0486 229.651C62.0486 230.19 62.899 230.19 62.899 229.651Z" fill="#161616"/>
<path d="M62.2748 212.503C68.9077 216.222 75.4555 220.111 81.89 224.17C82.3435 224.454 82.7687 223.716 82.3152 223.432C75.8807 219.373 69.3329 215.484 62.7 211.765C62.2181 211.509 61.793 212.247 62.2748 212.503Z" fill="#161616"/>
<path d="M81.7485 223.972C81.38 229.791 81.0115 235.639 80.643 241.458C80.6147 241.998 81.465 241.998 81.4934 241.458C81.8619 235.639 82.2304 229.791 82.5989 223.972C82.6272 223.433 81.7769 223.433 81.7485 223.972Z" fill="#161616"/>
<path d="M65.6197 218.691C65.1379 222.608 64.8544 226.525 64.7977 230.443C64.7977 230.982 65.6481 230.982 65.6481 230.443C65.7048 226.497 65.9882 222.58 66.4701 218.691C66.5552 218.123 65.7048 218.151 65.6197 218.691Z" fill="#161616"/>
<path d="M70.1265 220.707C69.6163 224.767 69.2478 228.826 69.0494 232.885C69.0211 233.425 69.8714 233.425 69.8998 232.885C70.1265 228.826 70.4667 224.738 70.9769 220.707C71.0619 220.168 70.2116 220.168 70.1265 220.707Z" fill="#161616"/>
<path d="M74.7758 223.716C74.1522 227.832 73.6987 231.976 73.4436 236.121C73.4152 236.66 74.2656 236.66 74.2939 236.121C74.549 232.033 74.9742 227.974 75.5978 223.943C75.6829 223.403 74.8608 223.176 74.7758 223.716Z" fill="#161616"/>
<path d="M78.2333 225.703C77.9782 229.365 77.7231 232.999 77.4963 236.661C77.468 237.2 78.3183 237.2 78.3467 236.661C78.6018 232.999 78.8569 229.365 79.0836 225.703C79.112 225.164 78.2616 225.164 78.2333 225.703Z" fill="#161616"/>
<path d="M62.8424 209.637C70.0706 213.412 77.1853 217.415 84.1583 221.644C84.6402 221.928 85.0654 221.19 84.5835 220.906C77.6105 216.677 70.4958 212.646 63.2676 208.899C62.7858 208.643 62.3322 209.381 62.8424 209.637Z" fill="#161616"/>
<path d="M63.3523 208.984C63.3523 207.508 63.3523 206.06 63.3523 204.584C63.3523 204.045 62.502 204.045 62.502 204.584C62.502 206.06 62.502 207.508 62.502 208.984C62.502 209.552 63.3523 209.552 63.3523 208.984Z" fill="#161616"/>
<path d="M62.8705 204.47C70.4388 208.103 77.752 212.248 84.7533 216.846C85.2068 217.159 85.632 216.421 85.1785 216.108C78.1771 211.481 70.864 207.365 63.2957 203.732C62.8139 203.505 62.3887 204.214 62.8705 204.47Z" fill="#161616"/>
<path d="M84.2992 217.103C84.1575 218.38 84.0158 219.686 83.874 220.963C83.8174 221.503 84.6677 221.503 84.7244 220.963C84.8662 219.686 85.0079 218.38 85.1496 217.103C85.2063 216.563 84.3559 216.563 84.2992 217.103Z" fill="#161616"/>
<path d="M101.222 137.278C112.248 132.424 123.048 127.031 133.536 121.098C134.017 120.842 133.592 120.104 133.11 120.36C122.594 126.264 111.823 131.658 100.796 136.54C100.286 136.767 100.711 137.505 101.222 137.278Z" fill="#161616"/>
<path d="M100.542 136.853C100.542 139.209 100.542 141.565 100.542 143.921C100.542 144.46 101.392 144.46 101.392 143.921C101.392 141.565 101.392 139.209 101.392 136.853C101.392 136.313 100.542 136.313 100.542 136.853Z" fill="#161616"/>
<path d="M101.336 143.921C109.017 140.515 116.529 136.739 123.87 132.623C124.352 132.368 123.927 131.63 123.445 131.885C116.104 136.001 108.592 139.748 100.911 143.183C100.429 143.41 100.854 144.148 101.336 143.921Z" fill="#161616"/>
<path d="M100.995 175.431C100.995 196.04 100.995 216.648 100.995 237.229C100.995 237.768 101.846 237.768 101.846 237.229C101.846 216.62 101.846 196.011 101.846 175.431C101.846 174.892 100.995 174.892 100.995 175.431Z" fill="#161616"/>
<path d="M103.376 208.984C103.376 220.168 103.376 231.352 103.376 242.537C103.376 243.076 104.227 243.076 104.227 242.537C104.227 231.352 104.227 220.168 104.227 208.984C104.227 208.444 103.376 208.444 103.376 208.984Z" fill="#161616"/>
<path d="M58.2219 103.952C58.2219 118.43 58.2219 132.935 58.2219 147.413C58.2219 147.952 59.0723 147.952 59.0723 147.413C59.0723 132.935 59.0723 118.43 59.0723 103.952C59.0723 103.413 58.2219 103.413 58.2219 103.952Z" fill="#161616"/>
<path d="M60.6597 135.376C60.6597 152.124 60.6597 168.901 60.6597 185.649C60.6597 186.189 61.51 186.189 61.51 185.649C61.51 168.901 61.51 152.124 61.51 135.376C61.51 134.837 60.6597 134.837 60.6597 135.376Z" fill="#161616"/>
<path opacity="0.06" d="M56.5779 97.4805C56.5779 140.543 56.5779 183.606 56.5779 226.669C70.5239 235.469 84.4415 244.269 98.3875 253.068C98.3875 213.185 98.3875 173.302 98.3875 133.39C84.4415 121.439 70.5239 109.46 56.5779 97.4805Z" fill="#353535"/>
<path opacity="0.1" d="M57.7681 112.725C61.9916 133.22 66.13 150.252 69.4181 162.912C74.5203 182.613 77.1281 190.277 80.5862 198.112C86.5105 211.539 93.2 221.787 98.1605 228.571C98.3305 208.814 98.4723 189.085 98.6423 169.328C100.031 196.948 112.503 214.293 122.396 214.065C130.389 213.867 138.213 202.257 142.578 188.12C142.578 199.389 142.578 210.631 142.578 221.9C127.923 232.119 113.269 242.367 98.6423 252.586C84.7814 243.872 70.9204 235.128 57.0594 226.414C57.2862 188.517 57.513 150.621 57.7681 112.725Z" fill="#353535"/>
<path opacity="0.39" d="M148.445 99.2968C135.35 106.706 122.283 114.115 109.187 121.524C101.42 110.992 93.6252 100.432 85.8585 89.9007C100.825 84.0247 115.82 78.1202 130.786 72.2441C136.682 81.2711 142.578 90.2698 148.445 99.2968Z" fill="url(#paint0_linear_3004_1043)"/>
<g opacity="0.39">
<g opacity="0.39">
<path opacity="0.39" d="M90.7627 92.2858C92.2084 93.251 93.654 94.2161 95.128 95.1813C95.3547 95.3232 95.6949 95.1813 95.7516 94.9258C96.3752 92.0304 97.3673 89.3052 98.7845 86.7221C99.0397 86.2395 98.3027 85.8137 98.0476 86.2963C96.6019 88.9646 95.5815 91.7749 94.9295 94.7271C95.128 94.6419 95.3547 94.5568 95.5532 94.4716C94.1075 93.5065 92.6619 92.5413 91.1879 91.5762C90.7344 91.2355 90.3092 91.9736 90.7627 92.2858Z" fill="url(#paint1_linear_3004_1043)"/>
</g>
</g>
<path d="M102.412 86.2947C102.894 85.5567 103.546 84.9889 104.368 84.6483C104.623 84.5347 104.396 84.1657 104.141 84.2793C103.262 84.6767 102.554 85.3012 102.044 86.096C101.902 86.3231 102.27 86.5218 102.412 86.2947Z" fill="url(#paint2_linear_3004_1043)"/>
<path d="M102.441 88.0842C103.008 86.3242 104.595 85.0468 106.438 84.8481C106.721 84.8197 106.721 84.3939 106.438 84.4223C104.397 84.621 102.668 85.9835 102.044 87.9706C101.959 88.2261 102.356 88.3396 102.441 88.0842Z" fill="url(#paint3_linear_3004_1043)"/>
<path d="M102.922 89.5311C103.546 87.033 105.303 85.2163 107.996 86.0963C108.251 86.1814 108.365 85.784 108.11 85.6989C105.218 84.7337 103.206 86.6924 102.526 89.4175C102.441 89.673 102.837 89.7866 102.922 89.5311Z" fill="url(#paint4_linear_3004_1043)"/>
<path d="M103.773 90.9218C103.858 89.5308 104.085 87.8844 105.417 87.0896C106.721 86.3231 108.195 86.8625 109.159 87.8844C109.357 88.0831 109.641 87.7709 109.471 87.5721C108.45 86.4934 106.948 85.9257 105.531 86.5502C103.83 87.2883 103.49 89.2186 103.377 90.8934C103.348 91.1773 103.773 91.1773 103.773 90.9218Z" fill="url(#paint5_linear_3004_1043)"/>
<path d="M105.049 92.5407C105.333 90.9226 104 89.4465 105.446 88.0556C106.495 87.062 107.827 87.573 108.677 88.4814C109.443 89.333 109.754 90.4401 109.896 91.5472C109.924 91.8026 110.35 91.831 110.321 91.5472C110.095 89.6736 108.904 86.7214 106.466 87.0336C105.588 87.1472 104.822 87.9136 104.482 88.7085C103.944 89.9859 104.879 91.1214 104.652 92.3988C104.596 92.6826 105.021 92.7962 105.049 92.5407Z" fill="url(#paint6_linear_3004_1043)"/>
<path d="M105.984 93.1933C106.863 91.7455 105.02 90.3546 105.757 89.0204C106.522 87.5727 108.025 88.5378 108.535 89.5597C109.073 90.6952 109.073 91.9726 108.762 93.1649C108.705 93.4203 109.102 93.5339 109.159 93.2784C109.584 91.632 109.414 87.9701 107.033 87.8565C106.267 87.8282 105.502 88.3675 105.275 89.0772C104.822 90.4397 106.437 91.6887 105.644 92.9662C105.474 93.2216 105.842 93.4487 105.984 93.1933Z" fill="url(#paint7_linear_3004_1043)"/>
<path d="M106.976 93.5064C107.43 92.4277 107.316 91.4058 106.778 90.4122C106.664 90.2419 106.579 90.0432 106.494 89.8445C107.118 89.4187 107.486 89.5322 107.6 90.1284C107.713 90.4122 107.798 90.6961 107.826 91.0083C107.968 91.8883 107.826 92.7399 107.515 93.5632C107.401 93.8186 107.826 93.9322 107.911 93.6767C108.308 92.6832 108.422 91.6329 108.167 90.6109C108.025 89.958 107.656 88.8793 106.834 88.851C106.296 88.8226 105.984 89.2484 106.012 89.7593C106.041 90.2135 106.381 90.6109 106.551 91.0083C106.891 91.8032 106.863 92.6264 106.523 93.4212C106.466 93.6483 106.863 93.7619 106.976 93.5064Z" fill="url(#paint8_linear_3004_1043)"/>
<path d="M126.166 108.835C126.252 108.324 126.28 107.756 125.798 107.444C125.316 107.132 124.494 107.444 123.927 107.416C123.02 107.359 122.113 107.018 121.263 106.734C119.534 106.167 117.776 105.372 116.529 103.952C115.962 103.299 115.225 102.249 115.168 101.341C115.055 99.2117 116.274 100.858 117.124 101.085C117.578 101.199 117.946 101.17 117.975 100.659C118.003 100.319 117.72 100.149 117.493 99.893C116.897 99.2685 116.331 98.6724 115.792 97.9911C114.715 96.5718 113.865 94.9821 113.354 93.2789C113.156 92.626 112.504 90.0712 113.779 90.2415C114.375 90.2983 115.395 91.6892 115.764 92.1434C115.877 92.0299 115.962 91.9447 116.075 91.8312C115.253 90.7809 113.893 89.2196 113.978 87.8002C114.12 85.0751 117.266 87.6867 117.833 88.6802C117.946 88.5951 118.06 88.5099 118.173 88.4248C117.805 87.999 117.238 87.1757 117.238 86.5512C117.181 84.8196 118.145 85.4725 118.825 85.9267C119.732 86.5512 120.384 87.5164 121.036 88.3964C121.206 88.6235 121.518 88.4248 121.404 88.1693C121.206 87.8002 121.064 87.4028 120.951 86.977C120.696 86.4377 120.923 86.1538 121.688 86.097C122.737 85.5577 122.652 85.6996 123.332 86.4377C124.097 87.2609 124.693 88.226 125.316 89.1628C126.337 90.7525 127.499 92.1718 128.633 93.6479C129.37 94.6131 129.965 95.635 130.277 96.8273C130.588 97.9911 130.56 99.1833 130.73 100.347C130.929 101.71 131.495 102.93 132.799 103.555C133.054 103.668 133.253 103.299 133.026 103.186C130.362 101.908 131.297 97.7356 130.22 95.3511C129.738 94.2724 129.001 93.3357 128.236 92.4273C127.244 91.2351 126.422 90.0144 125.571 88.7086C124.749 87.4312 123.304 84.7061 121.546 84.6493C119.59 84.5925 120.611 87.3461 121.036 88.2828C121.149 88.1977 121.291 88.1409 121.404 88.0557C120.696 87.0622 118.853 84.2803 117.238 84.8196C115.82 85.3022 117.351 87.9706 117.89 88.5951C118.06 88.7938 118.343 88.5383 118.23 88.3396C117.72 87.4596 117.011 86.7499 116.104 86.3241C115.537 86.0687 114.346 85.6145 113.808 86.1822C113.269 86.7499 113.553 87.9989 113.779 88.6518C114.176 89.9009 114.998 90.9796 115.82 92.0015C115.99 92.2286 116.274 91.9163 116.132 91.6892C115.679 91.1215 114.176 89.1344 113.241 89.4467C112.447 89.7305 112.646 91.4338 112.702 91.9731C112.929 93.7047 113.779 95.4363 114.687 96.884C115.112 97.5653 115.594 98.2182 116.104 98.8143C116.359 99.1266 116.897 99.4672 117.068 99.8362C117.606 100.205 117.493 100.319 116.699 100.177C116.472 100.035 116.217 99.9214 115.99 99.7795C115.282 99.4104 114.828 99.4104 114.687 100.319C114.516 101.539 115.367 103.016 116.104 103.896C117.124 105.145 118.542 105.939 120.016 106.536C120.894 106.876 121.83 107.188 122.737 107.416C123.417 107.586 125.911 107.472 125.77 108.523C125.713 109.005 126.138 109.119 126.166 108.835Z" fill="url(#paint9_linear_3004_1043)"/>
<path d="M115.423 91.6607C116.613 93.1084 117.577 94.7548 118.626 96.3161C118.768 96.5432 119.136 96.3161 118.994 96.089C117.917 94.4993 116.925 92.8245 115.706 91.3484C115.536 91.1497 115.253 91.4336 115.423 91.6607Z" fill="url(#paint10_linear_3004_1043)"/>
<path d="M117.181 87.7716C118.343 89.3613 119.42 90.9793 120.44 92.6541C120.582 92.8812 120.951 92.6825 120.809 92.427C119.788 90.7522 118.711 89.1342 117.549 87.5445C117.407 87.3458 117.039 87.5445 117.181 87.7716Z" fill="url(#paint11_linear_3004_1043)"/>
<path d="M85.7454 89.9571C93.3703 100.545 101.165 111.02 109.159 121.325C109.329 121.552 109.612 121.239 109.471 121.012C101.505 110.708 93.7388 100.29 86.1139 89.73C85.9722 89.5313 85.6036 89.73 85.7454 89.9571Z" fill="url(#paint12_linear_3004_1043)"/>
<path d="M194.139 237.087C194.592 242.452 195.046 247.788 195.499 253.153C184.813 257.894 179.654 260.931 180.051 262.237C180.533 263.827 189.065 262.919 205.619 259.512C205.279 250.428 204.91 241.316 204.57 232.232C201.112 233.85 197.625 235.469 194.139 237.087Z" fill="#161616"/>
<path d="M204.542 122.006C206.157 123.085 206.441 125.498 207.008 130.295C207.291 132.595 207.433 135.433 206.724 143.666C206.639 144.546 206.412 147.356 205.704 153.402C204.683 162.259 204.4 163.309 204.116 167.056C203.89 169.98 203.748 173.074 203.833 179.717C203.918 186.047 204.003 194.705 204.995 206.769C205.732 215.711 206.979 226.839 209.219 239.613C207.008 240.777 204.938 241.486 203.266 241.941C199.553 242.934 196.548 242.963 193.969 242.963C191.503 242.963 189.348 242.764 187.591 242.537C186.769 238.25 185.692 231.807 184.841 223.915C184.388 219.827 184.104 215.314 183.538 206.457C182.744 194.052 182.347 187.864 182.234 182.612C182.177 180.285 182.177 178.354 182.517 162.401C183.027 138.471 183.226 135.547 185.72 131.715C190.681 124.05 200.743 119.452 204.542 122.006Z" fill="white"/>
<path d="M206.668 122.801C207.15 130.523 207.008 138.244 206.243 145.937C205.477 153.431 204.202 160.84 203.72 168.334C202.728 183.72 203.748 199.19 205.449 214.491C206.413 223.035 207.575 231.58 208.765 240.096C208.851 240.635 209.673 240.408 209.588 239.869C207.462 224.511 205.336 209.126 204.514 193.627C204.117 186.047 204.032 178.411 204.4 170.832C204.797 163.281 205.903 155.872 206.81 148.378C207.83 139.89 208.057 131.318 207.518 122.773C207.49 122.234 206.64 122.234 206.668 122.801Z" fill="#161616"/>
<path d="M182.092 159.789C181.412 181.363 182.234 202.965 184.643 224.426C185.295 230.387 186.089 236.32 186.996 242.253C187.081 242.792 187.903 242.565 187.818 242.026C184.615 220.821 182.914 199.389 182.744 177.928C182.688 171.882 182.773 165.835 182.971 159.789C182.971 159.221 182.121 159.221 182.092 159.789Z" fill="#161616"/>
<path d="M187.251 242.877C194.621 244.353 202.246 243.388 209.02 240.095C209.502 239.868 209.077 239.13 208.595 239.357C202.047 242.537 194.621 243.502 187.478 242.054C186.939 241.941 186.712 242.764 187.251 242.877Z" fill="#161616"/>
<path opacity="0.09" d="M185.012 138.782C184.246 144.147 183.538 150.25 183.056 157.007C182.772 160.697 182.375 167.027 182.319 174.975C182.262 181.589 182.517 187.182 183.056 198.139C183.651 210.516 183.963 216.846 184.785 223.744C185.72 231.692 186.882 238.164 187.733 242.451C189.717 242.877 192.438 243.189 195.613 242.933C197.71 242.763 199.525 242.366 201.027 241.94C198.617 232.913 196.407 223.46 194.394 213.61C188.867 186.699 186.089 161.52 185.012 138.782Z" fill="#353535"/>
<path opacity="0.09" d="M182.801 166.631C184.02 176.793 185.097 185.536 186.004 192.491C188.328 210.687 189.065 215.257 190.681 221.048C193.345 230.643 196.832 238.052 199.298 242.707C197.569 243.133 194.763 243.587 191.418 242.963C189.859 242.679 188.527 242.197 187.478 241.742C186.316 234.844 185.324 227.606 184.53 220.083C182.461 200.695 182.149 182.755 182.801 166.631Z" fill="#353535"/>
<path d="M161.91 240.122C161.513 245.771 161.116 251.448 160.691 257.097C147.369 260.39 140.821 262.775 141.019 264.223C141.246 265.954 151.082 266.352 170.527 265.443C171.122 257.268 171.746 249.064 172.341 240.889C168.855 240.605 165.368 240.349 161.91 240.122Z" fill="#161616"/>
<path d="M173.674 123.085C172.001 124.873 170.896 127.144 170.896 127.144C170.215 128.535 169.79 129.727 169.62 130.692C169.308 132.821 168.855 135.774 168.345 139.294C167.239 146.986 166.474 153.004 166.077 156.24C164.66 167.453 163.866 174.72 162.279 188.147C159.926 207.99 159.246 212.276 157.488 228.4C156.836 234.389 156.298 239.329 155.958 242.565C156.439 243.331 157.261 244.41 158.565 245.375C158.877 245.602 159.472 246.028 161.258 246.879C162.902 247.646 164.575 248.327 165.312 248.583C169.705 250.002 177.642 247.873 178.067 247.759C178.067 244.665 178.124 240.492 178.351 235.525C178.436 233.538 178.719 228.173 179.825 217.868C180.817 208.642 181.582 201.347 183.311 191.525C184.558 184.343 185.777 178.865 186.883 174.096C188.555 166.602 190.199 160.215 191.56 155.247C193.515 151.415 195.471 147.582 197.427 143.75C197.994 142.927 203.181 135.234 200.233 128.251C195.811 117.634 177.33 119.167 173.674 123.085Z" fill="white"/>
<path d="M172.71 119.961C167.409 134.552 166.275 150.306 164.49 165.607C162.562 182.014 160.635 198.422 158.736 214.858C157.658 224.055 156.581 233.253 155.504 242.421C155.447 242.961 156.298 242.961 156.355 242.421C158.254 226.099 160.181 209.777 162.08 193.454C163.951 177.416 165.595 161.349 167.778 145.367C168.94 136.823 170.556 128.307 173.532 120.188C173.702 119.677 172.88 119.45 172.71 119.961Z" fill="#161616"/>
<path d="M197.229 143.466C192.75 150.535 189.207 158.142 186.713 166.148C186.543 166.659 187.365 166.886 187.535 166.375C190.001 158.455 193.516 150.904 197.966 143.892C198.249 143.438 197.512 142.984 197.229 143.466Z" fill="#161616"/>
<path d="M191.617 153.771C184.757 177.502 180.363 201.943 178.606 226.583C178.096 233.651 177.812 240.719 177.727 247.788C177.727 248.327 178.578 248.327 178.578 247.788C178.861 223.063 181.752 198.395 187.195 174.294C188.725 167.481 190.483 160.725 192.439 154.026C192.58 153.487 191.787 153.26 191.617 153.771Z" fill="#161616"/>
<path d="M155.589 242.875C161.173 249.489 170.385 251.505 178.265 247.957C178.776 247.729 178.322 246.991 177.84 247.218C170.3 250.596 161.513 248.553 156.184 242.251C155.816 241.853 155.22 242.45 155.589 242.875Z" fill="#161616"/>
<path opacity="0.06" d="M179.342 125.496C182.715 128.59 177.386 138.781 174.183 146.673C169.506 158.198 168.514 177.245 166.558 215.397C166.133 223.459 165.68 234.757 165.566 248.411C164.574 248.269 163.384 247.985 162.137 247.417C158.82 245.97 156.893 243.557 155.986 242.251C156.779 236.602 157.913 228.058 159.189 217.611C162.108 193.653 162.703 183.831 164.858 166.629C166.077 156.892 167.976 142.926 171.009 125.979C170.98 125.979 170.98 125.979 179.342 125.496Z" fill="#353535"/>
<path opacity="0.06" d="M165.566 162.938C167.069 184.199 165.481 197.796 163.611 206.54C161.995 214.034 162.363 221.84 161.4 229.448C160.918 233.166 160.266 237.85 162.874 242.25C164.744 245.401 167.522 247.189 169.506 248.155C168.344 248.382 165.311 248.808 161.881 247.417C158.537 246.054 156.666 243.726 155.986 242.733C157.346 230.924 158.763 219.087 160.152 207.278C161.938 192.46 163.752 177.699 165.566 162.938Z" fill="#353535"/>
<path d="M198.051 57.8803C197.456 58.221 197.711 61.5422 198.25 68.0996C198.307 68.6389 198.335 69.2634 198.42 70.1151C198.618 72.0454 198.873 73.9189 199.185 75.9343C201.538 91.2348 204.883 102.59 204.883 102.59C206.498 108.068 208.794 114.824 212.054 122.347C212.593 123.312 213.67 124.873 215.484 125.782C217.44 126.775 219.197 126.491 221.805 126.009C226.851 125.072 230.082 122.773 231.244 121.864C232.945 120.558 235.184 118.827 234.986 116.811C234.901 116.102 234.504 115.051 233.625 114.739C232.86 114.455 231.896 114.824 231.244 115.647C232.576 113.802 233.512 112.099 234.135 110.822C235.581 107.869 235.581 106.848 235.269 106.11C235.212 105.996 234.872 105.201 234.135 104.832C233.937 104.747 233.54 104.577 232.265 104.832C230.762 105.116 230.535 105.485 229.572 105.513C228.665 105.542 228.381 105.23 227.701 105.173C226.822 105.088 225.518 105.428 223.761 107.472C223.477 107.245 223.052 106.989 222.514 107.018C221.607 107.046 220.898 107.898 219.084 111.049C218.517 112.014 217.808 113.291 217.015 114.853C216.618 113.093 216.023 110.368 215.342 107.046C213.018 95.3509 213.358 93.08 211.601 84.5355C209.135 72.386 206.527 67.3048 204.231 63.87C202.02 60.4068 199.1 57.2558 198.051 57.8803Z" fill="white"/>
<path d="M198.136 58.5043C199.412 57.9082 200.942 60.1791 201.623 61.0023C202.473 62.0526 203.267 63.1313 203.975 64.2668C205.308 66.339 206.413 68.5532 207.349 70.8525C209.446 75.9338 210.665 81.3273 211.629 86.7207C212.621 92.3413 213.415 97.9903 214.293 103.611C215.059 108.493 215.569 113.688 218.29 117.946C218.573 118.4 219.31 117.975 219.027 117.52C216.618 113.773 216.022 109.317 215.37 105.03C214.633 100.204 213.896 95.3787 213.131 90.553C211.742 81.7814 209.985 72.7828 205.449 65.0332C204.372 63.2165 203.153 61.4849 201.793 59.8668C200.772 58.703 199.44 56.9714 197.739 57.7662C197.201 57.9933 197.626 58.7314 198.136 58.5043Z" fill="#161616"/>
<path d="M197.966 70.4548C198.958 79.198 200.545 87.856 202.756 96.372C204.911 104.661 207.433 113.205 211.062 120.983C212.592 124.219 215.483 127.796 219.508 126.746C220.047 126.604 219.82 125.781 219.282 125.923C213.641 127.427 211.203 119.337 209.729 115.505C207.915 110.736 206.3 105.91 204.882 101.027C201.991 91.0353 199.979 80.816 198.788 70.4832C198.76 69.9155 197.909 69.8871 197.966 70.4548Z" fill="#161616"/>
<path d="M217.496 115.391C218.233 113.887 218.942 112.354 219.679 110.849C220.444 109.288 221.379 107.102 223.449 107.301C223.987 107.358 223.987 106.506 223.449 106.449C221.833 106.307 220.671 107.358 219.877 108.635C218.658 110.594 217.78 112.865 216.759 114.937C216.532 115.448 217.241 115.874 217.496 115.391Z" fill="#161616"/>
<path d="M221.748 111.787C222.967 109.743 225.292 104.066 228.466 105.797C228.948 106.053 229.373 105.315 228.892 105.059C225.008 102.93 222.485 108.863 221.012 111.333C220.728 111.844 221.465 112.27 221.748 111.787Z" fill="#161616"/>
<path d="M224.214 112.837C225.234 111.389 226.283 109.941 227.304 108.494C228.409 106.932 229.883 105.03 232.037 105.343C232.576 105.428 232.803 104.605 232.264 104.519C230.478 104.236 229.033 105.087 227.871 106.393C226.226 108.21 224.894 110.424 223.477 112.411C223.137 112.837 223.874 113.263 224.214 112.837Z" fill="#161616"/>
<path d="M226.624 113.461C227.843 112.013 229.033 110.537 230.252 109.09C230.961 108.238 233.795 103.838 234.986 106.45C235.298 107.102 234.787 108.437 234.561 109.09C234.249 109.941 233.795 110.736 233.37 111.531C232.406 113.291 231.414 115.022 230.167 116.584C229.827 117.009 230.422 117.606 230.762 117.18C232.321 115.193 233.625 112.979 234.759 110.708C235.468 109.288 236.573 106.705 235.468 105.201C234.362 103.696 232.463 105.172 231.613 106.137C229.685 108.323 227.871 110.622 226.029 112.865C225.688 113.262 226.284 113.859 226.624 113.461Z" fill="#161616"/>
<path d="M231.839 105.314C232.264 105.37 232.661 105.484 233.058 105.626C233.285 105.711 233.511 105.541 233.568 105.342C233.625 105.087 233.483 104.916 233.285 104.831C232.831 104.661 232.349 104.547 231.839 104.49C231.612 104.462 231.414 104.718 231.414 104.916C231.414 105.143 231.612 105.285 231.839 105.314Z" fill="#161616"/>
<path d="M232.208 115.478C232.86 114.655 234.135 115.222 234.39 116.131C234.504 116.528 234.504 117.011 234.419 117.408C234.22 118.345 233.625 119.168 232.973 119.849C231.811 121.099 230.422 122.177 228.948 123.029C226 124.732 222.655 125.584 219.282 125.839C218.744 125.868 218.744 126.719 219.282 126.691C224.384 126.322 229.401 124.562 233.115 120.928C234.475 119.594 235.836 117.72 235.156 115.705C234.645 114.172 232.718 113.462 231.612 114.853C231.244 115.308 231.868 115.904 232.208 115.478Z" fill="#161616"/>
<path opacity="0.08" d="M198.392 58.3633C199.015 60.6058 199.922 64.069 200.971 68.327C203.664 79.3695 205.421 88.652 208.709 102.334C212.026 116.13 213.273 119.253 216.334 120.445C219.736 121.751 226.454 121.098 230.649 117.606C231.981 116.499 233.313 114.91 233.994 115.279C234.702 115.676 234.504 118.004 233.597 119.792C231.896 123.199 227.899 124.363 224.044 125.47C220.898 126.378 219.311 126.832 217.327 126.236C214.407 125.356 212.735 122.915 211.912 121.723C210.892 120.218 210.722 119.338 209.333 115.506C207.916 111.56 207.802 111.674 206.754 108.778C204.656 103.016 203.409 97.9628 202.615 94.8119C200.999 88.3397 199.525 82.3501 198.732 74.2599C198.392 70.229 198.108 64.8071 198.392 58.3633Z" fill="#353535"/>
<path opacity="0.06" d="M211.43 118.712C212.224 119.535 215.965 123.254 222.003 123.481C228.863 123.737 233.228 119.252 233.88 118.57C233.143 119.819 231.697 121.806 229.231 123.339C227.672 124.333 226.34 124.73 224.838 125.156C220.954 126.292 218.432 127.001 216.051 125.923C212.422 124.304 211.572 119.507 211.43 118.712Z" fill="#353535"/>
<path d="M195.953 55.5239C192.92 55.1549 190.057 57.2271 188.498 58.3626C184.161 61.5135 182.489 65.9702 181.723 67.9005C177.046 79.6243 175.686 93.8176 175.09 99.1544C174.325 105.854 172.823 115.619 169.421 127.484C171.406 129.102 179.257 135.149 190.766 134.78C200.601 134.439 207.319 129.585 209.502 127.825C210.126 116.442 210.211 106.847 210.154 99.6653C210.012 86.5506 209.559 80.5326 207.575 73.6063C206.044 68.2695 202.614 56.3187 195.953 55.5239Z" fill="url(#paint13_linear_3004_1043)"/>
<path opacity="0.08" d="M193.544 56.4039C190.709 59.1858 197.484 70.0296 198.589 72.556C203.692 84.1946 206.044 103.015 193.856 134.524C195.528 134.212 197.399 133.758 199.383 133.048C203.521 131.629 206.781 129.699 209.162 127.995C209.361 125.923 209.616 123.141 209.814 119.848C210.126 114.597 210.154 110.282 210.126 106.649C210.069 95.5777 210.041 90.0423 209.162 82.6901C208.709 79.0282 207.717 72.187 204.429 64.4374C202.473 59.8671 200.46 56.6878 197.257 55.9497C196.86 55.8362 194.649 55.3252 193.544 56.4039Z" fill="#353535"/>
<path opacity="0.05" d="M209.502 89.02C208.936 88.9632 208.199 94.158 206.895 100.914C204.145 115.136 200.715 126.235 198.278 133.36C199.893 132.736 201.594 132.026 203.323 131.231C205.449 130.266 207.462 129.272 209.361 128.307C210.58 95.776 210.154 89.0768 209.502 89.02Z" fill="#353535"/>
<path d="M189.462 59.6672C188.555 59.2982 187.704 59.3549 187.194 59.4401C186.344 60.462 185.012 62.0801 183.396 64.0671C176.281 72.9522 175.658 75.0244 170.697 80.7018C165.935 86.152 162.647 88.7069 160.209 90.3533C157.46 92.1984 155.419 93.1352 154.795 93.4191C150.288 95.4345 146.207 96.059 143.514 96.2861C142.692 95.8887 141.501 95.2358 140.311 94.1571C138.78 92.7378 138.071 91.3752 137.334 90.1262C134.528 85.3856 133.763 84.023 132.714 84.0514C132.346 84.0514 131.75 84.2501 131.013 85.3572C130.73 85.1585 130.248 84.7895 129.71 84.3069C128.377 83.1147 128.009 82.405 126.903 81.9224C126.421 81.7237 125.798 81.4398 125.259 81.7521C124.721 82.0644 124.607 82.8024 124.579 82.9727C124.097 82.4618 122.935 81.4115 121.291 81.3263C120.837 81.2979 120.185 81.2695 119.874 81.6669C119.392 82.2347 119.845 83.5972 121.036 85.0166C120.752 84.9314 119.392 84.4772 118.825 85.1017C118.201 85.7546 118.853 87.2024 119.278 88.1391C120.129 90.041 121.234 91.0062 123.53 93.561C124.466 94.6113 125.203 95.4629 125.684 96.0023C125.203 95.9455 124.437 95.8319 123.587 95.4913C122.311 94.9803 121.886 94.3842 121.319 94.5545C120.696 94.7532 120.355 95.8035 120.469 96.6268C120.611 97.5635 121.489 98.1313 122.028 98.4435C125.288 100.431 129.313 101.424 130.56 101.736C133.65 102.503 135.209 102.872 136.371 103.014C138.383 103.269 140.396 103.383 143.4 103.241C151.734 102.843 158.225 101.14 159.614 100.771C162.619 99.9764 165.255 99.2667 168.571 97.7622C171.661 96.3713 178.464 93.2203 184.416 86.0953C187.676 82.2063 189.065 78.9986 191.871 72.6116C192.211 71.8167 192.892 70.2555 193.005 68.1548C193.147 65.2026 192.325 60.8027 189.462 59.6672Z" fill="white"/>
<path d="M189.236 59.0708C187.28 58.3328 185.806 60.1779 184.701 61.5405C183.113 63.4708 181.611 65.4578 180.109 67.4733C176.849 71.8732 173.702 76.3867 170.103 80.5596C163.3 88.5079 154.342 95.5194 143.429 95.7749C142.891 95.7749 142.891 96.6265 143.429 96.6265C153.294 96.3994 161.797 90.7505 168.345 83.7673C171.747 80.1338 174.751 76.1597 177.699 72.1571C179.258 70.0281 180.817 67.8991 182.405 65.7985C183.34 64.5778 184.304 63.3572 185.267 62.165C186.146 61.0863 187.365 59.3263 188.981 59.9224C189.519 60.0644 189.718 59.2411 189.236 59.0708Z" fill="#161616"/>
<path d="M192.523 67.5018C188.781 93.2769 159.132 105.029 135.917 102.417C132.119 101.992 128.264 101.112 124.777 99.4936C123.899 99.0962 123.02 98.642 122.226 98.1027C121.886 97.8756 121.546 97.6769 121.291 97.3646C120.639 96.8821 120.582 96.3711 121.064 95.8034C121.121 95.0369 121.489 94.8098 122.198 95.0937C123.587 95.4059 124.465 96.5982 125.968 96.6266C126.506 96.6266 126.506 95.775 125.968 95.775C124.437 95.7466 123.445 94.2989 121.943 94.1853C120.866 94.1002 119.958 94.6963 119.817 95.8034C119.533 98.4149 123.473 99.8627 125.344 100.658C132.289 103.553 140.055 103.95 147.454 103.326C161.116 102.162 175.034 97.2227 184.275 86.7196C188.98 81.3545 192.296 74.8255 193.317 67.7289C193.43 67.1895 192.608 66.9624 192.523 67.5018Z" fill="#161616"/>
<path d="M126.195 95.9167C125.515 94.6676 124.438 93.8728 123.446 92.9077C122.028 91.5167 120.866 89.558 119.902 87.798C119.647 87.3154 119.392 86.8329 119.25 86.3219C118.882 85.6122 119.109 85.3568 119.874 85.5839C120.356 85.3851 120.724 85.4987 121.008 85.8677C121.716 86.2935 122.397 87.1167 122.964 87.7129C124.353 89.1322 125.571 90.7219 126.649 92.3967C126.932 92.8509 127.669 92.4251 127.386 91.9709C126.535 90.6651 119.987 81.5813 118.457 84.789C117.55 86.6342 119.817 89.2741 120.696 90.6935C121.348 91.7154 121.972 92.6806 122.85 93.5322C123.786 94.4405 124.834 95.1786 125.486 96.3709C125.713 96.825 126.45 96.3992 126.195 95.9167Z" fill="#161616"/>
<path d="M122.142 85.4709C121.773 85.1018 119.024 81.7238 120.781 81.5251C121.178 81.4683 122.198 82.3199 122.539 82.547C123.106 82.9444 123.672 83.3986 124.183 83.9096C126.053 85.6412 127.527 87.7418 128.973 89.814C129.285 90.2682 130.022 89.8424 129.71 89.3882C127.527 86.2941 125.033 82.4902 121.433 80.9006C120.554 80.5032 119.364 80.4464 119.251 81.667C119.109 83.2283 120.498 85.1018 121.518 86.0954C121.943 86.4644 122.539 85.8683 122.142 85.4709Z" fill="#161616"/>
<path d="M125.572 84.0522C125.487 83.8819 125.09 83.0587 125.146 82.86C125.458 82.6045 125.77 82.3206 126.082 82.0651C126.28 82.1787 126.507 82.2638 126.705 82.3774C127.527 82.86 128.236 83.5696 128.888 84.2793C130.192 85.7554 131.326 87.4018 132.516 88.9631C132.856 89.3889 133.593 88.9631 133.253 88.5373C131.439 86.1812 129.568 82.7464 126.734 81.4406C126.11 81.1568 125.231 80.9297 124.665 81.4406C123.814 82.1787 124.438 83.5129 124.778 84.3077C124.948 84.7903 125.77 84.5632 125.572 84.0522Z" fill="#161616"/>
<path d="M131.666 85.8683C131.439 85.1586 131.241 84.9883 132.148 84.9031C132.942 84.8464 132.97 85.0167 133.452 85.5276C134.047 86.2089 134.586 86.9186 135.124 87.6283C136.031 88.8773 136.882 90.1831 137.817 91.4605C139.263 93.4192 141.162 96.1727 143.77 96.5417C144.308 96.6269 144.535 95.8037 143.996 95.7185C141.644 95.3779 139.858 92.8231 138.554 91.0347C137.363 89.4166 136.258 87.685 135.039 86.0954C134.33 85.2154 133.253 83.3986 131.921 83.4554C130.504 83.5122 130.589 85.1302 130.901 86.0954C131.014 86.6063 131.836 86.3792 131.666 85.8683Z" fill="#161616"/>
<path opacity="0.08" d="M192.41 62.7899C191.73 62.5912 190.624 65.4867 188.498 69.2337C185.012 75.422 181.497 79.4814 177.784 83.1716C168.968 91.9148 164.546 96.3147 156.836 98.614C154.087 99.4373 141.388 102.844 129.653 95.4915C124.097 91.9999 120.894 87.4297 119.278 84.6477C118.995 84.9316 118.655 85.3574 118.598 85.9251C118.485 86.7484 119.023 87.3729 119.647 88.2245C120.497 89.4451 120.554 89.7574 120.866 90.3819C120.866 90.3819 121.121 90.8361 121.489 91.347C122.453 92.6812 125.855 95.7754 125.628 96.0876C125.543 96.2012 124.891 95.8889 123.559 95.2928C122.255 94.6967 122.028 94.5264 121.603 94.6115C120.837 94.7535 120.072 95.6051 120.1 96.4567C120.129 97.2231 120.781 97.7341 121.376 98.1882C122.056 98.7276 122.708 98.9263 122.878 98.9831C125.373 99.8347 125.996 100.402 128.179 101.055C134.557 102.957 141.756 103.128 141.756 103.128C152.329 103.383 160.436 100.715 162.137 100.119C165.652 98.9263 172.54 96.5134 179.513 90.5522C182.971 87.6 188.243 83.0013 191.021 75.3369C193.147 69.5176 193.374 63.0454 192.41 62.7899Z" fill="#353535"/>
<path opacity="0.06" d="M126.081 99.8071C130.617 100.801 136.144 101.539 142.437 101.425C157.828 101.141 169.705 95.8046 176.395 92.0859C172.823 95.0382 166.785 99.2678 158.31 101.652C143.315 105.882 130.645 101.596 126.081 99.8071Z" fill="#353535"/>
<path d="M172.455 20.5517C172.426 20.6084 171.434 22.2833 169.478 25.6613C167.211 29.5503 166.275 31.1683 165.34 33.4677C164.688 35.0857 164.263 36.4199 164.008 37.3283C165.255 37.8392 166.502 38.3502 167.749 38.8611C168.09 41.643 168.912 43.7721 169.564 45.1062C170.612 47.2636 172.115 50.4146 175.516 51.9475C176.026 52.1745 177.557 52.8274 179.655 52.8274C182.262 52.8274 184.19 51.8055 185.04 51.2946C185.21 52.3733 185.55 53.7358 186.202 55.2403C186.741 56.5177 187.365 57.5396 187.931 58.3345C190.596 57.3126 193.26 56.2906 195.897 55.2403C195.16 54.1332 194.196 52.3733 193.601 50.0455C193.402 49.2507 192.949 47.2636 193.119 44.4533C193.317 41.0185 194.281 39.2302 195.33 35.9941C196.945 30.9412 197.909 27.989 197.456 24.8381C196.86 20.7504 193.799 16.0382 189.094 14.335C182.347 11.8653 175.346 16.6627 172.455 20.5517Z" fill="white"/>
<path d="M167.749 23.8449C165.992 23.1636 165.595 19.7004 165.935 17.4011C166.048 16.6347 166.474 14.3637 168.543 12.0928C171.349 8.99861 174.325 9.02699 178.634 7.18185C181.015 6.15993 184.416 4.31479 188.045 0.738054C187.506 2.3561 186.967 3.94576 186.401 5.56381C187.223 5.62058 189.263 5.70574 191.389 4.5135C194.025 3.06577 195.046 0.681283 195.329 0C195.783 0.70967 197.654 3.80383 196.662 7.32379C196.378 8.31732 195.925 9.11215 195.499 9.73666C196.973 9.33925 199.043 8.57281 200.8 6.84121C202.728 4.9393 202.983 3.2077 203.776 3.29286C205.307 3.4348 205.874 9.67989 206.186 13.1147C206.384 15.3856 206.696 16.9753 206.101 18.8772C205.562 20.6372 204.542 21.9714 204.655 22.0565C204.853 22.1701 207.716 17.4579 208.51 17.8269C208.992 18.054 208.142 19.8708 207.83 23.3056C207.461 27.5068 208.312 28.3016 207.546 31.2822C207.093 33.0138 206.441 34.2345 205.732 35.6254C204.853 37.2435 203.776 39.2873 201.792 41.1041C199.95 42.8073 197.682 44.8795 194.876 44.4821C191.219 43.9427 189.519 39.5996 189.405 39.2873C189.717 39.2873 192.523 39.1454 193.912 36.988C195.67 34.2345 193.912 30.1468 191.9 29.4655C190.426 28.9545 189.263 30.459 187.874 29.7493C186.741 29.1816 186.599 27.7907 186.145 26.4849C185.55 24.7533 184.246 22.4539 181.043 20.1262C179.031 20.0411 176.054 20.2114 172.965 21.6591C170.244 22.8797 169.081 24.3559 167.749 23.8449Z" fill="#5B87E0"/>
<path d="M167.494 28.6981C166.02 30.969 164.801 33.3819 163.951 35.9651C163.753 36.5612 163.412 37.1857 163.838 37.6967C164.149 38.0657 164.915 38.1793 165.34 38.3496C166.049 38.6051 166.757 38.8889 167.466 39.1444C167.976 39.3431 168.203 38.5199 167.693 38.3212C167.211 38.1509 166.757 37.9806 166.275 37.7818C165.992 37.6683 165.056 37.4696 164.858 37.2425C164.263 36.6464 165.113 35.1703 165.368 34.5458C166.134 32.6438 167.097 30.8555 168.231 29.1239C168.543 28.6697 167.806 28.2439 167.494 28.6981Z" fill="#161616"/>
<path d="M167.295 38.8333C168.855 44.2836 170.81 50.3584 176.366 52.9416C176.848 53.1687 177.302 52.4306 176.791 52.2035C171.462 49.7055 169.62 43.8578 168.118 38.6062C167.947 38.0669 167.125 38.294 167.295 38.8333Z" fill="#161616"/>
<path d="M176.508 53.0263C181.469 54.1334 187.024 51.465 190.341 47.9166C190.709 47.5192 190.114 46.9231 189.746 47.3205C186.628 50.6418 181.384 53.2534 176.735 52.2031C176.196 52.0611 175.97 52.8843 176.508 53.0263Z" fill="#161616"/>
<path d="M184.643 51.4953C184.983 53.9934 185.89 56.2359 187.449 58.223C187.789 58.6488 188.385 58.0527 188.045 57.6269C186.656 55.8385 185.805 53.7379 185.493 51.4953C185.437 50.956 184.586 50.956 184.643 51.4953Z" fill="#161616"/>
<path d="M192.75 47.8322C192.92 50.6425 193.94 53.1973 195.754 55.3547C196.095 55.7805 196.718 55.156 196.35 54.7586C194.677 52.7715 193.742 50.4154 193.572 47.8322C193.543 47.2929 192.693 47.2929 192.75 47.8322Z" fill="#161616"/>
<path d="M188.555 30.8553C189.377 29.6063 190.936 29.436 192.155 30.2308C193.261 30.9405 193.799 32.303 193.884 33.5521C194.026 35.5675 192.722 39.6552 189.888 38.4346C189.377 38.2075 188.952 38.9456 189.462 39.1727C193.147 40.7623 195.103 35.9082 194.678 32.9843C194.423 31.3095 193.459 29.6631 191.787 29.0953C190.285 28.556 188.725 29.1237 187.847 30.4295C187.507 30.8837 188.244 31.3095 188.555 30.8553Z" fill="#161616"/>
<path d="M185.408 52.6285C187.052 51.5782 188.47 50.3008 189.689 48.7963C190.029 48.3705 189.434 47.7744 189.093 48.2002C187.931 49.6479 186.542 50.8969 184.983 51.9189C184.53 52.2027 184.955 52.9408 185.408 52.6285Z" fill="#161616"/>
<path d="M169.903 44.4525C171.859 44.6228 173.815 43.9131 175.176 42.4654C176.054 41.5002 176.395 39.8822 174.609 39.939C174.155 39.9673 174.014 40.6486 174.495 40.7622C175.147 40.9325 175.686 41.188 176.224 41.6422C176.65 41.9828 177.245 41.3867 176.82 41.046C176.168 40.5067 175.544 40.1661 174.722 39.9673C174.694 40.2512 174.637 40.5351 174.609 40.7906C175.573 40.7622 174.297 42.1531 174.184 42.2667C173.73 42.6641 173.248 42.948 172.71 43.1751C171.803 43.5725 170.896 43.686 169.903 43.6009C169.365 43.5725 169.365 44.4241 169.903 44.4525Z" fill="#161616"/>
<path d="M173.646 31.623C173.164 30.7714 172.994 29.8346 173.221 28.8979C173.022 28.983 172.795 29.0682 172.597 29.1534C173.362 29.7495 173.192 30.8566 173.079 31.6798C173.334 31.6514 173.589 31.623 173.844 31.5662C173.504 31.0837 173.334 30.5727 173.334 29.9766C173.334 29.4372 172.484 29.4372 172.484 29.9766C172.484 30.7146 172.682 31.3959 173.107 31.992C173.306 32.2475 173.816 32.2759 173.873 31.8785C174.071 30.6011 174.128 29.2669 172.994 28.3869C172.767 28.2166 172.427 28.3869 172.37 28.6424C172.087 29.8063 172.257 30.9985 172.88 32.0204C173.192 32.5314 173.929 32.1056 173.646 31.623Z" fill="#161616"/>
<path d="M171.945 25.6045C173.334 23.9581 175.346 25.2071 176.083 26.7684C176.31 27.251 177.047 26.8252 176.82 26.3426C175.856 24.2987 173.079 22.9929 171.349 25.0084C170.981 25.4342 171.576 26.0303 171.945 25.6045Z" fill="#161616"/>
<path opacity="0.07" d="M185.607 25.1211C185.721 25.774 185.862 26.7959 186.089 27.9882C186.713 31.3662 187.251 33.2965 187.45 34.2049C188.187 37.668 187.223 43.0048 183.708 46.4963C179.825 50.3285 174.524 50.2434 173.192 50.1866C173.787 50.8963 174.722 51.8047 176.083 52.4008C180.221 54.2175 184.417 51.5776 184.87 51.2653C184.813 53.1105 185.21 53.735 185.607 53.9337C186.826 54.473 189.547 51.9466 190.738 49.2215C192.013 46.2692 191.361 43.4306 191.021 42.2667C189.434 40.0809 189.349 39.3145 189.576 39.059C189.916 38.69 190.851 39.3713 191.9 39.0022C193.005 38.5764 193.459 37.2422 193.742 36.419C194.111 35.3119 195.103 32.303 193.26 30.543C192.098 29.4359 190.199 29.2372 188.413 29.8617C188.045 29.8049 187.563 29.6346 187.194 29.2372C186.713 28.7262 186.713 28.1301 186.457 27.1082C186.287 26.5972 186.061 25.9159 185.607 25.1211Z" fill="#353535"/>
<path opacity="0.1" d="M189.575 44.3118C189.348 46.7531 188.753 48.7401 188.215 50.1879C189.207 49.904 190.227 49.5917 191.219 49.3079C192.07 51.5504 192.892 53.8214 193.742 56.0639C194.366 55.7517 194.961 55.4394 195.584 55.0988C194.876 53.5091 194.167 51.5504 193.6 49.2795C193.118 47.3492 192.863 45.5608 192.722 44.0279C192.24 43.5454 191.673 42.9492 191.163 42.1828C190.284 40.9054 189.774 39.7131 189.462 38.7764C189.632 40.2241 189.774 42.126 189.575 44.3118Z" fill="#353535"/>
<path opacity="0.13" d="M205.619 8.71484C205.223 8.71484 205.478 12.6322 203.805 17.4012C203.097 19.4167 201.793 22.9934 198.448 26.0024C196.067 28.1314 193.601 29.1817 192.042 29.6927C192.467 29.9482 193.147 30.4307 193.658 31.254C194.905 33.241 194.111 35.4836 193.884 36.1365C193.573 37.0449 193.147 38.2371 191.957 38.8616C190.851 39.4294 189.718 39.2023 189.321 39.0887C189.406 39.3442 191.192 44.0564 194.905 44.4538C196.464 44.6241 197.739 43.9429 198.703 43.4319C201.226 42.1261 202.501 40.1674 204.06 37.7545C206.13 34.5468 207.575 32.2759 207.774 29.0682C207.915 26.5418 207.15 25.8889 207.689 23.476C207.859 22.7095 208.312 21.1766 208.227 19.0476C208.199 18.5934 208.171 18.2244 208.142 17.9689C206.98 19.3031 205.818 20.6657 204.656 21.9999C205.053 21.2334 205.563 20.0412 205.903 18.5083C206.271 16.8335 206.215 15.5277 206.13 13.3703C206.101 12.1496 205.988 8.71484 205.619 8.71484Z" fill="#353535"/>
<circle cx="281" cy="49" r="1" fill="#DBFBB9"/>
<circle cx="109.5" cy="41.5" r="3.5" fill="url(#paint14_linear_3004_1043)"/>
<circle cx="217" cy="73" r="1" fill="url(#paint15_linear_3004_1043)"/>
<ellipse cx="218" cy="33.5" rx="2" ry="2.5" fill="#5B87E0"/>
<ellipse cx="49.5" cy="54" rx="1.5" ry="1" fill="#C4C4C4"/>
<path d="M71.0489 43.927C71.3483 43.0057 72.6517 43.0057 72.9511 43.927L73.3471 45.1459C73.481 45.5579 73.8649 45.8369 74.2981 45.8369H75.5797C76.5484 45.8369 76.9512 47.0765 76.1675 47.6459L75.1307 48.3992C74.7802 48.6538 74.6335 49.1052 74.7674 49.5172L75.1634 50.7361C75.4628 51.6574 74.4083 52.4235 73.6246 51.8541L72.5878 51.1008C72.2373 50.8462 71.7627 50.8462 71.4122 51.1008L70.3754 51.8541C69.5917 52.4235 68.5372 51.6574 68.8366 50.7361L69.2326 49.5172C69.3665 49.1052 69.2198 48.6538 68.8693 48.3992L67.8325 47.6459C67.0488 47.0765 67.4516 45.8369 68.4203 45.8369H69.7019C70.1351 45.8369 70.519 45.5579 70.6529 45.1459L71.0489 43.927Z" fill="url(#paint16_linear_3004_1043)"/>
<path d="M269.683 55.5156C269.94 54.7238 271.06 54.7238 271.317 55.5156C271.432 55.8697 271.762 56.1094 272.135 56.1094C272.967 56.1094 273.313 57.1748 272.64 57.6641C272.339 57.883 272.213 58.2709 272.328 58.625C272.585 59.4168 271.679 60.0752 271.005 59.5859C270.704 59.367 270.296 59.367 269.995 59.5859C269.321 60.0752 268.415 59.4168 268.672 58.625C268.787 58.2709 268.661 57.883 268.36 57.6641C267.687 57.1748 268.033 56.1094 268.865 56.1094C269.238 56.1094 269.568 55.8697 269.683 55.5156Z" fill="url(#paint17_linear_3004_1043)"/>
<path d="M279.104 74.4806C279.407 73.6422 280.593 73.6422 280.896 74.4806L280.909 74.5183C281.037 74.873 281.374 75.1094 281.751 75.1094H281.913C282.755 75.1094 283.081 76.2041 282.377 76.6647C282.048 76.8795 281.912 77.2959 282.045 77.665C282.33 78.4544 281.453 79.1689 280.751 78.7096L280.527 78.5636C280.207 78.3542 279.793 78.3542 279.473 78.5636L279.249 78.7096C278.547 79.1689 277.67 78.4544 277.955 77.665C278.088 77.2959 277.952 76.8795 277.623 76.6647C276.919 76.2041 277.245 75.1094 278.087 75.1094H278.249C278.626 75.1094 278.963 74.873 279.091 74.5183L279.104 74.4806Z" fill="#D9E0F2" fill-opacity="0.5"/>
<path d="M64.0245 68.4635C64.1741 68.0029 64.8259 68.0029 64.9755 68.4635L66.5206 73.2188C66.5876 73.4249 66.7795 73.5643 66.9962 73.5643H71.9962C72.4806 73.5643 72.6819 74.1841 72.2901 74.4688L68.245 77.4078C68.0697 77.5351 67.9964 77.7608 68.0633 77.9668L69.6084 82.7221C69.7581 83.1828 69.2309 83.5659 68.839 83.2812L64.7939 80.3422C64.6186 80.2149 64.3814 80.2149 64.2061 80.3422L60.161 83.2812C59.7691 83.5659 59.2419 83.1828 59.3916 82.7221L60.9367 77.9668C61.0036 77.7608 60.9303 77.5351 60.755 77.4078L56.7099 74.4688C56.3181 74.1841 56.5194 73.5643 57.0038 73.5643H62.0038C62.2205 73.5643 62.4124 73.4249 62.4794 73.2188L64.0245 68.4635Z" fill="#5B87E0"/>
<defs>
<linearGradient id="paint0_linear_3004_1043" x1="124.975" y1="72.2441" x2="133.647" y2="140.848" gradientUnits="userSpaceOnUse">
<stop stop-color="#EE4266"/>
<stop offset="1" stop-color="#FA5E7E"/>
</linearGradient>
<linearGradient id="paint1_linear_3004_1043" x1="95.7367" y1="86.084" x2="97.9671" y2="98.6342" gradientUnits="userSpaceOnUse">
<stop stop-color="#EE4266"/>
<stop offset="1" stop-color="#FA5E7E"/>
</linearGradient>
<linearGradient id="paint2_linear_3004_1043" x1="103.554" y1="84.2578" x2="103.967" y2="87.2233" gradientUnits="userSpaceOnUse">
<stop stop-color="#EE4266"/>
<stop offset="1" stop-color="#FA5E7E"/>
</linearGradient>
<linearGradient id="paint3_linear_3004_1043" x1="104.918" y1="84.4209" x2="105.619" y2="89.7131" gradientUnits="userSpaceOnUse">
<stop stop-color="#EE4266"/>
<stop offset="1" stop-color="#FA5E7E"/>
</linearGradient>
<linearGradient id="paint4_linear_3004_1043" x1="106.101" y1="85.4492" x2="106.798" y2="91.3439" gradientUnits="userSpaceOnUse">
<stop stop-color="#EE4266"/>
<stop offset="1" stop-color="#FA5E7E"/>
</linearGradient>
<linearGradient id="paint5_linear_3004_1043" x1="107.218" y1="86.291" x2="108.062" y2="93.0006" gradientUnits="userSpaceOnUse">
<stop stop-color="#EE4266"/>
<stop offset="1" stop-color="#FA5E7E"/>
</linearGradient>
<linearGradient id="paint6_linear_3004_1043" x1="108.069" y1="87.0107" x2="109.257" y2="94.8535" gradientUnits="userSpaceOnUse">
<stop stop-color="#EE4266"/>
<stop offset="1" stop-color="#FA5E7E"/>
</linearGradient>
<linearGradient id="paint7_linear_3004_1043" x1="107.786" y1="87.8555" x2="109.407" y2="95.3799" gradientUnits="userSpaceOnUse">
<stop stop-color="#EE4266"/>
<stop offset="1" stop-color="#FA5E7E"/>
</linearGradient>
<linearGradient id="paint8_linear_3004_1043" x1="107.443" y1="88.8496" x2="109.626" y2="95.1206" gradientUnits="userSpaceOnUse">
<stop stop-color="#EE4266"/>
<stop offset="1" stop-color="#FA5E7E"/>
</linearGradient>
<linearGradient id="paint9_linear_3004_1043" x1="125.443" y1="84.6484" x2="131.778" y2="117.866" gradientUnits="userSpaceOnUse">
<stop stop-color="#EE4266"/>
<stop offset="1" stop-color="#FA5E7E"/>
</linearGradient>
<linearGradient id="paint10_linear_3004_1043" x1="117.655" y1="91.2813" x2="119.21" y2="98.1853" gradientUnits="userSpaceOnUse">
<stop stop-color="#EE4266"/>
<stop offset="1" stop-color="#FA5E7E"/>
</linearGradient>
<linearGradient id="paint11_linear_3004_1043" x1="119.456" y1="87.4629" x2="121.091" y2="94.5698" gradientUnits="userSpaceOnUse">
<stop stop-color="#EE4266"/>
<stop offset="1" stop-color="#FA5E7E"/>
</linearGradient>
<linearGradient id="paint12_linear_3004_1043" x1="100.586" y1="89.6484" x2="109.786" y2="132.591" gradientUnits="userSpaceOnUse">
<stop stop-color="#EE4266"/>
<stop offset="1" stop-color="#FA5E7E"/>
</linearGradient>
<linearGradient id="paint13_linear_3004_1043" x1="194.888" y1="55.4805" x2="226.825" y2="157.683" gradientUnits="userSpaceOnUse">
<stop stop-color="#EE4266"/>
<stop offset="1" stop-color="#FA5E7E"/>
</linearGradient>
<linearGradient id="paint14_linear_3004_1043" x1="110.375" y1="38" x2="111.924" y2="47.6519" gradientUnits="userSpaceOnUse">
<stop stop-color="#EE4266"/>
<stop offset="1" stop-color="#FA5E7E"/>
</linearGradient>
<linearGradient id="paint15_linear_3004_1043" x1="217.25" y1="72" x2="217.693" y2="74.7577" gradientUnits="userSpaceOnUse">
<stop stop-color="#EE4266"/>
<stop offset="1" stop-color="#FA5E7E"/>
</linearGradient>
<linearGradient id="paint16_linear_3004_1043" x1="73.75" y1="41" x2="76.849" y2="60.3038" gradientUnits="userSpaceOnUse">
<stop stop-color="#FCC2CE"/>
<stop offset="1" stop-color="#FDCAD5"/>
</linearGradient>
<linearGradient id="paint17_linear_3004_1043" x1="271.625" y1="53" x2="273.617" y2="65.4096" gradientUnits="userSpaceOnUse">
<stop stop-color="#EE4266"/>
<stop offset="1" stop-color="#FA5E7E"/>
</linearGradient>
</defs>
</svg>
