<svg xmlns="http://www.w3.org/2000/svg" width="13" height="15" viewBox="0 0 13 15" fill="none">
  <path d="M11.8894 2.83325C10.1141 2.83325 8.38407 2.20459 6.6894 0.933252C6.60286 0.868341 6.49759 0.833252 6.3894 0.833252C6.28122 0.833252 6.17595 0.868341 6.0894 0.933252C4.39474 2.20459 2.66474 2.83325 0.889404 2.83325C0.756796 2.83325 0.629619 2.88593 0.535851 2.9797C0.442083 3.07347 0.389404 3.20064 0.389404 3.33325V6.83325C0.389404 10.1673 2.3614 12.6173 6.20607 14.1319C6.32388 14.1784 6.45493 14.1784 6.57274 14.1319C10.4174 12.6173 12.3894 10.1666 12.3894 6.83325V3.33325C12.3894 3.20064 12.3367 3.07347 12.243 2.9797C12.1492 2.88593 12.022 2.83325 11.8894 2.83325ZM9.56074 5.70192L5.56074 9.36859C5.46572 9.45559 5.34079 9.50255 5.21199 9.4997C5.08319 9.49684 4.96047 9.44438 4.8694 9.35325L3.20274 7.68659C3.15361 7.64081 3.11421 7.58561 3.08688 7.52428C3.05956 7.46294 3.04486 7.39674 3.04368 7.3296C3.04249 7.26247 3.05484 7.19578 3.07999 7.13352C3.10514 7.07126 3.14257 7.01471 3.19005 6.96723C3.23752 6.91975 3.29408 6.88232 3.35634 6.85717C3.4186 6.83202 3.48528 6.81967 3.55242 6.82086C3.61955 6.82204 3.68576 6.83674 3.7471 6.86406C3.80843 6.89139 3.86363 6.93079 3.9094 6.97992L5.23807 8.30792L8.88474 4.96459C8.98251 4.87494 9.1119 4.82781 9.24442 4.83356C9.37695 4.83931 9.50176 4.89748 9.5914 4.99525C9.68105 5.09303 9.72818 5.22241 9.72243 5.35494C9.71667 5.48746 9.65851 5.61228 9.56074 5.70192Z" fill="white"/>
</svg>