<svg width="68" height="102" viewBox="0 0 68 102" fill="none" xmlns="http://www.w3.org/2000/svg">
<path d="M66.1697 99.065C44.3267 96.6179 27.8132 88.4878 17.0863 74.9021C5.50322 60.2321 0.991238 39.3889 4.03965 14.6271C4.12452 13.9393 4.99312 13.442 5.76061 13.487C6.53325 13.5172 6.55318 14.0028 6.56352 14.2367C6.56352 14.239 6.56499 14.2404 6.56499 14.2426C6.55761 14.4552 6.55097 14.667 6.54359 14.8795C6.44987 17.7717 6.36131 20.5042 6.36131 21.5257C6.36131 22.1744 6.88823 22.7013 7.5369 22.7013C8.18558 22.7013 8.7125 22.1744 8.7125 21.5257C8.7125 20.542 8.80032 17.8278 8.8933 14.9557C8.99293 11.8415 9.09772 8.62248 9.09772 7.33177C9.09772 6.05288 9.89473 5.59754 10.5766 5.59754C11.2784 5.59754 12.0297 6.06763 12.0297 7.38639V19.5525C12.0297 20.2012 12.5566 20.7281 13.2053 20.7281C13.8539 20.7281 14.3808 20.2012 14.3808 19.5525L14.3801 7.38771V5.31771C14.3801 5.22621 14.3484 5.14503 14.3285 5.06016C14.3484 4.97455 14.3801 4.89338 14.3801 4.80187C14.3801 3.70377 14.6775 3.11045 14.9277 2.80498C15.7269 1.82717 17.3867 2.48176 17.388 4.67204V18.3421C17.388 18.9908 17.9149 19.5177 18.5636 19.5177C19.2123 19.5177 19.7392 18.9908 19.7392 18.3421V8.25624C19.7392 7.58616 19.9001 7.05926 20.2034 6.73307C20.4875 6.42755 20.8343 6.36261 21.0756 6.36261C21.8424 6.36261 22.6165 6.99283 22.6165 8.19869C22.6165 9.54548 22.6062 11.0008 22.5944 12.583C22.57 15.9238 22.5412 20.0313 22.6047 24.9057C18.9429 24.8939 15.1423 27.2392 11.268 31.9341C10.854 32.4351 10.9256 33.1753 11.4266 33.5893C11.6451 33.7701 11.9107 33.8587 12.1742 33.8587C12.5129 33.8587 12.8487 33.7126 13.0819 33.4307C17.4159 28.1785 21.4431 26.2715 25.0509 27.7565C25.0989 27.7764 25.1483 27.7719 25.1971 27.7845C25.2945 27.8103 25.3919 27.8406 25.4922 27.8421C25.5756 27.8421 25.6546 27.8162 25.7358 27.7985C25.8029 27.7845 25.8701 27.783 25.9343 27.7572C26.0428 27.7136 26.135 27.6443 26.2273 27.5712C26.2546 27.5476 26.2893 27.5395 26.3151 27.5151C26.3188 27.5129 26.321 27.5092 26.3247 27.507C26.3262 27.5055 26.3269 27.5048 26.3284 27.5033C30.0898 23.8755 32.2867 23.1361 33.4558 23.1965C33.7177 23.2046 33.9576 23.2504 34.1812 23.3367L23.4171 34.8299C23.4075 34.8395 23.4053 34.8535 23.3957 34.8631C23.3396 34.928 23.3027 35.0055 23.2614 35.0815C23.2282 35.1413 23.1876 35.1959 23.1662 35.2594C23.144 35.3228 23.144 35.3907 23.1344 35.4579C23.1204 35.5435 23.1027 35.6261 23.1086 35.7118C23.1101 35.7258 23.1042 35.7376 23.1049 35.7516C25.7572 62.1494 39.7512 76.6264 65.8859 80.0118C65.9376 80.0177 65.9885 80.0214 66.0387 80.0214C66.6202 80.0214 67.1272 79.5897 67.2039 78.9979C67.2866 78.3536 66.8327 77.7632 66.1892 77.6798C41.4747 74.4793 28.1652 60.8535 25.5071 36.0418L36.8002 23.9834C37.2186 23.5355 37.2245 22.841 36.812 22.3879C35.9183 21.4086 34.8159 20.8906 33.5333 20.8493C31.2457 20.7762 28.5254 22.2566 25.2259 25.3265C25.1388 25.2985 25.051 25.2704 24.9625 25.2438C24.8931 20.2316 24.9226 16.0147 24.947 12.6024C24.9588 11.0128 24.9691 9.55307 24.9691 8.2004C24.9691 5.48165 22.9641 4.01318 21.077 4.01318C20.5951 4.01318 20.1346 4.11059 19.7073 4.28622C19.5383 1.50853 17.635 0 15.8212 0C14.7681 0 13.8043 0.466406 13.1093 1.31655C12.6141 1.92094 12.2946 2.70024 12.1396 3.59606C11.6562 3.3754 11.13 3.24922 10.5758 3.24922C8.71837 3.24922 6.74585 4.68088 6.74585 7.33386C6.74585 8.08881 6.70821 9.55292 6.65655 11.2717C6.40268 11.2023 6.1385 11.1522 5.85364 11.1404C4.05964 11.0769 1.95792 12.2709 1.70401 14.3424C-1.42281 39.7408 3.25818 61.187 15.2398 76.3611C26.3691 90.4578 43.4172 98.8823 65.9063 101.404C65.9513 101.409 65.9941 101.412 66.0376 101.412C66.6287 101.412 67.138 100.967 67.2051 100.367C67.2796 99.7203 66.814 99.1381 66.169 99.0665L66.1697 99.065Z" fill="#DEE5F2"/>
</svg>
