<svg xmlns="http://www.w3.org/2000/svg" width="121" height="32" viewBox="0 0 121 32" fill="none">
  <path d="M31.45 11.4401H43.6026V13.883H38.8176V27.6545H36.1949V13.883H31.4299L31.45 11.4401ZM43.0821 15.9152H45.3244V18.1852H45.3645C45.4445 17.861 45.5847 17.5583 45.7849 17.2556C45.9851 16.953 46.2254 16.6719 46.5257 16.4341C46.806 16.1747 47.1263 15.9801 47.4867 15.8288C47.827 15.6774 48.1874 15.5909 48.5478 15.5909C48.8281 15.5909 49.0283 15.6126 49.1284 15.6126C49.2285 15.6342 49.3486 15.6558 49.4487 15.6558V18.142C49.2885 18.0988 49.1084 18.0771 48.9282 18.0555C48.748 18.0339 48.5878 18.0123 48.4076 18.0123C48.0072 18.0123 47.6268 18.0988 47.2664 18.2717C46.9061 18.4447 46.6057 18.7041 46.3255 19.0284C46.0652 19.3743 45.845 19.7851 45.6848 20.2823C45.5246 20.7796 45.4445 21.3633 45.4445 22.0118V27.5896H43.042L43.0821 15.9152ZM60.4602 27.6545H58.0977V26.0114H58.0577C57.7574 26.6167 57.3169 27.0707 56.7363 27.4383C56.1557 27.8058 55.5551 27.9787 54.9545 27.9787C53.533 27.9787 52.4919 27.6112 51.8512 26.8329C51.2105 26.0762 50.8902 24.9088 50.8902 23.3739V15.9152H53.2927V23.1144C53.2927 24.1521 53.4729 24.8872 53.8533 25.298C54.2137 25.7303 54.7342 25.9465 55.3949 25.9465C55.8954 25.9465 56.3159 25.8601 56.6562 25.6871C56.9966 25.5142 57.2769 25.298 57.4771 25.0169C57.6973 24.7359 57.8375 24.39 57.9376 24.0008C58.0377 23.6117 58.0777 23.1793 58.0777 22.7253V15.9152H60.4802V27.6545H60.4602ZM64.5444 23.8927C64.6245 24.6494 64.8848 25.1682 65.3453 25.4925C65.8058 25.7952 66.3663 25.9465 67.007 25.9465C67.2272 25.9465 67.4875 25.9249 67.7678 25.8817C68.0481 25.8384 68.3284 25.7736 68.5686 25.6655C68.8289 25.5574 69.0291 25.4061 69.1893 25.1899C69.3495 24.9737 69.4295 24.7142 69.4095 24.39C69.3895 24.0657 69.2894 23.7846 69.0692 23.5684C68.8489 23.3522 68.5887 23.2009 68.2683 23.0496C67.948 22.9198 67.5676 22.8118 67.1472 22.7253C66.7267 22.6388 66.3063 22.5307 65.8658 22.4226C65.4254 22.3145 64.9849 22.1848 64.5645 22.0335C64.144 21.8821 63.7837 21.6876 63.4433 21.4065C63.123 21.1471 62.8427 20.8228 62.6625 20.412C62.4623 20.0013 62.3622 19.5256 62.3622 18.9203C62.3622 18.2717 62.5023 17.7529 62.8026 17.3205C63.0829 16.8881 63.4633 16.5422 63.9038 16.2828C64.3442 16.0233 64.8448 15.8288 65.3853 15.7207C65.9259 15.6126 66.4464 15.5693 66.9269 15.5693C67.4875 15.5693 68.0281 15.6342 68.5286 15.7639C69.0291 15.8936 69.5096 16.0882 69.91 16.3909C70.3305 16.6719 70.6708 17.061 70.9311 17.515C71.2114 17.9691 71.3716 18.5312 71.4516 19.1797H68.949C68.8289 18.5528 68.5686 18.142 68.1682 17.9258C67.7478 17.7096 67.2873 17.6015 66.7467 17.6015C66.5866 17.6015 66.3663 17.6231 66.1461 17.6448C65.9059 17.688 65.7057 17.7312 65.4854 17.8177C65.2852 17.9042 65.105 18.0339 64.9649 18.1852C64.8247 18.3366 64.7447 18.5528 64.7447 18.8122C64.7447 19.1365 64.8448 19.3743 65.045 19.5689C65.2452 19.7634 65.5054 19.9148 65.8458 20.0661C66.1661 20.1958 66.5465 20.3039 66.967 20.3904C67.3874 20.4769 67.8279 20.585 68.2683 20.6931C68.7088 20.8012 69.1292 20.9309 69.5497 21.0822C69.9701 21.2336 70.3505 21.4281 70.6708 21.7092C70.9912 21.9686 71.2715 22.2929 71.4717 22.682C71.6719 23.0712 71.772 23.5684 71.772 24.1305C71.772 24.8223 71.6318 25.4061 71.3315 25.9033C71.0312 26.3789 70.6508 26.7897 70.1903 27.0924C69.7299 27.395 69.1893 27.6112 68.6287 27.7626C68.0481 27.8923 67.4875 27.9787 66.9269 27.9787C66.2462 27.9787 65.6055 27.8923 65.0249 27.7193C64.4443 27.5464 63.9238 27.2869 63.5034 26.9626C63.0829 26.6167 62.7426 26.206 62.5023 25.6871C62.2621 25.1899 62.1219 24.5845 62.1019 23.8711H64.5244V23.8927H64.5444ZM72.4527 15.9152H74.2746V12.3697H76.6771V15.8936H78.8393V17.8177H76.6771V24.0873C76.6771 24.3683 76.6971 24.5845 76.7171 24.8007C76.7372 24.9953 76.7972 25.1682 76.8573 25.298C76.9374 25.4277 77.0575 25.5358 77.1976 25.6006C77.3578 25.6655 77.558 25.7087 77.8383 25.7087C77.9985 25.7087 78.1787 25.7087 78.3388 25.6871C78.499 25.6655 78.6792 25.6439 78.8393 25.6006V27.6112C78.5791 27.6545 78.3188 27.6761 78.0585 27.6977C77.7983 27.7409 77.558 27.7409 77.2777 27.7409C76.6371 27.7409 76.1365 27.6761 75.7561 27.5464C75.3757 27.4166 75.0754 27.2221 74.8552 26.9843C74.635 26.7248 74.4948 26.4222 74.4147 26.0546C74.3346 25.6871 74.2946 25.2331 74.2746 24.7575V17.8393H72.4527V15.872V15.9152ZM80.5211 15.9152H82.7835V17.515H82.8235C83.1638 16.8232 83.6243 16.3476 84.225 16.0449C84.8256 15.7423 85.4663 15.5909 86.187 15.5909C87.0479 15.5909 87.7887 15.7423 88.4293 16.0882C89.07 16.4125 89.5906 16.8449 90.011 17.4286C90.4314 17.9907 90.7518 18.6609 90.952 19.4175C91.1522 20.1742 91.2723 20.9957 91.2723 21.8389C91.2723 22.6388 91.1722 23.3955 90.992 24.1305C90.7918 24.8656 90.5115 25.5358 90.1311 26.0979C89.7507 26.66 89.2702 27.114 88.6696 27.4599C88.069 27.8058 87.3883 27.9787 86.5874 27.9787C86.2471 27.9787 85.8867 27.9355 85.5463 27.8706C85.206 27.8058 84.8656 27.6977 84.5453 27.5464C84.225 27.395 83.9246 27.2004 83.6644 26.9626C83.3841 26.7248 83.1639 26.4438 82.9837 26.1411H82.9436V31.9999H80.5411V15.9152H80.5211ZM88.9098 21.7957C88.9098 21.2768 88.8498 20.7579 88.7096 20.2607C88.5895 19.7634 88.3893 19.3311 88.129 18.9419C87.8688 18.5528 87.5484 18.2501 87.188 18.0123C86.8077 17.7745 86.3672 17.6664 85.8867 17.6664C84.8857 17.6664 84.1249 18.0339 83.6043 18.7906C83.1038 19.5473 82.8435 20.5634 82.8435 21.8173C82.8435 22.4226 82.9036 22.9631 83.0437 23.4603C83.1839 23.9576 83.3641 24.39 83.6444 24.7575C83.9046 25.125 84.225 25.4061 84.6054 25.6222C84.9858 25.8384 85.4062 25.9465 85.9067 25.9465C86.4673 25.9465 86.9078 25.8168 87.2882 25.579C87.6685 25.3412 87.9689 25.0169 88.2291 24.6494C88.4694 24.2602 88.6496 23.8279 88.7497 23.3306C88.8498 22.8118 88.9098 22.3145 88.9098 21.7957ZM93.1342 11.4401H95.5367V13.883H93.1342V11.4401ZM93.1342 15.9152H95.5367V27.6545H93.1342V15.9152ZM97.679 11.4401H100.081V27.6545H97.679V11.4401ZM107.409 27.9787C106.548 27.9787 105.767 27.8274 105.087 27.5031C104.406 27.1788 103.845 26.7681 103.365 26.2276C102.904 25.6871 102.544 25.0169 102.304 24.2602C102.064 23.5036 101.923 22.6604 101.923 21.774C101.923 20.8876 102.044 20.0661 102.304 19.3094C102.544 18.5528 102.904 17.9042 103.365 17.3421C103.825 16.8016 104.406 16.3692 105.087 16.0666C105.767 15.7639 106.548 15.5909 107.409 15.5909C108.27 15.5909 109.051 15.7423 109.732 16.0666C110.412 16.3692 110.973 16.8016 111.453 17.3421C111.914 17.8826 112.274 18.5528 112.514 19.3094C112.755 20.0661 112.895 20.8876 112.895 21.774C112.895 22.682 112.775 23.5036 112.514 24.2602C112.254 25.0169 111.914 25.6655 111.453 26.2276C110.993 26.7681 110.412 27.2004 109.732 27.5031C109.051 27.8058 108.29 27.9787 107.409 27.9787ZM107.409 25.9249C107.93 25.9249 108.41 25.7952 108.791 25.5574C109.191 25.3196 109.491 24.9953 109.752 24.6061C110.012 24.217 110.192 23.763 110.312 23.2874C110.432 22.7901 110.492 22.2929 110.492 21.774C110.492 21.2768 110.432 20.7796 110.312 20.2823C110.192 19.7851 110.012 19.3527 109.752 18.9635C109.491 18.5744 109.171 18.2717 108.791 18.0339C108.39 17.7961 107.93 17.6664 107.409 17.6664C106.889 17.6664 106.408 17.7961 106.028 18.0339C105.627 18.2717 105.327 18.596 105.067 18.9635C104.806 19.3527 104.626 19.7851 104.506 20.2823C104.386 20.7796 104.326 21.2768 104.326 21.774C104.326 22.2929 104.386 22.7901 104.506 23.2874C104.626 23.7846 104.806 24.217 105.067 24.6061C105.327 24.9953 105.647 25.3196 106.028 25.5574C106.428 25.8168 106.889 25.9249 107.409 25.9249ZM113.616 15.9152H115.437V12.3697H117.84V15.8936H120.002V17.8177H117.84V24.0873C117.84 24.3683 117.86 24.5845 117.88 24.8007C117.9 24.9953 117.96 25.1682 118.02 25.298C118.1 25.4277 118.22 25.5358 118.361 25.6006C118.521 25.6655 118.721 25.7087 119.001 25.7087C119.161 25.7087 119.342 25.7087 119.502 25.6871C119.662 25.6655 119.842 25.6439 120.002 25.6006V27.6112C119.742 27.6545 119.482 27.6761 119.221 27.6977C118.961 27.7409 118.721 27.7409 118.441 27.7409C117.8 27.7409 117.299 27.6761 116.919 27.5464C116.539 27.4166 116.238 27.2221 116.018 26.9843C115.798 26.7248 115.658 26.4222 115.578 26.0546C115.498 25.6871 115.458 25.2331 115.437 24.7575V17.8393H113.616V15.872V15.9152Z" fill="#18181A"/>
  <path d="M4.59825 14.7907C3.0956 13.6213 3.92251 11.2123 5.82655 11.2123H9.50381C10.3859 11.2123 11.1638 10.6345 11.4186 9.79003L12.4632 6.32755C13.0349 4.43278 15.717 4.43059 16.2918 6.32442L17.3436 9.79026C17.5999 10.6345 18.3791 11.2111 19.2614 11.2094L22.9339 11.2022C24.8383 11.1985 25.6697 13.6069 24.1684 14.7788L20.9587 17.2844C20.3069 17.7932 20.0354 18.6506 20.2755 19.4418L21.4456 23.2971C22.0128 25.1657 19.8405 26.6561 18.3012 25.4545L15.623 23.3639C14.8997 22.7992 13.885 22.7992 13.1617 23.3639L10.4694 25.4655C8.93145 26.6661 6.76043 25.1792 7.324 23.3113L8.49134 19.4422C8.73014 18.6507 8.45734 17.7939 7.8049 17.2861L4.59825 14.7907Z" fill="#18181A"/>
  <path d="M8.12721 20.6631L8.88786 18.1285L14.3726 22.403L8.12721 20.6631Z" fill="#18181A"/>
</svg>