<svg xmlns="http://www.w3.org/2000/svg" width="121" height="32" viewBox="0 0 121 32" fill="none">
  <path d="M31.45 11.4399H43.6026V13.8829H38.8176V27.6543H36.1949V13.8829H31.4299L31.45 11.4399ZM43.0821 15.9151H45.3244V18.1851H45.3645C45.4445 17.8608 45.5847 17.5582 45.7849 17.2555C45.9851 16.9528 46.2254 16.6718 46.5257 16.434C46.806 16.1745 47.1263 15.98 47.4867 15.8286C47.827 15.6773 48.1874 15.5908 48.5478 15.5908C48.8281 15.5908 49.0283 15.6124 49.1284 15.6124C49.2285 15.6341 49.3486 15.6557 49.4487 15.6557V18.1419C49.2885 18.0987 49.1084 18.077 48.9282 18.0554C48.748 18.0338 48.5878 18.0122 48.4076 18.0122C48.0072 18.0122 47.6268 18.0986 47.2664 18.2716C46.9061 18.4446 46.6057 18.704 46.3255 19.0283C46.0652 19.3742 45.845 19.7849 45.6848 20.2822C45.5246 20.7794 45.4445 21.3631 45.4445 22.0117V27.5895H43.042L43.0821 15.9151ZM60.4602 27.6543H58.0977V26.0113H58.0577C57.7574 26.6166 57.3169 27.0706 56.7363 27.4381C56.1557 27.8057 55.5551 27.9786 54.9545 27.9786C53.533 27.9786 52.4919 27.6111 51.8512 26.8328C51.2105 26.0761 50.8902 24.9087 50.8902 23.3737V15.9151H53.2927V23.1143C53.2927 24.152 53.4729 24.8871 53.8533 25.2978C54.2137 25.7302 54.7342 25.9464 55.3949 25.9464C55.8954 25.9464 56.3159 25.8599 56.6562 25.687C56.9966 25.514 57.2769 25.2978 57.4771 25.0168C57.6973 24.7357 57.8375 24.3898 57.9376 24.0007C58.0377 23.6115 58.0777 23.1792 58.0777 22.7252V15.9151H60.4802V27.6543H60.4602ZM64.5444 23.8926C64.6245 24.6493 64.8848 25.1681 65.3453 25.4924C65.8058 25.7951 66.3663 25.9464 67.007 25.9464C67.2272 25.9464 67.4875 25.9248 67.7678 25.8816C68.0481 25.8383 68.3284 25.7735 68.5686 25.6654C68.8289 25.5573 69.0291 25.4059 69.1893 25.1897C69.3495 24.9735 69.4295 24.7141 69.4095 24.3898C69.3895 24.0655 69.2894 23.7845 69.0692 23.5683C68.8489 23.3521 68.5887 23.2008 68.2683 23.0494C67.948 22.9197 67.5676 22.8116 67.1472 22.7252C66.7267 22.6387 66.3063 22.5306 65.8658 22.4225C65.4254 22.3144 64.9849 22.1847 64.5645 22.0333C64.144 21.882 63.7837 21.6874 63.4433 21.4064C63.123 21.147 62.8427 20.8227 62.6625 20.4119C62.4623 20.0011 62.3622 19.5255 62.3622 18.9202C62.3622 18.2716 62.5023 17.7527 62.8026 17.3204C63.0829 16.888 63.4633 16.5421 63.9038 16.2826C64.3442 16.0232 64.8448 15.8286 65.3853 15.7205C65.9259 15.6124 66.4464 15.5692 66.9269 15.5692C67.4875 15.5692 68.0281 15.6341 68.5286 15.7638C69.0291 15.8935 69.5096 16.0881 69.91 16.3907C70.3305 16.6718 70.6708 17.0609 70.9311 17.5149C71.2114 17.9689 71.3716 18.531 71.4516 19.1796H68.949C68.8289 18.5527 68.5686 18.1419 68.1682 17.9257C67.7478 17.7095 67.2873 17.6014 66.7467 17.6014C66.5866 17.6014 66.3663 17.623 66.1461 17.6446C65.9059 17.6879 65.7057 17.7311 65.4854 17.8176C65.2852 17.9041 65.105 18.0338 64.9649 18.1851C64.8247 18.3365 64.7447 18.5526 64.7447 18.8121C64.7447 19.1364 64.8448 19.3742 65.045 19.5688C65.2452 19.7633 65.5054 19.9147 65.8458 20.066C66.1661 20.1957 66.5465 20.3038 66.967 20.3903C67.3874 20.4768 67.8279 20.5849 68.2683 20.693C68.7088 20.801 69.1292 20.9308 69.5497 21.0821C69.9701 21.2334 70.3505 21.428 70.6708 21.7091C70.9912 21.9685 71.2715 22.2928 71.4717 22.6819C71.6719 23.0711 71.772 23.5683 71.772 24.1304C71.772 24.8222 71.6318 25.4059 71.3315 25.9032C71.0312 26.3788 70.6508 26.7896 70.1903 27.0922C69.7299 27.3949 69.1893 27.6111 68.6287 27.7624C68.0481 27.8921 67.4875 27.9786 66.9269 27.9786C66.2462 27.9786 65.6055 27.8921 65.0249 27.7192C64.4443 27.5462 63.9238 27.2868 63.5034 26.9625C63.0829 26.6166 62.7426 26.2058 62.5023 25.687C62.2621 25.1897 62.1219 24.5844 62.1019 23.871H64.5244V23.8926H64.5444ZM72.4527 15.9151H74.2746V12.3696H76.6771V15.8935H78.8393V17.8176H76.6771V24.0872C76.6771 24.3682 76.6971 24.5844 76.7171 24.8006C76.7372 24.9952 76.7972 25.1681 76.8573 25.2978C76.9374 25.4276 77.0575 25.5357 77.1976 25.6005C77.3578 25.6654 77.558 25.7086 77.8383 25.7086C77.9985 25.7086 78.1787 25.7086 78.3388 25.687C78.499 25.6654 78.6792 25.6437 78.8393 25.6005V27.6111C78.5791 27.6543 78.3188 27.6759 78.0585 27.6976C77.7983 27.7408 77.558 27.7408 77.2777 27.7408C76.6371 27.7408 76.1365 27.676 75.7561 27.5462C75.3757 27.4165 75.0754 27.2219 74.8552 26.9841C74.635 26.7247 74.4948 26.422 74.4147 26.0545C74.3346 25.687 74.2946 25.233 74.2746 24.7574V17.8392H72.4527V15.8719V15.9151ZM80.5211 15.9151H82.7835V17.5149H82.8235C83.1638 16.8231 83.6243 16.3475 84.225 16.0448C84.8256 15.7422 85.4663 15.5908 86.187 15.5908C87.0479 15.5908 87.7887 15.7422 88.4293 16.0881C89.07 16.4124 89.5906 16.8447 90.011 17.4285C90.4314 17.9906 90.7518 18.6607 90.952 19.4174C91.1522 20.1741 91.2723 20.9956 91.2723 21.8388C91.2723 22.6387 91.1722 23.3953 90.992 24.1304C90.7918 24.8655 90.5115 25.5356 90.1311 26.0977C89.7507 26.6598 89.2702 27.1138 88.6696 27.4598C88.069 27.8057 87.3883 27.9786 86.5874 27.9786C86.2471 27.9786 85.8867 27.9354 85.5463 27.8705C85.206 27.8057 84.8656 27.6976 84.5453 27.5462C84.225 27.3949 83.9246 27.2003 83.6644 26.9625C83.3841 26.7247 83.1639 26.4437 82.9837 26.141H82.9436V31.9998H80.5411V15.9151H80.5211ZM88.9098 21.7955C88.9098 21.2767 88.8498 20.7578 88.7096 20.2606C88.5895 19.7633 88.3893 19.3309 88.129 18.9418C87.8688 18.5526 87.5484 18.25 87.188 18.0122C86.8077 17.7744 86.3672 17.6663 85.8867 17.6663C84.8857 17.6663 84.1249 18.0338 83.6043 18.7905C83.1038 19.5471 82.8435 20.5632 82.8435 21.8172C82.8435 22.4225 82.9036 22.963 83.0437 23.4602C83.1839 23.9574 83.3641 24.3898 83.6444 24.7574C83.9046 25.1249 84.225 25.4059 84.6054 25.6221C84.9858 25.8383 85.4062 25.9464 85.9067 25.9464C86.4673 25.9464 86.9078 25.8167 87.2882 25.5789C87.6685 25.3411 87.9689 25.0168 88.2291 24.6493C88.4694 24.2601 88.6496 23.8277 88.7497 23.3305C88.8498 22.8116 88.9098 22.3144 88.9098 21.7955ZM93.1342 11.4399H95.5367V13.8829H93.1342V11.4399ZM93.1342 15.9151H95.5367V27.6543H93.1342V15.9151ZM97.679 11.4399H100.081V27.6543H97.679V11.4399ZM107.409 27.9786C106.548 27.9786 105.767 27.8273 105.087 27.503C104.406 27.1787 103.845 26.7679 103.365 26.2275C102.904 25.687 102.544 25.0168 102.304 24.2601C102.064 23.5034 101.923 22.6603 101.923 21.7739C101.923 20.8875 102.044 20.066 102.304 19.3093C102.544 18.5527 102.904 17.9041 103.365 17.342C103.825 16.8015 104.406 16.3691 105.087 16.0664C105.767 15.7638 106.548 15.5908 107.409 15.5908C108.27 15.5908 109.051 15.7422 109.732 16.0664C110.412 16.3691 110.973 16.8015 111.453 17.342C111.914 17.8825 112.274 18.5527 112.514 19.3093C112.755 20.066 112.895 20.8875 112.895 21.7739C112.895 22.6819 112.775 23.5034 112.514 24.2601C112.254 25.0168 111.914 25.6654 111.453 26.2275C110.993 26.7679 110.412 27.2003 109.732 27.503C109.051 27.8057 108.29 27.9786 107.409 27.9786ZM107.409 25.9248C107.93 25.9248 108.41 25.7951 108.791 25.5573C109.191 25.3195 109.491 24.9952 109.752 24.606C110.012 24.2169 110.192 23.7629 110.312 23.2873C110.432 22.79 110.492 22.2928 110.492 21.7739C110.492 21.2767 110.432 20.7794 110.312 20.2822C110.192 19.7849 110.012 19.3526 109.752 18.9634C109.491 18.5743 109.171 18.2716 108.791 18.0338C108.39 17.796 107.93 17.6663 107.409 17.6663C106.889 17.6663 106.408 17.796 106.028 18.0338C105.627 18.2716 105.327 18.5959 105.067 18.9634C104.806 19.3526 104.626 19.7849 104.506 20.2822C104.386 20.7794 104.326 21.2767 104.326 21.7739C104.326 22.2928 104.386 22.79 104.506 23.2873C104.626 23.7845 104.806 24.2169 105.067 24.606C105.327 24.9952 105.647 25.3195 106.028 25.5573C106.428 25.8167 106.889 25.9248 107.409 25.9248ZM113.616 15.9151H115.437V12.3696H117.84V15.8935H120.002V17.8176H117.84V24.0872C117.84 24.3682 117.86 24.5844 117.88 24.8006C117.9 24.9952 117.96 25.1681 118.02 25.2978C118.1 25.4276 118.22 25.5357 118.361 25.6005C118.521 25.6654 118.721 25.7086 119.001 25.7086C119.161 25.7086 119.342 25.7086 119.502 25.687C119.662 25.6654 119.842 25.6437 120.002 25.6005V27.6111C119.742 27.6543 119.482 27.6759 119.221 27.6976C118.961 27.7408 118.721 27.7408 118.441 27.7408C117.8 27.7408 117.299 27.676 116.919 27.5462C116.539 27.4165 116.238 27.2219 116.018 26.9841C115.798 26.7247 115.658 26.422 115.578 26.0545C115.498 25.687 115.458 25.233 115.437 24.7574V17.8392H113.616V15.8719V15.9151Z" fill="white"/>
  <path d="M4.59825 14.7907C3.0956 13.6213 3.92251 11.2123 5.82655 11.2123H9.50381C10.3859 11.2123 11.1638 10.6345 11.4186 9.79003L12.4632 6.32755C13.0349 4.43278 15.717 4.43059 16.2918 6.32442L17.3436 9.79026C17.5999 10.6345 18.3791 11.2111 19.2614 11.2094L22.9339 11.2022C24.8383 11.1985 25.6697 13.6069 24.1684 14.7788L20.9587 17.2844C20.3069 17.7932 20.0354 18.6506 20.2755 19.4418L21.4456 23.2971C22.0128 25.1657 19.8405 26.6561 18.3012 25.4545L15.623 23.3639C14.8997 22.7992 13.885 22.7992 13.1617 23.3639L10.4694 25.4655C8.93145 26.6661 6.76043 25.1792 7.324 23.3113L8.49134 19.4422C8.73014 18.6507 8.45734 17.7939 7.8049 17.2861L4.59825 14.7907Z" fill="white"/>
  <path d="M8.12721 20.663L8.88786 18.1284L14.3726 22.4028L8.12721 20.663Z" fill="white"/>
</svg>