<svg width="150" height="40" viewBox="0 0 150 40" fill="none" xmlns="http://www.w3.org/2000/svg">
<path d="M39.3107 14.3005H54.5013V17.3542H48.5202V34.5683H45.2418V17.3542H39.2856L39.3107 14.3005ZM53.8507 19.8944H56.6536V22.7319H56.7036C56.8037 22.3266 56.9789 21.9482 57.2292 21.5699C57.4794 21.1916 57.7797 20.8403 58.1551 20.543C58.5055 20.2187 58.9059 19.9755 59.3564 19.7863C59.7818 19.5972 60.2323 19.4891 60.6827 19.4891C61.0331 19.4891 61.2834 19.5161 61.4085 19.5161C61.5336 19.5431 61.6838 19.5702 61.8089 19.5702V22.6779C61.6087 22.6238 61.3835 22.5968 61.1582 22.5698C60.933 22.5428 60.7328 22.5157 60.5075 22.5157C60.007 22.5157 59.5315 22.6238 59.0811 22.84C58.6306 23.0562 58.2552 23.3805 57.9049 23.7859C57.5795 24.2182 57.3042 24.7317 57.104 25.3532C56.9038 25.9748 56.8037 26.7044 56.8037 27.5151V34.4872H53.8006L53.8507 19.8944ZM75.5731 34.5683H72.6201V32.5145H72.57C72.1946 33.2712 71.644 33.8387 70.9183 34.2981C70.1926 34.7575 69.4418 34.9737 68.691 34.9737C66.9142 34.9737 65.6128 34.5143 64.812 33.5414C64.0112 32.5956 63.6108 31.1363 63.6108 29.2176V19.8944H66.6139V28.8933C66.6139 30.1905 66.8391 31.1093 67.3146 31.6227C67.765 32.1632 68.4157 32.4334 69.2416 32.4334C69.8672 32.4334 70.3928 32.3254 70.8182 32.1092C71.2436 31.893 71.594 31.6227 71.8443 31.2714C72.1195 30.9201 72.2947 30.4877 72.4198 30.0013C72.545 29.5149 72.595 28.9744 72.595 28.4069V19.8944H75.5981V34.5683H75.5731ZM80.6784 29.8662C80.7785 30.812 81.1038 31.4606 81.6794 31.866C82.255 32.2443 82.9557 32.4334 83.7565 32.4334C84.0318 32.4334 84.3572 32.4064 84.7075 32.3524C85.0579 32.2983 85.4083 32.2173 85.7086 32.0821C86.0339 31.947 86.2842 31.7579 86.4844 31.4876C86.6846 31.2174 86.7847 30.8931 86.7597 30.4877C86.7346 30.0824 86.6095 29.7311 86.3342 29.4608C86.0589 29.1906 85.7336 29.0014 85.3332 28.8123C84.9328 28.6501 84.4573 28.515 83.9317 28.4069C83.4062 28.2988 82.8806 28.1637 82.3301 28.0286C81.7795 27.8935 81.2289 27.7313 80.7034 27.5422C80.1779 27.353 79.7274 27.1098 79.302 26.7585C78.9015 26.4342 78.5512 26.0288 78.3259 25.5154C78.0757 25.0019 77.9506 24.4074 77.9506 23.6507C77.9506 22.84 78.1257 22.1915 78.5011 21.651C78.8515 21.1105 79.327 20.6781 79.8775 20.3538C80.4281 20.0296 81.0538 19.7863 81.7295 19.6512C82.4052 19.5161 83.0558 19.4621 83.6564 19.4621C84.3572 19.4621 85.0329 19.5431 85.6585 19.7053C86.2842 19.8674 86.8848 20.1106 87.3853 20.489C87.9108 20.8403 88.3363 21.3267 88.6616 21.8942C89.012 22.4617 89.2122 23.1643 89.3123 23.975H86.1841C86.0339 23.1913 85.7086 22.6779 85.2081 22.4077C84.6825 22.1374 84.1069 22.0023 83.4312 22.0023C83.231 22.0023 82.9557 22.0293 82.6804 22.0563C82.3801 22.1104 82.1299 22.1644 81.8546 22.2725C81.6043 22.3806 81.3791 22.5428 81.2039 22.7319C81.0287 22.9211 80.9286 23.1913 80.9286 23.5156C80.9286 23.921 81.0538 24.2182 81.304 24.4614C81.5543 24.7047 81.8796 24.8938 82.3051 25.083C82.7055 25.2451 83.181 25.3803 83.7065 25.4884C84.232 25.5964 84.7826 25.7316 85.3332 25.8667C85.8838 26.0018 86.4093 26.1639 86.9348 26.3531C87.4604 26.5423 87.9359 26.7855 88.3363 27.1368C88.7367 27.4611 89.0871 27.8664 89.3373 28.3529C89.5876 28.8393 89.7127 29.4608 89.7127 30.1635C89.7127 31.0282 89.5375 31.7579 89.1621 32.3794C88.7867 32.9739 88.3113 33.4874 87.7357 33.8657C87.1601 34.244 86.4844 34.5143 85.7836 34.7034C85.0579 34.8656 84.3572 34.9737 83.6564 34.9737C82.8056 34.9737 82.0047 34.8656 81.279 34.6494C80.5532 34.4332 79.9026 34.1089 79.377 33.7036C78.8515 33.2712 78.426 32.7577 78.1257 32.1092C77.8254 31.4876 77.6502 30.731 77.6252 29.8392H80.6533V29.8662H80.6784ZM90.5636 19.8944H92.8409V15.4626H95.844V19.8674H98.5468V22.2725H95.844V30.1094C95.844 30.4607 95.8691 30.731 95.8941 31.0012C95.9191 31.2444 95.9942 31.4606 96.0693 31.6227C96.1694 31.7849 96.3195 31.92 96.4947 32.0011C96.6949 32.0821 96.9452 32.1362 97.2955 32.1362C97.4957 32.1362 97.721 32.1362 97.9212 32.1092C98.1214 32.0821 98.3466 32.0551 98.5468 32.0011V34.5143C98.2215 34.5683 97.8961 34.5953 97.5708 34.6224C97.2455 34.6764 96.9452 34.6764 96.5948 34.6764C95.794 34.6764 95.1683 34.5953 94.6928 34.4332C94.2174 34.2711 93.842 34.0278 93.5667 33.7306C93.2914 33.4063 93.1162 33.028 93.0161 32.5686C92.916 32.1092 92.866 31.5417 92.8409 30.9471V22.2996H90.5636V19.8404V19.8944ZM100.649 19.8944H103.477V21.8942H103.527C103.952 21.0294 104.528 20.4349 105.279 20.0566C106.03 19.6783 106.83 19.4891 107.731 19.4891C108.807 19.4891 109.733 19.6783 110.534 20.1106C111.335 20.516 111.986 21.0565 112.511 21.7861C113.037 22.4887 113.437 23.3265 113.687 24.2723C113.938 25.2181 114.088 26.245 114.088 27.2989C114.088 28.2988 113.963 29.2446 113.738 30.1635C113.487 31.0823 113.137 31.92 112.661 32.6226C112.186 33.3252 111.585 33.8927 110.835 34.3251C110.084 34.7575 109.233 34.9737 108.232 34.9737C107.806 34.9737 107.356 34.9196 106.93 34.8386C106.505 34.7575 106.08 34.6224 105.679 34.4332C105.279 34.244 104.903 34.0008 104.578 33.7036C104.228 33.4063 103.952 33.055 103.727 32.6767H103.677V40.0001H100.674V19.8944H100.649ZM111.135 27.2449C111.135 26.5963 111.06 25.9478 110.885 25.3262C110.734 24.7047 110.484 24.1642 110.159 23.6778C109.833 23.1913 109.433 22.813 108.983 22.5157C108.507 22.2185 107.957 22.0834 107.356 22.0834C106.105 22.0834 105.154 22.5428 104.503 23.4886C103.877 24.4344 103.552 25.7045 103.552 27.2719C103.552 28.0286 103.627 28.7042 103.802 29.3257C103.977 29.9473 104.203 30.4877 104.553 30.9471C104.878 31.4065 105.279 31.7579 105.754 32.0281C106.23 32.2983 106.755 32.4334 107.381 32.4334C108.082 32.4334 108.632 32.2713 109.108 31.974C109.583 31.6768 109.959 31.2714 110.284 30.812C110.584 30.3256 110.809 29.7851 110.935 29.1636C111.06 28.515 111.135 27.8935 111.135 27.2449ZM116.415 14.3005H119.418V17.3542H116.415V14.3005ZM116.415 19.8944H119.418V34.5683H116.415V19.8944ZM122.096 14.3005H125.099V34.5683H122.096V14.3005ZM134.259 34.9737C133.183 34.9737 132.207 34.7845 131.356 34.3792C130.505 33.9738 129.804 33.4604 129.203 32.7848C128.628 32.1092 128.177 31.2714 127.877 30.3256C127.577 29.3798 127.402 28.3258 127.402 27.2179C127.402 26.1099 127.552 25.083 127.877 24.1372C128.177 23.1913 128.628 22.3806 129.203 21.678C129.779 21.0024 130.505 20.4619 131.356 20.0836C132.207 19.7053 133.183 19.4891 134.259 19.4891C135.335 19.4891 136.311 19.6783 137.162 20.0836C138.013 20.4619 138.713 21.0024 139.314 21.678C139.889 22.3536 140.34 23.1913 140.64 24.1372C140.941 25.083 141.116 26.1099 141.116 27.2179C141.116 28.3529 140.966 29.3798 140.64 30.3256C140.315 31.2714 139.889 32.0821 139.314 32.7848C138.738 33.4604 138.013 34.0008 137.162 34.3792C136.311 34.7575 135.36 34.9737 134.259 34.9737ZM134.259 32.4064C134.909 32.4064 135.51 32.2443 135.985 31.947C136.486 31.6498 136.861 31.2444 137.187 30.758C137.512 30.2716 137.737 29.7041 137.887 29.1095C138.038 28.488 138.113 27.8664 138.113 27.2179C138.113 26.5963 138.038 25.9748 137.887 25.3532C137.737 24.7317 137.512 24.1912 137.187 23.7048C136.861 23.2184 136.461 22.84 135.985 22.5428C135.485 22.2455 134.909 22.0834 134.259 22.0834C133.608 22.0834 133.007 22.2455 132.532 22.5428C132.031 22.84 131.656 23.2454 131.331 23.7048C131.005 24.1912 130.78 24.7317 130.63 25.3532C130.48 25.9748 130.405 26.5963 130.405 27.2179C130.405 27.8664 130.48 28.488 130.63 29.1095C130.78 29.7311 131.005 30.2716 131.331 30.758C131.656 31.2444 132.056 31.6498 132.532 31.947C133.032 32.2713 133.608 32.4064 134.259 32.4064ZM142.017 19.8944H144.294V15.4626H147.297V19.8674H150V22.2725H147.297V30.1094C147.297 30.4607 147.322 30.731 147.347 31.0012C147.372 31.2444 147.447 31.4606 147.522 31.6227C147.622 31.7849 147.773 31.92 147.948 32.0011C148.148 32.0821 148.398 32.1362 148.749 32.1362C148.949 32.1362 149.174 32.1362 149.374 32.1092C149.575 32.0821 149.8 32.0551 150 32.0011V34.5143C149.675 34.5683 149.349 34.5953 149.024 34.6224C148.699 34.6764 148.398 34.6764 148.048 34.6764C147.247 34.6764 146.621 34.5953 146.146 34.4332C145.67 34.2711 145.295 34.0278 145.02 33.7306C144.745 33.4063 144.569 33.028 144.469 32.5686C144.369 32.1092 144.319 31.5417 144.294 30.9471V22.2996H142.017V19.8404V19.8944Z" fill="black"/>
<path d="M4.59789 17.5936C3.09525 16.4243 3.92215 14.0153 5.82619 14.0153H12.2507C13.1327 14.0153 13.9106 13.4374 14.1654 12.593L16.0558 6.32756C16.6274 4.43278 19.3095 4.43059 19.8843 6.32443L21.7869 12.5932C22.0431 13.4375 22.8223 14.0141 23.7046 14.0124L30.1243 13.9998C32.0288 13.9961 32.8601 16.4044 31.3589 17.5763L25.9273 21.8164C25.2755 22.3251 25.0041 23.1825 25.2442 23.9737L27.265 30.632C27.8321 32.5006 25.6598 33.991 24.1205 32.7894L19.2206 28.9644C18.4973 28.3997 17.4825 28.3997 16.7592 28.9644L11.8452 32.8004C10.3072 34.001 8.13617 32.5141 8.69975 30.6462L10.7128 23.9742C10.9516 23.1827 10.6788 22.3258 10.0263 21.8181L4.59789 17.5936Z" fill="#83CF59"/>
<path d="M10.1582 25.8291L11.109 22.6609L17.9648 28.0039L10.1582 25.8291Z" fill="#5C973C" fill-opacity="0.4"/>
</svg>
