<svg width="150" height="41" viewBox="0 0 150 41" fill="none" xmlns="http://www.w3.org/2000/svg">
<path d="M39.3104 14.9478H54.5011V18.0014H48.5199V35.2155H45.2415V18.0014H39.2854L39.3104 14.9478ZM53.8504 20.5417H56.6533V23.3791H56.7034C56.8035 22.9738 56.9787 22.5955 57.2289 22.2171C57.4792 21.8388 57.7795 21.4875 58.1549 21.1902C58.5052 20.8659 58.9057 20.6227 59.3561 20.4336C59.7816 20.2444 60.232 20.1363 60.6825 20.1363C61.0329 20.1363 61.2831 20.1633 61.4082 20.1633C61.5334 20.1904 61.6835 20.2174 61.8087 20.2174V23.3251C61.6084 23.2711 61.3832 23.244 61.158 23.217C60.9327 23.19 60.7325 23.163 60.5073 23.163C60.0068 23.163 59.5313 23.2711 59.0808 23.4872C58.6304 23.7034 58.255 24.0277 57.9046 24.4331C57.5793 24.8655 57.304 25.3789 57.1038 26.0005C56.9036 26.622 56.8035 27.3516 56.8035 28.1623V35.1345H53.8004L53.8504 20.5417ZM75.5729 35.2155H72.6198V33.1617H72.5698C72.1944 33.9184 71.6438 34.4859 70.9181 34.9453C70.1923 35.4047 69.4415 35.6209 68.6908 35.6209C66.9139 35.6209 65.6126 35.1615 64.8118 34.1886C64.0109 33.2428 63.6105 31.7835 63.6105 29.8648V20.5417H66.6136V29.5406C66.6136 30.8377 66.8388 31.7565 67.3143 32.2699C67.7648 32.8104 68.4155 33.0807 69.2413 33.0807C69.867 33.0807 70.3925 32.9726 70.818 32.7564C71.2434 32.5402 71.5938 32.27 71.844 31.9186C72.1193 31.5673 72.2945 31.135 72.4196 30.6485C72.5447 30.1621 72.5948 29.6216 72.5948 29.0541V20.5417H75.5979V35.2155H75.5729ZM80.6781 30.5134C80.7782 31.4592 81.1036 32.1078 81.6792 32.5132C82.2548 32.8915 82.9555 33.0807 83.7563 33.0807C84.0316 33.0807 84.3569 33.0536 84.7073 32.9996C85.0577 32.9455 85.408 32.8645 85.7083 32.7294C86.0337 32.5942 86.2839 32.4051 86.4841 32.1348C86.6843 31.8646 86.7844 31.5403 86.7594 31.135C86.7344 30.7296 86.6093 30.3783 86.334 30.1081C86.0587 29.8378 85.7334 29.6487 85.3329 29.4595C84.9325 29.2973 84.457 29.1622 83.9315 29.0541C83.4059 28.946 82.8804 28.8109 82.3298 28.6758C81.7793 28.5407 81.2287 28.3785 80.7032 28.1894C80.1776 28.0002 79.7271 27.757 79.3017 27.4057C78.9013 27.0814 78.5509 26.676 78.3257 26.1626C78.0754 25.6491 77.9503 25.0546 77.9503 24.298C77.9503 23.4872 78.1255 22.8387 78.5009 22.2982C78.8512 21.7577 79.3267 21.3253 79.8773 21.0011C80.4279 20.6768 81.0535 20.4336 81.7292 20.2984C82.4049 20.1633 83.0556 20.1093 83.6562 20.1093C84.3569 20.1093 85.0326 20.1904 85.6583 20.3525C86.2839 20.5146 86.8845 20.7579 87.3851 21.1362C87.9106 21.4875 88.336 21.9739 88.6614 22.5414C89.0117 23.1089 89.2119 23.8115 89.312 24.6222H86.1838C86.0337 23.8386 85.7083 23.3251 85.2078 23.0549C84.6823 22.7846 84.1067 22.6495 83.431 22.6495C83.2308 22.6495 82.9555 22.6765 82.6802 22.7036C82.3799 22.7576 82.1296 22.8117 81.8543 22.9197C81.6041 23.0278 81.3789 23.19 81.2037 23.3791C81.0285 23.5683 80.9284 23.8385 80.9284 24.1628C80.9284 24.5682 81.0535 24.8655 81.3038 25.1087C81.554 25.3519 81.8794 25.541 82.3048 25.7302C82.7052 25.8924 83.1807 26.0275 83.7063 26.1356C84.2318 26.2437 84.7824 26.3788 85.3329 26.5139C85.8835 26.649 86.409 26.8112 86.9346 27.0003C87.4601 27.1895 87.9356 27.4327 88.336 27.784C88.7365 28.1083 89.0868 28.5137 89.3371 29.0001C89.5873 29.4865 89.7125 30.1081 89.7125 30.8107C89.7125 31.6754 89.5373 32.4051 89.1619 33.0266C88.7865 33.6211 88.311 34.1346 87.7354 34.5129C87.1598 34.8913 86.4841 35.1615 85.7834 35.3507C85.0577 35.5128 84.3569 35.6209 83.6562 35.6209C82.8053 35.6209 82.0045 35.5128 81.2788 35.2966C80.553 35.0804 79.9023 34.7561 79.3768 34.3508C78.8512 33.9184 78.4258 33.4049 78.1255 32.7564C77.8252 32.1348 77.65 31.3782 77.625 30.4864H80.6531V30.5134H80.6781ZM90.5633 20.5417H92.8407V16.1098H95.8438V20.5146H98.5466V22.9197H95.8438V30.7566C95.8438 31.1079 95.8688 31.3782 95.8938 31.6484C95.9189 31.8916 95.9939 32.1078 96.069 32.2699C96.1691 32.4321 96.3193 32.5672 96.4945 32.6483C96.6947 32.7294 96.9449 32.7834 97.2953 32.7834C97.4955 32.7834 97.7207 32.7834 97.9209 32.7564C98.1211 32.7294 98.3464 32.7023 98.5466 32.6483V35.1615C98.2212 35.2155 97.8959 35.2426 97.5706 35.2696C97.2452 35.3236 96.9449 35.3236 96.5946 35.3236C95.7937 35.3236 95.1681 35.2426 94.6926 35.0804C94.2171 34.9183 93.8417 34.6751 93.5664 34.3778C93.2912 34.0535 93.116 33.6752 93.0159 33.2158C92.9158 32.7564 92.8657 32.1889 92.8407 31.5944V22.9468H90.5633V20.4876V20.5417ZM100.649 20.5417H103.477V22.5414H103.527C103.952 21.6767 104.528 21.0821 105.279 20.7038C106.029 20.3255 106.83 20.1363 107.731 20.1363C108.807 20.1363 109.733 20.3255 110.534 20.7579C111.335 21.1632 111.985 21.7037 112.511 22.4333C113.037 23.1359 113.437 23.9737 113.687 24.9195C113.937 25.8653 114.088 26.8922 114.088 27.9462C114.088 28.946 113.962 29.8919 113.737 30.8107C113.487 31.7295 113.137 32.5672 112.661 33.2698C112.186 33.9724 111.585 34.5399 110.834 34.9723C110.083 35.4047 109.233 35.6209 108.232 35.6209C107.806 35.6209 107.356 35.5668 106.93 35.4858C106.505 35.4047 106.079 35.2696 105.679 35.0804C105.279 34.8913 104.903 34.648 104.578 34.3508C104.227 34.0535 103.952 33.7022 103.727 33.3239H103.677V40.6473H100.674V20.5417H100.649ZM111.135 27.8921C111.135 27.2435 111.06 26.595 110.884 25.9734C110.734 25.3519 110.484 24.8114 110.159 24.325C109.833 23.8386 109.433 23.4602 108.982 23.163C108.507 22.8657 107.956 22.7306 107.356 22.7306C106.104 22.7306 105.153 23.19 104.503 24.1358C103.877 25.0816 103.552 26.3518 103.552 27.9191C103.552 28.6758 103.627 29.3514 103.802 29.9729C103.977 30.5945 104.202 31.135 104.553 31.5944C104.878 32.0538 105.279 32.4051 105.754 32.6753C106.23 32.9455 106.755 33.0807 107.381 33.0807C108.081 33.0807 108.632 32.9185 109.107 32.6213C109.583 32.324 109.958 31.9186 110.284 31.4592C110.584 30.9728 110.809 30.4323 110.934 29.8108C111.059 29.1622 111.135 28.5407 111.135 27.8921ZM116.415 14.9478H119.418V18.0014H116.415V14.9478ZM116.415 20.5417H119.418V35.2155H116.415V20.5417ZM122.096 14.9478H125.099V35.2155H122.096V14.9478ZM134.258 35.6209C133.182 35.6209 132.206 35.4317 131.355 35.0264C130.505 34.621 129.804 34.1076 129.203 33.432C128.628 32.7564 128.177 31.9186 127.877 30.9728C127.577 30.027 127.401 28.9731 127.401 27.8651C127.401 26.7571 127.552 25.7302 127.877 24.7844C128.177 23.8386 128.628 23.0278 129.203 22.3252C129.779 21.6496 130.505 21.1092 131.355 20.7308C132.206 20.3525 133.182 20.1363 134.258 20.1363C135.335 20.1363 136.311 20.3255 137.161 20.7308C138.012 21.1092 138.713 21.6496 139.314 22.3252C139.889 23.0008 140.34 23.8386 140.64 24.7844C140.94 25.7302 141.116 26.7571 141.116 27.8651C141.116 29.0001 140.965 30.027 140.64 30.9728C140.315 31.9186 139.889 32.7294 139.314 33.432C138.738 34.1076 138.012 34.648 137.161 35.0264C136.311 35.4047 135.36 35.6209 134.258 35.6209ZM134.258 33.0536C134.909 33.0536 135.51 32.8915 135.985 32.5942C136.486 32.297 136.861 31.8916 137.186 31.4052C137.512 30.9188 137.737 30.3513 137.887 29.7567C138.037 29.1352 138.112 28.5137 138.112 27.8651C138.112 27.2435 138.037 26.622 137.887 26.0005C137.737 25.3789 137.512 24.8384 137.186 24.352C136.861 23.8656 136.461 23.4872 135.985 23.19C135.485 22.8927 134.909 22.7306 134.258 22.7306C133.608 22.7306 133.007 22.8927 132.532 23.19C132.031 23.4872 131.656 23.8926 131.33 24.352C131.005 24.8384 130.78 25.3789 130.63 26.0005C130.48 26.622 130.404 27.2435 130.404 27.8651C130.404 28.5137 130.48 29.1352 130.63 29.7567C130.78 30.3783 131.005 30.9188 131.33 31.4052C131.656 31.8916 132.056 32.297 132.532 32.5942C133.032 32.9185 133.608 33.0536 134.258 33.0536ZM142.016 20.5417H144.294V16.1098H147.297V20.5146H150V22.9197H147.297V30.7566C147.297 31.1079 147.322 31.3782 147.347 31.6484C147.372 31.8916 147.447 32.1078 147.522 32.2699C147.622 32.4321 147.772 32.5672 147.948 32.6483C148.148 32.7294 148.398 32.7834 148.748 32.7834C148.949 32.7834 149.174 32.7834 149.374 32.7564C149.574 32.7294 149.799 32.7023 150 32.6483V35.1615C149.674 35.2155 149.349 35.2426 149.024 35.2696C148.698 35.3236 148.398 35.3236 148.048 35.3236C147.247 35.3236 146.621 35.2426 146.146 35.0804C145.67 34.9183 145.295 34.6751 145.02 34.3778C144.744 34.0535 144.569 33.6752 144.469 33.2158C144.369 32.7564 144.319 32.1889 144.294 31.5944V22.9468H142.016V20.4876V20.5417Z" fill="white"/>
<path d="M4.59764 18.2411C3.095 17.0717 3.92191 14.6627 5.82594 14.6627H12.2504C13.1325 14.6627 13.9104 14.0849 14.1652 13.2404L16.0555 6.97502C16.6272 5.08024 19.3093 5.07805 19.8841 6.97189L21.7866 13.2407C22.0429 14.0849 22.822 14.6615 23.7043 14.6598L30.124 14.6473C32.0285 14.6436 32.8599 17.0519 31.3586 18.2238L25.9271 22.4638C25.2753 22.9726 25.0038 23.83 25.2439 24.6212L27.2647 31.2795C27.8318 33.1481 25.6595 34.6385 24.1202 33.4368L19.2203 29.6118C18.497 29.0472 17.4823 29.0472 16.759 29.6118L11.8449 33.4479C10.307 34.6484 8.13593 33.1616 8.6995 31.2936L10.7125 24.6216C10.9513 23.8301 10.6785 22.9733 10.0261 22.4656L4.59764 18.2411Z" fill="#83CF59"/>
<path d="M10.158 26.4763L11.1088 23.3081L17.9646 28.6511L10.158 26.4763Z" fill="#5C973C" fill-opacity="0.4"/>
</svg>
