<svg xmlns="http://www.w3.org/2000/svg" width="84" height="32" viewBox="0 0 84 32" fill="none">
  <mask id="mask0_14996_887" style="mask-type:luminance" maskUnits="userSpaceOnUse" x="0" y="0" width="84" height="32">
    <path d="M83.4805 0H0.00219727V32H83.4805V0Z" fill="white"/>
  </mask>
  <g mask="url(#mask0_14996_887)">
    <path d="M67.0257 18.5336L68.3826 18.2244C68.4342 18.2072 68.4685 18.2072 68.52 18.1901C69.293 17.9839 69.7739 17.1938 69.585 16.4209L69.5678 16.4037C69.5163 16.2319 69.4476 16.043 69.3445 15.9056C69.1899 15.7166 69.001 15.562 68.7949 15.4246C68.5372 15.2872 68.2796 15.167 68.0047 15.0639L66.5276 14.5143C65.7031 14.2051 64.8614 13.9131 64.0198 13.6211C63.4701 13.4321 63.0064 13.2604 62.6113 13.123C62.5426 13.1058 62.4567 13.0714 62.388 13.0543C61.9071 12.8997 61.5635 12.8481 61.2715 12.8481C61.0826 12.8481 60.8936 12.8825 60.7047 12.9512C60.5158 13.0371 60.344 13.1573 60.2066 13.2947C60.1379 13.3634 60.0692 13.4493 60.0176 13.5352C59.8974 13.707 59.8115 13.9131 59.7428 14.102C59.468 14.9093 59.3306 15.7682 59.3306 16.627C59.3306 17.3999 59.3649 18.3962 59.7943 19.0832C59.8974 19.255 60.0348 19.4096 60.1894 19.5127C60.4986 19.7188 60.8078 19.7531 61.1169 19.7703C61.5807 19.8047 62.0445 19.6844 62.5082 19.5814L67.0257 18.5336ZM82.1067 11.3538C81.7289 10.5808 81.2479 9.87659 80.6467 9.25823C80.5608 9.18953 80.4921 9.10364 80.3891 9.05211C80.3032 8.98341 80.2173 8.93188 80.1314 8.88035C80.0455 8.82882 79.9425 8.79447 79.8566 8.74294C79.6677 8.67423 79.4615 8.63988 79.2554 8.63988C79.0665 8.65705 78.8775 8.70858 78.7058 8.79447C78.4481 8.93188 78.1733 9.138 77.7954 9.48153C77.7439 9.53306 77.6752 9.58459 77.6236 9.63612C77.3145 9.92812 76.9709 10.2888 76.5759 10.7011C75.9575 11.3366 75.3392 11.9721 74.7208 12.6077L73.6215 13.7413C73.4154 13.9474 73.2436 14.1707 73.0718 14.4112C72.9344 14.6173 72.8314 14.8406 72.7798 15.0811C72.7455 15.27 72.7455 15.459 72.797 15.6308L72.8142 15.6479C72.986 16.438 73.7589 16.9362 74.549 16.7816C74.6006 16.7644 74.6521 16.7644 74.6864 16.7472L80.5265 15.3903C80.9903 15.2872 81.454 15.1842 81.8663 14.9437C82.1411 14.7891 82.4159 14.6173 82.5877 14.291C82.6907 14.1192 82.7423 13.9131 82.7594 13.7241C82.8453 12.9512 82.4331 12.058 82.1067 11.3538ZM71.6462 13.81C72.0756 13.2776 72.0756 12.4874 72.11 11.8347C72.2302 9.67047 72.3676 7.50622 72.4707 5.32479C72.5222 4.51749 72.6081 3.69302 72.5565 2.86854C72.505 2.18148 72.505 1.40853 72.0756 0.841701C71.3198 -0.137365 69.6881 -0.0514813 68.5888 0.0859315C68.2452 0.137461 67.9017 0.188991 67.5753 0.274874C67.2318 0.360757 66.9054 0.446639 66.5791 0.549699C65.5141 0.893231 64.0198 1.52877 63.7621 2.7483C63.6247 3.45254 63.9511 4.15679 64.2259 4.77514C64.5351 5.54809 64.9817 6.23515 65.3767 6.95657C66.4073 8.88035 67.4723 10.7698 68.5372 12.6592C68.8636 13.226 69.2071 13.9303 69.8083 14.2223C69.8598 14.2394 69.8942 14.2566 69.9285 14.2738C70.2034 14.3769 70.5125 14.394 70.7874 14.3253L70.8389 14.3082C71.0965 14.2394 71.337 14.0849 71.526 13.8959C71.5775 13.8787 71.6118 13.8444 71.6462 13.81ZM71.1309 19.6157C70.7874 19.1348 70.1862 18.9287 69.6193 19.1176C69.5506 19.1348 69.4991 19.1691 69.4304 19.1863C69.3273 19.2378 69.2415 19.2894 69.1728 19.3581C68.9323 19.5298 68.7262 19.7703 68.5372 20.0108C68.4857 20.0623 68.4513 20.1482 68.3826 20.1997L67.4379 21.488C66.9054 22.2094 66.373 22.9308 65.8577 23.6694C65.5141 24.1503 65.2221 24.5454 64.9817 24.9061C64.9301 24.9748 64.8958 25.0607 64.8443 25.1122C64.5694 25.5416 64.4148 25.8508 64.329 26.1257C64.2774 26.3146 64.2431 26.5207 64.2774 26.7097C64.2946 26.9158 64.3633 27.1047 64.4664 27.2765C64.5179 27.3624 64.5866 27.4482 64.6553 27.5341C64.7927 27.6887 64.9473 27.8433 65.1363 27.9635C65.789 28.4101 66.4932 28.7365 67.249 28.9941C67.8673 29.2003 68.5201 29.3205 69.1728 29.3549C69.293 29.3549 69.3961 29.3549 69.5163 29.3549C69.6194 29.3377 69.7224 29.3377 69.8255 29.3033C69.9285 29.2861 70.0316 29.2518 70.1175 29.2174C70.4954 29.08 70.8045 28.788 70.9419 28.4101C71.045 28.1353 71.1137 27.7918 71.1652 27.2765C71.1652 27.2078 71.1824 27.1219 71.1824 27.036C71.2168 26.6066 71.2339 26.1085 71.2683 25.5245C71.3198 24.6313 71.3542 23.7381 71.3714 22.8277L71.4229 21.2303C71.4401 20.8524 71.4229 20.4574 71.3198 20.0795C71.3027 19.9249 71.234 19.7703 71.1309 19.6157ZM81.746 22.1063C81.5571 21.883 81.2651 21.6769 80.8357 21.4193C80.767 21.3849 80.6983 21.3334 80.6296 21.299C80.2688 21.0757 79.8223 20.8524 79.307 20.5776C78.5168 20.1482 77.7267 19.7188 76.9366 19.3065L75.5281 18.5679C75.4594 18.5508 75.3735 18.4992 75.3048 18.4649C75.03 18.3275 74.738 18.2244 74.446 18.1557C74.3429 18.1385 74.2399 18.1214 74.1368 18.1214C74.0681 18.1214 73.9994 18.1214 73.9307 18.1385C73.3467 18.2244 72.9001 18.671 72.797 19.255C72.7798 19.4268 72.7798 19.6157 72.8142 19.7875C72.8829 20.1654 73.0547 20.5261 73.2264 20.8524L73.9822 22.2609C74.3944 23.0682 74.8239 23.8412 75.2533 24.6313C75.5281 25.1466 75.7686 25.576 75.9919 25.9539C76.0262 26.0226 76.0778 26.0913 76.1121 26.16C76.3698 26.6066 76.5931 26.8814 76.8163 27.0704C76.9538 27.2078 77.1255 27.3108 77.2973 27.3795C77.4862 27.4483 77.6924 27.4654 77.8985 27.4482C78.0015 27.4311 78.1046 27.4139 78.2076 27.3967C78.3107 27.3624 78.4138 27.3452 78.4997 27.3108C78.6027 27.2593 78.7058 27.225 78.7917 27.1734C79.3757 26.8471 79.891 26.452 80.3547 26.0054C80.9215 25.4558 81.4197 24.8546 81.7976 24.1503C81.8491 24.0473 81.9006 23.9442 81.935 23.8412C81.9693 23.7381 82.0037 23.6522 82.038 23.5492C82.0552 23.4461 82.0724 23.343 82.0896 23.24C82.1067 23.0339 82.0896 22.8277 82.0209 22.6388C81.9865 22.4155 81.8834 22.2437 81.746 22.1063Z" fill="#18181A"/>
  </g>
  <mask id="mask1_14996_887" style="mask-type:luminance" maskUnits="userSpaceOnUse" x="0" y="0" width="84" height="32">
    <path d="M83.4805 0H0.00219727V32H83.4805V0Z" fill="white"/>
  </mask>
  <g mask="url(#mask1_14996_887)">
    <path fill-rule="evenodd" clip-rule="evenodd" d="M33.2389 8.39934C33.2389 7.23133 34.1836 6.28662 35.3344 6.28662C36.4681 6.28662 37.3785 7.23134 37.43 8.41652V24.8889C37.43 26.0569 36.4853 27.0016 35.3344 27.0016C34.1836 27.0016 33.2389 26.0569 33.2389 24.8889V8.39934ZM31.2979 18.5679C31.2808 18.8942 31.1949 19.4954 30.7826 19.942C30.3189 20.423 29.7005 20.526 29.3398 20.526C27.8455 20.5432 26.3511 20.5432 24.8567 20.5432C23.3624 20.5432 21.868 20.5432 20.3736 20.5604C20.511 20.9726 20.7687 21.591 21.3527 22.1578C21.7134 22.5013 22.0569 22.6903 22.1944 22.7762C22.3661 22.8964 23.0017 23.2227 23.7574 23.2227C24.5647 23.2227 25.2861 22.9651 25.9904 22.6044L26.0419 22.57C26.54 22.3124 27.0382 22.0547 27.5706 21.9689C28.0859 21.883 28.6528 21.986 29.065 22.3467C29.5631 22.7762 29.7521 23.3945 29.5631 24.03C29.357 24.7515 28.7558 25.3698 28.1031 25.7477C27.7424 25.9538 27.3473 26.1428 26.9523 26.2802C25.9389 26.6409 24.8739 26.8127 23.809 26.7783C23.5513 26.7783 23.2765 26.7783 23.0017 26.7439C22.7097 26.7096 22.4176 26.6581 22.1256 26.5722C21.6791 26.4691 21.2325 26.3317 20.8202 26.1256C20.408 25.9366 20.0129 25.7134 19.635 25.4557C19.2572 25.1809 18.9136 24.8889 18.5873 24.5453C18.2609 24.219 17.9861 23.8411 17.7284 23.4632C16.8524 22.1234 16.4402 20.4745 16.5089 18.8599C16.5776 17.2968 17.0929 15.7166 18.0548 14.4455C18.1579 14.2909 18.2609 14.1535 18.3811 14.0161C18.4327 13.9646 18.4842 13.913 18.5186 13.8443C19.6866 12.4187 21.2496 11.9721 21.9023 11.7831L21.9367 11.766C23.2421 11.3881 24.6334 11.3881 25.9389 11.766C26.248 11.8518 28 12.3843 29.357 13.8443C29.4257 13.913 29.5975 14.1192 29.8379 14.4283C30.4219 15.2185 30.8514 16.1116 31.0918 17.0564C31.2121 17.4858 31.2979 17.9667 31.2979 18.5679ZM21.7134 15.8712C21.0779 16.4036 20.6141 17.1251 20.4423 17.9324H27.5534C27.3645 17.1251 26.9179 16.3865 26.2652 15.8712C25.6125 15.3559 24.8224 15.0639 23.9807 15.0639C23.6887 15.0639 22.6753 15.1154 21.7134 15.8712ZM48.7837 11.5427C46.9115 11.5427 45.2282 12.3671 44.0086 13.7241V13.6897C43.9399 10.9243 39.766 11.0274 39.8519 13.81V29.5437C39.8519 30.6946 40.7794 31.6393 41.9474 31.6393C43.0983 31.6393 44.0258 30.7117 44.0258 29.5437V24.6312C45.2282 25.971 46.9115 26.8298 48.7837 26.8298C52.511 26.8298 55.5513 23.446 55.5513 19.2206C55.5513 14.978 52.511 11.5427 48.7837 11.5427ZM47.8562 23.3773C45.7435 23.3773 44.0086 21.5223 44.0086 19.2206C44.0086 16.9018 45.7263 15.0467 47.8562 15.0467C49.9861 15.0467 51.7037 16.9018 51.7037 19.2206C51.7037 21.5394 49.9861 23.3773 47.8562 23.3773ZM13.4171 20.2855L12.73 21.7971C12.4209 22.4498 12.1117 23.1197 11.8197 23.7896C11.7166 23.9957 11.6307 24.2018 11.5449 24.4079C10.2394 27.3108 8.69355 30.7633 5.30976 31.4847C3.67798 31.8454 1.20455 31.3473 0.294191 29.8186C-0.616169 28.2555 0.740782 26.4691 2.47562 26.8814C2.75044 26.9329 3.02527 27.0703 3.30009 27.2077C3.76386 27.431 4.21045 27.6715 4.72575 27.5684C5.18952 27.4825 5.4987 27.139 5.85941 26.7096C6.25447 26.2287 6.54647 25.679 6.70106 25.0778C6.68388 25.0606 6.68389 25.0435 6.68389 25.0263C6.66671 25.0091 6.66671 24.9919 6.64953 24.9748C6.22012 24.1846 5.85941 23.4632 5.55023 22.8792C5.34411 22.5013 5.17234 22.1578 5.01775 21.883L4.31351 20.5432C3.79822 19.547 3.71233 19.3924 3.47186 18.963C2.97374 18.0011 2.44127 17.0563 1.87444 16.1288C1.27326 15.1154 0.654899 13.9817 1.15302 12.7794C1.54808 11.8175 2.61303 11.3194 3.5921 11.6457C4.63987 11.9549 5.10364 12.9683 5.55023 13.8959C5.61894 14.0676 5.70482 14.2394 5.7907 14.394C6.49494 15.7853 7.18201 17.1766 7.86907 18.5679C7.9206 18.7053 8.02366 18.8942 8.1439 19.1175C8.24695 19.3237 8.36719 19.5641 8.48743 19.8218C8.55613 19.9592 8.60766 20.0794 8.67637 20.1997C8.74508 20.3371 8.81378 20.4745 8.84814 20.5776C9.17449 19.7874 9.48367 18.9973 9.81003 18.2072C10.1364 17.4171 10.4627 16.6269 10.7719 15.8368C10.7719 15.7853 10.8578 15.6307 10.9609 15.373C11.1326 14.9952 11.3044 14.6173 11.459 14.2394C11.8884 13.2088 12.3865 11.9721 13.5202 11.6285C14.3446 11.3881 15.2207 11.6973 15.7188 12.4015C15.9764 12.745 16.0623 13.1401 16.0795 13.5351C16.0967 14.4112 15.6672 15.3387 15.3065 16.1288C15.2207 16.3178 15.1348 16.5067 15.0661 16.6956L15.0145 16.7987C14.9115 17.022 14.6366 17.6232 14.1729 18.6366C14.0011 18.9973 13.8465 19.358 13.6748 19.7187C13.6061 19.8905 13.503 20.0966 13.4171 20.2855Z" fill="#18181A"/>
  </g>
</svg>