<svg width="64" height="24" viewBox="0 0 64 24" fill="none" xmlns="http://www.w3.org/2000/svg">
<path d="M21.8301 7.15454L23.8307 23.477H43.404L41.4035 7.15454H21.8301Z" fill="#AA8FFF"/>
<path d="M27.4131 0.921531C28.6624 2.09833 28.8339 3.94903 27.7963 5.05508C26.7588 6.16113 24.9048 6.10387 23.6555 4.92707C22.4063 3.75027 22.2347 1.89957 23.2723 0.793519C24.31 -0.312655 26.1638 -0.255266 27.4131 0.921531Z" fill="black"/>
<path fill-rule="evenodd" clip-rule="evenodd" d="M63.9292 13.031C63.4779 9.36195 60.6014 7.13853 56.6925 7.15457H43.6738L45.6728 23.4761H51.5294L51.1285 20.2122H57.3266C62.2061 20.2122 64.4384 17.1659 63.9292 13.031ZM56.695 15.6368L50.5716 15.6436L50.0917 11.7265L56.2496 11.7316C57.6983 11.7484 58.439 12.5654 58.5581 13.6842C58.6319 14.4029 58.3031 15.6361 56.695 15.6361V15.6368Z" fill="black"/>
<path d="M1.44114 18.916L1.99987 23.477H21.5579L20.9179 18.2536H11.799L11.7193 17.6064L20.1186 11.7248L19.5574 7.15454H0L0.639999 12.378H9.77408L9.85459 13.031L1.44114 18.916Z" fill="black"/>
</svg>
