<svg width="169" height="169" viewBox="0 0 169 169" fill="none" xmlns="http://www.w3.org/2000/svg">
<circle cx="84.5" cy="84.5" r="84.5" fill="white"/>
<path d="M121.576 98.0939C121.347 101.144 118.945 103.164 116.506 105.223C114.409 107.014 110.09 105.571 103.305 106.791C102.047 105.876 99.9991 108.539 98.3217 105.604C96.9493 103.164 96.4537 100.877 96.2631 99.4281C102.324 95.8066 108.348 92.185 114.409 88.5635C118.984 90.8508 121.843 94.5486 121.576 98.0939Z" fill="white" stroke="#161616" stroke-width="2" stroke-miterlimit="10"/>
<path d="M123.368 57.7232C126.989 58.9431 129.048 61.7641 132.974 67.2918C137.396 73.5437 140.751 79.1095 142.467 83.3029C142.733 83.9128 142.543 84.6371 142.009 85.0564C141.323 85.5902 139.951 86.0095 139.188 86.3526C139.493 88.4493 139.684 91.499 138.959 95.0062C137.663 101.334 134.118 105.528 132.364 107.358C129.162 107.663 124.13 107.701 118.526 105.68C116.658 104.994 113.342 103.774 109.949 100.801C106.975 98.2084 105.222 95.4255 104.231 93.5576C103.278 93.7863 101.715 93.9388 100.037 93.4051C96.4919 92.2996 92.9084 88.3349 94.0521 85.2471C94.8908 82.9598 98.2073 81.473 101.981 82.083C101.638 80.6343 101.295 78.5376 101.295 76.0216C101.295 75.4117 101.41 70.799 103.049 67.1774C106.175 60.2774 116.01 55.2453 123.368 57.7232Z" fill="white" stroke="#161616" stroke-width="2" stroke-miterlimit="10"/>
<path d="M139.302 76.4409C140.103 74.3823 141.742 69.3121 140.179 63.327C139.646 61.3066 138.578 57.4563 134.995 54.3303C130.687 50.5563 125.617 50.3657 124.168 50.3657C123.33 49.4126 121.881 48.0403 119.746 47.1635C118.907 46.8204 116.582 45.9817 111.512 46.706C108.843 47.0872 104.802 48.0021 100.228 50.3657C96.6825 52.2336 94.5096 54.3303 93.2134 55.8552C87.3427 62.7552 84.9307 61.5127 83.4543 68.7784C81.9779 76.0441 83.5544 80.5961 80.0091 83.5696C78.7511 84.637 74.2232 87.3525 71.4784 91.6984C69.5723 94.71 66.1075 98.207 67.213 107.776C68.0517 115.285 76.5162 125.601 83.4543 126.478C90.9643 127.431 100.99 122.212 100.99 109.759C109.415 106.557 115.629 107.701 116.582 104.575C117.611 101.144 111.169 96.1498 105.794 92.5663C105.031 93.0619 103.544 93.9006 101.829 93.6337C98.2836 93.1 95.8438 88.2967 97.1018 85.3995C97.5974 84.2177 98.6267 83.6077 98.9317 83.4171C101.486 81.9304 104.345 83.4553 104.574 83.5696C107.662 80.1768 109.911 77.0508 111.436 74.7254C113.494 71.5613 114.447 69.5027 114.79 68.7784C115.858 66.453 116.506 64.3944 116.925 62.8314C119.136 62.9458 122.186 63.3651 125.464 64.6613C126.227 64.9663 128.895 66.0718 131.869 68.321C132.25 68.5878 133.889 69.8458 135.757 71.9044C137.282 73.5055 138.464 75.1447 139.302 76.4409Z" fill="#5222D0"/>
<path d="M132.746 76.8222C131.945 78.309 131.03 79.3382 129.315 79.6432C127.637 79.9482 125.998 79.567 124.626 78.5377C124.206 78.1946 124.626 77.4703 125.045 77.8134C126.112 78.6139 127.37 78.9951 128.705 78.8808C130.344 78.7283 131.221 77.8134 131.983 76.4029C132.288 75.9073 133.012 76.3266 132.746 76.8222Z" fill="#161616"/>
<path d="M131.564 71.7901C128.895 70.2271 126.227 70.8752 123.711 72.5144C123.253 72.8194 122.834 72.0569 123.291 71.7901C126.036 69.9984 129.048 69.3503 131.983 71.0658C132.441 71.3326 132.021 72.0951 131.564 71.7901Z" fill="#161616"/>
<path d="M129.353 85.0174C129.467 85.513 129.658 85.513 129.924 85.0174C129.886 84.9411 129.848 84.903 129.81 84.8268C129.734 84.7886 129.62 84.7886 129.543 84.8268C129.467 84.9411 129.391 85.0555 129.315 85.208C129.353 85.208 129.353 85.2461 129.353 85.2842C129.543 85.2842 129.772 85.2842 129.963 85.2842C129.886 85.1317 129.81 84.9411 129.772 84.7886C130.001 84.7505 130.191 85.0174 130.191 85.208C130.191 85.4748 130.001 85.6273 129.772 85.6273C129.276 85.6654 128.971 84.9792 129.391 84.6743C129.581 84.5218 129.81 84.5218 130.001 84.6743C130.306 84.9411 130.306 85.513 129.886 85.6655C129.543 85.7798 129.124 85.513 129.124 85.1317C129.124 84.7505 129.467 84.4837 129.81 84.5599C130.115 84.6362 130.344 84.9411 130.229 85.2461C130.001 85.7417 129.2 85.5511 129.353 85.0174Z" fill="#161616"/>
<path d="M125.274 83.6075C125.236 83.7981 125.502 83.9124 125.655 83.76C125.693 83.7218 125.731 83.6837 125.731 83.6075C125.426 83.2644 125.274 83.2644 125.197 83.6456C125.045 83.1119 125.845 82.8831 126.036 83.4169C126.15 83.7981 125.845 84.1793 125.464 84.1793C125.083 84.1793 124.816 83.8743 124.892 83.4931C124.931 83.15 125.274 82.8831 125.655 82.9594C126.036 83.0356 126.227 83.455 126.15 83.7981C125.96 84.3699 125.121 84.1412 125.274 83.6075Z" fill="#161616"/>
<path d="M126.532 87.2287C126.265 87.2287 126.417 87.7624 126.684 87.6099C126.989 87.4574 126.57 86.9618 126.417 87.2668C126.684 86.7712 127.409 87.2287 127.142 87.6861C126.951 88.0292 126.494 88.1055 126.189 87.8767C125.807 87.6099 125.846 87.0762 126.227 86.8475C126.57 86.6187 127.065 86.7712 127.18 87.1906C127.294 87.6099 126.951 88.1055 126.494 88.0674C126.265 88.0674 126.074 87.8767 126.074 87.648C126.112 87.4193 126.303 87.1905 126.532 87.2287Z" fill="#161616"/>
<path d="M138.921 93.3284C135.91 93.3665 133.165 92.261 131.03 90.1261C130.649 89.7449 131.259 89.135 131.64 89.5162C133.622 91.4985 136.138 92.4897 138.921 92.4516C139.493 92.4516 139.493 93.2902 138.921 93.3284Z" fill="#161616"/>
<path opacity="0.1" d="M116.925 62.6406C116.315 66.9865 115.591 70.5318 115.095 72.9335C113.723 79.376 112.732 81.9683 113.265 86.0473C113.685 89.1733 114.752 91.4225 115.362 92.6805C119.784 101.906 129.581 106.176 132.669 107.395C130.954 107.548 128.895 107.586 126.646 107.395C122.529 107.014 119.136 105.947 116.696 104.956C115.781 105.871 114.638 106.862 113.265 107.777C109.568 110.216 106.286 106.486 103.961 106.791C103.046 106.181 101.791 110.102 100.876 109.492C99.0841 110.255 96.4538 111.513 93.5565 113.571C84.8648 119.709 88.3418 125.618 83.0811 125.389C80.4507 125.274 78.0109 123.521 77.4772 123.102C76.0667 122.034 75.0374 120.776 73.8938 118.794C72.4451 116.278 69.6241 111.284 69.5098 104.079C69.4335 99.6186 70.4628 95.9208 71.4159 93.4048C80.0313 104.117 87.4189 108.577 96.4538 104.079C102.515 101.067 105.26 95.1965 106.289 92.528C103.087 94.2435 99.3891 93.3667 97.7118 90.9269C96.4538 89.097 96.0344 85.8948 98.093 83.9506C99.7322 82.3495 102.401 82.0827 104.612 83.3407C106.632 81.244 108.843 78.5373 110.978 75.2589C113.913 70.608 115.781 66.1478 116.925 62.6406Z" fill="#6D6C6C"/>
<path d="M38.7562 68.3891C38.7184 68.4648 37.3962 70.6968 34.7897 75.1987C31.7676 80.3816 30.521 82.538 29.2744 85.6023C28.4055 87.7587 27.8389 89.5368 27.4989 90.7474C29.161 91.4283 30.8232 92.1093 32.4853 92.7903C32.9387 96.4977 34.0342 99.3351 34.903 101.113C36.3007 103.988 38.3029 108.188 42.836 110.23C43.516 110.533 45.5559 111.403 48.3514 111.403C51.8268 111.403 54.3956 110.041 55.5289 109.36C55.7555 110.798 56.2088 112.614 57.0777 114.619C57.7954 116.321 58.6265 117.683 59.382 118.743C62.933 117.381 66.484 116.019 69.9972 114.619C69.015 113.143 67.7306 110.798 66.9373 107.696C66.6728 106.637 66.0684 103.988 66.2951 100.243C66.5595 95.6655 67.8439 93.2821 69.2416 88.9693C71.3949 82.2353 72.6793 78.3009 72.0749 74.1016C71.2816 68.6539 67.2017 62.3739 60.9309 60.1041C51.9401 56.8128 42.6094 63.2062 38.7562 68.3891Z" fill="white"/>
<path d="M32.4849 72.7782C30.1427 71.8703 29.6138 67.2549 30.0672 64.1906C30.2183 63.1691 30.7849 60.1426 33.5426 57.1161C37.2824 52.9925 41.249 53.0303 46.991 50.5713C50.1642 49.2094 54.6973 46.7503 59.5327 41.9836C58.8149 44.14 58.0972 46.2585 57.3417 48.4149C58.4372 48.4906 61.1571 48.6041 63.9903 47.0152C67.5035 45.0858 68.8635 41.908 69.2412 41C69.8456 41.9458 72.3389 46.0694 71.0167 50.7605C70.6389 52.0846 70.0345 53.1438 69.4679 53.9761C71.4322 53.4465 74.1899 52.425 76.532 50.1173C79.1008 47.5826 79.4408 45.2749 80.4986 45.3884C82.5385 45.5776 83.294 53.9005 83.7096 58.478C83.974 61.5045 84.3895 63.6231 83.5962 66.1578C82.8785 68.5033 81.5185 70.2814 81.6696 70.3949C81.9341 70.5462 85.7495 64.2662 86.8072 64.758C87.4494 65.0607 86.3161 67.4819 85.9006 72.0595C85.4095 77.6585 86.5428 78.7178 85.5228 82.69C84.9184 84.9977 84.0495 86.6245 83.1051 88.4782C81.9341 90.6346 80.4986 93.3584 77.8542 95.7796C75.3988 98.0495 72.3766 100.811 68.6368 100.282C63.7636 99.5628 61.4971 93.7746 61.346 93.3584C61.7615 93.3584 65.5014 93.1693 67.3524 90.2941C69.6945 86.6245 67.3524 81.1768 64.6703 80.2688C62.7059 79.5879 61.1571 81.5929 59.306 80.6471C57.795 79.8905 57.6061 78.0368 57.0017 76.2966C56.2084 73.9888 54.4707 70.9245 50.2019 67.8224C47.5198 67.7089 43.5533 67.9358 39.4357 69.8652C35.8092 71.492 34.2603 73.4592 32.4849 72.7782Z" fill="#5B87E0"/>
<path d="M32.145 79.2461C30.1807 82.2726 28.5563 85.4882 27.4231 88.9309C27.1586 89.7253 26.7053 90.5576 27.272 91.2386C27.6875 91.7304 28.7075 91.8817 29.2741 92.1087C30.2185 92.4492 31.1629 92.8275 32.1073 93.168C32.7872 93.4328 33.0894 92.3357 32.4095 92.0709C31.7673 91.8439 31.1629 91.6169 30.5207 91.3521C30.1429 91.2008 28.8963 90.9359 28.6319 90.6333C27.8386 89.8388 28.9719 87.8716 29.3119 87.0393C30.3318 84.5046 31.6162 82.1213 33.1272 79.8136C33.5427 79.2083 32.5606 78.6408 32.145 79.2461Z" fill="#161616"/>
<path d="M31.8803 92.7537C33.958 100.017 36.5646 108.113 43.9688 111.556C44.611 111.858 45.2154 110.875 44.5354 110.572C37.4335 107.243 34.978 99.4498 32.9759 92.451C32.7492 91.7322 31.6537 92.0349 31.8803 92.7537Z" fill="#161616"/>
<path d="M44.1581 111.667C50.7689 113.143 58.1731 109.587 62.5929 104.858C63.084 104.328 62.2907 103.534 61.7996 104.063C57.6442 108.49 50.6556 111.97 44.4603 110.57C43.7425 110.381 43.4403 111.478 44.1581 111.667Z" fill="#161616"/>
<path d="M54.9996 109.628C55.4529 112.957 56.6617 115.946 58.7394 118.594C59.1928 119.161 59.9861 118.367 59.5327 117.8C57.6817 115.416 56.5484 112.617 56.1329 109.628C56.0573 108.909 54.924 108.909 54.9996 109.628Z" fill="#161616"/>
<path d="M66.2753 104.533C66.1443 108.283 67.1739 111.802 69.3068 114.894C69.7041 115.502 70.6106 114.753 70.1722 114.179C68.2056 111.33 67.2637 108.086 67.3658 104.637C67.3966 103.918 66.2685 103.81 66.2753 104.533Z" fill="#161616"/>
<path d="M60.2136 82.1216C61.3091 80.457 63.3869 80.2301 65.0112 81.2893C66.4845 82.2351 67.2023 84.051 67.3156 85.7156C67.5045 88.4016 65.7668 93.8493 61.9891 92.2226C61.3092 91.9199 60.7425 92.9035 61.4225 93.2062C66.3334 95.3247 68.94 88.8556 68.3734 84.959C68.0334 82.7269 66.749 80.5327 64.5202 79.7761C62.518 79.0573 60.4403 79.8139 59.2692 81.5541C58.8159 82.1594 59.7981 82.7269 60.2136 82.1216Z" fill="#161616"/>
<path d="M56.0195 111.138C58.2105 109.738 60.0993 108.036 61.7237 106.031C62.177 105.463 61.3837 104.669 60.9304 105.236C59.3816 107.166 57.5305 108.83 55.4528 110.192C54.8484 110.57 55.415 111.554 56.0195 111.138Z" fill="#161616"/>
<path d="M35.356 100.243C37.9626 100.47 40.5691 99.5239 42.3824 97.5945C43.5534 96.3083 44.0068 94.1519 41.6269 94.2275C41.0224 94.2654 40.8336 95.1733 41.4758 95.3246C42.3446 95.5516 43.0624 95.8921 43.7801 96.4974C44.3467 96.9514 45.1401 96.1569 44.5734 95.703C43.7046 94.9842 42.8735 94.5302 41.778 94.2654C41.7402 94.6437 41.6646 95.022 41.6269 95.3625C42.9112 95.3246 41.2113 97.1784 41.0602 97.3297C40.4558 97.8593 39.8136 98.2376 39.0959 98.5403C37.887 99.0699 36.6782 99.2213 35.356 99.1078C34.6383 99.0699 34.6383 100.205 35.356 100.243Z" fill="#161616"/>
<path d="M40.3433 83.1444C39.7011 82.0094 39.4744 80.761 39.7767 79.5126C39.5122 79.6261 39.21 79.7395 38.9456 79.853C39.9655 80.6475 39.7389 82.1229 39.5878 83.22C39.9278 83.1822 40.2678 83.1444 40.6078 83.0687C40.1544 82.4256 39.9278 81.7446 39.9278 80.9502C39.9278 80.2314 38.7945 80.2314 38.7945 80.9502C38.7945 81.9338 39.0589 82.8417 39.6255 83.6362C39.89 83.9767 40.57 84.0145 40.6455 83.4849C40.91 81.7824 40.9855 80.0044 39.4745 78.8316C39.1722 78.6046 38.7189 78.8316 38.6434 79.1721C38.2656 80.7232 38.4922 82.3121 39.3233 83.674C39.7389 84.355 40.7211 83.7875 40.3433 83.1444Z" fill="#161616"/>
<path d="M38.0763 75.124C39.9273 72.9298 42.6094 74.5944 43.5916 76.6751C43.8938 77.3183 44.876 76.7508 44.5738 76.1076C43.2894 73.3838 39.5873 71.6436 37.283 74.3296C36.7919 74.8971 37.5852 75.6915 38.0763 75.124Z" fill="#161616"/>
<path opacity="0.07" d="M56.2843 74.4795C56.4354 75.3496 56.6243 76.7115 56.9265 78.3005C57.7576 82.8024 58.4754 85.3749 58.7398 86.5855C59.722 91.2009 58.4376 98.3132 53.7533 102.966C48.578 108.074 41.5138 107.96 39.7383 107.884C40.5316 108.83 41.7782 110.041 43.5915 110.835C49.1068 113.257 54.6977 109.738 55.3021 109.322C55.2266 111.781 55.7555 112.613 56.2843 112.878C57.9087 113.597 61.5352 110.23 63.1218 106.598C64.8218 102.664 63.9529 98.8806 63.4996 97.3296C61.3841 94.4166 61.2708 93.3951 61.573 93.0546C62.0263 92.5628 63.2729 93.4708 64.6707 92.979C66.1439 92.4115 66.7484 90.6334 67.1261 89.5363C67.6172 88.0609 68.9394 84.0508 66.4839 81.7053C64.9351 80.2298 62.4041 79.965 60.0242 80.7973C59.5331 80.7216 58.8909 80.4947 58.3998 79.965C57.7576 79.2841 57.7576 78.4896 57.4176 77.1277C57.191 76.4467 56.8888 75.5388 56.2843 74.4795Z" fill="#353535"/>
<path opacity="0.1" d="M61.5725 100.054C61.2703 103.307 60.477 105.956 59.7592 107.885C61.0814 107.507 62.4414 107.09 63.7635 106.712C64.8968 109.701 65.9923 112.727 67.1256 115.716C67.9567 115.3 68.75 114.884 69.5811 114.43C68.6367 112.311 67.6923 109.701 66.9367 106.674C66.2945 104.102 65.9546 101.718 65.7657 99.6755C65.1235 99.0324 64.368 98.238 63.688 97.2165C62.5169 95.5141 61.837 93.9252 61.4214 92.6768C61.6481 94.6062 61.837 97.1408 61.5725 100.054Z" fill="#353535"/>
<path opacity="0.13" d="M82.9549 52.6143C82.4261 52.6143 82.7661 57.835 80.5373 64.1906C79.5928 66.8766 77.8552 71.6434 73.3976 75.6535C70.2244 78.4909 66.9378 79.8906 64.8601 80.5716C65.4268 80.9121 66.3334 81.5552 67.0134 82.6523C68.6755 85.3005 67.6178 88.2891 67.3156 89.1593C66.9 90.3699 66.3334 91.9588 64.7468 92.7911C63.2735 93.5477 61.7625 93.245 61.2336 93.0937C61.3469 93.4342 63.7269 99.7142 68.6755 100.244C70.7532 100.471 72.4531 99.5629 73.7375 98.8819C77.0996 97.1417 78.7996 94.5313 80.8773 91.3156C83.6349 87.0407 85.5615 84.0142 85.8259 79.7393C86.0148 76.3723 84.9949 75.5022 85.7126 72.2865C85.9393 71.2651 86.5437 69.2222 86.4303 66.3848C86.3926 65.7795 86.3548 65.2877 86.317 64.9472C84.7682 66.7253 83.2194 68.5412 81.6705 70.3193C82.1994 69.2978 82.8794 67.7089 83.3327 65.666C83.8238 63.434 83.7482 61.6938 83.6349 58.8186C83.5971 57.1918 83.446 52.6143 82.9549 52.6143Z" fill="#353535"/>
</svg>
