<svg width="18" height="11" viewBox="0 0 18 11" fill="none" xmlns="http://www.w3.org/2000/svg">
<path d="M11.6168 4.47122C10.9223 3.754 9.98047 3.35107 8.99838 3.35107C8.01629 3.35107 7.07443 3.754 6.37999 4.47122C5.68554 5.18844 5.29541 6.1612 5.29541 7.1755C5.29541 8.1898 5.68554 9.16256 6.37999 9.87978C7.07443 10.597 8.01629 10.9999 8.99838 10.9999C9.98047 10.9999 10.9223 10.597 11.6168 9.87978C12.3112 9.16256 12.7014 8.1898 12.7014 7.1755C12.7014 6.1612 12.3112 5.18844 11.6168 4.47122Z" fill="#1A1B1D"/>
<path d="M8.9985 0C13.2689 0 16.9562 3.01173 17.9791 7.23199C18.0239 7.41646 17.996 7.61177 17.9013 7.77493C17.8067 7.9381 17.6532 8.05577 17.4746 8.10204C17.296 8.14832 17.1069 8.11942 16.9489 8.0217C16.7909 7.92398 16.677 7.76544 16.6322 7.58097C16.2043 5.82442 15.2206 4.26576 13.8373 3.15232C12.4541 2.03888 10.7504 1.43443 8.99659 1.43486C7.24282 1.4353 5.53941 2.04061 4.15666 3.15475C2.7739 4.26888 1.79099 5.82803 1.3639 7.58479C1.31593 7.76543 1.20144 7.91951 1.0449 8.01409C0.888364 8.10867 0.702206 8.13624 0.526242 8.0909C0.350278 8.04556 0.198475 7.93091 0.103298 7.77147C0.00812089 7.61203 -0.0228743 7.42046 0.0169404 7.23772C0.518946 5.1701 1.67537 3.33495 3.30259 2.02367C4.92982 0.712383 6.93456 0.000128665 8.9985 0Z" fill="#807E8C"/>
</svg>
