<svg width="216" height="201" viewBox="0 0 216 201" fill="none" xmlns="http://www.w3.org/2000/svg">
<rect width="216" height="201" rx="24" fill="white"/>
<path d="M24.948 148.504H27.804C28.212 148.504 28.604 148.544 28.98 148.624C29.364 148.704 29.7 148.84 29.988 149.032C30.276 149.216 30.504 149.468 30.672 149.788C30.848 150.1 30.936 150.492 30.936 150.964C30.936 151.5 30.844 151.932 30.66 152.26C30.476 152.588 30.228 152.844 29.916 153.028C29.604 153.204 29.24 153.324 28.824 153.388C28.416 153.452 27.988 153.484 27.54 153.484H26.46V157H24.948V148.504ZM27.372 152.188C27.588 152.188 27.812 152.18 28.044 152.164C28.276 152.148 28.488 152.1 28.68 152.02C28.88 151.94 29.04 151.82 29.16 151.66C29.288 151.5 29.352 151.276 29.352 150.988C29.352 150.724 29.296 150.516 29.184 150.364C29.072 150.204 28.928 150.084 28.752 150.004C28.576 149.916 28.38 149.86 28.164 149.836C27.948 149.812 27.74 149.8 27.54 149.8H26.46V152.188H27.372ZM32.1519 151.24H33.5919V152.152H33.6159C33.7759 151.816 34.0039 151.556 34.2999 151.372C34.5959 151.188 34.9359 151.096 35.3199 151.096C35.4079 151.096 35.4919 151.104 35.5719 151.12C35.6599 151.136 35.7479 151.156 35.8359 151.18V152.572C35.7159 152.54 35.5959 152.516 35.4759 152.5C35.3639 152.476 35.2519 152.464 35.1399 152.464C34.8039 152.464 34.5319 152.528 34.3239 152.656C34.1239 152.776 33.9679 152.916 33.8559 153.076C33.7519 153.236 33.6799 153.396 33.6399 153.556C33.6079 153.716 33.5919 153.836 33.5919 153.916V157H32.1519V151.24ZM37.7571 154.624C37.8051 155.056 37.9731 155.392 38.2611 155.632C38.5491 155.872 38.8971 155.992 39.3051 155.992C39.6651 155.992 39.9651 155.92 40.2051 155.776C40.4531 155.624 40.6691 155.436 40.8531 155.212L41.8851 155.992C41.5491 156.408 41.1731 156.704 40.7571 156.88C40.3411 157.056 39.9051 157.144 39.4491 157.144C39.0171 157.144 38.6091 157.072 38.2251 156.928C37.8411 156.784 37.5091 156.58 37.2291 156.316C36.9491 156.052 36.7251 155.736 36.5571 155.368C36.3971 154.992 36.3171 154.576 36.3171 154.12C36.3171 153.664 36.3971 153.252 36.5571 152.884C36.7251 152.508 36.9491 152.188 37.2291 151.924C37.5091 151.66 37.8411 151.456 38.2251 151.312C38.6091 151.168 39.0171 151.096 39.4491 151.096C39.8491 151.096 40.2131 151.168 40.5411 151.312C40.8771 151.448 41.1611 151.648 41.3931 151.912C41.6331 152.176 41.8171 152.504 41.9451 152.896C42.0811 153.28 42.1491 153.724 42.1491 154.228V154.624H37.7571ZM40.7091 153.544C40.7011 153.12 40.5691 152.788 40.3131 152.548C40.0571 152.3 39.7011 152.176 39.2451 152.176C38.8131 152.176 38.4691 152.3 38.2131 152.548C37.9651 152.796 37.8131 153.128 37.7571 153.544H40.7091ZM43.4957 151.24H44.8637V152.104H44.8877C45.0957 151.752 45.3757 151.496 45.7277 151.336C46.0797 151.176 46.4597 151.096 46.8677 151.096C47.3077 151.096 47.7037 151.176 48.0557 151.336C48.4077 151.488 48.7077 151.7 48.9557 151.972C49.2037 152.244 49.3917 152.564 49.5197 152.932C49.6477 153.3 49.7117 153.696 49.7117 154.12C49.7117 154.544 49.6437 154.94 49.5077 155.308C49.3717 155.676 49.1797 155.996 48.9317 156.268C48.6917 156.54 48.3997 156.756 48.0557 156.916C47.7117 157.068 47.3357 157.144 46.9277 157.144C46.6557 157.144 46.4157 157.116 46.2077 157.06C45.9997 157.004 45.8157 156.932 45.6557 156.844C45.4957 156.756 45.3597 156.664 45.2477 156.568C45.1357 156.464 45.0437 156.364 44.9717 156.268H44.9357V159.736H43.4957V151.24ZM48.2717 154.12C48.2717 153.896 48.2317 153.68 48.1517 153.472C48.0797 153.264 47.9677 153.08 47.8157 152.92C47.6717 152.76 47.4957 152.632 47.2877 152.536C47.0797 152.44 46.8437 152.392 46.5797 152.392C46.3157 152.392 46.0797 152.44 45.8717 152.536C45.6637 152.632 45.4837 152.76 45.3317 152.92C45.1877 153.08 45.0757 153.264 44.9957 153.472C44.9237 153.68 44.8877 153.896 44.8877 154.12C44.8877 154.344 44.9237 154.56 44.9957 154.768C45.0757 154.976 45.1877 155.16 45.3317 155.32C45.4837 155.48 45.6637 155.608 45.8717 155.704C46.0797 155.8 46.3157 155.848 46.5797 155.848C46.8437 155.848 47.0797 155.8 47.2877 155.704C47.4957 155.608 47.6717 155.48 47.8157 155.32C47.9677 155.16 48.0797 154.976 48.1517 154.768C48.2317 154.56 48.2717 154.344 48.2717 154.12ZM54.6543 156.208H54.6183C54.4103 156.536 54.1463 156.776 53.8263 156.928C53.5063 157.072 53.1543 157.144 52.7703 157.144C52.5063 157.144 52.2463 157.108 51.9903 157.036C51.7423 156.964 51.5183 156.856 51.3183 156.712C51.1263 156.568 50.9703 156.388 50.8503 156.172C50.7303 155.956 50.6703 155.704 50.6703 155.416C50.6703 155.104 50.7263 154.84 50.8383 154.624C50.9503 154.4 51.0983 154.216 51.2823 154.072C51.4743 153.92 51.6943 153.8 51.9423 153.712C52.1903 153.624 52.4463 153.56 52.7103 153.52C52.9823 153.472 53.2543 153.444 53.5263 153.436C53.7983 153.42 54.0543 153.412 54.2943 153.412H54.6543V153.256C54.6543 152.896 54.5303 152.628 54.2823 152.452C54.0343 152.268 53.7183 152.176 53.3343 152.176C53.0303 152.176 52.7463 152.232 52.4823 152.344C52.2183 152.448 51.9903 152.592 51.7983 152.776L51.0423 152.02C51.3623 151.692 51.7343 151.456 52.1583 151.312C52.5903 151.168 53.0343 151.096 53.4903 151.096C53.8983 151.096 54.2423 151.144 54.5223 151.24C54.8023 151.328 55.0343 151.444 55.2183 151.588C55.4023 151.732 55.5423 151.9 55.6383 152.092C55.7423 152.276 55.8143 152.464 55.8543 152.656C55.9023 152.848 55.9303 153.036 55.9383 153.22C55.9463 153.396 55.9503 153.552 55.9503 153.688V157H54.6543V156.208ZM54.5703 154.42H54.2703C54.0703 154.42 53.8463 154.428 53.5983 154.444C53.3503 154.46 53.1143 154.5 52.8903 154.564C52.6743 154.62 52.4903 154.708 52.3383 154.828C52.1863 154.94 52.1103 155.1 52.1103 155.308C52.1103 155.444 52.1383 155.56 52.1943 155.656C52.2583 155.744 52.3383 155.82 52.4343 155.884C52.5303 155.948 52.6383 155.996 52.7583 156.028C52.8783 156.052 52.9983 156.064 53.1183 156.064C53.6143 156.064 53.9783 155.948 54.2103 155.716C54.4503 155.476 54.5703 155.152 54.5703 154.744V154.42ZM57.4996 151.24H58.9396V152.152H58.9636C59.1236 151.816 59.3516 151.556 59.6476 151.372C59.9436 151.188 60.2836 151.096 60.6676 151.096C60.7556 151.096 60.8396 151.104 60.9196 151.12C61.0076 151.136 61.0956 151.156 61.1836 151.18V152.572C61.0636 152.54 60.9436 152.516 60.8236 152.5C60.7116 152.476 60.5996 152.464 60.4876 152.464C60.1516 152.464 59.8796 152.528 59.6716 152.656C59.4716 152.776 59.3156 152.916 59.2036 153.076C59.0996 153.236 59.0276 153.396 58.9876 153.556C58.9556 153.716 58.9396 153.836 58.9396 153.916V157H57.4996V151.24ZM62.1877 151.24H63.6277V157H62.1877V151.24ZM61.9837 149.284C61.9837 149.052 62.0677 148.852 62.2357 148.684C62.4117 148.508 62.6317 148.42 62.8957 148.42C63.1597 148.42 63.3797 148.504 63.5557 148.672C63.7397 148.832 63.8317 149.036 63.8317 149.284C63.8317 149.532 63.7397 149.74 63.5557 149.908C63.3797 150.068 63.1597 150.148 62.8957 150.148C62.6317 150.148 62.4117 150.064 62.2357 149.896C62.0677 149.72 61.9837 149.516 61.9837 149.284ZM65.2808 151.24H66.6488V152.164H66.6728C66.8088 151.876 67.0168 151.628 67.2968 151.42C67.5768 151.204 67.9568 151.096 68.4368 151.096C68.8208 151.096 69.1448 151.16 69.4088 151.288C69.6808 151.416 69.9008 151.584 70.0688 151.792C70.2368 152 70.3568 152.24 70.4288 152.512C70.5008 152.784 70.5368 153.068 70.5368 153.364V157H69.0968V154.084C69.0968 153.924 69.0888 153.748 69.0728 153.556C69.0568 153.356 69.0128 153.172 68.9408 153.004C68.8768 152.828 68.7728 152.684 68.6288 152.572C68.4848 152.452 68.2888 152.392 68.0408 152.392C67.8008 152.392 67.5968 152.432 67.4288 152.512C67.2688 152.592 67.1328 152.7 67.0208 152.836C66.9168 152.972 66.8408 153.128 66.7928 153.304C66.7448 153.48 66.7208 153.664 66.7208 153.856V157H65.2808V151.24ZM78.0995 151.24V156.484C78.0995 157.004 78.0355 157.472 77.9075 157.888C77.7795 158.312 77.5795 158.668 77.3075 158.956C77.0435 159.252 76.7075 159.48 76.2995 159.64C75.8915 159.8 75.4075 159.88 74.8475 159.88C74.3115 159.88 73.8035 159.812 73.3235 159.676C72.8435 159.54 72.3995 159.292 71.9915 158.932L72.8555 157.756C73.1435 158.02 73.4435 158.224 73.7555 158.368C74.0675 158.512 74.4275 158.584 74.8355 158.584C75.1795 158.584 75.4675 158.536 75.6995 158.44C75.9395 158.344 76.1275 158.212 76.2635 158.044C76.4075 157.876 76.5075 157.672 76.5635 157.432C76.6275 157.2 76.6595 156.94 76.6595 156.652V156.232H76.6355C76.4275 156.512 76.1515 156.724 75.8075 156.868C75.4635 157.004 75.1115 157.072 74.7515 157.072C74.3195 157.072 73.9275 156.996 73.5755 156.844C73.2235 156.684 72.9195 156.472 72.6635 156.208C72.4155 155.944 72.2235 155.632 72.0875 155.272C71.9515 154.912 71.8835 154.528 71.8835 154.12C71.8835 153.696 71.9475 153.3 72.0755 152.932C72.2035 152.564 72.3915 152.244 72.6395 151.972C72.8875 151.7 73.1835 151.488 73.5275 151.336C73.8795 151.176 74.2795 151.096 74.7275 151.096C75.1355 151.096 75.5155 151.176 75.8675 151.336C76.2195 151.496 76.4995 151.752 76.7075 152.104H76.7315V151.24H78.0995ZM75.0275 152.392C74.7715 152.392 74.5395 152.436 74.3315 152.524C74.1235 152.604 73.9435 152.72 73.7915 152.872C73.6475 153.016 73.5315 153.196 73.4435 153.412C73.3635 153.62 73.3235 153.852 73.3235 154.108C73.3235 154.34 73.3635 154.556 73.4435 154.756C73.5315 154.956 73.6515 155.132 73.8035 155.284C73.9555 155.436 74.1355 155.556 74.3435 155.644C74.5515 155.732 74.7755 155.776 75.0155 155.776C75.2795 155.776 75.5155 155.732 75.7235 155.644C75.9395 155.556 76.1195 155.44 76.2635 155.296C76.4155 155.144 76.5315 154.964 76.6115 154.756C76.6915 154.548 76.7315 154.324 76.7315 154.084C76.7315 153.58 76.5795 153.172 76.2755 152.86C75.9715 152.548 75.5555 152.392 75.0275 152.392ZM31.2468 164.504H32.5548L36.2148 173H34.4868L33.6948 171.056H30.0108L29.2428 173H27.5508L31.2468 164.504ZM33.1668 169.76L31.8588 166.304L30.5268 169.76H33.1668ZM40.7097 164.504H44.0577C44.6177 164.504 45.1577 164.592 45.6777 164.768C46.1977 164.936 46.6577 165.196 47.0577 165.548C47.4577 165.9 47.7777 166.344 48.0177 166.88C48.2577 167.408 48.3777 168.032 48.3777 168.752C48.3777 169.48 48.2377 170.112 47.9577 170.648C47.6857 171.176 47.3297 171.616 46.8897 171.968C46.4577 172.312 45.9737 172.572 45.4377 172.748C44.9097 172.916 44.3897 173 43.8777 173H40.7097V164.504ZM43.3497 171.632C43.8217 171.632 44.2657 171.58 44.6817 171.476C45.1057 171.364 45.4737 171.196 45.7857 170.972C46.0977 170.74 46.3417 170.444 46.5177 170.084C46.7017 169.716 46.7937 169.272 46.7937 168.752C46.7937 168.24 46.7137 167.8 46.5537 167.432C46.3937 167.064 46.1697 166.768 45.8817 166.544C45.6017 166.312 45.2657 166.144 44.8737 166.04C44.4897 165.928 44.0657 165.872 43.6017 165.872H42.2217V171.632H43.3497ZM49.7072 167.24H51.1472V173H49.7072V167.24ZM49.5032 165.284C49.5032 165.052 49.5872 164.852 49.7552 164.684C49.9312 164.508 50.1512 164.42 50.4152 164.42C50.6792 164.42 50.8992 164.504 51.0752 164.672C51.2592 164.832 51.3512 165.036 51.3512 165.284C51.3512 165.532 51.2592 165.74 51.0752 165.908C50.8992 166.068 50.6792 166.148 50.4152 166.148C50.1512 166.148 49.9312 166.064 49.7552 165.896C49.5872 165.72 49.5032 165.516 49.5032 165.284ZM58.7284 167.24V172.484C58.7284 173.004 58.6644 173.472 58.5364 173.888C58.4084 174.312 58.2084 174.668 57.9364 174.956C57.6724 175.252 57.3364 175.48 56.9284 175.64C56.5204 175.8 56.0364 175.88 55.4764 175.88C54.9404 175.88 54.4324 175.812 53.9524 175.676C53.4724 175.54 53.0284 175.292 52.6204 174.932L53.4844 173.756C53.7724 174.02 54.0724 174.224 54.3844 174.368C54.6964 174.512 55.0564 174.584 55.4644 174.584C55.8084 174.584 56.0964 174.536 56.3284 174.44C56.5684 174.344 56.7564 174.212 56.8924 174.044C57.0364 173.876 57.1364 173.672 57.1924 173.432C57.2564 173.2 57.2884 172.94 57.2884 172.652V172.232H57.2644C57.0564 172.512 56.7804 172.724 56.4364 172.868C56.0924 173.004 55.7404 173.072 55.3804 173.072C54.9484 173.072 54.5564 172.996 54.2044 172.844C53.8524 172.684 53.5484 172.472 53.2924 172.208C53.0444 171.944 52.8524 171.632 52.7164 171.272C52.5804 170.912 52.5124 170.528 52.5124 170.12C52.5124 169.696 52.5764 169.3 52.7044 168.932C52.8324 168.564 53.0204 168.244 53.2684 167.972C53.5164 167.7 53.8124 167.488 54.1564 167.336C54.5084 167.176 54.9084 167.096 55.3564 167.096C55.7644 167.096 56.1444 167.176 56.4964 167.336C56.8484 167.496 57.1284 167.752 57.3364 168.104H57.3604V167.24H58.7284ZM55.6564 168.392C55.4004 168.392 55.1684 168.436 54.9604 168.524C54.7524 168.604 54.5724 168.72 54.4204 168.872C54.2764 169.016 54.1604 169.196 54.0724 169.412C53.9924 169.62 53.9524 169.852 53.9524 170.108C53.9524 170.34 53.9924 170.556 54.0724 170.756C54.1604 170.956 54.2804 171.132 54.4324 171.284C54.5844 171.436 54.7644 171.556 54.9724 171.644C55.1804 171.732 55.4044 171.776 55.6444 171.776C55.9084 171.776 56.1444 171.732 56.3524 171.644C56.5684 171.556 56.7484 171.44 56.8924 171.296C57.0444 171.144 57.1604 170.964 57.2404 170.756C57.3204 170.548 57.3604 170.324 57.3604 170.084C57.3604 169.58 57.2084 169.172 56.9044 168.86C56.6004 168.548 56.1844 168.392 55.6564 168.392ZM60.383 167.24H61.823V173H60.383V167.24ZM60.179 165.284C60.179 165.052 60.263 164.852 60.431 164.684C60.607 164.508 60.827 164.42 61.091 164.42C61.355 164.42 61.575 164.504 61.751 164.672C61.935 164.832 62.027 165.036 62.027 165.284C62.027 165.532 61.935 165.74 61.751 165.908C61.575 166.068 61.355 166.148 61.091 166.148C60.827 166.148 60.607 166.064 60.431 165.896C60.263 165.72 60.179 165.516 60.179 165.284ZM62.8042 168.464V167.24H63.9922V165.572H65.4322V167.24H67.0162V168.464H65.4322V170.984C65.4322 171.272 65.4842 171.5 65.5882 171.668C65.7002 171.836 65.9162 171.92 66.2362 171.92C66.3642 171.92 66.5042 171.908 66.6562 171.884C66.8082 171.852 66.9282 171.804 67.0162 171.74V172.952C66.8642 173.024 66.6762 173.072 66.4522 173.096C66.2362 173.128 66.0442 173.144 65.8762 173.144C65.4922 173.144 65.1762 173.1 64.9282 173.012C64.6882 172.932 64.4962 172.808 64.3522 172.64C64.2162 172.464 64.1202 172.248 64.0642 171.992C64.0162 171.736 63.9922 171.44 63.9922 171.104V168.464H62.8042ZM71.7402 172.208H71.7042C71.4962 172.536 71.2322 172.776 70.9122 172.928C70.5922 173.072 70.2402 173.144 69.8562 173.144C69.5922 173.144 69.3322 173.108 69.0762 173.036C68.8282 172.964 68.6042 172.856 68.4042 172.712C68.2122 172.568 68.0562 172.388 67.9362 172.172C67.8162 171.956 67.7562 171.704 67.7562 171.416C67.7562 171.104 67.8122 170.84 67.9242 170.624C68.0362 170.4 68.1842 170.216 68.3682 170.072C68.5602 169.92 68.7802 169.8 69.0282 169.712C69.2762 169.624 69.5322 169.56 69.7962 169.52C70.0682 169.472 70.3402 169.444 70.6122 169.436C70.8842 169.42 71.1402 169.412 71.3802 169.412H71.7402V169.256C71.7402 168.896 71.6162 168.628 71.3682 168.452C71.1202 168.268 70.8042 168.176 70.4202 168.176C70.1162 168.176 69.8322 168.232 69.5682 168.344C69.3042 168.448 69.0762 168.592 68.8842 168.776L68.1282 168.02C68.4482 167.692 68.8202 167.456 69.2442 167.312C69.6762 167.168 70.1202 167.096 70.5762 167.096C70.9842 167.096 71.3282 167.144 71.6082 167.24C71.8882 167.328 72.1202 167.444 72.3042 167.588C72.4882 167.732 72.6282 167.9 72.7242 168.092C72.8282 168.276 72.9002 168.464 72.9402 168.656C72.9882 168.848 73.0162 169.036 73.0242 169.22C73.0322 169.396 73.0362 169.552 73.0362 169.688V173H71.7402V172.208ZM71.6562 170.42H71.3562C71.1562 170.42 70.9322 170.428 70.6842 170.444C70.4362 170.46 70.2002 170.5 69.9762 170.564C69.7602 170.62 69.5762 170.708 69.4242 170.828C69.2722 170.94 69.1962 171.1 69.1962 171.308C69.1962 171.444 69.2242 171.56 69.2802 171.656C69.3442 171.744 69.4242 171.82 69.5202 171.884C69.6162 171.948 69.7242 171.996 69.8442 172.028C69.9642 172.052 70.0842 172.064 70.2042 172.064C70.7002 172.064 71.0642 171.948 71.2962 171.716C71.5362 171.476 71.6562 171.152 71.6562 170.744V170.42ZM74.6095 163.928H76.0495V173H74.6095V163.928ZM81.3855 164.504H84.7335C85.2935 164.504 85.8335 164.592 86.3535 164.768C86.8735 164.936 87.3335 165.196 87.7335 165.548C88.1335 165.9 88.4535 166.344 88.6935 166.88C88.9335 167.408 89.0535 168.032 89.0535 168.752C89.0535 169.48 88.9135 170.112 88.6335 170.648C88.3615 171.176 88.0055 171.616 87.5655 171.968C87.1335 172.312 86.6495 172.572 86.1135 172.748C85.5855 172.916 85.0655 173 84.5535 173H81.3855V164.504ZM84.0255 171.632C84.4975 171.632 84.9415 171.58 85.3575 171.476C85.7815 171.364 86.1495 171.196 86.4615 170.972C86.7735 170.74 87.0175 170.444 87.1935 170.084C87.3775 169.716 87.4695 169.272 87.4695 168.752C87.4695 168.24 87.3895 167.8 87.2295 167.432C87.0695 167.064 86.8455 166.768 86.5575 166.544C86.2775 166.312 85.9415 166.144 85.5495 166.04C85.1655 165.928 84.7415 165.872 84.2775 165.872H82.8975V171.632H84.0255ZM90.359 167.24H91.799V168.152H91.823C91.983 167.816 92.211 167.556 92.507 167.372C92.803 167.188 93.143 167.096 93.527 167.096C93.615 167.096 93.699 167.104 93.779 167.12C93.867 167.136 93.955 167.156 94.043 167.18V168.572C93.923 168.54 93.803 168.516 93.683 168.5C93.571 168.476 93.459 168.464 93.347 168.464C93.011 168.464 92.739 168.528 92.531 168.656C92.331 168.776 92.175 168.916 92.063 169.076C91.959 169.236 91.887 169.396 91.847 169.556C91.815 169.716 91.799 169.836 91.799 169.916V173H90.359V167.24ZM98.623 172.208H98.587C98.379 172.536 98.115 172.776 97.795 172.928C97.475 173.072 97.123 173.144 96.739 173.144C96.475 173.144 96.215 173.108 95.959 173.036C95.711 172.964 95.487 172.856 95.287 172.712C95.095 172.568 94.939 172.388 94.819 172.172C94.699 171.956 94.639 171.704 94.639 171.416C94.639 171.104 94.695 170.84 94.807 170.624C94.919 170.4 95.067 170.216 95.251 170.072C95.443 169.92 95.663 169.8 95.911 169.712C96.159 169.624 96.415 169.56 96.679 169.52C96.951 169.472 97.223 169.444 97.495 169.436C97.767 169.42 98.023 169.412 98.263 169.412H98.623V169.256C98.623 168.896 98.499 168.628 98.251 168.452C98.003 168.268 97.687 168.176 97.303 168.176C96.999 168.176 96.715 168.232 96.451 168.344C96.187 168.448 95.959 168.592 95.767 168.776L95.011 168.02C95.331 167.692 95.703 167.456 96.127 167.312C96.559 167.168 97.003 167.096 97.459 167.096C97.867 167.096 98.211 167.144 98.491 167.24C98.771 167.328 99.003 167.444 99.187 167.588C99.371 167.732 99.511 167.9 99.607 168.092C99.711 168.276 99.783 168.464 99.823 168.656C99.871 168.848 99.899 169.036 99.907 169.22C99.915 169.396 99.919 169.552 99.919 169.688V173H98.623V172.208ZM98.539 170.42H98.239C98.039 170.42 97.815 170.428 97.567 170.444C97.319 170.46 97.083 170.5 96.859 170.564C96.643 170.62 96.459 170.708 96.307 170.828C96.155 170.94 96.079 171.1 96.079 171.308C96.079 171.444 96.107 171.56 96.163 171.656C96.227 171.744 96.307 171.82 96.403 171.884C96.499 171.948 96.607 171.996 96.727 172.028C96.847 172.052 96.967 172.064 97.087 172.064C97.583 172.064 97.947 171.948 98.179 171.716C98.419 171.476 98.539 171.152 98.539 170.744V170.42ZM101.984 168.464H100.796V167.24H101.984V166.424C101.984 166.024 102.012 165.664 102.068 165.344C102.124 165.016 102.228 164.736 102.38 164.504C102.54 164.272 102.76 164.096 103.04 163.976C103.32 163.848 103.684 163.784 104.132 163.784C104.46 163.784 104.764 163.812 105.044 163.868L104.948 165.092C104.844 165.068 104.744 165.048 104.648 165.032C104.552 165.016 104.452 165.008 104.348 165.008C104.148 165.008 103.988 165.04 103.868 165.104C103.748 165.168 103.652 165.256 103.58 165.368C103.516 165.472 103.472 165.596 103.448 165.74C103.432 165.884 103.424 166.036 103.424 166.196V167.24H104.756V168.464H103.424V173H101.984V168.464ZM105.015 168.464V167.24H106.203V165.572H107.643V167.24H109.227V168.464H107.643V170.984C107.643 171.272 107.695 171.5 107.799 171.668C107.911 171.836 108.127 171.92 108.447 171.92C108.575 171.92 108.715 171.908 108.867 171.884C109.019 171.852 109.139 171.804 109.227 171.74V172.952C109.075 173.024 108.887 173.072 108.663 173.096C108.447 173.128 108.255 173.144 108.087 173.144C107.703 173.144 107.387 173.1 107.139 173.012C106.899 172.932 106.707 172.808 106.563 172.64C106.427 172.464 106.331 172.248 106.275 171.992C106.227 171.736 106.203 171.44 106.203 171.104V168.464H105.015Z" fill="#1A1B1D"/>
<path d="M142.556 188.63C143.996 186.83 145.075 184.798 145.986 182.702C146.43 181.665 146.854 180.585 147.256 179.527C147.446 179.018 147.658 178.532 147.806 178.023C147.976 177.494 148.039 177.219 147.785 176.711C147.785 176.351 147.637 176.203 147.362 176.245C147.129 176.182 146.981 176.288 146.896 176.563C146.684 176.542 146.473 176.499 146.282 176.478C147.552 172.646 148.378 168.687 148.738 164.686C148.907 162.739 148.971 160.77 148.928 158.801C148.907 157.891 148.865 156.98 148.78 156.049C148.759 155.689 148.801 154.673 148.59 154.377C148.357 154.313 148.145 154.25 147.912 154.207C147.531 153.89 147.235 153.89 147.044 154.228C146.811 154.419 146.663 154.758 146.515 155.012C142.641 161.447 140.058 168.709 138.809 176.097C138.089 180.352 137.814 184.65 138.005 188.968C138.026 189.371 137.391 189.371 137.37 188.968C137.031 180.395 138.449 171.778 141.561 163.776C142.344 161.786 143.212 159.838 144.186 157.933C144.631 157.044 145.118 156.176 145.605 155.329C146.007 154.631 146.409 153.784 147.087 153.318C148.399 152.429 149.161 153.699 149.309 154.863C149.585 157.065 149.627 159.309 149.564 161.532C149.415 166.676 148.526 171.757 146.917 176.626C146.811 176.965 146.282 176.923 146.303 176.542C146.303 175.695 147.256 175.335 147.976 175.695C149.246 176.309 148.526 178.066 148.187 178.997C146.875 182.554 145.457 186.068 143.064 189.053C142.747 189.413 142.302 188.947 142.556 188.63Z" fill="#DEDEE0"/>
<path d="M138.83 172.796C138.661 169.98 138.301 167.185 137.687 164.412C137.39 163.121 137.073 161.829 136.67 160.559C136.48 159.924 136.268 159.289 136.057 158.675C135.951 158.358 135.845 158.04 135.718 157.744C135.675 157.617 135.633 157.49 135.57 157.363C135.485 156.918 135.189 156.664 134.702 156.579C134.744 156.939 134.172 157.003 134.088 156.664C133.664 155.267 130.235 146.269 128.139 147.815C127.525 148.259 127.356 149.297 127.25 149.995C127.08 150.969 126.932 151.964 126.826 152.938C126.636 154.61 126.509 156.283 126.467 157.976C126.276 164.857 127.313 171.779 129.515 178.321C130.785 182.068 132.436 185.646 134.426 189.054C134.638 189.414 134.088 189.732 133.876 189.372C129.875 182.555 127.313 174.976 126.297 167.164C125.789 163.227 125.662 159.247 125.958 155.288C126.107 153.404 126.318 151.52 126.657 149.657C126.848 148.641 127.313 147.137 128.52 146.947C130.108 146.693 131.336 149.318 131.971 150.376C133.135 152.303 134.024 154.356 134.68 156.495C134.469 156.516 134.257 156.558 134.067 156.579C133.94 155.563 135.21 155.5 135.718 156.156C136.099 156.643 136.268 157.363 136.459 157.934C136.819 158.929 137.136 159.945 137.433 160.961C138.555 164.814 139.211 168.773 139.444 172.774C139.486 173.198 138.851 173.198 138.83 172.796Z" fill="#DEDEE0"/>
<path d="M148.78 154.144C144.164 164.919 141.264 176.372 140.206 188.037C140.163 188.439 139.528 188.439 139.571 188.037C140.65 176.245 143.572 164.708 148.229 153.805C148.398 153.445 148.949 153.784 148.78 154.144Z" fill="#DEDEE0"/>
<path d="M148.907 168.096C146.706 169.197 144.673 170.573 142.832 172.182C142.535 172.457 142.069 172.013 142.387 171.737C144.292 170.086 146.346 168.689 148.611 167.546C148.95 167.376 149.288 167.927 148.907 168.096Z" fill="#DEDEE0"/>
<path d="M143.021 161.892C143.614 163.056 144.059 164.284 144.334 165.575C144.418 165.978 143.805 166.147 143.72 165.745C143.445 164.517 143.042 163.331 142.471 162.209C142.28 161.849 142.831 161.532 143.021 161.892Z" fill="#DEDEE0"/>
<path d="M129.177 148.301C130.553 160.6 132.056 173.303 138.047 184.353C138.238 184.713 137.688 185.031 137.497 184.671C131.442 173.514 129.939 160.728 128.542 148.301C128.5 147.898 129.135 147.898 129.177 148.301Z" fill="#DEDEE0"/>
<path d="M137.094 160.347C135.401 164.327 134.152 168.455 133.326 172.689C133.241 173.091 132.627 172.922 132.712 172.52C133.559 168.222 134.85 164.052 136.544 160.029C136.713 159.648 137.242 159.966 137.094 160.347Z" fill="#DEDEE0"/>
<path d="M130.722 163.544C129.134 161.532 127.546 159.521 125.958 157.531C125.704 157.214 126.149 156.769 126.403 157.087C127.991 159.098 129.579 161.109 131.166 163.099C131.42 163.395 130.976 163.861 130.722 163.544Z" fill="#DEDEE0"/>
<path d="M185.898 167.293C187.274 165.811 188.672 164.287 189.794 162.593C190.323 161.768 190.81 160.921 191.191 160.011C191.402 159.503 192.397 156.793 191.021 157.343C190.683 157.47 190.535 157.026 190.704 156.814C192.101 155.036 193.033 152.961 193.837 150.865C194.599 148.875 195.34 146.864 196.039 144.853C196.801 142.651 197.457 140.386 197.711 138.079C197.902 136.258 198.092 133.76 196.78 132.257C194.853 130.076 192.906 133.675 191.995 135.03C190.767 136.851 189.561 138.714 188.396 140.577C186.089 144.366 183.993 148.304 182.448 152.495C180.69 157.28 179.717 162.339 179.949 167.441C179.971 167.844 179.336 167.844 179.314 167.441C178.849 157.11 183.273 147.478 188.672 138.925C190.005 136.83 191.339 134.713 192.8 132.701C193.625 131.579 194.938 130.415 196.42 131.156C197.775 131.812 198.283 133.569 198.41 134.945C198.643 137.443 198.156 139.984 197.478 142.376C196.716 145.086 195.679 147.711 194.705 150.336C193.795 152.792 192.779 155.184 191.148 157.259C191.043 157.089 190.937 156.899 190.831 156.729C191.381 156.518 191.868 156.581 192.334 156.92C192.419 156.983 192.503 157.089 192.482 157.195C192.016 161.471 189.116 164.753 186.322 167.759C186.068 168.055 185.623 167.611 185.898 167.293Z" fill="#DEDEE0"/>
<path d="M184.162 147.16C184.819 141.233 184.035 135.284 181.876 129.716C182.045 129.758 182.236 129.801 182.405 129.864C181.749 130.457 181.304 131.134 181.05 131.981C180.966 132.278 180.521 132.299 180.436 131.981C178.997 126.985 176.901 122.222 174.149 117.797C174.339 117.776 174.53 117.755 174.72 117.713C173.069 121.925 172.032 126.371 171.693 130.902C171.397 134.966 171.291 139.645 173.768 143.096C173.895 143.265 173.768 143.519 173.577 143.561C171.672 144.006 172.244 147.012 172.413 148.367C172.667 150.611 173.048 152.855 173.535 155.057C174.466 159.312 175.821 163.482 177.536 167.483C177.705 167.864 177.155 168.182 176.986 167.801C174.974 163.144 173.471 158.274 172.519 153.299C172.095 151.013 171.608 148.6 171.566 146.271C171.545 144.937 171.884 143.265 173.387 142.926C173.323 143.074 173.26 143.244 173.196 143.392C170.719 139.941 170.762 135.326 171.016 131.261C171.312 126.541 172.371 121.904 174.085 117.522C174.191 117.268 174.509 117.205 174.657 117.437C177.43 121.904 179.547 126.71 181.008 131.77C180.796 131.77 180.606 131.77 180.394 131.77C180.69 130.817 181.177 130.055 181.918 129.377C182.109 129.208 182.363 129.293 182.447 129.526C184.628 135.136 185.411 141.169 184.755 147.139C184.755 147.562 184.12 147.562 184.162 147.16Z" fill="#DEDEE0"/>
<path d="M196.547 132.15C193.604 137.972 190.598 143.772 187.782 149.658C185.03 155.458 182.596 161.449 181.283 167.758C181.199 168.16 180.585 167.991 180.669 167.589C181.982 161.343 184.353 155.437 187.084 149.679C189.921 143.666 193.011 137.76 196.018 131.811C196.187 131.473 196.737 131.79 196.547 132.15Z" fill="#DEDEE0"/>
<path d="M174.593 118.602C175.037 124.889 176.985 130.902 178.425 136.999C179.864 143.095 180.859 149.298 181.41 155.543C181.452 155.946 180.817 155.946 180.774 155.543C180.203 149.087 179.144 142.672 177.62 136.385C176.181 130.499 174.402 124.678 173.958 118.602C173.937 118.178 174.572 118.178 174.593 118.602Z" fill="#DEDEE0"/>
<path d="M196.885 144.281C193.689 145.361 190.767 147.012 188.163 149.172C187.846 149.426 187.401 148.981 187.719 148.727C190.407 146.504 193.413 144.811 196.716 143.667C197.118 143.519 197.287 144.133 196.885 144.281Z" fill="#E8E8E8"/>
<path d="M182.596 130.225C181.876 134.056 180.818 137.825 179.441 141.466C179.293 141.847 178.679 141.678 178.828 141.297C180.204 137.634 181.241 133.887 181.982 130.055C182.067 129.653 182.659 129.822 182.596 130.225Z" fill="#E8E8E8"/>
<path d="M180.31 156.941C178.023 153.935 175.674 150.908 172.329 149.024C171.969 148.833 172.286 148.283 172.646 148.473C176.076 150.421 178.51 153.533 180.86 156.624C181.093 156.941 180.543 157.259 180.31 156.941Z" fill="#E8E8E8"/>
<path d="M153.529 167.018C167.501 167.018 181.473 167.018 195.446 167.018C196.271 167.018 196.271 168.288 195.446 168.288C181.473 168.288 167.501 168.288 153.529 168.288C152.725 168.288 152.725 167.018 153.529 167.018Z" fill="black"/>
<path d="M54.7706 93.6632C85.9123 93.0425 117.054 92.4219 148.196 91.8012C153.771 91.6941 157.667 86.247 155.976 80.939L136.745 20.432C135.654 16.9967 132.464 14.6424 128.858 14.621C100.038 14.4176 71.219 14.2036 42.3995 14.0003C37.1343 13.9575 33.1426 18.7625 34.1592 23.9314L46.434 86.9212C47.1938 90.9022 50.7146 93.7488 54.7706 93.6632Z" fill="url(#paint0_linear_1_546)" stroke="black" stroke-width="6" stroke-miterlimit="10"/>
<path d="M55.3697 93.139C86.5114 92.5504 117.653 91.9725 148.795 91.3839C154.371 91.2769 158.266 86.1402 156.575 81.1318L137.344 24.0172C136.253 20.7746 133.064 18.5593 129.457 18.5272C100.638 18.3346 71.8181 18.1313 42.9986 17.9386C37.7334 17.9065 33.7417 22.4333 34.7583 27.3133L47.0331 86.7822C47.7929 90.5278 51.3138 93.2139 55.3697 93.139Z" fill="white" stroke="black" stroke-width="6" stroke-miterlimit="10"/>
<path d="M47.3866 88.3777C48.4139 90.6357 50.3937 92.3373 52.7802 93.0008C52.9835 93.0543 52.8979 93.3646 52.6946 93.3111C50.2332 92.6262 48.1678 90.8604 47.1083 88.5382C47.0334 88.3563 47.301 88.185 47.3866 88.3777Z" fill="black"/>
<path d="M128.033 16.9869C128.354 16.9548 128.472 16.6123 128.386 16.3341C128.269 15.9809 127.926 15.906 127.605 16.0665C127.38 16.1843 127.263 16.4625 127.359 16.7086C127.466 16.9762 127.776 17.0618 128.033 16.9655C128.226 16.8906 128.311 17.2009 128.119 17.2758C127.701 17.4363 127.188 17.2223 127.038 16.7835C126.888 16.3127 127.188 15.8525 127.637 15.7134C128.14 15.5636 128.579 15.799 128.707 16.3234C128.814 16.8049 128.515 17.2544 128.033 17.3079C127.83 17.3293 127.83 17.0083 128.033 16.9869Z" fill="black"/>
<path d="M128.408 16.7289C128.28 17.0607 127.809 17.1677 127.531 16.9644C127.349 16.8253 127.263 16.5577 127.349 16.3223C127.445 16.0654 127.723 15.9156 127.969 15.9584C128.312 16.0226 128.537 16.4186 128.408 16.7289Z" fill="white"/>
<path d="M124.416 16.8902C124.737 16.8581 124.855 16.5156 124.769 16.2374C124.651 15.8842 124.309 15.8093 123.988 15.9699C123.763 16.0876 123.645 16.3658 123.742 16.6119C123.849 16.8795 124.159 16.9651 124.416 16.8688C124.609 16.7939 124.694 17.1042 124.502 17.1791C124.084 17.3397 123.571 17.1256 123.421 16.6869C123.271 16.216 123.571 15.7558 124.02 15.6167C124.523 15.4669 124.962 15.7023 125.09 16.2267C125.197 16.7083 124.898 17.1577 124.416 17.2112C124.213 17.2326 124.213 16.9116 124.416 16.8902Z" fill="black"/>
<path d="M124.791 16.6332C124.663 16.965 124.192 17.072 123.914 16.8687C123.732 16.7296 123.646 16.462 123.732 16.2266C123.828 15.9697 124.106 15.8199 124.352 15.8627C124.695 15.9269 124.919 16.3229 124.791 16.6332Z" stroke="black" stroke-miterlimit="10"/>
<path d="M128.248 16.0667C128.098 16.3985 127.926 16.7195 127.723 17.0299C127.616 17.2011 127.338 17.0406 127.445 16.8693C127.638 16.559 127.809 16.238 127.969 15.9062C128.055 15.7243 128.333 15.8848 128.248 16.0667Z" fill="black"/>
<path d="M128.216 17.0278C128.066 16.8994 127.927 16.7603 127.777 16.6319C127.648 16.5142 127.52 16.375 127.359 16.2894C127.178 16.1931 127.338 15.9149 127.52 16.0112C127.681 16.0968 127.809 16.2359 127.948 16.3643C128.109 16.5142 128.28 16.664 128.44 16.8138C128.59 16.9422 128.365 17.167 128.216 17.0278Z" fill="black"/>
<path d="M84.4464 42.584C86.1694 47.7422 87.8924 52.9004 89.6153 58.0586C89.6795 58.2512 89.3692 58.3368 89.305 58.1442C87.582 52.986 85.8591 47.8278 84.1361 42.6697C84.0719 42.4663 84.3822 42.3807 84.4464 42.584Z" fill="#E8E8E8"/>
<path d="M84.2424 42.6166C79.7691 42.3812 75.2744 42.0173 70.7904 42.0173C66.3279 42.0173 61.876 42.4026 57.4348 42.7879C57.2315 42.8093 57.2315 42.4882 57.4348 42.4668C61.876 42.0816 66.3279 41.707 70.7904 41.6963C75.2744 41.6963 79.7691 42.0601 84.2424 42.2956C84.4457 42.3063 84.4564 42.6273 84.2424 42.6166Z" fill="#E8E8E8"/>
<path d="M57.4886 42.7766C58.6872 47.8919 59.8965 52.9966 61.0951 58.112C61.1379 58.3153 60.8275 58.4009 60.7847 58.1976C59.5861 53.0822 58.3768 47.9775 57.1783 42.8622C57.1354 42.6695 57.4458 42.5839 57.4886 42.7766Z" fill="#E8E8E8"/>
<path d="M89.4221 58.6144C82.0808 58.2185 74.7287 58.1222 67.3767 58.3469C65.2792 58.4111 63.1924 58.4967 61.0949 58.6144C60.8915 58.6251 60.8915 58.3041 61.0949 58.2934C68.4362 57.8867 75.7882 57.8011 83.1402 58.0258C85.2377 58.0901 87.3246 58.1757 89.4221 58.2934C89.6254 58.3041 89.6361 58.6251 89.4221 58.6144Z" fill="#E8E8E8"/>
<path d="M75.1685 58.0705C70.5882 55.684 65.3551 55.3309 60.2933 55.0205C60.0899 55.0098 60.0899 54.6888 60.2933 54.6995C65.4087 55.0205 70.6953 55.3844 75.3291 57.7923C75.5217 57.8886 75.3612 58.1668 75.1685 58.0705Z" fill="#E8E8E8"/>
<path d="M67.8592 47.8825C67.3563 50.3332 67.0994 52.8267 67.0887 55.3309C67.0887 55.5342 66.7677 55.5342 66.7677 55.3309C66.7891 52.7946 67.0459 50.2797 67.5489 47.7969C67.5917 47.5936 67.902 47.6792 67.8592 47.8825Z" fill="#E8E8E8"/>
<path d="M67.9759 47.8288C68.6287 48.7812 69.2708 49.7444 69.9236 50.6968C69.8273 50.7289 69.7203 50.7503 69.624 50.7824C69.6775 49.8193 69.4313 48.9203 68.8855 48.1284C68.7678 47.9572 69.0461 47.7967 69.1638 47.9679C69.7417 48.8026 70.0092 49.7765 69.9557 50.7824C69.945 50.9429 69.7524 50.9965 69.6561 50.868C69.0033 49.9156 68.3612 48.9524 67.7084 48C67.5799 47.8181 67.8582 47.6575 67.9759 47.8288Z" fill="#E8E8E8"/>
<path d="M69.0565 47.7418C69.4204 47.5813 69.7843 47.5064 70.1802 47.5278C70.4157 47.5385 71.3681 47.8274 71.229 47.4743C71.1755 47.3351 70.8758 47.1532 70.7581 47.0569C70.5334 46.875 70.2979 46.7037 70.0518 46.5646C69.506 46.2543 68.896 46.1044 68.2753 46.2008C68.072 46.2329 67.9864 45.9225 68.1897 45.8904C69.4311 45.6978 70.726 46.372 71.5286 47.303C71.7427 47.5492 71.7105 47.8916 71.3574 47.9986C71.1648 48.0522 70.9507 47.9772 70.7688 47.9344C70.2444 47.8167 69.7307 47.7739 69.2171 47.9986C69.0351 48.1057 68.8746 47.8274 69.0565 47.7418Z" fill="#E8E8E8"/>
<path d="M67.9876 45.8703C67.581 44.9071 66.7784 44.2008 65.7831 43.9012C65.8366 43.8156 65.8901 43.7192 65.9436 43.6336C66.3075 44.1045 66.5215 44.6182 66.5964 45.2068C66.6178 45.4101 66.2968 45.4101 66.2754 45.2068C66.2112 44.7038 66.0186 44.2543 65.7189 43.8584C65.6333 43.7406 65.7082 43.5373 65.8794 43.5908C66.9924 43.9226 67.8592 44.7145 68.3087 45.7847C68.3729 45.9773 68.0626 46.0629 67.9876 45.8703Z" fill="#E8E8E8"/>
<path d="M66.36 45.3989C65.5253 44.9173 64.5407 44.9066 63.6953 45.3668C63.6953 45.2705 63.6953 45.1849 63.6953 45.0885C64.3695 45.4096 65.0116 45.7948 65.6216 46.2229C65.7928 46.3406 65.6323 46.6189 65.4611 46.5012C64.8511 46.0731 64.209 45.6878 63.5348 45.3668C63.4278 45.3133 63.4385 45.1421 63.5348 45.0885C64.4872 44.5642 65.5895 44.5749 66.5206 45.1206C66.7025 45.2277 66.542 45.5059 66.36 45.3989Z" fill="#E8E8E8"/>
<path d="M65.74 46.5228C65.0444 46.9081 64.3702 47.5394 64.5628 48.417C64.4665 48.4063 64.3702 48.3956 64.2739 48.3742C64.7234 47.6572 65.4939 47.2505 66.3393 47.2826C66.5427 47.2933 66.5427 47.6144 66.3393 47.6037C65.6009 47.5716 64.9374 47.914 64.5521 48.5347C64.4879 48.6417 64.2846 48.6417 64.2632 48.4919C64.0492 47.4752 64.7555 46.694 65.5902 46.2339C65.7614 46.1482 65.9219 46.4265 65.74 46.5228Z" fill="#E8E8E8"/>
<path d="M66.6166 47.5495C66.1243 50.1179 65.9424 52.7184 66.0815 55.3296C66.0922 55.5329 65.7712 55.5329 65.7604 55.3296C65.6213 52.697 65.8033 50.0537 66.3062 47.4639C66.349 47.2606 66.6594 47.3462 66.6166 47.5495Z" fill="#E8E8E8"/>
<path d="M66.9696 52.5907C66.6164 52.6335 66.2847 52.5693 65.9636 52.4301C65.771 52.3445 65.9422 52.0663 66.1241 52.1519C66.3917 52.2803 66.6806 52.3124 66.9696 52.2696C67.1729 52.2375 67.1729 52.5586 66.9696 52.5907Z" fill="#E8E8E8"/>
<path d="M88.0309 54.2381C86.2759 54.3451 84.4994 54.3772 82.755 54.5805C81.8989 54.6768 81.0749 54.9337 80.2295 55.0621C79.4054 55.1798 78.6028 55.0621 77.7788 54.9123C74.1723 54.2809 70.5445 54.6233 66.938 55.0086C66.7347 55.03 66.7347 54.709 66.938 54.6876C70.4268 54.313 73.969 53.9491 77.4577 54.527C78.4423 54.6876 79.3733 54.8802 80.3686 54.7089C81.1712 54.5698 81.9417 54.3558 82.7443 54.2595C84.4887 54.0562 86.2652 54.0241 88.0202 53.917C88.2343 53.8956 88.2343 54.2167 88.0309 54.2381Z" fill="#E8E8E8"/>
<path d="M67.3446 50.3758C67.3018 50.5577 67.1199 50.6005 66.9486 50.5684C66.6169 50.5149 66.2744 50.3972 65.9534 50.3009C65.75 50.2474 65.8357 49.937 66.039 49.9905C66.2316 50.0441 66.4243 50.0976 66.6169 50.1404C66.7025 50.1618 66.7988 50.1832 66.8844 50.2153C66.9272 50.226 66.97 50.2367 67.0128 50.2474C67.0878 50.2367 67.0878 50.2474 67.0343 50.2795C67.0771 50.0869 67.3874 50.1725 67.3446 50.3758Z" fill="#E8E8E8"/>
<path d="M80.9031 46.2873C81.9626 45.9449 80.582 44.1256 79.8436 44.9389C79.5761 45.2279 79.5868 45.7308 79.8329 46.0305C80.1112 46.3729 80.5927 46.4264 80.9673 46.2124C81.1492 46.1054 81.3097 46.3836 81.1278 46.4907C80.582 46.801 79.8436 46.6833 79.5012 46.1375C79.1908 45.6345 79.2764 44.8533 79.8222 44.543C81.0101 43.8794 82.4334 46.1375 80.978 46.6084C80.7854 46.6619 80.6998 46.3515 80.9031 46.2873Z" fill="#E8E8E8"/>
<path d="M56.162 43.7077C52.7053 43.8897 49.2808 44.2963 45.8777 44.9384C45.6743 44.9812 45.5887 44.6709 45.7921 44.6281C49.2166 43.9753 52.6732 43.5579 56.162 43.376C56.3653 43.376 56.3653 43.697 56.162 43.7077Z" fill="#E8E8E8"/>
<path d="M56.2152 44.6384C52.9191 44.9916 49.6123 45.3661 46.3269 45.7621C46.1236 45.7835 46.1236 45.4624 46.3269 45.441C49.623 45.0451 52.9191 44.6705 56.2152 44.3174C56.4186 44.296 56.4186 44.617 56.2152 44.6384Z" fill="#E8E8E8"/>
<path d="M56.3222 45.6017C54.3317 45.9335 52.3305 46.1475 50.3186 46.2117C50.1153 46.2224 50.1153 45.9014 50.3186 45.8907C52.2984 45.8158 54.2782 45.6231 56.2366 45.2914C56.4399 45.2593 56.5255 45.5696 56.3222 45.6017Z" fill="#E8E8E8"/>
<path d="M57.5214 51.3703C54.8139 51.7556 52.0957 52.0766 49.3775 52.3334C49.1742 52.3548 49.1742 52.0338 49.3775 52.0124C52.0743 51.7556 54.7604 51.4345 57.4358 51.0599C57.6391 51.0278 57.7248 51.3382 57.5214 51.3703Z" fill="#E8E8E8"/>
<path d="M57.7246 52.291C55.5735 52.6655 53.4225 52.9759 51.2608 53.2327C51.0574 53.2541 51.0574 52.933 51.2608 52.9116C53.4011 52.6655 55.52 52.3552 57.6389 51.9806C57.8423 51.9378 57.9279 52.2481 57.7246 52.291Z" fill="#E8E8E8"/>
<path d="M57.9492 53.6494C55.2524 54.1844 52.5341 54.5483 49.7945 54.7195C49.5912 54.7302 49.5912 54.4092 49.7945 54.3985C52.502 54.2165 55.1988 53.8634 57.8635 53.339C58.0669 53.2962 58.1525 53.6065 57.9492 53.6494Z" fill="#E8E8E8"/>
<path d="M134.797 67.4229C129.874 67.669 124.93 67.4122 120.007 67.3373C115.085 67.2624 110.173 67.2409 105.25 67.2517C95.3722 67.2731 85.5053 67.455 75.6277 67.6797C70.0628 67.8081 64.5087 67.958 58.9438 68.0971C58.7405 68.1078 58.7405 67.7867 58.9438 67.776C68.8107 67.5192 78.6883 67.2517 88.5659 67.0911C98.4436 66.9306 108.31 66.8557 118.188 66.9841C123.721 67.0483 129.275 67.3801 134.797 67.0911C135.011 67.0911 135.011 67.4122 134.797 67.4229Z" fill="#E8E8E8"/>
<path d="M134.583 66.8775C134.85 66.8026 134.69 66.4494 134.572 66.3317C134.444 66.2033 134.123 66.214 133.951 66.214C133.641 66.2033 133.331 66.214 133.01 66.2033C132.368 66.2033 131.725 66.1926 131.083 66.1926C129.799 66.1819 128.515 66.1819 127.231 66.1712C124.694 66.1605 122.169 66.1391 119.633 66.1284C114.528 66.0963 109.434 66.0749 104.329 66.0642C94.1627 66.0321 84.0068 66.0321 73.8403 66.0856C71.0579 66.107 68.2647 66.107 65.4823 66.2247C64.1018 66.2782 62.7213 66.3638 61.3408 66.4922C60.6559 66.5565 59.9603 66.6314 59.2754 66.717C59.0506 66.7491 58.8259 66.7705 58.6012 66.8133C58.4192 66.8454 58.3122 66.8133 58.248 66.9845C58.0768 67.3912 58.6226 67.8086 58.9543 67.83C59.1577 67.8407 59.1577 68.1617 58.9543 68.151C58.2373 68.0975 57.7343 67.3698 58.0019 66.6849C58.0233 66.6314 58.0554 66.5779 58.1089 66.5779C63.2136 65.818 68.3825 65.818 73.5299 65.7859C78.8486 65.7538 84.1567 65.7431 89.4754 65.7324C100.134 65.7324 110.804 65.7752 121.463 65.8287C124.459 65.8501 127.455 65.8608 130.452 65.8822C131.169 65.8822 131.875 65.8929 132.592 65.8929C133.192 65.8929 133.898 65.7966 134.476 65.9679C135.032 66.1284 135.396 67.0059 134.668 67.2093C134.476 67.2414 134.39 66.931 134.583 66.8775Z" fill="#E8E8E8"/>
<path d="M144.804 51.7337C141.015 51.1772 137.366 52.6969 134.006 54.2807C130.891 55.7575 127.809 57.2665 124.353 57.7052C116.969 58.6256 109.895 55.5221 102.95 53.5637C98.8722 52.4186 94.645 51.616 90.3965 52.1511C90.1932 52.1725 90.1932 51.8514 90.3965 51.83C97.9197 50.8776 105.026 54.0453 112.11 56.0037C115.706 56.9989 119.43 57.748 123.176 57.5019C126.932 57.2558 130.239 55.7361 133.588 54.1416C137.109 52.4614 140.898 50.8455 144.889 51.4341C145.093 51.4555 144.996 51.7658 144.804 51.7337Z" fill="#E8E8E8"/>
<path d="M124.535 54.6567C115.106 55.1597 106.374 50.954 97.3524 48.9314C94.7519 48.3535 92.1086 47.9468 89.4332 47.8933C89.2298 47.8933 89.2298 47.5723 89.4332 47.5723C98.8506 47.7863 107.465 52.1205 116.626 53.7792C119.237 54.2501 121.881 54.4855 124.535 54.3464C124.738 54.3143 124.738 54.6353 124.535 54.6567Z" fill="#E8E8E8"/>
<path d="M142.674 43.7079C138.404 44.0075 134.509 45.9124 130.57 47.3999C126.568 48.9089 122.394 49.7543 118.114 49.6473C115.663 49.5831 113.223 49.2299 110.847 48.6092C110.644 48.5557 110.73 48.2454 110.933 48.2989C115.246 49.4332 119.773 49.6473 124.171 48.8875C128.366 48.1597 132.144 46.3298 136.114 44.9064C138.233 44.1466 140.416 43.5473 142.674 43.3975C142.888 43.3761 142.877 43.6972 142.674 43.7079Z" fill="#E8E8E8"/>
<path d="M125.466 46.4829C124.196 46.6735 123.306 45.8055 120.787 43.9425C116.998 41.1269 116.193 41.0422 115.622 41.0846C115.346 41.1057 114.838 41.1904 112.446 42.9899C108.953 45.615 108.741 46.4194 107.598 46.4829C105.524 46.5676 105.227 43.9425 102.75 43.7097C100.506 43.498 99.8076 45.5515 97.0343 45.4456C94.8962 45.3821 93.6471 44.0696 93.4566 44.3448C93.2237 44.7047 95.2349 47.4779 98.1352 47.9225C100.273 48.2401 100.739 46.991 102.814 47.2874C105.693 47.7108 106.243 50.3359 108.36 50.1454C109.609 50.0183 109.779 49.0869 111.938 47.605C113.081 46.8217 115.071 45.4668 117.252 45.2974C121.253 45.001 123.328 48.8752 125.741 47.7532C126.905 47.2239 127.562 45.7843 127.413 45.615C127.308 45.4456 126.567 46.3136 125.466 46.4829Z" fill="#5B87E0"/>
<path d="M190.893 153.913C194.514 154.781 198.155 155.649 201.775 156.517C199.891 168.415 198.409 174.342 197.372 174.258C196.482 174.194 195.911 169.748 195.657 160.92C193.646 160.222 191.634 159.544 189.623 158.846C190.047 157.216 190.47 155.564 190.893 153.913Z" fill="#161616" stroke="#161616" stroke-width="3" stroke-miterlimit="10"/>
<path d="M166.146 109.562C166.611 110.959 167.31 113.182 168.03 115.998C169.533 121.862 169.596 124.36 171.12 131.812C172.941 140.682 173.873 142.206 174.465 143.074C177.154 146.927 180.88 148.684 182.912 149.637C187.824 151.945 192.396 152.156 195.106 152.051C195.212 153.3 195.318 156.348 193.497 159.418C192.587 160.942 191.507 161.979 190.682 162.636C187.951 162.784 183.251 162.678 177.958 160.624C175.693 159.756 169.914 157.428 165.51 151.648C162.123 147.203 161.192 142.863 160.154 137.994C158.143 128.615 160.641 127.197 158.143 119.237C156.64 114.41 154.904 112.039 156.132 110.261C157.593 108.08 162.187 108.652 166.146 109.562Z" fill="url(#paint1_linear_1_546)"/>
<path opacity="0.09" d="M165.892 109.583C166.104 111.848 166.421 114.981 166.866 118.707C167.268 121.989 167.712 125.545 168.432 129.695C169.681 136.808 170.316 140.364 171.671 143.328C172.857 145.911 175.143 150.695 180.393 154.315C185.855 158.062 191.508 158.422 194.027 158.444C194.323 157.766 194.62 156.898 194.81 155.903C195.085 154.464 195.085 153.215 195.001 152.283C193.371 152.304 191.127 152.177 188.523 151.606C183.992 150.589 180.965 148.748 180.182 148.261C178.255 147.054 176.244 145.805 174.593 143.349C173.471 141.698 173.005 140.195 172.243 137.062C171.121 132.447 170.549 130.16 170.084 126.773C169.575 122.857 168.453 117.141 165.892 109.583Z" fill="#3D3D3D"/>
<path opacity="0.12" d="M194.958 152.22C195.043 153.151 195.085 154.422 194.789 155.882C194.577 156.962 194.26 157.851 193.963 158.55C191.063 157.936 181.939 155.607 176.286 147.266C174.614 144.789 173.619 142.355 173.005 140.259C173.576 141.593 174.571 143.54 176.328 145.424C179.356 148.663 182.828 149.849 185.326 150.696C187.443 151.437 190.745 152.283 194.958 152.22Z" fill="#3D3D3D"/>
<path d="M167.692 173.348C169.343 177.899 170.994 182.451 172.646 187.023C161.044 188.378 155.138 188.569 154.926 187.553C154.757 186.769 158.186 185.224 165.172 182.959C164.22 180.143 163.246 177.328 162.293 174.512C164.093 174.131 165.892 173.729 167.692 173.348Z" fill="#161616" stroke="#161616" stroke-width="3" stroke-miterlimit="10"/>
<path d="M150.48 111.976C150.248 115.109 150.036 119.385 150.078 124.424C150.184 138.332 152.068 148.769 152.619 151.606C154.037 159.037 156.493 168.627 160.917 179.339C162.314 179.402 165.765 179.36 169.216 177.201C171.333 175.867 172.645 174.258 173.365 173.178C172.074 170.723 170.486 167.484 168.941 163.525C166.21 156.539 165.024 150.971 164.262 147.309C162.547 139.073 161.679 134.966 162.378 130.563C163.055 126.393 164.156 125.673 163.987 122.116C163.945 121.333 163.415 112.209 157.699 110.473C154.757 109.605 151.835 111.129 150.48 111.976Z" fill="url(#paint2_linear_1_546)"/>
<path opacity="0.14" d="M155.498 110.388C153.613 111.192 154.227 116.485 154.397 117.882C156.662 137.824 153.55 127.091 156.281 139.391C160.028 156.284 165.088 172.522 166.866 178.111C167.289 178.111 167.882 178.068 168.517 177.772C169.11 177.497 169.237 177.137 169.957 176.565C170.74 175.951 171.015 175.994 171.608 175.57C172.137 175.189 172.794 174.512 173.259 173.263C172.158 171.104 170.846 168.33 169.512 164.985C167.819 160.751 166.887 157.533 165.871 154.062C165.871 154.062 162.695 143.117 162.124 134.755C162.018 133.082 162.103 131.939 162.23 131.113C162.42 129.801 162.695 129.144 163.119 127.578C163.225 127.176 163.817 124.889 164.008 123.175C164.537 118.115 161.849 114.05 160.578 112.589C160.134 112.06 159.541 111.489 158.694 111.044C158.377 110.896 156.535 109.943 155.498 110.388Z" fill="#3D3D3D"/>
<path opacity="0.11" d="M160.345 144.831C160.705 149.975 161.912 151.5 165.426 164.138C166.972 169.685 168.115 174.236 168.856 177.158C169.449 176.925 170.19 176.544 170.952 175.951C172.095 175.062 172.772 174.088 173.153 173.411C172.095 171.23 170.676 168.118 169.3 164.244C168.75 162.72 168.39 161.555 168.051 160.497C163.225 145.022 162.462 140.322 162.23 137.104C162.039 134.373 162.187 132.171 162.23 131.473C162.441 128.551 162.949 126.54 162.949 126.54C162.949 126.54 159.647 134.839 160.345 144.831Z" fill="#3D3D3D"/>
<path d="M187.104 102.512C187.062 102.448 186.85 102.47 186.427 102.512C185.707 102.575 185.474 102.681 185.009 102.724C184.564 102.745 183.971 102.787 183.802 102.512C183.569 102.152 184.31 101.453 185.347 99.9504C187.126 97.41 187.041 96.5208 186.893 96.1186C186.85 96.0127 186.723 95.6105 186.448 95.547C186.088 95.4623 185.686 95.9492 185.305 96.4361C184.67 97.2194 184.416 97.8333 184.352 97.791C184.225 97.7487 184.966 96.1609 184.797 94.2133C184.755 93.684 184.67 92.9219 184.289 92.8161C183.95 92.7102 183.442 93.1336 183.04 93.811C183.04 93.7264 182.934 92.562 182.532 92.4773C182.214 92.4138 181.854 93.0277 181.494 93.6205C181.198 94.1074 181.008 94.552 180.902 94.8484C180.923 94.2556 180.605 93.7687 180.161 93.6205C179.674 93.4723 179.229 93.8534 179.208 93.8746C178.721 94.3191 178.763 95.1024 178.763 95.3776C178.806 96.5843 178.679 98.6166 178.404 101.58C177.853 101.369 177.049 100.988 176.16 100.395C175.249 99.781 174.297 98.9765 171.947 96.1609C171.036 95.0601 170.571 94.5097 169.766 93.43C166.866 89.5559 165.151 87.2695 163.415 84.0305C162.865 82.9932 161.976 81.2361 160.134 79.6695C159.541 79.1614 158.377 78.2087 157.699 78.5686C157.212 78.8227 157.17 79.6271 157.191 80.8126C157.212 83.3954 157.234 84.6656 157.678 86.4227C158.694 90.4873 160.578 93.3241 161.002 93.9592C162.674 96.415 164.347 97.8334 166.506 99.6751C168.75 101.58 170.613 103.147 173.556 104.333C175.482 105.095 177.006 105.37 178.615 105.666C181.283 106.132 182.659 106.365 184.035 105.772C186.004 104.925 187.337 102.829 187.104 102.512Z" fill="white"/>
<path d="M157.784 78.2718C160.07 78.5893 161.425 80.7275 162.653 82.4846C164.22 84.7286 165.702 87.0362 167.226 89.3013C168.75 91.5877 170.338 93.8317 172.137 95.9276C173.005 96.9226 173.894 97.8964 174.868 98.7855C175.948 99.8017 177.133 100.966 178.552 101.453C178.933 101.58 178.764 102.194 178.382 102.067C176.16 101.326 174.275 99.2089 172.73 97.5365C170.952 95.61 169.364 93.5142 167.861 91.3548C166.337 89.1531 164.876 86.888 163.394 84.6651C161.997 82.5904 160.346 79.2668 157.615 78.8857C157.212 78.8222 157.382 78.2294 157.784 78.2718Z" fill="black"/>
<path d="M177.811 106.005C175.101 105.751 172.815 104.502 170.55 103.062C168.305 101.644 166.167 100.014 164.262 98.151C161.806 95.7799 159.732 92.9643 158.356 89.81C157.001 86.6556 156.366 83.2049 156.81 79.7754C156.852 79.3731 157.488 79.3731 157.445 79.7754C156.725 85.5125 159.012 91.2072 162.695 95.5682C164.347 97.5159 166.273 99.2306 168.305 100.755C171.1 102.83 174.275 105.052 177.832 105.391C178.213 105.412 178.213 106.047 177.811 106.005Z" fill="black"/>
<path d="M177.811 105.348C179.06 105.327 180.267 105.623 181.495 105.708C182.913 105.814 184.099 105.39 185.263 104.607C185.729 104.289 186.237 103.908 186.533 103.4C187.147 102.321 185.877 102.956 185.432 103.083C184.713 103.294 184.056 103.21 183.506 102.723C183.188 102.448 183.654 102.003 183.95 102.278C184.903 103.125 186.681 101.241 187.316 102.321C187.803 103.146 186.681 104.332 186.131 104.776C185.178 105.56 184.014 106.195 182.765 106.343C181.114 106.533 179.462 105.962 177.811 106.004C177.409 105.983 177.409 105.348 177.811 105.348Z" fill="black"/>
<path d="M183.463 102.364C183.887 100.946 184.839 99.8448 185.602 98.5957C185.707 98.4264 186.978 96.1189 186.554 95.9283C185.813 95.5896 184.755 97.7278 184.607 98.1512C184.48 98.5322 183.866 98.3629 183.993 97.9818C184.331 97.008 184.924 96.0977 185.813 95.5049C186.279 95.1874 186.956 94.9545 187.168 95.6743C187.443 96.6481 186.724 97.9606 186.237 98.7651C185.475 100.014 184.48 101.094 184.056 102.533C183.95 102.936 183.336 102.766 183.463 102.364Z" fill="black"/>
<path d="M183.802 97.96C183.992 97.1767 184.246 96.3723 184.373 95.5678C184.458 95.0809 184.479 94.594 184.437 94.1071C184.373 93.472 184.246 92.8369 183.738 93.5778C182.955 94.7422 182.701 96.3299 182.32 97.6425C182.214 98.0447 181.6 97.8754 181.706 97.4731C182.023 96.3511 182.277 95.1656 182.743 94.0859C182.976 93.5567 183.505 92.3712 184.246 92.3712C185.008 92.3712 185.029 93.5567 185.072 94.0859C185.178 95.462 184.754 96.7745 184.416 98.0871C184.331 98.5316 183.717 98.3623 183.802 97.96Z" fill="black"/>
<path d="M182.32 94.9528C182.426 94.5082 182.637 93.7673 182.468 93.3227C182.15 92.4971 181.685 93.979 181.558 94.2965C181.092 95.4185 180.838 96.604 180.774 97.8107C180.753 98.213 180.118 98.213 180.139 97.8107C180.224 96.6464 180.415 95.5244 180.817 94.4447C181.05 93.7884 181.388 92.6241 182.023 92.2642C183.463 91.4386 183.061 94.6141 182.955 95.1433C182.849 95.5244 182.235 95.355 182.32 94.9528Z" fill="black"/>
<path d="M180.181 95.6941C180.203 95.4824 180.351 94.3392 180.097 94.1275C179.398 93.5136 179.208 94.6356 179.123 94.9743C178.975 95.6941 178.996 96.4986 178.932 97.2395C178.827 98.7638 178.721 100.267 178.615 101.791C178.594 102.193 177.959 102.193 177.98 101.791C178.086 100.267 178.191 98.7638 178.297 97.2395C178.361 96.181 178.276 94.7838 178.827 93.8311C179.123 93.323 179.631 92.8573 180.224 93.2384C180.986 93.7464 180.88 95.1013 180.774 95.8635C180.732 96.2657 180.118 96.0963 180.181 95.6941Z" fill="black"/>
<path opacity="0.09" d="M157.551 79.0137C157.657 79.0137 157.572 80.6862 158.228 83.0149C158.736 84.7932 159.562 86.4868 162.229 90.001C164.685 93.24 166.463 95.5899 169.554 98.342C172.941 101.369 174.635 102.872 176.964 103.444C182.002 104.693 186.638 101.793 187.083 102.767C187.316 103.296 186.046 104.354 185.559 104.714C184.945 105.159 183.759 105.857 180.965 105.9C177.98 105.942 175.694 105.222 175.186 105.053C169.808 103.275 166.273 99.7604 164.389 97.8127C161.891 95.2723 159.858 93.1977 158.525 89.7258C156.386 84.3274 157.339 79.0137 157.551 79.0137Z" fill="#3D3D3D"/>
<path opacity="0.13" d="M157.975 87.1852C158.123 87.1005 159.012 88.5824 160.282 90.3395C160.282 90.3395 163.331 94.5735 167.268 98.1724C169.428 100.141 173.365 103.19 179.61 105.582C178.319 105.667 176.392 105.624 174.254 104.904C173.577 104.672 171.883 104.037 167.797 100.48C164.537 97.6432 162.717 96.0766 160.896 93.3245C158.927 90.3818 157.763 87.291 157.975 87.1852Z" fill="#3D3D3D"/>
<path d="M155.328 75.9442C156.662 76.4099 157.488 77.2356 158.356 78.1035C160.769 80.5381 161.637 83.2902 162.314 85.513C164.347 92.2028 165.384 95.5265 165.85 98.4479C166.4 101.772 166.866 106.175 166.718 111.383C165.617 112.145 164.05 113.119 162.06 113.966C159.774 114.939 157.721 115.807 155.074 115.596C154.016 115.511 152.195 115.215 150.163 113.966C150.057 112.59 149.824 110.451 149.21 107.932C148.152 103.465 147.009 102.174 145.146 96.6273C143.685 92.2451 142.965 90.0011 143.071 87.3125C143.156 85.4284 143.325 81.7448 146.098 78.8657C148.215 76.6851 152.005 74.7798 155.328 75.9442Z" fill="white"/>
<path d="M156.281 76.0926C158.822 77.6168 160.367 80.1572 161.637 82.7612C162.992 85.5768 164.008 88.5406 164.749 91.5891C166.295 97.9401 166.676 104.524 166.93 111.044C166.951 111.447 166.316 111.447 166.295 111.044C166.062 104.82 165.702 98.5752 164.305 92.4782C163.627 89.4932 162.696 86.5506 161.404 83.7562C160.155 81.0252 158.61 78.2096 155.964 76.643C155.625 76.4313 155.942 75.8809 156.281 76.0926Z" fill="black"/>
<path d="M148.088 77.4673C145.696 79.3303 144.045 81.9554 143.516 84.9403C142.923 88.3487 143.748 91.8206 144.892 95.0173C145.993 98.1081 147.432 101.051 148.427 104.184C149.422 107.254 150.036 110.45 150.29 113.668C150.332 114.07 149.697 114.07 149.655 113.668C149.359 110.048 148.596 106.47 147.369 103.062C146.204 99.8017 144.659 96.6897 143.664 93.366C142.775 90.381 142.309 87.142 143.05 84.0512C143.706 81.2568 145.357 78.7799 147.623 77.0439C147.961 76.7687 148.406 77.2133 148.088 77.4673Z" fill="black"/>
<path d="M166.803 111.468C164.241 113.754 161.066 115.257 157.657 115.744C154.947 116.125 151.454 116.146 149.676 113.712C149.443 113.373 149.994 113.056 150.227 113.394C152.005 115.808 155.942 115.49 158.525 114.961C161.447 114.368 164.135 112.992 166.358 111.023C166.655 110.748 167.099 111.193 166.803 111.468Z" fill="black"/>
<path opacity="0.11" d="M152.597 76.0286C151.878 77.2776 154.545 79.5852 156.599 83.1841C157.911 85.4704 158.419 87.4604 159.414 91.4404C161.743 100.755 161.298 111.34 161.108 114.41C162.928 113.436 164.728 112.483 166.548 111.51C166.464 109.435 166.294 106.471 165.956 102.915C165.405 97.2833 165.088 94.2136 164.008 90.2337C163.055 86.783 162.124 83.5651 159.583 80.1144C157.932 77.8704 156.175 76.325 154.905 75.3511C154.1 75.3088 152.978 75.3723 152.597 76.0286Z" fill="#3D3D3D"/>
<path opacity="0.15" d="M160.684 82.4227C160.409 82.5073 161.531 86.9319 163.33 96.7124C164.516 103.127 164.791 105.434 163.838 108.292C162.61 111.955 160.134 114.178 160.599 114.665C160.896 114.961 162.166 114.538 166.548 111.256C166.654 106.641 166.358 100.269 164.516 92.9653C163.055 87.1859 160.98 82.3168 160.684 82.4227Z" fill="#3D3D3D"/>
<path d="M140.932 67.3061C139.937 68.2164 140.064 69.9947 140.254 72.5774C140.381 74.3769 140.445 75.2872 141.059 76.1552C142.329 77.9546 145.208 78.7802 147.473 77.7641C147.749 77.6371 149.146 76.9808 149.908 75.393C151.009 73.1067 149.866 70.8203 149.633 70.3969C147.855 67.0732 142.71 65.6548 140.932 67.3061Z" fill="#5B87E0"/>
<path d="M140.89 55.5995C140.085 55.7688 139.598 56.8908 138.624 59.156C137.799 61.0825 137.418 62.6491 137.248 63.39C136.973 64.6814 136.825 65.7823 136.762 66.6079C137.333 66.7772 137.905 66.9254 138.476 67.0948C138.603 67.8357 138.879 68.9366 139.429 70.1644C140.191 71.8581 140.826 73.3188 142.308 73.9962C144.023 74.7795 145.865 74.0809 146.479 73.7845C146.711 74.3773 147.05 75.0547 147.495 75.7745C147.812 76.2826 148.151 76.706 148.447 77.0659C150.374 77.5528 151.263 77.0447 151.602 76.7907C153.38 75.4781 153.232 71.2441 150.501 66.4597C150.649 66.2268 150.882 65.8881 151.178 65.507C151.792 64.7449 152.004 64.7237 152.279 64.2792C152.364 64.1522 153.02 63.0301 152.491 62.014C152.237 61.5271 151.708 61.1037 151.115 61.0613C150.395 60.9978 150.162 61.5694 149.548 61.7388C148.49 62.0563 147.325 60.9131 144.425 58.1822C141.991 55.8958 141.504 55.4724 140.89 55.5995Z" fill="white"/>
<path d="M138.858 59.0721C137.863 61.5702 137.227 64.1741 136.995 66.8627C136.973 67.1591 136.486 67.1591 136.508 66.8627C136.74 64.1318 137.376 61.4855 138.392 58.9451C138.498 58.6487 138.963 58.7758 138.858 59.0721Z" fill="black"/>
<path d="M136.868 66.6512C137.439 66.7147 138.011 66.7994 138.582 66.8629C138.879 66.9053 138.879 67.371 138.582 67.3498C138.011 67.2863 137.439 67.2017 136.868 67.1381C136.571 67.0746 136.571 66.6089 136.868 66.6512Z" fill="black"/>
<path d="M138.71 67.073C139.091 69.19 139.959 71.2435 141.377 72.8736C143.071 74.8636 145.76 73.8263 147.834 72.9795C148.109 72.8525 148.236 73.3182 147.961 73.4452C146.014 74.2497 143.219 75.3505 141.462 73.6569C139.726 72.0057 138.689 69.5288 138.265 67.2001C138.202 66.9037 138.646 66.7767 138.71 67.073Z" fill="black"/>
<path d="M146.796 73.8901C147.241 74.9062 147.791 75.8589 148.427 76.7692C148.596 77.0232 148.194 77.2561 148.024 77.0021C147.389 76.0918 146.839 75.1179 146.394 74.1229C146.267 73.8477 146.669 73.6148 146.796 73.8901Z" fill="black"/>
<path d="M148.003 73.5098C147.686 73.8485 147.326 74.1449 146.923 74.3566C146.648 74.5048 146.415 74.1026 146.691 73.9544C147.072 73.7427 147.389 73.4887 147.686 73.1711C147.876 72.9382 148.215 73.277 148.003 73.5098Z" fill="black"/>
<path d="M140.636 62.5215C140.763 62.2674 140.742 61.9499 140.572 61.7382C140.699 61.6958 140.848 61.6747 140.975 61.6323C140.911 61.9922 140.911 62.3309 140.932 62.6908C140.848 62.6062 140.763 62.5215 140.699 62.458C140.678 62.5003 140.657 62.5427 140.615 62.585C140.551 62.2886 141.017 62.1616 141.08 62.458C141.144 62.712 140.975 62.9449 140.699 62.9449C140.551 62.9449 140.466 62.839 140.466 62.712C140.424 62.3098 140.445 61.9287 140.509 61.5265C140.53 61.3571 140.805 61.2936 140.911 61.4206C141.229 61.8229 141.292 62.3309 141.038 62.7755C140.911 63.0296 140.488 62.7967 140.636 62.5215Z" fill="black"/>
<path d="M141.905 59.6634C141.609 58.9224 140.762 58.7107 140.106 59.1341C139.852 59.3035 139.619 58.8801 139.873 58.7319C140.805 58.1179 141.948 58.5202 142.371 59.5363C142.477 59.8327 142.011 59.9597 141.905 59.6634Z" fill="black"/>
<path d="M142.88 63.4742C142.965 63.4742 143.071 63.4742 143.155 63.4742C143.177 63.4318 143.177 63.3895 143.198 63.3472C143.155 63.199 143.092 63.1566 142.965 63.199C142.944 63.2201 142.901 63.2625 142.88 63.2836C142.88 63.2836 142.88 63.2836 142.88 63.2625C142.944 63.1566 143.092 63.1143 143.198 63.1778C143.304 63.2413 143.346 63.3895 143.282 63.4953C143.198 63.6012 143.071 63.6647 142.944 63.6435C142.817 63.6012 142.711 63.4953 142.711 63.3472C142.711 63.0296 143.155 62.9449 143.304 63.199C143.367 63.3048 143.325 63.453 143.219 63.5165C143.092 63.6224 142.944 63.58 142.88 63.4742Z" fill="black"/>
<path d="M141.821 64.4479C141.864 64.4903 141.927 64.5538 141.991 64.5961C141.991 64.5961 141.991 64.5961 141.97 64.5961C142.012 64.5961 142.054 64.5961 142.097 64.5961C142.097 64.5961 142.118 64.5961 142.118 64.575C142.139 64.5538 142.181 64.5115 142.202 64.4903V64.5114C142.202 64.4479 142.224 64.3844 142.224 64.3209C142.202 64.2997 142.181 64.2786 142.16 64.2574C142.266 64.3421 142.308 64.4691 142.245 64.575C142.181 64.6808 142.012 64.7443 141.927 64.6596C141.779 64.5538 141.673 64.3421 141.843 64.1939C141.906 64.1304 142.012 64.088 142.118 64.1304C142.224 64.1516 142.266 64.2151 142.308 64.3209C142.351 64.4479 142.266 64.575 142.139 64.6173C141.991 64.6596 141.864 64.575 141.821 64.4479Z" fill="black"/>
<path d="M143.494 64.4698C143.515 64.4698 143.515 64.4698 143.536 64.4698C143.833 64.4698 143.854 64.9567 143.536 64.9567C143.515 64.9567 143.515 64.9567 143.494 64.9567C143.176 64.9567 143.176 64.4698 143.494 64.4698Z" fill="black"/>
<path d="M141.588 67.6033C141.25 68.6406 140.72 69.5721 139.662 69.9743C139.387 70.0802 139.26 69.6356 139.535 69.5086C140.403 69.1699 140.848 68.3019 141.123 67.4551C141.229 67.1799 141.673 67.3069 141.588 67.6033Z" fill="black"/>
<path d="M141.652 67.8575C141.525 67.667 141.313 67.5611 141.059 67.5188C140.932 67.4976 140.868 67.3282 140.89 67.2224C140.932 67.0742 141.059 67.0319 141.186 67.053C141.546 67.0954 141.842 67.3071 142.054 67.6035C142.245 67.8575 141.842 68.1115 141.652 67.8575Z" fill="black"/>
<path d="M150.649 65.1043C151.941 65.57 152.639 63.5801 152.406 62.6486C152.279 62.1617 151.941 61.5901 151.432 61.4419C150.734 61.2302 150.099 61.7806 149.654 62.204C149.442 62.4157 149.104 62.077 149.315 61.8653C149.887 61.3149 150.586 60.7856 151.432 60.955C152.195 61.1032 152.66 61.8229 152.851 62.5216C153.19 63.8129 152.152 66.1416 150.522 65.57C150.226 65.4642 150.353 64.9984 150.649 65.1043Z" fill="black"/>
<path d="M142.562 56.0654C142.816 56.3617 143.197 56.8487 143.642 57.4838C145.251 59.8336 145.103 60.7863 146.225 61.4637C147.093 61.993 148.426 62.1623 149.442 61.7389C150.205 61.4214 150.416 60.9345 151.073 60.9556C151.792 60.9768 152.47 61.5696 152.745 62.2682C153.084 63.0938 152.745 63.8559 152.512 64.3428C152.3 64.7874 152.004 65.4437 151.369 65.5919C150.967 65.6766 150.607 65.5284 150.416 65.4225C150.437 65.6554 150.48 66.0153 150.501 66.4599C150.607 68.3016 150.395 69.5719 150.31 70.3975C150.099 72.3875 149.908 73.9752 150.501 75.4783C151.411 77.7223 153.676 78.7173 154.502 79.0772C158.016 80.6226 161.277 79.3312 161.721 79.1407C162.42 78.8443 165.765 77.4683 166.59 74.3351C167.098 72.451 166.527 70.5457 166.294 69.7412C166.188 69.4025 165.913 68.5557 165.362 67.5819C164.156 65.4225 162.42 64.11 161.213 63.369C160.811 61.9083 160.133 59.8125 158.948 57.4202C157.614 54.7105 156.873 53.2074 155.18 51.8102C152.491 49.5873 149.442 49.3121 148.447 49.2486C147.939 49.2063 145.441 49.0581 142.478 50.2648C140.382 51.1116 137.926 52.1277 136.91 54.647C135.745 57.5896 137.397 60.5111 137.714 61.0615C137.799 60.7016 137.968 60.1512 138.328 59.6219C138.857 58.8386 139.45 58.5211 140.339 57.9072C140.911 57.4626 141.673 56.891 142.562 56.0654Z" fill="#5B87E0"/>
<path d="M151.285 76.9806C150.374 77.5099 149.316 77.6369 148.3 77.2982C147.919 77.1711 148.088 76.5572 148.469 76.6842C149.316 76.9594 150.184 76.8748 150.967 76.4302C151.327 76.2397 151.644 76.7901 151.285 76.9806Z" fill="black"/>
<path opacity="0.14" d="M152.279 64.3213C152.11 64.8082 151.665 65.147 151.178 65.2105C150.649 65.274 150.12 65.0199 149.845 64.5542C149.95 65.2528 150.056 66.6712 149.4 68.2378C148.511 70.3971 146.775 71.4133 146.013 71.8579C144.15 72.9164 142.372 72.9799 141.504 72.9587C141.694 73.2974 142.117 73.8479 142.837 74.2077C144.552 75.0545 146.352 73.9114 146.457 73.8479C146.923 74.864 147.41 75.605 147.791 76.1342C148.32 76.854 148.532 77.0234 148.68 77.0869C149.696 77.6796 151.03 77.0657 151.411 76.8752C151.835 77.2774 152.448 77.7855 153.253 78.2724C153.93 78.6746 155.751 79.7331 158.27 79.7543C158.27 79.7543 161.657 79.7543 164.388 77.4679C165.447 76.5788 165.891 75.7955 166.018 75.5415C166.124 75.3298 166.569 74.483 166.675 73.1069C166.908 70.4606 165.764 68.2166 165.129 67.2005C163.986 65.3798 162.525 64.3002 161.594 63.7286C161.657 63.9614 162.441 67.2428 160.705 68.8306C158.524 70.7994 153.592 68.9364 152.512 66.0996C152.237 65.401 152.237 64.7447 152.279 64.3213Z" fill="#3D3D3D"/>
<path opacity="0.07" d="M149.697 70.1854C149.866 70.2701 149.464 71.3709 149.083 72.1542C148.469 73.4456 147.707 74.3983 147.156 74.9698C147.008 74.5888 146.86 74.2077 146.712 73.8478C146.225 74.0595 145.314 74.3559 144.171 74.2924C143.409 74.2501 142.795 74.0595 142.372 73.8902C145.632 73.8267 147.283 72.8317 148.193 71.9214C148.934 71.1804 149.527 70.1007 149.697 70.1854Z" fill="#3D3D3D"/>
<path d="M97.1105 50.6453C97.4069 50.4759 97.4704 50.0737 97.5127 49.7985C97.6609 48.8035 96.92 47.999 96.7929 47.8297C96.0097 46.9617 95.5651 47.4063 94.8241 46.6018C94.2737 46.0091 94.316 45.5221 93.4692 44.7388C92.9188 44.2096 92.7283 44.2731 92.686 44.2943C92.3896 44.4213 92.6436 45.0776 92.3472 46.0937C92.0932 46.9405 91.7756 46.9405 91.6698 47.6603C91.6486 47.8508 91.5004 48.8035 92.072 49.3539C92.3261 49.608 92.6648 49.6715 93.3634 49.7985C94.1679 49.9467 94.2737 49.862 94.8241 49.9678C96.1578 50.2219 96.6236 50.9205 97.1105 50.6453Z" fill="white"/>
<path d="M97.1741 49.7569C100.371 53.0594 103.567 56.3831 106.764 59.6857C107.166 60.1514 107.187 60.85 106.828 61.3158C106.425 61.8238 105.706 61.9509 105.134 61.591C101.853 57.7804 98.5925 53.9486 95.3111 50.138C95.925 50.0109 96.539 49.8839 97.1741 49.7569Z" fill="black"/>
<path d="M108.733 67.8359C108.627 68.1111 108.966 68.6827 110.807 69.9105C111.337 69.8047 111.781 69.5083 111.866 69.1272C111.993 68.4921 111.083 67.9629 110.68 67.7724C109.939 67.4336 108.881 67.4548 108.733 67.8359Z" fill="black"/>
<path d="M145.971 76.5574C147.114 76.8114 149.125 77.2984 150.057 78.9496C150.671 80.0293 150.544 81.1725 150.501 81.5747C150.29 83.3742 149.041 84.8772 147.622 85.5335C145.886 86.3168 144.087 85.724 143.176 85.4065C135.259 82.6755 131.3 81.3207 129.691 80.5162C125.034 78.1663 119.847 75.5201 113.941 70.6086C112.416 69.3384 111.21 68.2164 110.363 67.4119C110.024 67.6025 109.262 67.9624 108.352 67.8565C107.611 67.7718 107.124 67.4331 106.404 66.925C105.896 66.5651 105.303 66.1417 104.774 65.3584C104.266 64.6175 104.097 63.9612 103.948 63.4108C103.8 62.7969 103.504 61.696 103.885 61.4632C104.16 61.2938 104.456 61.7595 105.197 61.7807C105.261 61.7807 106.171 61.7807 106.573 61.2091C106.955 60.6799 106.552 60.193 106.891 59.7696C107.251 59.3038 108.182 59.3462 108.775 59.5155C110.151 59.9389 110.807 61.4632 111.231 62.2676C112.395 64.5752 114.068 65.8242 117.18 68.1741C119.593 69.9947 121.752 70.8415 124.653 72.0058C125.796 72.4716 127.976 73.3184 130.856 74.017C135.703 75.1602 139.535 75.1178 145.971 76.5574Z" fill="white"/>
<path d="M149.443 78.7375C147.263 76.557 143.833 76.4723 140.954 76.0701C137.588 75.6044 134.222 75.0963 130.919 74.313C125.055 72.9581 119.233 70.6929 114.64 66.7129C113.433 65.6544 112.311 64.4901 111.379 63.1564C110.533 61.9497 108.924 58.3931 106.934 60.0867C106.616 60.3408 106.172 59.8962 106.489 59.6421C107.251 58.9859 108.267 58.9435 109.157 59.3881C110.406 60.0232 110.977 61.4204 111.718 62.5424C113.645 65.4639 116.566 67.7079 119.572 69.4227C125.902 73.0216 133.185 74.313 140.298 75.3503C143.516 75.8161 147.411 75.8584 149.867 78.293C150.184 78.5682 149.74 79.0127 149.443 78.7375Z" fill="black"/>
<path d="M149.909 77.9769C151.327 80.3902 151.052 83.5869 148.681 85.3017C145.844 87.3552 141.864 85.4075 138.964 84.4125C132.126 82.0415 125.605 78.8236 119.551 74.8437C116.185 72.642 112.988 70.1863 109.961 67.54C109.643 67.2648 110.109 66.8202 110.405 67.0954C119.911 75.3941 131.448 81.9568 143.685 85.2382C145.78 85.8098 147.961 85.6827 149.316 83.7774C150.501 82.1473 150.353 79.988 149.358 78.3156C149.146 77.9557 149.697 77.6381 149.909 77.9769Z" fill="black"/>
<path d="M104.288 61.0194C104.182 61.5064 104.076 62.0356 104.118 62.5437C104.203 63.2423 104.542 63.4752 104.796 64.0468C104.901 64.3008 104.923 64.5549 105.007 64.8089C105.177 65.3805 105.41 65.5075 105.812 65.8462C106.256 66.2061 106.51 66.6295 106.891 67.0317C107.505 67.688 107.865 67.4763 108.627 67.3916C109.178 67.3281 109.749 67.2434 110.3 67.1799C110.702 67.1376 110.702 67.7727 110.3 67.815C109.39 67.9421 107.844 68.4713 106.997 68.0267C106.659 67.8574 106.468 67.5398 106.256 67.2434C105.981 66.8624 105.727 66.5448 105.304 66.3331C105.092 66.2273 104.986 66.312 104.796 66.1426C104.563 65.9521 104.499 65.6345 104.436 65.3593C104.288 64.6819 104.076 64.2373 103.779 63.6445C103.335 62.7766 103.483 61.8027 103.674 60.8924C103.758 60.4479 104.372 60.6172 104.288 61.0194Z" fill="black"/>
<path d="M106.891 59.8343C107.378 60.554 106.997 61.5914 106.235 61.9301C105.346 62.3323 104.351 61.7396 103.906 60.9563C103.695 60.5964 104.245 60.2788 104.457 60.6387C104.732 61.1256 105.303 61.5702 105.875 61.3797C106.383 61.2315 106.658 60.5964 106.341 60.1518C106.129 59.8131 106.68 59.4955 106.891 59.8343Z" fill="black"/>
<path d="M106.488 60.1307C103.292 56.807 100.137 53.4409 97.0254 50.0325C96.7502 49.7362 97.1948 49.2704 97.47 49.588C100.582 52.9964 103.736 56.3624 106.933 59.6861C107.229 59.9613 106.785 60.427 106.488 60.1307Z" fill="black"/>
<path d="M103.927 60.8076C100.879 57.2933 97.8515 53.7791 94.803 50.2649C94.5278 49.9473 94.9935 49.5028 95.2476 49.8203C98.296 53.3345 101.323 56.8488 104.372 60.363C104.647 60.6805 104.202 61.1251 103.927 60.8076Z" fill="black"/>
<path d="M108.987 67.7521C109.389 68.1543 109.791 68.5777 110.193 68.98C110.32 69.107 110.511 69.3822 110.659 69.4669C111.188 69.7421 111.463 69.2128 111.654 68.8741C111.866 68.5142 112.416 68.8318 112.204 69.1917C111.887 69.7209 111.358 70.3984 110.659 70.1867C110.278 70.0808 110.003 69.6997 109.749 69.4245C109.346 69.0223 108.944 68.5989 108.542 68.1967C108.246 67.9003 108.711 67.4557 108.987 67.7521Z" fill="black"/>
<path d="M94.9727 50.18C93.7025 50.7516 92.1571 50.4129 91.5008 49.1003C91.1833 48.4652 91.1621 47.7031 91.395 47.0469C91.7972 45.9884 93.2579 45.0569 91.9666 43.956C91.649 43.6808 92.1147 43.2363 92.4111 43.5115C93.1521 44.1466 93.3638 45.1204 92.8769 45.9672C92.4111 46.7928 91.6702 47.2586 91.903 48.3382C92.1571 49.6084 93.512 50.1377 94.634 49.6296C95.0362 49.4602 95.3538 50.0107 94.9727 50.18Z" fill="black"/>
<path d="M97.0684 49.4819C96.9414 48.5504 96.6027 47.9365 95.7771 47.4707C95.3537 47.2379 94.9091 47.0473 94.528 46.751C93.7447 46.1159 93.5119 44.9515 92.5804 44.4858C92.2205 44.2952 92.5381 43.766 92.8979 43.9354C93.4272 44.1894 93.7447 44.5916 94.0411 45.0997C94.5069 45.8407 94.9303 46.3276 95.7136 46.7298C96.9838 47.3861 97.513 48.0423 97.7035 49.4819C97.7459 49.8841 97.1108 49.8841 97.0684 49.4819Z" fill="black"/>
<path d="M97.174 50.0953C96.5812 49.8624 95.9673 49.9471 95.4592 50.3281C95.1417 50.5822 94.8241 50.0318 95.1417 49.7777C95.7768 49.2908 96.6236 49.1849 97.3645 49.4813C97.7244 49.6295 97.5551 50.2435 97.174 50.0953Z" fill="black"/>
<path d="M95.0782 47.1732C94.2526 46.898 93.4058 46.8768 92.559 47.0885C92.1568 47.1944 91.9874 46.5804 92.3896 46.4746C93.3423 46.2417 94.3161 46.2629 95.2476 46.5593C95.6287 46.6863 95.4593 47.3002 95.0782 47.1732Z" fill="#5B87E0"/>
<path d="M95.4379 47.1744C93.8925 46.5182 93.4267 44.7187 91.9871 43.9143C92.1142 43.7449 92.2412 43.5755 92.3682 43.4062C93.4691 44.4012 92.4952 45.756 92.22 46.8569C92.0718 46.7299 91.9025 46.624 91.7543 46.497C92.5587 46.1583 93.3632 46.0101 94.2312 46.0736C94.1465 46.243 94.0407 46.3912 93.956 46.5605C93.6596 45.9889 93.2997 45.4808 92.8975 44.9728C93.0668 44.8669 93.2574 44.7611 93.4267 44.6552C93.5961 45.0998 93.8078 45.6502 93.7231 46.1159C93.7019 46.243 93.5537 46.3488 93.4267 46.3488C92.9186 46.3276 92.7916 45.629 92.6222 45.248C92.8128 45.1845 93.0245 45.1421 93.215 45.0786C93.1727 45.3962 93.0668 45.7772 93.1092 46.1159C93.0668 46.0313 93.0033 45.9254 92.961 45.8407C93.1092 45.9254 93.6808 45.8619 93.9348 45.9254C94.3582 46.0101 94.7181 46.1583 95.0992 46.37C95.3744 46.5182 95.2473 46.9839 94.9298 46.9627C94.4005 46.9204 93.8713 46.8569 93.342 46.8146C92.9398 46.7722 92.9398 46.1371 93.342 46.1795C93.8713 46.2218 94.4005 46.2853 94.9298 46.3276C94.8663 46.5182 94.8239 46.7299 94.7604 46.9204C94.3159 46.6875 93.829 46.5182 93.3209 46.497C93.1303 46.4758 92.834 46.5605 92.6646 46.4335C92.2835 46.1583 92.5376 45.502 92.5799 45.0998C92.6223 44.8246 93.0245 44.6129 93.1727 44.9304C93.1938 44.9939 93.5326 45.7137 93.4267 45.7137C93.3209 45.7984 93.215 45.8619 93.1303 45.9466C93.1938 45.629 92.9398 45.0998 92.8339 44.8246C92.7281 44.5282 93.1727 44.2741 93.3632 44.507C93.8078 45.0363 94.1888 45.6079 94.5276 46.2218C94.6334 46.4123 94.5064 46.7299 94.2524 46.7087C93.4902 46.6452 92.7916 46.751 92.093 47.0474C91.839 47.1533 91.5426 46.9839 91.6273 46.6875C91.839 45.8407 92.7704 44.5917 91.9448 43.8507C91.6696 43.5967 92.0295 43.1733 92.3259 43.3427C93.7443 44.1471 94.2524 45.9466 95.7766 46.6029C96.1365 46.7934 95.7978 47.3226 95.4379 47.1744Z" fill="#5B87E0"/>
<path d="M92.347 43.2576C93.2361 43.808 93.7866 44.6337 94.4428 45.417C94.8451 45.9039 95.2896 46.2002 95.7342 46.6236C95.9036 46.7718 96.0518 46.8565 96.0518 47.0894C96.0518 47.1317 96.0306 47.1952 95.9671 47.2164C94.6334 47.788 93.1515 46.2638 91.8389 47.3434C91.7542 47.4069 91.6484 47.4069 91.5849 47.3011C91.2038 46.7507 92.0506 46.2214 92.3682 45.8827C92.474 45.7768 92.6857 45.8827 92.6434 46.0309C92.5799 46.2426 92.601 46.2214 92.4528 46.3908C92.3258 46.5601 92.0506 46.3908 92.1776 46.2214C92.22 46.1156 92.2835 46.0309 92.3258 45.925C92.4105 45.9674 92.4952 46.0309 92.601 46.0732C92.4528 46.2214 91.6695 46.8353 91.8601 47.1106C91.7754 47.0894 91.6907 47.0894 91.606 47.0682C92.0506 46.7083 92.5587 46.539 93.1514 46.5601C93.4902 46.5813 93.8289 46.6448 94.1676 46.7083C94.4428 46.7718 94.6969 46.8353 94.9721 46.8565C95.2685 46.8989 95.6284 47.0682 95.3955 46.666C95.2685 46.4543 94.8874 46.2637 94.718 46.0944C94.464 45.8403 94.2311 45.5651 94.0194 45.2688C93.469 44.5913 92.9609 43.9139 92.22 43.4481C92.0083 43.427 92.1776 43.1518 92.347 43.2576Z" fill="#5B87E0"/>
<path d="M95.6074 47.3219C94.9723 47.4066 94.3583 47.1949 93.7232 47.1102C93.194 47.0467 92.7706 47.1314 92.2837 47.3007C92.0084 47.4066 91.8391 47.4701 91.5427 47.4278C91.4368 47.4066 91.3733 47.3431 91.3945 47.2372C91.4368 46.962 91.5004 46.8138 91.6485 46.581C91.7544 46.4116 92.0296 46.581 91.9238 46.7503C91.7756 46.9197 91.7121 47.1102 91.6909 47.3219C91.6486 47.2584 91.585 47.1949 91.5427 47.1314C92.1355 47.1949 92.7282 46.7715 93.3422 46.7715C94.0619 46.7927 94.8029 47.1314 95.5227 47.0255C95.7344 46.9832 95.8191 47.2796 95.6074 47.3219Z" fill="#5B87E0"/>
<path d="M92.6014 43.8078C92.4955 43.6596 92.3685 43.5326 92.1992 43.4479C92.1568 43.4268 92.0086 43.3209 91.9663 43.3633C91.9028 43.4056 92.0721 43.5326 92.1145 43.5538C92.3685 43.7655 92.5379 44.0407 92.6649 44.3371C92.7496 44.5276 92.432 44.6123 92.3685 44.4218C92.2415 44.1254 92.0298 43.9349 91.7969 43.702C91.6487 43.575 91.5641 43.3844 91.7122 43.1939C92.0298 42.7705 92.6437 43.3209 92.8554 43.5961C92.9613 43.7443 92.7284 43.9772 92.6014 43.8078Z" fill="#5B87E0"/>
<path d="M91.8811 43.1099C92.241 43.3428 92.495 43.7027 92.6009 44.1261C92.6432 44.3166 92.3468 44.4013 92.3045 44.2108C92.2198 43.872 92.0293 43.5968 91.7329 43.3851C91.5424 43.2581 91.7117 42.9829 91.8811 43.1099Z" fill="#5B87E0"/>
<path d="M149.654 78.6961C148.977 77.3624 146.521 76.8543 145.166 76.6849C144.764 76.6214 144.934 76.0075 145.336 76.071C146.86 76.2827 149.422 76.8755 150.205 78.3785C150.374 78.7384 149.824 79.0771 149.654 78.6961Z" fill="black"/>
<path opacity="0.13" d="M150.375 81.7657C148.469 81.6387 145.696 81.3847 142.415 80.7495C133.015 78.9501 126.325 75.457 122.24 73.2977C118.852 71.4982 114.364 68.8096 109.432 64.9355C107.272 64.2369 105.939 63.2843 105.092 62.5221C104.52 62.0141 104.097 61.506 103.885 61.6118C103.546 61.8024 104.076 63.5595 104.795 64.8297C105.431 65.9729 106.171 66.6291 106.404 66.8408C106.997 67.3489 107.336 67.7088 107.907 67.857C108.966 68.1322 109.919 67.5606 110.236 67.3489C111.019 67.9628 112.163 68.8732 113.581 69.9528C119.297 74.2927 122.176 76.4732 125.965 78.5479C129.459 80.4532 132.38 81.5964 138.075 83.798C138.604 84.0097 139.303 84.2426 140.7 84.7084C144.426 85.9574 145.315 86.1056 146.352 85.915C146.776 85.8304 147.813 85.6398 148.766 84.8142C150.015 83.6922 150.29 82.2526 150.375 81.7657Z" fill="#3D3D3D"/>
<path opacity="0.19" d="M133.587 81.9137C133.629 81.8502 133.269 81.5538 125.33 76.5154C114.872 69.868 115.613 70.4607 114.512 69.6563C109.94 66.2691 107.907 63.9827 106.849 64.6602C106.129 65.1259 106.002 66.8195 106.785 67.5604C107.463 68.2167 108.881 68.1532 110.151 67.2217C112.713 69.5081 116.524 72.6201 121.541 75.7744C127.469 79.4368 133.438 82.1678 133.587 81.9137Z" fill="#3D3D3D"/>
<defs>
<linearGradient id="paint0_linear_1_546" x1="79.8906" y1="14" x2="68.2422" y2="125.459" gradientUnits="userSpaceOnUse">
<stop stop-color="#EE4266"/>
<stop offset="1" stop-color="#FA5E7E"/>
</linearGradient>
<linearGradient id="paint1_linear_1_546" x1="170.506" y1="108.752" x2="154.532" y2="181.522" gradientUnits="userSpaceOnUse">
<stop stop-color="#EE4266"/>
<stop offset="1" stop-color="#FA5E7E"/>
</linearGradient>
<linearGradient id="paint2_linear_1_546" x1="158.807" y1="110.214" x2="120.831" y2="189.908" gradientUnits="userSpaceOnUse">
<stop stop-color="#EE4266"/>
<stop offset="1" stop-color="#FA5E7E"/>
</linearGradient>
</defs>
</svg>