<svg width="106" height="22" viewBox="0 0 106 22" fill="none" xmlns="http://www.w3.org/2000/svg">
<path d="M104.39 4.43163L101.242 2.45879L98.0505 0.462749C95.9373 -0.860209 93.3169 0.810896 93.3169 3.48002V3.92101C93.3169 4.17632 93.4437 4.38521 93.6339 4.52447L95.1132 5.45286C95.5147 5.70817 96.043 5.38323 96.043 4.87261V3.80496C96.043 3.27114 96.5713 2.9462 96.9728 3.20151L99.8891 5.03508L102.784 6.86866C103.207 7.12396 103.207 7.79705 102.784 8.05235L99.8891 9.88593L96.9728 11.7195C96.5502 11.9748 96.043 11.6499 96.043 11.116V10.5822C96.043 7.9131 93.4014 6.24199 91.3094 7.56495L88.1184 9.56099L84.9697 11.5338C82.8565 12.88 82.8565 16.2222 84.9697 17.5684L88.1184 19.5412L91.3094 21.5373C93.4226 22.8602 96.043 21.1891 96.043 18.52V18.079C96.043 17.8237 95.9162 17.6148 95.726 17.4755L94.2467 16.5471C93.8452 16.2918 93.3169 16.6168 93.3169 17.1274V18.195C93.3169 18.7289 92.7886 19.0538 92.3871 18.7985L89.4708 16.9649L86.5757 15.1313C86.1531 14.876 86.1531 14.203 86.5757 13.9476L89.4708 12.1141L92.3871 10.2805C92.8098 10.0252 93.3169 10.3501 93.3169 10.884V11.4178C93.3169 14.0869 95.9585 15.758 98.0505 14.4351L101.242 12.439L104.39 10.4662C106.503 9.12001 106.503 5.77779 104.39 4.43163Z" fill="black"/>
<path d="M83.3857 5L76.1679 22H73.1691L75.8783 15.6486L71.6387 5H74.6995L77.4294 12.1306L80.4076 5H83.3857Z" fill="black"/>
<path d="M8.51358 11.0113C8.51358 9.06049 7.25226 7.69943 5.68577 7.69943C4.11928 7.69943 2.85794 9.08318 2.85794 11.0113C2.85794 12.9168 4.11928 14.3233 5.68577 14.3233C7.25226 14.3233 8.51358 12.9622 8.51358 11.0113ZM8.53393 16.7958V15.2987C7.76086 16.3422 6.62159 17 5.25854 17C2.41037 17 0.253906 14.4594 0.253906 11.0113C0.253906 7.6087 2.49174 5 5.31957 5C6.64193 5 7.78121 5.65785 8.53393 6.67864V5.22684H11.0973V16.8185L8.53393 16.7958Z" fill="black"/>
<path d="M24.1423 14.3083C23.2465 14.3083 23.0022 13.9306 23.0022 12.9153V7.55556H24.6513V4.91111H23.0022V1.98333H20.376V4.93472H16.9964V3.73056C16.9964 2.71528 17.3221 2.3375 18.2383 2.3375H18.8083V0H17.5461C15.3881 0 14.3701 0.826388 14.3701 3.32917V4.93472H12.9043V7.55556H14.3701V17H16.9964V7.55556H20.376V13.4583C20.376 15.9139 21.1903 16.9764 23.3076 16.9764H24.6513V14.3083H24.1423Z" fill="black"/>
<path d="M34.4307 9.94518C34.2462 8.44802 33.1393 7.54064 31.8275 7.54064C30.5361 7.54064 29.4702 8.42533 29.1832 9.94518H34.4307ZM29.1832 11.7599C29.3677 13.4839 30.4746 14.4594 31.889 14.4594C32.9958 14.4594 33.8568 13.8696 34.3692 12.9622H37.0749C36.4395 15.4121 34.4512 17 31.848 17C28.6913 17 26.457 14.5501 26.457 11.034C26.457 7.54064 28.7938 5 31.9095 5C35.0251 5 37.3004 7.54064 37.3004 11.034C37.3004 11.2836 37.2799 11.5331 37.2389 11.7826H29.1832V11.7599Z" fill="black"/>
<path d="M55.2638 11.1945C55.2638 9.26164 53.8974 7.79452 52.2004 7.79452C50.5033 7.79452 49.1369 9.21507 49.1369 11.1945C49.1369 13.1507 50.5033 14.5945 52.2004 14.5945C53.8754 14.5945 55.2638 13.1274 55.2638 11.1945ZM46.3379 22V5.23288H49.1148V6.76986C49.9523 5.67534 51.1865 5 52.6632 5C55.7046 5 58.0849 7.63151 58.0849 11.1479C58.0849 14.6411 55.6605 17.3192 52.5971 17.3192C51.1865 17.3192 49.9964 16.7137 49.203 15.7356V22H46.3379Z" fill="black"/>
<path d="M67.2276 11.0113C67.2276 9.06049 65.9663 7.69943 64.3998 7.69943C62.8333 7.69943 61.572 9.08318 61.572 11.0113C61.572 12.9168 62.8333 14.3233 64.3998 14.3233C65.9663 14.3233 67.2276 12.9622 67.2276 11.0113ZM67.2683 16.7958V15.2987C66.4952 16.3422 65.356 17 63.9929 17C61.1447 17 58.9883 14.4594 58.9883 11.0113C58.9883 7.6087 61.2261 5 64.054 5C65.3763 5 66.5156 5.65785 67.2683 6.67864V5.22684H69.8317V16.8185L67.2683 16.7958Z" fill="black"/>
<path d="M41.4674 6.36154C41.4674 6.36154 42.0616 5 43.5099 5C44.1411 5 44.5311 5.27692 44.5311 5.27692V8.27692C44.5311 8.27692 43.6584 7.60769 42.8414 7.74615C42.043 7.88462 41.5231 8.80769 41.5231 10.0308V17H39.1094V5.20769H41.4489L41.4674 6.36154Z" fill="black"/>
</svg>
