<svg width="54" height="26" viewBox="0 0 54 26" fill="none" xmlns="http://www.w3.org/2000/svg">
<path d="M10.7623 3.23366C11.464 2.377 11.9376 1.18646 11.8088 0C10.7948 0.041863 9.56881 0.682061 8.84681 1.53566C8.19275 2.29328 7.62692 3.50628 7.78308 4.66926C8.91069 4.75707 10.0606 4.09032 10.7623 3.23366ZM13.6757 10.7629C13.6534 8.19698 15.7545 6.96253 15.8518 6.90127C14.6664 5.16549 12.8279 4.92452 12.1729 4.89797C10.6062 4.74175 9.11249 5.82713 8.32052 5.82713C7.52551 5.82713 6.30258 4.92248 5.00055 4.95005C3.29291 4.97455 1.7181 5.94965 0.838932 7.48838C-0.930569 10.5954 0.389712 15.184 2.11764 17.6968C2.96335 18.9272 3.96927 20.3097 5.29463 20.2597C6.57029 20.2096 7.04892 19.4285 8.59026 19.4285C10.1286 19.4265 10.5636 20.2576 11.9072 20.2341C13.2782 20.2045 14.1482 18.9782 14.9889 17.7418C15.9552 16.3174 16.3558 14.9339 16.3761 14.8644C16.3487 14.8461 13.7061 13.8311 13.6757 10.7629ZM29.9977 3.23264C29.4866 2.73641 28.8275 2.35046 28.0385 2.08498C27.2567 1.82257 26.3177 1.68984 25.2479 1.68984C24.5626 1.68677 23.8778 1.72256 23.1965 1.79705C22.6285 1.86087 22.0625 1.94089 21.499 2.03699L21.3337 2.06558V20.1045H22.9694V12.5048C23.52 12.5997 24.1507 12.6498 24.8463 12.6498C25.7722 12.6498 26.6392 12.5303 27.424 12.2965C28.1792 12.0803 28.8824 11.7109 29.4906 11.2111C30.0765 10.7181 30.5476 10.1014 30.8708 9.40488C31.2054 8.69015 31.3757 7.84983 31.3757 6.90434C31.3757 6.12221 31.253 5.41871 31.0137 4.81323C30.7824 4.22379 30.437 3.68652 29.9977 3.23264ZM28.4949 10.1227C27.6552 10.8313 26.4668 11.1907 24.9589 11.1907C24.5442 11.1907 24.1517 11.1723 23.7917 11.1386C23.5148 11.1134 23.2403 11.067 22.9704 10.9998V3.32862C23.1864 3.2888 23.4541 3.25102 23.7684 3.21733C24.1669 3.17444 24.6466 3.153 25.1962 3.153C25.8274 3.14666 26.4564 3.2288 27.0651 3.39703C27.5838 3.5407 28.0712 3.78105 28.502 4.10564C28.8944 4.41195 29.2027 4.81016 29.4166 5.29006C29.6326 5.77608 29.7411 6.35603 29.7411 7.01257C29.7401 8.37567 29.3203 9.42224 28.4949 10.1227ZM41.1521 18.4156C41.1339 17.9051 41.1268 17.3926 41.1268 16.882V11.8677C41.1268 11.2734 41.0669 10.6669 40.9503 10.0645C40.8379 9.46507 40.6076 8.89435 40.2729 8.38588C39.9403 7.88352 39.4749 7.46898 38.8928 7.15245C38.3108 6.83695 37.5543 6.67766 36.6427 6.67766C35.9775 6.67766 35.3275 6.76445 34.714 6.93701C34.0697 7.1236 33.4603 7.41542 32.91 7.80082L32.7771 7.89373L33.3298 9.19557L33.5296 9.05977C33.9658 8.76497 34.4428 8.53652 34.9452 8.38179C35.453 8.22183 35.9818 8.13991 36.5139 8.13878C37.1953 8.13878 37.7399 8.26335 38.1282 8.5084C38.5227 8.75652 38.8198 9.06386 39.0115 9.42326C39.2112 9.79391 39.342 10.188 39.3998 10.5975C39.4617 11.0232 39.4911 11.4041 39.4911 11.7308V11.8758C37.0665 11.8646 35.1733 12.271 33.9159 13.0868C32.5966 13.9424 31.9274 15.1605 31.9274 16.7064C31.9274 17.1516 32.0065 17.5998 32.1626 18.043C32.3208 18.4912 32.5612 18.8925 32.8755 19.2355C33.1919 19.5827 33.6005 19.8655 34.0893 20.0769C34.5761 20.2903 35.149 20.3975 35.7888 20.3975C36.6948 20.4128 37.5863 20.1673 38.3584 19.6899C38.6951 19.4806 38.9942 19.2427 39.2498 18.9864C39.3587 18.8762 39.4626 18.7611 39.5611 18.6413H39.6239L39.774 20.1055H41.3509L41.3073 19.8706C41.2207 19.3901 41.1688 18.9038 41.1521 18.4156ZM39.4911 15.8467C39.4911 16.0223 39.4495 16.2633 39.3704 16.5522C39.2645 16.8649 39.1164 17.1614 38.9303 17.4334C38.5161 18.0442 37.9145 18.5014 37.2176 18.7352C36.7947 18.8753 36.3516 18.9432 35.9065 18.9364C35.6129 18.9365 35.3215 18.8864 35.0445 18.7883C34.7757 18.6942 34.5289 18.5454 34.3195 18.3513C34.1002 18.1424 33.9268 17.8896 33.8105 17.609C33.6817 17.3099 33.6168 16.9392 33.6168 16.5083C33.6168 15.8028 33.8054 15.23 34.1755 14.8113C34.5741 14.3652 35.0746 14.0236 35.6337 13.8158C36.2671 13.576 36.9299 13.4238 37.604 13.3635C38.2311 13.3026 38.8611 13.275 39.4911 13.2808V15.8467ZM52.2528 6.9707L49.2005 15.326C49.0099 15.8303 48.8324 16.3388 48.6702 16.834C48.5911 17.0811 48.5161 17.315 48.442 17.5375H48.3842C48.308 17.2937 48.2302 17.0504 48.151 16.8075C47.9928 16.3174 47.8225 15.8365 47.648 15.378L44.3839 6.9707H42.6387L47.3083 19.0579C47.431 19.3489 47.4493 19.4826 47.4493 19.5368C47.4493 19.5531 47.4432 19.6521 47.3063 20.0197C47.0513 20.6756 46.7186 21.2982 46.3156 21.8739C45.9414 22.3865 45.5987 22.8031 45.2934 23.1104C44.9385 23.4678 44.5725 23.7608 44.2003 23.9824C43.82 24.2081 43.4732 24.3908 43.166 24.5287L42.9895 24.6083L43.5584 26L43.7389 25.9326C43.887 25.8764 44.1648 25.7488 44.5867 25.5415C45.0126 25.3302 45.4841 24.9953 45.987 24.5419C46.4328 24.1467 46.8285 23.6979 47.1654 23.2054C47.5101 22.7071 47.8549 22.1221 48.1936 21.4727C48.5282 20.8243 48.8629 20.0871 49.1894 19.2795C49.5159 18.4677 49.8668 17.56 50.2288 16.5849L54 6.9707H52.2528Z" fill="white"/>
</svg>
