<svg width="107" height="28" viewBox="0 0 107 28" fill="none" xmlns="http://www.w3.org/2000/svg">
<path d="M82.9389 7.54333H77.2183C76.8818 7.54333 76.5453 7.87874 76.377 8.21414L74.0215 22.9719C74.0215 23.3073 74.1897 23.475 74.5262 23.475H77.5548C77.8913 23.475 78.0596 23.3073 78.0596 22.9719L78.7326 18.7793C78.7326 18.4439 79.0691 18.1085 79.5739 18.1085H81.4246C85.2945 18.1085 87.4818 16.2638 87.9865 12.5744C88.323 11.0651 87.9865 9.72345 87.3135 8.88495C86.304 8.04644 84.7897 7.54333 82.9389 7.54333ZM83.6119 13.0775C83.2754 15.0899 81.7611 15.0899 80.2469 15.0899H79.2373L79.9104 11.2328C79.9104 11.0651 80.0786 10.8974 80.4151 10.8974H80.7516C81.7611 10.8974 82.7707 10.8974 83.2754 11.5682C83.6119 11.7359 83.6119 12.239 83.6119 13.0775Z" fill="#FEFEFE"/>
<path d="M41.7163 7.54333H35.9956C35.6591 7.54333 35.3226 7.87874 35.1544 8.21414L32.7988 22.9719C32.7988 23.3073 32.9671 23.475 33.3036 23.475H35.9956C36.3322 23.475 36.6687 23.1396 36.8369 22.8042L37.5099 18.7793C37.5099 18.4439 37.8464 18.1085 38.3512 18.1085H40.202C44.0718 18.1085 46.2591 16.2638 46.7639 12.5744C47.1004 11.0651 46.7639 9.72345 46.0909 8.88495C45.0813 8.04644 43.7353 7.54333 41.7163 7.54333ZM42.3893 13.0775C42.0528 15.0899 40.5385 15.0899 39.0242 15.0899H38.1829L38.856 11.2328C38.856 11.0651 39.0242 10.8974 39.3607 10.8974H39.6972C40.7067 10.8974 41.7163 10.8974 42.221 11.5682C42.3893 11.7359 42.5575 12.239 42.3893 13.0775ZM59.0464 12.9098H56.3543C56.1861 12.9098 55.8496 13.0775 55.8496 13.2452L55.6813 14.0837L55.5131 13.7483C54.84 12.9098 53.6623 12.5744 52.3162 12.5744C49.2877 12.5744 46.5956 14.9222 46.0909 18.1085C45.7543 19.7856 46.2591 21.2949 47.1004 22.3011C47.9416 23.3073 49.1194 23.6427 50.6337 23.6427C53.1575 23.6427 54.5035 22.1334 54.5035 22.1334L54.3353 22.9719C54.3353 23.3073 54.5035 23.475 54.84 23.475H57.3638C57.7004 23.475 58.0369 23.1396 58.2051 22.8042L59.7194 13.4129C59.5511 13.2452 59.2146 12.9098 59.0464 12.9098ZM55.1766 18.2762C54.84 19.7856 53.6623 20.9595 51.9797 20.9595C51.1385 20.9595 50.4655 20.6241 50.1289 20.2887C49.7924 19.7856 49.6242 19.1147 49.6242 18.2762C49.7924 16.7669 51.1385 15.593 52.6527 15.593C53.494 15.593 53.9988 15.9284 54.5035 16.2638C55.0083 16.7669 55.1766 17.6054 55.1766 18.2762Z" fill="white"/>
<path d="M100.098 12.9095H97.406C97.2377 12.9095 96.9012 13.0772 96.9012 13.2449L96.733 14.0834L96.5647 13.748C95.8917 12.9095 94.7139 12.5741 93.3679 12.5741C90.3393 12.5741 87.6473 14.9219 87.1425 18.1082C86.806 19.7853 87.3108 21.2946 88.152 22.3008C88.9933 23.307 90.1711 23.6424 91.6854 23.6424C94.2092 23.6424 95.5552 22.1331 95.5552 22.1331L95.3869 22.9716C95.3869 23.307 95.5552 23.4747 95.8917 23.4747H98.4155C98.752 23.4747 99.0885 23.1393 99.2568 22.8039L100.771 13.4126C100.603 13.2449 100.435 12.9095 100.098 12.9095ZM96.2282 18.2759C95.8917 19.7853 94.7139 20.9592 93.0314 20.9592C92.1901 20.9592 91.5171 20.6238 91.1806 20.2884C90.8441 19.7853 90.6758 19.1145 90.6758 18.2759C90.8441 16.7666 92.1901 15.5927 93.7044 15.5927C94.5457 15.5927 95.0504 15.9281 95.5552 16.2635C96.2282 16.7666 96.3965 17.6051 96.2282 18.2759Z" fill="#FEFEFE"/>
<path d="M73.684 12.91H70.8237C70.4872 12.91 70.319 13.0777 70.1507 13.2454L66.4491 18.9473L64.7666 13.5808C64.5983 13.2454 64.4301 13.0777 63.9253 13.0777H61.2333C60.8968 13.0777 60.7285 13.4131 60.7285 13.7485L63.7571 22.6367L60.8968 26.6616C60.7285 26.997 60.8968 27.5001 61.2333 27.5001H63.9253C64.2618 27.5001 64.4301 27.3324 64.5983 27.1647L73.8523 13.9162C74.3571 13.4131 74.0205 12.91 73.684 12.91Z" fill="white"/>
<path d="M103.299 8.04658L100.943 23.1397C100.943 23.4751 101.112 23.6428 101.448 23.6428H103.804C104.14 23.6428 104.477 23.3074 104.645 22.972L107 8.21428C107 7.87888 106.832 7.71118 106.496 7.71118H103.804C103.635 7.54347 103.467 7.71118 103.299 8.04658Z" fill="#FEFEFE"/>
<path d="M20.3472 2.5123C19.1694 1.17069 16.9821 0.499878 13.9536 0.499878H5.54089C5.03613 0.499878 4.53137 1.00298 4.36312 1.50609L0.998047 23.475C0.998047 23.9781 1.33455 24.3135 1.67106 24.3135H6.88692L8.23295 16.0961V16.4315C8.4012 15.9284 8.90596 15.4253 9.41072 15.4253H11.9345C16.8139 15.4253 20.5155 13.4129 21.6932 7.87875V7.37564C21.525 7.37564 21.525 7.37564 21.6932 7.37564C21.8615 5.19552 21.525 3.85391 20.3472 2.5123Z" fill="white"/>
<path d="M21.5237 7.37537V7.87847C20.3459 13.5803 16.6443 15.425 11.765 15.425H9.24117C8.73641 15.425 8.23165 15.9281 8.06339 16.4313L6.38086 26.661C6.38086 26.9965 6.54911 27.3319 7.05387 27.3319H11.4285C11.9332 27.3319 12.438 26.9965 12.438 26.4933V26.3257L13.2793 21.1269V20.7915C13.2793 20.2884 13.784 19.953 14.2888 19.953H14.9618C19.1681 19.953 22.5332 18.276 23.3745 13.2449C23.711 11.2325 23.5427 9.38779 22.5332 8.21387C22.3649 7.87847 22.0284 7.54307 21.5237 7.37537Z" fill="#C0BFC0"/>
<path d="M20.3467 6.87261C20.1784 6.87261 20.0102 6.70491 19.8419 6.70491C19.6737 6.70491 19.5054 6.70491 19.3372 6.53721C18.6641 6.36951 17.9911 6.36951 17.1499 6.36951H10.588C10.4197 6.36951 10.2515 6.36951 10.0832 6.53721C9.7467 6.70491 9.57845 7.04031 9.57845 7.37572L8.23242 16.0962V16.4316C8.40068 15.9285 8.90544 15.4254 9.4102 15.4254H11.934C16.8134 15.4254 20.5149 13.413 21.6927 7.87882C21.6927 7.71112 21.6927 7.54342 21.861 7.37572C21.5245 7.20802 21.3562 7.04031 21.0197 7.04031C20.5149 6.87261 20.5149 6.87261 20.3467 6.87261Z" fill="#ECEBEB"/>
</svg>
