<svg width="532" height="407" viewBox="0 0 532 407" fill="none" xmlns="http://www.w3.org/2000/svg">
<circle opacity="0.6" cx="328.5" cy="203.5" r="203" fill="white" stroke="#FAFAFA"/>
<circle cx="54" cy="343" r="53.5" transform="rotate(180 54 343)" fill="white" stroke="#FAFAFA"/>
<path d="M430.825 293.819C430.021 296.201 430.884 298.583 431.242 300.935C431.539 302.93 431.301 304.687 430.199 306.414C429.604 307.337 428.77 308.289 428.532 309.391C428.234 310.761 429.247 311.713 429.693 312.904C430.14 314.095 429.842 315.793 428.353 316.001C428.413 315.763 428.473 315.495 428.562 315.257C429.247 316.001 429.455 317.103 428.83 317.966C428.353 318.621 427.341 318.681 427.073 319.544C426.805 320.408 427.252 321.509 427.401 322.343C427.966 325.827 425.852 328.864 423.351 331.037C420.433 333.598 417.218 335.682 414.598 338.57C411.858 341.577 409.595 345.031 407.898 348.723C407.66 349.229 406.886 348.783 407.124 348.277C409.982 342.113 414.3 336.873 419.719 332.764C422.726 330.501 426.478 327.821 426.626 323.653C426.656 322.313 426.001 320.973 426.18 319.633C426.239 319.217 426.359 318.8 426.656 318.472C427.311 317.698 429.247 317.222 427.966 315.852C427.758 315.644 427.817 315.167 428.175 315.108C430.199 314.81 428.353 312.249 428.026 311.445C427.758 310.85 427.609 310.254 427.669 309.599C427.817 307.902 429.187 306.622 429.931 305.163C431.837 301.471 428.711 297.362 430.021 293.521C430.14 293.045 431.003 293.283 430.825 293.819Z" fill="#DBFBB9"/>
<path d="M430.198 294.683C409.683 303.764 404.651 327.852 401.078 347.681C400.989 348.247 400.125 348.009 400.215 347.443C403.162 330.978 406.586 313.232 419.122 301.114C422.218 298.107 425.791 295.635 429.751 293.908C430.257 293.67 430.734 294.444 430.198 294.683Z" fill="#DBFBB9"/>
<path d="M428.71 296.767C417.753 310.671 409.952 326.958 405.962 344.198C405.843 344.763 404.98 344.525 405.099 343.959C409.118 326.541 417.009 310.165 428.055 296.112C428.442 295.665 429.067 296.32 428.71 296.767Z" fill="#DBFBB9"/>
<path d="M426.298 311.684C419.837 314.631 414.656 319.812 411.679 326.273C411.441 326.809 410.666 326.333 410.905 325.827C413.912 319.246 419.241 313.917 425.822 310.909C426.387 310.671 426.834 311.445 426.298 311.684Z" fill="#DBFBB9"/>
<path d="M404.054 328C406.019 319.515 399.29 312.666 395.121 306.116C393.097 302.93 391.4 299.506 390.119 295.963C389.494 294.236 389.047 292.449 388.511 290.693C388.005 289.025 387.32 287.149 385.504 286.643C385.683 286.584 385.832 286.494 386.01 286.435C385.326 287.775 384.968 289.234 385.117 290.752C385.206 291.705 385.921 292.747 385.832 293.64C385.772 294.176 385.296 295.01 385.117 295.546C384.909 296.231 384.76 296.916 384.67 297.6C384.551 298.434 384.492 299.268 384.492 300.101C384.492 300.727 384.909 302.424 384.7 302.9C384.938 302.394 385.593 302.781 385.504 303.258C384.67 308.319 383.479 313.47 383.182 318.562C382.884 323.683 384.938 328.03 387.529 332.318C392.114 339.91 396.997 348.009 396.074 357.269C396.015 357.834 395.121 357.834 395.181 357.269C396.193 347.116 390.119 338.957 385.445 330.561C383.241 326.601 381.961 322.552 382.318 317.996C382.705 312.994 383.837 307.992 384.641 303.019C384.909 303.138 385.177 303.258 385.445 303.377C385.415 303.436 385.385 303.496 385.355 303.555C385.296 303.704 385.117 303.764 384.968 303.764C383.867 303.794 383.747 302.543 383.658 301.709C383.42 299.655 383.599 297.571 384.135 295.605C384.343 294.861 384.849 294.027 384.76 293.253C384.67 292.539 384.283 291.794 384.194 291.02C383.986 289.263 384.373 287.566 385.177 286.018C385.266 285.839 385.504 285.75 385.683 285.81C388.75 286.703 389.226 290.335 390 292.956C391.34 297.452 393.305 301.739 395.836 305.699C400.183 312.517 406.912 319.455 404.858 328.268C404.768 328.804 403.905 328.566 404.054 328Z" fill="#DBFBB9"/>
<path d="M387.498 293.908C388.005 302.9 391.637 311.207 394.585 319.574C397.562 328.06 399.438 336.813 400.093 345.776C400.123 346.341 399.23 346.341 399.2 345.776C398.515 336.516 396.461 327.524 393.364 318.8C390.476 310.671 387.111 302.602 386.605 293.908C386.575 293.342 387.469 293.342 387.498 293.908Z" fill="#DBFBB9"/>
<path d="M400.126 314.364C399.709 318.443 398.608 322.373 396.791 326.065C396.523 326.571 395.779 326.124 396.017 325.618C397.744 322.075 398.846 318.294 399.233 314.393C399.292 313.798 400.186 313.798 400.126 314.364Z" fill="#DBFBB9"/>
<path d="M393.125 318.621C390.029 316.745 387.409 314.304 385.324 311.356C384.997 310.88 385.771 310.433 386.099 310.909C388.094 313.738 390.624 316.06 393.602 317.847C394.078 318.145 393.632 318.919 393.125 318.621Z" fill="#DBFBB9"/>
<path d="M409.03 346.341C407.125 349.885 405.934 353.696 405.487 357.686C405.428 358.251 404.534 358.251 404.594 357.686C405.07 353.547 406.291 349.587 408.256 345.895C408.524 345.389 409.298 345.835 409.03 346.341Z" fill="#DBFBB9"/>
<path d="M401.555 345.776C400.811 349.438 400.394 353.16 400.334 356.911C400.334 357.477 399.441 357.477 399.441 356.911C399.501 353.07 399.918 349.289 400.692 345.537C400.811 344.972 401.674 345.21 401.555 345.776Z" fill="#DBFBB9"/>
<path d="M102.436 320.586C102.794 321.777 103.359 323.057 103.538 324.308C103.627 324.814 103.657 325.291 103.33 325.707C102.913 326.214 102.198 326.273 101.603 326.362C100.263 326.601 98.9229 326.809 97.583 326.988C92.7595 327.643 87.8765 327.911 83.0232 328C77.9913 328.089 72.9594 327.94 67.8977 327.762C66.5876 327.702 65.0989 327.851 63.8484 327.613C63.4911 327.553 63.104 327.553 62.8658 327.226C62.3299 326.541 63.0742 325.946 63.7591 326.303C63.9079 326.392 64.027 326.63 63.9675 326.809C63.9377 326.839 63.9377 326.898 63.9079 326.928C63.6995 327.464 62.836 327.226 63.0445 326.69C63.0742 326.66 63.0742 326.601 63.104 326.571C63.1636 326.749 63.2529 326.898 63.3124 327.077C63.4911 326.958 63.6697 326.839 63.8484 326.72C64.1461 326.72 64.4141 326.749 64.7118 326.749C65.1882 326.779 65.6646 326.779 66.1708 326.809C67.0343 326.839 67.9275 326.869 68.791 326.898C70.5477 326.958 72.2746 327.017 74.0313 327.047C77.7234 327.137 81.3856 327.166 85.0777 327.047C88.6506 326.958 92.2236 326.72 95.7668 326.303C97.6426 326.094 99.5184 325.826 101.394 325.499C102.615 325.291 102.764 324.755 102.436 323.593C102.168 322.67 101.871 321.718 101.603 320.795C101.424 320.259 102.287 320.02 102.436 320.586Z" fill="#E8E8E8"/>
<path d="M101.605 321.063C101.128 319.604 97.8532 319.961 96.692 319.931C95.0544 319.872 93.387 319.812 91.7494 319.782C88.2658 319.723 84.7821 319.723 81.2687 319.842C77.8744 319.931 74.4801 320.11 71.1156 320.378C69.5078 320.497 67.7511 320.467 66.2028 320.824C64.595 321.212 64.595 321.986 64.3568 323.266C64.1781 324.189 63.9995 325.112 63.8208 326.035C63.7017 326.601 62.8382 326.363 62.9573 325.797C63.1658 324.695 63.404 323.564 63.6124 322.462C63.7315 321.807 63.8208 321.063 64.327 320.557C65.2798 319.604 67.3342 319.842 68.555 319.723C72.9021 319.336 77.2492 319.068 81.6261 318.949C85.8838 318.83 90.1714 318.83 94.4291 318.978C96.3049 319.038 98.2403 319.008 100.116 319.246C101.188 319.395 102.171 319.753 102.528 320.854C102.647 321.39 101.783 321.599 101.605 321.063Z" fill="#E8E8E8"/>
<path d="M100.739 326.006C99.4287 333.211 98.5056 340.476 97.9399 347.771C97.9102 348.039 97.7613 348.188 97.4933 348.217C88.7396 349.021 79.9561 349.23 71.2023 348.843C70.6366 348.813 70.6366 347.92 71.2023 347.949C79.9859 348.336 88.7693 348.128 97.4933 347.324C97.3444 347.473 97.1956 347.622 97.0467 347.771C97.6124 340.387 98.5354 333.062 99.8753 325.767C99.9944 325.202 100.858 325.44 100.739 326.006Z" fill="#E8E8E8"/>
<path d="M66.3496 327.792C67.5406 334.58 68.9996 341.339 70.7563 348.009C70.9051 348.574 70.0417 348.813 69.8928 348.247C68.1659 341.577 66.6771 334.819 65.4861 328.03C65.3968 327.464 66.2603 327.226 66.3496 327.792Z" fill="#E8E8E8"/>
<path d="M120.812 272.441C118.847 277.771 117.417 283.249 116.494 288.817C116.465 288.966 116.316 289.085 116.197 289.115C115.244 289.383 114.291 289.651 113.368 289.919C113.457 289.74 113.577 289.561 113.666 289.383C114.202 291.824 114.44 294.474 112.147 296.023C111.403 296.529 110.629 296.826 110.45 297.809C110.331 298.524 110.391 299.238 110.242 299.953C109.944 301.471 109.319 302.93 108.426 304.181C106.431 306.95 103.304 308.141 100.505 309.898C97.4089 311.863 94.9971 314.691 93.3893 317.966C93.1511 318.473 92.377 318.026 92.6151 317.52C93.9252 314.84 95.7713 312.428 98.0937 310.553C100.654 308.468 103.959 307.396 106.371 305.163C107.651 304.002 108.574 302.454 109.11 300.816C109.378 299.983 109.527 299.119 109.557 298.256C109.587 297.779 109.497 297.392 109.706 296.975C110.212 295.844 111.671 295.516 112.445 294.623C113.606 293.283 113.16 291.199 112.832 289.621C112.773 289.383 112.892 289.145 113.13 289.085C113.725 288.906 114.916 288.817 115.393 288.46C115.988 288.013 115.958 286.822 116.078 286.108C116.375 284.53 116.733 282.981 117.12 281.403C117.894 278.277 118.847 275.24 119.948 272.233C120.127 271.667 120.99 271.905 120.812 272.441Z" fill="#DBFBB9"/>
<path d="M119.86 272.471C109.618 275.478 100.834 282.475 95.5938 291.765C95.3258 292.271 94.5517 291.824 94.8197 291.318C100.149 281.82 109.141 274.674 119.622 271.607C120.188 271.429 120.426 272.292 119.86 272.471Z" fill="#DBFBB9"/>
<path d="M96.6592 290.484C91.1508 298.672 87.4588 307.932 85.7914 317.669C85.7021 318.234 84.8386 317.996 84.9279 317.43C86.5953 307.634 90.3469 298.285 95.885 290.038C96.2125 289.561 96.9867 290.008 96.6592 290.484Z" fill="#DBFBB9"/>
<path d="M117.894 274.972C106.431 286.584 96.903 299.953 89.6083 314.542C89.3403 315.048 88.5661 314.602 88.8341 314.096C96.1289 299.446 105.746 286.018 117.239 274.346C117.686 273.959 118.311 274.585 117.894 274.972Z" fill="#DBFBB9"/>
<path d="M115.777 285.392C108.184 289.978 101.515 295.933 96.1255 302.989C95.7682 303.436 94.9941 302.989 95.3514 302.543C100.83 295.337 107.589 289.263 115.33 284.618C115.807 284.32 116.253 285.095 115.777 285.392Z" fill="#DBFBB9"/>
<path d="M108.215 277.532C106.28 281.731 105.059 286.197 104.523 290.812C104.464 291.377 103.571 291.377 103.63 290.812C104.166 286.048 105.446 281.463 107.441 277.086C107.709 276.55 108.454 276.996 108.215 277.532Z" fill="#DBFBB9"/>
<path d="M87.4327 305.878C88.2664 286.048 69.419 273.364 60.8439 257.434C61.1119 257.345 61.4097 257.285 61.6776 257.196C61.6776 259.697 61.7074 262.198 61.7074 264.699C61.7074 265.86 61.7074 267.022 61.7372 268.153C61.7372 269.344 61.2905 273.393 63.6725 272.649C64.0298 272.53 64.3871 272.977 64.1787 273.304C62.9281 275.21 62.6304 277.562 63.4343 279.735C63.8214 280.778 64.2382 281.165 64.3573 282.296C64.4764 283.547 64.5955 284.827 64.7146 286.077C64.9528 288.608 65.2208 291.109 65.459 293.64C65.6972 296.022 65.6674 298.642 66.3522 300.935C67.0073 303.198 68.8831 304.478 70.8482 305.58C72.5751 306.592 74.3021 307.575 75.8801 308.796C78.8576 311.148 81.1502 314.453 81.0609 318.353C81.0609 318.919 80.1677 318.919 80.1677 318.353C80.2868 313.172 76.1183 309.689 72.0392 307.277C70.4016 306.294 68.6151 305.461 67.2455 304.091C65.9056 302.751 65.3994 301.114 65.1612 299.268C64.5062 294.087 64.1489 288.876 63.6427 283.696C63.5236 282.475 63.3152 281.552 62.809 280.45C62.4815 279.706 62.2731 278.902 62.154 278.098C61.9456 276.222 62.3922 274.406 63.4343 272.828C63.613 273.036 63.7618 273.274 63.9405 273.483C61.0226 274.436 60.9035 270.535 60.9035 268.719C60.8737 264.878 60.8737 261.037 60.8439 257.166C60.8439 256.72 61.4692 256.541 61.6776 256.928C70.342 273.006 89.2489 285.75 88.3855 305.818C88.3259 306.443 87.4327 306.443 87.4327 305.878Z" fill="#DBFBB9"/>
<path d="M63.3748 265.474C67.9005 273.096 72.4263 280.718 76.3565 288.668C78.2621 292.509 79.989 296.409 81.5373 300.399C83.0558 304.389 84.2468 308.528 84.0086 312.815C83.9788 313.381 83.0856 313.381 83.1154 312.815C83.3834 308.409 82.0733 304.181 80.4952 300.101C78.9171 296.022 77.1009 292.003 75.1358 288.102C71.3246 280.51 66.9775 273.185 62.6602 265.89C62.3029 265.414 63.077 264.967 63.3748 265.474Z" fill="#DBFBB9"/>
<path d="M80.8499 287.536C81.5645 290.663 81.7133 293.819 81.2667 296.975C81.1774 297.541 80.3139 297.302 80.4032 296.737C80.8201 293.729 80.6712 290.722 79.9864 287.775C79.8673 287.209 80.7308 286.971 80.8499 287.536Z" fill="#DBFBB9"/>
<path d="M72.0716 272.262C72.5182 274.823 72.4587 277.383 71.893 279.914C71.7739 280.48 70.9104 280.242 71.0295 279.676C71.5655 277.294 71.625 274.912 71.2082 272.5C71.1189 271.935 71.9525 271.696 72.0716 272.262Z" fill="#DBFBB9"/>
<path d="M64.1492 293.462C59.2959 287.745 55.1275 281.522 51.7034 274.852C51.9713 274.823 52.2393 274.793 52.5073 274.733C50.8994 280.301 51.227 286.048 52.4477 291.645C53.0432 294.355 53.8173 297.034 54.651 299.684C55.0381 300.905 55.455 302.126 55.8718 303.376C56.3184 304.716 56.7353 306.622 58.3729 306.92C58.5813 306.949 58.7004 307.158 58.7004 307.336C58.76 308.855 58.8493 310.493 59.5341 311.892C60.3975 313.678 62.1245 314.155 63.911 314.661C66.5907 315.405 69.33 316.18 71.2058 318.353C71.5928 318.77 70.9378 319.425 70.5805 318.978C69.2704 317.46 67.5435 316.686 65.6676 316.09C64.0896 315.584 62.3031 315.376 60.8442 314.542C58.2836 313.113 57.956 309.957 57.8369 307.336C57.956 307.485 58.0454 307.634 58.1645 307.753C55.842 307.366 55.3061 304.389 54.6808 302.543C53.609 299.387 52.5966 296.201 51.8523 292.955C50.4231 286.881 49.9169 280.539 51.6736 274.465C51.7629 274.108 52.2989 274.019 52.4775 274.346C55.842 280.956 59.9509 287.12 64.7744 292.777C65.1615 293.283 64.5362 293.908 64.1492 293.462Z" fill="#DBFBB9"/>
<path d="M54.2629 284.023C56.5555 291.318 60.3965 298.106 65.4879 303.793C69.6266 308.378 75.9686 312.368 76.6534 319.068C76.713 319.633 75.8197 319.633 75.7602 319.068C75.4029 315.405 73.0209 312.577 70.5198 310.076C68.0485 307.604 65.4879 305.282 63.2846 302.572C58.8482 297.153 55.5134 290.931 53.4292 284.261C53.2208 283.725 54.0842 283.487 54.2629 284.023Z" fill="#DBFBB9"/>
<path d="M216.478 331.722C199.745 331.722 183.041 331.722 166.308 331.722C164.581 331.722 164.581 329.042 166.308 329.042C183.041 329.042 199.745 329.042 216.478 329.042C218.205 329.042 218.205 331.722 216.478 331.722Z" fill="#161616"/>
<path d="M160.232 331.722C156.629 331.722 153.056 331.722 149.454 331.722C147.727 331.722 147.727 329.042 149.454 329.042C153.056 329.042 156.629 329.042 160.232 329.042C161.959 329.042 161.959 331.722 160.232 331.722Z" fill="#161616"/>
<path d="M138.642 329.846C136.469 329.846 134.265 329.846 132.092 329.846C130.365 329.846 130.365 327.167 132.092 327.167C134.265 327.167 136.469 327.167 138.642 327.167C140.369 327.167 140.369 329.846 138.642 329.846Z" fill="#161616"/>
<path d="M159.752 354.231C139.743 354.231 119.735 354.231 99.726 354.231C97.9991 354.231 97.9991 351.552 99.726 351.552C119.735 351.552 139.743 351.552 159.752 351.552C161.479 351.552 161.479 354.231 159.752 354.231Z" fill="#6C6C73"/>
<path d="M95.9782 354.231C90.9761 354.231 85.974 354.231 80.9718 354.231C79.2449 354.231 79.2449 351.552 80.9718 351.552C85.974 351.552 90.9761 351.552 95.9782 351.552C97.7052 351.552 97.7052 354.231 95.9782 354.231Z" fill="#6C6C73"/>
<path d="M71.5915 353.785C64.2372 353.785 56.9126 353.785 49.5583 353.785C47.8314 353.785 47.8314 351.105 49.5583 351.105C56.9126 351.105 64.2372 351.105 71.5915 351.105C73.3185 351.105 73.3185 353.785 71.5915 353.785Z" fill="#6C6C73"/>
<path d="M40.654 352.356C39.1057 352.356 37.5277 352.356 35.9794 352.356C34.2525 352.356 34.2525 349.676 35.9794 349.676C37.5277 349.676 39.1057 349.676 40.654 349.676C42.381 349.676 42.381 352.356 40.654 352.356Z" fill="#6C6C73"/>
<path d="M447.854 359.948C423.737 359.353 399.619 358.906 375.502 358.638C368.594 358.549 361.657 358.489 354.749 358.43C354.183 358.43 354.183 357.537 354.749 357.537C378.866 357.715 402.984 358.073 427.101 358.579C434.009 358.728 440.946 358.876 447.854 359.055C448.45 359.085 448.45 359.978 447.854 359.948Z" fill="#3C3C40"/>
<path d="M382.737 364.921C364.455 364.147 346.144 364.266 327.892 365.278C327.326 365.308 327.326 364.415 327.892 364.385C346.144 363.373 364.455 363.253 382.737 364.028C383.332 364.057 383.332 364.951 382.737 364.921Z" fill="#3C3C40"/>
<path d="M93.6855 327.732C94.8467 330.472 96.3652 333.002 98.241 335.325C98.5983 335.771 97.973 336.397 97.6157 335.95C95.6208 333.509 94.0428 330.859 92.822 327.97C92.6136 327.435 93.4771 327.196 93.6855 327.732Z" fill="#E8E8E8"/>
<path d="M88.0609 327.077C90.4131 332.288 93.7776 336.962 97.9758 340.863C98.3927 341.25 97.7674 341.875 97.3506 341.488C93.0928 337.558 89.6985 332.824 87.2867 327.524C87.0486 327.018 87.8227 326.571 88.0609 327.077Z" fill="#E8E8E8"/>
<path d="M82.2215 327.375C85.9434 334.938 91.273 341.548 97.9128 346.758C98.3594 347.116 97.7341 347.741 97.2875 347.383C90.618 342.113 85.2288 335.414 81.4772 327.792C81.2092 327.315 81.9833 326.869 82.2215 327.375Z" fill="#E8E8E8"/>
<path d="M76.7753 327.613C80.8246 334.967 85.8565 341.667 91.8115 347.592C92.2283 348.009 91.5733 348.634 91.1862 348.217C85.2015 342.262 80.0803 335.474 76.0309 328.06C75.7034 327.553 76.4775 327.107 76.7753 327.613Z" fill="#E8E8E8"/>
<path d="M71.9213 327.405C75.792 334.908 80.5858 341.875 86.2727 348.128C86.6598 348.545 86.0345 349.2 85.6475 348.753C79.9307 342.441 75.0477 335.444 71.1472 327.851C70.8792 327.345 71.6534 326.898 71.9213 327.405Z" fill="#E8E8E8"/>
<path d="M67.992 327.435C71.5351 334.997 76.1502 342.024 81.718 348.247C82.1051 348.664 81.4799 349.319 81.0928 348.872C75.4654 342.56 70.7908 335.503 67.2178 327.851C66.9498 327.375 67.724 326.899 67.992 327.435Z" fill="#E8E8E8"/>
<path d="M67.5121 333.211C70.2812 338.749 73.6755 343.93 77.6355 348.694C77.9928 349.14 77.3675 349.765 77.0102 349.319C72.9907 344.495 69.5368 339.255 66.738 333.657C66.47 333.151 67.2442 332.705 67.5121 333.211Z" fill="#E8E8E8"/>
<path d="M327.684 77.4466C327.684 82.5083 327.684 87.57 327.684 92.6019C327.684 93.1676 326.79 93.1676 326.79 92.6019C326.79 87.5402 326.79 82.4785 326.79 77.4466C326.79 76.8511 327.684 76.8511 327.684 77.4466Z" fill="#E8E8E8"/>
<path d="M343.94 93.4357C329.023 93.4357 314.136 93.4357 299.219 93.4357C298.653 93.4357 298.653 92.5425 299.219 92.5425C314.136 92.5425 329.023 92.5425 343.94 92.5425C344.536 92.5425 344.536 93.4357 343.94 93.4357Z" fill="#E8E8E8"/>
<path d="M312.496 94.5371C312.496 99.2117 312.496 103.857 312.496 108.531C312.496 109.097 311.603 109.097 311.603 108.531C311.603 103.857 311.603 99.2117 311.603 94.5371C311.603 93.9714 312.496 93.9714 312.496 94.5371Z" fill="#E8E8E8"/>
<path d="M335.779 110.169C321.249 110.169 306.749 110.169 292.219 110.169C291.653 110.169 291.653 109.276 292.219 109.276C306.749 109.276 321.249 109.276 335.779 109.276C336.345 109.276 336.345 110.169 335.779 110.169Z" fill="#E8E8E8"/>
<path d="M336.613 110.496C336.613 114.01 336.613 117.493 336.613 121.007C336.613 121.572 335.72 121.572 335.72 121.007C335.72 117.493 335.72 114.01 335.72 110.496C335.72 109.931 336.613 109.901 336.613 110.496Z" fill="#E8E8E8"/>
<path d="M120.569 234.478C111.547 234.478 102.555 234.478 93.5337 234.478C92.9679 234.478 92.9679 233.585 93.5337 233.585C102.555 233.585 111.547 233.585 120.569 233.585C121.164 233.585 121.164 234.478 120.569 234.478Z" fill="#E8E8E8"/>
<path d="M106.277 234.835C106.277 238.379 106.277 241.922 106.277 245.495C106.277 246.06 105.384 246.06 105.384 245.495C105.384 241.952 105.384 238.408 105.384 234.835C105.384 234.27 106.277 234.27 106.277 234.835Z" fill="#E8E8E8"/>
<path d="M122.626 245.942C112.235 245.942 101.874 245.942 91.4822 245.942C90.9165 245.942 90.9165 245.048 91.4822 245.048C101.874 245.048 112.235 245.048 122.626 245.048C123.192 245.048 123.192 245.942 122.626 245.942Z" fill="#E8E8E8"/>
<path d="M114.465 245.911C114.465 248.919 114.465 251.926 114.465 254.933C114.465 255.499 113.572 255.499 113.572 254.933C113.572 251.926 113.572 248.919 113.572 245.911C113.572 245.316 114.465 245.316 114.465 245.911Z" fill="#E8E8E8"/>
<path d="M94.8164 246.299C94.8164 249.306 94.8164 252.313 94.8164 255.32C94.8164 255.886 93.9232 255.886 93.9232 255.32C93.9232 252.313 93.9232 249.306 93.9232 246.299C93.9232 245.733 94.8164 245.733 94.8164 246.299Z" fill="#E8E8E8"/>
<path d="M385.592 332.079C372.075 332.079 358.557 332.079 345.039 332.079C344.474 332.079 344.474 331.186 345.039 331.186C358.557 331.186 372.075 331.186 385.592 331.186C386.188 331.186 386.188 332.079 385.592 332.079Z" fill="#E8E8E8"/>
<path d="M447.854 332.645C439.339 332.645 430.823 332.645 422.308 332.645C421.742 332.645 421.742 331.752 422.308 331.752C430.823 331.752 439.339 331.752 447.854 331.752C448.45 331.752 448.45 332.645 447.854 332.645Z" fill="#E8E8E8"/>
<path d="M394.108 261.96C380.59 261.96 367.073 261.96 353.555 261.96C352.989 261.96 352.989 261.067 353.555 261.067C367.073 261.067 380.59 261.067 394.108 261.067C394.704 261.067 394.704 261.96 394.108 261.96Z" fill="#E8E8E8"/>
<path d="M371.449 262.318C371.449 265.414 371.449 268.541 371.449 271.637C371.449 272.203 370.556 272.203 370.556 271.637C370.556 268.541 370.556 265.414 370.556 262.318C370.556 261.752 371.449 261.752 371.449 262.318Z" fill="#E8E8E8"/>
<path d="M379.108 272.083C368.568 272.083 358.028 272.083 347.487 272.083C346.922 272.083 346.922 271.19 347.487 271.19C358.028 271.19 368.568 271.19 379.108 271.19C379.704 271.19 379.704 272.083 379.108 272.083Z" fill="#E8E8E8"/>
<path d="M355.223 272.441C355.223 275.805 355.223 279.199 355.223 282.564C355.223 283.13 354.329 283.13 354.329 282.564C354.329 279.199 354.329 275.805 354.329 272.441C354.329 271.875 355.223 271.875 355.223 272.441Z" fill="#E8E8E8"/>
<path d="M136.471 335.265C125.008 335.265 113.575 335.265 102.111 335.265C101.546 335.265 101.546 334.372 102.111 334.372C113.575 334.372 125.008 334.372 136.471 334.372C137.067 334.372 137.067 335.265 136.471 335.265Z" fill="#E8E8E8"/>
<path d="M62.9273 332.02C50.7494 332.02 38.6014 332.02 26.4236 332.02C25.8579 332.02 25.8579 331.126 26.4236 331.126C38.6014 331.126 50.7494 331.126 62.9273 331.126C63.493 331.126 63.493 332.02 62.9273 332.02Z" fill="#E8E8E8"/>
<path d="M179.883 247.311C179.883 253.028 179.883 258.774 179.883 264.491C179.883 265.057 178.99 265.057 178.99 264.491C178.99 258.774 178.99 253.028 178.99 247.311C178.99 246.715 179.883 246.715 179.883 247.311Z" fill="#E8E8E8"/>
<path d="M178.9 255.797C173.54 255.797 168.151 255.797 162.792 255.797C162.226 255.797 162.226 254.903 162.792 254.903C168.151 254.903 173.54 254.903 178.9 254.903C179.466 254.903 179.466 255.797 178.9 255.797Z" fill="#E8E8E8"/>
<path d="M163.773 249.454C163.773 254.814 163.773 260.203 163.773 265.562C163.773 266.128 162.88 266.128 162.88 265.562C162.88 260.203 162.88 254.814 162.88 249.454C162.88 248.859 163.773 248.859 163.773 249.454Z" fill="#E8E8E8"/>
<path d="M174.046 267.081C165.649 267.081 157.223 267.081 148.826 267.081C148.261 267.081 148.261 266.188 148.826 266.188C157.223 266.188 165.649 266.188 174.046 266.188C174.641 266.188 174.641 267.081 174.046 267.081Z" fill="#E8E8E8"/>
<path d="M156.777 268.242C156.777 272.351 156.777 276.46 156.777 280.599C156.777 281.164 155.884 281.164 155.884 280.599C155.884 276.49 155.884 272.381 155.884 268.242C155.884 267.647 156.777 267.647 156.777 268.242Z" fill="#E8E8E8"/>
<path d="M224.727 100.105C224.727 109.424 224.727 118.744 224.727 128.063C224.727 128.629 223.833 128.629 223.833 128.063C223.833 118.744 223.833 109.424 223.833 100.105C223.833 99.5392 224.727 99.5392 224.727 100.105Z" fill="#E8E8E8"/>
<path d="M223.802 100.045C209.153 100.045 194.504 100.045 179.885 100.045C179.319 100.045 179.319 99.1521 179.885 99.1521C194.534 99.1521 209.183 99.1521 223.802 99.1521C224.368 99.1521 224.368 100.045 223.802 100.045Z" fill="#E8E8E8"/>
<path d="M180.27 99.9563C180.27 109.186 180.27 118.417 180.27 127.617C180.27 128.183 179.376 128.183 179.376 127.617C179.376 118.387 179.376 109.157 179.376 99.9563C179.376 99.3906 180.27 99.3906 180.27 99.9563Z" fill="#E8E8E8"/>
<path d="M223.892 128.808C209.094 128.808 194.266 128.808 179.468 128.808C178.903 128.808 178.903 127.915 179.468 127.915C194.266 127.915 209.094 127.915 223.892 127.915C224.458 127.915 224.458 128.808 223.892 128.808Z" fill="#E8E8E8"/>
<path d="M204.806 99.1223C204.955 98.3184 204.985 97.5145 204.836 96.7106C204.687 95.996 204.33 94.5668 203.496 95.4601C203.08 95.9067 203.05 96.8892 202.931 97.455C202.782 98.1993 202.633 98.9735 202.484 99.7178C202.365 100.284 201.501 100.045 201.621 99.4796C201.889 98.1695 202.008 96.7106 202.514 95.4601C202.782 94.805 203.288 94.0309 204.092 94.0606C204.985 94.0904 205.342 95.0432 205.551 95.7876C205.908 96.9488 205.908 98.1398 205.67 99.301C205.581 99.9263 204.717 99.6881 204.806 99.1223Z" fill="#E8E8E8"/>
<path d="M222.133 103.321C222.133 110.556 222.133 117.791 222.133 125.027C222.133 125.592 221.24 125.592 221.24 125.027C221.24 117.791 221.24 110.556 221.24 103.321C221.24 102.725 222.133 102.725 222.133 103.321Z" fill="#E8E8E8"/>
<path d="M221.447 103.261C208.584 103.261 195.722 103.261 182.889 103.261C182.323 103.261 182.323 102.368 182.889 102.368C195.751 102.368 208.614 102.368 221.447 102.368C222.013 102.368 222.013 103.261 221.447 103.261Z" fill="#E8E8E8"/>
<path d="M182.832 102.577C182.832 110.288 182.832 118 182.832 125.712C182.832 126.277 181.939 126.277 181.939 125.712C181.939 118 181.939 110.288 181.939 102.577C181.939 102.011 182.832 102.011 182.832 102.577Z" fill="#E8E8E8"/>
<path d="M220.974 125.681C208.201 125.681 195.428 125.681 182.654 125.681C182.088 125.681 182.088 124.788 182.654 124.788C195.428 124.788 208.201 124.788 220.974 124.788C221.54 124.788 221.54 125.681 220.974 125.681Z" fill="#E8E8E8"/>
<path d="M221.476 117.911C215.64 116.332 209.804 114.963 203.82 116.66C198.877 118.089 194.351 120.739 189.23 121.603C188.664 121.692 188.426 120.828 188.992 120.739C194.441 119.816 199.204 116.868 204.534 115.558C210.34 114.129 216.087 115.529 221.684 117.047C222.28 117.196 222.042 118.059 221.476 117.911Z" fill="#E8E8E8"/>
<path d="M200.99 117.851C195.481 117.226 190.003 115.052 184.435 116.213C183.869 116.332 183.631 115.469 184.197 115.35C189.884 114.159 195.392 116.303 200.99 116.928C201.555 117.017 201.555 117.94 200.99 117.851Z" fill="#E8E8E8"/>
<path d="M200.04 111.509C200.725 110.854 200.784 109.692 200.07 109.037C199.296 108.293 197.896 108.501 197.301 109.365C196.675 110.228 196.824 111.538 197.628 112.223C198.611 113.057 199.921 112.402 200.606 111.538C200.933 111.092 201.737 111.538 201.38 111.985C200.427 113.265 198.67 114.099 197.241 113.057C195.901 112.074 195.693 110.02 196.705 108.74C197.598 107.608 199.444 107.37 200.576 108.293C201.767 109.246 201.797 111.151 200.695 112.193C200.248 112.521 199.623 111.896 200.04 111.509Z" fill="#E8E8E8"/>
<path d="M164.578 310.165C163.625 308.2 162.047 305.788 159.487 305.074C155.556 303.972 152.758 307.902 146.892 310.761C136.292 315.941 127.062 312.071 126.199 314.959C125.514 317.251 131.022 320.973 134.595 322.76C141.771 326.333 155.318 329.221 161.571 321.569C162.494 320.437 165.055 316.894 164.578 310.165Z" fill="#3C3C40" stroke="#3C3C40" stroke-width="3" stroke-miterlimit="10"/>
<path d="M172.677 314.036C173.958 312.815 174.524 311.267 174.762 310.135C172.529 302.662 167.884 296.975 162.465 296.35C158.981 295.963 155.557 297.69 152.877 299.059C148.5 301.262 148.411 302.721 144.183 305.342C137.067 309.778 132.005 308.974 131.589 311.326C131.201 313.53 135.191 316.567 139.092 317.936C146.922 320.676 149.394 314.989 161.572 315.525C165.889 315.733 169.908 316.656 172.677 314.036Z" fill="#6C6C73" stroke="#6C6C73" stroke-width="3" stroke-miterlimit="10"/>
<path d="M226.39 265.444C225.795 269.136 224.872 275.12 223.919 282.505C220.286 310.254 221.745 314.304 217.398 320.08C207.364 333.419 185.003 331.156 183.247 330.948C170.503 329.489 161.869 322.79 158.415 319.782C160.38 316.358 162.345 312.964 164.31 309.54C174.136 309.629 183.961 309.748 193.817 309.838C191.703 302.215 189.231 289.412 191.345 273.84C192.953 261.93 196.645 252.521 199.742 246.209C207.841 246.805 217.19 248.145 227.373 250.854C232.286 252.164 236.841 253.653 241.039 255.201C241.248 260.829 241.516 268.838 241.665 278.485C242.171 314.989 240.087 322.492 234.846 326.303C232.286 328.149 227.819 328.298 219.006 328.477C203.672 328.804 190.69 324.784 175.535 320.08C172.111 319.008 169.342 318.085 167.645 317.519C168.508 310.701 169.402 303.912 170.265 297.094C176.309 298.732 182.622 300.28 189.172 301.769C195.454 303.168 201.558 304.419 207.483 305.491" fill="url(#paint0_linear_11798_1082)"/>
<path d="M229.635 270.148C226.539 271.309 226.003 275.21 225.705 278.068C225.288 281.909 225.05 285.75 224.812 289.621C224.336 297.154 223.829 304.716 221.954 312.041C221.805 312.607 220.941 312.369 221.09 311.803C223.234 303.436 223.561 294.802 224.127 286.256C224.365 282.594 224.455 278.813 225.229 275.21C225.765 272.709 226.866 270.267 229.397 269.314C229.933 269.106 230.171 269.97 229.635 270.148Z" fill="#281472"/>
<path d="M215.495 321.658C213.202 323.653 210.969 325.975 208.408 327.673C205.937 329.31 202.96 329.906 200.072 330.442C199.506 330.561 199.268 329.697 199.833 329.578C202.632 329.042 205.52 328.506 207.962 326.898C210.433 325.261 212.607 322.998 214.87 321.033C215.286 320.646 215.941 321.301 215.495 321.658Z" fill="#281472"/>
<path d="M193.307 306.771C190.062 306.83 186.906 307.426 183.869 308.528C183.333 308.736 183.095 307.873 183.631 307.664C186.757 306.533 190.002 305.937 193.307 305.878C193.903 305.848 193.903 306.741 193.307 306.771Z" fill="#281472"/>
<path opacity="0.58" d="M241.249 275.597C241.07 272.828 239.165 270.356 236.604 269.225C233.924 268.064 230.589 268.838 228.535 270.476C224.962 273.274 225.26 278.544 225.111 284.916C224.843 296.558 224.515 310.522 217.667 319.842C216.089 321.986 213.231 325.172 208.05 327.911C210.73 329.191 215.523 331.037 221.568 330.71C224.188 330.561 231.244 330.114 236.306 324.963C238.777 322.462 240.921 318.651 241.576 300.28C241.785 293.998 241.844 285.571 241.249 275.597Z" fill="#474747"/>
<path opacity="0.59" d="M192.536 302.751C185.123 300.846 177.709 298.94 170.295 297.035C169.848 301.144 169.431 305.282 168.985 309.391C172.349 308.468 176.16 307.605 180.299 306.92C185.093 306.146 189.499 305.759 193.43 305.61C193.132 304.657 192.834 303.704 192.536 302.751Z" fill="#474747"/>
<path d="M239.195 181.449C239.284 179.365 239.046 177.073 237.676 176.298C232.763 173.559 214.809 191.215 205.996 210.777C202.542 218.459 198.314 231.292 199.237 248.889C212.874 251.39 226.481 253.921 240.118 256.422C242.44 252.521 246.37 246.596 252.415 240.344C258.459 234.091 260.751 233.615 263.342 229.059C268.88 219.293 265.902 208.187 265.158 205.388C264.175 201.756 262.032 193.955 254.588 187.911C248.603 183.027 242.172 181.807 239.195 181.449Z" fill="white" stroke="#161616" stroke-width="3" stroke-miterlimit="10"/>
<path opacity="0.36" d="M239.699 186.213C236.156 188.655 223.8 197.736 218.797 215.095C213.349 234.091 220.584 249.603 222.37 253.147C214.569 251.837 206.739 250.556 198.938 249.246C198.461 241.683 198.64 228.344 204.535 213.249C211.919 194.371 224.306 183.087 230.439 178.174C233.536 180.854 236.603 183.534 239.699 186.213Z" fill="#828181"/>
<path opacity="0.4" d="M208.436 206.698C207.93 209.586 207.334 213.814 207.096 218.995C206.679 228.136 206.352 234.657 209.568 241.326C210.818 243.946 213.587 248.591 219.602 252.819C212.783 251.569 205.995 250.348 199.176 249.097C198.849 242.874 199.117 234.18 201.647 224.265C203.523 217.149 206.054 211.224 208.436 206.698Z" fill="#828181"/>
<path d="M297.047 178.978C294.963 182.015 293.087 184.516 291.568 186.422C287.847 191.156 286.417 192.377 284.422 192.794C282.725 193.151 281.117 192.853 280.165 192.645C277.515 192.109 276.443 191.037 274.686 190.203C272.364 189.131 271.441 189.667 263.908 189.757C258.459 189.816 259.054 189.518 254.171 189.608C249.884 189.697 246.341 189.965 243.84 190.203C244.554 189.637 245.269 189.101 245.954 188.536C246.936 188.268 249.795 187.375 252.028 184.576C253.874 182.253 254.32 179.871 254.469 178.799C253.844 178.621 252.742 178.174 252.028 177.132C250.539 174.929 252.087 171.922 252.623 170.909C253.278 169.659 254.469 167.396 256.107 167.574C257.328 167.694 258.489 169.123 258.846 171.058C261.645 171.951 265.873 172.785 270.25 171.356C278.497 168.646 280.194 160.071 284.69 159.952C287.608 159.922 291.747 163.317 297.047 178.978Z" fill="white"/>
<path d="M297.849 177.608C295.497 182.998 291.924 187.762 287.428 191.543C286.982 191.9 286.356 191.275 286.803 190.918C291.269 187.166 294.753 182.492 297.105 177.162C297.314 176.656 298.088 177.102 297.849 177.608Z" fill="#161616"/>
<path d="M283.555 184.04C283.287 185.558 282.96 187.047 282.573 188.536C282.215 189.816 281.947 191.365 281.292 192.526C280.369 194.163 277.422 192.139 276.469 191.394C276.022 191.037 276.647 190.412 277.094 190.769C277.749 191.275 279.059 192.288 279.952 192.168C280.935 192.049 281.173 190.114 281.411 189.37C281.947 187.553 282.364 185.707 282.692 183.832C282.811 183.236 283.674 183.474 283.555 184.04Z" fill="#161616"/>
<path d="M287.64 184.218C288.771 183.265 290.23 182.045 289.694 180.377C289.933 180.437 290.201 180.496 290.439 180.586C289.278 181.717 288.384 183.057 287.819 184.576C287.729 184.397 287.61 184.218 287.521 184.04C287.7 183.891 287.908 183.742 288.087 183.623C288.236 183.057 289.099 183.295 288.95 183.861C288.742 184.665 288.087 185.022 287.283 184.903C287.045 184.873 286.896 184.546 286.985 184.367C287.61 182.7 288.563 181.241 289.843 179.99C290.082 179.752 290.498 179.871 290.588 180.199C291.213 182.194 289.724 183.742 288.295 184.903C287.848 185.201 287.193 184.576 287.64 184.218Z" fill="#161616"/>
<path d="M290.433 180.913C289.718 182.015 289.004 183.117 288.289 184.218C287.992 184.695 287.217 184.248 287.515 183.772C288.23 182.67 288.944 181.568 289.659 180.467C289.957 179.961 290.731 180.407 290.433 180.913Z" fill="#161616"/>
<path d="M276.977 179.663C277.513 179.038 278.079 178.323 278.347 177.519C278.436 177.281 278.466 177.013 278.466 176.775C278.406 176.388 278.317 176.358 278.138 176.656C277.84 176.775 277.572 177.341 277.394 177.609C276.977 178.234 276.59 178.919 276.381 179.603C276.262 179.991 276.113 180.05 276.53 179.871C276.917 179.693 277.275 179.276 277.543 178.978C277.93 178.532 278.555 179.187 278.168 179.603C277.692 180.139 276.143 181.717 275.518 180.497C274.952 179.395 276.352 177.46 276.977 176.656C277.513 175.971 278.793 174.601 279.299 176.12C279.806 177.638 278.525 179.216 277.632 180.258C277.245 180.735 276.62 180.11 276.977 179.663Z" fill="#161616"/>
<path d="M278.937 176.805C278.252 177.906 277.567 179.008 276.882 180.11C276.585 180.586 275.81 180.139 276.108 179.663C276.734 178.651 277.269 177.638 277.776 176.566C278.014 176.745 278.252 176.924 278.49 177.102C277.805 177.757 277.299 178.532 276.972 179.425C276.763 179.961 275.9 179.722 276.108 179.187C276.495 178.144 277.061 177.251 277.865 176.477C278.252 176.12 278.788 176.566 278.58 177.013C278.073 178.085 277.537 179.127 276.912 180.11C276.644 179.961 276.406 179.812 276.138 179.663C276.823 178.561 277.508 177.46 278.192 176.358C278.46 175.882 279.235 176.328 278.937 176.805Z" fill="#161616"/>
<path d="M255.091 181.539C254.168 183.981 254.257 186.541 255.448 188.864C255.716 189.37 254.942 189.816 254.674 189.31C253.394 186.779 253.215 183.951 254.228 181.301C254.436 180.795 255.299 181.003 255.091 181.539Z" fill="#161616"/>
<path d="M301.422 159.744C301.898 160.399 306.216 166.443 303.923 174.036C301.66 181.539 294.901 184.219 294.127 184.516C294.455 182.67 294.991 178.115 292.787 173.053C290.167 166.949 285.344 164.091 283.795 163.257C282.813 164.686 279.091 169.748 272.005 171.743C265.663 173.5 260.422 171.743 258.695 171.088C258.368 170.552 257.117 168.706 255.539 168.765C253.276 168.855 251.043 172.964 252.383 175.763C253.217 177.519 255.182 178.115 255.718 178.264C255.39 179.544 254.706 181.479 253.217 183.415C250.716 186.72 247.441 188 245.565 188.744C243.719 189.459 228.623 195.205 219.631 185.737C214.778 180.646 212.455 171.922 215.641 165.937C218.232 161.113 222.787 161.084 235.084 155.635C249.823 149.084 247.798 147.09 256.522 144.32C261.077 142.862 277.841 137.532 290.941 146.643C296.926 150.782 299.963 156.379 301.422 159.744Z" fill="url(#paint1_linear_11798_1082)"/>
<path d="M307.913 210.301C308.033 208.574 308.092 203.602 304.847 199.046C299.874 192.079 291.299 191.93 289.84 191.9C287.25 191.841 283.826 192.287 275.906 196.634C270.755 199.463 263.698 203.899 256.165 210.837C254.26 210.956 251.103 211.373 247.858 213.249C244.404 215.214 238.003 220.395 239.372 225.962C240.146 229.119 243.332 232.185 246.369 232.036C251.252 231.798 254.408 223.402 255.421 223.908C256.225 224.295 253.783 229.297 254.855 229.982C255.838 230.607 259.708 227.6 261.495 223.521C262.954 220.246 262.716 217.149 262.418 215.392C269.564 212.028 281.354 207.8 295.944 208.544C300.41 208.812 304.4 209.467 307.913 210.301Z" fill="white" stroke="#161616" stroke-width="3" stroke-miterlimit="10"/>
<path opacity="0.34" d="M307.855 209.705C306.784 203.929 304.253 201.279 302.794 200.118C293.653 192.734 276.324 201.637 271.173 204.257C265.099 207.353 260.544 211.135 258.34 213.07C253.934 216.97 255.035 217.209 249.021 222.925C244.882 226.856 241.934 229.089 242.53 230.697C243.036 232.007 245.537 232.126 245.775 232.126C251.581 232.334 255.571 223.342 255.75 222.925C254.321 228.136 254.589 229.714 255.244 230.042C256.494 230.697 260.186 227.243 261.735 223.164C262.955 219.948 262.598 216.941 262.241 215.244C266.677 213.249 272.305 211.254 278.944 209.944C290.884 207.621 301.067 208.514 307.855 209.705Z" fill="#828181"/>
<path d="M332.388 212.743C333.341 217.834 334.532 228.583 329.679 240.314C320.568 262.377 297.969 268.868 294.932 269.672C294.842 273.155 294.723 276.669 294.634 280.152C300.172 282.773 308.36 287.358 316.518 295.129C322.562 300.905 333.103 311.207 337.182 328.09C339.683 338.421 338.938 347.741 337.48 354.768C301.512 355.363 265.574 355.959 229.606 356.554C228.445 349.766 227.165 336.248 232.911 321.212C243.183 294.325 267.747 283.874 272.452 281.969C272.541 277.264 272.66 272.59 272.749 267.885C268.134 266.873 257.445 263.895 248.483 254.397C233.536 238.587 235.799 217.894 236.186 214.857C268.283 214.142 300.351 213.457 332.388 212.743Z" fill="white" stroke="#3C3C40" stroke-width="3" stroke-miterlimit="10"/>
<path d="M326.642 245.822C323.694 247.43 320.538 248.651 317.173 249.127C314.732 249.455 312.409 249.246 309.968 248.978C306.871 248.621 303.804 248.353 300.738 247.817C297.611 247.281 294.634 246.358 291.537 245.673C290.704 245.495 289.929 245.405 289.096 245.584C287.458 245.912 286.505 246.924 285.255 247.877C283.528 249.187 281.295 249.097 279.508 248.026C278.555 247.43 277.692 246.686 276.739 246.12C275.34 245.286 273.792 244.869 272.154 244.75C270.397 244.631 268.611 244.75 266.884 245.078C264.829 245.465 263.013 246.299 261.048 246.924C257.177 248.174 255.986 244.036 252.979 242.636C249.376 240.939 244.404 241.118 240.623 241.922C240.057 242.041 239.819 241.177 240.384 241.058C243.66 240.344 246.875 240.373 250.18 240.939C251.58 241.177 252.92 241.505 254.14 242.249C255.54 243.113 256.344 244.423 257.535 245.495C259.262 247.043 261.256 245.852 263.073 245.167C264.71 244.572 266.437 244.185 268.194 243.976C271.112 243.619 274.208 243.738 276.858 245.167C279.032 246.358 280.908 248.74 283.647 247.728C284.838 247.281 285.582 246.18 286.654 245.554C287.518 245.018 288.56 244.691 289.572 244.601C291.507 244.453 293.502 245.286 295.378 245.763C298.921 246.656 302.554 247.251 306.216 247.639C309.074 247.936 312.022 248.472 314.91 248.383C318.9 248.264 322.711 246.924 326.165 245.018C326.701 244.75 327.148 245.525 326.642 245.822Z" fill="#161616"/>
<path d="M294.487 276.579C294.011 277.711 293.535 278.902 292.731 279.855C292.224 280.48 291.45 280.956 291.123 281.76C290.795 282.594 290.795 283.696 290.676 284.589C290.289 287.656 289.872 290.722 288.592 293.581C288.354 294.117 287.58 293.64 287.818 293.134C289.217 290.067 289.485 286.733 289.932 283.428C290.081 282.356 290.14 281.254 290.914 280.42C292.105 279.11 292.909 278.038 293.624 276.341C293.832 275.805 294.696 276.043 294.487 276.579Z" fill="#161616"/>
<path d="M275.012 279.17C276.322 278.157 277.335 280.033 277.811 281.046C278.288 281.998 278.645 282.981 278.883 283.993C279.151 285.154 279.091 286.494 279.627 287.566C280.134 288.668 280.967 289.591 281.444 290.722C281.89 291.735 282.218 292.807 282.516 293.878C283.2 296.558 283.587 299.327 284.064 302.037C284.153 302.602 283.29 302.841 283.2 302.275C282.486 298.196 282.128 293.64 280.074 289.978C279.598 289.144 278.972 288.43 278.645 287.536C278.407 286.911 278.377 286.256 278.288 285.631C278.198 284.976 276.531 279.11 275.638 279.795C275.221 280.152 274.566 279.527 275.012 279.17Z" fill="#161616"/>
<path d="M284.571 314.244C284.839 313.768 285.107 313.202 284.987 312.666C284.809 311.832 283.886 311.713 283.588 312.517C283.231 313.47 283.796 314.572 284.451 315.197C284.273 315.167 284.094 315.137 283.916 315.137C284.273 314.869 284.63 314.601 284.958 314.363C285.434 314.006 285.851 314.81 285.404 315.137C285.047 315.405 284.69 315.673 284.362 315.911C284.213 316.031 283.945 315.971 283.826 315.852C282.754 314.81 281.772 312.011 283.648 311.177C284.392 310.85 285.226 311.237 285.642 311.922C286.178 312.815 285.821 313.887 285.345 314.72C285.077 315.197 284.303 314.75 284.571 314.244Z" fill="#161616"/>
<path d="M286.92 324.487C287.128 324.07 287.456 323.504 287.366 322.998C287.307 322.7 286.92 322.284 286.622 322.552C286.324 322.79 286.295 323.504 286.384 323.832C286.473 324.13 286.979 324.636 287.247 324.249C287.575 323.802 288.349 324.249 288.021 324.695C287.545 325.38 286.562 325.44 285.937 324.844C285.252 324.189 285.312 322.879 285.818 322.135C286.324 321.39 287.307 321.509 287.843 322.135C288.617 322.968 288.141 324.13 287.694 324.993C287.426 325.44 286.652 324.993 286.92 324.487Z" fill="#161616"/>
<path d="M282.605 328.03C282.992 327.732 282.605 326.75 282.069 327.047C281.83 327.166 281.682 327.524 281.741 327.792C281.83 328.179 282.337 328.119 282.545 327.911C282.962 327.494 283.587 328.149 283.17 328.536C282.545 329.132 281.384 329.132 280.967 328.298C280.64 327.613 280.937 326.75 281.533 326.333C282.188 325.886 283.021 326.154 283.409 326.839C283.796 327.524 283.677 328.357 283.021 328.804C282.605 329.132 282.158 328.357 282.605 328.03Z" fill="#161616"/>
<path d="M311.876 355.273C309.405 353.279 306.933 351.284 304.462 349.289C303.271 348.336 302.14 347.324 300.859 346.49C299.579 345.656 298.18 345.269 296.75 344.733C292.284 343.006 288.354 335.592 283.233 340.237C281.565 341.726 280.196 343.036 278.022 343.751C275.551 344.555 273.109 345.031 270.757 346.192C266.231 348.425 262.539 352.028 260.068 356.405C259.8 356.911 259.026 356.464 259.294 355.958C261.199 352.534 263.82 349.616 267.035 347.353C268.584 346.252 270.281 345.329 272.037 344.614C274.062 343.78 276.176 343.453 278.23 342.709C281.923 341.369 283.828 336.664 288.324 338.034C290.14 338.6 291.599 339.82 292.999 341.071C293.832 341.815 294.666 342.56 295.619 343.155C296.84 343.929 298.239 344.197 299.549 344.763C301.633 345.656 303.36 347.234 305.117 348.634C307.588 350.629 310.06 352.624 312.531 354.618C312.948 355.005 312.322 355.631 311.876 355.273Z" fill="#161616"/>
<path d="M273.282 274.584C273.609 276.996 273.967 279.378 274.294 281.79C274.592 283.963 274.622 286.524 275.604 288.549C275.396 288.489 275.187 288.43 274.979 288.4C275.813 287.834 275.247 285.035 275.247 284.202C275.217 282.743 275.187 281.313 275.158 279.854C275.158 279.289 276.051 279.289 276.051 279.854C276.11 281.968 276.14 284.082 276.2 286.226C276.229 287.298 276.438 288.489 275.455 289.174C275.277 289.293 274.949 289.233 274.83 289.025C273.877 287.06 273.788 284.767 273.49 282.623C273.133 280.033 272.746 277.443 272.389 274.852C272.359 274.257 273.222 274.019 273.282 274.584Z" fill="#161616"/>
<path d="M294.9 270.803C295.376 273.334 295.019 275.776 293.888 278.068C293.62 278.574 292.875 278.128 293.113 277.622C294.126 275.537 294.453 273.304 294.036 271.041C293.947 270.476 294.811 270.237 294.9 270.803Z" fill="#161616"/>
<path d="M311.281 258.179C305.862 262.139 299.162 263.657 293.505 267.141C293.029 267.439 292.552 266.664 293.059 266.367C298.746 262.883 305.445 261.365 310.834 257.404C311.31 257.047 311.757 257.821 311.281 258.179Z" fill="#161616"/>
<path d="M293.922 262.793C291.242 264.431 289.367 266.932 288.563 269.999C288.414 270.564 287.55 270.326 287.699 269.761C288.533 266.485 290.558 263.776 293.446 262.019C293.952 261.721 294.399 262.496 293.922 262.793Z" fill="#161616"/>
<path d="M278.464 274.048C277.035 270.118 275.159 266.158 271.675 263.657C271.199 263.329 271.646 262.555 272.122 262.883C275.814 265.563 277.809 269.612 279.327 273.81C279.506 274.376 278.643 274.584 278.464 274.048Z" fill="#161616"/>
<path d="M305.319 353.189C302.282 349.855 298.382 347.562 294.005 346.49C293.439 346.371 293.677 345.508 294.243 345.627C298.769 346.699 302.818 349.11 305.945 352.534C306.332 353.011 305.706 353.636 305.319 353.189Z" fill="#161616"/>
<path d="M298.471 350.391C296.328 349.438 294.184 348.485 292.04 347.532C291.504 347.294 291.98 346.52 292.487 346.758C294.63 347.711 296.774 348.664 298.918 349.616C299.424 349.855 298.978 350.629 298.471 350.391Z" fill="#161616"/>
<path d="M280.702 339.284C278.082 341.696 273.854 340.863 271.442 343.483C271.055 343.9 270.43 343.274 270.817 342.857C273.288 340.178 277.457 341.041 280.077 338.659C280.494 338.242 281.119 338.897 280.702 339.284Z" fill="#161616"/>
<path d="M337.453 357.924C309.316 357.924 281.179 357.924 253.012 357.924C245.092 357.924 237.142 357.924 229.222 357.924C225.768 357.924 225.768 352.564 229.222 352.564C257.359 352.564 285.496 352.564 313.663 352.564C321.583 352.564 329.533 352.564 337.453 352.564C340.906 352.564 340.906 357.924 337.453 357.924Z" fill="#3C3C40"/>
<path d="M333.218 214.588C307.85 214.588 282.482 214.588 257.114 214.588C249.968 214.588 242.852 214.588 235.706 214.588C232.252 214.588 232.252 209.229 235.706 209.229C261.074 209.229 286.442 209.229 311.81 209.229C318.956 209.229 326.072 209.229 333.218 209.229C336.672 209.229 336.672 214.588 333.218 214.588Z" fill="#161616"/>
<path d="M340.481 209.229C342.565 209.229 344.65 209.229 346.734 209.229C350.188 209.229 350.188 214.588 346.734 214.588C344.65 214.588 342.565 214.588 340.481 214.588C337.027 214.588 337.027 209.229 340.481 209.229Z" fill="#161616"/>
<path d="M358.443 213.993C357.639 213.993 356.836 213.993 356.032 213.993C354.632 213.993 353.292 212.772 353.352 211.314C353.411 209.855 354.543 208.634 356.032 208.634C356.836 208.634 357.639 208.634 358.443 208.634C359.843 208.634 361.183 209.855 361.123 211.314C361.064 212.743 359.962 213.993 358.443 213.993Z" fill="#161616"/>
<path d="M222.996 357.537C218.768 357.537 214.51 357.537 210.282 357.537C206.828 357.537 206.828 352.177 210.282 352.177C214.51 352.177 218.768 352.177 222.996 352.177C226.449 352.177 226.449 357.537 222.996 357.537Z" fill="#3C3C40"/>
<path d="M201.174 358.132C200.429 358.132 199.685 358.132 198.941 358.132C197.541 358.132 196.201 356.911 196.261 355.452C196.321 353.993 197.452 352.772 198.941 352.772C199.685 352.772 200.429 352.772 201.174 352.772C202.573 352.772 203.913 353.993 203.854 355.452C203.794 356.911 202.692 358.132 201.174 358.132Z" fill="#3C3C40"/>
<path d="M294.926 269.88C295.134 271.935 295.313 274.019 294.896 276.043C294.449 278.187 293.109 279.706 292.127 281.611C290.995 283.755 290.668 286.345 290.132 288.668C289.566 291.139 289 293.61 288.435 296.082C288.167 297.213 286.47 296.737 286.708 295.605C287.244 293.223 287.809 290.841 288.345 288.459C288.852 286.256 289.209 283.934 290.043 281.849C290.787 279.974 292.305 278.455 292.931 276.52C293.616 274.376 293.348 272.054 293.139 269.88C293.02 268.749 294.807 268.749 294.926 269.88Z" fill="#161616"/>
<path d="M298.981 268.987C297.343 269.761 295.676 269.999 293.889 269.702C292.758 269.523 293.234 267.796 294.366 267.975C295.646 268.183 296.926 268.004 298.088 267.439C299.13 266.933 300.023 268.481 298.981 268.987Z" fill="#161616"/>
<path d="M276.912 279.259C278.341 280.271 279.056 281.73 279.383 283.398C279.622 284.529 279.681 285.69 280.009 286.822C280.336 287.953 280.872 288.995 281.408 290.067C283.403 294.087 285.398 298.344 284.832 302.93C284.683 304.061 282.897 304.061 283.046 302.93C283.582 298.612 281.736 294.712 279.86 290.96C279.056 289.352 278.312 287.774 278.014 286.018C277.686 284.201 277.656 281.968 276.019 280.807C275.066 280.122 275.959 278.574 276.912 279.259Z" fill="#161616"/>
<path d="M294.304 319.157C293.143 319.157 293.143 317.371 294.304 317.371C295.435 317.371 295.435 319.157 294.304 319.157Z" fill="#161616"/>
<path d="M297.52 333.895C296.359 333.895 296.359 332.109 297.52 332.109C298.681 332.109 298.681 333.895 297.52 333.895Z" fill="#161616"/>
<path d="M288.325 299.744C288.236 300.34 288.146 300.965 288.057 301.56C287.997 302.037 287.372 302.305 286.955 302.186C286.449 302.037 286.27 301.56 286.33 301.084C286.419 300.488 286.509 299.863 286.598 299.268C286.658 298.791 287.283 298.523 287.7 298.642C288.206 298.791 288.384 299.268 288.325 299.744Z" fill="#161616"/>
<path d="M283.68 307.366C283.68 307.426 283.68 307.515 283.68 307.575C283.68 308.051 283.263 308.498 282.786 308.468C282.31 308.438 281.893 308.081 281.893 307.575C281.893 307.515 281.893 307.426 281.893 307.366C281.893 306.89 282.31 306.443 282.786 306.473C283.263 306.503 283.68 306.86 283.68 307.366Z" fill="#161616"/>
<path d="M259.109 247.489C256.251 246.417 253.988 244.333 251.249 243.053C247.884 241.505 244.341 243.38 241.006 242.1C239.934 241.683 240.411 239.956 241.483 240.373C243.299 241.058 245.145 240.671 247.051 240.552C248.629 240.433 250.117 240.641 251.576 241.237C254.435 242.398 256.727 244.661 259.615 245.762C260.628 246.179 260.181 247.906 259.109 247.489Z" fill="#161616"/>
<path d="M253.667 300.22C256.377 301.381 254.084 304.24 252.833 305.49C250.273 308.051 247.98 310.88 245.985 313.887C242.085 319.752 239.375 326.333 237.916 333.211C237.797 333.776 236.934 333.538 237.053 332.972C238.303 327.137 240.447 321.509 243.425 316.328C244.854 313.827 246.491 311.445 248.308 309.212C249.231 308.081 250.183 306.979 251.196 305.907C252.089 304.984 255.662 302.037 253.22 300.994C252.685 300.756 253.161 299.982 253.667 300.22Z" fill="#161616"/>
<path d="M250.358 302.513C241.336 310.016 237.674 321.479 234.369 332.317C234.19 332.853 233.327 332.645 233.506 332.079C236.87 321.092 240.592 309.48 249.733 301.858C250.179 301.501 250.805 302.126 250.358 302.513Z" fill="#161616"/>
<path d="M237.526 336.188C236.961 336.992 236.276 337.945 235.204 338.034C234.37 338.094 233.477 337.618 233.358 336.724C233.269 336.159 234.132 335.92 234.221 336.486C234.311 337.052 234.906 337.26 235.412 337.082C236.008 336.873 236.425 336.248 236.752 335.742C237.08 335.265 237.854 335.712 237.526 336.188Z" fill="#161616"/>
<path d="M235.766 348.753C234.427 349.349 232.759 348.932 232.045 347.592C231.36 346.312 231.896 344.555 233.146 343.84C234.427 343.126 236.183 343.632 236.928 344.882C237.672 346.192 237.136 347.86 235.945 348.664C235.469 348.991 235.022 348.217 235.498 347.89C236.302 347.354 236.66 346.192 236.154 345.329C235.677 344.495 234.456 344.138 233.593 344.614C232.729 345.061 232.372 346.282 232.819 347.145C233.265 348.038 234.456 348.366 235.32 347.979C235.826 347.741 236.302 348.515 235.766 348.753Z" fill="#161616"/>
<path d="M326.972 219.144C326.674 232.93 320.928 246.298 311.102 255.945C310.685 256.362 310.06 255.707 310.477 255.32C320.154 245.822 325.811 232.691 326.079 219.144C326.108 218.578 327.002 218.578 326.972 219.144Z" fill="#161616"/>
<path d="M326.017 218.757C326.791 217.982 327.893 218.012 328.726 218.697C329.828 219.62 329.709 221.287 329.59 222.598C329.292 226.498 328.518 230.339 327.357 234.061C325.034 241.445 321.134 248.293 315.983 254.04C315.596 254.456 314.97 253.831 315.357 253.414C319.556 248.74 322.89 243.38 325.183 237.544C326.285 234.805 327.118 231.947 327.744 229.059C328.071 227.481 328.339 225.903 328.518 224.324C328.607 223.58 328.696 222.866 328.726 222.121C328.756 221.794 328.786 221.466 328.756 221.168C328.726 220.454 327.952 218.072 326.642 219.412C326.225 219.799 325.6 219.144 326.017 218.757Z" fill="#161616"/>
<path opacity="0.25" d="M235.56 215.065C235.53 216.018 261.196 217.566 312.527 219.769C313.421 223.819 314.016 229.357 312.527 235.49C307.763 255.29 286.266 262.913 284.122 263.627C283.854 271.249 283.557 278.902 283.289 286.524C285.581 287.387 288.589 288.697 291.894 290.692C294.008 291.973 299.04 295.248 303.714 300.577C306.364 303.614 314.88 313.381 315.564 328.179C315.981 336.962 313.45 344.048 311.426 348.306C287.249 349.676 263.042 351.075 238.865 352.445C271.796 352.713 304.697 353.011 337.627 353.279C338.67 346.639 339.652 333.925 334.322 319.633C333.34 317.043 325.182 296.141 303.416 284.321C299.963 282.445 296.955 281.224 294.871 280.45C294.96 276.758 295.05 273.096 295.139 269.403C298.146 268.629 302.612 267.2 307.555 264.431C310.443 262.823 329.618 251.688 333.221 229.952C333.787 226.498 334.263 221.049 332.953 214.231C268.044 213.725 235.59 213.993 235.56 215.065Z" fill="#474747"/>
<path opacity="0.3" d="M278.854 214.321C294.307 216.494 309.76 218.668 325.213 220.811C324.796 225.962 323.188 236.592 315.893 247.37C306.871 260.68 294.634 266.158 289.9 268.004C289.632 273.661 289.334 279.319 289.066 284.976C299.16 286.941 305.8 291.05 309.432 293.729C311.844 295.516 333.639 311.475 331.197 334.431C330.78 338.391 329.351 345.18 323.873 352.683C328.577 352.743 333.252 352.802 337.956 352.832C338.909 345.537 339.772 330.501 331.971 314.989C326.017 303.198 317.501 295.963 312.558 291.854C305.919 286.345 299.577 282.772 294.932 280.539C294.783 276.877 294.604 273.215 294.455 269.552C300.381 268.302 312.201 264.878 321.312 254.338C321.967 253.593 324.23 250.914 326.493 246.894C333.103 235.163 333.55 222.896 332.924 214.886C314.851 214.678 296.837 214.499 278.854 214.321Z" fill="#474747"/>
<path d="M295.617 201.547C304.937 208.336 312.112 216.702 311.427 217.536C311.1 217.953 309.284 217.417 302.555 213.1C303.716 213.785 306.455 215.541 307.884 218.965C308.301 219.978 309.671 222.806 308.42 224.652C307.08 226.588 303.537 226.409 301.245 225.635C296.808 224.146 294.694 219.531 294.456 219.71C294.099 219.948 299.041 227.005 298.327 227.57C297.582 228.196 289.841 221.615 283.916 212.385C282.099 209.557 280.849 207.085 280.015 205.269C274.745 205.388 268.224 205.835 260.84 207.056C247.501 209.229 242.41 212.087 233.329 210.599C227.761 209.705 218.739 206.847 218.411 202.619C217.995 197.379 231.036 192.555 233.865 191.513C255.362 183.563 275.519 190.918 278.794 192.168C286.953 195.295 292.58 199.344 295.617 201.547Z" fill="white" stroke="#161616" stroke-width="3" stroke-miterlimit="10"/>
<path d="M309.163 224.176C309.014 224.474 308.925 224.533 308.657 224.712C308.508 224.831 308.24 224.772 308.121 224.652C305.173 221.139 302.613 217.06 298.415 214.886C297.908 214.618 298.355 213.844 298.861 214.112C303.149 216.316 305.739 220.424 308.746 224.027C308.568 223.997 308.389 223.968 308.21 223.968C308.27 223.878 308.33 223.819 308.389 223.729C308.657 223.223 309.431 223.67 309.163 224.176Z" fill="#161616"/>
<path d="M306.364 226.469C304.548 226.886 302.88 224.414 301.809 223.253C300.052 221.348 298.384 219.442 296.092 218.132C295.586 217.834 296.032 217.09 296.538 217.358C298.265 218.34 299.665 219.65 301.005 221.08C301.689 221.824 302.344 222.568 303.059 223.313C303.714 224.027 305.084 225.843 306.126 225.605C306.692 225.486 306.93 226.35 306.364 226.469Z" fill="#161616"/>
<path opacity="0.33" d="M309.044 220.871C301.898 215.839 300.171 214.678 300.141 214.737C300.082 214.797 302.94 216.524 305.412 219.829C306.662 221.526 307.466 223.134 307.972 224.325C307.883 224.504 307.615 224.98 307.079 225.278C306.394 225.665 305.769 225.575 305.56 225.546C305.382 225.456 305.114 225.307 304.816 225.099C303.774 224.414 303.149 223.61 302.91 223.342C302.791 223.193 300.916 220.841 300.052 219.918C299.278 219.085 297.968 218.013 295.824 217.239C297.581 219.918 299.367 222.628 301.124 225.307C299.308 224.414 298.117 223.402 297.372 222.628C296.628 221.883 296.39 221.437 295.05 219.769C293.799 218.221 292.876 217.239 292.519 216.822C289.393 213.249 284.718 204.733 281.741 201.875C275.369 195.711 265.097 200.743 244.82 200.892C234.578 200.982 226.092 199.701 220.256 198.54C219.75 198.897 218.797 199.701 218.44 201.011C218.44 201.011 217.993 202.649 219.125 204.703C220.375 207.026 226.628 211.194 239.937 210.837C250.805 210.539 254.11 207.562 268.67 205.924C273.553 205.388 277.572 205.239 280.133 205.18C282.545 210.897 285.314 215.095 287.487 217.923C292.281 224.206 297.7 228.583 298.504 227.987C298.563 227.957 298.712 227.808 298.802 227.541C299.01 226.945 298.563 226.26 298.325 225.903C297.879 225.188 297.313 224.236 296.598 222.866C297.075 223.461 297.849 224.265 298.98 224.95C302.047 226.826 307.049 227.421 308.746 224.98C308.984 224.682 309.759 223.432 309.044 220.871Z" fill="#828181"/>
<path opacity="0.51" d="M275.965 205.15C275.935 204.882 269.117 205.061 261.584 205.448C242.022 206.46 236.9 207.889 229.338 205.15C224.574 203.423 221.179 200.892 219.333 199.344C218.768 200.446 218.172 202.083 218.619 203.721C219.72 207.711 226.122 209.021 230.261 209.854C232.553 210.331 236.454 210.897 242.617 210.361C248.096 209.914 250.269 209.021 256.075 207.8C267.687 205.388 275.995 205.418 275.965 205.15Z" fill="#828181"/>
<defs>
<linearGradient id="paint0_linear_11798_1082" x1="189.661" y1="246.209" x2="170.483" y2="363.304" gradientUnits="userSpaceOnUse">
<stop stop-color="#5B87E0"/>
<stop offset="1" stop-color="#215DD5"/>
</linearGradient>
<linearGradient id="paint1_linear_11798_1082" x1="248.082" y1="141.443" x2="241.932" y2="211.167" gradientUnits="userSpaceOnUse">
<stop stop-color="#EE4266"/>
<stop offset="1" stop-color="#FA5E7E"/>
</linearGradient>
</defs>
</svg>
