<svg width="20" height="20" viewBox="0 0 20 20" fill="none" xmlns="http://www.w3.org/2000/svg">
<path d="M18.496 3.627C18.9357 3.78152 19.3166 4.06877 19.586 4.44907C19.8554 4.82937 20.0001 5.28394 20 5.75V15.75C20 16.8772 19.5522 17.9582 18.7552 18.7552C17.9582 19.5522 16.8772 20 15.75 20H5.75C5.28394 20.0001 4.82937 19.8554 4.44907 19.586C4.06877 19.3166 3.78152 18.9357 3.627 18.496L5.724 18.5H15.75C16.4793 18.5 17.1788 18.2103 17.6945 17.6945C18.2103 17.1788 18.5 16.4793 18.5 15.75V5.75L18.496 5.699V3.627ZM15.246 0C15.8427 0 16.415 0.237053 16.837 0.65901C17.2589 1.08097 17.496 1.65326 17.496 2.25V15.247C17.496 15.8437 17.2589 16.416 16.837 16.838C16.415 17.2599 15.8427 17.497 15.246 17.497H2.25C1.65326 17.497 1.08097 17.2599 0.65901 16.838C0.237053 16.416 0 15.8437 0 15.247V2.25C0 1.65326 0.237053 1.08097 0.65901 0.65901C1.08097 0.237053 1.65326 0 2.25 0H15.247H15.246ZM8.75 4.75C8.56876 4.75001 8.39366 4.81564 8.25707 4.93477C8.12048 5.05389 8.03165 5.21845 8.007 5.398L8 5.5V8H5.5C5.30998 8.00006 5.12706 8.07224 4.98821 8.20197C4.84936 8.3317 4.76493 8.5093 4.75197 8.69888C4.73902 8.88846 4.79852 9.07589 4.91843 9.2233C5.03835 9.37071 5.20975 9.4671 5.398 9.493L5.5 9.5H8V12C8.00006 12.19 8.07224 12.3729 8.20197 12.5118C8.3317 12.6506 8.5093 12.7351 8.69888 12.748C8.88846 12.761 9.07589 12.7015 9.2233 12.5816C9.37071 12.4617 9.4671 12.2902 9.493 12.102L9.5 12V9.5H12C12.19 9.49994 12.3729 9.42776 12.5118 9.29803C12.6506 9.1683 12.7351 8.9907 12.748 8.80112C12.761 8.61154 12.7015 8.42411 12.5816 8.2767C12.4617 8.12929 12.2902 8.0329 12.102 8.007L12 8H9.5V5.5C9.5 5.30109 9.42098 5.11032 9.28033 4.96967C9.13968 4.82902 8.94891 4.75 8.75 4.75Z" fill="white"/>
</svg>
