<svg width="36" height="36" viewBox="0 0 36 36" fill="none" xmlns="http://www.w3.org/2000/svg">
<path d="M9.97889 36C7.42183 36 4.86651 35.0281 2.9199 33.0815C-0.973301 29.1882 -0.973301 22.8561 2.9199 18.963L18.9577 2.9245C20.8442 1.03791 23.3503 0 26.0167 0C28.6832 0 31.1905 1.03945 33.0756 2.9245C34.9621 4.80955 36 7.31729 36 9.98379C36 12.6504 34.9621 15.1579 33.0756 17.0431L25.1156 25.0035C23.8319 26.2873 22.1236 26.9952 20.3062 26.9952C16.5571 26.9952 13.505 23.9447 13.505 20.1937C13.505 18.3759 14.2127 16.6679 15.4982 15.3826L21.4428 9.43771C22.0293 8.8512 22.977 8.8512 23.5633 9.43771C24.1497 10.0242 24.1497 10.972 23.5633 11.5583L17.6186 17.5032C16.9003 18.2215 16.5044 19.1768 16.5044 20.1936C16.5044 22.2889 18.2096 23.9954 20.306 23.9954C21.3227 23.9954 22.2765 23.5994 22.9948 22.8826L30.9549 14.9222C32.2747 13.6023 33.0006 11.8493 33.0006 9.9836C33.0006 8.11789 32.2747 6.36461 30.9549 5.04499C29.6351 3.7251 27.8821 2.99925 26.0165 2.99925C24.1524 2.99925 22.3977 3.72658 21.0781 5.04499L5.04036 21.0835C2.31832 23.8056 2.31832 28.2385 5.04036 30.9605C7.76241 33.6842 12.1951 33.6842 14.917 30.9605L15.4435 30.434C16.03 29.8475 16.9777 29.8475 17.564 30.434C18.1504 31.0206 18.1504 31.9683 17.564 32.5546L17.0375 33.0811C15.0925 35.0262 12.5354 35.9996 9.9785 35.9996L9.97889 36Z" fill="#3C3C40"/>
</svg>
