<svg width="41" height="41" viewBox="0 0 41 41" fill="none" xmlns="http://www.w3.org/2000/svg">
<g clip-path="url(#clip0_1006_501)">
<path fill-rule="evenodd" clip-rule="evenodd" d="M23.0627 10.2503C22.7848 14.155 21.8324 16.7175 20.2055 17.9378C20.2055 17.9378 21.3543 6.83366 18.0632 3.41699C18.0632 3.41699 18.0632 10.1282 15.013 15.6196C13.5814 18.1941 11.9585 20.7429 11.9585 24.1613C11.9585 29.042 17.8856 30.7503 20.5087 30.7503C23.5837 30.7503 29.0418 29.042 29.0418 23.0628C29.0418 20.604 27.0488 16.3331 23.0627 10.2503Z" fill="#F25C7B"/>
<path opacity="0.3" fill-rule="evenodd" clip-rule="evenodd" d="M16.6065 34.167H24.394C24.753 34.1665 25.103 34.2792 25.3943 34.489C25.6856 34.6987 25.9035 34.9949 26.0169 35.3355L27.3332 39.292H13.6665L14.9853 35.3355C15.0987 34.9952 15.3163 34.6992 15.6073 34.4895C15.8982 34.2797 16.2479 34.1669 16.6065 34.167Z" fill="#1A1B1D"/>
</g>
<defs>
<clipPath id="clip0_1006_501">
<rect width="41" height="41" fill="white"/>
</clipPath>
</defs>
</svg>
