<svg width="35" height="35" viewBox="0 0 35 35" fill="none" xmlns="http://www.w3.org/2000/svg">
<path opacity="0.3" fill-rule="evenodd" clip-rule="evenodd" d="M7.29167 21.875L4.375 31.3542L13.8542 28.4375L7.29167 21.875Z" fill="#5B87E0"/>
<path fill-rule="evenodd" clip-rule="evenodd" d="M18.9583 2.9165C21.8426 2.9165 24.6622 3.7718 27.0604 5.37424C29.4586 6.97668 31.3278 9.25428 32.4316 11.919C33.5354 14.5838 33.8242 17.516 33.2615 20.3449C32.6988 23.1738 31.3098 25.7723 29.2703 27.8118C27.2308 29.8513 24.6323 31.2403 21.8034 31.803C18.9745 32.3657 16.0423 32.0769 13.3775 30.9731C10.7128 29.8693 8.43517 28.0001 6.83273 25.6019C5.2303 23.2037 4.375 20.3841 4.375 17.4998C4.375 13.6321 5.91145 9.92277 8.64636 7.18786C11.3813 4.45296 15.0906 2.9165 18.9583 2.9165ZM10.4533 19.7668C12.6547 23.0692 15.5247 24.7915 18.9583 24.7915C22.392 24.7915 25.262 23.0692 27.4633 19.7668C27.5708 19.6075 27.6457 19.4285 27.6838 19.2402C27.7218 19.0518 27.7223 18.8578 27.6851 18.6692C27.6479 18.4807 27.5739 18.3014 27.4672 18.1416C27.3605 17.9817 27.2232 17.8446 27.0633 17.738C26.9035 17.6314 26.7241 17.5574 26.5355 17.5204C26.347 17.4833 26.1529 17.4839 25.9646 17.5221C25.7763 17.5602 25.5973 17.6353 25.4381 17.7428C25.2788 17.8504 25.1424 17.9883 25.0367 18.1488C23.3494 20.6805 21.358 21.8748 18.9583 21.8748C16.5586 21.8748 14.5673 20.6805 12.88 18.1495C12.7742 17.9891 12.6378 17.8511 12.4786 17.7436C12.3193 17.636 12.1404 17.561 11.9521 17.5228C11.7637 17.4846 11.5697 17.484 11.3812 17.5211C11.1926 17.5582 11.0132 17.6321 10.8533 17.7387C10.6934 17.8453 10.5562 17.9825 10.4495 18.1423C10.3428 18.3021 10.2687 18.4814 10.2316 18.67C10.1944 18.8585 10.1948 19.0525 10.2329 19.2409C10.271 19.4293 10.3459 19.6082 10.4533 19.7675V19.7668Z" fill="#1A1B1D"/>
</svg>
