<svg width="216" height="201" viewBox="0 0 216 201" fill="none" xmlns="http://www.w3.org/2000/svg">
<rect width="216" height="201" rx="24" fill="white"/>
<path d="M61.0064 19.872H58.4024V18.504H65.1224V19.872H62.5184V27H61.0064V19.872ZM67.465 22.044H67.489C67.601 21.804 67.797 21.588 68.077 21.396C68.365 21.196 68.733 21.096 69.181 21.096C69.565 21.096 69.889 21.16 70.153 21.288C70.425 21.416 70.645 21.584 70.813 21.792C70.981 22 71.101 22.24 71.173 22.512C71.245 22.784 71.281 23.068 71.281 23.364V27H69.841V24.084C69.841 23.924 69.833 23.748 69.817 23.556C69.801 23.356 69.757 23.172 69.685 23.004C69.621 22.828 69.517 22.684 69.373 22.572C69.229 22.452 69.033 22.392 68.785 22.392C68.545 22.392 68.341 22.432 68.173 22.512C68.013 22.592 67.877 22.7 67.765 22.836C67.661 22.972 67.585 23.128 67.537 23.304C67.489 23.48 67.465 23.664 67.465 23.856V27H66.025V17.928H67.465V22.044ZM74.0676 24.624C74.1156 25.056 74.2836 25.392 74.5716 25.632C74.8596 25.872 75.2076 25.992 75.6156 25.992C75.9756 25.992 76.2756 25.92 76.5156 25.776C76.7636 25.624 76.9796 25.436 77.1636 25.212L78.1956 25.992C77.8596 26.408 77.4836 26.704 77.0676 26.88C76.6516 27.056 76.2156 27.144 75.7596 27.144C75.3276 27.144 74.9196 27.072 74.5356 26.928C74.1516 26.784 73.8196 26.58 73.5396 26.316C73.2596 26.052 73.0356 25.736 72.8676 25.368C72.7076 24.992 72.6276 24.576 72.6276 24.12C72.6276 23.664 72.7076 23.252 72.8676 22.884C73.0356 22.508 73.2596 22.188 73.5396 21.924C73.8196 21.66 74.1516 21.456 74.5356 21.312C74.9196 21.168 75.3276 21.096 75.7596 21.096C76.1596 21.096 76.5236 21.168 76.8516 21.312C77.1876 21.448 77.4716 21.648 77.7036 21.912C77.9436 22.176 78.1276 22.504 78.2556 22.896C78.3916 23.28 78.4596 23.724 78.4596 24.228V24.624H74.0676ZM77.0196 23.544C77.0116 23.12 76.8796 22.788 76.6236 22.548C76.3676 22.3 76.0116 22.176 75.5556 22.176C75.1236 22.176 74.7796 22.3 74.5236 22.548C74.2756 22.796 74.1236 23.128 74.0676 23.544H77.0196ZM83.525 18.504H85.829L88.097 24.456L90.389 18.504H92.669V27H91.229V19.944H91.205L88.625 27H87.569L84.989 19.944H84.965V27H83.525V18.504ZM98.0664 26.208H98.0304C97.8224 26.536 97.5584 26.776 97.2384 26.928C96.9184 27.072 96.5664 27.144 96.1824 27.144C95.9184 27.144 95.6584 27.108 95.4024 27.036C95.1544 26.964 94.9304 26.856 94.7304 26.712C94.5384 26.568 94.3824 26.388 94.2624 26.172C94.1424 25.956 94.0824 25.704 94.0824 25.416C94.0824 25.104 94.1384 24.84 94.2504 24.624C94.3624 24.4 94.5104 24.216 94.6944 24.072C94.8864 23.92 95.1064 23.8 95.3544 23.712C95.6024 23.624 95.8584 23.56 96.1224 23.52C96.3944 23.472 96.6664 23.444 96.9384 23.436C97.2104 23.42 97.4664 23.412 97.7064 23.412H98.0664V23.256C98.0664 22.896 97.9424 22.628 97.6944 22.452C97.4464 22.268 97.1304 22.176 96.7464 22.176C96.4424 22.176 96.1584 22.232 95.8944 22.344C95.6304 22.448 95.4024 22.592 95.2104 22.776L94.4544 22.02C94.7744 21.692 95.1464 21.456 95.5704 21.312C96.0024 21.168 96.4464 21.096 96.9024 21.096C97.3104 21.096 97.6544 21.144 97.9344 21.24C98.2144 21.328 98.4464 21.444 98.6304 21.588C98.8144 21.732 98.9544 21.9 99.0504 22.092C99.1544 22.276 99.2264 22.464 99.2664 22.656C99.3144 22.848 99.3424 23.036 99.3504 23.22C99.3584 23.396 99.3624 23.552 99.3624 23.688V27H98.0664V26.208ZM97.9824 24.42H97.6824C97.4824 24.42 97.2584 24.428 97.0104 24.444C96.7624 24.46 96.5264 24.5 96.3024 24.564C96.0864 24.62 95.9024 24.708 95.7504 24.828C95.5984 24.94 95.5224 25.1 95.5224 25.308C95.5224 25.444 95.5504 25.56 95.6064 25.656C95.6704 25.744 95.7504 25.82 95.8464 25.884C95.9424 25.948 96.0504 25.996 96.1704 26.028C96.2904 26.052 96.4104 26.064 96.5304 26.064C97.0264 26.064 97.3904 25.948 97.6224 25.716C97.8624 25.476 97.9824 25.152 97.9824 24.744V24.42ZM106.84 21.24V26.484C106.84 27.004 106.776 27.472 106.648 27.888C106.52 28.312 106.32 28.668 106.048 28.956C105.784 29.252 105.448 29.48 105.04 29.64C104.632 29.8 104.148 29.88 103.588 29.88C103.052 29.88 102.544 29.812 102.064 29.676C101.584 29.54 101.14 29.292 100.732 28.932L101.596 27.756C101.884 28.02 102.184 28.224 102.496 28.368C102.808 28.512 103.168 28.584 103.576 28.584C103.92 28.584 104.208 28.536 104.44 28.44C104.68 28.344 104.868 28.212 105.004 28.044C105.148 27.876 105.248 27.672 105.304 27.432C105.368 27.2 105.4 26.94 105.4 26.652V26.232H105.376C105.168 26.512 104.892 26.724 104.548 26.868C104.204 27.004 103.852 27.072 103.492 27.072C103.06 27.072 102.668 26.996 102.316 26.844C101.964 26.684 101.66 26.472 101.404 26.208C101.156 25.944 100.964 25.632 100.828 25.272C100.692 24.912 100.624 24.528 100.624 24.12C100.624 23.696 100.688 23.3 100.816 22.932C100.944 22.564 101.132 22.244 101.38 21.972C101.628 21.7 101.924 21.488 102.268 21.336C102.62 21.176 103.02 21.096 103.468 21.096C103.876 21.096 104.256 21.176 104.608 21.336C104.96 21.496 105.24 21.752 105.448 22.104H105.472V21.24H106.84ZM103.768 22.392C103.512 22.392 103.28 22.436 103.072 22.524C102.864 22.604 102.684 22.72 102.532 22.872C102.388 23.016 102.272 23.196 102.184 23.412C102.104 23.62 102.064 23.852 102.064 24.108C102.064 24.34 102.104 24.556 102.184 24.756C102.272 24.956 102.392 25.132 102.544 25.284C102.696 25.436 102.876 25.556 103.084 25.644C103.292 25.732 103.516 25.776 103.756 25.776C104.02 25.776 104.256 25.732 104.464 25.644C104.68 25.556 104.86 25.44 105.004 25.296C105.156 25.144 105.272 24.964 105.352 24.756C105.432 24.548 105.472 24.324 105.472 24.084C105.472 23.58 105.32 23.172 105.016 22.86C104.712 22.548 104.296 22.392 103.768 22.392ZM108.494 21.24H109.934V27H108.494V21.24ZM108.29 19.284C108.29 19.052 108.374 18.852 108.542 18.684C108.718 18.508 108.938 18.42 109.202 18.42C109.466 18.42 109.686 18.504 109.862 18.672C110.046 18.832 110.138 19.036 110.138 19.284C110.138 19.532 110.046 19.74 109.862 19.908C109.686 20.068 109.466 20.148 109.202 20.148C108.938 20.148 108.718 20.064 108.542 19.896C108.374 19.72 108.29 19.516 108.29 19.284ZM115.523 22.968C115.355 22.792 115.179 22.652 114.995 22.548C114.811 22.444 114.623 22.392 114.431 22.392C114.167 22.392 113.931 22.44 113.723 22.536C113.515 22.632 113.335 22.76 113.183 22.92C113.039 23.08 112.927 23.264 112.847 23.472C112.775 23.68 112.739 23.896 112.739 24.12C112.739 24.344 112.775 24.56 112.847 24.768C112.927 24.976 113.039 25.16 113.183 25.32C113.335 25.48 113.515 25.608 113.723 25.704C113.931 25.8 114.167 25.848 114.431 25.848C114.655 25.848 114.863 25.804 115.055 25.716C115.247 25.62 115.411 25.484 115.547 25.308L116.507 26.34C116.363 26.484 116.195 26.608 116.003 26.712C115.819 26.816 115.631 26.9 115.439 26.964C115.247 27.028 115.063 27.072 114.887 27.096C114.711 27.128 114.559 27.144 114.431 27.144C113.999 27.144 113.591 27.072 113.207 26.928C112.823 26.784 112.491 26.58 112.211 26.316C111.931 26.052 111.707 25.736 111.539 25.368C111.379 24.992 111.299 24.576 111.299 24.12C111.299 23.664 111.379 23.252 111.539 22.884C111.707 22.508 111.931 22.188 112.211 21.924C112.491 21.66 112.823 21.456 113.207 21.312C113.591 21.168 113.999 21.096 114.431 21.096C114.799 21.096 115.167 21.168 115.535 21.312C115.911 21.448 116.239 21.668 116.519 21.972L115.523 22.968ZM121.059 18.504H124.371C124.691 18.504 125.007 18.544 125.319 18.624C125.631 18.696 125.907 18.82 126.147 18.996C126.395 19.164 126.595 19.384 126.747 19.656C126.899 19.928 126.975 20.256 126.975 20.64C126.975 21.12 126.839 21.516 126.567 21.828C126.295 22.14 125.939 22.364 125.499 22.5V22.524C125.763 22.556 126.007 22.632 126.231 22.752C126.463 22.864 126.659 23.012 126.819 23.196C126.979 23.372 127.103 23.58 127.191 23.82C127.287 24.052 127.335 24.304 127.335 24.576C127.335 25.04 127.243 25.428 127.059 25.74C126.875 26.044 126.631 26.292 126.327 26.484C126.031 26.668 125.687 26.8 125.295 26.88C124.911 26.96 124.519 27 124.119 27H121.059V18.504ZM122.571 21.96H123.951C124.455 21.96 124.831 21.864 125.079 21.672C125.335 21.472 125.463 21.212 125.463 20.892C125.463 20.524 125.331 20.252 125.067 20.076C124.811 19.892 124.395 19.8 123.819 19.8H122.571V21.96ZM122.571 25.704H123.963C124.155 25.704 124.359 25.692 124.575 25.668C124.799 25.644 125.003 25.588 125.187 25.5C125.371 25.412 125.523 25.288 125.643 25.128C125.763 24.96 125.823 24.736 125.823 24.456C125.823 24.008 125.675 23.696 125.379 23.52C125.091 23.344 124.639 23.256 124.023 23.256H122.571V25.704ZM129.861 24.624C129.909 25.056 130.077 25.392 130.365 25.632C130.653 25.872 131.001 25.992 131.409 25.992C131.769 25.992 132.069 25.92 132.309 25.776C132.557 25.624 132.773 25.436 132.957 25.212L133.989 25.992C133.653 26.408 133.277 26.704 132.861 26.88C132.445 27.056 132.009 27.144 131.553 27.144C131.121 27.144 130.713 27.072 130.329 26.928C129.945 26.784 129.613 26.58 129.333 26.316C129.053 26.052 128.829 25.736 128.661 25.368C128.501 24.992 128.421 24.576 128.421 24.12C128.421 23.664 128.501 23.252 128.661 22.884C128.829 22.508 129.053 22.188 129.333 21.924C129.613 21.66 129.945 21.456 130.329 21.312C130.713 21.168 131.121 21.096 131.553 21.096C131.953 21.096 132.317 21.168 132.645 21.312C132.981 21.448 133.265 21.648 133.497 21.912C133.737 22.176 133.921 22.504 134.049 22.896C134.185 23.28 134.253 23.724 134.253 24.228V24.624H129.861ZM132.813 23.544C132.805 23.12 132.673 22.788 132.417 22.548C132.161 22.3 131.805 22.176 131.349 22.176C130.917 22.176 130.573 22.3 130.317 22.548C130.069 22.796 129.917 23.128 129.861 23.544H132.813ZM141.527 21.24V26.484C141.527 27.004 141.463 27.472 141.335 27.888C141.207 28.312 141.007 28.668 140.735 28.956C140.471 29.252 140.135 29.48 139.727 29.64C139.319 29.8 138.835 29.88 138.275 29.88C137.739 29.88 137.231 29.812 136.751 29.676C136.271 29.54 135.827 29.292 135.419 28.932L136.283 27.756C136.571 28.02 136.871 28.224 137.183 28.368C137.495 28.512 137.855 28.584 138.263 28.584C138.607 28.584 138.895 28.536 139.127 28.44C139.367 28.344 139.555 28.212 139.691 28.044C139.835 27.876 139.935 27.672 139.991 27.432C140.055 27.2 140.087 26.94 140.087 26.652V26.232H140.063C139.855 26.512 139.579 26.724 139.235 26.868C138.891 27.004 138.539 27.072 138.179 27.072C137.747 27.072 137.355 26.996 137.003 26.844C136.651 26.684 136.347 26.472 136.091 26.208C135.843 25.944 135.651 25.632 135.515 25.272C135.379 24.912 135.311 24.528 135.311 24.12C135.311 23.696 135.375 23.3 135.503 22.932C135.631 22.564 135.819 22.244 136.067 21.972C136.315 21.7 136.611 21.488 136.955 21.336C137.307 21.176 137.707 21.096 138.155 21.096C138.563 21.096 138.943 21.176 139.295 21.336C139.647 21.496 139.927 21.752 140.135 22.104H140.159V21.24H141.527ZM138.455 22.392C138.199 22.392 137.967 22.436 137.759 22.524C137.551 22.604 137.371 22.72 137.219 22.872C137.075 23.016 136.959 23.196 136.871 23.412C136.791 23.62 136.751 23.852 136.751 24.108C136.751 24.34 136.791 24.556 136.871 24.756C136.959 24.956 137.079 25.132 137.231 25.284C137.383 25.436 137.563 25.556 137.771 25.644C137.979 25.732 138.203 25.776 138.443 25.776C138.707 25.776 138.943 25.732 139.151 25.644C139.367 25.556 139.547 25.44 139.691 25.296C139.843 25.144 139.959 24.964 140.039 24.756C140.119 24.548 140.159 24.324 140.159 24.084C140.159 23.58 140.007 23.172 139.703 22.86C139.399 22.548 138.983 22.392 138.455 22.392ZM143.182 21.24H144.622V27H143.182V21.24ZM142.978 19.284C142.978 19.052 143.062 18.852 143.23 18.684C143.406 18.508 143.626 18.42 143.89 18.42C144.154 18.42 144.374 18.504 144.55 18.672C144.734 18.832 144.826 19.036 144.826 19.284C144.826 19.532 144.734 19.74 144.55 19.908C144.374 20.068 144.154 20.148 143.89 20.148C143.626 20.148 143.406 20.064 143.23 19.896C143.062 19.72 142.978 19.516 142.978 19.284ZM146.275 21.24H147.643V22.164H147.667C147.803 21.876 148.011 21.628 148.291 21.42C148.571 21.204 148.951 21.096 149.431 21.096C149.815 21.096 150.139 21.16 150.403 21.288C150.675 21.416 150.895 21.584 151.063 21.792C151.231 22 151.351 22.24 151.423 22.512C151.495 22.784 151.531 23.068 151.531 23.364V27H150.091V24.084C150.091 23.924 150.083 23.748 150.067 23.556C150.051 23.356 150.007 23.172 149.935 23.004C149.871 22.828 149.767 22.684 149.623 22.572C149.479 22.452 149.283 22.392 149.035 22.392C148.795 22.392 148.591 22.432 148.423 22.512C148.263 22.592 148.127 22.7 148.015 22.836C147.911 22.972 147.835 23.128 147.787 23.304C147.739 23.48 147.715 23.664 147.715 23.856V27H146.275V21.24ZM156.238 22.836C155.958 22.444 155.582 22.248 155.11 22.248C154.918 22.248 154.73 22.296 154.546 22.392C154.362 22.488 154.27 22.644 154.27 22.86C154.27 23.036 154.346 23.164 154.498 23.244C154.65 23.324 154.842 23.392 155.074 23.448C155.306 23.504 155.554 23.564 155.818 23.628C156.09 23.684 156.342 23.776 156.574 23.904C156.806 24.024 156.998 24.192 157.15 24.408C157.302 24.624 157.378 24.92 157.378 25.296C157.378 25.64 157.302 25.932 157.15 26.172C157.006 26.404 156.814 26.592 156.574 26.736C156.342 26.88 156.078 26.984 155.782 27.048C155.486 27.112 155.19 27.144 154.894 27.144C154.446 27.144 154.034 27.08 153.658 26.952C153.282 26.824 152.946 26.592 152.65 26.256L153.61 25.356C153.794 25.564 153.99 25.736 154.198 25.872C154.414 26 154.674 26.064 154.978 26.064C155.082 26.064 155.19 26.052 155.302 26.028C155.414 26.004 155.518 25.964 155.614 25.908C155.71 25.852 155.786 25.784 155.842 25.704C155.906 25.616 155.938 25.516 155.938 25.404C155.938 25.204 155.862 25.056 155.71 24.96C155.558 24.864 155.366 24.788 155.134 24.732C154.902 24.668 154.65 24.612 154.378 24.564C154.114 24.508 153.866 24.424 153.634 24.312C153.402 24.192 153.21 24.028 153.058 23.82C152.906 23.612 152.83 23.324 152.83 22.956C152.83 22.636 152.894 22.36 153.022 22.128C153.158 21.888 153.334 21.692 153.55 21.54C153.766 21.388 154.014 21.276 154.294 21.204C154.574 21.132 154.858 21.096 155.146 21.096C155.53 21.096 155.91 21.164 156.286 21.3C156.662 21.428 156.966 21.652 157.198 21.972L156.238 22.836Z" fill="#1A1B1D"/>
<path d="M190.858 164.846C164.893 166.487 137.478 167.491 108.724 167.634C79.7624 167.777 52.14 167.029 26 165.642C28.5662 161.133 31.1483 156.64 33.7464 152.163C35.8344 148.546 37.9543 144.945 40.0742 141.36C62.5482 142.635 86.8394 143.144 112.708 142.507C137.079 141.902 160 140.34 181.278 138.157C183.239 140.914 185.502 144.642 187.351 149.342C189.742 155.445 190.571 160.91 190.858 164.846Z" fill="white" stroke="#161616" stroke-miterlimit="10"/>
<path d="M38.0352 162.393C47.0886 163.365 56.2057 163.667 65.3229 163.301C65.6257 163.285 65.6257 162.807 65.3229 162.823C56.2217 163.189 47.1046 162.887 38.0352 161.915C37.7324 161.883 37.7324 162.361 38.0352 162.393Z" fill="#161616"/>
<path d="M54.1475 160.098C58.5627 160.273 62.9937 160.161 67.4088 160.161C71.8877 160.145 76.3506 160.145 80.8295 160.129C81.1324 160.129 81.1324 159.651 80.8295 159.651C76.3506 159.667 71.8877 159.667 67.4088 159.683C62.9937 159.699 58.5627 159.795 54.1475 159.62C53.8447 159.604 53.8447 160.082 54.1475 160.098Z" fill="#161616"/>
<path d="M113.075 158.935C126.575 158.075 140.06 157.055 153.544 155.876C153.847 155.844 153.847 155.366 153.544 155.398C140.076 156.577 126.575 157.597 113.075 158.457C112.772 158.473 112.772 158.951 113.075 158.935Z" fill="#161616"/>
<path d="M148.268 150.745C158.724 150.363 169.164 149.709 179.588 148.737C179.891 148.705 179.891 148.227 179.588 148.259C169.164 149.215 158.724 149.885 148.268 150.267C147.965 150.267 147.965 150.745 148.268 150.745Z" fill="#161616"/>
<path d="M157.419 160.974C166.201 160.591 174.983 160.209 183.766 159.81C184.069 159.794 184.069 159.316 183.766 159.332C174.983 159.715 166.201 160.097 157.419 160.496C157.116 160.511 157.116 160.989 157.419 160.974Z" fill="#161616"/>
<path d="M38.192 128.533C37.9529 127.768 38.5904 127.051 38.4151 126.254C38.2079 125.41 37.3791 125.059 37.4747 124.087C37.5385 123.418 37.8732 122.781 37.7616 122.096C37.6819 121.665 37.411 121.41 37.2197 121.028C36.9965 120.55 37.0922 120.104 37.2197 119.61C37.3472 119.052 37.5544 118.447 37.3313 117.873C37.2197 117.571 36.9965 117.427 36.8053 117.188C36.359 116.662 36.4227 116.121 36.5343 115.483C36.885 113.508 36.9009 111.611 36.3909 109.652C36.3112 109.349 35.8489 109.476 35.9286 109.779C36.2155 110.894 36.3749 112.026 36.343 113.173C36.3112 114.145 36.0561 115.053 35.9764 116.009C35.9127 116.79 36.1677 117.124 36.6459 117.682C37.2675 118.431 36.7415 119.291 36.6299 120.136C36.5981 120.407 36.5981 120.693 36.6778 120.964C36.8053 121.41 37.2038 121.713 37.2834 122.191C37.411 122.956 36.9328 123.705 36.9806 124.47C37.0444 125.298 37.9051 125.728 37.9688 126.525C38.0326 127.274 37.4907 127.879 37.7297 128.66C37.8254 128.947 38.2876 128.82 38.192 128.533Z" fill="#E8E8E8"/>
<path d="M40.5045 128.167C40.0104 127.705 40.632 127.227 40.4567 126.686C40.361 126.383 40.0422 126.16 40.0263 125.825C40.0104 125.522 40.2176 125.188 40.2654 124.885C40.3451 124.312 40.0422 124.041 39.8988 123.515C39.7075 122.798 40.1379 122.001 40.2654 121.3C40.361 120.758 40.3132 120.296 40.1219 119.786C39.9625 119.372 39.8032 119.022 39.835 118.575C39.8669 118.209 40.0263 117.874 40.106 117.524C40.4248 116.249 39.2931 114.895 39.835 113.716C39.9625 113.445 39.5481 113.19 39.4206 113.477C38.7831 114.831 39.9625 116.122 39.6119 117.524C39.4366 118.225 39.2294 118.735 39.4684 119.452C39.6119 119.85 39.8191 120.233 39.835 120.679C39.8669 121.125 39.7075 121.555 39.596 121.969C39.4525 122.511 39.2931 123.085 39.4366 123.642C39.5641 124.104 39.8669 124.455 39.7553 124.965C39.6916 125.22 39.58 125.459 39.5641 125.73C39.5481 125.985 39.58 126.176 39.7075 126.399C39.7713 126.51 39.9625 126.686 39.9785 126.765C40.0104 126.893 39.8988 127.148 39.8669 127.259C39.7553 127.753 39.7872 128.12 40.1698 128.486C40.3929 128.709 40.7276 128.375 40.5045 128.167Z" fill="#E8E8E8"/>
<path d="M123.148 159.842C120.008 160.32 117.362 160.431 115.529 160.431C114.525 175.042 114.668 182.451 115.975 182.658C117.075 182.833 119.003 177.894 121.745 167.84C125.523 166.9 129.316 165.96 133.094 165.02C133.476 161.323 132.615 159.889 131.755 159.236C130.161 158.041 127.929 159.093 123.148 159.842Z" fill="#161616" stroke="#161616" stroke-width="3" stroke-miterlimit="10"/>
<path d="M107.734 133.949C105.089 136.355 105.997 142.888 109.934 149.723C110.859 149.612 112.309 149.516 114.046 149.66C114.764 149.723 117.011 149.947 122.749 152.034C123.945 152.48 125.602 153.101 127.579 153.946C126.033 154.36 124.486 154.774 122.924 155.189C123.1 157.053 123.419 159.172 123.992 161.435C125.044 165.625 126.606 169.051 128.041 171.616C131.627 170.564 134.56 169.529 136.68 168.764C141.764 166.9 144.458 165.561 147.04 163.761C149.798 161.833 151.248 160.208 151.694 158.168C151.949 156.989 151.806 155.969 151.758 155.603C151.439 153.627 150.34 152.289 149.192 151.014C146.674 148.194 145.414 146.792 143.358 145.23C138.656 141.677 134.369 139.813 129.603 137.789C125.921 136.228 123.466 135.192 119.896 134.332C114.19 133.009 109.902 131.974 107.734 133.949Z" fill="url(#paint0_linear_1_103)"/>
<path d="M118.749 134.252C123.547 135.655 128.217 137.439 132.743 139.59C136.712 141.47 140.697 143.558 144.14 146.314C145.734 147.589 147.216 149.007 148.507 150.6C149.91 152.337 151.727 154.679 151.695 157.021C151.663 159.204 149.591 161.196 148.077 162.566C146.467 164.016 144.634 165.163 142.689 166.103C137.939 168.398 132.68 169.338 127.866 171.489C127.579 171.616 127.834 172.031 128.105 171.903C132.727 169.832 137.764 168.892 142.371 166.773C144.315 165.88 146.18 164.781 147.838 163.395C149.384 162.104 151.137 160.399 151.886 158.487C152.699 156.416 151.599 154.281 150.499 152.56C149.304 150.68 147.854 148.975 146.212 147.461C142.96 144.45 139.087 142.219 135.15 140.243C129.938 137.614 124.487 135.447 118.876 133.806C118.574 133.711 118.446 134.157 118.749 134.252Z" fill="url(#paint1_linear_1_103)"/>
<path d="M135.596 151.539C133.476 152.145 131.34 152.75 129.22 153.356C127.132 153.945 124.996 154.471 122.956 155.204C122.669 155.316 122.797 155.778 123.084 155.666C125.124 154.917 127.26 154.407 129.348 153.818C131.468 153.212 133.603 152.607 135.723 152.002C136.01 151.922 135.883 151.46 135.596 151.539Z" fill="url(#paint2_linear_1_103)"/>
<path d="M122.766 155.237C123.292 161.021 124.902 166.677 127.675 171.792C127.819 172.063 128.233 171.824 128.09 171.553C125.364 166.518 123.77 160.941 123.244 155.253C123.228 154.934 122.75 154.934 122.766 155.237Z" fill="url(#paint3_linear_1_103)"/>
<path d="M127.642 153.946C122.112 150.775 115.832 149.118 109.44 149.373C109.137 149.389 109.137 149.867 109.44 149.851C115.736 149.58 121.936 151.222 127.387 154.36C127.674 154.504 127.913 154.09 127.642 153.946Z" fill="url(#paint4_linear_1_103)"/>
<path opacity="0.11" d="M109.121 139.67C110.603 140.005 112.771 140.562 115.337 141.407C117.234 142.028 120.82 143.287 129.061 147.445C131.834 148.848 135.484 150.744 139.708 153.118C134.337 155.492 128.965 157.866 123.594 160.224C123.307 158.583 123.004 156.958 122.717 155.317C124.104 154.87 125.49 154.44 126.877 153.994C124.757 152.831 121.761 151.461 117.999 150.6C114.891 149.883 112.15 149.708 109.998 149.724C109.695 146.362 109.408 143.016 109.121 139.67Z" fill="#3D3D3D"/>
<path opacity="0.11" d="M109.982 149.66C112.516 149.214 116.629 148.799 121.506 149.787C125.714 150.632 128.933 152.209 131.021 153.436C128.392 154.934 125.778 156.416 123.148 157.913C122.972 157.037 122.813 156.145 122.638 155.268C124.04 154.822 125.443 154.392 126.861 153.946C124.997 152.942 122.622 151.875 119.753 151.046C115.911 149.947 112.516 149.66 109.982 149.66Z" fill="#3D3D3D"/>
<path d="M89.2778 164.989C91.6528 165.817 94.0277 166.646 96.3866 167.474C96.8808 177.719 97.598 182.866 98.5225 182.898C99.6542 182.945 101.105 175.552 102.89 160.702C99.1122 159.794 95.3506 158.87 91.573 157.962C90.8239 160.304 90.0588 162.646 89.2778 164.989Z" fill="#161616" stroke="#161616" stroke-width="3" stroke-miterlimit="10"/>
<path d="M109.966 149.677C109.823 145.104 109.297 141.312 108.787 138.539C107.719 132.692 106.794 131.768 105.982 131.385C104.212 130.573 102.411 132.134 97.9164 134.189C94.2344 135.878 94.7126 135.161 88.4008 137.535C83.7784 139.272 78.1998 141.662 72.2704 145.136C70.9953 145.885 67.9988 147.685 65.1138 150.935C62.4042 153.979 62.2129 155.588 62.2129 156.369C62.2129 157.165 62.4042 158.95 65.0182 161.627C68.0944 164.766 71.5691 166.12 81.5948 169.323C84.3522 170.199 86.8706 170.996 89.118 171.681C90.3294 169.37 91.2538 167.363 91.9233 165.801C93.8041 161.404 94.2026 159.332 94.362 158.281C94.5373 157.118 94.617 156.146 94.6329 155.476C93.0071 155.046 91.3654 154.632 89.7396 154.202C91.5886 153.15 93.8838 152.067 96.6253 151.206C102.013 149.533 106.747 149.438 109.966 149.677Z" fill="url(#paint5_linear_1_103)"/>
<path d="M90.2181 154.329C90.9194 154.489 91.6367 154.648 92.338 154.807C93.0393 154.967 93.8363 155.046 94.426 155.493C94.6651 155.684 94.9042 155.269 94.6651 155.078C94.1072 154.648 93.4218 154.552 92.7524 154.409C91.9554 154.234 91.1425 154.043 90.3456 153.867C90.0428 153.804 89.9152 154.266 90.2181 154.329Z" fill="url(#paint6_linear_1_103)"/>
<path d="M99.1918 133.839C92.2105 135.672 85.4205 138.157 78.8855 141.232C75.4426 142.858 72.1114 144.833 69.0989 147.16C65.7517 149.741 59.7586 155.079 62.9783 159.763C64.4606 161.914 66.708 163.507 68.9395 164.798C70.7565 165.865 72.6852 166.758 74.6457 167.507C75.7933 167.937 76.9887 168.255 78.1682 168.622C81.7545 169.705 85.3408 170.837 88.9111 171.984C89.198 172.079 89.3255 171.617 89.0386 171.522C86.0899 170.566 83.1412 169.626 80.1765 168.733C78.6304 168.255 77.0525 167.857 75.5223 167.315C71.7607 166.025 67.8875 164.081 65.0025 161.34C64.0621 160.448 63.0899 159.396 62.7392 158.138C62.2929 156.576 62.8508 155.015 63.6318 153.676C64.891 151.509 66.7558 149.709 68.6845 148.132C71.7766 145.614 75.2673 143.527 78.8695 141.806C85.4364 138.667 92.3061 136.166 99.3512 134.333C99.6222 134.222 99.4946 133.76 99.1918 133.839Z" fill="url(#paint7_linear_1_103)"/>
<path d="M80.2879 152.051C82.6628 152.657 85.0537 153.262 87.4286 153.852C89.7716 154.441 92.1625 154.951 94.4577 155.716C94.7446 155.811 94.8721 155.349 94.5852 155.254C92.29 154.505 89.8991 153.995 87.5561 153.39C85.1812 152.784 82.7903 152.179 80.4154 151.589C80.1126 151.525 79.9851 151.987 80.2879 152.051Z" fill="url(#paint8_linear_1_103)"/>
<path d="M94.3138 155.302C93.7241 161.069 91.8911 166.662 88.8786 171.601C88.7192 171.872 89.1336 172.111 89.293 171.84C92.3533 166.806 94.2023 161.133 94.792 155.286C94.8239 154.983 94.3457 154.999 94.3138 155.302Z" fill="url(#paint9_linear_1_103)"/>
<path d="M89.5971 154.409C95.8292 151.222 102.763 149.645 109.76 149.9C110.063 149.916 110.063 149.438 109.76 149.422C102.683 149.151 95.6539 150.76 89.358 153.995C89.087 154.138 89.3261 154.553 89.5971 154.409Z" fill="url(#paint10_linear_1_103)"/>
<path opacity="0.13" d="M106.635 140.976C99.7813 144.306 95.2705 146.649 93.2463 147.62C87.9226 150.138 82.7265 152.448 77.6738 154.583C81.5311 154.153 85.2927 155.938 87.2532 159.156C89.4687 162.789 89.0065 167.601 86.0578 170.915C87.0779 171.282 88.098 171.648 89.1021 171.999C89.9628 170.628 90.8235 169.067 91.6046 167.314C93.6766 162.709 94.5214 158.439 94.8721 155.125C93.4216 154.647 91.9712 154.185 90.5207 153.707C91.8277 153.133 93.2463 152.576 94.7605 152.082C100.499 150.202 105.774 149.756 109.982 149.819C109.934 148.672 109.871 147.509 109.791 146.314C109.632 144.035 109.393 141.853 109.122 139.781C108.548 140.052 107.687 140.482 106.635 140.976Z" fill="#3D3D3D"/>
<path opacity="0.15" d="M109.425 149.405C109.409 149.198 105.313 148.832 100.356 149.533C94.7451 150.33 90.3619 152.162 87.5088 153.628C88.9592 154.711 90.4097 155.811 91.8601 156.894C91.0791 161.658 90.3141 166.422 89.5331 171.186C91.1429 168.542 92.9599 164.845 94.0119 160.176C94.4263 158.312 94.6495 156.591 94.7611 155.014C94.3307 154.887 93.8844 154.759 93.4381 154.632C92.4021 154.345 91.3979 154.09 90.4097 153.883C91.1907 153.532 92.2905 153.054 93.6294 152.56C102.284 149.342 109.425 149.66 109.425 149.405Z" fill="#3D3D3D"/>
<path d="M121.602 96.8247C122.415 96.5538 123.642 97.8125 124.375 98.5455C125.555 99.7405 126.145 100.951 126.32 101.318C128.488 105.811 128.105 104.027 129.938 108.201C132.185 113.348 133.716 118.207 133.716 118.207C134.465 120.581 134.927 122.35 136.377 124.533C138.019 126.987 139.374 127.64 139.932 127.863C141.781 128.628 143.534 128.293 144.315 128.086C145.16 127.257 145.813 126.54 146.26 126.031C147.168 124.995 147.551 124.437 148.268 124.358C148.427 124.342 149.161 124.262 149.543 124.692C149.718 124.883 149.75 125.091 149.926 125.138C150.149 125.202 150.372 124.947 150.643 124.692C150.754 124.581 151.488 123.896 152.253 123.577C152.651 123.402 153.416 123.179 153.639 123.465C153.863 123.752 153.368 124.358 153.592 124.581C153.815 124.804 154.357 124.294 154.931 124.533C155.249 124.676 155.52 125.027 155.536 125.361C155.568 125.776 155.217 125.871 155.154 126.413C155.09 126.859 155.297 126.939 155.265 127.305C155.201 127.863 154.691 127.943 153.99 128.755C153.592 129.217 153.703 129.249 152.986 130.317C152.715 130.715 152.364 131.241 152.093 131.544C151.041 132.723 149.256 132.818 148.316 132.882C146.499 132.978 145.064 132.436 144.251 132.053C143.709 132.436 142.881 132.914 141.813 133.28C139.055 134.189 136.632 133.551 135.644 133.28C131.707 132.181 129.396 129.201 127.866 127.162C125.587 124.135 124.758 121.506 123.26 116.726C122.797 115.276 121.411 110.671 120.869 104.505C120.646 101.7 120.279 97.2708 121.602 96.8247Z" fill="white"/>
<path d="M122.048 97.3969C123.451 97.859 124.423 98.9902 125.236 100.185C126.081 101.412 126.83 102.703 127.547 104.025C128.997 106.734 130.209 109.554 131.34 112.406C132.488 115.274 133.54 118.174 134.608 121.058C135.469 123.352 136.505 125.79 138.497 127.32C140.346 128.738 142.976 129.327 145.048 128.037C145.303 127.878 145.064 127.463 144.809 127.623C142.609 128.993 139.772 128.037 138.067 126.3C136.122 124.293 135.293 121.504 134.353 118.955C132.361 113.506 130.32 107.961 127.467 102.878C126.224 100.663 124.758 97.7952 122.175 96.9348C121.889 96.8392 121.761 97.3013 122.048 97.3969Z" fill="#161616"/>
<path d="M121.888 112.835C123.306 117.743 124.502 122.874 127.418 127.144C129.825 130.681 133.396 133.501 137.779 133.852C140.154 134.043 142.561 133.469 144.473 132.035C144.712 131.86 144.473 131.43 144.234 131.621C142.003 133.31 139.118 133.74 136.408 133.182C133.73 132.625 131.419 131.079 129.586 129.103C125.426 124.594 124.039 118.444 122.382 112.724C122.27 112.421 121.808 112.549 121.888 112.835Z" fill="#161616"/>
<path d="M145.096 128.103C145.765 127.163 146.387 126.079 147.2 125.267C147.678 124.789 148.459 124.311 149.144 124.693C149.734 125.028 149.782 125.793 149.431 126.302C149.256 126.557 149.67 126.796 149.846 126.541C150.595 125.474 149.814 124.04 148.507 124.104C147.726 124.151 147.088 124.645 146.61 125.235C145.925 126.063 145.335 126.988 144.697 127.864C144.506 128.103 144.92 128.342 145.096 128.103Z" fill="#161616"/>
<path d="M147.312 126.015C146.961 126.716 147.392 127.528 148.173 127.656C149.113 127.799 149.798 127.002 149.958 126.158C150.022 125.855 149.559 125.728 149.496 126.031C149.4 126.54 149.129 127.066 148.571 127.178C148.045 127.289 147.455 126.827 147.726 126.27C147.854 125.983 147.439 125.744 147.312 126.015Z" fill="#161616"/>
<path d="M144.156 132.182C145.989 132.549 147.726 133.393 149.623 132.995C151.153 132.676 152.46 131.736 153.305 130.446C153.48 130.191 153.066 129.952 152.89 130.207C152.061 131.465 150.754 132.342 149.256 132.581C147.535 132.852 145.925 132.055 144.267 131.72C143.98 131.673 143.853 132.135 144.156 132.182Z" fill="#161616"/>
<path d="M148.667 127.178C148.157 127.481 148.221 128.182 148.651 128.549C149.018 128.851 149.512 128.804 149.958 128.804C150.723 128.788 151.361 128.915 152.03 129.297C152.301 129.441 152.54 129.043 152.269 128.883C151.775 128.596 151.249 128.405 150.675 128.341C150.404 128.31 150.133 128.326 149.846 128.326C149.671 128.326 149.496 128.341 149.336 128.31C149.145 128.262 148.524 127.832 148.906 127.609C149.161 127.433 148.922 127.019 148.667 127.178Z" fill="#161616"/>
<path d="M148.984 127.384C150.18 126.699 151.646 126.842 152.666 127.782C152.889 127.989 153.224 127.655 153.001 127.448C151.821 126.364 150.132 126.173 148.745 126.97C148.474 127.129 148.713 127.543 148.984 127.384Z" fill="#161616"/>
<path d="M150.023 125.44C150.549 125.058 151.059 124.691 151.585 124.309C151.808 124.149 152.015 123.99 152.254 123.847C152.414 123.751 152.573 123.656 152.749 123.592C153.498 123.337 153.673 123.703 153.259 124.691C152.972 124.787 153.099 125.249 153.386 125.153C154.247 124.851 154.55 123.687 153.657 123.193C153.163 122.907 152.573 123.114 152.127 123.369C151.314 123.831 150.565 124.484 149.8 125.026C149.529 125.217 149.768 125.631 150.023 125.44Z" fill="#161616"/>
<path d="M151.041 126.717C151.678 126.318 152.316 125.904 152.954 125.506C153.24 125.33 153.527 125.123 153.846 124.98C154.085 124.852 154.34 124.805 154.611 124.805C155.169 124.805 155.376 125.139 155.233 125.792C155.042 126.031 155.376 126.366 155.568 126.127C156.173 125.362 155.631 124.422 154.707 124.343C154.101 124.279 153.559 124.582 153.065 124.884C152.3 125.346 151.551 125.84 150.802 126.318C150.531 126.462 150.77 126.876 151.041 126.717Z" fill="#161616"/>
<path d="M152.907 127.465C153.337 127.226 153.767 127.003 154.198 126.795C154.341 126.716 154.819 126.429 154.963 126.461C155.361 126.54 155.09 126.939 154.995 127.098C154.835 127.353 155.25 127.608 155.409 127.337C155.664 126.923 155.887 126.11 155.202 125.983C154.835 125.903 154.437 126.158 154.118 126.317C153.624 126.556 153.13 126.795 152.652 127.066C152.397 127.21 152.652 127.624 152.907 127.465Z" fill="#161616"/>
<path d="M152.237 127.354C153.384 127.991 153.607 129.41 152.699 130.366C152.492 130.589 152.826 130.923 153.034 130.7C154.149 129.537 153.894 127.721 152.476 126.94C152.221 126.796 151.966 127.211 152.237 127.354Z" fill="#161616"/>
<path d="M155.169 127.178C154.659 127.831 154.069 128.405 153.416 128.883C153.177 129.058 153.4 129.472 153.655 129.297C154.356 128.787 154.978 128.198 155.52 127.513C155.695 127.274 155.361 126.939 155.169 127.178Z" fill="#161616"/>
<path d="M147.424 129.043C148.428 129.123 149.368 129.441 150.213 129.999C150.468 130.174 150.707 129.76 150.452 129.585C149.528 128.995 148.524 128.66 147.424 128.565C147.121 128.549 147.121 129.027 147.424 129.043Z" fill="#161616"/>
<path opacity="0.09" d="M119.992 100.68C120.279 102.719 120.741 105.587 121.427 109.029C121.873 111.259 122.192 112.901 122.782 115.083C123.674 118.398 124.407 121.186 126.129 124.42C127.26 126.54 128.025 127.99 129.619 129.551C130.751 130.65 133.716 133.55 138.179 133.614C140.904 133.646 143.056 132.61 144.315 131.83C145.064 132.244 146.355 132.801 148.029 132.833C148.81 132.849 150.276 132.865 151.663 131.909C152.141 131.575 153.416 130.714 153.512 129.264C153.528 129.041 153.592 127.83 152.731 127.193C151.775 126.492 150.213 126.906 150.085 127.4C149.974 127.862 151.121 128.245 151.089 128.898C151.041 129.726 149.161 130.236 148.81 130.332C137.589 133.359 131.548 128.34 131.548 128.34C129.715 126.811 128.743 125.153 126.479 119.497C124.615 114.845 122.271 108.487 119.992 100.68Z" fill="#3D3D3D"/>
<path d="M74.4548 131.241C75.188 131.783 77.1325 133.041 79.7944 133.025C82.2808 133.01 84.0341 131.878 85.0224 131.241C86.6641 130.189 87.6045 129.026 88.4652 127.911C91.143 124.517 92.2109 120.98 92.9759 118.415C93.6613 116.12 93.3904 116.248 94.0439 114.256C95.2712 110.527 96.3231 109.683 97.3751 107.022C99.1125 102.624 99.2241 97.3824 97.8533 96.8088C97.2157 96.5539 96.2753 97.3027 94.4105 98.8323C93.8526 99.2944 92.8644 100.107 91.8283 101.366C90.9995 102.385 89.549 104.393 87.9392 109.189C86.6322 113.109 86.9191 113.746 85.373 118.08C84.4167 120.773 83.811 121.872 83.0778 122.876C82.249 123.991 80.8782 125.808 78.3917 126.764C76.495 127.497 74.7895 127.401 73.8491 127.273C73.7216 126.636 73.2912 124.883 71.8089 124.023C71.4423 123.8 70.5497 123.29 69.9121 123.673C69.5455 123.896 69.418 124.31 69.3702 124.533C68.6689 123.545 67.9038 123.115 67.4735 122.924C67.059 122.748 66.2143 122.366 65.8636 122.717C65.5448 123.035 65.8317 123.768 65.8636 123.864C65.4173 123.625 64.9073 123.657 64.5407 123.927C64.2697 124.135 63.9669 124.549 64.0784 124.995C64.1581 125.298 64.3972 125.489 64.4769 125.537C64.3813 125.808 64.3016 126.222 64.445 126.652C64.5247 126.875 64.6204 127.019 65.1942 127.656C65.9274 128.484 65.9433 128.453 66.0868 128.66C66.4852 129.249 66.4055 129.568 66.6606 130.094C67.1069 131.066 68.0632 131.528 68.382 131.671C69.4021 132.165 70.3425 132.038 71.8886 131.815C72.8768 131.703 73.7375 131.48 74.4548 131.241Z" fill="white"/>
<path d="M97.8057 96.3803C95.3671 97.6071 93.1675 99.2961 91.462 101.447C89.7565 103.598 88.577 106.084 87.6844 108.665C86.7919 111.278 86.1543 113.971 85.4689 116.632C84.8154 119.213 83.7156 121.89 81.9942 123.945C79.9859 126.351 76.8618 127.275 73.8175 126.925C73.5146 126.893 73.5146 127.371 73.8175 127.403C76.2243 127.674 78.7267 127.211 80.7191 125.793C82.823 124.296 84.146 121.794 85.0864 119.436C86.0905 116.934 86.5368 114.21 87.27 111.629C88.051 108.84 89.0074 106.068 90.5375 103.598C92.3546 100.65 94.9526 98.356 98.0448 96.8105C98.3317 96.6511 98.0767 96.2369 97.8057 96.3803Z" fill="#161616"/>
<path d="M94.3788 112.025C92.9283 117.538 91.7488 123.481 88.1147 128.054C86.5368 130.029 84.4806 131.718 81.9941 132.388C79.412 133.089 76.6227 132.69 74.5347 130.969C74.2956 130.778 73.9608 131.113 74.1999 131.304C77.3718 133.917 81.8985 133.646 85.2138 131.416C88.8479 128.978 90.9997 124.867 92.4023 120.836C93.3906 118 94.0759 115.052 94.841 112.152C94.9207 111.849 94.4585 111.722 94.3788 112.025Z" fill="#161616"/>
<path d="M74.0723 127.163C73.5145 126.302 72.9885 125.394 72.3669 124.582C71.9365 124.008 71.3627 123.466 70.5976 123.402C69.2747 123.323 68.7009 124.836 69.3384 125.84C69.4978 126.095 69.9122 125.856 69.7529 125.601C69.45 125.123 69.466 124.327 70.0079 123.992C70.773 123.514 71.554 124.295 71.9684 124.836C72.59 125.649 73.1001 126.541 73.6579 127.402C73.8173 127.657 74.2317 127.418 74.0723 127.163Z" fill="#161616"/>
<path d="M71.2668 125.57C71.5218 126.112 70.9959 126.654 70.438 126.463C69.9758 126.303 69.7685 125.777 69.6888 125.331C69.641 125.029 69.1788 125.156 69.2266 125.459C69.3701 126.255 69.9439 127.084 70.8524 126.972C71.6334 126.877 71.9841 126.001 71.6812 125.331C71.5537 125.045 71.1393 125.284 71.2668 125.57Z" fill="#161616"/>
<path d="M74.4062 131.036C72.9398 131.355 71.5053 132.135 69.9752 131.896C68.5247 131.673 67.3133 130.749 66.5801 129.522C66.4208 129.251 66.0063 129.506 66.1657 129.761C66.9149 131.02 68.0944 131.976 69.5448 132.311C71.2981 132.709 72.8601 131.864 74.5337 131.498C74.8366 131.434 74.7091 130.972 74.4062 131.036Z" fill="#161616"/>
<path d="M70.1985 126.89C70.31 126.969 70.326 127.129 70.2781 127.24C70.1825 127.559 69.8318 127.591 69.5449 127.622C69.2421 127.638 68.9393 127.591 68.6205 127.622C68.0786 127.686 67.5844 127.877 67.1222 128.164C66.8672 128.324 67.1063 128.738 67.3613 128.578C67.951 128.212 68.5408 128.069 69.2421 128.085C69.6565 128.1 70.0869 128.132 70.4216 127.846C70.8519 127.495 70.8998 126.778 70.4216 126.475C70.1825 126.316 69.9434 126.73 70.1985 126.89Z" fill="#161616"/>
<path d="M70.3742 126.285C69.115 125.473 67.5211 125.696 66.4691 126.763C66.246 126.986 66.5966 127.321 66.8038 127.098C67.7124 126.19 69.0353 125.999 70.1351 126.7C70.3901 126.859 70.6292 126.445 70.3742 126.285Z" fill="#161616"/>
<path d="M69.4827 124.375C68.8292 123.849 68.1916 123.291 67.5062 122.813C67.0918 122.527 66.5658 122.24 66.0558 122.431C65.0516 122.798 65.2588 124.136 66.1355 124.471C66.4224 124.582 66.5499 124.12 66.263 124.008C65.6732 123.307 65.721 122.989 66.4064 123.052C66.6614 122.925 66.8846 122.941 67.0759 123.1C67.3468 123.228 67.6018 123.499 67.8409 123.674C68.2713 124.024 68.7176 124.375 69.1479 124.725C69.3711 124.901 69.7217 124.566 69.4827 124.375Z" fill="#161616"/>
<path d="M68.4931 125.616C67.8078 125.138 67.1224 124.644 66.437 124.182C65.9907 123.879 65.4966 123.592 64.9547 123.64C64.094 123.72 63.568 124.66 64.094 125.393C64.2693 125.632 64.6837 125.393 64.5084 125.154C64.1577 124.516 64.4446 124.182 65.3372 124.15C65.5444 124.214 65.7357 124.293 65.911 124.405C66.1342 124.532 66.3414 124.692 66.5486 124.835C67.1224 125.233 67.6962 125.632 68.27 126.03C68.5091 126.205 68.7482 125.791 68.4931 125.616Z" fill="#161616"/>
<path d="M66.7884 126.365C66.358 126.094 65.9117 125.839 65.4495 125.616C65.1466 125.457 64.7322 125.17 64.3656 125.297C63.7918 125.505 64.015 126.269 64.2381 126.652C64.3816 126.923 64.796 126.684 64.6525 126.413C64.6047 126.317 64.4294 126.03 64.4772 125.919C64.541 125.759 64.796 125.855 64.9076 125.887C65.0351 125.919 65.1626 126.014 65.2901 126.078C65.7204 126.301 66.1349 126.54 66.5493 126.795C66.8043 126.939 67.0593 126.524 66.7884 126.365Z" fill="#161616"/>
<path d="M66.9454 126.255C65.6065 127.083 65.4312 128.852 66.4354 130.015C66.6426 130.254 66.9773 129.903 66.7701 129.68C65.9731 128.756 66.1166 127.322 67.1845 126.669C67.4395 126.51 67.2004 126.095 66.9454 126.255Z" fill="#161616"/>
<path d="M64.1415 126.78C64.6197 127.449 65.1776 128.054 65.8311 128.58C66.0702 128.771 66.4049 128.437 66.1658 128.246C65.5442 127.752 65.0182 127.194 64.5559 126.541C64.3647 126.286 63.9503 126.525 64.1415 126.78Z" fill="#161616"/>
<path d="M71.5538 127.878C70.5497 127.974 69.6092 128.309 68.7804 128.898C68.5254 129.073 68.7645 129.488 69.0195 129.312C69.7846 128.771 70.6134 128.436 71.5538 128.356C71.8726 128.325 71.8726 127.847 71.5538 127.878Z" fill="#161616"/>
<path opacity="0.17" d="M97.0086 102.72C95.0162 107.563 93.4861 111.467 92.5138 114.017C90.2345 119.944 89.597 122.015 87.4452 124.74C85.6122 127.05 83.4445 129.934 79.7785 130.492C77.4833 130.842 75.5387 130.141 74.407 129.631C74.1201 129.854 71.9365 131.416 69.8166 130.587C68.6371 130.125 67.4736 128.93 67.7126 128.197C67.9517 127.448 69.5456 127.496 69.5297 127.146C69.5138 126.859 68.414 126.461 67.4257 126.763C67.2823 126.811 66.31 127.13 65.9912 128.006C65.5768 129.169 66.6607 130.364 66.9476 130.683C68.414 132.308 70.6614 132.228 71.0598 132.212C72.6697 132.165 73.8492 131.448 74.407 131.065C75.1243 131.671 76.3835 132.563 78.1368 132.882C81.3724 133.487 83.9864 131.671 85.4209 130.778C89.5173 128.181 91.0634 124.039 92.3225 120.916C92.9282 119.402 93.1992 118.414 94.6815 112.375C95.606 108.551 96.4029 105.269 97.0086 102.72Z" fill="#3D3D3D"/>
<path opacity="0.17" d="M64.8276 123.975C65.3695 123.88 66.0708 125.314 66.549 126.461C66.3099 127.688 66.007 127.959 65.7839 127.99C65.1463 128.102 64.0625 126.541 64.2538 125.122C64.2697 125.011 64.3972 124.055 64.8276 123.975Z" fill="#3D3D3D"/>
<path d="M97.6294 96.4899C94.6169 99.9474 94.5532 104.218 94.5372 111.706C94.5213 120.772 96.1471 128.405 97.8844 134.093C100.498 134.873 104.292 135.702 108.898 135.702C113.441 135.702 117.187 134.873 119.785 134.093C120.374 131.655 121.155 128.07 121.761 123.704C123.849 108.902 125.22 99.1667 119.785 94.3867C114.302 89.5748 102.778 90.5786 97.6294 96.4899Z" fill="white" stroke="#161616" stroke-miterlimit="10"/>
<path opacity="0.1" d="M112.565 91.6299C113.25 93.032 114.159 95.199 114.733 97.9555C115.259 100.473 116.071 106.066 111.465 119.991C110.158 123.959 108.182 129.281 105.233 135.399C106.492 135.526 107.847 135.606 109.281 135.59C113.378 135.574 116.932 134.905 119.753 134.108C120.965 128.181 121.825 123.13 122.415 119.29C123.148 114.574 123.658 110.591 123.499 105.556C123.308 99.1823 122.224 97.334 121.618 96.4736C119.02 92.6815 114.334 91.853 112.565 91.6299Z" fill="#3D3D3D"/>
<path opacity="0.13" d="M123.244 101.111C122.527 103.278 121.491 106.624 120.47 110.799C119.195 116.009 119.004 118.192 118.303 120.98C117.362 124.613 115.402 129.744 110.795 135.607C112.31 135.655 114.334 135.543 116.629 134.922C117.84 134.587 118.908 134.157 119.785 133.743C120.598 129.313 121.315 125.155 121.953 121.299C123.084 114.543 123.483 111.755 123.531 108.058C123.579 105.142 123.403 102.752 123.244 101.111Z" fill="#3D3D3D"/>
<path d="M105.489 87.8716C104.963 88.5886 105.218 89.2419 105.106 91.9187C105.026 93.6713 104.851 95.0735 104.724 95.9658C105.266 96.3482 106.796 97.3201 108.963 97.3201C111.514 97.3201 113.219 95.9817 113.681 95.5834C113.474 95.0098 113.219 94.1493 113.012 93.0818C112.422 90.0385 113.028 89.0985 112.343 88.0628C111.115 86.2304 106.748 86.1508 105.489 87.8716Z" fill="white" stroke="#161616" stroke-miterlimit="10"/>
<path d="M99.0333 79.2823C98.9695 81.5448 99.4796 83.2337 99.894 84.5881C100.516 86.5798 101.201 88.8104 103.177 90.8499C104.899 92.6345 106.907 93.5586 108.485 94.0366C109.696 93.5427 111.689 92.5389 113.506 90.5631C115.482 88.4121 116.232 86.2292 116.789 84.5881C117.268 83.17 118.08 80.6047 117.746 77.2587C117.507 74.9165 117.252 72.3831 115.243 70.4233C112.279 67.5393 107.943 68.2882 107.338 68.3997C103.13 69.1805 101.01 72.5106 100.5 73.4188C99.1289 75.745 99.0651 78.0235 99.0333 79.2823Z" fill="white" stroke="#161616" stroke-miterlimit="10"/>
<path d="M107.402 81.02C107.307 83.0595 107.498 85.083 107.992 87.0588C108.04 87.2181 108.279 87.2978 108.39 87.1703C108.757 86.7401 108.996 86.2781 109.108 85.7204C109.172 85.4176 108.709 85.2902 108.646 85.5929C108.55 86.0869 108.375 86.4533 108.056 86.8357C108.183 86.8676 108.327 86.8995 108.454 86.9473C107.976 85.0034 107.801 83.0276 107.88 81.036C107.88 80.7173 107.402 80.7173 107.402 81.02Z" fill="#161616"/>
<path d="M110.749 81.7216C111.881 82.9167 114.16 83.2513 114.766 81.3233C114.861 81.0365 114.399 80.909 114.304 81.1958C113.809 82.7733 111.961 82.2793 111.1 81.3711C110.861 81.164 110.526 81.4986 110.749 81.7216Z" fill="#161616"/>
<path d="M102.763 84.8122C102.763 84.7644 102.747 84.8282 102.731 84.8282C102.715 84.8441 102.683 84.8441 102.651 84.8441C102.603 84.7485 102.539 84.6529 102.492 84.5573C102.508 84.5414 102.508 84.5254 102.523 84.5095C102.396 84.5414 102.316 84.6688 102.364 84.7963C102.396 84.9238 102.539 85.0034 102.651 84.9556C102.794 84.9078 102.89 84.8122 102.954 84.6688C103.002 84.5573 102.906 84.3979 102.794 84.382C102.587 84.3342 102.348 84.4458 102.3 84.6688C102.284 84.7963 102.332 84.9397 102.46 84.9556C102.587 85.0194 102.747 84.9556 102.763 84.8122Z" fill="#161616"/>
<path d="M105.122 84.1914C105.09 84.4304 105.027 84.4463 104.931 84.2392C104.756 84.0958 104.788 84.0321 105.027 84.0639C104.915 84.0002 104.772 84.0321 104.692 84.1436C104.628 84.2551 104.66 84.4145 104.772 84.4782C105.043 84.6375 105.377 84.287 105.17 84.0321C104.963 83.7771 104.549 84.0002 104.628 84.3029C104.66 84.4304 104.804 84.5101 104.915 84.4623C105.09 84.4623 105.154 84.3189 105.122 84.1914Z" fill="#161616"/>
<path d="M104.261 85.8475C104.261 85.8794 104.245 85.9112 104.213 85.9431C104.245 85.9112 104.181 85.959 104.197 85.9431C104.213 85.9272 104.149 85.959 104.197 85.9431C104.165 85.9431 104.149 85.9431 104.165 85.9431C104.181 85.9431 104.181 85.9431 104.134 85.9431C104.118 85.9431 104.118 85.9272 104.102 85.9272C104.118 85.9431 104.118 85.9272 104.086 85.9112C104.022 85.8475 104.022 85.7519 104.07 85.6882C104.134 85.6244 104.245 85.6563 104.277 85.72C104.213 85.6085 104.07 85.5766 103.942 85.6403C103.831 85.7041 103.783 85.8634 103.863 85.975C103.958 86.1343 104.165 86.1821 104.325 86.0865C104.484 86.0068 104.548 85.7997 104.452 85.6403C104.261 85.3376 103.751 85.5129 103.751 85.8475C103.751 85.975 103.863 86.0865 103.99 86.0865C104.149 86.0865 104.261 85.9909 104.261 85.8475Z" fill="#161616"/>
<path d="M112.374 83.8244C112.485 83.8404 112.549 83.9041 112.565 83.9838C112.581 84.0794 112.517 84.1431 112.374 84.1909C112.326 84.175 112.294 84.175 112.246 84.159C112.167 84.1112 112.151 84.0475 112.198 83.9678C112.278 83.8404 112.517 83.8882 112.469 84.0634C112.501 83.936 112.438 83.7926 112.31 83.7766C112.183 83.7448 112.055 83.8085 112.023 83.936C111.959 84.159 112.151 84.398 112.39 84.3662C112.597 84.3343 112.724 84.1272 112.661 83.92C112.629 83.8085 112.517 83.7129 112.39 83.7129C112.294 83.7129 112.198 83.7766 112.151 83.8563C112.055 84.0316 112.183 84.3184 112.406 84.3024C112.533 84.2865 112.645 84.2068 112.645 84.0634C112.613 83.9519 112.517 83.8085 112.374 83.8244Z" fill="#161616"/>
<path d="M114.175 83.9986C114.191 83.9986 114.191 83.9826 114.175 83.9986C114.159 84.0145 114.127 84.0464 114.095 84.0782C114 84.0464 113.92 84.0145 113.824 83.9667C113.824 83.9189 113.824 83.887 113.824 83.8392C113.824 83.8233 113.84 83.8233 113.84 83.8073C113.872 83.7755 113.904 83.7436 113.92 83.7277C114.016 83.7595 114.095 83.7914 114.191 83.8392C114.191 83.887 114.191 83.9189 114.191 83.9667V83.9508C114.223 83.8233 114.159 83.6799 114.032 83.6639C113.904 83.6321 113.777 83.6958 113.745 83.8233C113.665 84.142 114.143 84.3332 114.287 84.0145C114.35 83.887 114.287 83.7277 114.159 83.6639C114.016 83.5843 113.856 83.6321 113.777 83.7596C113.697 83.8711 113.761 84.0304 113.856 84.0942C113.968 84.1579 114.111 84.0942 114.175 83.9986Z" fill="#161616"/>
<path d="M113.299 85.5753C113.283 85.5275 113.299 85.5753 113.283 85.5913C113.283 85.6072 113.235 85.6391 113.283 85.6072C113.155 85.5913 113.028 85.5753 112.9 85.5594C112.805 85.416 112.98 85.2885 113.107 85.3523C112.996 85.2885 112.852 85.3204 112.773 85.4319C112.709 85.5435 112.741 85.7028 112.852 85.7665C112.98 85.8303 113.139 85.8143 113.235 85.7028C113.331 85.6072 113.362 85.4319 113.283 85.3045C113.203 85.177 113.012 85.1451 112.9 85.2567C112.789 85.3682 112.741 85.5435 112.789 85.6869C112.836 85.8143 112.948 85.894 113.076 85.8462C113.251 85.8462 113.347 85.7028 113.299 85.5753Z" fill="#161616"/>
<path d="M106.349 88.3819C107.481 89.561 109.282 89.5291 110.35 88.2703C110.541 88.0313 110.206 87.6967 110.015 87.9357C109.122 88.9873 107.656 89.0511 106.684 88.0473C106.476 87.8242 106.142 88.1588 106.349 88.3819Z" fill="#161616"/>
<path d="M103.417 78.7249C103.895 78.1991 104.565 77.976 105.266 78.1194C105.569 78.1831 105.696 77.7211 105.393 77.6573C104.533 77.4821 103.672 77.737 103.082 78.3903C102.875 78.6133 103.21 78.9479 103.417 78.7249Z" fill="#161616"/>
<path d="M110.908 77.7508C111.641 77.6711 112.311 77.8464 112.901 78.2766C113.156 78.4518 113.395 78.0376 113.14 77.8623C112.486 77.3843 111.705 77.1772 110.908 77.2728C110.605 77.3046 110.605 77.7826 110.908 77.7508Z" fill="#161616"/>
<path d="M102.555 81.8633C103.687 83.0583 105.966 83.3929 106.572 81.4649C106.668 81.1781 106.205 81.0506 106.11 81.3374C105.616 82.9149 103.767 82.4209 102.906 81.5127C102.683 81.2896 102.332 81.6402 102.555 81.8633Z" fill="#161616"/>
<path d="M107.815 71.8579C108.852 73.1008 110.095 74.4392 111.593 75.7935C113.633 77.6418 115.626 79.0758 117.363 80.1593C117.267 81.5933 116.965 83.7921 115.881 86.2618C114.813 88.7155 113.394 90.4204 112.422 91.456C112.326 92.2208 112.294 93.5274 112.916 94.8339C114.366 97.8772 118.542 99.2475 121.746 98.2118C122.129 98.0843 124.822 97.1761 125.699 94.7543C125.938 94.0851 126.066 93.2725 125.699 91.1214C125.173 88.0144 124.249 85.736 123.978 85.0349C123.213 83.091 122.224 80.2867 121.332 76.622C121.045 75.3474 119.865 70.7745 115.721 68.1295C114.637 67.4285 112.31 65.9467 109.378 66.3928C108.102 66.584 107.114 67.0779 106.493 67.4603C105.154 67.5719 102.763 67.9543 100.468 69.6113C95.2715 73.3398 95.4149 80.0637 95.4309 80.7488C95.2715 81.5933 95.0005 82.8679 94.5223 84.3816C93.3428 88.0782 92.3546 88.5402 92.1315 90.8187C92.0677 91.3923 91.7808 94.2922 93.6935 96.6663C94.092 97.1602 95.3193 98.642 97.4073 99.0563C100.181 99.614 103.161 98.0525 104.389 95.5987C105.074 94.2285 105.058 92.906 104.994 92.2049C104.532 91.7906 100.276 87.9348 100.786 81.9279C101.36 75.0924 107.529 72.0013 107.815 71.8579Z" fill="#5B87E0"/>
<path opacity="0.11" d="M113.713 77.6416C114 78.7251 114.319 80.3662 114.143 82.342C113.92 84.8594 113.028 86.628 112.103 88.4445C111.37 89.8785 110.222 91.8383 108.405 93.8937C108.692 93.8459 109.027 93.7503 109.362 93.6228C110.143 93.336 110.732 92.9377 111.131 92.6031C111.003 94.1008 110.876 95.5986 110.764 97.0963C111.673 96.698 112.581 96.3156 113.49 95.9172C113.299 94.3239 113.091 92.7465 112.9 91.1531C113.283 90.6751 113.825 89.9741 114.398 89.0659C115.195 87.8071 116.327 85.9907 116.917 83.4573C117.108 82.6447 117.299 81.4497 117.283 79.9838C116.104 79.219 114.908 78.4223 113.713 77.6416Z" fill="#3D3D3D"/>
<path opacity="0.16" d="M117.3 80.271C117.172 80.2391 116.822 81.8802 115.754 84.334C115.754 84.334 114.957 86.1504 114.048 87.6959C113.204 89.1299 111.53 91.5359 108.374 94.0534C108.725 94.2127 109.091 94.372 109.442 94.5314C110.478 94.4198 111.514 94.3242 112.55 94.2127C112.502 93.3364 112.438 92.46 112.391 91.5996C113.634 90.325 115.339 88.2377 116.407 85.2422C117.268 82.7406 117.459 80.3028 117.3 80.271Z" fill="#3D3D3D"/>
<path opacity="0.29" d="M93.4387 87.3295C93.4068 87.8553 93.4387 88.7635 93.869 89.7354C94.4906 91.1216 95.9411 92.6353 97.5031 92.6194C99.3999 92.6034 101.504 90.309 101.408 87.0586C101.711 87.8234 102.173 88.7475 102.859 89.7354C103.64 90.8667 104.484 91.7112 105.154 92.3007C105.17 92.8265 105.122 93.6391 104.835 94.5473C104.676 95.0572 104.277 96.0928 103.385 97.0648C103.002 97.4791 101.759 98.8175 99.7505 99.1521C96.8337 99.6301 94.6341 97.6065 94.2356 97.2241C91.6216 94.7226 92.0679 91.1854 92.1476 90.6436C92.3708 89.0981 93.0083 87.9668 93.4387 87.3295Z" fill="#3D3D3D"/>
<path opacity="0.12" d="M117.411 80.207C117.538 80.9878 117.714 82.2306 117.841 83.7921C118.112 87.1381 117.841 88.0303 118.383 89.7352C118.463 90.0061 119.69 93.7664 121.491 93.7982C122.894 93.8301 124.456 91.6313 125.078 88.3968C125.572 90.0061 125.779 91.3764 125.875 92.3483C126.034 93.9257 125.891 94.4515 125.827 94.7064C125.381 96.1564 124.201 96.9531 123.579 97.3833C121.38 98.881 119.005 98.6579 118.654 98.6101C118.096 98.5464 115.514 98.2118 113.793 96.0448C113.522 95.7102 112.661 94.579 112.406 92.89C112.326 92.3324 112.326 91.8384 112.358 91.5038C113.331 90.5478 114.622 89.0341 115.674 86.8991C116.981 84.1904 117.315 81.7207 117.411 80.207Z" fill="#3D3D3D"/>
<path d="M123.457 51.5041C120.617 51.9449 118.63 49.9368 112.998 45.6268C104.526 39.1129 102.728 38.917 101.45 39.0149C100.835 39.0639 99.6988 39.2598 94.3508 43.4229C86.5418 49.496 86.0686 51.3572 83.5129 51.5041C78.8749 51.7 78.2123 45.6268 72.675 45.0881C67.6583 44.5983 66.0965 49.3491 59.8967 49.1042C55.1166 48.9573 52.3243 45.9207 51.8984 46.5574C51.3778 47.39 55.8739 53.806 62.3577 54.8346C67.1377 55.5692 68.1789 52.6796 72.817 53.3652C79.2535 54.3448 80.484 60.418 85.2167 59.9772C88.009 59.6833 88.3876 57.5283 93.215 54.0999C95.7707 52.2877 100.219 49.1532 105.094 48.7614C114.039 48.0757 118.677 57.0385 124.072 54.4427C126.675 53.2183 128.142 49.8879 127.811 49.496C127.574 49.1042 125.918 51.1123 123.457 51.5041Z" fill="#5B87E0"/>
<circle cx="131.357" cy="42.5" r="0.5" fill="#DBFBB9"/>
<path d="M61.9274 60.8527C62.581 60.4575 62.7211 59.5189 62.8144 58.8767C63.1412 56.5549 61.5073 54.6776 61.2272 54.2824C59.4999 52.257 58.5195 53.2944 56.8856 51.4172C55.6718 50.034 55.7652 48.8978 53.8978 47.0699C52.684 45.8349 52.2639 45.9831 52.1705 46.0325C51.517 46.3289 52.0772 47.8603 51.4236 50.2316C50.8634 52.2076 50.1631 52.2076 49.9297 53.8872C49.883 54.3318 49.5562 56.5549 50.8167 57.8393C51.3769 58.4321 52.1238 58.5803 53.6644 58.8767C55.4384 59.2225 55.6718 59.0249 56.8856 59.2719C59.8267 59.8647 60.8537 61.4949 61.9274 60.8527Z" fill="#F1F4FC"/>
<path opacity="0.8" d="M56.4997 50.9509C56.7511 50.8192 56.805 50.5063 56.8409 50.2922C56.9666 49.5183 56.3381 48.8925 56.2304 48.7608C55.5661 48.0857 55.189 48.4315 54.5606 47.8057C54.0937 47.3447 54.1296 46.9659 53.4114 46.3566C52.9446 45.945 52.783 45.9944 52.7471 46.0108C52.4957 46.1096 52.7112 46.6201 52.4598 47.4105C52.2443 48.0692 51.975 48.0692 51.8852 48.6291C51.8673 48.7773 51.7416 49.5183 52.2264 49.9464C52.4418 50.144 52.7291 50.1934 53.3216 50.2922C54.0039 50.4075 54.0937 50.3416 54.5606 50.424C55.6917 50.6216 56.0868 51.165 56.4997 50.9509Z" fill="url(#paint11_linear_1_103)"/>
<path d="M62.1305 59C69.4627 66.4065 76.7949 73.8604 84.127 81.2669C85.0496 82.3114 85.0982 83.8781 84.2727 84.9226C83.3501 86.0621 81.6992 86.3469 80.3881 85.5398C72.8617 76.9939 65.3838 68.4005 57.8574 59.8546C59.2656 59.5697 60.6738 59.2849 62.1305 59Z" fill="black"/>
<circle cx="59.3574" cy="39.5" r="1.5" fill="url(#paint12_linear_1_103)"/>
<circle cx="104.357" cy="52.5" r="0.5" fill="url(#paint13_linear_1_103)"/>
<circle cx="104.857" cy="36" r="1" fill="#5B87E0"/>
<circle cx="34.3574" cy="44.5" r="0.5" fill="#C4C4C4"/>
<path d="M43.3125 40.6771C43.484 40.1492 44.2308 40.1492 44.4023 40.6771V40.6771C44.479 40.9131 44.699 41.0729 44.9472 41.0729V41.0729C45.5023 41.0729 45.733 41.7832 45.284 42.1094V42.1094C45.0832 42.2553 44.9992 42.5139 45.0759 42.75V42.75C45.2474 43.2779 44.6432 43.7168 44.1942 43.3906V43.3906C43.9934 43.2447 43.7215 43.2447 43.5207 43.3906V43.3906C43.0716 43.7168 42.4675 43.2779 42.639 42.75V42.75C42.7157 42.5139 42.6316 42.2553 42.4308 42.1094V42.1094C41.9818 41.7832 42.2126 41.0729 42.7676 41.0729V41.0729C43.0158 41.0729 43.2358 40.9131 43.3125 40.6771V40.6771Z" fill="url(#paint14_linear_1_103)"/>
<path d="M126.494 45.118C126.608 44.7661 127.106 44.7661 127.221 45.118V45.118C127.272 45.2754 127.418 45.382 127.584 45.382V45.382C127.954 45.382 128.108 45.8555 127.808 46.0729V46.0729C127.675 46.1702 127.619 46.3426 127.67 46.5V46.5C127.784 46.8519 127.381 47.1445 127.082 46.9271V46.9271C126.948 46.8298 126.767 46.8298 126.633 46.9271V46.9271C126.334 47.1445 125.931 46.8519 126.045 46.5V46.5C126.096 46.3426 126.04 46.1702 125.906 46.0729V46.0729C125.607 45.8555 125.761 45.382 126.131 45.382V45.382C126.296 45.382 126.443 45.2754 126.494 45.118V45.118Z" fill="url(#paint15_linear_1_103)"/>
<path d="M130.494 53.118C130.608 52.7661 131.106 52.7661 131.221 53.118V53.118C131.272 53.2754 131.418 53.382 131.584 53.382V53.382C131.954 53.382 132.108 53.8555 131.808 54.0729V54.0729C131.675 54.1702 131.619 54.3426 131.67 54.5V54.5C131.784 54.8519 131.381 55.1445 131.082 54.9271V54.9271C130.948 54.8298 130.767 54.8298 130.633 54.9271V54.9271C130.334 55.1445 129.931 54.8519 130.045 54.5V54.5C130.096 54.3426 130.04 54.1702 129.906 54.0729V54.0729C129.607 53.8555 129.761 53.382 130.131 53.382V53.382C130.296 53.382 130.443 53.2754 130.494 53.118V53.118Z" fill="#D9E0F2" fill-opacity="0.5"/>
<path d="M40.3819 51.4635C40.5316 51.0029 41.1833 51.0029 41.333 51.4635L41.6432 52.4184C41.7102 52.6245 41.9021 52.7639 42.1187 52.7639H43.1228C43.6072 52.7639 43.8086 53.3837 43.4167 53.6684L42.6044 54.2586C42.4292 54.3859 42.3558 54.6116 42.4228 54.8176L42.733 55.7725C42.8827 56.2332 42.3555 56.6163 41.9636 56.3316L41.1513 55.7414C40.9761 55.6141 40.7388 55.6141 40.5635 55.7414L39.7512 56.3316C39.3594 56.6163 38.8321 56.2332 38.9818 55.7725L39.2921 54.8176C39.359 54.6116 39.2857 54.3859 39.1104 54.2586L38.2981 53.6684C37.9063 53.3837 38.1077 52.7639 38.592 52.7639H39.5961C39.8127 52.7639 40.0047 52.6245 40.0716 52.4184L40.3819 51.4635Z" fill="#5B87E0"/>
<defs>
<linearGradient id="paint0_linear_1_103" x1="134.737" y1="132.85" x2="142.081" y2="186.678" gradientUnits="userSpaceOnUse">
<stop stop-color="#EE4266"/>
<stop offset="1" stop-color="#FA5E7E"/>
</linearGradient>
<linearGradient id="paint1_linear_1_103" x1="139.57" y1="133.793" x2="149.084" y2="185.995" gradientUnits="userSpaceOnUse">
<stop stop-color="#EE4266"/>
<stop offset="1" stop-color="#FA5E7E"/>
</linearGradient>
<linearGradient id="paint2_linear_1_103" x1="130.976" y1="151.53" x2="131.274" y2="157.389" gradientUnits="userSpaceOnUse">
<stop stop-color="#EE4266"/>
<stop offset="1" stop-color="#FA5E7E"/>
</linearGradient>
<linearGradient id="paint3_linear_1_103" x1="126.112" y1="155.012" x2="135.749" y2="174.03" gradientUnits="userSpaceOnUse">
<stop stop-color="#EE4266"/>
<stop offset="1" stop-color="#FA5E7E"/>
</linearGradient>
<linearGradient id="paint4_linear_1_103" x1="120.806" y1="149.348" x2="121.116" y2="156.466" gradientUnits="userSpaceOnUse">
<stop stop-color="#EE4266"/>
<stop offset="1" stop-color="#FA5E7E"/>
</linearGradient>
<linearGradient id="paint5_linear_1_103" x1="92.0588" y1="131.166" x2="99.7214" y2="187.426" gradientUnits="userSpaceOnUse">
<stop stop-color="#EE4266"/>
<stop offset="1" stop-color="#FA5E7E"/>
</linearGradient>
<linearGradient id="paint6_linear_1_103" x1="92.9944" y1="153.861" x2="93.1298" y2="156.23" gradientUnits="userSpaceOnUse">
<stop stop-color="#EE4266"/>
<stop offset="1" stop-color="#FA5E7E"/>
</linearGradient>
<linearGradient id="paint7_linear_1_103" x1="85.4587" y1="133.83" x2="94.0621" y2="186.405" gradientUnits="userSpaceOnUse">
<stop stop-color="#EE4266"/>
<stop offset="1" stop-color="#FA5E7E"/>
</linearGradient>
<linearGradient id="paint8_linear_1_103" x1="89.2599" y1="151.583" x2="89.526" y2="157.435" gradientUnits="userSpaceOnUse">
<stop stop-color="#EE4266"/>
<stop offset="1" stop-color="#FA5E7E"/>
</linearGradient>
<linearGradient id="paint9_linear_1_103" x1="92.562" y1="155.066" x2="101.578" y2="174.851" gradientUnits="userSpaceOnUse">
<stop stop-color="#EE4266"/>
<stop offset="1" stop-color="#FA5E7E"/>
</linearGradient>
<linearGradient id="paint10_linear_1_103" x1="102.206" y1="149.393" x2="102.485" y2="156.519" gradientUnits="userSpaceOnUse">
<stop stop-color="#EE4266"/>
<stop offset="1" stop-color="#FA5E7E"/>
</linearGradient>
<linearGradient id="paint11_linear_1_103" x1="53.7324" y1="46" x2="52.6256" y2="52.8942" gradientUnits="userSpaceOnUse">
<stop stop-color="#5B87E0"/>
<stop offset="1" stop-color="#215DD5"/>
</linearGradient>
<linearGradient id="paint12_linear_1_103" x1="59.7324" y1="38" x2="60.3965" y2="42.1365" gradientUnits="userSpaceOnUse">
<stop stop-color="#EE4266"/>
<stop offset="1" stop-color="#FA5E7E"/>
</linearGradient>
<linearGradient id="paint13_linear_1_103" x1="104.482" y1="52" x2="104.704" y2="53.3788" gradientUnits="userSpaceOnUse">
<stop stop-color="#EE4266"/>
<stop offset="1" stop-color="#FA5E7E"/>
</linearGradient>
<linearGradient id="paint14_linear_1_103" x1="44.6074" y1="39" x2="45.9355" y2="47.2731" gradientUnits="userSpaceOnUse">
<stop stop-color="#FCC2CE"/>
<stop offset="1" stop-color="#FDCAD5"/>
</linearGradient>
<linearGradient id="paint15_linear_1_103" x1="127.357" y1="44" x2="128.243" y2="49.5154" gradientUnits="userSpaceOnUse">
<stop stop-color="#EE4266"/>
<stop offset="1" stop-color="#FA5E7E"/>
</linearGradient>
</defs>
</svg>