<svg width="216" height="201" viewBox="0 0 216 201" fill="none" xmlns="http://www.w3.org/2000/svg">
<rect width="216" height="201" rx="24" fill="white"/>
<path d="M96.948 43.504H99.804C100.212 43.504 100.604 43.544 100.98 43.624C101.364 43.704 101.7 43.84 101.988 44.032C102.276 44.216 102.504 44.468 102.672 44.788C102.848 45.1 102.936 45.492 102.936 45.964C102.936 46.5 102.844 46.932 102.66 47.26C102.476 47.588 102.228 47.844 101.916 48.028C101.604 48.204 101.24 48.324 100.824 48.388C100.416 48.452 99.988 48.484 99.54 48.484H98.46V52H96.948V43.504ZM99.372 47.188C99.588 47.188 99.812 47.18 100.044 47.164C100.276 47.148 100.488 47.1 100.68 47.02C100.88 46.94 101.04 46.82 101.16 46.66C101.288 46.5 101.352 46.276 101.352 45.988C101.352 45.724 101.296 45.516 101.184 45.364C101.072 45.204 100.928 45.084 100.752 45.004C100.576 44.916 100.38 44.86 100.164 44.836C99.948 44.812 99.74 44.8 99.54 44.8H98.46V47.188H99.372ZM104.176 42.928H105.616V52H104.176V42.928ZM110.869 51.208H110.833C110.625 51.536 110.361 51.776 110.041 51.928C109.721 52.072 109.369 52.144 108.985 52.144C108.721 52.144 108.461 52.108 108.205 52.036C107.957 51.964 107.733 51.856 107.533 51.712C107.341 51.568 107.185 51.388 107.065 51.172C106.945 50.956 106.885 50.704 106.885 50.416C106.885 50.104 106.941 49.84 107.053 49.624C107.165 49.4 107.313 49.216 107.497 49.072C107.689 48.92 107.909 48.8 108.157 48.712C108.405 48.624 108.661 48.56 108.925 48.52C109.197 48.472 109.469 48.444 109.741 48.436C110.013 48.42 110.269 48.412 110.509 48.412H110.869V48.256C110.869 47.896 110.745 47.628 110.497 47.452C110.249 47.268 109.933 47.176 109.549 47.176C109.245 47.176 108.961 47.232 108.697 47.344C108.433 47.448 108.205 47.592 108.013 47.776L107.257 47.02C107.577 46.692 107.949 46.456 108.373 46.312C108.805 46.168 109.249 46.096 109.705 46.096C110.113 46.096 110.457 46.144 110.737 46.24C111.017 46.328 111.249 46.444 111.433 46.588C111.617 46.732 111.757 46.9 111.853 47.092C111.957 47.276 112.029 47.464 112.069 47.656C112.117 47.848 112.145 48.036 112.153 48.22C112.161 48.396 112.165 48.552 112.165 48.688V52H110.869V51.208ZM110.785 49.42H110.485C110.285 49.42 110.061 49.428 109.813 49.444C109.565 49.46 109.329 49.5 109.105 49.564C108.889 49.62 108.705 49.708 108.553 49.828C108.401 49.94 108.325 50.1 108.325 50.308C108.325 50.444 108.353 50.56 108.409 50.656C108.473 50.744 108.553 50.82 108.649 50.884C108.745 50.948 108.853 50.996 108.973 51.028C109.093 51.052 109.213 51.064 109.333 51.064C109.829 51.064 110.193 50.948 110.425 50.716C110.665 50.476 110.785 50.152 110.785 49.744V49.42ZM117.65 47.968C117.482 47.792 117.306 47.652 117.122 47.548C116.938 47.444 116.75 47.392 116.558 47.392C116.294 47.392 116.058 47.44 115.85 47.536C115.642 47.632 115.462 47.76 115.31 47.92C115.166 48.08 115.054 48.264 114.974 48.472C114.902 48.68 114.866 48.896 114.866 49.12C114.866 49.344 114.902 49.56 114.974 49.768C115.054 49.976 115.166 50.16 115.31 50.32C115.462 50.48 115.642 50.608 115.85 50.704C116.058 50.8 116.294 50.848 116.558 50.848C116.782 50.848 116.99 50.804 117.182 50.716C117.374 50.62 117.538 50.484 117.674 50.308L118.634 51.34C118.49 51.484 118.322 51.608 118.13 51.712C117.946 51.816 117.758 51.9 117.566 51.964C117.374 52.028 117.19 52.072 117.014 52.096C116.838 52.128 116.686 52.144 116.558 52.144C116.126 52.144 115.718 52.072 115.334 51.928C114.95 51.784 114.618 51.58 114.338 51.316C114.058 51.052 113.834 50.736 113.666 50.368C113.506 49.992 113.426 49.576 113.426 49.12C113.426 48.664 113.506 48.252 113.666 47.884C113.834 47.508 114.058 47.188 114.338 46.924C114.618 46.66 114.95 46.456 115.334 46.312C115.718 46.168 116.126 46.096 116.558 46.096C116.926 46.096 117.294 46.168 117.662 46.312C118.038 46.448 118.366 46.668 118.646 46.972L117.65 47.968ZM120.656 49.624C120.704 50.056 120.872 50.392 121.16 50.632C121.448 50.872 121.796 50.992 122.204 50.992C122.564 50.992 122.864 50.92 123.104 50.776C123.352 50.624 123.568 50.436 123.752 50.212L124.784 50.992C124.448 51.408 124.072 51.704 123.656 51.88C123.24 52.056 122.804 52.144 122.348 52.144C121.916 52.144 121.508 52.072 121.124 51.928C120.74 51.784 120.408 51.58 120.128 51.316C119.848 51.052 119.624 50.736 119.456 50.368C119.296 49.992 119.216 49.576 119.216 49.12C119.216 48.664 119.296 48.252 119.456 47.884C119.624 47.508 119.848 47.188 120.128 46.924C120.408 46.66 120.74 46.456 121.124 46.312C121.508 46.168 121.916 46.096 122.348 46.096C122.748 46.096 123.112 46.168 123.44 46.312C123.776 46.448 124.06 46.648 124.292 46.912C124.532 47.176 124.716 47.504 124.844 47.896C124.98 48.28 125.048 48.724 125.048 49.228V49.624H120.656ZM123.608 48.544C123.6 48.12 123.468 47.788 123.212 47.548C122.956 47.3 122.6 47.176 122.144 47.176C121.712 47.176 121.368 47.3 121.112 47.548C120.864 47.796 120.712 48.128 120.656 48.544H123.608ZM132.153 48.364L128.961 43.504H130.857L132.945 46.888L135.057 43.504H136.857L133.665 48.364V52H132.153V48.364ZM136.114 49.12C136.114 48.664 136.194 48.252 136.354 47.884C136.522 47.508 136.746 47.188 137.026 46.924C137.306 46.66 137.638 46.456 138.022 46.312C138.406 46.168 138.814 46.096 139.246 46.096C139.678 46.096 140.086 46.168 140.47 46.312C140.854 46.456 141.186 46.66 141.466 46.924C141.746 47.188 141.966 47.508 142.126 47.884C142.294 48.252 142.378 48.664 142.378 49.12C142.378 49.576 142.294 49.992 142.126 50.368C141.966 50.736 141.746 51.052 141.466 51.316C141.186 51.58 140.854 51.784 140.47 51.928C140.086 52.072 139.678 52.144 139.246 52.144C138.814 52.144 138.406 52.072 138.022 51.928C137.638 51.784 137.306 51.58 137.026 51.316C136.746 51.052 136.522 50.736 136.354 50.368C136.194 49.992 136.114 49.576 136.114 49.12ZM137.554 49.12C137.554 49.344 137.59 49.56 137.662 49.768C137.742 49.976 137.854 50.16 137.998 50.32C138.15 50.48 138.33 50.608 138.538 50.704C138.746 50.8 138.982 50.848 139.246 50.848C139.51 50.848 139.746 50.8 139.954 50.704C140.162 50.608 140.338 50.48 140.482 50.32C140.634 50.16 140.746 49.976 140.818 49.768C140.898 49.56 140.938 49.344 140.938 49.12C140.938 48.896 140.898 48.68 140.818 48.472C140.746 48.264 140.634 48.08 140.482 47.92C140.338 47.76 140.162 47.632 139.954 47.536C139.746 47.44 139.51 47.392 139.246 47.392C138.982 47.392 138.746 47.44 138.538 47.536C138.33 47.632 138.15 47.76 137.998 47.92C137.854 48.08 137.742 48.264 137.662 48.472C137.59 48.68 137.554 48.896 137.554 49.12ZM148.982 52H147.614V51.076H147.59C147.454 51.364 147.246 51.616 146.966 51.832C146.686 52.04 146.306 52.144 145.826 52.144C145.442 52.144 145.114 52.084 144.842 51.964C144.578 51.836 144.362 51.668 144.194 51.46C144.026 51.244 143.906 51 143.834 50.728C143.762 50.456 143.726 50.172 143.726 49.876V46.24H145.166V49.156C145.166 49.316 145.174 49.496 145.19 49.696C145.206 49.888 145.246 50.072 145.31 50.248C145.382 50.416 145.486 50.56 145.622 50.68C145.766 50.792 145.966 50.848 146.222 50.848C146.462 50.848 146.662 50.808 146.822 50.728C146.99 50.648 147.126 50.54 147.23 50.404C147.342 50.268 147.422 50.112 147.47 49.936C147.518 49.76 147.542 49.576 147.542 49.384V46.24H148.982V52ZM150.617 46.24H152.057V47.152H152.081C152.241 46.816 152.469 46.556 152.765 46.372C153.061 46.188 153.401 46.096 153.785 46.096C153.873 46.096 153.957 46.104 154.037 46.12C154.125 46.136 154.213 46.156 154.301 46.18V47.572C154.181 47.54 154.061 47.516 153.941 47.5C153.829 47.476 153.717 47.464 153.605 47.464C153.269 47.464 152.997 47.528 152.789 47.656C152.589 47.776 152.433 47.916 152.321 48.076C152.217 48.236 152.145 48.396 152.105 48.556C152.073 48.716 152.057 48.836 152.057 48.916V52H150.617V46.24ZM158.508 47.788C158.508 47.108 158.62 46.492 158.844 45.94C159.068 45.38 159.376 44.904 159.768 44.512C160.168 44.12 160.64 43.82 161.184 43.612C161.736 43.396 162.34 43.288 162.996 43.288C163.66 43.28 164.268 43.38 164.82 43.588C165.372 43.788 165.848 44.084 166.248 44.476C166.648 44.868 166.96 45.34 167.184 45.892C167.408 46.444 167.52 47.06 167.52 47.74C167.52 48.404 167.408 49.008 167.184 49.552C166.96 50.096 166.648 50.564 166.248 50.956C165.848 51.348 165.372 51.656 164.82 51.88C164.268 52.096 163.66 52.208 162.996 52.216C162.34 52.216 161.736 52.112 161.184 51.904C160.64 51.688 160.168 51.388 159.768 51.004C159.376 50.612 159.068 50.144 158.844 49.6C158.62 49.056 158.508 48.452 158.508 47.788ZM160.092 47.692C160.092 48.148 160.16 48.568 160.296 48.952C160.44 49.336 160.64 49.668 160.896 49.948C161.152 50.228 161.456 50.448 161.808 50.608C162.168 50.768 162.568 50.848 163.008 50.848C163.448 50.848 163.848 50.768 164.208 50.608C164.568 50.448 164.876 50.228 165.132 49.948C165.388 49.668 165.584 49.336 165.72 48.952C165.864 48.568 165.936 48.148 165.936 47.692C165.936 47.268 165.864 46.872 165.72 46.504C165.584 46.136 165.388 45.816 165.132 45.544C164.876 45.264 164.568 45.048 164.208 44.896C163.848 44.736 163.448 44.656 163.008 44.656C162.568 44.656 162.168 44.736 161.808 44.896C161.456 45.048 161.152 45.264 160.896 45.544C160.64 45.816 160.44 46.136 160.296 46.504C160.16 46.872 160.092 47.268 160.092 47.692ZM168.828 46.24H170.268V47.152H170.292C170.452 46.816 170.68 46.556 170.976 46.372C171.272 46.188 171.612 46.096 171.996 46.096C172.084 46.096 172.168 46.104 172.248 46.12C172.336 46.136 172.424 46.156 172.512 46.18V47.572C172.392 47.54 172.272 47.516 172.152 47.5C172.04 47.476 171.928 47.464 171.816 47.464C171.48 47.464 171.208 47.528 171 47.656C170.8 47.776 170.644 47.916 170.532 48.076C170.428 48.236 170.356 48.396 170.316 48.556C170.284 48.716 170.268 48.836 170.268 48.916V52H168.828V46.24ZM177.841 51.136H177.817C177.609 51.488 177.329 51.744 176.977 51.904C176.625 52.064 176.245 52.144 175.837 52.144C175.389 52.144 174.989 52.068 174.637 51.916C174.293 51.756 173.997 51.54 173.749 51.268C173.501 50.996 173.313 50.676 173.185 50.308C173.057 49.94 172.993 49.544 172.993 49.12C172.993 48.696 173.061 48.3 173.197 47.932C173.333 47.564 173.521 47.244 173.761 46.972C174.009 46.7 174.305 46.488 174.649 46.336C174.993 46.176 175.369 46.096 175.777 46.096C176.049 46.096 176.289 46.124 176.497 46.18C176.705 46.236 176.889 46.308 177.049 46.396C177.209 46.484 177.345 46.58 177.457 46.684C177.569 46.78 177.661 46.876 177.733 46.972H177.769V42.928H179.209V52H177.841V51.136ZM174.433 49.12C174.433 49.344 174.469 49.56 174.541 49.768C174.621 49.976 174.733 50.16 174.877 50.32C175.029 50.48 175.209 50.608 175.417 50.704C175.625 50.8 175.861 50.848 176.125 50.848C176.389 50.848 176.625 50.8 176.833 50.704C177.041 50.608 177.217 50.48 177.361 50.32C177.513 50.16 177.625 49.976 177.697 49.768C177.777 49.56 177.817 49.344 177.817 49.12C177.817 48.896 177.777 48.68 177.697 48.472C177.625 48.264 177.513 48.08 177.361 47.92C177.217 47.76 177.041 47.632 176.833 47.536C176.625 47.44 176.389 47.392 176.125 47.392C175.861 47.392 175.625 47.44 175.417 47.536C175.209 47.632 175.029 47.76 174.877 47.92C174.733 48.08 174.621 48.264 174.541 48.472C174.469 48.68 174.433 48.896 174.433 49.12ZM181.991 49.624C182.039 50.056 182.207 50.392 182.495 50.632C182.783 50.872 183.131 50.992 183.539 50.992C183.899 50.992 184.199 50.92 184.439 50.776C184.687 50.624 184.903 50.436 185.087 50.212L186.119 50.992C185.783 51.408 185.407 51.704 184.991 51.88C184.575 52.056 184.139 52.144 183.683 52.144C183.251 52.144 182.843 52.072 182.459 51.928C182.075 51.784 181.743 51.58 181.463 51.316C181.183 51.052 180.959 50.736 180.791 50.368C180.631 49.992 180.551 49.576 180.551 49.12C180.551 48.664 180.631 48.252 180.791 47.884C180.959 47.508 181.183 47.188 181.463 46.924C181.743 46.66 182.075 46.456 182.459 46.312C182.843 46.168 183.251 46.096 183.683 46.096C184.083 46.096 184.447 46.168 184.775 46.312C185.111 46.448 185.395 46.648 185.627 46.912C185.867 47.176 186.051 47.504 186.179 47.896C186.315 48.28 186.383 48.724 186.383 49.228V49.624H181.991ZM184.943 48.544C184.935 48.12 184.803 47.788 184.547 47.548C184.291 47.3 183.935 47.176 183.479 47.176C183.047 47.176 182.703 47.3 182.447 47.548C182.199 47.796 182.047 48.128 181.991 48.544H184.943ZM187.73 46.24H189.17V47.152H189.194C189.354 46.816 189.582 46.556 189.878 46.372C190.174 46.188 190.514 46.096 190.898 46.096C190.986 46.096 191.07 46.104 191.15 46.12C191.238 46.136 191.326 46.156 191.414 46.18V47.572C191.294 47.54 191.174 47.516 191.054 47.5C190.942 47.476 190.83 47.464 190.718 47.464C190.382 47.464 190.11 47.528 189.902 47.656C189.702 47.776 189.546 47.916 189.434 48.076C189.33 48.236 189.258 48.396 189.218 48.556C189.186 48.716 189.17 48.836 189.17 48.916V52H187.73V46.24Z" fill="#1A1B1D"/>
<path opacity="0.07" d="M106.622 161.932C113.807 167.551 120.977 173.169 128.162 178.788C137.823 174.574 147.47 170.36 157.131 166.146C146.897 160.527 136.664 154.909 126.431 149.29C124.842 149.089 123.439 149.132 122.223 149.29C112.848 150.551 107.638 159.997 106.622 161.932Z" fill="#353535"/>
<path d="M128.22 85.2353C128.363 106.922 128.506 128.594 128.649 150.28C121.607 154.723 114.565 159.167 107.524 163.61C100.053 158.35 92.5814 153.089 85.096 147.815C85.1389 129.568 85.1962 111.308 85.2391 93.0613C91.465 87.6576 97.6767 82.2396 103.903 76.8359C112.018 79.6309 120.119 82.4259 128.22 85.2353Z" fill="white"/>
<path d="M107.667 103.61C107.667 119.248 107.667 134.885 107.667 150.523C107.667 154.909 107.667 159.295 107.667 163.681C107.667 163.953 107.238 163.953 107.238 163.681C107.238 148.043 107.238 132.406 107.238 116.768C107.238 112.382 107.238 107.996 107.238 103.61C107.238 103.338 107.667 103.323 107.667 103.61Z" fill="#161616"/>
<path d="M85.4254 93.2043C85.3968 107.466 85.3825 121.742 85.3539 136.004C85.3539 140.003 85.3395 143.987 85.3395 147.986C85.3395 148.259 84.9102 148.259 84.9102 147.986C84.9388 133.725 84.9531 119.449 84.9817 105.187C84.9817 101.188 84.996 97.2033 84.996 93.2043C85.0104 92.9319 85.4397 92.9319 85.4254 93.2043Z" fill="#161616"/>
<path d="M128.334 85.3209C122.151 83.2425 115.954 81.1642 109.771 79.0859C108.24 78.5699 106.722 78.0682 105.191 77.5522C104.862 77.4375 104.461 77.2082 104.103 77.3229C103.831 77.4089 103.459 77.8675 103.23 78.0682C102.586 78.6272 101.928 79.1719 101.284 79.7309C98.8219 81.8235 96.3745 83.9162 93.9127 86.0089C91.0932 88.4169 88.2736 90.8105 85.454 93.2185C85.4397 93.1039 85.4254 92.9892 85.4111 92.8745C92.6532 96.5152 99.9526 99.9982 107.338 103.352C107.252 103.367 107.166 103.381 107.08 103.381C109.456 101.317 111.832 99.2385 114.208 97.1745C118.015 93.8635 121.822 90.5382 125.629 87.2272C126.502 86.4675 127.361 85.7079 128.234 84.9482C128.377 84.8335 128.606 84.9052 128.606 85.1059C128.606 89.0189 128.606 92.9462 128.606 96.8592C128.606 105.173 128.606 113.472 128.606 121.785C128.606 129.31 128.606 136.835 128.606 144.36C128.606 146.223 128.606 148.072 128.606 149.936C128.606 150.222 128.663 150.466 128.463 150.667C128.291 150.853 127.991 150.968 127.776 151.111C127.289 151.426 126.803 151.727 126.331 152.043C120.233 155.927 114.151 159.797 108.053 163.681C107.896 163.782 107.739 163.882 107.595 163.982C107.538 164.025 107.438 164.025 107.381 163.982C99.9526 158.693 92.5244 153.419 85.1105 148.13C84.8815 147.972 85.0962 147.599 85.3252 147.757C89.2325 150.538 93.1398 153.318 97.0472 156.099C99.0223 157.504 100.997 158.908 102.958 160.313C103.931 161.001 104.89 161.689 105.864 162.377C106.279 162.678 106.923 162.979 107.252 163.366C107.352 163.481 107.338 163.595 107.424 163.595C107.624 163.595 108.068 163.18 108.225 163.079C108.798 162.707 109.37 162.348 109.957 161.976C111.689 160.872 113.421 159.768 115.152 158.665C118.831 156.314 122.509 153.978 126.202 151.627C126.717 151.297 127.218 150.982 127.733 150.652C127.862 150.566 128.005 150.452 128.148 150.394C128.248 150.351 128.334 150.208 128.248 150.394C128.148 150.609 128.205 150.294 128.191 150.208C128.177 149.95 128.191 149.692 128.191 149.434C128.191 147.026 128.191 144.604 128.191 142.196C128.191 138.182 128.191 134.169 128.191 130.156C128.191 125.426 128.191 120.696 128.191 115.966C128.191 111.322 128.191 106.678 128.191 102.034C128.191 98.3499 128.191 94.6662 128.191 90.9825C128.191 89.7785 128.191 88.5602 128.191 87.3562C128.191 86.7255 128.105 86.0232 128.191 85.3925C128.205 85.3065 128.191 85.2205 128.191 85.1345C128.32 85.1919 128.434 85.2349 128.563 85.2922C126.187 87.3562 123.812 89.4345 121.436 91.4985C117.629 94.8095 113.821 98.1349 110.014 101.446C109.141 102.206 108.282 102.965 107.409 103.725C107.324 103.797 107.238 103.797 107.152 103.754C99.7808 100.4 92.4672 96.9165 85.225 93.2759C85.1105 93.2185 85.0819 93.0179 85.1821 92.9319C90.2773 88.5889 95.3726 84.2459 100.468 79.9029C101.083 79.3725 101.699 78.8565 102.314 78.3262C102.6 78.0825 102.887 77.8389 103.187 77.5809C103.416 77.3945 103.817 76.9072 104.103 76.8069C104.304 76.7352 104.475 76.8499 104.676 76.9215C105.076 77.0505 105.477 77.1939 105.892 77.3229C106.694 77.5952 107.51 77.8675 108.311 78.1399C111.446 79.1862 114.594 80.2469 117.729 81.2932C121.321 82.4972 124.899 83.7012 128.492 84.9052C128.721 84.9912 128.606 85.4069 128.334 85.3209Z" fill="#161616"/>
<path d="M125.371 151.957C125.371 149.133 125.371 146.324 125.371 143.5C125.371 143.228 125.801 143.228 125.801 143.5C125.801 146.324 125.801 149.133 125.801 151.957C125.801 152.229 125.371 152.229 125.371 151.957Z" fill="#161616"/>
<path d="M125.686 143.299C122.337 145.177 119.031 147.14 115.782 149.19C115.553 149.333 115.338 148.961 115.567 148.817C118.816 146.768 122.123 144.804 125.472 142.926C125.715 142.797 125.93 143.17 125.686 143.299Z" fill="#161616"/>
<path d="M115.854 149.09C116.04 152.028 116.226 154.981 116.412 157.919C116.426 158.192 115.997 158.192 115.982 157.919C115.796 154.981 115.61 152.028 115.424 149.09C115.41 148.818 115.839 148.818 115.854 149.09Z" fill="#161616"/>
<path d="M123.998 146.424C124.241 148.402 124.384 150.38 124.413 152.358C124.413 152.63 123.983 152.63 123.983 152.358C123.955 150.365 123.811 148.387 123.568 146.424C123.525 146.137 123.955 146.151 123.998 146.424Z" fill="#161616"/>
<path d="M121.722 147.442C121.98 149.491 122.166 151.541 122.266 153.591C122.28 153.863 121.851 153.863 121.836 153.591C121.722 151.541 121.55 149.477 121.293 147.442C121.25 147.169 121.679 147.169 121.722 147.442Z" fill="#161616"/>
<path d="M119.374 148.96C119.689 151.039 119.918 153.131 120.047 155.224C120.061 155.496 119.632 155.496 119.618 155.224C119.489 153.16 119.274 151.11 118.959 149.075C118.916 148.803 119.331 148.688 119.374 148.96Z" fill="#161616"/>
<path d="M117.629 149.964C117.757 151.813 117.886 153.648 118.001 155.497C118.015 155.769 117.586 155.769 117.571 155.497C117.442 153.648 117.314 151.813 117.199 149.964C117.185 149.692 117.614 149.692 117.629 149.964Z" fill="#161616"/>
<path d="M125.4 141.852C121.75 143.758 118.158 145.779 114.637 147.915C114.393 148.058 114.179 147.685 114.422 147.542C117.943 145.406 121.535 143.371 125.185 141.479C125.428 141.35 125.657 141.723 125.4 141.852Z" fill="#161616"/>
<path d="M125.142 141.522C125.142 140.776 125.142 140.045 125.142 139.3C125.142 139.028 125.572 139.028 125.572 139.3C125.572 140.045 125.572 140.776 125.572 141.522C125.572 141.808 125.142 141.808 125.142 141.522Z" fill="#161616"/>
<path d="M125.386 139.243C121.564 141.077 117.872 143.17 114.336 145.492C114.107 145.65 113.893 145.277 114.122 145.119C117.657 142.783 121.35 140.705 125.171 138.87C125.414 138.755 125.629 139.114 125.386 139.243Z" fill="#161616"/>
<path d="M114.566 145.621C114.637 146.266 114.709 146.926 114.78 147.571C114.809 147.843 114.38 147.843 114.351 147.571C114.279 146.926 114.208 146.266 114.136 145.621C114.108 145.349 114.537 145.349 114.566 145.621Z" fill="#161616"/>
<path d="M106.021 105.316C100.454 102.865 95.0004 100.141 89.7048 97.1455C89.4615 97.0165 89.6762 96.6438 89.9195 96.7728C95.2294 99.7542 100.668 102.477 106.236 104.943C106.493 105.057 106.279 105.43 106.021 105.316Z" fill="#161616"/>
<path d="M106.364 105.101C106.364 106.29 106.364 107.48 106.364 108.67C106.364 108.942 105.935 108.942 105.935 108.67C105.935 107.48 105.935 106.29 105.935 105.101C105.935 104.828 106.364 104.828 106.364 105.101Z" fill="#161616"/>
<path d="M105.963 108.669C102.085 106.949 98.2919 105.043 94.585 102.965C94.3417 102.836 94.5564 102.463 94.7997 102.592C98.5066 104.671 102.299 106.563 106.178 108.297C106.421 108.411 106.207 108.784 105.963 108.669Z" fill="#161616"/>
<path d="M106.135 124.58C106.135 134.986 106.135 145.392 106.135 155.784C106.135 156.056 105.706 156.056 105.706 155.784C105.706 145.378 105.706 134.972 105.706 124.58C105.706 124.308 106.135 124.308 106.135 124.58Z" fill="#161616"/>
<path d="M104.933 141.522C104.933 147.169 104.933 152.816 104.933 158.464C104.933 158.736 104.504 158.736 104.504 158.464C104.504 152.816 104.504 147.169 104.504 141.522C104.504 141.249 104.933 141.249 104.933 141.522Z" fill="#161616"/>
<path d="M127.733 88.4884C127.733 95.7984 127.733 103.123 127.733 110.433C127.733 110.705 127.304 110.705 127.304 110.433C127.304 103.123 127.304 95.7984 127.304 88.4884C127.304 88.2161 127.733 88.2161 127.733 88.4884Z" fill="#161616"/>
<path d="M126.502 104.356C126.502 112.812 126.502 121.283 126.502 129.74C126.502 130.012 126.073 130.012 126.073 129.74C126.073 121.283 126.073 112.812 126.073 104.356C126.073 104.083 126.502 104.083 126.502 104.356Z" fill="#161616"/>
<path opacity="0.06" d="M128.563 85.2207C128.563 106.964 128.563 128.708 128.563 150.452C121.521 154.895 114.494 159.338 107.452 163.782C107.452 143.643 107.452 123.505 107.452 103.352C114.494 97.318 121.521 91.2694 128.563 85.2207Z" fill="#353535"/>
<path opacity="0.1" d="M127.962 92.918C125.829 103.267 123.74 111.867 122.08 118.259C119.503 128.207 118.187 132.077 116.44 136.033C113.449 142.812 110.071 147.987 107.567 151.412C107.481 141.436 107.409 131.475 107.323 121.499C106.622 135.445 100.325 144.203 95.3295 144.088C91.2934 143.988 87.3431 138.125 85.139 130.987C85.139 136.678 85.139 142.354 85.139 148.044C92.5386 153.204 99.9381 158.378 107.323 163.538C114.322 159.138 121.321 154.723 128.32 150.323C128.205 131.188 128.091 112.053 127.962 92.918Z" fill="#353535"/>
<path opacity="0.39" d="M82.1763 86.1382C88.7887 89.8792 95.3868 93.6202 101.999 97.3612C105.921 92.0435 109.857 86.7115 113.778 81.3938C106.221 78.4268 98.65 75.4455 91.093 72.4785C88.116 77.0365 85.139 81.5802 82.1763 86.1382Z" fill="url(#paint0_linear_1_314)"/>
<g opacity="0.39">
<g opacity="0.39">
<path opacity="0.39" d="M111.302 82.5983C110.572 83.0856 109.842 83.573 109.098 84.0603C108.983 84.132 108.812 84.0603 108.783 83.9313C108.468 82.4693 107.967 81.0933 107.252 79.789C107.123 79.5453 107.495 79.3303 107.624 79.574C108.354 80.9213 108.869 82.3403 109.198 83.831C109.098 83.788 108.983 83.745 108.883 83.702C109.613 83.2146 110.343 82.7273 111.087 82.24C111.316 82.068 111.531 82.4406 111.302 82.5983Z" fill="url(#paint1_linear_1_314)"/>
</g>
</g>
<path d="M105.42 79.5734C105.177 79.2008 104.847 78.9141 104.432 78.7421C104.304 78.6847 104.418 78.4984 104.547 78.5557C104.991 78.7564 105.348 79.0717 105.606 79.4731C105.678 79.5878 105.491 79.6881 105.42 79.5734Z" fill="url(#paint2_linear_1_314)"/>
<path d="M105.405 80.4766C105.119 79.588 104.318 78.943 103.387 78.8426C103.244 78.8283 103.244 78.6133 103.387 78.6276C104.418 78.728 105.291 79.416 105.606 80.4193C105.649 80.5483 105.448 80.6056 105.405 80.4766Z" fill="url(#paint3_linear_1_314)"/>
<path d="M105.162 81.2075C104.847 79.9462 103.96 79.0289 102.6 79.4732C102.472 79.5162 102.414 79.3155 102.543 79.2725C104.003 78.7852 105.019 79.7742 105.363 81.1502C105.406 81.2792 105.205 81.3365 105.162 81.2075Z" fill="url(#paint4_linear_1_314)"/>
<path d="M104.733 81.9095C104.69 81.2072 104.575 80.3758 103.902 79.9745C103.244 79.5875 102.5 79.8598 102.013 80.3758C101.913 80.4762 101.77 80.3185 101.856 80.2182C102.371 79.6735 103.13 79.3868 103.845 79.7022C104.704 80.0748 104.876 81.0495 104.933 81.8952C104.947 82.0385 104.733 82.0385 104.733 81.9095Z" fill="url(#paint5_linear_1_314)"/>
<path d="M104.088 82.7268C103.945 81.9098 104.618 81.1645 103.888 80.4621C103.359 79.9605 102.686 80.2185 102.256 80.6771C101.87 81.1071 101.713 81.6661 101.641 82.2251C101.627 82.3541 101.412 82.3685 101.426 82.2251C101.541 81.2791 102.142 79.7885 103.373 79.9461C103.817 80.0035 104.203 80.3905 104.375 80.7918C104.647 81.4368 104.174 82.0101 104.289 82.6551C104.317 82.7985 104.103 82.8558 104.088 82.7268Z" fill="url(#paint6_linear_1_314)"/>
<path d="M103.616 83.0565C103.173 82.3255 104.103 81.6232 103.731 80.9495C103.345 80.2185 102.586 80.7059 102.328 81.2219C102.056 81.7952 102.056 82.4402 102.214 83.0422C102.242 83.1712 102.042 83.2285 102.013 83.0995C101.799 82.2682 101.885 80.4192 103.087 80.3619C103.473 80.3475 103.86 80.6199 103.974 80.9782C104.203 81.6662 103.387 82.2969 103.788 82.9419C103.874 83.0709 103.688 83.1855 103.616 83.0565Z" fill="url(#paint7_linear_1_314)"/>
<path d="M103.115 83.2146C102.886 82.67 102.944 82.154 103.216 81.6523C103.273 81.5663 103.316 81.466 103.359 81.3656C103.044 81.1506 102.858 81.208 102.801 81.509C102.743 81.6523 102.7 81.7956 102.686 81.9533C102.615 82.3976 102.686 82.8276 102.844 83.2433C102.901 83.3723 102.686 83.4296 102.643 83.3006C102.443 82.799 102.386 82.2686 102.514 81.7526C102.586 81.423 102.772 80.8783 103.187 80.864C103.459 80.8496 103.616 81.0646 103.602 81.3226C103.588 81.552 103.416 81.7526 103.33 81.9533C103.158 82.3546 103.173 82.7703 103.344 83.1716C103.373 83.2863 103.173 83.3436 103.115 83.2146Z" fill="url(#paint8_linear_1_314)"/>
<path d="M93.4257 90.9546C93.3828 90.6966 93.3684 90.41 93.6118 90.2523C93.8551 90.0946 94.2701 90.2523 94.5564 90.238C95.0144 90.2093 95.4724 90.0373 95.9018 89.894C96.7748 89.6073 97.6622 89.206 98.2919 88.4893C98.5782 88.1596 98.9503 87.6293 98.9789 87.1706C99.0362 86.0956 98.4208 86.927 97.9914 87.0416C97.7624 87.099 97.5763 87.0846 97.562 86.8266C97.5477 86.6546 97.6908 86.5686 97.8053 86.4396C98.1059 86.1243 98.3921 85.8233 98.6641 85.4793C99.2079 84.7626 99.6373 83.96 99.8949 83.1C99.9951 82.7703 100.324 81.4803 99.6803 81.5663C99.3797 81.595 98.8644 82.2973 98.6784 82.5266C98.6211 82.4693 98.5782 82.4263 98.5209 82.369C98.936 81.8386 99.623 81.0503 99.5801 80.3336C99.5085 78.9576 97.9198 80.2763 97.6336 80.778C97.5763 80.735 97.5191 80.692 97.4618 80.649C97.6479 80.434 97.9341 80.0183 97.9341 79.703C97.9628 78.8286 97.4761 79.1583 97.1326 79.3876C96.6746 79.703 96.3454 80.1903 96.0163 80.6346C95.9304 80.7493 95.7729 80.649 95.8302 80.52C95.9304 80.3336 96.0019 80.133 96.0592 79.918C96.188 79.6456 96.0735 79.5023 95.6871 79.4736C95.1575 79.2013 95.2004 79.273 94.8569 79.6456C94.4705 80.0613 94.1699 80.5486 93.8551 81.0216C93.3398 81.8243 92.753 82.541 92.1805 83.2863C91.8084 83.7736 91.5078 84.2896 91.3504 84.8916C91.1929 85.4793 91.2073 86.0813 91.1214 86.669C91.0212 87.357 90.735 87.9733 90.0766 88.2886C89.9478 88.346 89.8476 88.1596 89.9621 88.1023C91.3074 87.4573 90.8351 85.3503 91.379 84.1463C91.6223 83.6016 91.9944 83.1286 92.3809 82.67C92.8818 82.068 93.2969 81.4516 93.7263 80.7923C94.1413 80.1473 94.8713 78.7713 95.7586 78.7426C96.7462 78.714 96.2309 80.1043 96.0163 80.5773C95.959 80.5343 95.8874 80.5056 95.8302 80.4626C96.188 79.961 97.1183 78.5563 97.9341 78.8286C98.6498 79.0723 97.8769 80.4196 97.6049 80.735C97.5191 80.8353 97.3759 80.7063 97.4332 80.606C97.6908 80.1616 98.0486 79.8033 98.5066 79.5883C98.7929 79.4593 99.394 79.23 99.6659 79.5166C99.9379 79.8033 99.7948 80.434 99.6803 80.7636C99.4799 81.3943 99.0648 81.939 98.6498 82.455C98.5639 82.5696 98.4208 82.412 98.4923 82.2973C98.7213 82.0106 99.4799 81.0073 99.9522 81.165C100.353 81.3083 100.253 82.1683 100.224 82.4406C100.11 83.315 99.6803 84.1893 99.2223 84.9203C99.0076 85.2643 98.7643 85.594 98.5066 85.895C98.3778 86.0526 98.1059 86.2246 98.02 86.411C97.7481 86.5973 97.8053 86.6546 98.2061 86.583C98.3206 86.5113 98.4494 86.454 98.5639 86.3823C98.9217 86.196 99.1507 86.196 99.2223 86.6546C99.3081 87.271 98.8788 88.0163 98.5066 88.4606C97.9914 89.0913 97.2758 89.4926 96.5315 89.7936C96.0878 89.9656 95.6155 90.1233 95.1575 90.238C94.814 90.324 93.5545 90.2666 93.6261 90.797C93.6547 91.0406 93.44 91.098 93.4257 90.9546Z" fill="url(#paint9_linear_1_314)"/>
<path d="M98.8505 82.2824C98.2493 83.0134 97.7627 83.8447 97.2332 84.6331C97.1616 84.7477 96.9755 84.6331 97.0471 84.5184C97.591 83.7157 98.0919 82.8701 98.7073 82.1247C98.7932 82.0244 98.9363 82.1677 98.8505 82.2824Z" fill="url(#paint10_linear_1_314)"/>
<path d="M97.9629 80.319C97.3761 81.1216 96.8322 81.9386 96.317 82.7843C96.2454 82.899 96.0593 82.7986 96.1309 82.6696C96.6462 81.824 97.19 81.007 97.7768 80.2043C97.8484 80.104 98.0345 80.2043 97.9629 80.319Z" fill="url(#paint11_linear_1_314)"/>
<path d="M113.835 81.4225C109.985 86.7688 106.049 92.0578 102.013 97.2608C101.927 97.3755 101.784 97.2178 101.856 97.1032C105.878 91.9002 109.799 86.6398 113.649 81.3078C113.721 81.2075 113.907 81.3078 113.835 81.4225Z" fill="url(#paint12_linear_1_314)"/>
<path d="M59.1045 155.712C58.8755 158.421 58.6465 161.115 58.4175 163.824C63.8133 166.218 66.4182 167.752 66.2178 168.411C65.9745 169.214 61.6664 168.755 53.3079 167.035C53.4797 162.448 53.6657 157.847 53.8375 153.261C55.5836 154.078 57.344 154.895 59.1045 155.712Z" fill="#161616"/>
<path d="M53.8518 97.6044C53.036 98.1491 52.8928 99.3674 52.6066 101.79C52.4635 102.951 52.3919 104.384 52.7497 108.541C52.7926 108.985 52.9071 110.404 53.265 113.457C53.7802 117.929 53.9233 118.459 54.0665 120.351C54.181 121.828 54.2525 123.39 54.2096 126.744C54.1666 129.94 54.1237 134.312 53.6228 140.404C53.2506 144.919 52.6209 150.537 51.4902 156.987C52.6066 157.575 53.6514 157.933 54.4958 158.163C56.3708 158.664 57.8879 158.679 59.1903 158.679C60.4355 158.679 61.5233 158.578 62.4106 158.464C62.8257 156.299 63.3696 153.046 63.7989 149.061C64.0279 146.997 64.1711 144.718 64.4573 140.246C64.8581 133.982 65.0584 130.858 65.1157 128.206C65.1443 127.031 65.1443 126.056 64.9726 118.001C64.7149 105.918 64.6148 104.441 63.3553 102.506C60.8506 98.6364 55.7696 96.3144 53.8518 97.6044Z" fill="white"/>
<path d="M52.7781 98.0059C52.5348 101.905 52.6064 105.803 52.9928 109.688C53.3792 113.472 54.0233 117.213 54.2666 120.997C54.7676 128.765 54.2523 136.577 53.3936 144.303C52.9069 148.617 52.3201 152.931 51.719 157.231C51.6761 157.504 51.261 157.389 51.3039 157.117C52.3774 149.362 53.4508 141.594 53.8659 133.768C54.0662 129.941 54.1092 126.085 53.9231 122.258C53.7227 118.445 53.1646 114.704 52.7066 110.92C52.1913 106.635 52.0768 102.306 52.3488 97.9916C52.3631 97.7192 52.7924 97.7192 52.7781 98.0059Z" fill="#161616"/>
<path d="M65.1871 116.682C65.5306 127.575 65.1155 138.483 63.8989 149.319C63.5698 152.329 63.169 155.324 62.711 158.32C62.6681 158.592 62.253 158.478 62.2959 158.205C63.9132 147.498 64.772 136.677 64.8579 125.841C64.8865 122.788 64.8436 119.735 64.7434 116.682C64.7434 116.395 65.1727 116.395 65.1871 116.682Z" fill="#161616"/>
<path d="M62.5823 158.636C58.8611 159.381 55.011 158.894 51.5903 157.231C51.347 157.117 51.5617 156.744 51.805 156.859C55.1112 158.464 58.8611 158.951 62.4678 158.22C62.7397 158.163 62.8542 158.579 62.5823 158.636Z" fill="#161616"/>
<path opacity="0.09" d="M63.7131 106.075C64.0995 108.784 64.4573 111.866 64.7006 115.277C64.8437 117.141 65.0441 120.337 65.0727 124.35C65.1014 127.69 64.9726 130.514 64.7006 136.046C64.4001 142.296 64.2426 145.492 63.8276 148.975C63.3552 152.988 62.7684 156.256 62.3391 158.42C61.3372 158.635 59.9632 158.793 58.3602 158.664C57.3011 158.578 56.3851 158.377 55.6265 158.162C56.8431 153.605 57.9594 148.831 58.9756 143.858C61.7666 130.27 63.1692 117.556 63.7131 106.075Z" fill="#353535"/>
<path opacity="0.09" d="M64.8293 120.137C64.2139 125.268 63.67 129.683 63.212 133.194C62.0384 142.382 61.6663 144.69 60.8505 147.614C59.5051 152.458 57.7447 156.199 56.4995 158.55C57.3726 158.765 58.7895 158.994 60.4784 158.679C61.2655 158.536 61.9382 158.292 62.4678 158.063C63.0546 154.58 63.5555 150.925 63.9563 147.126C65.0011 137.337 65.1585 128.278 64.8293 120.137Z" fill="#353535"/>
<path d="M75.3777 157.245C75.578 160.098 75.7784 162.964 75.9931 165.817C82.72 167.479 86.0262 168.683 85.926 169.414C85.8115 170.289 80.8451 170.489 71.0267 170.031C70.7261 165.903 70.4112 161.76 70.1107 157.632C71.8711 157.489 73.6315 157.36 75.3777 157.245Z" fill="#161616"/>
<path d="M69.438 98.1492C70.2824 99.0522 70.8406 100.199 70.8406 100.199C71.1841 100.901 71.3988 101.503 71.4847 101.991C71.6421 103.066 71.8711 104.556 72.1287 106.334C72.6869 110.218 73.0733 113.257 73.2737 114.891C73.9894 120.552 74.3901 124.222 75.1916 131.001C76.3795 141.02 76.723 143.185 77.6104 151.326C77.9396 154.35 78.2116 156.844 78.3833 158.478C78.14 158.865 77.7249 159.41 77.0665 159.897C76.9091 160.012 76.6085 160.227 75.7069 160.657C74.8767 161.044 74.0323 161.388 73.6602 161.517C71.4417 162.234 67.4342 161.159 67.2195 161.101C67.2195 159.539 67.1909 157.432 67.0764 154.924C67.0335 153.92 66.8903 151.211 66.3321 146.008C65.8312 141.35 65.4448 137.666 64.5717 132.707C63.942 129.081 63.3265 126.314 62.7683 123.906C61.9239 120.122 61.0938 116.897 60.4068 114.389C59.4192 112.454 58.4316 110.519 57.4441 108.584C57.1578 108.168 54.5386 104.284 56.0271 100.758C58.2599 95.3972 67.5917 96.1712 69.438 98.1492Z" fill="white"/>
<path d="M69.9247 96.5722C72.6011 103.94 73.1736 111.895 74.0753 119.62C75.0485 127.905 76.0218 136.19 76.9807 144.489C77.5246 149.133 78.0685 153.776 78.6123 158.406C78.641 158.678 78.2116 158.678 78.183 158.406C77.224 150.164 76.2508 141.923 75.2918 133.681C74.3472 125.583 73.5171 117.47 72.415 109.401C71.8282 105.086 71.0124 100.786 69.5096 96.6869C69.4237 96.4289 69.8388 96.3142 69.9247 96.5722Z" fill="#161616"/>
<path d="M57.5441 108.44C59.8055 112.009 61.5946 115.851 62.8541 119.893C62.94 120.151 62.5249 120.265 62.439 120.007C61.1938 116.008 59.4191 112.196 57.172 108.655C57.0289 108.426 57.401 108.197 57.5441 108.44Z" fill="#161616"/>
<path d="M60.378 113.644C63.8416 125.626 66.06 137.967 66.9474 150.409C67.205 153.978 67.3482 157.547 67.3911 161.116C67.3911 161.388 66.9617 161.388 66.9617 161.116C66.8186 148.631 65.3587 136.176 62.6107 124.007C61.8379 120.567 60.9505 117.155 59.9629 113.773C59.8914 113.5 60.2921 113.386 60.378 113.644Z" fill="#161616"/>
<path d="M78.5694 158.635C75.7498 161.975 71.0983 162.993 67.1194 161.201C66.8618 161.086 67.0908 160.714 67.3341 160.828C71.1412 162.534 75.5781 161.502 78.2688 158.32C78.4549 158.119 78.7554 158.42 78.5694 158.635Z" fill="#161616"/>
<path opacity="0.06" d="M66.5756 99.3672C64.8724 100.93 67.5632 106.075 69.1805 110.06C71.5421 115.879 72.043 125.497 73.0306 144.761C73.2453 148.832 73.4743 154.536 73.5315 161.431C74.0324 161.359 74.6336 161.216 75.2633 160.929C76.9379 160.198 77.9111 158.98 78.3691 158.32C77.9684 155.468 77.3959 151.154 76.7518 145.879C75.2776 133.782 74.9771 128.822 73.8893 120.136C73.2739 115.22 72.3149 108.168 70.7835 99.6109C70.7978 99.6109 70.7978 99.6109 66.5756 99.3672Z" fill="#353535"/>
<path opacity="0.06" d="M73.5315 118.272C72.7729 129.008 73.5744 135.874 74.5191 140.288C75.3349 144.072 75.1488 148.014 75.6354 151.855C75.8788 153.733 76.2079 156.098 74.8912 158.32C73.9466 159.911 72.5439 160.814 71.5421 161.301C72.1289 161.416 73.6603 161.631 75.3921 160.928C77.081 160.24 78.0256 159.065 78.3691 158.563C77.6821 152.601 76.9665 146.624 76.2652 140.661C75.3635 133.179 74.4475 125.726 73.5315 118.272Z" fill="#353535"/>
<path d="M57.1288 65.2257C57.4294 65.3977 57.3006 67.0747 57.0287 70.3857C57 70.6581 56.9857 70.9734 56.9428 71.4034C56.8426 72.3781 56.7138 73.3241 56.5563 74.3417C55.3684 82.0674 53.6795 87.8007 53.6795 87.8007C52.8637 90.5671 51.7044 93.9784 50.0585 97.7767C49.7865 98.2641 49.2426 99.0524 48.3266 99.5111C47.3391 100.013 46.4517 99.8694 45.135 99.6257C42.5873 99.1527 40.9557 97.9917 40.3689 97.5331C39.5101 96.8737 38.3795 95.9994 38.4797 94.9817C38.5226 94.6234 38.723 94.0931 39.1666 93.9354C39.5531 93.7921 40.0397 93.9784 40.3689 94.3941C39.6962 93.4624 39.2239 92.6024 38.909 91.9574C38.1791 90.4667 38.1791 89.9507 38.3365 89.5781C38.3652 89.5207 38.5369 89.1194 38.909 88.9331C39.0092 88.8901 39.2096 88.8041 39.8536 88.9331C40.6122 89.0764 40.7267 89.2627 41.2133 89.2771C41.6713 89.2914 41.8145 89.1337 42.158 89.1051C42.6016 89.0621 43.26 89.2341 44.1474 90.2661C44.2905 90.1514 44.5052 90.0224 44.7772 90.0367C45.2352 90.0511 45.593 90.4811 46.509 92.0721C46.7952 92.5594 47.153 93.2044 47.5538 93.9927C47.7542 93.1041 48.0547 91.7281 48.3982 90.0511C49.5718 84.1457 49.4001 82.9991 50.2875 78.6847C51.5327 72.5501 52.8494 69.9844 54.0087 68.2501C55.1251 66.5014 56.5993 64.9104 57.1288 65.2257Z" fill="white"/>
<path d="M57.086 65.541C56.442 65.24 55.6691 66.3866 55.3256 66.8023C54.8962 67.3326 54.4955 67.8773 54.1377 68.4506C53.465 69.4969 52.9068 70.615 52.4345 71.7759C51.3753 74.3416 50.7599 77.0649 50.2733 79.7883C49.7723 82.6263 49.3716 85.4786 48.9279 88.3166C48.5415 90.7819 48.2838 93.4049 46.9098 95.5549C46.7667 95.7843 46.3946 95.5693 46.5377 95.3399C47.7543 93.4479 48.0548 91.1976 48.384 89.0333C48.7561 86.5966 49.1283 84.1599 49.5147 81.7233C50.216 77.2943 51.1034 72.7506 53.3934 68.8376C53.9373 67.9203 54.5527 67.0459 55.2397 66.2289C55.755 65.6413 56.4277 64.7669 57.2864 65.1683C57.5583 65.2829 57.3437 65.6556 57.086 65.541Z" fill="#161616"/>
<path d="M57.172 71.5752C56.671 75.9898 55.8695 80.3615 54.7532 84.6615C53.6654 88.8468 52.3916 93.1612 50.5596 97.0885C49.7868 98.7225 48.3269 100.529 46.2945 99.9982C46.0226 99.9265 46.1371 99.5108 46.409 99.5825C49.2572 100.342 50.4881 96.2572 51.2323 94.3222C52.1483 91.9142 52.9641 89.4775 53.6797 87.0122C55.1396 81.9668 56.1558 76.8068 56.7569 71.5895C56.7712 71.3028 57.2006 71.2885 57.172 71.5752Z" fill="#161616"/>
<path d="M47.3107 94.2647C46.9386 93.505 46.5808 92.731 46.2086 91.9713C45.8222 91.183 45.3499 90.0793 44.3051 90.1797C44.0331 90.2083 44.0331 89.7783 44.3051 89.7497C45.1209 89.678 45.7077 90.2083 46.1084 90.8533C46.7239 91.8423 47.1676 92.989 47.6828 94.0354C47.7973 94.2934 47.4395 94.5084 47.3107 94.2647Z" fill="#161616"/>
<path d="M45.1636 92.445C44.5481 91.413 43.3745 88.5463 41.7715 89.4207C41.5282 89.5497 41.3135 89.177 41.5568 89.048C43.5176 87.973 44.7914 90.9687 45.5357 92.2157C45.6788 92.4737 45.3067 92.6887 45.1636 92.445Z" fill="#161616"/>
<path d="M43.9186 92.9753C43.4034 92.2443 42.8738 91.5133 42.3586 90.7823C41.8004 89.994 41.0561 89.0336 39.9684 89.1913C39.6964 89.2343 39.5819 88.8186 39.8539 88.7756C40.7556 88.6323 41.4855 89.0623 42.0723 89.7216C42.9024 90.639 43.5751 91.757 44.2907 92.7603C44.4625 92.9753 44.0904 93.1903 43.9186 92.9753Z" fill="#161616"/>
<path d="M42.7019 93.2901C42.0864 92.5591 41.4853 91.8137 40.8699 91.0827C40.5121 90.6527 39.0808 88.4311 38.4797 89.7497C38.3223 90.0794 38.5799 90.7531 38.6944 91.0827C38.8518 91.5127 39.0808 91.9141 39.2955 92.3154C39.7821 93.2041 40.2831 94.0784 40.9128 94.8667C41.0846 95.0817 40.784 95.3827 40.6123 95.1677C39.8251 94.1644 39.1667 93.0464 38.5942 91.8997C38.2364 91.1831 37.6782 89.8787 38.2364 89.1191C38.7946 88.3594 39.7535 89.1047 40.1829 89.5921C41.1561 90.6957 42.0721 91.8567 43.0024 92.9891C43.1742 93.1897 42.8736 93.4907 42.7019 93.2901Z" fill="#161616"/>
<path d="M40.0685 89.1766C39.8538 89.2053 39.6534 89.2626 39.453 89.3343C39.3385 89.3773 39.224 89.2913 39.1954 89.191C39.1668 89.062 39.2383 88.976 39.3385 88.933C39.5675 88.847 39.8108 88.7896 40.0685 88.761C40.183 88.7466 40.2831 88.8756 40.2831 88.976C40.2831 89.0906 40.183 89.1623 40.0685 89.1766Z" fill="#161616"/>
<path d="M39.8823 94.3082C39.5531 93.8926 38.9091 94.1792 38.7803 94.6379C38.723 94.8386 38.723 95.0822 38.7659 95.2829C38.8661 95.7559 39.1667 96.1716 39.4959 96.5156C40.0827 97.1462 40.784 97.6909 41.5283 98.1209C43.0168 98.9809 44.7056 99.4109 46.4088 99.5399C46.6808 99.5542 46.6808 99.9842 46.4088 99.9699C43.8326 99.7836 41.2993 98.8949 39.4243 97.0602C38.7373 96.3866 38.0503 95.4406 38.3938 94.4229C38.6515 93.6489 39.6247 93.2906 40.1829 93.9929C40.369 94.2222 40.0541 94.5232 39.8823 94.3082Z" fill="#161616"/>
<path opacity="0.08" d="M56.957 65.4697C56.6422 66.6021 56.1842 68.3507 55.6546 70.5007C54.2949 76.0764 53.4075 80.7634 51.7473 87.672C50.0727 94.638 49.443 96.2147 47.8972 96.8167C46.1797 97.476 42.7876 97.1464 40.6694 95.3834C39.9967 94.8244 39.324 94.0217 38.9805 94.208C38.6227 94.4087 38.7229 95.584 39.1809 96.487C40.0396 98.207 42.0577 98.7947 44.0042 99.3537C45.5929 99.8124 46.3944 100.042 47.3963 99.7407C48.8705 99.2964 49.7149 98.0637 50.13 97.4617C50.6452 96.702 50.7311 96.2577 51.4324 94.3227C52.148 92.3304 52.2053 92.3877 52.7348 90.9257C53.794 88.016 54.4237 85.4647 54.8245 83.8737C55.6403 80.6057 56.3845 77.5814 56.7853 73.4964C56.957 71.4611 57.1002 68.7234 56.957 65.4697Z" fill="#353535"/>
<path opacity="0.06" d="M50.3735 95.9418C49.9728 96.3575 48.0835 98.2351 45.035 98.3498C41.5713 98.4788 39.3672 96.2141 39.038 95.8701C39.4102 96.5008 40.1401 97.5041 41.3853 98.2781C42.1725 98.7798 42.8452 98.9805 43.6037 99.1955C45.5645 99.7688 46.8383 100.127 48.0406 99.5825C49.8726 98.7655 50.302 96.3431 50.3735 95.9418Z" fill="#353535"/>
<path d="M58.1884 64.0356C59.7199 63.8493 61.1655 64.8956 61.9526 65.4689C64.1425 67.0599 64.9869 69.3103 65.3733 70.2849C67.7349 76.2046 68.4219 83.3713 68.7225 86.0659C69.1089 89.4486 69.8675 94.3792 71.585 100.371C70.5831 101.188 66.6185 104.241 60.8076 104.054C55.8412 103.882 52.4491 101.431 51.3471 100.543C51.0322 94.7949 50.9893 89.9502 51.0179 86.3239C51.0894 79.7019 51.3184 76.6633 52.3203 73.1659C53.0932 70.4713 54.825 64.4369 58.1884 64.0356Z" fill="url(#paint13_linear_1_314)"/>
<path opacity="0.08" d="M59.4048 64.4802C60.836 65.8849 57.4153 71.3602 56.8572 72.6359C54.2809 78.5125 53.093 88.0155 59.2473 103.926C58.4029 103.768 57.4583 103.539 56.4564 103.18C54.3668 102.464 52.7209 101.489 51.5186 100.629C51.4184 99.5825 51.2896 98.1779 51.1894 96.5152C51.032 93.8635 51.0177 91.6849 51.032 89.8502C51.0606 84.2602 51.0749 81.4652 51.5186 77.7529C51.7476 75.9039 52.2486 72.4495 53.9088 68.5365C54.8964 66.2289 55.9125 64.6235 57.5298 64.2509C57.7302 64.1935 58.8466 63.9355 59.4048 64.4802Z" fill="#353535"/>
<path opacity="0.05" d="M51.3469 80.9485C51.6331 80.9198 52.0052 83.5428 52.6636 86.9541C54.0519 94.1351 55.7838 99.7395 57.0146 103.337C56.1988 103.022 55.3401 102.663 54.467 102.262C53.3936 101.775 52.3774 101.273 51.4184 100.786C50.803 84.3598 51.0177 80.9771 51.3469 80.9485Z" fill="#353535"/>
<path d="M61.4659 66.128C61.9239 65.9417 62.3533 65.9703 62.6109 66.0133C63.0403 66.5293 63.713 67.3463 64.5288 68.3497C68.1213 72.836 68.4361 73.8823 70.9408 76.749C73.3453 79.501 75.0056 80.791 76.2364 81.6223C77.6248 82.554 78.6553 83.027 78.9701 83.1703C81.2458 84.188 83.3068 84.5033 84.6665 84.618C85.0816 84.4173 85.6827 84.0876 86.2838 83.543C87.0567 82.8263 87.4145 82.1383 87.7866 81.5076C89.2036 79.114 89.59 78.426 90.1196 78.4403C90.3056 78.4403 90.6062 78.5406 90.9783 79.0996C91.1215 78.9993 91.3648 78.813 91.6367 78.5693C92.3094 77.9673 92.4955 77.609 93.0536 77.3653C93.297 77.265 93.6118 77.1217 93.8838 77.2793C94.1557 77.437 94.213 77.8097 94.2273 77.8957C94.4706 77.6377 95.0574 77.1073 95.8875 77.0643C96.1165 77.05 96.4457 77.0356 96.6031 77.2363C96.8465 77.523 96.6175 78.211 96.0163 78.9277C96.1595 78.8847 96.8465 78.6553 97.1327 78.9706C97.4476 79.3003 97.1184 80.0313 96.9037 80.5043C96.4743 81.4646 95.9161 81.952 94.7568 83.242C94.2845 83.7723 93.9124 84.2023 93.6691 84.4746C93.9124 84.446 94.2988 84.3886 94.7282 84.2166C95.3723 83.9586 95.587 83.6576 95.8732 83.7436C96.1881 83.844 96.3598 84.3743 96.3026 84.79C96.231 85.263 95.7873 85.5497 95.5154 85.7073C93.8695 86.7107 91.8371 87.2123 91.2073 87.37C89.6473 87.757 88.8601 87.9433 88.2733 88.015C87.2571 88.144 86.2409 88.2013 84.7238 88.1296C80.5159 87.929 77.2383 87.069 76.537 86.8826C75.0199 86.4813 73.6888 86.123 72.0143 85.3633C70.4542 84.661 67.0192 83.07 64.0136 79.4723C62.3676 77.5087 61.6663 75.889 60.2494 72.664C60.0776 72.2627 59.7341 71.4743 59.6769 70.4137C59.6053 68.923 60.0204 66.7013 61.4659 66.128Z" fill="white"/>
<path d="M61.5801 65.8273C62.5677 65.4546 63.3119 66.3863 63.8701 67.0743C64.6716 68.0489 65.4302 69.0522 66.1888 70.0699C67.8347 72.2916 69.4234 74.5706 71.2411 76.6776C74.6761 80.6909 79.1988 84.2312 84.7091 84.3602C84.9811 84.3602 84.9811 84.7902 84.7091 84.7902C79.7284 84.6756 75.4346 81.8232 72.1284 78.2973C70.4109 76.4626 68.8938 74.4559 67.4053 72.4349C66.6181 71.3599 65.8309 70.2849 65.0294 69.2243C64.5571 68.6079 64.0705 67.9916 63.5839 67.3896C63.1402 66.8449 62.5248 65.9563 61.7089 66.2573C61.437 66.3289 61.3368 65.9133 61.5801 65.8273Z" fill="#161616"/>
<path d="M59.9203 70.0844C61.8095 83.0991 76.7804 89.0331 88.5023 87.7144C90.4202 87.4994 92.3667 87.0551 94.1271 86.2381C94.5708 86.0374 95.0145 85.8081 95.4153 85.5358C95.587 85.4211 95.7588 85.3207 95.8876 85.1631C96.2168 84.9194 96.2454 84.6614 96.0021 84.3747C95.9735 83.9877 95.7874 83.8731 95.4296 84.0164C94.7283 84.1741 94.2846 84.7761 93.526 84.7904C93.2541 84.7904 93.2541 84.3604 93.526 84.3604C94.2989 84.3461 94.7998 83.6151 95.5584 83.5578C96.1023 83.5148 96.5603 83.8157 96.6318 84.3747C96.775 85.6934 94.7855 86.4244 93.8409 86.8258C90.3343 88.2878 86.4127 88.4884 82.6771 88.1731C75.7785 87.5854 68.7511 85.0914 64.0852 79.7881C61.7093 77.0791 60.0348 73.7824 59.5195 70.1991C59.4623 69.9268 59.8773 69.8121 59.9203 70.0844Z" fill="#161616"/>
<path d="M93.4113 84.4316C93.7548 83.8009 94.2987 83.3996 94.7996 82.9123C95.5153 82.2099 96.1021 81.2209 96.5887 80.3322C96.7175 80.0886 96.8463 79.8449 96.9179 79.5869C97.1039 79.2286 96.9894 79.0996 96.603 79.2142C96.3597 79.1139 96.1736 79.1712 96.0305 79.3576C95.6727 79.5726 95.3292 79.9882 95.0429 80.2892C94.3416 81.0059 93.7262 81.8086 93.1823 82.6543C93.0392 82.8836 92.6671 82.6686 92.8102 82.4393C93.2396 81.7799 96.5458 77.1932 97.3186 78.8129C97.7766 79.7446 96.6316 81.0776 96.1879 81.7943C95.8588 82.3103 95.5439 82.7976 95.1002 83.2276C94.6279 83.6863 94.0983 84.0589 93.7691 84.6609C93.6546 84.8903 93.2825 84.6753 93.4113 84.4316Z" fill="#161616"/>
<path d="M95.4579 79.1576C95.644 78.9713 97.0323 77.2656 96.1449 77.1653C95.9445 77.1366 95.4293 77.5666 95.2575 77.6813C94.9713 77.882 94.685 78.1113 94.4274 78.3693C93.4828 79.2436 92.7385 80.3043 92.0086 81.3506C91.8512 81.58 91.479 81.365 91.6365 81.1356C92.7385 79.5733 93.998 77.6526 95.8157 76.85C96.2594 76.6493 96.8605 76.6206 96.9178 77.237C96.9893 78.0253 96.288 78.9713 95.7728 79.473C95.5581 79.6593 95.2575 79.3583 95.4579 79.1576Z" fill="#161616"/>
<path d="M93.726 78.4409C93.769 78.3549 93.9693 77.9392 93.9407 77.8389C93.7833 77.7099 93.6258 77.5665 93.4684 77.4375C93.3682 77.4949 93.2537 77.5379 93.1535 77.5952C92.7385 77.8389 92.3806 78.1972 92.0515 78.5555C91.3931 79.3009 90.8206 80.1322 90.2195 80.9205C90.0477 81.1355 89.6756 80.9205 89.8473 80.7055C90.7633 79.5159 91.7079 77.7815 93.1392 77.1222C93.4541 76.9789 93.8978 76.8642 94.184 77.1222C94.6134 77.4949 94.2985 78.1685 94.1268 78.5699C94.0409 78.8135 93.6258 78.6989 93.726 78.4409Z" fill="#161616"/>
<path d="M90.6488 79.3577C90.7633 78.9993 90.8635 78.9133 90.4055 78.8703C90.0047 78.8417 89.9904 78.9277 89.7471 79.1857C89.4466 79.5297 89.1746 79.888 88.9027 80.2463C88.4447 80.877 88.0153 81.5363 87.543 82.1813C86.8131 83.1703 85.8541 84.5607 84.5374 84.747C84.2654 84.79 84.151 84.3743 84.4229 84.3313C85.6108 84.1593 86.5125 82.8693 87.1709 81.9663C87.772 81.1493 88.3302 80.275 88.9456 79.4723C89.3034 79.028 89.8473 78.1107 90.52 78.1393C91.2356 78.168 91.1927 78.985 91.0352 79.4723C90.978 79.7303 90.5629 79.6157 90.6488 79.3577Z" fill="#161616"/>
<path opacity="0.08" d="M59.9775 67.7051C60.321 67.6047 60.8791 69.0667 61.9526 70.9587C63.713 74.0834 65.4878 76.1331 67.3627 77.9964C71.8139 82.4111 74.0466 84.6327 77.9396 85.7937C79.328 86.2094 85.74 87.9294 91.6653 84.2171C94.4706 82.4541 96.0879 80.1464 96.9037 78.7417C97.0468 78.8851 97.2186 79.1001 97.2472 79.3867C97.3045 79.8024 97.0325 80.1177 96.7177 80.5477C96.2883 81.1641 96.2597 81.3217 96.1022 81.6371C96.1022 81.6371 95.9734 81.8664 95.7873 82.1244C95.3007 82.7981 93.5832 84.3604 93.6977 84.5181C93.7407 84.5754 94.0698 84.4177 94.7425 84.1167C95.4009 83.8157 95.5154 83.7297 95.7301 83.7727C96.1165 83.8444 96.503 84.2744 96.4887 84.7044C96.4743 85.0914 96.1452 85.3494 95.8446 85.5787C95.5011 85.8511 95.1719 85.9514 95.086 85.9801C93.8265 86.4101 93.5117 86.6967 92.4096 87.0264C89.1893 87.9867 85.5539 88.0727 85.5539 88.0727C80.2153 88.2017 76.122 86.8544 75.2632 86.5534C73.4885 85.9514 70.0105 84.7331 66.4896 81.7231C64.7435 80.2324 62.0814 77.9104 60.6788 74.0404C59.6053 71.1021 59.4908 67.8341 59.9775 67.7051Z" fill="#353535"/>
<path opacity="0.06" d="M93.4688 86.3957C91.1787 86.8974 88.3878 87.2701 85.2104 87.2127C77.4387 87.0694 71.4418 84.3747 68.064 82.4971C69.8674 83.9877 72.916 86.1234 77.1954 87.3274C84.7668 89.4631 91.1644 87.2987 93.4688 86.3957Z" fill="#353535"/>
<path d="M70.0533 46.3772C70.0676 46.4059 70.5685 47.2515 71.5561 48.9572C72.7011 50.9209 73.1734 51.7379 73.6457 52.8989C73.9749 53.7159 74.1896 54.3895 74.3184 54.8482C73.6887 55.1062 73.0589 55.3642 72.4292 55.6222C72.2574 57.0269 71.8424 58.1019 71.5132 58.7755C70.9836 59.8649 70.225 61.4559 68.5075 62.2299C68.2499 62.3445 67.477 62.6742 66.4179 62.6742C65.1012 62.6742 64.1279 62.1582 63.6985 61.9002C63.6127 62.4449 63.4409 63.1329 63.1117 63.8925C62.8398 64.5375 62.5249 65.0535 62.2387 65.4549C60.8933 64.9389 59.5479 64.4229 58.2169 63.8925C58.589 63.3335 59.0756 62.4449 59.3762 61.2695C59.4764 60.8682 59.7054 59.8649 59.6195 58.4459C59.5193 56.7115 59.0327 55.8085 58.5031 54.1745C57.6873 51.6232 57.2007 50.1325 57.4297 48.5415C57.7302 46.4775 59.276 44.0982 61.6519 43.2382C65.0582 41.9912 68.5934 44.4135 70.0533 46.3772Z" fill="white"/>
<path d="M72.4294 48.04C73.3167 47.696 73.5171 45.9473 73.3454 44.7863C73.2881 44.3993 73.0734 43.2527 72.0286 42.106C70.6117 40.5437 69.1089 40.558 66.9334 39.6263C65.7311 39.1103 64.0136 38.1787 62.1816 36.3727C62.4535 37.1897 62.7255 37.9923 63.0117 38.8093C62.5967 38.838 61.5662 38.881 60.4927 38.279C59.1617 37.548 58.6464 36.344 58.5033 36C58.2743 36.3583 57.3297 37.9207 57.8306 39.698C57.9737 40.1997 58.2027 40.601 58.4174 40.9163C57.6732 40.7157 56.6283 40.3287 55.741 39.4543C54.7677 38.494 54.6389 37.6197 54.2382 37.6627C53.4653 37.7343 53.179 40.8877 53.0216 42.622C52.9214 43.7687 52.764 44.5713 53.0645 45.5317C53.3365 46.4203 53.8517 47.094 53.7945 47.137C53.6943 47.1943 52.2487 44.815 51.848 45.0013C51.6047 45.116 52.034 46.0333 52.1915 47.7677C52.3775 49.889 51.9481 50.2903 52.3346 51.7953C52.5636 52.6697 52.8928 53.286 53.2506 53.9883C53.6943 54.8053 54.2382 55.8373 55.24 56.7547C56.1703 57.6147 57.3153 58.661 58.7323 58.4603C60.5786 58.188 61.4374 55.995 61.4946 55.8373C61.3372 55.8373 59.9202 55.7657 59.2189 54.6763C58.3315 53.286 59.2189 51.222 60.2351 50.878C60.9794 50.62 61.5662 51.3797 62.2675 51.0213C62.84 50.7347 62.9115 50.0323 63.1405 49.373C63.4411 48.4987 64.0995 47.3377 65.7168 46.1623C66.733 46.1193 68.2358 46.2053 69.7959 46.9363C71.1699 47.5527 71.7567 48.298 72.4294 48.04Z" fill="#5B87E0"/>
<path d="M72.5581 50.4906C73.3023 51.6373 73.9177 52.8556 74.3471 54.16C74.4473 54.461 74.619 54.7763 74.4043 55.0343C74.2469 55.2206 73.8605 55.278 73.6458 55.364C73.288 55.493 72.9302 55.6363 72.5724 55.7653C72.3147 55.8656 72.2002 55.45 72.4579 55.3496C72.7012 55.2636 72.9302 55.1776 73.1735 55.0773C73.3166 55.02 73.7889 54.9196 73.8891 54.805C74.1897 54.504 73.7603 53.7586 73.6315 53.4433C73.245 52.483 72.7584 51.58 72.1859 50.7056C72.0285 50.4763 72.4006 50.2613 72.5581 50.4906Z" fill="#161616"/>
<path d="M72.6584 55.6083C71.8712 58.3603 70.8836 61.4276 68.0783 62.7319C67.835 62.8466 67.606 62.4739 67.8636 62.3593C70.5544 61.0979 71.4847 58.1453 72.2433 55.4936C72.3292 55.2213 72.7442 55.3359 72.6584 55.6083Z" fill="#161616"/>
<path d="M68.0067 62.7743C65.502 63.3333 62.6967 61.986 61.0222 60.1943C60.8361 59.9937 61.1367 59.6927 61.3227 59.8933C62.8971 61.5703 65.5449 62.889 67.8922 62.3587C68.1641 62.287 68.2786 62.7027 68.0067 62.7743Z" fill="#161616"/>
<path d="M63.8991 62.0011C63.7273 63.2625 63.2693 64.3948 62.4821 65.3981C62.3104 65.6131 62.0098 65.3121 62.1816 65.0971C62.8829 64.1941 63.3123 63.1335 63.4697 62.0011C63.4983 61.7288 63.9277 61.7288 63.8991 62.0011Z" fill="#161616"/>
<path d="M59.8058 60.1515C59.7199 61.5705 59.2047 62.8605 58.2887 63.9498C58.1169 64.1648 57.8021 63.8495 57.9881 63.6488C58.8326 62.6455 59.3049 61.4558 59.3908 60.1515C59.4051 59.8792 59.8344 59.8792 59.8058 60.1515Z" fill="#161616"/>
<path d="M61.9236 51.5799C61.5086 50.9492 60.7214 50.8632 60.1059 51.2646C59.5477 51.6229 59.2758 52.3109 59.2329 52.9416C59.1613 53.9592 59.8197 56.0232 61.2509 55.4069C61.5086 55.2922 61.7232 55.6649 61.4656 55.7796C59.605 56.5822 58.6174 54.1312 58.8321 52.6549C58.9609 51.8092 59.4475 50.9779 60.292 50.6912C61.0506 50.4189 61.8378 50.7056 62.2814 51.3649C62.4532 51.5942 62.0811 51.8092 61.9236 51.5799Z" fill="#161616"/>
<path d="M63.5127 62.5736C62.6825 62.0433 61.9669 61.3983 61.3515 60.6386C61.1797 60.4236 61.4803 60.1226 61.652 60.3376C62.2388 61.0686 62.9402 61.6993 63.7274 62.2153C63.9564 62.3586 63.7417 62.7313 63.5127 62.5736Z" fill="#161616"/>
<path d="M71.3415 58.4458C70.354 58.5318 69.3664 58.1734 68.6794 57.4424C68.2357 56.9551 68.064 56.1381 68.9657 56.1668C69.1947 56.1811 69.2662 56.5251 69.0229 56.5824C68.6937 56.6684 68.4218 56.7974 68.1498 57.0267C67.9352 57.1987 67.6346 56.8978 67.8493 56.7258C68.1785 56.4534 68.4933 56.2814 68.9084 56.1811C68.9227 56.3244 68.9513 56.4677 68.9657 56.5967C68.479 56.5824 69.1231 57.2848 69.1803 57.3421C69.4093 57.5428 69.6526 57.6861 69.9246 57.8008C70.3826 58.0014 70.8406 58.0588 71.3415 58.0158C71.6135 58.0014 71.6135 58.4314 71.3415 58.4458Z" fill="#161616"/>
<path d="M69.452 51.9674C69.6953 51.5374 69.7812 51.0644 69.6667 50.5914C69.7669 50.6344 69.8814 50.6774 69.9816 50.7204C69.5951 51.0214 69.681 51.5804 69.7382 51.9961C69.6094 51.9818 69.4806 51.9674 69.3518 51.9388C69.5235 51.6951 69.6094 51.4371 69.6094 51.1361C69.6094 50.8638 70.0388 50.8638 70.0388 51.1361C70.0388 51.5088 69.9386 51.8528 69.7239 52.1538C69.6237 52.2828 69.3661 52.2971 69.3375 52.0964C69.2373 51.4514 69.2087 50.7778 69.7812 50.3334C69.8957 50.2474 70.0674 50.3334 70.0961 50.4624C70.2392 51.0501 70.1533 51.6521 69.8384 52.1681C69.681 52.4261 69.3089 52.2111 69.452 51.9674Z" fill="#161616"/>
<path d="M70.3109 48.9283C69.6096 48.097 68.5934 48.7277 68.2213 49.516C68.1068 49.7597 67.7346 49.5447 67.8491 49.301C68.3358 48.269 69.7384 47.6097 70.6114 48.6273C70.7975 48.8423 70.4969 49.1433 70.3109 48.9283Z" fill="#161616"/>
<path opacity="0.07" d="M63.4123 48.6846C63.3551 49.0142 63.2835 49.5302 63.169 50.1322C62.8541 51.8379 62.5822 52.8126 62.482 53.2712C62.1099 55.0199 62.5965 57.7146 64.3713 59.4776C66.3321 61.4126 69.0085 61.3696 69.6812 61.3409C69.3807 61.6992 68.9083 62.1579 68.2213 62.4589C66.1317 63.3762 64.0135 62.0432 63.7845 61.8856C63.8131 62.8172 63.6127 63.1326 63.4123 63.2329C62.7969 63.5052 61.4229 62.2296 60.8218 60.8536C60.1777 59.3629 60.5069 57.9296 60.6786 57.3419C61.4801 56.2382 61.5231 55.8512 61.4086 55.7222C61.2368 55.5359 60.7645 55.8799 60.235 55.6936C59.6768 55.4786 59.4478 54.8049 59.3046 54.3892C59.1186 53.8302 58.6176 52.3109 59.548 51.4222C60.1348 50.8632 61.0937 50.7629 61.9954 51.0782C62.1815 51.0496 62.4248 50.9636 62.6108 50.7629C62.8541 50.5049 62.8541 50.2039 62.983 49.6879C63.0688 49.4299 63.1833 49.0859 63.4123 48.6846Z" fill="#353535"/>
<path opacity="0.1" d="M61.4088 58.3741C61.5233 59.6068 61.8238 60.6101 62.0958 61.3411C61.5948 61.1978 61.0796 61.0401 60.5786 60.8968C60.1493 62.0291 59.7342 63.1758 59.3048 64.3081C58.9899 64.1504 58.6894 63.9928 58.3745 63.8208C58.7323 63.0181 59.0901 62.0291 59.3764 60.8824C59.6197 59.9078 59.7485 59.0048 59.8201 58.2308C60.0634 57.9871 60.3496 57.6861 60.6073 57.2991C61.0509 56.6541 61.3086 56.0521 61.466 55.5791C61.3801 56.3101 61.3086 57.2704 61.4088 58.3741Z" fill="#353535"/>
<path opacity="0.13" d="M53.3075 40.4004C53.5079 40.4004 53.3791 42.3784 54.2235 44.7864C54.5813 45.8041 55.2397 47.6101 56.9285 49.1294C58.1308 50.2044 59.376 50.7347 60.1632 50.9927C59.9485 51.1217 59.605 51.3654 59.3474 51.7811C58.7176 52.7844 59.1184 53.9167 59.2329 54.2464C59.3903 54.7051 59.605 55.3071 60.2061 55.6224C60.7643 55.9091 61.3368 55.7944 61.5372 55.7371C61.4942 55.8661 60.5925 58.2454 58.7176 58.4461C57.9304 58.5321 57.2864 58.1881 56.7997 57.9301C55.5259 57.2707 54.8819 56.2817 54.0947 55.0634C53.0499 53.4437 52.3199 52.2971 52.2197 50.6774C52.1482 49.4017 52.5346 49.0721 52.2627 47.8537C52.1768 47.4667 51.9478 46.6927 51.9908 45.6177C52.0051 45.3884 52.0194 45.2021 52.0337 45.0731C52.6205 45.7467 53.2073 46.4347 53.7941 47.1084C53.5937 46.7214 53.3361 46.1194 53.1644 45.3454C52.9783 44.4997 53.0069 43.8404 53.0499 42.7511C53.0642 42.1347 53.1214 40.4004 53.3075 40.4004Z" fill="#353535"/>
<defs>
<linearGradient id="paint0_linear_1_314" x1="94.0271" y1="72.4785" x2="89.6485" y2="107.119" gradientUnits="userSpaceOnUse">
<stop stop-color="#EE4266"/>
<stop offset="1" stop-color="#FA5E7E"/>
</linearGradient>
<linearGradient id="paint1_linear_1_314" x1="108.79" y1="79.4668" x2="107.664" y2="85.8038" gradientUnits="userSpaceOnUse">
<stop stop-color="#EE4266"/>
<stop offset="1" stop-color="#FA5E7E"/>
</linearGradient>
<linearGradient id="paint2_linear_1_314" x1="104.843" y1="78.5449" x2="104.635" y2="80.0423" gradientUnits="userSpaceOnUse">
<stop stop-color="#EE4266"/>
<stop offset="1" stop-color="#FA5E7E"/>
</linearGradient>
<linearGradient id="paint3_linear_1_314" x1="104.154" y1="78.627" x2="103.801" y2="81.2992" gradientUnits="userSpaceOnUse">
<stop stop-color="#EE4266"/>
<stop offset="1" stop-color="#FA5E7E"/>
</linearGradient>
<linearGradient id="paint4_linear_1_314" x1="103.557" y1="79.1465" x2="103.206" y2="82.1229" gradientUnits="userSpaceOnUse">
<stop stop-color="#EE4266"/>
<stop offset="1" stop-color="#FA5E7E"/>
</linearGradient>
<linearGradient id="paint5_linear_1_314" x1="102.993" y1="79.5713" x2="102.567" y2="82.9592" gradientUnits="userSpaceOnUse">
<stop stop-color="#EE4266"/>
<stop offset="1" stop-color="#FA5E7E"/>
</linearGradient>
<linearGradient id="paint6_linear_1_314" x1="102.564" y1="79.9346" x2="101.964" y2="83.8946" gradientUnits="userSpaceOnUse">
<stop stop-color="#EE4266"/>
<stop offset="1" stop-color="#FA5E7E"/>
</linearGradient>
<linearGradient id="paint7_linear_1_314" x1="102.707" y1="80.3613" x2="101.888" y2="84.1607" gradientUnits="userSpaceOnUse">
<stop stop-color="#EE4266"/>
<stop offset="1" stop-color="#FA5E7E"/>
</linearGradient>
<linearGradient id="paint8_linear_1_314" x1="102.88" y1="80.8633" x2="101.777" y2="84.0297" gradientUnits="userSpaceOnUse">
<stop stop-color="#EE4266"/>
<stop offset="1" stop-color="#FA5E7E"/>
</linearGradient>
<linearGradient id="paint9_linear_1_314" x1="93.7911" y1="78.7422" x2="90.5921" y2="95.5147" gradientUnits="userSpaceOnUse">
<stop stop-color="#EE4266"/>
<stop offset="1" stop-color="#FA5E7E"/>
</linearGradient>
<linearGradient id="paint10_linear_1_314" x1="97.7232" y1="82.0908" x2="96.9381" y2="85.5769" gradientUnits="userSpaceOnUse">
<stop stop-color="#EE4266"/>
<stop offset="1" stop-color="#FA5E7E"/>
</linearGradient>
<linearGradient id="paint11_linear_1_314" x1="96.8139" y1="80.1631" x2="95.9883" y2="83.7516" gradientUnits="userSpaceOnUse">
<stop stop-color="#EE4266"/>
<stop offset="1" stop-color="#FA5E7E"/>
</linearGradient>
<linearGradient id="paint12_linear_1_314" x1="106.342" y1="81.2666" x2="101.697" y2="102.95" gradientUnits="userSpaceOnUse">
<stop stop-color="#EE4266"/>
<stop offset="1" stop-color="#FA5E7E"/>
</linearGradient>
<linearGradient id="paint13_linear_1_314" x1="58.7259" y1="64.0137" x2="42.6" y2="115.619" gradientUnits="userSpaceOnUse">
<stop stop-color="#EE4266"/>
<stop offset="1" stop-color="#FA5E7E"/>
</linearGradient>
</defs>
</svg>