<svg width="216" height="201" viewBox="0 0 216 201" fill="none" xmlns="http://www.w3.org/2000/svg">
<rect width="216" height="201" rx="24" fill="white"/>
<path d="M30.1003 168.504H35.5843V169.872H31.6123V172.104H35.3563V173.472H31.6123V177H30.1003V168.504ZM36.883 171.24H38.323V177H36.883V171.24ZM36.679 169.284C36.679 169.052 36.763 168.852 36.931 168.684C37.107 168.508 37.327 168.42 37.591 168.42C37.855 168.42 38.075 168.504 38.251 168.672C38.435 168.832 38.527 169.036 38.527 169.284C38.527 169.532 38.435 169.74 38.251 169.908C38.075 170.068 37.855 170.148 37.591 170.148C37.327 170.148 37.107 170.064 36.931 169.896C36.763 169.72 36.679 169.516 36.679 169.284ZM39.9762 171.24H41.3442V172.164H41.3682C41.5042 171.876 41.7122 171.628 41.9922 171.42C42.2722 171.204 42.6522 171.096 43.1322 171.096C43.5162 171.096 43.8402 171.16 44.1042 171.288C44.3762 171.416 44.5962 171.584 44.7642 171.792C44.9322 172 45.0522 172.24 45.1242 172.512C45.1962 172.784 45.2322 173.068 45.2322 173.364V177H43.7922V174.084C43.7922 173.924 43.7842 173.748 43.7682 173.556C43.7522 173.356 43.7082 173.172 43.6362 173.004C43.5722 172.828 43.4682 172.684 43.3242 172.572C43.1802 172.452 42.9842 172.392 42.7362 172.392C42.4962 172.392 42.2922 172.432 42.1242 172.512C41.9642 172.592 41.8282 172.7 41.7162 172.836C41.6122 172.972 41.5362 173.128 41.4882 173.304C41.4402 173.48 41.4162 173.664 41.4162 173.856V177H39.9762V171.24ZM50.4668 176.208H50.4308C50.2228 176.536 49.9588 176.776 49.6388 176.928C49.3188 177.072 48.9668 177.144 48.5828 177.144C48.3188 177.144 48.0588 177.108 47.8028 177.036C47.5548 176.964 47.3308 176.856 47.1308 176.712C46.9388 176.568 46.7828 176.388 46.6628 176.172C46.5428 175.956 46.4828 175.704 46.4828 175.416C46.4828 175.104 46.5388 174.84 46.6508 174.624C46.7628 174.4 46.9108 174.216 47.0948 174.072C47.2868 173.92 47.5068 173.8 47.7548 173.712C48.0028 173.624 48.2588 173.56 48.5228 173.52C48.7948 173.472 49.0668 173.444 49.3388 173.436C49.6108 173.42 49.8668 173.412 50.1068 173.412H50.4668V173.256C50.4668 172.896 50.3428 172.628 50.0948 172.452C49.8468 172.268 49.5308 172.176 49.1468 172.176C48.8428 172.176 48.5588 172.232 48.2948 172.344C48.0308 172.448 47.8028 172.592 47.6108 172.776L46.8548 172.02C47.1748 171.692 47.5468 171.456 47.9708 171.312C48.4028 171.168 48.8468 171.096 49.3028 171.096C49.7108 171.096 50.0548 171.144 50.3348 171.24C50.6148 171.328 50.8468 171.444 51.0308 171.588C51.2148 171.732 51.3548 171.9 51.4508 172.092C51.5548 172.276 51.6268 172.464 51.6668 172.656C51.7148 172.848 51.7428 173.036 51.7508 173.22C51.7588 173.396 51.7628 173.552 51.7628 173.688V177H50.4668V176.208ZM50.3828 174.42H50.0828C49.8828 174.42 49.6588 174.428 49.4108 174.444C49.1628 174.46 48.9268 174.5 48.7028 174.564C48.4868 174.62 48.3028 174.708 48.1508 174.828C47.9988 174.94 47.9228 175.1 47.9228 175.308C47.9228 175.444 47.9508 175.56 48.0068 175.656C48.0708 175.744 48.1508 175.82 48.2468 175.884C48.3428 175.948 48.4508 175.996 48.5708 176.028C48.6908 176.052 48.8108 176.064 48.9308 176.064C49.4268 176.064 49.7908 175.948 50.0228 175.716C50.2628 175.476 50.3828 175.152 50.3828 174.744V174.42ZM53.3361 167.928H54.7761V177H53.3361V167.928ZM60.1121 168.504H62.9681C63.3761 168.504 63.7681 168.544 64.1441 168.624C64.5281 168.704 64.8641 168.84 65.1521 169.032C65.4401 169.216 65.6681 169.468 65.8361 169.788C66.0121 170.1 66.1001 170.492 66.1001 170.964C66.1001 171.5 66.0081 171.932 65.8241 172.26C65.6401 172.588 65.3921 172.844 65.0801 173.028C64.7681 173.204 64.4041 173.324 63.9881 173.388C63.5801 173.452 63.1521 173.484 62.7041 173.484H61.6241V177H60.1121V168.504ZM62.5361 172.188C62.7521 172.188 62.9761 172.18 63.2081 172.164C63.4401 172.148 63.6521 172.1 63.8441 172.02C64.0441 171.94 64.2041 171.82 64.3241 171.66C64.4521 171.5 64.5161 171.276 64.5161 170.988C64.5161 170.724 64.4601 170.516 64.3481 170.364C64.2361 170.204 64.0921 170.084 63.9161 170.004C63.7401 169.916 63.5441 169.86 63.3281 169.836C63.1121 169.812 62.9041 169.8 62.7041 169.8H61.6241V172.188H62.5361ZM70.916 176.208H70.88C70.672 176.536 70.408 176.776 70.088 176.928C69.768 177.072 69.416 177.144 69.032 177.144C68.768 177.144 68.508 177.108 68.252 177.036C68.004 176.964 67.78 176.856 67.58 176.712C67.388 176.568 67.232 176.388 67.112 176.172C66.992 175.956 66.932 175.704 66.932 175.416C66.932 175.104 66.988 174.84 67.1 174.624C67.212 174.4 67.36 174.216 67.544 174.072C67.736 173.92 67.956 173.8 68.204 173.712C68.452 173.624 68.708 173.56 68.972 173.52C69.244 173.472 69.516 173.444 69.788 173.436C70.06 173.42 70.316 173.412 70.556 173.412H70.916V173.256C70.916 172.896 70.792 172.628 70.544 172.452C70.296 172.268 69.98 172.176 69.596 172.176C69.292 172.176 69.008 172.232 68.744 172.344C68.48 172.448 68.252 172.592 68.06 172.776L67.304 172.02C67.624 171.692 67.996 171.456 68.42 171.312C68.852 171.168 69.296 171.096 69.752 171.096C70.16 171.096 70.504 171.144 70.784 171.24C71.064 171.328 71.296 171.444 71.48 171.588C71.664 171.732 71.804 171.9 71.9 172.092C72.004 172.276 72.076 172.464 72.116 172.656C72.164 172.848 72.192 173.036 72.2 173.22C72.208 173.396 72.212 173.552 72.212 173.688V177H70.916V176.208ZM70.832 174.42H70.532C70.332 174.42 70.108 174.428 69.86 174.444C69.612 174.46 69.376 174.5 69.152 174.564C68.936 174.62 68.752 174.708 68.6 174.828C68.448 174.94 68.372 175.1 68.372 175.308C68.372 175.444 68.4 175.56 68.456 175.656C68.52 175.744 68.6 175.82 68.696 175.884C68.792 175.948 68.9 175.996 69.02 176.028C69.14 176.052 69.26 176.064 69.38 176.064C69.876 176.064 70.24 175.948 70.472 175.716C70.712 175.476 70.832 175.152 70.832 174.744V174.42ZM72.9813 171.24H74.5653L76.1733 175.236H76.1973L77.6373 171.24H79.1373L76.4133 178.236C76.3093 178.508 76.1933 178.744 76.0653 178.944C75.9453 179.152 75.8013 179.324 75.6333 179.46C75.4653 179.604 75.2653 179.708 75.0333 179.772C74.8093 179.844 74.5373 179.88 74.2173 179.88C73.8413 179.88 73.4733 179.832 73.1133 179.736L73.2933 178.44C73.4053 178.48 73.5213 178.512 73.6413 178.536C73.7693 178.568 73.8973 178.584 74.0253 178.584C74.2013 178.584 74.3493 178.568 74.4693 178.536C74.5893 178.504 74.6893 178.452 74.7693 178.38C74.8573 178.316 74.9293 178.228 74.9853 178.116C75.0413 178.012 75.1013 177.884 75.1653 177.732L75.4413 177.048L72.9813 171.24ZM79.924 171.24H81.292V172.14H81.316C81.444 171.868 81.648 171.628 81.928 171.42C82.216 171.204 82.6 171.096 83.08 171.096C83.984 171.096 84.584 171.452 84.88 172.164C85.088 171.796 85.348 171.528 85.66 171.36C85.972 171.184 86.344 171.096 86.776 171.096C87.16 171.096 87.484 171.16 87.748 171.288C88.012 171.416 88.224 171.592 88.384 171.816C88.552 172.04 88.672 172.304 88.744 172.608C88.816 172.904 88.852 173.224 88.852 173.568V177H87.412V173.736C87.412 173.56 87.396 173.392 87.364 173.232C87.332 173.064 87.276 172.92 87.196 172.8C87.116 172.672 87.008 172.572 86.872 172.5C86.736 172.428 86.56 172.392 86.344 172.392C86.12 172.392 85.928 172.436 85.768 172.524C85.616 172.604 85.488 172.716 85.384 172.86C85.288 172.996 85.216 173.156 85.168 173.34C85.128 173.516 85.108 173.696 85.108 173.88V177H83.668V173.568C83.668 173.208 83.592 172.924 83.44 172.716C83.288 172.5 83.036 172.392 82.684 172.392C82.444 172.392 82.24 172.432 82.072 172.512C81.912 172.592 81.776 172.7 81.664 172.836C81.56 172.972 81.484 173.128 81.436 173.304C81.388 173.48 81.364 173.664 81.364 173.856V177H79.924V171.24ZM91.5774 174.624C91.6254 175.056 91.7934 175.392 92.0814 175.632C92.3694 175.872 92.7174 175.992 93.1254 175.992C93.4854 175.992 93.7854 175.92 94.0254 175.776C94.2734 175.624 94.4894 175.436 94.6734 175.212L95.7054 175.992C95.3694 176.408 94.9934 176.704 94.5774 176.88C94.1614 177.056 93.7254 177.144 93.2694 177.144C92.8374 177.144 92.4294 177.072 92.0454 176.928C91.6614 176.784 91.3294 176.58 91.0494 176.316C90.7694 176.052 90.5454 175.736 90.3774 175.368C90.2174 174.992 90.1374 174.576 90.1374 174.12C90.1374 173.664 90.2174 173.252 90.3774 172.884C90.5454 172.508 90.7694 172.188 91.0494 171.924C91.3294 171.66 91.6614 171.456 92.0454 171.312C92.4294 171.168 92.8374 171.096 93.2694 171.096C93.6694 171.096 94.0334 171.168 94.3614 171.312C94.6974 171.448 94.9814 171.648 95.2134 171.912C95.4534 172.176 95.6374 172.504 95.7654 172.896C95.9014 173.28 95.9694 173.724 95.9694 174.228V174.624H91.5774ZM94.5294 173.544C94.5214 173.12 94.3894 172.788 94.1334 172.548C93.8774 172.3 93.5214 172.176 93.0654 172.176C92.6334 172.176 92.2894 172.3 92.0334 172.548C91.7854 172.796 91.6334 173.128 91.5774 173.544H94.5294ZM97.316 171.24H98.684V172.164H98.708C98.844 171.876 99.052 171.628 99.332 171.42C99.612 171.204 99.992 171.096 100.472 171.096C100.856 171.096 101.18 171.16 101.444 171.288C101.716 171.416 101.936 171.584 102.104 171.792C102.272 172 102.392 172.24 102.464 172.512C102.536 172.784 102.572 173.068 102.572 173.364V177H101.132V174.084C101.132 173.924 101.124 173.748 101.108 173.556C101.092 173.356 101.048 173.172 100.976 173.004C100.912 172.828 100.808 172.684 100.664 172.572C100.52 172.452 100.324 172.392 100.076 172.392C99.836 172.392 99.632 172.432 99.464 172.512C99.304 172.592 99.168 172.7 99.056 172.836C98.952 172.972 98.876 173.128 98.828 173.304C98.78 173.48 98.756 173.664 98.756 173.856V177H97.316V171.24ZM103.535 172.464V171.24H104.723V169.572H106.163V171.24H107.747V172.464H106.163V174.984C106.163 175.272 106.215 175.5 106.319 175.668C106.431 175.836 106.647 175.92 106.967 175.92C107.095 175.92 107.235 175.908 107.387 175.884C107.539 175.852 107.659 175.804 107.747 175.74V176.952C107.595 177.024 107.407 177.072 107.183 177.096C106.967 177.128 106.775 177.144 106.607 177.144C106.223 177.144 105.907 177.1 105.659 177.012C105.419 176.932 105.227 176.808 105.083 176.64C104.947 176.464 104.851 176.248 104.795 175.992C104.747 175.736 104.723 175.44 104.723 175.104V172.464H103.535ZM115.301 168.504H116.609L120.269 177H118.541L117.749 175.056H114.065L113.297 177H111.605L115.301 168.504ZM117.221 173.76L115.913 170.304L114.581 173.76H117.221ZM121.082 171.24H122.45V172.164H122.474C122.61 171.876 122.818 171.628 123.098 171.42C123.378 171.204 123.758 171.096 124.238 171.096C124.622 171.096 124.946 171.16 125.21 171.288C125.482 171.416 125.702 171.584 125.87 171.792C126.038 172 126.158 172.24 126.23 172.512C126.302 172.784 126.338 173.068 126.338 173.364V177H124.898V174.084C124.898 173.924 124.89 173.748 124.874 173.556C124.858 173.356 124.814 173.172 124.742 173.004C124.678 172.828 124.574 172.684 124.43 172.572C124.286 172.452 124.09 172.392 123.842 172.392C123.602 172.392 123.398 172.432 123.23 172.512C123.07 172.592 122.934 172.7 122.822 172.836C122.718 172.972 122.642 173.128 122.594 173.304C122.546 173.48 122.522 173.664 122.522 173.856V177H121.082V171.24ZM132.532 176.136H132.508C132.3 176.488 132.02 176.744 131.668 176.904C131.316 177.064 130.936 177.144 130.528 177.144C130.08 177.144 129.68 177.068 129.328 176.916C128.984 176.756 128.688 176.54 128.44 176.268C128.192 175.996 128.004 175.676 127.876 175.308C127.748 174.94 127.684 174.544 127.684 174.12C127.684 173.696 127.752 173.3 127.888 172.932C128.024 172.564 128.212 172.244 128.452 171.972C128.7 171.7 128.996 171.488 129.34 171.336C129.684 171.176 130.06 171.096 130.468 171.096C130.74 171.096 130.98 171.124 131.188 171.18C131.396 171.236 131.58 171.308 131.74 171.396C131.9 171.484 132.036 171.58 132.148 171.684C132.26 171.78 132.352 171.876 132.424 171.972H132.46V167.928H133.9V177H132.532V176.136ZM129.124 174.12C129.124 174.344 129.16 174.56 129.232 174.768C129.312 174.976 129.424 175.16 129.568 175.32C129.72 175.48 129.9 175.608 130.108 175.704C130.316 175.8 130.552 175.848 130.816 175.848C131.08 175.848 131.316 175.8 131.524 175.704C131.732 175.608 131.908 175.48 132.052 175.32C132.204 175.16 132.316 174.976 132.388 174.768C132.468 174.56 132.508 174.344 132.508 174.12C132.508 173.896 132.468 173.68 132.388 173.472C132.316 173.264 132.204 173.08 132.052 172.92C131.908 172.76 131.732 172.632 131.524 172.536C131.316 172.44 131.08 172.392 130.816 172.392C130.552 172.392 130.316 172.44 130.108 172.536C129.9 172.632 129.72 172.76 129.568 172.92C129.424 173.08 129.312 173.264 129.232 173.472C129.16 173.68 129.124 173.896 129.124 174.12ZM143.378 170.328C143.218 170.096 143.002 169.928 142.73 169.824C142.466 169.712 142.186 169.656 141.89 169.656C141.714 169.656 141.542 169.676 141.374 169.716C141.214 169.756 141.066 169.82 140.93 169.908C140.802 169.996 140.698 170.112 140.618 170.256C140.538 170.392 140.498 170.556 140.498 170.748C140.498 171.036 140.598 171.256 140.798 171.408C140.998 171.56 141.246 171.692 141.542 171.804C141.838 171.916 142.162 172.024 142.514 172.128C142.866 172.232 143.19 172.376 143.486 172.56C143.782 172.744 144.03 172.988 144.23 173.292C144.43 173.596 144.53 174 144.53 174.504C144.53 174.96 144.446 175.36 144.278 175.704C144.11 176.04 143.882 176.32 143.594 176.544C143.314 176.768 142.986 176.936 142.61 177.048C142.234 177.16 141.838 177.216 141.422 177.216C140.894 177.216 140.386 177.128 139.898 176.952C139.41 176.776 138.99 176.48 138.638 176.064L139.778 174.96C139.962 175.24 140.202 175.46 140.498 175.62C140.802 175.772 141.122 175.848 141.458 175.848C141.634 175.848 141.81 175.824 141.986 175.776C142.162 175.728 142.322 175.656 142.466 175.56C142.61 175.464 142.726 175.344 142.814 175.2C142.902 175.048 142.946 174.876 142.946 174.684C142.946 174.372 142.846 174.132 142.646 173.964C142.446 173.796 142.198 173.656 141.902 173.544C141.606 173.424 141.282 173.312 140.93 173.208C140.578 173.104 140.254 172.964 139.958 172.788C139.662 172.604 139.414 172.364 139.214 172.068C139.014 171.764 138.914 171.36 138.914 170.856C138.914 170.416 139.002 170.036 139.178 169.716C139.362 169.396 139.598 169.132 139.886 168.924C140.182 168.708 140.518 168.548 140.894 168.444C141.27 168.34 141.654 168.288 142.046 168.288C142.494 168.288 142.926 168.356 143.342 168.492C143.766 168.628 144.146 168.852 144.482 169.164L143.378 170.328ZM147.412 172.044H147.436C147.548 171.804 147.744 171.588 148.024 171.396C148.312 171.196 148.68 171.096 149.128 171.096C149.512 171.096 149.836 171.16 150.1 171.288C150.372 171.416 150.592 171.584 150.76 171.792C150.928 172 151.048 172.24 151.12 172.512C151.192 172.784 151.228 173.068 151.228 173.364V177H149.788V174.084C149.788 173.924 149.78 173.748 149.764 173.556C149.748 173.356 149.704 173.172 149.632 173.004C149.568 172.828 149.464 172.684 149.32 172.572C149.176 172.452 148.98 172.392 148.732 172.392C148.492 172.392 148.288 172.432 148.12 172.512C147.96 172.592 147.824 172.7 147.712 172.836C147.608 172.972 147.532 173.128 147.484 173.304C147.436 173.48 147.412 173.664 147.412 173.856V177H145.972V167.928H147.412V172.044ZM152.887 171.24H154.327V177H152.887V171.24ZM152.683 169.284C152.683 169.052 152.767 168.852 152.935 168.684C153.111 168.508 153.331 168.42 153.595 168.42C153.859 168.42 154.079 168.504 154.255 168.672C154.439 168.832 154.531 169.036 154.531 169.284C154.531 169.532 154.439 169.74 154.255 169.908C154.079 170.068 153.859 170.148 153.595 170.148C153.331 170.148 153.111 170.064 152.935 169.896C152.767 169.72 152.683 169.516 152.683 169.284ZM155.98 171.24H157.348V172.104H157.372C157.58 171.752 157.86 171.496 158.212 171.336C158.564 171.176 158.944 171.096 159.352 171.096C159.792 171.096 160.188 171.176 160.54 171.336C160.892 171.488 161.192 171.7 161.44 171.972C161.688 172.244 161.876 172.564 162.004 172.932C162.132 173.3 162.196 173.696 162.196 174.12C162.196 174.544 162.128 174.94 161.992 175.308C161.856 175.676 161.664 175.996 161.416 176.268C161.176 176.54 160.884 176.756 160.54 176.916C160.196 177.068 159.82 177.144 159.412 177.144C159.14 177.144 158.9 177.116 158.692 177.06C158.484 177.004 158.3 176.932 158.14 176.844C157.98 176.756 157.844 176.664 157.732 176.568C157.62 176.464 157.528 176.364 157.456 176.268H157.42V179.736H155.98V171.24ZM160.756 174.12C160.756 173.896 160.716 173.68 160.636 173.472C160.564 173.264 160.452 173.08 160.3 172.92C160.156 172.76 159.98 172.632 159.772 172.536C159.564 172.44 159.328 172.392 159.064 172.392C158.8 172.392 158.564 172.44 158.356 172.536C158.148 172.632 157.968 172.76 157.816 172.92C157.672 173.08 157.56 173.264 157.48 173.472C157.408 173.68 157.372 173.896 157.372 174.12C157.372 174.344 157.408 174.56 157.48 174.768C157.56 174.976 157.672 175.16 157.816 175.32C157.968 175.48 158.148 175.608 158.356 175.704C158.564 175.8 158.8 175.848 159.064 175.848C159.328 175.848 159.564 175.8 159.772 175.704C159.98 175.608 160.156 175.48 160.3 175.32C160.452 175.16 160.564 174.976 160.636 174.768C160.716 174.56 160.756 174.344 160.756 174.12ZM163.539 171.24H164.907V172.104H164.931C165.139 171.752 165.419 171.496 165.771 171.336C166.123 171.176 166.503 171.096 166.911 171.096C167.351 171.096 167.747 171.176 168.099 171.336C168.451 171.488 168.751 171.7 168.999 171.972C169.247 172.244 169.435 172.564 169.563 172.932C169.691 173.3 169.755 173.696 169.755 174.12C169.755 174.544 169.687 174.94 169.551 175.308C169.415 175.676 169.223 175.996 168.975 176.268C168.735 176.54 168.443 176.756 168.099 176.916C167.755 177.068 167.379 177.144 166.971 177.144C166.699 177.144 166.459 177.116 166.251 177.06C166.043 177.004 165.859 176.932 165.699 176.844C165.539 176.756 165.403 176.664 165.291 176.568C165.179 176.464 165.087 176.364 165.015 176.268H164.979V179.736H163.539V171.24ZM168.315 174.12C168.315 173.896 168.275 173.68 168.195 173.472C168.123 173.264 168.011 173.08 167.859 172.92C167.715 172.76 167.539 172.632 167.331 172.536C167.123 172.44 166.887 172.392 166.623 172.392C166.359 172.392 166.123 172.44 165.915 172.536C165.707 172.632 165.527 172.76 165.375 172.92C165.231 173.08 165.119 173.264 165.039 173.472C164.967 173.68 164.931 173.896 164.931 174.12C164.931 174.344 164.967 174.56 165.039 174.768C165.119 174.976 165.231 175.16 165.375 175.32C165.527 175.48 165.707 175.608 165.915 175.704C166.123 175.8 166.359 175.848 166.623 175.848C166.887 175.848 167.123 175.8 167.331 175.704C167.539 175.608 167.715 175.48 167.859 175.32C168.011 175.16 168.123 174.976 168.195 174.768C168.275 174.56 168.315 174.344 168.315 174.12ZM171.121 171.24H172.561V177H171.121V171.24ZM170.917 169.284C170.917 169.052 171.001 168.852 171.169 168.684C171.345 168.508 171.565 168.42 171.829 168.42C172.093 168.42 172.313 168.504 172.489 168.672C172.673 168.832 172.765 169.036 172.765 169.284C172.765 169.532 172.673 169.74 172.489 169.908C172.313 170.068 172.093 170.148 171.829 170.148C171.565 170.148 171.345 170.064 171.169 169.896C171.001 169.72 170.917 169.516 170.917 169.284ZM174.214 171.24H175.582V172.164H175.606C175.742 171.876 175.95 171.628 176.23 171.42C176.51 171.204 176.89 171.096 177.37 171.096C177.754 171.096 178.078 171.16 178.342 171.288C178.614 171.416 178.834 171.584 179.002 171.792C179.17 172 179.29 172.24 179.362 172.512C179.434 172.784 179.47 173.068 179.47 173.364V177H178.03V174.084C178.03 173.924 178.022 173.748 178.006 173.556C177.99 173.356 177.946 173.172 177.874 173.004C177.81 172.828 177.706 172.684 177.562 172.572C177.418 172.452 177.222 172.392 176.974 172.392C176.734 172.392 176.53 172.432 176.362 172.512C176.202 172.592 176.066 172.7 175.954 172.836C175.85 172.972 175.774 173.128 175.726 173.304C175.678 173.48 175.654 173.664 175.654 173.856V177H174.214V171.24ZM187.033 171.24V176.484C187.033 177.004 186.969 177.472 186.841 177.888C186.713 178.312 186.513 178.668 186.241 178.956C185.977 179.252 185.641 179.48 185.233 179.64C184.825 179.8 184.341 179.88 183.781 179.88C183.245 179.88 182.737 179.812 182.257 179.676C181.777 179.54 181.333 179.292 180.925 178.932L181.789 177.756C182.077 178.02 182.377 178.224 182.689 178.368C183.001 178.512 183.361 178.584 183.769 178.584C184.113 178.584 184.401 178.536 184.633 178.44C184.873 178.344 185.061 178.212 185.197 178.044C185.341 177.876 185.441 177.672 185.497 177.432C185.561 177.2 185.593 176.94 185.593 176.652V176.232H185.569C185.361 176.512 185.085 176.724 184.741 176.868C184.397 177.004 184.045 177.072 183.685 177.072C183.253 177.072 182.861 176.996 182.509 176.844C182.157 176.684 181.853 176.472 181.597 176.208C181.349 175.944 181.157 175.632 181.021 175.272C180.885 174.912 180.817 174.528 180.817 174.12C180.817 173.696 180.881 173.3 181.009 172.932C181.137 172.564 181.325 172.244 181.573 171.972C181.821 171.7 182.117 171.488 182.461 171.336C182.813 171.176 183.213 171.096 183.661 171.096C184.069 171.096 184.449 171.176 184.801 171.336C185.153 171.496 185.433 171.752 185.641 172.104H185.665V171.24H187.033ZM183.961 172.392C183.705 172.392 183.473 172.436 183.265 172.524C183.057 172.604 182.877 172.72 182.725 172.872C182.581 173.016 182.465 173.196 182.377 173.412C182.297 173.62 182.257 173.852 182.257 174.108C182.257 174.34 182.297 174.556 182.377 174.756C182.465 174.956 182.585 175.132 182.737 175.284C182.889 175.436 183.069 175.556 183.277 175.644C183.485 175.732 183.709 175.776 183.949 175.776C184.213 175.776 184.449 175.732 184.657 175.644C184.873 175.556 185.053 175.44 185.197 175.296C185.349 175.144 185.465 174.964 185.545 174.756C185.625 174.548 185.665 174.324 185.665 174.084C185.665 173.58 185.513 173.172 185.209 172.86C184.905 172.548 184.489 172.392 183.961 172.392Z" fill="#1A1B1D"/>
<path d="M64.7848 72.353C65.5421 73.7324 65.5556 75.3688 64.8253 76.7618C64.7036 76.9917 65.0552 77.1945 65.177 76.9646C65.9749 75.4364 65.9613 73.6513 65.1364 72.1501C65.0011 71.9067 64.663 72.123 64.7848 72.353Z" fill="#161616"/>
<path d="M65.2865 72.4204C65.7463 72.1905 66.2873 71.9065 66.8147 72.0282C67.5991 72.1905 67.6261 72.8261 67.6802 73.4752C67.7343 74.3408 67.6937 75.2604 67.1257 75.9636C66.9635 76.1665 67.2475 76.4505 67.4097 76.2477C68.1941 75.2875 68.2888 73.7863 67.9913 72.6097C67.6126 71.1897 66.0709 71.5819 65.0971 72.0687C64.8537 72.1769 65.0566 72.5286 65.2865 72.4204Z" fill="#161616"/>
<path d="M65.287 77.0464C66.0443 77.141 66.8016 76.8435 67.302 76.262C67.4643 76.0591 67.1803 75.7751 67.018 75.978C66.5853 76.4919 65.9632 76.7353 65.287 76.6542C65.03 76.6136 65.03 77.0193 65.287 77.0464Z" fill="#161616"/>
<path d="M65.1636 54.542C65.3394 54.2039 65.8262 53.2842 66.3672 54.1362C66.4619 54.2715 66.4619 54.6501 66.4889 54.7854C66.543 55.0694 66.6377 55.3669 66.8405 55.5833C67.5167 56.2865 67.9901 55.137 68.6933 55.5157C69.5859 55.989 68.4228 56.9898 69.1531 57.5443C69.3289 57.6795 69.5318 57.6795 69.7346 57.5984C69.8699 57.5443 69.9781 57.4226 70.1133 57.3549C70.6137 57.1385 70.7895 57.5848 70.8301 57.977C70.8436 58.0988 70.9112 58.1664 71.033 58.1799C71.1817 58.1934 71.317 58.2069 71.4657 58.2205C71.7227 58.2475 71.7227 57.8418 71.4657 57.8147C71.317 57.8012 71.1817 57.7877 71.033 57.7742C71.1006 57.8418 71.1682 57.9094 71.2358 57.977C71.1952 57.6119 71.1276 57.1385 70.7895 56.9222C70.4244 56.6787 70.1809 56.8951 69.8428 57.0574C69.6806 57.1385 69.5453 57.409 69.3154 57.0845C69.2343 56.9627 69.4101 56.5841 69.4371 56.4488C69.4912 56.2324 69.5183 56.0431 69.4506 55.8267C69.3425 55.4886 69.0449 55.2046 68.7068 55.0964C68.2876 54.9477 68.0847 55.1235 67.7061 55.2317C67.368 55.3263 67.0299 55.2993 66.9081 54.9341C66.8676 54.7989 66.8541 54.6366 66.8405 54.5014C66.8 54.285 66.7729 54.0551 66.6647 53.8522C66.1102 52.8379 65.15 53.6899 64.8119 54.3797C64.6902 54.569 65.0418 54.7719 65.1636 54.542Z" fill="#161616"/>
<path d="M67.7879 53.2836C68.1124 52.9726 68.4099 52.8374 68.7616 53.1349C69.0456 53.3783 68.9915 53.4595 69.0726 53.784C69.1267 53.9734 69.1808 54.1492 69.3431 54.2844C69.546 54.4602 69.7759 54.4602 70.0328 54.4332C70.2763 54.4061 70.5603 54.2438 70.7631 54.5008C70.8578 54.6225 70.8443 54.893 70.8443 55.0418C70.8578 55.4475 70.8578 55.9343 71.3176 56.0831C71.4528 56.1237 71.6016 56.0561 71.7233 56.0966C71.8856 56.029 71.9532 56.0696 71.9668 56.2454C72.0208 56.3536 72.0479 56.4618 72.0344 56.597C72.102 56.9081 72.2237 57.138 72.4671 57.3544C72.6565 57.5302 72.9405 57.2462 72.7511 57.0704C72.3454 56.6917 72.6294 56.1642 72.2913 55.8261C71.9397 55.4745 71.3852 55.9884 71.2635 55.3393C71.1688 54.8389 71.3582 54.1627 70.6955 53.9869C70.2222 53.8652 69.7218 54.3385 69.4648 53.6894C69.3566 53.4189 69.3972 53.1214 69.2079 52.8644C68.7616 52.2829 67.9366 52.5804 67.4903 52.9996C67.301 53.1754 67.5985 53.473 67.7879 53.2836Z" fill="#161616"/>
<path d="M117.61 78.4275C117.204 78.3869 117.812 77.589 117.934 77.5214C118.259 77.3456 118.637 77.4402 118.881 77.6972C119.408 78.2652 118.962 79.1037 118.245 79.1848C117.988 79.2119 117.988 79.6176 118.245 79.5905C118.84 79.5229 119.368 79.1307 119.503 78.5357C119.638 77.9541 119.287 77.332 118.746 77.1021C118.218 76.8858 117.637 77.0886 117.326 77.562C117.055 77.9677 116.987 78.7791 117.623 78.8332C117.866 78.8602 117.866 78.4545 117.61 78.4275Z" fill="#161616"/>
<path d="M114.88 77.5994C114.596 77.3425 114.934 76.8286 115.258 77.1126C115.596 77.3966 115.136 77.7888 114.825 77.5589C114.623 77.3966 114.42 77.7482 114.623 77.9105C114.907 78.1269 115.339 78.0593 115.596 77.8023C115.894 77.5048 115.826 77.045 115.515 76.788C115.204 76.5311 114.758 76.5446 114.514 76.8827C114.298 77.1802 114.325 77.613 114.596 77.8699C114.785 78.0593 115.082 77.7753 114.88 77.5994Z" fill="#161616"/>
<path d="M161.793 60.2191C161.928 62.7345 160.67 65.1553 158.547 66.5077C158.331 66.643 158.534 66.9946 158.75 66.8593C160.995 65.4393 162.334 62.8833 162.199 60.2191C162.185 59.9621 161.779 59.9621 161.793 60.2191Z" fill="#161616"/>
<path d="M162.063 60.5184C163.361 61.4651 162.834 63.1826 162.117 64.3051C161.441 65.3735 160.345 66.6448 158.939 66.4284C158.682 66.3878 158.574 66.78 158.831 66.8206C160.521 67.064 161.806 65.644 162.59 64.3187C163.375 63.0068 163.672 61.1946 162.266 60.1668C162.049 60.018 161.846 60.3697 162.063 60.5184Z" fill="#161616"/>
<path d="M48.2176 48.4837C49.0696 49.8902 49.5835 51.4454 49.7052 53.0818C49.7323 53.3388 50.138 53.3388 50.1109 53.0818C49.9757 51.3643 49.4618 49.7549 48.5692 48.2808C48.4204 48.0509 48.0688 48.2538 48.2176 48.4837Z" fill="#E8E8E8"/>
<path d="M49.868 48.0364C50.5713 49.3077 50.9635 50.6871 51.0581 52.1342C51.0716 52.3911 51.4774 52.3911 51.4638 52.1342C51.3692 50.6195 50.9499 49.1724 50.2196 47.8336C50.0979 47.6036 49.7463 47.8065 49.868 48.0364Z" fill="#E8E8E8"/>
<path d="M48.1098 51.0791C49.2864 50.3082 50.6118 49.9025 52.0318 49.8754C52.2887 49.8754 52.2887 49.4697 52.0318 49.4697C50.5577 49.4968 49.1512 49.9295 47.907 50.741C47.6906 50.8762 47.8934 51.2278 48.1098 51.0791Z" fill="#E8E8E8"/>
<path d="M48.0698 52.7289C49.5439 51.8363 51.1532 51.2683 52.8573 51.0113C53.1142 50.9708 53.006 50.5786 52.7491 50.6192C51.0045 50.8761 49.3681 51.4712 47.8669 52.3773C47.6505 52.5125 47.8534 52.8641 48.0698 52.7289Z" fill="#E8E8E8"/>
<path d="M127.482 59.3955C126.86 59.7065 126.616 60.5179 127.144 61.0454C127.428 61.3294 127.671 61.2482 128.009 61.3564C128.226 61.4241 128.469 61.5593 128.429 61.7757C128.402 61.9244 128.253 62.0462 128.172 62.1679C128.036 62.3437 127.874 62.5465 127.82 62.7629C127.766 63.0199 127.834 63.2768 128.036 63.4526C128.334 63.7096 128.726 63.5473 129.051 63.7096C129.727 64.0342 128.496 65.4542 129.538 65.7247C129.795 65.7923 129.903 65.4001 129.646 65.3325C129.213 65.2243 129.754 64.3993 129.795 64.1424C129.822 63.9125 129.781 63.6826 129.605 63.5203C129.145 63.074 127.793 63.5473 128.483 62.4113C128.699 62.0597 129.091 61.6269 128.834 61.1671C128.753 61.0183 128.618 60.9372 128.456 60.8966C128.293 60.8696 128.036 60.8966 127.874 60.8831C127.157 60.8425 127.076 60.0446 127.685 59.7336C127.915 59.6389 127.712 59.2873 127.482 59.3955Z" fill="#E8E8E8"/>
<path d="M130.484 61.6679C130.037 61.8437 130.024 62.3306 130.294 62.6958C130.47 62.9527 130.754 63.0068 130.984 63.1826C131.552 63.6019 131.052 63.9535 130.957 64.4403C130.795 65.2788 131.687 64.9948 131.944 65.5358C132.161 65.9821 132.079 66.4825 132.634 66.6853C132.877 66.78 132.986 66.3878 132.742 66.2931C132.35 66.1579 132.404 65.4141 132.188 65.1165C132.12 65.0083 132.025 64.9407 131.931 64.8596C131.877 64.819 131.795 64.8325 131.755 64.8055C131.66 64.792 131.593 64.7243 131.566 64.5891C131.376 64.4674 131.349 64.3457 131.511 64.2104C131.633 63.8318 131.877 63.6019 131.62 63.2097C131.525 63.0609 131.349 62.9527 131.2 62.858C131.079 62.7769 130.2 62.2359 130.605 62.0737C130.835 61.9655 130.727 61.5733 130.484 61.6679Z" fill="#E8E8E8"/>
<path d="M156.612 88.9741C155.625 88.2709 155.787 86.7967 156.856 86.2558C157.667 85.8501 158.776 86.2287 159.195 87.0267C159.615 87.8246 159.249 88.9471 158.451 89.3663C157.613 89.7991 156.572 89.4204 156.098 88.6495C155.963 88.4331 155.611 88.636 155.747 88.8524C156.355 89.8667 157.762 90.313 158.803 89.6368C159.79 88.9876 160.101 87.4865 159.371 86.5398C158.654 85.6202 157.221 85.4038 156.315 86.1476C155.26 86.9996 155.341 88.5549 156.423 89.3392C156.626 89.4745 156.829 89.1229 156.612 88.9741Z" fill="#E8E8E8"/>
<path d="M63.271 92.8688C63.4198 92.382 63.6361 92.2467 63.8931 92.4766C63.9607 92.5037 64.0283 92.5443 64.0824 92.5713C64.1771 92.5983 64.2988 92.6254 64.3935 92.6119C64.5963 92.5848 64.7586 92.4631 64.8533 92.3008C65.1914 91.7599 64.8127 91.2324 64.4746 90.8132C64.2988 90.6103 63.9742 90.3398 64.0148 90.0288C64.0689 89.4337 64.4205 89.6772 64.7181 89.6366C64.9344 89.6096 65.1238 89.5284 65.232 89.3256C65.3402 89.1497 65.3131 88.9198 65.2861 88.7305C65.2725 88.6223 65.232 88.5006 65.232 88.3924C65.1373 88.1084 65.2725 87.9326 65.6377 87.865C65.8135 87.9867 65.9623 88.1354 66.084 88.3248C66.2327 88.5412 66.5844 88.3383 66.4356 88.1219C66.0705 87.608 64.9885 86.9048 64.8127 87.9732C64.7316 88.5141 65.232 89.0821 64.4341 89.2174C64.0419 89.285 63.7714 89.285 63.6497 89.7448C63.5415 90.1235 63.6902 90.4886 63.9201 90.7861C64.0283 90.9214 64.1501 91.0431 64.2582 91.1648C64.3935 91.3 64.4882 91.4488 64.5558 91.6246C64.3935 91.7869 64.2447 91.9492 64.0824 92.1115C63.9607 92.1385 63.6497 91.8816 63.4739 91.8681C62.6895 91.814 62.2702 92.8688 63.0546 93.2069C63.3116 93.3151 63.5144 92.9635 63.271 92.8688Z" fill="#E8E8E8"/>
<path d="M66.5713 92.2869C66.3549 91.9353 66.0168 91.3943 66.1656 90.948C66.2737 90.6099 66.7336 90.4612 66.9364 90.1907C67.2475 89.7714 67.2069 89.217 66.9229 88.7977C66.8688 88.9059 66.8012 89.0006 66.7471 89.1088C67.5179 89.1629 68.1671 88.7031 68.397 87.9592C68.4782 87.7023 68.086 87.6076 68.0048 87.851C67.829 88.4191 67.3421 88.7436 66.7471 88.7031C66.5983 88.6895 66.4901 88.8789 66.5713 89.0141C66.7471 89.2711 66.8147 89.6362 66.6389 89.9202C66.4766 90.1636 66.2602 90.1772 66.0844 90.353C65.9221 90.5153 65.8139 90.6776 65.7734 90.921C65.6652 91.4755 65.9627 92.0299 66.2332 92.4898C66.3549 92.7197 66.7065 92.5168 66.5713 92.2869Z" fill="#E8E8E8"/>
<path d="M107.872 22.4077C108.589 23.2326 109.035 24.1928 109.225 25.2612C109.265 25.5182 109.657 25.41 109.617 25.153C109.414 24.017 108.914 22.9892 108.156 22.1101C107.98 21.9208 107.696 22.2048 107.872 22.4077Z" fill="#E8E8E8"/>
<path d="M108.223 22.449C108.683 22.0298 110.522 20.3799 111.198 20.8532C111.536 21.0966 111.834 21.6511 112.05 22.0163C112.321 22.4761 112.537 22.9629 112.713 23.4633C112.794 23.7068 113.186 23.5986 113.105 23.3551C112.875 22.7195 112.591 22.0974 112.226 21.5294C111.996 21.1643 111.644 20.5422 111.225 20.3664C110.752 20.1635 110.17 20.5827 109.778 20.8126C109.115 21.1913 108.507 21.6511 107.939 22.165C107.75 22.3408 108.034 22.6249 108.223 22.449Z" fill="#E8E8E8"/>
<path d="M109.657 25.5191C110.712 24.6266 111.861 23.8963 113.133 23.3418C113.376 23.2336 113.16 22.882 112.93 22.9902C111.632 23.5582 110.455 24.3155 109.373 25.2351C109.17 25.3974 109.454 25.6814 109.657 25.5191Z" fill="#E8E8E8"/>
<path d="M112.011 21.7048C112.525 21.272 113.674 20.1766 114.31 20.8934C114.77 21.4073 115.067 22.2457 115.338 22.8679C115.446 23.1113 115.797 22.8949 115.689 22.665C115.432 22.0835 115.162 21.529 114.837 20.988C114.675 20.704 114.472 20.2713 114.134 20.1495C113.742 20.0143 113.323 20.2983 113.011 20.4876C112.552 20.7581 112.132 21.0692 111.727 21.4073C111.524 21.5966 111.821 21.8806 112.011 21.7048Z" fill="#E8E8E8"/>
<path d="M111.009 24.1803C111.645 24.4643 112.186 24.8429 112.686 25.3298C112.781 25.4245 112.93 25.3974 113.011 25.2892C113.606 24.4372 114.39 23.7881 115.337 23.3418C115.58 23.2336 115.364 22.882 115.134 22.9902C114.12 23.4635 113.295 24.1667 112.659 25.0728C112.767 25.0593 112.876 25.0458 112.984 25.0323C112.47 24.5184 111.888 24.1262 111.226 23.8286C110.969 23.734 110.766 24.0721 111.009 24.1803Z" fill="#E8E8E8"/>
<path d="M113.958 39.2177C113.931 39.0689 113.89 38.9202 113.863 38.7714C113.985 38.6497 114.106 38.5415 114.255 38.4604C114.336 38.4063 114.431 38.3522 114.512 38.2846C114.674 38.1493 114.783 38.0141 114.864 37.8247C114.958 37.5813 114.931 37.3514 114.904 37.0944C114.891 37.0133 114.877 36.9186 114.864 36.8375C114.85 36.7428 114.904 35.6474 115.337 35.999C115.54 36.1613 115.824 35.8773 115.621 35.715C115.324 35.4716 115.012 35.5121 114.742 35.7691C114.282 36.2154 114.499 36.7428 114.526 37.2838C114.566 38.0952 113.511 38.1358 113.417 38.8796C113.376 39.2177 113.511 39.5288 113.863 39.5964C114.106 39.6505 114.215 39.2583 113.958 39.2177Z" fill="url(#paint0_linear_1_857)"/>
<path d="M115.446 38.0979C115.771 38.3549 116.23 38.1655 116.298 37.7463C116.366 37.3811 116.122 37.043 116.149 36.6779C116.19 36.1775 116.528 35.7447 116.988 35.5689C117.231 35.4743 117.123 35.0821 116.88 35.1767C116.433 35.339 116.082 35.6366 115.892 36.0828C115.798 36.2857 115.744 36.5156 115.744 36.7455C115.744 36.8537 115.757 36.9619 115.771 37.0566C115.771 37.0566 115.973 37.9897 115.744 37.8004C115.527 37.6516 115.243 37.9356 115.446 38.0979Z" fill="url(#paint1_linear_1_857)"/>
<path d="M80.5536 82.725C80.3102 82.5897 80.2832 82.2787 80.459 82.0758C80.6348 81.873 80.9594 81.7918 81.2163 81.8324C81.4327 81.873 81.6761 81.9812 81.7708 82.1975C81.879 82.441 81.7167 82.8602 81.3921 82.8196C81.1352 82.7791 81.027 83.1713 81.2839 83.2118C81.7438 83.2795 82.1495 82.9684 82.2171 82.4951C82.2982 81.9947 81.8925 81.589 81.4327 81.4672C80.9594 81.332 80.3643 81.4808 80.0803 81.9135C79.8234 82.3057 79.9315 82.8602 80.3643 83.0766C80.5807 83.1983 80.7836 82.8467 80.5536 82.725Z" fill="url(#paint2_linear_1_857)"/>
<path d="M59.187 34.8632C59.2681 34.5927 59.3493 34.3087 59.4169 34.0383C59.498 34.0653 59.5792 34.0924 59.6603 34.1194C59.7685 34.1329 59.8767 34.2005 59.9849 34.2276C60.1336 34.2682 60.3095 34.2817 60.4582 34.2411C60.8098 34.1194 60.918 33.7813 60.918 33.4432C60.918 33.1051 60.7963 32.74 61.0668 32.4695C61.2832 32.2531 61.6483 32.172 61.9323 32.2396C62.8655 32.456 62.7708 33.6325 62.3651 34.2682C62.2299 34.4846 62.5815 34.6874 62.7167 34.471C63.163 33.7543 63.2712 32.6723 62.5409 32.0908C61.9999 31.658 61.0803 31.7392 60.6611 32.3072C60.3771 32.6859 60.5664 33.024 60.4853 33.4567C60.35 34.1735 59.3357 33.5108 58.8759 33.6731C58.0104 33.9842 58.2673 35.0796 59.0382 35.2825C59.3222 35.323 59.4304 34.9308 59.187 34.8632Z" fill="url(#paint3_linear_1_857)"/>
<path d="M147.145 94.18C147.429 93.9636 147.74 93.9501 148.078 94.1259C148.227 94.2071 148.43 94.0718 148.376 93.896C148.254 93.6526 148.281 93.4362 148.484 93.2469C148.579 92.8276 148.795 92.8006 149.119 93.1522C149.214 93.3415 149.485 93.2334 149.498 93.044C149.498 92.8682 149.512 92.6789 149.539 92.5031C149.579 92.0703 149.863 91.9621 150.364 92.165C150.472 92.4084 150.81 92.192 150.715 91.9621C150.553 91.5834 150.12 91.4617 149.742 91.6105C149.174 91.8404 149.106 92.5166 149.092 93.044C149.214 93.0034 149.349 92.9764 149.471 92.9358C149.282 92.5301 148.795 92.3813 148.389 92.5842C147.875 92.8547 147.848 93.4903 147.983 93.9907C148.078 93.9096 148.186 93.8419 148.281 93.7608C147.821 93.5309 147.388 93.5444 146.942 93.8149C146.726 93.9636 146.929 94.3153 147.145 94.18Z" fill="url(#paint4_linear_1_857)"/>
<path d="M136.639 38.1494C135.909 38.3658 135.395 38.9879 135.3 39.7587C135.206 40.489 135.639 41.3951 136.45 41.4763C137.045 41.5304 137.64 40.8542 137.275 40.2997C136.883 39.6911 136.125 40.1374 135.814 40.5702C134.935 41.8279 135.72 44.2893 137.532 43.7077C138.032 43.5455 138.654 42.9369 138.37 42.3554C138.019 41.6386 137.234 42.4094 137.032 42.8152C136.612 43.6537 136.504 44.8573 137.37 45.4523C138.046 45.9122 138.979 45.6146 139.195 44.8167C139.249 44.6409 138.992 44.4516 138.857 44.6138C137.924 45.7904 138.641 47.4133 140.156 47.4674C140.413 47.4809 140.413 47.0752 140.156 47.0617C139.02 47.0211 138.424 45.804 139.141 44.9114C139.033 44.8438 138.911 44.7761 138.803 44.7085C138.6 45.4794 137.654 45.3577 137.288 44.7897C136.964 44.2622 137.072 43.5455 137.37 43.018C137.437 42.8828 137.802 42.2472 138.019 42.6529C138.127 42.8693 137.721 43.1803 137.586 43.2615C137.167 43.4914 136.612 43.4237 136.288 43.0721C135.95 42.7205 135.841 42.1795 135.882 41.7062C135.909 41.4492 135.963 41.1517 136.085 40.9353C136.139 40.8542 136.207 40.773 136.261 40.6919C136.599 40.3673 136.585 40.462 136.207 40.9894C135.936 41.0165 135.706 40.2727 135.693 40.0968C135.679 39.921 135.706 39.7452 135.747 39.5829C135.882 39.0826 136.247 38.7039 136.748 38.5551C137.004 38.474 136.896 38.0818 136.639 38.1494Z" fill="url(#paint5_linear_1_857)"/>
<path d="M63.8777 46.4134C63.7695 46.0888 63.8236 45.7777 64.067 45.5208C64.3375 45.2368 64.6621 45.2774 65.0002 45.3315C65.2436 45.372 65.4329 45.3991 65.6629 45.2638C65.8387 45.1556 65.9604 44.9528 66.0415 44.777C66.0956 44.6417 66.1362 44.5065 66.1632 44.3713C66.1768 44.2766 66.2038 44.1819 66.2173 44.1008C66.2444 43.7762 66.4743 43.641 66.8935 43.6951C66.88 43.9385 67.2181 43.952 67.2857 43.7492C67.3939 43.4381 67.5292 43.1135 67.8132 42.9242C68.2324 42.6402 68.8275 42.6943 68.9086 43.2758C68.9492 43.5328 69.3278 43.4246 69.3008 43.1676C69.2197 42.6131 68.6922 42.2615 68.1377 42.3427C67.4615 42.4373 67.0964 43.073 66.9071 43.6545C67.0423 43.668 67.1775 43.6951 67.2993 43.7086C67.3263 43.3029 66.9476 43.0459 66.5554 43.1C65.9198 43.1811 65.8928 43.8979 65.7575 44.3713C65.6629 44.7094 65.5817 44.9663 65.1084 44.9528C64.9731 44.9528 64.8108 44.8581 64.6621 44.8581C64.4051 44.8581 64.1482 44.9528 63.9453 45.1015C63.499 45.4396 63.3097 46.0077 63.4855 46.5351C63.5666 46.765 63.9588 46.6703 63.8777 46.4134Z" fill="#5B87E0"/>
<path d="M139.587 59.5321C140.558 59.5321 141.345 58.6905 141.345 57.6523C141.345 56.6141 140.558 55.7725 139.587 55.7725C138.616 55.7725 137.829 56.6141 137.829 57.6523C137.829 58.6905 138.616 59.5321 139.587 59.5321Z" fill="#5B87E0"/>
<path d="M44.4858 59.9514C45.1282 59.9514 45.6489 59.4368 45.6489 58.8019C45.6489 58.167 45.1282 57.6523 44.4858 57.6523C43.8435 57.6523 43.3228 58.167 43.3228 58.8019C43.3228 59.4368 43.8435 59.9514 44.4858 59.9514Z" fill="#5B87E0"/>
<path d="M61.7018 108.909C62.2395 108.909 62.6755 108.436 62.6755 107.854C62.6755 107.271 62.2395 106.799 61.7018 106.799C61.164 106.799 60.728 107.271 60.728 107.854C60.728 108.436 61.164 108.909 61.7018 108.909Z" fill="#5B87E0"/>
<path d="M137.544 61.8718C138.672 61.8718 139.586 61.006 139.586 59.9379C139.586 58.8698 138.672 58.004 137.544 58.004C136.416 58.004 135.502 58.8698 135.502 59.9379C135.502 61.006 136.416 61.8718 137.544 61.8718Z" fill="url(#paint6_linear_1_857)"/>
<path d="M97.1214 20.3261C97.6965 20.3261 98.1627 19.8054 98.1627 19.1631C98.1627 18.5207 97.6965 18 97.1214 18C96.5463 18 96.08 18.5207 96.08 19.1631C96.08 19.8054 96.5463 20.3261 97.1214 20.3261Z" fill="url(#paint7_linear_1_857)"/>
<path d="M154.273 82.32C155.08 82.32 155.734 81.5934 155.734 80.6971C155.734 79.8008 155.08 79.0742 154.273 79.0742C153.467 79.0742 152.813 79.8008 152.813 80.6971C152.813 81.5934 153.467 82.32 154.273 82.32Z" fill="url(#paint8_linear_1_857)"/>
<path d="M40.4016 73.9356C42.015 73.9356 43.3228 72.5975 43.3228 70.9468C43.3228 69.2961 42.015 67.958 40.4016 67.958C38.7883 67.958 37.4805 69.2961 37.4805 70.9468C37.4805 72.5975 38.7883 73.9356 40.4016 73.9356Z" fill="url(#paint9_linear_1_857)"/>
<path d="M60.7557 150.549C58.132 146.6 54.6158 142.299 55.0756 137.268C55.008 137.336 54.9404 137.403 54.8728 137.471C55.2785 137.457 55.6301 137.525 56.0088 137.687C56.1575 137.755 56.3739 137.647 56.3063 137.457C56.1711 137.079 55.9276 136.862 55.6572 136.578C55.1568 136.051 55.1162 135.51 55.1432 134.82C55.1838 133.725 54.9945 132.724 54.5347 131.723C54.4941 131.818 54.4535 131.926 54.413 132.021C54.7646 131.899 55.1162 131.777 55.4678 131.656C55.5625 131.615 55.6436 131.52 55.6031 131.412C54.7375 128.897 55.1703 126.07 55.3596 123.487C55.5625 120.728 55.833 117.983 56.1575 115.237C56.0493 115.292 55.9547 115.359 55.8465 115.413C57.6587 116.576 58.6324 118.564 59.3898 120.498C60.2553 122.703 60.9991 124.948 61.6212 127.233C62.9195 131.94 63.7039 136.795 63.9744 141.677C64.1232 144.395 64.1096 147.127 63.9338 149.845C63.9203 150.102 64.326 150.102 64.3395 149.845C64.9752 139.838 63.447 129.627 59.7414 120.295C58.9435 118.28 57.9157 116.265 56.0494 115.062C55.9006 114.967 55.7653 115.089 55.7383 115.237C55.4002 118.078 55.1297 120.918 54.9269 123.758C54.7375 126.314 54.3589 129.045 55.1973 131.52C55.2379 131.439 55.292 131.358 55.3326 131.277C54.981 131.399 54.6293 131.52 54.2777 131.642C54.1425 131.683 54.1019 131.818 54.156 131.94C54.4265 132.535 54.6293 133.157 54.697 133.819C54.7511 134.374 54.6699 134.915 54.7105 135.469C54.7375 135.848 54.8051 136.2 55.0351 136.524C55.3055 136.903 55.7383 137.146 55.9006 137.593C55.9953 137.511 56.1034 137.444 56.1981 137.363C55.7653 137.173 55.3326 137.079 54.8592 137.092C54.7375 137.092 54.6699 137.187 54.6564 137.295C54.1966 142.407 57.7398 146.775 60.4041 150.778C60.5528 150.968 60.9045 150.765 60.7557 150.549Z" fill="#E8E8E8"/>
<path d="M56.1711 116.185C59.2546 124.461 61.1074 133.184 61.6348 142.002C61.7836 144.49 61.8242 146.992 61.7701 149.494C61.7701 149.751 62.1758 149.751 62.1758 149.494C62.3786 140.677 61.2832 131.832 58.9165 123.325C58.2403 120.878 57.4424 118.457 56.5633 116.077C56.4822 115.833 56.09 115.941 56.1711 116.185Z" fill="#E8E8E8"/>
<path d="M55.0754 124.731C57.077 125.975 58.7134 127.692 59.8629 129.762C59.9846 129.991 60.3362 129.789 60.2145 129.559C59.0379 127.435 57.3474 125.664 55.2783 124.379C55.0619 124.244 54.859 124.595 55.0754 124.731Z" fill="#E8E8E8"/>
<path d="M55.4805 119.741C56.6165 120.593 57.5362 121.648 58.2529 122.865C58.3882 123.095 58.7398 122.892 58.6045 122.662C57.8472 121.377 56.8735 120.282 55.6834 119.389C55.4805 119.241 55.2777 119.592 55.4805 119.741Z" fill="#E8E8E8"/>
<path d="M61.4308 135.847C61.6742 134.17 62.1476 132.533 62.8508 130.992C62.959 130.762 62.6074 130.545 62.4992 130.789C61.7824 132.371 61.2955 134.021 61.0386 135.752C60.998 135.995 61.3902 136.104 61.4308 135.847Z" fill="#E8E8E8"/>
<path d="M62.404 128.164C63.6482 124.039 65.7985 120.306 67.9488 116.601C67.8271 116.587 67.7054 116.574 67.5837 116.547C68.6926 121.956 69.6123 127.393 70.3155 132.87C70.3831 132.802 70.4507 132.735 70.5184 132.667C70.045 132.64 69.5717 132.613 69.0983 132.586C68.9361 132.573 68.8143 132.829 68.9496 132.938C69.761 133.56 69.6799 134.642 69.5852 135.561C69.4635 136.778 69.3283 137.982 69.193 139.199C69.2742 139.132 69.3688 139.064 69.45 139.01C69.0848 138.929 68.7332 138.902 68.3545 138.902C68.2058 138.902 68.0976 139.078 68.1787 139.213C69.2201 140.998 67.5972 142.864 66.8399 144.406C66.0825 145.961 65.5956 147.638 65.3522 149.356C65.3116 149.613 65.7038 149.721 65.7444 149.464C66.0284 147.381 66.7046 145.407 67.746 143.581C68.5303 142.202 69.4365 140.565 68.5303 139.01C68.4763 139.118 68.4086 139.213 68.3545 139.321C68.6926 139.307 69.0172 139.335 69.3418 139.416C69.477 139.443 69.5852 139.362 69.5987 139.226C69.7475 137.833 69.9639 136.44 70.0315 135.047C70.0721 134.182 69.9504 133.249 69.2336 132.681C69.1795 132.802 69.1389 132.911 69.0848 133.032C69.5582 133.059 70.0315 133.086 70.5048 133.113C70.5995 133.113 70.7212 133.019 70.7077 132.911C69.9909 127.406 69.0713 121.916 67.9488 116.479C67.9082 116.303 67.6648 116.29 67.5837 116.425C65.4198 120.158 63.256 123.931 61.9983 128.083C61.9442 128.299 62.3364 128.407 62.404 128.164Z" fill="#E8E8E8"/>
<path d="M67.5718 117.048C66.2058 125.109 65.2727 133.25 64.7723 141.418C64.7588 141.675 65.1645 141.675 65.178 141.418C65.6649 133.291 66.598 125.19 67.9504 117.156C68.0045 116.899 67.6123 116.791 67.5718 117.048Z" fill="#E8E8E8"/>
<path d="M63.4734 125.232C64.0279 127.111 64.677 128.951 65.4073 130.763C65.502 131.006 65.8942 130.898 65.7995 130.655C65.0692 128.843 64.4336 126.99 63.8656 125.123C63.7844 124.866 63.3922 124.975 63.4734 125.232Z" fill="#E8E8E8"/>
<path d="M17.2485 133.21C21.8872 131.682 26.9722 130.681 31.8679 130.938C34.4104 131.074 36.8312 131.858 39.2384 132.588C41.5781 133.292 43.9177 134.022 46.2709 134.698C48.9216 135.455 51.5993 136.064 54.3447 136.253C54.6017 136.267 54.6017 135.861 54.3447 135.848C49.2867 135.523 44.4046 133.738 39.5901 132.277C37.3045 131.588 35.0325 130.817 32.6388 130.587C30.1774 130.357 27.6755 130.587 25.2411 130.925C22.4823 131.317 19.7639 131.953 17.1268 132.818C16.8969 132.899 17.0051 133.292 17.2485 133.21Z" fill="#E8E8E8"/>
<path d="M31.679 130.777C35.628 129.911 39.5905 129.046 43.4854 127.923C47.3127 126.814 51.0453 125.07 55.0349 124.583C55.2918 124.556 55.2918 124.15 55.0349 124.177C51.0994 124.664 47.4209 126.354 43.6342 127.463C39.6717 128.626 35.628 129.505 31.5843 130.398C31.3139 130.439 31.422 130.831 31.679 130.777Z" fill="#E8E8E8"/>
<path d="M60.8905 123.663C61.9724 123.596 63.0678 123.582 64.1497 123.623C64.4067 123.636 64.4067 123.231 64.1497 123.217C63.0543 123.177 61.9724 123.19 60.8905 123.258C60.6335 123.285 60.6335 123.69 60.8905 123.663Z" fill="#E8E8E8"/>
<path d="M22.4407 149.21C26.9847 148.561 31.4882 149.71 35.9511 150.413C38.0744 150.752 40.2111 150.954 42.3615 150.9C44.7687 150.833 47.176 150.589 49.5562 151.008C49.8132 151.049 49.9213 150.657 49.6644 150.616C47.3247 150.211 44.9851 150.413 42.6184 150.495C40.2382 150.576 37.8985 150.332 35.5589 149.954C31.1771 149.237 26.7819 148.195 22.3325 148.831C22.0755 148.858 22.1837 149.25 22.4407 149.21Z" fill="#E8E8E8"/>
<path d="M49.463 154.512C49.5171 154.092 51.1264 154.282 51.4104 154.282C51.762 154.282 53.0603 154.079 53.2362 154.457C53.2632 154.363 53.2903 154.268 53.3038 154.173C52.6411 154.62 51.9108 154.809 51.1129 154.755C50.8559 154.741 50.8559 155.147 51.1129 155.161C51.9784 155.215 52.7763 154.998 53.5066 154.525C53.6013 154.457 53.6284 154.349 53.5743 154.241C53.4525 153.984 53.2497 153.917 52.9792 153.876C52.3436 153.781 51.6403 153.862 51.0047 153.862C50.3961 153.862 49.1384 153.633 49.0437 154.498C49.0167 154.769 49.4359 154.769 49.463 154.512Z" fill="#E8E8E8"/>
<path d="M49.7606 147.816C49.5036 147.951 49.2331 147.911 48.9627 147.694C48.9491 147.803 48.9356 147.911 48.9221 148.019C49.2602 147.762 49.6524 147.6 50.0851 147.613C50.4368 147.627 50.7478 147.816 51.0994 147.83C51.424 147.843 51.7215 147.708 52.0461 147.667C52.56 147.586 53.0334 147.694 53.4932 147.951C53.7231 148.073 53.926 147.735 53.696 147.6C53.3579 147.41 53.0198 147.275 52.6276 147.248C52.0732 147.194 51.5593 147.492 51.0318 147.424C50.5991 147.37 50.2474 147.194 49.7876 147.235C49.3819 147.275 49.0303 147.437 48.7057 147.681C48.611 147.749 48.5569 147.911 48.6651 148.005C49.0303 148.303 49.4089 148.398 49.8552 148.235C50.1122 148.127 50.004 147.735 49.7606 147.816Z" fill="#E8E8E8"/>
<path d="M29.2582 153.55C29.9479 154.402 30.8675 153.604 31.6384 153.442C32.274 153.307 32.7744 153.686 33.3965 153.686C34.0592 153.686 34.776 153.375 35.3575 153.794C35.5739 153.943 35.7767 153.591 35.5603 153.442C35.2087 153.185 34.8301 153.145 34.3973 153.172C33.7481 153.226 33.2342 153.307 32.5851 153.104C32.1388 152.955 31.7601 152.955 31.3138 153.118C30.7729 153.32 30.002 153.861 29.5151 153.266C29.3799 153.063 29.0824 153.361 29.2582 153.55Z" fill="#E8E8E8"/>
<path d="M72.9403 150.846C73.8329 150.495 74.5497 150.603 75.4828 150.711C76.0643 150.779 76.4701 150.576 76.984 150.346C77.5249 150.102 77.8901 150.224 78.3769 150.495C78.5798 150.603 78.7691 150.698 78.999 150.738C79.6888 150.873 80.6219 150.414 81.2034 150.914C81.4063 151.09 81.6903 150.792 81.4875 150.63C80.9735 150.197 80.4191 150.292 79.7834 150.346C79.256 150.386 78.8503 150.292 78.404 150.035C78.1335 149.886 77.8766 149.751 77.5655 149.751C77.2815 149.751 77.0245 149.873 76.7676 149.981C76.159 150.251 75.7939 150.332 75.1177 150.224C74.3197 150.102 73.5895 150.143 72.8321 150.441C72.5887 150.549 72.6969 150.941 72.9403 150.846Z" fill="#E8E8E8"/>
<path d="M161.942 129.125C166.743 126.921 171.571 124.703 176.629 123.161C181.727 121.62 187.029 120.862 192.357 120.984C195.387 121.052 198.416 121.403 201.391 122.012C201.648 122.066 201.756 121.674 201.499 121.62C196.198 120.524 190.748 120.281 185.379 120.916C180.05 121.538 174.952 123.107 169.989 125.122C167.203 126.258 164.457 127.516 161.725 128.774C161.509 128.882 161.712 129.234 161.942 129.125Z" fill="#E8E8E8"/>
<path d="M183.917 129.573C187.082 128.424 190.328 127.531 193.641 126.936C195.345 126.625 197.049 126.409 198.78 126.246C200.024 126.138 202.337 125.611 203.229 126.801C203.378 127.004 203.743 126.801 203.581 126.598C202.81 125.57 201.471 125.665 200.308 125.732C198.469 125.841 196.616 126.043 194.791 126.327C191.044 126.909 187.366 127.883 183.809 129.181C183.566 129.276 183.674 129.668 183.917 129.573Z" fill="#E8E8E8"/>
<path d="M161.955 120.889C165.66 120.078 169.542 120.51 172.963 122.147C173.193 122.255 173.41 121.903 173.166 121.795C169.636 120.118 165.66 119.658 161.847 120.497C161.59 120.551 161.698 120.943 161.955 120.889Z" fill="#E8E8E8"/>
<path d="M170.219 139.498C170.8 138.809 171.72 139.593 172.329 139.837C172.829 140.039 173.221 139.985 173.708 139.769C174.492 139.417 175.128 139.728 175.913 139.701C176.724 139.674 177.387 138.903 178.13 139.58C178.32 139.755 178.617 139.471 178.414 139.296C177.928 138.863 177.4 138.782 176.792 138.998C176.481 139.12 176.251 139.269 175.899 139.296C175.629 139.309 175.358 139.241 175.088 139.214C174.763 139.174 174.438 139.12 174.127 139.174C173.613 139.269 173.208 139.674 172.64 139.525C172.234 139.417 171.896 139.133 171.504 138.971C170.949 138.755 170.314 138.714 169.908 139.201C169.759 139.417 170.043 139.701 170.219 139.498Z" fill="#E8E8E8"/>
<path d="M185.811 149.887C184.945 147.128 184.553 144.261 184.661 141.366C184.553 141.421 184.458 141.488 184.35 141.542C184.648 141.691 184.959 141.84 185.256 141.989C185.405 142.056 185.554 141.975 185.567 141.813C185.757 139.027 186.379 136.308 187.393 133.698C187.298 133.739 187.19 133.779 187.095 133.82C187.258 133.901 187.42 133.982 187.596 134.077C187.663 134.118 187.785 134.118 187.839 134.05C188.894 132.725 190.057 131.507 191.355 130.412C191.247 130.398 191.139 130.385 191.031 130.371C191.991 131.71 191.923 133.468 191.856 135.037C191.775 136.782 191.545 138.499 191.153 140.203C190.382 143.503 189.043 146.641 187.19 149.481C187.041 149.697 187.393 149.9 187.542 149.684C189.503 146.695 190.909 143.354 191.653 139.852C192.018 138.148 192.234 136.417 192.289 134.686C192.329 133.144 192.343 131.467 191.396 130.155C191.315 130.047 191.18 130.02 191.071 130.114C189.773 131.21 188.61 132.414 187.555 133.752C187.636 133.739 187.717 133.725 187.799 133.725C187.636 133.644 187.474 133.563 187.298 133.468C187.177 133.401 187.055 133.468 187.001 133.59C185.973 136.227 185.364 138.986 185.161 141.813C185.27 141.759 185.364 141.691 185.473 141.637C185.175 141.488 184.864 141.339 184.566 141.191C184.431 141.123 184.269 141.204 184.255 141.366C184.147 144.288 184.539 147.195 185.418 149.981C185.5 150.238 185.892 150.13 185.811 149.887Z" fill="#E8E8E8"/>
<path d="M191.829 139.635C192.749 137.661 193.83 135.767 195.048 133.969C194.966 133.996 194.899 134.036 194.818 134.063C195.602 134.266 196.035 133.549 196.441 133.008C197.184 132.008 198.118 131.21 199.213 130.601C199.118 130.561 199.01 130.52 198.915 130.479C200.146 134.32 199.362 138.296 197.063 141.569C195.981 143.111 194.737 144.585 193.465 145.978C192.194 147.344 190.801 148.575 189.124 149.427C188.894 149.548 189.097 149.9 189.327 149.778C191.031 148.913 192.465 147.655 193.749 146.262C195.102 144.788 196.427 143.233 197.55 141.583C199.808 138.269 200.538 134.226 199.308 130.385C199.267 130.263 199.132 130.195 199.01 130.263C198.28 130.669 197.604 131.156 196.995 131.751C196.725 132.021 196.468 132.319 196.224 132.63C195.927 133.008 195.534 133.833 194.926 133.685C194.831 133.658 194.75 133.698 194.696 133.779C193.479 135.578 192.397 137.471 191.477 139.446C191.369 139.662 191.721 139.879 191.829 139.635Z" fill="#E8E8E8"/>
<path d="M189.923 132.778C188.989 135.32 187.853 137.876 187.245 140.527C186.623 143.232 186.244 146.004 185.784 148.736C185.744 148.993 186.136 149.101 186.176 148.844C186.65 146.112 187.015 143.326 187.637 140.635C188.246 137.985 189.382 135.442 190.315 132.886C190.409 132.643 190.017 132.534 189.923 132.778Z" fill="#E8E8E8"/>
<path d="M197.049 134.793C195.548 137.2 194.047 139.607 192.546 142.001C191.18 144.192 189.706 146.342 188.759 148.75C188.665 148.993 189.057 149.101 189.151 148.858C190.125 146.41 191.653 144.206 193.046 141.974C194.493 139.648 195.954 137.322 197.401 134.982C197.536 134.766 197.185 134.563 197.049 134.793Z" fill="#E8E8E8"/>
<path d="M186.351 135.294C186.486 136.66 186.811 137.972 187.311 139.243C187.406 139.487 187.798 139.379 187.703 139.135C187.216 137.905 186.892 136.62 186.757 135.294C186.73 135.038 186.324 135.024 186.351 135.294Z" fill="#E8E8E8"/>
<path d="M187.461 141.797C189.016 140.458 190.45 138.998 191.775 137.429C191.937 137.226 191.653 136.942 191.491 137.145C190.166 138.714 188.732 140.174 187.177 141.513C186.974 141.689 187.272 141.973 187.461 141.797Z" fill="#E8E8E8"/>
<path d="M193.64 135.374C193.518 136.74 193.545 138.092 193.721 139.444C193.748 139.701 194.154 139.701 194.127 139.444C193.951 138.092 193.924 136.726 194.046 135.374C194.073 135.103 193.667 135.103 193.64 135.374Z" fill="#E8E8E8"/>
<path d="M34.3428 91.5015C32.3818 90.9605 30.9618 89.0536 30.9889 87.0115C31.0159 84.726 33.0716 82.2917 35.4653 82.3458C37.9807 82.4134 39.3331 85.4698 39.0897 87.6742C38.8057 90.2979 36.1956 91.9478 33.6937 91.2581C33.4367 91.1904 33.3285 91.5826 33.5855 91.6502C35.6005 92.2047 37.7779 91.4203 38.8598 89.6081C39.9417 87.7824 39.5766 85.3616 38.427 83.6441C37.264 81.913 35.0731 81.4802 33.2744 82.5216C31.5569 83.5359 30.3803 85.6321 30.6237 87.6336C30.8671 89.6081 32.3142 91.3527 34.2346 91.8802C34.4916 91.9613 34.5998 91.5691 34.3428 91.5015Z" fill="#E8E8E8"/>
<path d="M30.2579 101.768C30.6772 102.255 31.2316 102.579 31.8808 102.647C32.2189 102.687 32.557 102.647 32.8816 102.525C33.3955 102.349 33.8147 101.971 34.4098 102.079C35.1536 102.201 35.7081 102.715 36.4925 102.62C37.3445 102.525 38.0883 101.917 38.9809 101.984C39.7923 102.052 40.482 102.606 41.2799 102.769C41.9832 102.917 42.4295 102.66 43.0245 102.349C44.5527 101.538 46.2973 102.566 47.8931 102.025C48.1366 101.944 48.0284 101.551 47.785 101.633C46.3514 102.106 44.8503 101.322 43.4032 101.741C42.6053 101.971 42.1049 102.566 41.1988 102.336C40.5091 102.16 39.914 101.741 39.2108 101.619C38.5481 101.497 37.9666 101.727 37.358 101.957C37.0064 102.092 36.6277 102.241 36.2355 102.241C35.7486 102.241 35.3429 101.971 34.9101 101.808C34.288 101.578 33.8282 101.66 33.2332 101.93C32.2595 102.376 31.2722 102.363 30.5419 101.484C30.3796 101.281 30.0821 101.565 30.2579 101.768Z" fill="#E8E8E8"/>
<path d="M40.712 98.2366C41.7804 98.8316 43.0111 97.9526 44.0659 98.507C44.4852 98.7234 44.7557 99.075 45.2696 99.0074C45.6888 98.9533 46.0134 98.6288 46.338 98.3853C47.0682 97.8173 47.6633 97.9526 48.4612 98.2771C49.0563 98.5206 49.6243 98.6693 50.2599 98.6558C51.6934 98.6288 53.1135 98.0066 54.5335 98.48C54.7769 98.5611 54.8851 98.1689 54.6417 98.0878C53.4245 97.6821 52.2074 98.0337 50.9767 98.1825C50.2464 98.2771 49.5567 98.2636 48.8669 97.9931C48.2989 97.7767 47.7309 97.4522 47.0953 97.5333C46.6761 97.5874 46.365 97.8308 46.0404 98.0878C45.7699 98.3042 45.513 98.5747 45.1478 98.5747C44.7827 98.5882 44.5663 98.3042 44.2553 98.1419C43.2004 97.5604 41.9427 98.4529 40.9013 97.8714C40.6849 97.7497 40.4821 98.1013 40.712 98.2366Z" fill="#E8E8E8"/>
<path d="M160.71 89.7977C161.522 89.5813 162.103 89.5813 162.82 90.0547C163.172 90.2846 163.537 90.4604 163.956 90.5415C164.7 90.6768 165.471 90.501 166.187 90.3116C167.066 90.0682 167.959 89.7436 168.879 89.7436C169.852 89.7436 170.65 90.4198 171.638 90.3387C173.477 90.1764 174.626 88.3507 176.601 88.567C178.318 88.7564 180.022 89.8383 181.713 89.0133C181.943 88.9051 181.74 88.5535 181.51 88.6617C179.752 89.5137 177.845 88.0802 176.033 88.1478C175.208 88.1749 174.505 88.5265 173.801 88.9322C172.949 89.4461 172.016 90.1493 170.948 89.8924C170.461 89.7842 170.042 89.5137 169.555 89.4055C169.176 89.3244 168.798 89.3244 168.419 89.365C167.58 89.4461 166.782 89.7301 165.985 89.9465C165.051 90.1899 164.078 90.3657 163.199 89.8383C162.833 89.6084 162.509 89.3379 162.076 89.2568C161.576 89.1621 161.075 89.2973 160.602 89.4191C160.359 89.4731 160.453 89.8654 160.71 89.7977Z" fill="#E8E8E8"/>
<path d="M175.438 93.368C176.209 92.9217 177.102 92.8406 177.913 93.2193C178.4 93.4357 178.779 93.7197 179.333 93.6791C180.591 93.5844 181.456 92.4755 182.768 93.0705C183.16 93.2463 183.539 93.4357 183.985 93.368C184.54 93.2734 184.932 92.8271 185.432 92.6377C186.663 92.1644 188.056 92.8541 189.341 92.5701C189.598 92.516 189.49 92.1238 189.233 92.1779C187.961 92.4484 186.65 91.7993 185.392 92.2185C184.81 92.4078 184.364 92.9623 183.728 92.9623C183.093 92.9623 182.592 92.4484 181.93 92.4619C180.713 92.489 179.739 93.7061 178.495 93.1111C177.386 92.5701 176.331 92.4078 175.208 93.057C175.005 93.1381 175.208 93.4897 175.438 93.368Z" fill="#E8E8E8"/>
<path d="M164.903 113.572C165.768 113.302 166.377 113.518 167.161 113.856C167.594 114.032 168 114.073 168.459 113.991C169.027 113.87 169.541 113.599 170.096 113.451C170.934 113.234 171.408 113.694 172.138 113.978C173.22 114.397 174.099 113.626 175.1 113.383C176.371 113.072 177.534 113.978 178.819 113.789C179.076 113.748 178.967 113.356 178.711 113.396C177.466 113.586 176.344 112.693 175.086 112.977C174.491 113.112 173.977 113.437 173.396 113.613C172.544 113.87 172.057 113.41 171.313 113.112C170.299 112.72 169.406 113.369 168.432 113.586C167.729 113.748 167.256 113.396 166.62 113.18C166.012 112.977 165.389 113.004 164.794 113.194C164.537 113.261 164.646 113.653 164.903 113.572Z" fill="#E8E8E8"/>
<path opacity="0.22" d="M190.882 154.618C172.774 158.08 154.652 161.529 136.543 164.991C114.864 158.229 93.1989 151.467 71.52 144.705C100.421 144.813 129.321 144.908 158.209 145.016C169.109 148.221 179.996 151.427 190.882 154.618Z" fill="#666666"/>
<path opacity="0.19" d="M169.84 149.507C154.571 153.172 139.289 156.837 124.02 160.502C106.791 155.241 89.5479 149.98 72.3184 144.706C95.6878 142.745 119.071 140.784 142.44 138.823C151.569 142.394 160.697 145.95 169.84 149.507Z" fill="#666666"/>
<path d="M71.4521 103.812C71.655 117.295 71.8714 130.778 72.0742 144.275C89.1956 148.143 106.303 151.997 123.425 155.865C123.398 140.259 123.357 124.652 123.33 109.045C106.033 107.287 88.7358 105.543 71.4521 103.812Z" fill="white" stroke="#161616" stroke-width="0.6" stroke-miterlimit="10"/>
<path d="M161.116 100.254C161.049 115.13 160.981 130.007 160.914 144.883C148.458 148.548 135.989 152.199 123.533 155.864C123.493 140.082 123.452 124.313 123.412 108.531C135.975 105.785 148.553 103.026 161.116 100.254Z" fill="white" stroke="#161616" stroke-width="0.6" stroke-miterlimit="10"/>
<path d="M122.979 108.908C105.871 107.137 88.7764 105.365 71.6821 103.593C82.9476 100.726 94.213 97.8593 105.478 94.9922C123.898 96.7638 142.331 98.5355 160.751 100.321C148.16 103.174 135.569 106.041 122.979 108.908Z" fill="white" stroke="#161616" stroke-width="0.6" stroke-miterlimit="10"/>
<path d="M135.501 97.9004C131.106 97.6029 126.724 97.3053 122.329 97.0078C113.674 100.172 105.018 103.337 96.3766 106.502C96.2954 120.851 96.2143 135.199 96.1196 149.548C100.001 150.482 103.882 151.401 107.764 152.334C107.601 137.472 107.426 122.622 107.263 107.759C116.676 104.487 126.089 101.187 135.501 97.9004Z" fill="#161616" stroke="#161616" stroke-width="0.6" stroke-miterlimit="10"/>
<path d="M139.288 151.077C142.872 149.981 146.47 148.886 150.053 147.79C149.932 132.927 149.796 118.078 149.675 103.215C132.121 101.146 114.553 99.077 96.9989 97.0078C93.956 97.7652 90.9267 98.5225 87.8838 99.2934C105.059 101.958 122.235 104.608 139.424 107.272C139.383 121.878 139.342 136.471 139.288 151.077Z" fill="#161616" stroke="#161616" stroke-width="0.6" stroke-miterlimit="10"/>
<path d="M140.194 77.7496C141.439 78.2636 141.641 81.4823 140.965 83.9977C138.369 93.6403 121.558 97.5487 120.76 96.0746C120.422 95.439 123.316 94.2353 129.402 88.2037C136.11 81.5499 138.558 77.087 140.194 77.7496Z" fill="white" stroke="#161616" stroke-width="0.6" stroke-miterlimit="10"/>
<path d="M105.6 84.0934C105.924 85.6216 106.722 87.3933 111.848 92.316C115.283 95.6158 117.014 97.2657 117.501 96.9412C118.488 96.265 115.215 89.7599 112.105 85.1212C110.509 82.741 107.709 78.5892 106.289 79.1301C105.275 79.5088 105.194 82.1865 105.6 84.0934Z" fill="white" stroke="#161616" stroke-width="0.6" stroke-miterlimit="10"/>
<path d="M118.502 102.593C120.489 102.593 122.1 100.891 122.1 98.7924C122.1 96.6936 120.489 94.9922 118.502 94.9922C116.515 94.9922 114.905 96.6936 114.905 98.7924C114.905 100.891 116.515 102.593 118.502 102.593Z" fill="#161616" stroke="#161616" stroke-width="0.6" stroke-miterlimit="10"/>
<path d="M118.569 97.2514C120.611 95.2634 122.681 93.1537 124.75 90.9493C129.321 86.0806 133.392 81.2796 137.002 76.6274C137.787 76.5327 139.329 76.4381 139.978 77.3171C140.924 78.5748 139.423 81.0633 138.72 82.2398C135.136 88.2039 123.735 94.5466 118.569 97.2514Z" fill="#161616" stroke="#161616" stroke-width="0.6" stroke-miterlimit="10"/>
<path d="M106.425 78.9271C106.925 78.4673 108.481 79.4005 109.4 79.9549C117.028 84.5396 117.961 95.3858 118.11 97.3603C111.889 89.327 105.167 80.1037 106.425 78.9271Z" fill="#161616" stroke="#161616" stroke-width="0.6" stroke-miterlimit="10"/>
<path d="M74.2782 111.115C80.4451 111.223 86.6391 111.196 92.7925 111.48C99.0135 111.764 105.18 112.629 111.32 113.698C114.782 114.306 118.245 114.969 121.707 115.645C121.964 115.699 122.072 115.307 121.815 115.253C115.756 114.076 109.684 112.913 103.558 112.088C97.3636 111.263 91.1696 110.993 84.9215 110.885C81.3782 110.831 77.8214 110.763 74.2782 110.709C74.0212 110.709 74.0212 111.115 74.2782 111.115Z" fill="#161616"/>
<path d="M126.82 115.442C137.179 112.331 147.741 109.911 158.439 108.207C158.696 108.166 158.587 107.774 158.33 107.814C147.647 109.518 137.084 111.939 126.711 115.05C126.468 115.117 126.576 115.51 126.82 115.442Z" fill="#161616"/>
<path d="M108.209 134.064C108.209 138.162 108.209 142.246 108.209 146.344C108.209 146.601 108.615 146.601 108.615 146.344C108.615 142.246 108.615 138.162 108.615 134.064C108.615 133.807 108.209 133.807 108.209 134.064Z" fill="#161616"/>
<path d="M109.549 143.894C109.549 145.936 109.549 147.992 109.549 150.034C109.549 150.291 109.955 150.291 109.955 150.034C109.955 147.992 109.955 145.936 109.955 143.894C109.955 143.624 109.549 143.624 109.549 143.894Z" fill="#161616"/>
<path d="M137.544 123.637C137.544 126.91 137.544 130.183 137.544 133.455C137.544 133.712 137.95 133.712 137.95 133.455C137.95 130.183 137.95 126.91 137.95 123.637C137.95 123.38 137.544 123.38 137.544 123.637Z" fill="#161616"/>
<path d="M138.273 137.255C138.273 139.46 138.273 141.678 138.273 143.882C138.273 144.139 138.679 144.139 138.679 143.882C138.679 141.678 138.679 139.46 138.679 137.255C138.679 136.998 138.273 136.998 138.273 137.255Z" fill="#161616"/>
<path d="M88.8438 123.108C88.8438 124.879 88.8438 126.651 88.8438 128.423C88.8438 128.68 89.2495 128.68 89.2495 128.423C89.2495 126.651 89.2495 124.879 89.2495 123.108C89.2495 122.851 88.8438 122.851 88.8438 123.108Z" fill="#161616"/>
<path d="M87.6943 129.859C87.6943 131.292 87.6943 132.726 87.6943 134.159C87.6943 134.416 88.1001 134.416 88.1001 134.159C88.1001 132.726 88.1001 131.292 88.1001 129.859C88.1001 129.602 87.6943 129.602 87.6943 129.859Z" fill="#161616"/>
<path opacity="0.21" d="M160.251 144.828C148.025 148.547 135.799 152.28 123.574 155.999C123.574 140.474 123.574 124.948 123.574 109.422C135.867 106.61 148.16 103.797 160.454 100.997C160.399 115.603 160.332 130.209 160.251 144.828Z" fill="#666666"/>
<path opacity="0.21" d="M161.062 145.005C148.607 148.413 136.165 151.821 123.709 155.229C123.628 141.637 123.547 128.059 123.452 114.468C128.956 119.512 134.474 124.557 139.978 129.615C146.957 127.302 153.949 124.989 160.927 122.677C160.981 130.115 161.022 137.567 161.062 145.005Z" fill="#666666"/>
<path opacity="0.14" d="M140.803 78.4522C140.14 78.3169 139.437 82.8745 137.125 86.6206C135.028 90.0151 130.849 93.9912 121.64 96.2903C122.83 96.1821 124.642 95.9386 126.765 95.3165C128.97 94.6809 138.274 91.9761 140.722 84.7137C141.723 81.7114 141.344 78.5604 140.803 78.4522Z" fill="#666666"/>
<path opacity="0.2" d="M107.412 107.422C111.321 110.073 115.242 112.723 119.151 115.374C115.554 114.752 111.97 114.143 108.372 113.521C108.521 120.743 109.116 128.844 110.496 137.634C111.402 143.409 112.524 148.778 113.768 153.701C111.861 153.173 109.941 152.646 108.034 152.105C107.831 137.215 107.628 122.312 107.412 107.422Z" fill="#666666"/>
<path opacity="0.13" d="M108.359 107.543C114.107 106.718 119.868 105.893 125.615 105.068C123.086 104.73 120.557 104.392 118.029 104.067C116.284 104.717 114.85 105.163 113.85 105.46C112.822 105.758 112.051 105.947 110.901 106.393C109.806 106.813 108.927 107.246 108.359 107.543Z" fill="#666666"/>
<path d="M86.3153 33.9311C86.3694 35.0266 86.464 36.6224 86.6398 38.5293C87.0726 43.2762 87.3296 47.3739 88.425 50.6197C89.25 53.0675 91.1974 57.6521 96.066 62.2638C95.782 63.197 95.3222 64.3736 94.5514 65.6448C93.6047 67.2001 92.5228 68.309 91.7113 69.0258C87.7082 65.1174 85.612 61.2225 84.5031 58.707C81.7847 52.513 81.7171 46.8736 81.663 42.6947C81.6225 39.3001 81.9065 36.4466 82.204 34.4045C81.7171 33.9446 80.9733 33.2279 80.0402 32.3759C78.3361 30.8341 77.687 30.3338 77.7952 30.1174C77.8898 29.928 78.5931 29.9416 81.5143 30.9829C78.9988 27.7507 77.8763 26.0196 78.1468 25.7627C78.3902 25.5327 79.7426 26.5065 82.2175 28.6838C80.3782 24.1127 80.0807 22.7468 80.3242 22.6251C80.5676 22.5034 81.5143 23.5988 84.165 27.9941C83.7457 24.4508 83.881 23.6529 84.0973 23.5988C84.476 23.5177 85.3145 25.7221 85.5579 26.3848C86.1259 27.8994 86.437 29.1977 86.5993 30.0768C88.8848 28.2781 89.3446 28.4404 89.4528 28.5486C89.845 28.9002 88.8037 30.6854 88.5467 31.1317C87.8029 32.43 86.9509 33.3496 86.3153 33.9311Z" fill="white" stroke="#161616" stroke-width="0.6" stroke-miterlimit="10"/>
<path opacity="0.15" d="M80.4459 22.8418C80.216 22.9635 81.068 25.2355 82.177 27.1695C82.488 27.6969 82.6773 27.9539 84.3137 30.4152C84.9764 31.416 85.5174 32.2274 85.8825 32.7684C85.4092 34.7158 84.8953 37.3936 84.76 40.6123C84.6654 42.8573 84.5166 47.3066 86.0854 52.6351C87.7894 58.4233 90.7512 62.6022 92.915 65.1312C93.9563 64.1981 94.9977 63.2649 96.039 62.3318C91.5626 58.0311 89.5881 53.717 88.682 51.2692C87.3972 47.78 87.0456 44.426 86.7345 41.5049C86.3964 38.462 86.3559 35.8924 86.3829 34.0126C87.0726 33.4716 88.1005 32.525 88.8578 31.0508C89.0201 30.7263 89.9127 29.0087 89.4664 28.6301C88.993 28.2243 87.2755 29.5226 86.5587 30.0771C84.9764 24.8433 84.3408 23.6668 84.0838 23.7209C83.9351 23.7479 83.8945 24.1807 83.8404 24.8704C83.7322 26.2769 83.9757 27.4264 84.2056 28.1432C84.192 28.1702 84.192 28.1702 80.4459 22.8418Z" fill="#666666"/>
<path opacity="0.2" d="M89.1013 29.8613C88.5468 30.1183 87.3702 30.7539 86.4371 32.1063C85.585 33.337 85.3551 34.5271 85.2875 35.1357C85.0982 37.029 85.0576 39.1929 85.301 41.5325C86.1531 49.8633 90.0615 55.9761 92.5905 59.2354C90.8459 56.3548 88.6009 51.9324 87.3161 46.1577C86.2071 41.2079 86.1666 36.9073 86.3694 33.8103C86.8969 33.2558 87.4919 32.5526 88.0599 31.6871C88.4927 31.0379 88.8308 30.4158 89.1013 29.8613Z" fill="#666666"/>
<path d="M109.373 61.5737C108.44 62.0065 107.656 62.304 107.196 63.156C106.29 64.8195 107.493 67.0374 107.791 67.5919C108.548 68.9984 109.63 69.8639 110.455 70.3778C113.079 69.2418 117.001 67.078 120.476 63.0884C124.966 57.9358 126.265 52.4721 126.941 49.5374C127.847 45.5343 127.887 42.1127 127.766 39.7866C128.428 38.6371 129.389 37.0142 130.619 35.0668C131.701 33.3357 132.296 32.4296 132.066 32.1862C131.891 32.0103 131.214 32.1591 128.821 33.8766C129.686 30.5092 129.97 28.7646 129.659 28.6429C129.362 28.5347 128.523 29.9006 127.144 32.7542C127.346 28.8593 127.252 26.8848 126.86 26.8307C126.454 26.763 125.71 28.8863 124.628 33.1734C123.993 30.2117 123.533 28.7511 123.235 28.7781C122.884 28.8187 122.775 30.9149 122.884 35.0532C120.841 33.9307 119.678 33.525 119.394 33.8631C119.002 34.3365 120.314 36.2028 123.33 39.4891C123.397 40.7603 123.384 42.7889 122.897 45.1827C122.654 46.3863 120.923 54.8523 115.026 58.2062C113.119 59.3017 111.348 60.6541 109.373 61.5737Z" fill="white" stroke="#161616" stroke-width="0.6" stroke-miterlimit="10"/>
<path opacity="0.16" d="M129.659 28.6149C129.442 28.5473 129.077 29.7915 127.59 31.9283C127.238 32.4422 127.076 32.6315 126.941 33.0373C126.575 34.2138 127.225 34.9577 127.198 35.9449C127.17 36.6482 126.805 37.6354 125.128 38.8255C125.412 39.8398 125.723 41.2869 125.818 43.0315C126.183 49.9963 122.532 55.0948 121.26 57.2181C120.057 59.2332 116.459 64.4534 107.709 67.6586C107.777 67.9967 108.021 68.9298 108.859 69.6737C109.373 70.1335 109.914 70.3363 110.238 70.4175C112.051 69.6737 114.566 68.4024 117.163 66.2656C121.26 62.8846 123.249 59.1926 124.195 57.3804C128.022 50.1045 128.022 43.0044 127.766 39.4611C128.536 38.244 129.213 37.1756 129.74 36.3371C131.633 33.3348 132.228 32.3746 131.998 32.1447C131.877 32.023 131.471 32.0771 130.159 32.9696C129.713 33.2401 129.267 33.5241 128.82 33.7946C129.781 29.7509 129.848 28.669 129.659 28.6149Z" fill="#666666"/>
<path opacity="0.28" d="M130.213 35.5674C127.103 37.4743 126.372 39.0971 126.305 40.2602C126.278 40.72 126.359 40.8417 126.454 41.9372C126.454 41.9372 126.372 43.9387 126.4 46.4406C126.44 50.011 124.966 53.2432 123.167 57.1651C122.221 59.2208 120.814 61.9256 118.731 64.8873C120.233 63.3997 121.842 61.4928 123.289 59.1261C127.914 51.4851 127.914 43.6953 127.644 39.9491C128.496 38.475 129.348 37.0144 130.213 35.5674Z" fill="#666666"/>
<path opacity="0.11" d="M119.354 34.093C122.37 35.6347 123.222 35.8917 123.317 35.7564C123.398 35.6212 122.897 35.0938 122.437 34.7962C122.248 34.6745 121.991 34.5528 121.477 34.3364C120.558 33.9442 120.314 33.9172 120.138 33.9172C119.787 33.9036 119.516 34.0118 119.354 34.093Z" fill="#666666"/>
<path d="M79.1336 119.349C79.0254 120.026 79.6475 120.824 80.8646 122.433C81.5138 123.285 82.1089 123.934 82.5011 124.353C81.8925 125.449 80.8241 127.802 81.3515 130.615C81.5138 131.521 81.7978 133.022 82.6092 133.211C84.0157 133.55 86.1119 129.722 86.9369 127.91C87.8701 125.868 88.2758 124.015 88.4786 122.703C87.0722 120.81 85.6521 118.917 84.2456 117.023C81.4462 117.267 79.3094 118.159 79.1336 119.349Z" fill="#161616" stroke="#161616" stroke-width="0.6" stroke-miterlimit="10"/>
<path d="M93.4975 100.755L93.4975 100.755C92.8431 101.233 92.1916 101.398 91.259 101.561C91.1058 101.588 90.9455 101.614 90.7771 101.642C89.9201 101.784 88.8533 101.961 87.4493 102.367L87.4483 102.367C84.5122 103.227 82.259 104.456 80.7703 105.412L80.6357 105.499L80.6579 105.657C80.8496 107.027 81.2467 108.78 82.0406 110.682L82.0407 110.682C83.2595 113.597 84.9395 115.678 86.1754 116.963C85.8412 117.62 84.8435 119.291 82.7555 120.174L82.7542 120.175C80.9676 120.942 79.3492 120.702 78.6848 120.566C76.5379 118.57 73.2873 114.905 71.815 109.533C71.2065 107.301 70.4851 104.488 71.5536 101.349C72.2229 99.3933 73.2507 98.2949 75.4069 96.0167L75.407 96.0166C76.0998 95.2839 79.1485 92.1263 84.5526 89.2495C86.1476 88.4011 87.3266 87.7756 88.3441 87.4077C89.3509 87.0437 90.1816 86.939 91.0777 87.123C93.3578 87.6205 94.8022 89.5192 95.4464 90.5358C96.3209 97.1905 94.9342 99.7056 93.4975 100.755Z" fill="white" stroke="black" stroke-width="0.5"/>
<path opacity="0.21" d="M92.5227 90.0429C90.3318 91.3682 87.2889 93.3021 83.7727 95.8311C77.6869 100.213 74.901 102.553 73.9002 104.987C72.9265 107.354 73.6162 111.681 82.4068 120.269C82.8801 120.174 83.6239 119.944 84.3677 119.43C85.5714 118.605 86.1259 117.497 86.3287 116.996C85.3415 115.982 84.1649 114.548 83.11 112.655C81.6089 109.95 81.0138 107.421 80.7568 105.704C83.5157 103.77 85.9365 102.972 87.6946 102.607C90.3183 102.052 92.4415 102.269 94.0644 100.592C94.8894 99.7396 95.214 98.7658 95.5115 97.8732C96.35 95.3713 96.0389 93.1534 95.782 92.0039C94.7 91.3682 93.6046 90.7056 92.5227 90.0429Z" fill="#666666"/>
<path opacity="0.16" d="M91.7109 91.9492C91.4269 93.1934 90.9671 94.5864 90.2773 96.047C87.8701 101.078 83.9075 103.864 81.7031 105.162C83.4748 103.986 85.0436 103.363 86.1525 103.012C86.5312 102.89 86.9234 102.782 91.0752 101.7C92.9686 101.2 93.5096 101.064 94.0776 100.523C94.4157 100.199 94.9701 99.5362 95.4029 97.1289C95.6193 95.8982 95.8357 94.0995 95.6869 91.8681C94.348 91.8951 93.0227 91.9222 91.7109 91.9492Z" fill="#666666"/>
<path opacity="0.17" d="M80.7704 105.325C80.4053 107.043 79.9725 110.342 81.1085 114.197C81.8253 116.631 82.9478 118.47 83.8133 119.674C84.219 119.444 84.787 119.052 85.3415 118.43C85.8149 117.889 86.1124 117.361 86.3017 116.956C85.3145 115.941 84.1244 114.508 83.083 112.601C81.5142 109.734 80.9733 107.056 80.7704 105.325Z" fill="#666666"/>
<path d="M88.5601 118.672C89.4526 119.93 90.3587 121.174 91.2513 122.432C90.7645 123.717 89.5338 127.517 91.346 130.519C91.657 131.033 92.2115 131.953 92.9824 131.966C94.6188 131.993 95.8224 127.936 96.0659 127.152C96.4716 125.813 96.8908 123.744 96.6474 121.08C96.0388 117.171 93.1988 115.061 91.2513 115.494C89.4662 115.886 88.6547 118.402 88.5601 118.672Z" fill="#161616" stroke="#161616" stroke-width="0.6" stroke-miterlimit="10"/>
<path d="M105.289 90.0016C106.439 97.2505 104.099 99.7659 103.247 100.51C102.449 101.199 101.678 101.47 97.364 102.903C95.7546 103.444 93.3879 104.229 90.4938 105.175C90.6831 106.528 91.0753 108.259 91.8597 110.139C93.1039 113.114 94.835 115.21 96.0657 116.468C95.8222 116.982 94.8079 118.956 92.4412 119.957C90.5208 120.782 88.7898 120.485 88.1542 120.349C85.9903 118.348 82.6634 114.629 81.1623 109.152C80.5537 106.92 79.8099 104.039 80.9053 100.821C81.595 98.8057 82.6634 97.6697 84.8137 95.3977C85.517 94.6539 88.5869 91.4757 94.0236 88.5816C97.2017 86.8911 98.811 86.0391 100.718 86.4313C103.166 86.9452 104.653 88.9873 105.289 90.0016Z" fill="white"/>
<path opacity="0.21" d="M96.3908 89.7041C95.958 91.043 95.106 93.2068 93.4831 95.4924C89.453 101.145 84.9089 101.483 83.6106 104.648C82.6369 107.015 83.3266 111.342 92.1172 119.93C92.6446 119.714 93.3208 119.389 94.0241 118.862C95.0384 118.104 95.674 117.252 96.0527 116.657C95.0519 115.616 93.8888 114.182 92.834 112.316C91.2787 109.544 90.6296 106.961 90.332 105.176C93.402 104.134 95.8769 103.363 97.5268 102.849C100.827 101.849 102.517 101.416 103.829 99.7524C104.64 98.7111 104.978 97.6156 105.195 96.8988C105.871 94.6944 105.682 92.774 105.492 91.6651C102.463 91.0294 99.4337 90.3668 96.3908 89.7041Z" fill="#666666"/>
<path opacity="0.16" d="M101.421 91.5969C101.137 92.8546 100.691 94.2476 99.9875 95.6947C97.2015 101.388 92.2382 104.174 89.9121 105.27C92.2653 104.526 94.3885 103.85 96.2413 103.255C96.2413 103.255 97.2015 102.944 99.5547 102.105C102.557 101.023 103.071 100.753 103.585 100.239C104.491 99.3191 104.734 98.2913 105.1 96.7901C105.37 95.6406 105.668 93.8284 105.384 91.5293C104.072 91.5563 102.746 91.5834 101.421 91.5969Z" fill="#666666"/>
<path opacity="0.17" d="M90.4799 104.986C90.1147 106.704 89.682 110.004 90.818 113.858C91.5348 116.292 92.6572 118.132 93.5228 119.335C93.9285 119.105 94.4965 118.713 95.051 118.091C95.5243 117.55 95.8218 117.023 96.0112 116.617C95.0239 115.603 93.8338 114.169 92.7925 112.262C91.2237 109.395 90.6827 106.717 90.4799 104.986Z" fill="#666666"/>
<path d="M95.7143 61.3702C93.0907 63.3176 91.8465 66.3064 91.5625 67.0096C91.3866 67.4289 90.8863 68.7542 90.6564 70.58C90.3859 72.6627 90.6023 74.4072 90.8186 75.5568C90.9133 77.1661 90.8592 79.8304 89.7367 82.8597C88.9388 85.0371 87.8569 86.66 87.0049 87.7554C88.7359 89.0807 91.9952 91.2311 96.6339 92.2318C100.353 93.0433 103.518 92.7998 105.506 92.4753C106.669 89.1889 107.805 85.4428 108.738 81.2774C109.617 77.3555 110.198 73.704 110.564 70.4042C109.982 70.1202 108.278 69.2276 107.413 67.2531C107.358 67.1314 106.114 64.1967 107.494 62.4385C108.319 61.3972 109.482 61.5189 109.482 61.1943C109.482 60.3288 101.232 57.2859 95.7143 61.3702Z" fill="url(#paint10_linear_1_857)" stroke="#161616" stroke-width="0.6" stroke-miterlimit="10"/>
<path opacity="0.13" d="M99.325 59.9504C99.0545 60.4373 98.9598 61.7356 98.9598 62.4659C98.9598 63.2367 99.041 63.8859 99.1357 64.3457C99.1357 65.5493 100.434 71.4999 99.5278 77.1529C98.4865 83.6444 94.9838 88.6483 93.2798 90.8256C94.6457 91.4612 96.6878 92.2186 99.2709 92.5567C101.84 92.8813 103.991 92.6649 105.478 92.4079C106.452 89.622 107.372 86.5521 108.183 83.2116C109.292 78.6405 109.982 74.3805 110.401 70.5803C109.698 70.1204 107.48 68.5517 106.939 65.8333C106.79 65.049 106.52 63.7236 107.318 62.5335C108.034 61.4516 109.184 61.1135 109.59 61.0188C104.315 59.0443 100.055 58.6251 99.325 59.9504Z" fill="#666666"/>
<path opacity="0.17" d="M106.966 66.7393C107.142 69.106 107.101 72.0271 106.452 75.2864C104.762 83.8471 99.9472 89.5677 97.3506 92.2184C98.4325 92.5024 99.8796 92.7729 101.597 92.7729C103.139 92.7864 104.451 92.5835 105.465 92.3536C107.345 87.3498 109.008 81.5209 109.941 74.9483C110.158 73.4336 110.334 71.9595 110.455 70.5124C109.86 70.1608 109.049 69.5793 108.264 68.6867C107.656 67.9835 107.237 67.2937 106.966 66.7393Z" fill="#666666"/>
<path opacity="0.14" d="M97.7432 61.8968C98.4194 63.168 99.7177 63.966 101.111 63.993C103.302 64.0471 105.073 62.1673 104.816 61.5046C104.64 61.0448 103.302 60.7743 97.7432 61.8968Z" fill="#666666"/>
<path d="M96.2734 41.4359C96.2537 41.4594 95.5989 42.1353 94.2996 43.5037C92.7962 45.0774 92.1745 45.733 91.4762 46.7089C90.9878 47.3964 90.6379 47.976 90.4158 48.3744C90.9448 48.7548 91.4738 49.1353 92.0028 49.5157C91.85 50.862 91.9971 51.9554 92.1537 52.656C92.4043 53.7883 92.7564 55.4387 94.1834 56.5418C94.3978 56.7059 95.0441 57.1849 96.0303 57.4207C97.2565 57.7139 98.2776 57.4501 98.7349 57.3054C98.6936 57.8317 98.7004 58.5106 98.8378 59.2913C98.9474 59.9524 99.1257 60.503 99.3029 60.9405C100.671 60.7595 102.038 60.5786 103.396 60.3811C103.174 59.7777 102.918 58.8418 102.9 57.6804C102.896 57.2844 102.906 56.2992 103.302 54.9969C103.782 53.4042 104.436 52.6717 105.293 51.2681C106.62 49.0739 107.405 47.7942 107.546 46.2617C107.726 44.2728 106.816 41.7131 104.795 40.3833C101.901 38.4637 98.07 39.9323 96.2734 41.4359Z" fill="white"/>
<path d="M93.6901 42.4552C92.9404 41.9373 93.1431 40.2644 93.5615 39.2215C93.701 38.8739 94.1562 37.8539 95.3844 37.0188C97.0516 35.8794 98.4478 36.2273 100.681 35.8441C101.915 35.6313 103.722 35.1461 105.83 33.8723C105.395 34.5725 104.963 35.2594 104.515 35.9564C104.895 36.0755 105.845 36.345 106.978 36.0234C108.381 35.639 109.128 34.6326 109.338 34.3441C109.472 34.7288 110.004 36.3939 109.141 37.9374C108.896 38.3727 108.594 38.6954 108.324 38.9413C109.061 38.9201 110.121 38.7924 111.142 38.1758C112.262 37.4982 112.576 36.7127 112.94 36.842C113.644 37.0808 113.208 40.0808 112.969 41.7309C112.807 42.8209 112.774 43.6034 112.281 44.4307C111.83 45.1977 111.2 45.7103 111.244 45.7631C111.324 45.8388 113.2 43.945 113.532 44.2077C113.733 44.3687 113.129 45.1273 112.596 46.7072C111.95 48.6412 112.261 49.1105 111.566 50.4259C111.158 51.1891 110.714 51.6897 110.225 52.264C109.63 52.926 108.894 53.7659 107.756 54.3971C106.699 54.9908 105.399 55.7102 104.125 55.2079C102.466 54.5432 102.155 52.31 102.136 52.1504C102.283 52.1855 103.618 52.4342 104.514 51.5759C105.65 50.4788 105.283 48.3593 104.413 47.8128C103.778 47.4068 103.062 47.9836 102.489 47.4938C102.02 47.0994 102.109 46.4294 102.043 45.7645C101.958 44.8834 101.603 43.6557 100.359 42.2012C99.4221 41.9349 98.0035 41.6804 96.3881 42.0138C94.9714 42.2818 94.259 42.8452 93.6901 42.4552Z" fill="#5B87E0"/>
<path d="M93.0248 44.7099C92.0765 45.6119 91.2322 46.6094 90.542 47.7284C90.3817 47.9864 90.1515 48.2418 90.294 48.5298C90.3991 48.7384 90.7462 48.8778 90.927 49.0057C91.2314 49.2054 91.5327 49.4186 91.8372 49.6184C92.0547 49.7691 92.2539 49.4076 92.0363 49.2568C91.8289 49.1225 91.6348 48.9915 91.4306 48.8439C91.3101 48.7586 90.8926 48.56 90.8248 48.431C90.612 48.0838 91.1777 47.4853 91.3679 47.2203C91.9415 46.4121 92.5957 45.6796 93.3234 44.9929C93.5211 44.8144 93.2225 44.5313 93.0248 44.7099Z" fill="#161616"/>
<path d="M91.7919 49.4507C91.9123 52.1885 92.149 55.2646 94.4708 57.1038C94.6719 57.2647 94.9681 56.9687 94.7537 56.8045C92.5289 55.031 92.32 52.0744 92.204 49.4363C92.1846 49.1636 91.7726 49.1779 91.7919 49.4507Z" fill="#161616"/>
<path d="M94.5282 57.1608C96.7361 58.239 99.6483 57.6089 101.606 56.3133C101.824 56.1679 101.612 55.8207 101.394 55.9661C99.5542 57.1772 96.795 57.8157 94.7274 56.7993C94.4901 56.672 94.2909 57.0336 94.5282 57.1608Z" fill="#161616"/>
<path d="M98.5247 57.3555C98.4038 58.5683 98.5782 59.7247 99.0878 60.8342C99.1999 61.0727 99.5468 60.8593 99.4347 60.6209C98.9827 59.6239 98.819 58.5406 98.9245 57.4511C98.9585 57.1912 98.5586 57.0956 98.5247 57.3555Z" fill="#161616"/>
<path d="M102.748 56.543C102.512 57.8835 102.704 59.1994 103.315 60.4177C103.427 60.6562 103.79 60.4327 103.662 60.2044C103.099 59.0821 102.924 57.8691 103.134 56.6354C103.182 56.3787 102.782 56.2831 102.748 56.543Z" fill="#161616"/>
<path d="M102.686 48.0895C103.212 47.5947 103.965 47.6898 104.448 48.2006C104.888 48.6585 104.988 49.3597 104.888 49.9565C104.728 50.9201 103.655 52.6955 102.46 51.8029C102.246 51.6388 101.963 51.938 102.177 52.1022C103.731 53.2638 105.196 51.2014 105.325 49.7788C105.393 48.9627 105.125 48.0802 104.403 47.6253C103.757 47.2028 102.96 47.2945 102.4 47.8097C102.189 47.985 102.488 48.268 102.686 48.0895Z" fill="#161616"/>
<path d="M98.7568 57.9755C99.6479 57.6665 100.458 57.2252 101.2 56.6548C101.408 56.4928 101.195 56.1456 100.987 56.3076C100.278 56.8576 99.4846 57.2888 98.6367 57.594C98.3915 57.6765 98.5084 58.0713 98.7568 57.9755Z" fill="#161616"/>
<path d="M92.3865 52.388C93.2869 52.6879 94.2863 52.5741 95.0888 52.0464C95.6104 51.6914 95.9522 50.9688 95.1062 50.7948C94.8898 50.7571 94.7466 51.0615 94.9604 51.1691C95.2478 51.3225 95.4723 51.5031 95.6744 51.7772C95.8361 51.9852 96.183 51.7718 96.0213 51.5638C95.7754 51.237 95.5205 51.0067 95.1564 50.8209C95.1111 50.9511 95.0525 51.0782 95.0105 51.1952C95.4668 51.2902 94.7107 51.8008 94.6446 51.8414C94.3867 51.9773 94.1283 52.0566 93.8495 52.1028C93.3783 52.1877 92.9391 52.1391 92.4822 51.9876C92.2322 51.9137 92.1364 52.3141 92.3865 52.388Z" fill="#161616"/>
<path d="M95.5891 46.7746C95.4582 46.32 95.4836 45.8605 95.6955 45.4455C95.5926 45.4632 95.4764 45.4778 95.3736 45.4955C95.6664 45.8619 95.462 46.3633 95.3161 46.7376C95.4393 46.7529 95.5624 46.7682 95.6888 46.7702C95.5831 46.5051 95.5605 46.2457 95.6275 45.9654C95.6882 45.7119 95.2883 45.6163 95.2277 45.8699C95.1447 46.2169 95.1615 46.5595 95.2944 46.8876C95.3589 47.03 95.5956 47.1007 95.667 46.9202C95.9039 46.3419 96.0805 45.721 95.6463 45.1798C95.5588 45.0742 95.3798 45.116 95.3244 45.2298C95.0603 45.7452 95.0062 46.3248 95.1845 46.8754C95.2737 47.1507 95.6681 47.0334 95.5891 46.7746Z" fill="#161616"/>
<path d="M95.4653 43.7534C96.3034 43.1354 97.1093 43.9489 97.2803 44.7658C97.3326 45.0182 97.727 44.9008 97.6747 44.6485C97.4513 43.5791 96.292 42.6529 95.2524 43.4062C95.0313 43.565 95.2442 43.9122 95.4653 43.7534Z" fill="#161616"/>
<path opacity="0.07" d="M101.943 45.0626C101.923 45.3824 101.875 45.8788 101.848 46.4649C101.761 48.1233 101.797 49.0914 101.789 49.5408C101.746 51.252 100.693 53.6529 98.6476 54.8994C96.391 56.2647 93.9083 55.6288 93.2883 55.4524C93.4884 55.853 93.8261 56.3852 94.3988 56.8185C96.1404 58.1379 98.4096 57.3682 98.658 57.2724C98.4239 58.1336 98.5403 58.4718 98.7045 58.6098C99.217 59.0004 100.78 58.1185 101.647 56.971C102.578 55.7263 102.591 54.3183 102.562 53.7328C102.061 52.5267 102.107 52.1567 102.243 52.0621C102.444 51.9268 102.807 52.3523 103.342 52.2967C103.909 52.2208 104.273 51.6444 104.498 51.2892C104.796 50.8101 105.601 49.5069 104.932 48.4723C104.51 47.8211 103.64 47.5142 102.73 47.607C102.563 47.5389 102.356 47.4047 102.227 47.1764C102.058 46.882 102.125 46.6017 102.12 46.0925C102.097 45.8332 102.067 45.4873 101.943 45.0626Z" fill="#353535"/>
<path opacity="0.1" d="M101.652 54.532C101.271 55.6543 100.767 56.5217 100.351 57.1419C100.85 57.1199 101.365 57.0878 101.863 57.0659C102.011 58.2159 102.142 59.376 102.29 60.526C102.618 60.4493 102.933 60.3694 103.265 60.2794C103.11 59.4523 102.997 58.4517 102.986 57.3202C102.976 56.3584 103.057 55.4889 103.163 54.7522C102.991 54.4711 102.791 54.1271 102.637 53.7094C102.368 53.01 102.262 52.3921 102.221 51.9166C102.138 52.6164 101.991 53.5266 101.652 54.532Z" fill="#353535"/>
<path opacity="0.13" d="M113.197 39.5978C113.01 39.5532 112.69 41.4238 111.368 43.4781C110.808 44.346 109.793 45.8812 107.882 46.92C106.523 47.6533 105.245 47.87 104.455 47.9349C104.626 48.1029 104.892 48.4062 105.039 48.8507C105.402 49.9252 104.777 50.8903 104.597 51.1718C104.348 51.5639 104.014 52.0767 103.384 52.2365C102.801 52.3791 102.293 52.1449 102.119 52.0469C102.131 52.1766 102.44 54.5929 104.142 55.1972C104.856 55.4525 105.532 55.2756 106.042 55.1437C107.375 54.8133 108.195 54.0358 109.2 53.0765C110.533 51.8009 111.468 50.8957 111.922 49.4098C112.273 48.2378 111.986 47.8448 112.511 46.7709C112.677 46.4296 113.062 45.7599 113.262 44.7493C113.299 44.5325 113.328 44.3558 113.343 44.2325C112.647 44.7292 111.947 45.2392 111.25 45.7359C111.523 45.4201 111.897 44.9169 112.229 44.2344C112.591 43.4883 112.711 42.868 112.914 41.8441C113.037 41.267 113.37 39.6392 113.197 39.5978Z" fill="#353535"/>
<defs>
<linearGradient id="paint0_linear_1_857" x1="114.835" y1="35.5527" x2="116.345" y2="40.8492" gradientUnits="userSpaceOnUse">
<stop stop-color="#EE4266"/>
<stop offset="1" stop-color="#FA5E7E"/>
</linearGradient>
<linearGradient id="paint1_linear_1_857" x1="116.469" y1="35.1621" x2="117.591" y2="39.1652" gradientUnits="userSpaceOnUse">
<stop stop-color="#EE4266"/>
<stop offset="1" stop-color="#FA5E7E"/>
</linearGradient>
<linearGradient id="paint2_linear_1_857" x1="81.3708" y1="81.4189" x2="81.6884" y2="83.9276" gradientUnits="userSpaceOnUse">
<stop stop-color="#EE4266"/>
<stop offset="1" stop-color="#FA5E7E"/>
</linearGradient>
<linearGradient id="paint3_linear_1_857" x1="61.2941" y1="31.8154" x2="61.8633" y2="36.6563" gradientUnits="userSpaceOnUse">
<stop stop-color="#EE4266"/>
<stop offset="1" stop-color="#FA5E7E"/>
</linearGradient>
<linearGradient id="paint4_linear_1_857" x1="149.276" y1="91.5488" x2="149.685" y2="95.2682" gradientUnits="userSpaceOnUse">
<stop stop-color="#EE4266"/>
<stop offset="1" stop-color="#FA5E7E"/>
</linearGradient>
<linearGradient id="paint5_linear_1_857" x1="138.451" y1="38.1416" x2="142.039" y2="50.2707" gradientUnits="userSpaceOnUse">
<stop stop-color="#EE4266"/>
<stop offset="1" stop-color="#FA5E7E"/>
</linearGradient>
<linearGradient id="paint6_linear_1_857" x1="138.055" y1="58.004" x2="138.868" y2="63.351" gradientUnits="userSpaceOnUse">
<stop stop-color="#EE4266"/>
<stop offset="1" stop-color="#FA5E7E"/>
</linearGradient>
<linearGradient id="paint7_linear_1_857" x1="97.3817" y1="18" x2="97.9533" y2="21.1875" gradientUnits="userSpaceOnUse">
<stop stop-color="#EE4266"/>
<stop offset="1" stop-color="#FA5E7E"/>
</linearGradient>
<linearGradient id="paint8_linear_1_857" x1="154.638" y1="79.0742" x2="155.432" y2="83.5234" gradientUnits="userSpaceOnUse">
<stop stop-color="#EE4266"/>
<stop offset="1" stop-color="#FA5E7E"/>
</linearGradient>
<linearGradient id="paint9_linear_1_857" x1="41.1319" y1="67.958" x2="42.4841" y2="76.1905" gradientUnits="userSpaceOnUse">
<stop stop-color="#EE4266"/>
<stop offset="1" stop-color="#FA5E7E"/>
</linearGradient>
<linearGradient id="paint10_linear_1_857" x1="101.729" y1="59.291" x2="112.003" y2="104.312" gradientUnits="userSpaceOnUse">
<stop stop-color="#EE4266"/>
<stop offset="1" stop-color="#FA5E7E"/>
</linearGradient>
</defs>
</svg>