<svg width="15" height="21" viewBox="0 0 15 21" fill="none" xmlns="http://www.w3.org/2000/svg">
<path d="M0.749771 1.5H14.2478C14.4377 1.49969 14.6205 1.42733 14.7591 1.29752C14.8978 1.16771 14.982 0.990127 14.9948 0.800622C15.0077 0.611117 14.9481 0.423806 14.8282 0.276505C14.7083 0.129205 14.5369 0.0328882 14.3488 0.00700009L14.2478 0H0.749771C0.559748 5.82426e-05 0.37683 0.0722445 0.23798 0.201973C0.0991288 0.331701 0.0146974 0.509299 0.00174538 0.69888C-0.0112066 0.888462 0.0482868 1.07589 0.168204 1.2233C0.288121 1.37071 0.459521 1.4671 0.647771 1.493L0.749771 1.5ZM7.38277 19.998L7.49977 20.005C7.74486 20.0049 7.98139 19.9149 8.16445 19.7519C8.3475 19.5889 8.46434 19.3644 8.49277 19.121L8.49977 19.005V6.415L11.7938 9.707C11.966 9.87918 12.1951 9.98261 12.4381 9.99789C12.6811 10.0132 12.9214 9.93925 13.1138 9.79L13.2078 9.707C13.3799 9.53481 13.4834 9.30571 13.4987 9.06268C13.5139 8.81966 13.44 8.5794 13.2908 8.387L13.2078 8.293L8.21077 3.296C8.03858 3.12382 7.80948 3.02039 7.56645 3.00511C7.32343 2.98983 7.08317 3.06375 6.89077 3.213L6.79677 3.296L1.79277 8.292C1.60939 8.47106 1.50176 8.7137 1.49211 8.96983C1.48246 9.22595 1.57152 9.476 1.74091 9.66836C1.91029 9.86071 2.14707 9.98069 2.40236 10.0035C2.65765 10.0263 2.91195 9.95026 3.11277 9.791L3.20677 9.708L6.49977 6.42V19.005C6.4998 19.2499 6.58973 19.4863 6.75249 19.6694C6.91525 19.8524 7.13952 19.9693 7.38277 19.998Z" fill="#212121"/>
</svg>
