<svg width="40" height="40" viewBox="0 0 40 40" fill="none" xmlns="http://www.w3.org/2000/svg">
<rect width="40" height="40" rx="15" fill="black"/>
<path d="M20.4283 10.1865C21.4921 10.1699 22.5499 10.1798 23.6064 10.1699C23.6705 11.424 24.1179 12.7014 25.0288 13.588C25.9378 14.4968 27.2236 14.9128 28.4746 15.0535V18.3524C27.3022 18.3137 26.1243 18.0679 25.0605 17.5592C24.5971 17.3478 24.1655 17.0756 23.743 16.7973C23.7375 19.1911 23.7528 21.5819 23.7278 23.9659C23.6644 25.1112 23.2894 26.251 22.6285 27.1948C21.5653 28.7659 19.7198 29.7902 17.8244 29.8222C16.6618 29.8891 15.5003 29.5696 14.5096 28.981C12.8678 28.0053 11.7125 26.2191 11.5442 24.302C11.523 23.896 11.5198 23.4893 11.5345 23.083C11.6808 21.5242 12.4459 20.0329 13.6335 19.0185C14.9797 17.8369 16.8654 17.2741 18.631 17.6071C18.6474 18.8206 18.5993 20.0329 18.5993 21.2464C17.7927 20.9834 16.8501 21.0572 16.1454 21.5506C15.6297 21.8929 15.2401 22.3966 15.0364 22.9841C14.8681 23.3994 14.9163 23.8609 14.926 24.302C15.1193 25.6464 16.402 26.7764 17.7713 26.6541C18.6791 26.6443 19.5491 26.1134 20.0222 25.3361C20.1752 25.0639 20.3466 24.7856 20.3557 24.4655C20.4356 23 20.4039 21.5407 20.4136 20.0753C20.4203 16.7727 20.4039 13.4793 20.4289 10.1871L20.4283 10.1865Z" fill="#FE2C54"/>
<path d="M18.4283 8.18651C19.4921 8.16992 20.5499 8.17975 21.6064 8.16992C21.6705 9.42399 22.1179 10.7014 23.0288 11.588C23.9378 12.4968 25.2236 12.9128 26.4746 13.0535V16.3524C25.3022 16.3137 24.1243 16.0679 23.0605 15.5592C22.5971 15.3478 22.1655 15.0756 21.743 14.7973C21.7375 17.1911 21.7528 19.5819 21.7278 21.9659C21.6644 23.1112 21.2894 24.251 20.6285 25.1948C19.5653 26.7659 17.7198 27.7902 15.8244 27.8222C14.6618 27.8891 13.5003 27.5696 12.5096 26.981C10.8678 26.0053 9.7125 24.2191 9.54423 22.302C9.52303 21.896 9.51978 21.4893 9.53448 21.083C9.68079 19.5242 10.4459 18.0329 11.6335 17.0185C12.9797 15.8369 14.8654 15.2741 16.631 15.6071C16.6474 16.8206 16.5993 18.0329 16.5993 19.2464C15.7927 18.9834 14.8501 19.0572 14.1454 19.5506C13.6297 19.8929 13.2401 20.3966 13.0364 20.9841C12.8681 21.3994 12.9163 21.8609 12.926 22.302C13.1193 23.6464 14.402 24.7764 15.7713 24.6541C16.6791 24.6443 17.5491 24.1134 18.0222 23.3361C18.1752 23.0639 18.3466 22.7856 18.3557 22.4655C18.4356 21 18.4039 19.5407 18.4136 18.0753C18.4203 14.7727 18.4039 11.4793 18.4289 8.18713L18.4283 8.18651Z" fill="#28F1EF"/>
<path d="M19.4283 9.18651C20.4921 9.16992 21.5499 9.17975 22.6064 9.16992C22.6705 10.424 23.1179 11.7014 24.0288 12.588C24.9378 13.4968 26.2236 13.9128 27.4746 14.0535V17.3524C26.3022 17.3137 25.1243 17.0679 24.0605 16.5592C23.5971 16.3478 23.1655 16.0756 22.743 15.7973C22.7375 18.1911 22.7528 20.5819 22.7278 22.9659C22.6644 24.1112 22.2894 25.251 21.6285 26.1948C20.5653 27.7659 18.7198 28.7902 16.8244 28.8222C15.6618 28.8891 14.5003 28.5696 13.5096 27.981C11.8678 27.0053 10.7125 25.2191 10.5442 23.302C10.523 22.896 10.5198 22.4893 10.5345 22.083C10.6808 20.5242 11.4459 19.0329 12.6335 18.0185C13.9797 16.8369 15.8654 16.2741 17.631 16.6071C17.6474 17.8206 17.5993 19.0329 17.5993 20.2464C16.7927 19.9834 15.8501 20.0572 15.1454 20.5506C14.6297 20.8929 14.2401 21.3966 14.0364 21.9841C13.8681 22.3994 13.9163 22.8609 13.926 23.302C14.1193 24.6464 15.402 25.7764 16.7713 25.6541C17.6791 25.6443 18.5491 25.1134 19.0222 24.3361C19.1752 24.0639 19.3466 23.7856 19.3557 23.4655C19.4356 22 19.4039 20.5407 19.4136 19.0753C19.4203 15.7727 19.4039 12.4793 19.4289 9.18713L19.4283 9.18651Z" fill="white"/>
</svg>
