<svg width="34" height="46" viewBox="0 0 34 46" fill="none" xmlns="http://www.w3.org/2000/svg">
<path fill-rule="evenodd" clip-rule="evenodd" d="M18 0.101257C18.0515 3.47965 20.6811 5.60681 23.7152 8.06123C27.7828 11.3516 32.5774 15.2302 32.8626 23.5C33.1549 31.9774 28.0249 35.6694 23.713 38.7727C20.6791 40.9561 18.0503 42.8481 18 45.9105V46H17.9993H16V45.9971L15.9993 46C15.9993 42.8847 13.3271 40.9771 10.2385 38.7723C5.8915 35.6691 0.719571 31.977 1.01185 23.5C1.297 15.2297 6.13246 11.3512 10.2348 8.06072C13.325 5.58208 15.9992 3.4371 15.9992 0H16H17.9992H18V0.101257Z" fill="white"/>
<path d="M24.999 26L26.999 24L24.999 22" stroke="#F25C7B" stroke-width="2" stroke-linecap="round" stroke-linejoin="round"/>
<path d="M9.99902 26L7.99902 24L9.99902 22" stroke="#F25C7B" stroke-width="2" stroke-linecap="round" stroke-linejoin="round"/>
</svg>
