<svg width="29" height="26" viewBox="0 0 29 26" fill="none" xmlns="http://www.w3.org/2000/svg">
<rect width="29" height="26" fill="#D9D9D9" fill-opacity="0.1"/>
<path d="M2 11.5C1.17157 11.5 0.5 12.1716 0.5 13C0.5 13.8284 1.17157 14.5 2 14.5L2 11.5ZM28.0607 14.0607C28.6464 13.4749 28.6464 12.5251 28.0607 11.9393L18.5147 2.3934C17.9289 1.80761 16.9792 1.80761 16.3934 2.3934C15.8076 2.97919 15.8076 3.92893 16.3934 4.51472L24.8787 13L16.3934 21.4853C15.8076 22.0711 15.8076 23.0208 16.3934 23.6066C16.9792 24.1924 17.9289 24.1924 18.5147 23.6066L28.0607 14.0607ZM2 14.5L27 14.5L27 11.5L2 11.5L2 14.5Z" fill="#215DD5"/>
</svg>
