<svg width="53" height="53" viewBox="0 0 53 53" fill="none" xmlns="http://www.w3.org/2000/svg">
<circle cx="26.5" cy="26.5" r="26.5" fill="#FAFAFA"/>
<path d="M40.9166 20.774C40.2402 20.0998 39.3295 19.7321 38.3872 19.7529C37.4445 19.7735 36.5478 20.1768 35.8935 20.8742L35.7427 21.0384L35.7425 11.9116C35.741 11.4086 35.3445 11.0013 34.8549 11H19.7677C19.2781 11.0013 18.8816 11.4088 18.8801 11.9116V23.9197C18.7225 23.9544 18.568 24.0031 18.4186 24.0654L16.4307 24.7218V24.7221C16.2058 24.7929 16.0183 24.9533 15.9098 25.1678C15.8013 25.382 15.7812 25.6321 15.8538 25.8616C15.9247 26.0932 16.0828 26.286 16.2928 26.3973C16.5028 26.5085 16.7472 26.5291 16.972 26.4543L18.8801 25.8252L19.0221 25.7795C19.3357 25.6522 19.67 25.5874 20.0071 25.5882H27.3114C27.7289 25.5877 28.1332 25.7383 28.4531 26.0141C28.7728 26.2898 28.9877 26.6725 29.0598 27.0951C29.1319 27.5175 29.0564 27.9527 28.8466 28.3236C28.7701 28.4614 28.6743 28.5873 28.5628 28.6972C28.2338 29.0435 27.7821 29.2379 27.3114 29.2354H19.3238C19.0879 29.2344 18.8616 29.3303 18.6944 29.5013C18.5274 29.6723 18.4333 29.9046 18.4333 30.1472C18.4333 30.3895 18.5274 30.6218 18.6944 30.7929C18.8615 30.9639 19.0879 31.0598 19.3238 31.0588H27.3114C28.1659 31.0583 28.9914 30.7409 29.6366 30.1653C29.6454 30.1653 29.6454 30.1563 29.6545 30.1563H29.6542C29.7055 30.1186 29.7532 30.0759 29.7962 30.0287L29.8229 29.9923L31.3938 28.3239L33.0977 26.5L33.9673 25.5701L35.7424 23.6736L37.1713 22.1418C37.4945 21.789 37.9425 21.5853 38.4137 21.5763C38.886 21.5665 39.3428 21.75 39.6828 22.087C40.0235 22.42 40.2188 22.8803 40.2242 23.3635C40.2372 23.8476 40.0614 24.317 39.7361 24.6673L32.3523 32.554C31.0566 33.9427 29.3373 34.8339 27.4801 35.0795L18.4188 36.2831C16.9547 36.4838 15.6819 37.4159 15.0198 38.7722L14.0968 40.678C13.9895 40.893 13.9707 41.1431 14.044 41.3724C14.1173 41.6019 14.2769 41.7918 14.4871 41.8997C14.6101 41.967 14.7475 42.0017 14.8865 41.9999C15.2219 42.0032 15.5292 41.8081 15.6765 41.4987L16.6083 39.5839C17.0077 38.772 17.7718 38.2158 18.6496 38.0975L27.7109 36.8849C29.9648 36.5815 32.0515 35.5014 33.6305 33.8215L41.0143 25.9348H41.014C41.6635 25.2352 42.0177 24.3002 41.9993 23.3337C41.981 22.3671 41.5919 21.4472 40.9165 20.774L40.9166 20.774ZM28.9355 12.823V15.7317L27.6398 15.1938V15.1936C27.4289 15.1084 27.1942 15.1084 26.9833 15.1936L25.6876 15.7315V12.823L28.9355 12.823ZM30.7194 26.3991L30.7196 26.3993C30.5062 25.64 30.0585 24.9722 29.4439 24.4971C28.8292 24.0217 28.0808 23.7646 27.3115 23.7644H20.6555V12.8227H23.9126V17.0807C23.9099 17.3821 24.0573 17.6641 24.3029 17.8286C24.5447 18.0013 24.8544 18.039 25.1283 17.9288L27.3116 17.026L29.4949 17.9288C29.6005 17.9674 29.7112 17.989 29.8234 17.9925C30.0018 17.9943 30.1761 17.9365 30.3203 17.8286C30.5662 17.6641 30.7134 17.3821 30.7107 17.0807V12.8227H33.9677L33.968 22.9344L30.7194 26.3991Z" fill="#3C3C40"/>
</svg>
