<svg width="63" height="63" viewBox="0 0 63 63" fill="none" xmlns="http://www.w3.org/2000/svg">
<path opacity="0.9" d="M52.3749 36.0316C54.7273 36.5422 57.0879 35.0438 57.1944 32.639C57.3751 28.5632 56.5842 24.4807 54.8595 20.7375C52.5235 15.6671 48.601 11.4945 43.6846 8.84973C38.7682 6.20496 33.1248 5.23165 27.6065 6.07678C22.0882 6.9219 16.9947 9.53957 13.0951 13.5345C9.19555 17.5294 6.7017 22.6847 5.99014 28.2218C5.27858 33.7589 6.38794 39.3772 9.15071 44.2283C11.9135 49.0794 16.1796 52.8998 21.305 55.1127C25.0888 56.7464 29.1891 57.4385 33.2594 57.1594C35.6609 56.9948 37.1019 54.5987 36.5346 52.2593V52.2593C35.9672 49.92 33.5935 48.5441 31.1868 48.4997C28.9883 48.4592 26.8044 47.9923 24.7603 47.1098C21.3721 45.6469 18.5519 43.1213 16.7255 39.9143C14.8991 36.7074 14.1657 32.9933 14.6361 29.3329C15.1065 25.6724 16.7551 22.2644 19.333 19.6235C21.9109 16.9825 25.2781 15.2521 28.9261 14.6934C32.5741 14.1347 36.3048 14.7781 39.5549 16.5265C42.8051 18.2749 45.3981 21.0333 46.9424 24.3852C47.8741 26.4073 48.3936 28.5793 48.4872 30.7762C48.5897 33.1812 50.0226 35.5209 52.3749 36.0316V36.0316Z" fill="url(#paint0_linear_1441_385)"/>
<path d="M25.5266 35.9461C27.6426 35.3072 30.9372 34.1379 33.6556 32.397C33.5502 30.9813 34.006 29.4021 34.1998 28.4394C34.5042 26.9125 34.0982 26.041 33.2839 23.8584C33.1373 23.4658 32.4739 19.1078 31.1488 18.9727C29.8417 18.8397 28.0967 23.2471 28.0967 23.2471C28.0967 23.2471 24.3322 23.2471 23.8821 24.9271C23.341 26.9451 21.2604 28.0429 21.1795 28.3374C20.8666 29.4738 21.4172 32.5594 23.2262 33.0304C24.3301 33.3175 25.1295 34.7538 25.5266 35.9464L25.5266 35.9461Z" fill="#3C3C40"/>
<path d="M48.2823 52.3311C50.2952 53.5989 53.9523 48.1976 50.9198 46.3768C49.0102 45.2308 48.7995 44.8822 48.2606 43.9927C46.9641 41.8597 48.6619 35.8965 51.9315 35.1283C54.3616 34.5588 54.5199 36.7924 53.1847 37.5214C50.0145 39.4075 49.7487 42.573 51.9067 44.1163C53.1264 44.9889 53.9862 45.6109 54.5178 47.5562C55.2685 50.2995 53.0158 54.6639 48.6873 56.036C48.6873 56.036 46.2801 56.5774 45.8359 55.591" fill="#5B87E0"/>
<path d="M34.5782 34.5545C34.4035 34.3935 34.2632 34.2128 34.1436 34.0205C32.6808 34.8152 28.2851 37.1452 25.8467 37.8128C26.843 42.511 26.2739 54.3742 26.3036 54.8828C26.3443 55.6361 25.8536 56.105 26.2178 56.7057C26.7731 57.6249 27.8647 57.7113 29.1528 57.4782C30.4414 57.2413 40.0342 59.9025 46.0437 57.387C53.4167 52.9431 41.1166 37.1203 34.5777 34.5543L34.5782 34.5545Z" fill="#5B87E0"/>
<defs>
<linearGradient id="paint0_linear_1441_385" x1="44.3676" y1="8.32092" x2="37.0087" y2="79.778" gradientUnits="userSpaceOnUse">
<stop stop-color="#EE4266"/>
<stop offset="1" stop-color="#FA5E7E"/>
</linearGradient>
</defs>
</svg>