<svg width="98" height="66" viewBox="0 0 98 66" fill="none" xmlns="http://www.w3.org/2000/svg">
<path opacity="0.9" fill-rule="evenodd" clip-rule="evenodd" d="M4.5 25C4.5 14.2304 13.2304 5.5 24 5.5H74C84.7696 5.5 93.5 14.2304 93.5 25V35C93.5 45.7696 84.7696 54.5 74 54.5H24C13.2304 54.5 4.5 45.7696 4.5 35V25ZM24 12.5C17.0964 12.5 11.5 18.0964 11.5 25V35C11.5 41.9036 17.0964 47.5 24 47.5H74C80.9036 47.5 86.5 41.9036 86.5 35V25C86.5 18.0964 80.9036 12.5 74 12.5H24Z" fill="url(#paint0_linear_1755_1139)"/>
<path d="M42.8921 41.2201C42.9755 41.4441 43.0113 41.6833 42.9969 41.9219C42.9969 42.4229 42.6756 42.8649 42.5149 43.0232C42.3365 43.21 42.1184 43.3535 41.8766 43.443C41.4474 43.6027 40.9729 43.5844 40.5571 43.3926C40.1416 43.2012 39.8185 42.8515 39.6606 42.421L37.5452 36.7092V46.0274H37.5183L37.4238 59.2838C37.4204 59.7396 37.2373 60.1761 36.9145 60.4974C36.5915 60.8188 36.1549 60.9991 35.7001 60.9991H35.6873C35.2298 60.996 34.7926 60.8108 34.4716 60.4846C34.1506 60.1581 33.972 59.7176 33.9754 59.259L34.0768 46.0283H31.9087L31.8142 59.2847C31.8108 59.7405 31.6277 60.1769 31.3049 60.4982C30.9818 60.8196 30.5453 61 30.0905 61H30.0777C29.6205 60.9969 29.1833 60.8117 28.8622 60.4851C28.5412 60.1589 28.3626 59.718 28.3657 59.2598L28.4585 46.029V37.2191L26.3234 42.4737C26.1545 42.8894 25.8307 43.2228 25.4204 43.4032C25.0101 43.5836 24.5463 43.5964 24.1267 43.4395C24.1267 43.4395 23.4332 43.0719 23.1973 42.622C22.9615 42.1721 22.9356 41.6403 23.1274 41.1697L27.764 29.7559C27.8933 29.438 28.1143 29.1653 28.3988 28.9736C28.6832 28.7818 29.0183 28.6795 29.3611 28.6795H37.0513C37.4031 28.6795 37.7465 28.7877 38.0351 28.9891C38.3237 29.1906 38.5437 29.4756 38.6661 29.8063L42.8921 41.2201Z" fill="#3C3C40"/>
<path d="M36.2872 24.2937C36.2872 26.1126 34.8156 27.5873 33.0005 27.5873C31.1852 27.5873 29.7139 26.1126 29.7139 24.2937C29.7139 22.4748 31.1852 21 33.0005 21C34.8156 21 36.2872 22.4748 36.2872 24.2937" fill="#5B87E0"/>
<path d="M22.6952 49.5629C21.6279 49.2406 19.9662 48.6508 18.595 47.7727C18.6481 47.0586 18.4182 46.2621 18.3205 45.7765C18.1669 45.0063 18.3718 44.5667 18.7825 43.4658C18.8564 43.2678 19.191 41.0696 19.8594 41.0015C20.5187 40.9344 21.3989 43.1575 21.3989 43.1575C21.3989 43.1575 23.2977 43.1575 23.5247 44.0049C23.7976 45.0228 24.8471 45.5765 24.8879 45.7251C25.0457 46.2983 24.768 47.8546 23.8555 48.0922C23.2988 48.237 22.8956 48.9615 22.6953 49.563L22.6952 49.5629Z" fill="#3C3C40"/>
<path d="M11.2172 57.8274C10.2019 58.4669 8.3573 55.7425 9.88686 54.8241C10.8501 54.2461 10.9564 54.0702 11.2282 53.6216C11.8821 52.5457 11.0258 49.5378 9.37656 49.1504C8.15085 48.8631 8.07101 49.9898 8.74449 50.3575C10.3435 51.3088 10.4776 52.9055 9.38911 53.6839C8.77386 54.124 8.34019 54.4378 8.07208 55.419C7.69342 56.8027 8.82964 59.0041 11.0129 59.6962C11.0129 59.6962 12.2272 59.9693 12.4512 59.4717" fill="#5B87E0"/>
<path d="M18.13 48.861C18.2181 48.7797 18.2889 48.6886 18.3492 48.5916C19.087 48.9925 21.3042 50.1677 22.5342 50.5044C22.0316 52.8742 22.3187 58.858 22.3037 59.1145C22.2832 59.4945 22.5307 59.731 22.347 60.034C22.0669 60.4976 21.5163 60.5412 20.8666 60.4236C20.2166 60.3042 15.378 61.6464 12.3468 60.3777C8.62789 58.1361 14.8321 50.1552 18.1303 48.8608L18.13 48.861Z" fill="#5B87E0"/>
<path d="M70.8597 35.2862C70.9682 35.5773 71.0146 35.8882 70.996 36.1985C70.996 36.8498 70.5782 37.4243 70.3694 37.6302C70.1375 37.873 69.8539 38.0596 69.5396 38.1759C68.9816 38.3835 68.3648 38.3597 67.8242 38.1104C67.2841 37.8615 66.8641 37.4069 66.6588 36.8472L63.9088 29.4219V41.5356H63.8738L63.751 58.769C63.7465 59.3615 63.5085 59.9289 63.0889 60.3466C62.6689 60.7644 62.1014 60.9989 61.5101 60.9989H61.4936C60.8988 60.9948 60.3304 60.754 59.9131 60.33C59.4958 59.9055 59.2636 59.3328 59.268 58.7367L59.3998 41.5367H56.5813L56.4585 58.7701C56.454 59.3626 56.216 59.9299 55.7964 60.3477C55.3764 60.7655 54.8089 61 54.2176 61H54.201C53.6066 60.9959 53.0382 60.7551 52.6209 60.3306C52.2036 59.9065 51.9714 59.3334 51.9754 58.7377L52.096 41.5377V30.0848L49.3204 36.9158C49.1008 37.4562 48.6799 37.8897 48.1465 38.1242C47.6131 38.3586 47.0102 38.3753 46.4646 38.1713C46.4646 38.1713 45.5632 37.6935 45.2566 37.1086C44.95 36.5237 44.9163 35.8324 45.1656 35.2206L51.1931 20.3826C51.3612 19.9693 51.6486 19.6149 52.0184 19.3656C52.3881 19.1163 52.8238 18.9833 53.2694 18.9833H63.2667C63.724 18.9833 64.1705 19.1239 64.5457 19.3858C64.9208 19.6477 65.2068 20.0183 65.3659 20.4482L70.8597 35.2862Z" fill="#3C3C40"/>
<path d="M62.2729 13.2818C62.2729 15.6463 60.3598 17.5635 58.0002 17.5635C55.6402 17.5635 53.7275 15.6463 53.7275 13.2818C53.7275 10.9172 55.6402 9 58.0002 9C60.3598 9 62.2729 10.9172 62.2729 13.2818" fill="#5B87E0"/>
<path d="M86.9136 48.1762C86.9803 48.3553 87.0089 48.5467 86.9975 48.7376C86.9975 49.1384 86.7404 49.492 86.6118 49.6186C86.4691 49.7681 86.2946 49.8829 86.1012 49.9545C85.7578 50.0822 85.3782 50.0676 85.0456 49.9141C84.7132 49.761 84.4547 49.4813 84.3284 49.1368L82.6361 44.5674V49.022H82.6145L82.539 59.6271C82.5362 59.9918 82.3897 60.3409 82.1315 60.598C81.8731 60.8551 81.5238 60.9994 81.16 60.9994H81.1498C80.7838 60.9969 80.434 60.8487 80.1772 60.5878C79.9204 60.3266 79.7775 59.9741 79.7802 59.6073L79.8613 49.0227H78.1269L78.0513 59.6278C78.0485 59.9924 77.902 60.3416 77.6438 60.5987C77.3854 60.8557 77.0361 61 76.6723 61H76.6621C76.2963 60.9976 75.9465 60.8494 75.6897 60.5882C75.4329 60.3272 75.29 59.9744 75.2925 59.6079L75.3667 49.0233V43L74.0002 42C73.098 41.3397 73.0002 41.5 71.5002 40C70.0002 38.5 70.0001 38.5002 70.5 38.5C70.9999 38.4998 71.5001 38.0001 71.5001 37.5001C71.5001 37.0001 71.9999 36.4999 73.0003 37.4999L75.3667 39.3475C75.4701 39.0932 75.5003 38.9999 76.0003 38.4999C76.5003 37.9999 78.945 38.1437 79.2192 38.1437H82.241C82.5224 38.1437 82.7971 38.2302 83.028 38.3914C83.2589 38.5525 83.4349 38.7806 83.5328 39.0451L86.9136 48.1762Z" fill="#3C3C40"/>
<path d="M83 33.5C83 35.4328 81.4328 37 79.5 37C77.5668 37 76 35.4328 76 33.5C76 31.5672 77.5668 30 79.5 30C81.4328 30 83 31.5672 83 33.5" fill="#5B87E0"/>
<path d="M83 33.5C83 35.4328 81.4328 37 79.5 37C77.5668 37 76 35.4328 76 33.5C76 31.5672 77.5668 30 79.5 30C81.4328 30 83 31.5672 83 33.5" stroke="white"/>
<defs>
<linearGradient id="paint0_linear_1755_1139" x1="60.125" y1="5.5" x2="66.203" y2="74.2675" gradientUnits="userSpaceOnUse">
<stop stop-color="#EE4266"/>
<stop offset="1" stop-color="#FA5E7E"/>
</linearGradient>
</defs>
</svg>