<svg width="69" height="71" viewBox="0 0 69 71" fill="none" xmlns="http://www.w3.org/2000/svg">
<path opacity="0.9" d="M20.5231 37.9889C18.8969 39.0351 18.4072 41.227 19.7126 42.6535C21.9251 45.0712 24.6932 46.9409 27.799 48.0875C32.006 49.6406 36.604 49.7827 40.8989 48.4924C45.1937 47.202 48.9521 44.5493 51.6065 40.9348C54.2609 37.3203 55.6672 32.9403 55.6131 28.4562C55.5589 23.972 54.0472 19.6272 51.3062 16.0779C48.5652 12.5286 44.7439 9.9675 40.4191 8.78131C36.0944 7.59513 31.5011 7.84829 27.3329 9.50257C24.2557 10.7239 21.5335 12.6598 19.3801 15.1303C18.1095 16.5879 18.652 18.7674 20.303 19.7739V19.7739C21.9541 20.7804 24.0839 20.2137 25.4762 18.8718C26.748 17.6461 28.2536 16.6708 29.916 16.011C32.6715 14.9174 35.708 14.7501 38.5669 15.5342C41.4259 16.3184 43.9521 18.0115 45.7641 20.3578C47.5761 22.7042 48.5754 25.5764 48.6113 28.5408C48.6471 31.5051 47.7174 34.4006 45.9626 36.7901C44.2079 39.1795 41.7233 40.9332 38.8841 41.7862C36.0449 42.6392 33.0052 42.5452 30.2241 41.5185C28.5463 40.8991 27.0176 39.9605 25.7165 38.7658C24.2922 37.458 22.1493 36.9428 20.5231 37.9889V37.9889Z" fill="#D9E0F2" fill-opacity="0.5"/>
<rect x="33" y="46" width="11" height="7" fill="white"/>
<path d="M67.2199 34.0033C66.6876 34.0398 49.5 34.5 50.5 38C52.5006 41 54 41 54.0006 42.5C54.0013 44 50.5006 45 51.5006 46.5C53.1293 48.9431 53.4848 49.6043 55.6152 51.5487C59.4752 50.9557 63.3839 50.6047 67.3164 50.5323C67.9697 50.5202 68.5024 49.9757 68.5024 49.3224L68.5019 35.213C68.5019 34.8741 68.3687 34.5596 68.1145 34.3297C67.8729 34.0998 67.5466 33.979 67.2199 34.0033Z" fill="#AAAAAD"/>
<path d="M58.5 55L49.4566 53.1554V43.1123C49.6865 43.3179 49.9651 43.439 50.2552 43.439C50.5697 43.439 50.8842 43.3179 51.1142 43.0758C51.5862 42.6039 51.5862 41.8417 51.1142 41.3697L49.1057 39.349H49.0935L39.1107 29.354C38.6387 28.882 37.8643 28.882 37.3923 29.354L27.4095 39.349H27.3974L25.3889 41.3697C24.9169 41.8417 24.9169 42.6039 25.3889 43.0758C25.8487 43.5357 26.5749 43.5357 27.0464 43.1123V53.1554H9.21084C8.54539 53.1554 8.00098 53.6998 8.00098 54.3653C8.00098 55.0307 8.54539 55.5752 9.21084 55.5752C9.21084 55.5752 37.5 55 48.5 56C59.5 57 66.5006 60.9197 66.5006 60.9197C67.1661 60.9197 67.7105 60.3753 67.7105 59.7099C67.7105 59.0444 64.5 56.5 58.5 55ZM42.3286 53.1554H34.173V48.1823C34.173 47.5168 34.7053 46.9724 35.3829 46.9724H41.1182C41.7958 46.9724 42.3281 47.5168 42.3281 48.1823L42.3286 53.1554Z" fill="#969699"/>
<path d="M36.3376 70.7359C30.2519 67.8563 22.7732 65.194 14.0733 63.7177L8.80945 63.0043C6.35276 62.7379 3.81194 62.5809 1.18606 62.5323C0.532266 62.5202 0 61.9757 0 61.3224V47.2129C0 46.8741 0.132695 46.5596 0.38692 46.3297C0.628984 46.0998 0.955642 45.9788 1.28229 46.0031C1.59733 46.0147 31.7636 48.1811 51.2457 70.7359H36.3376Z" fill="#AAAAAD"/>
</svg>