<svg xmlns="http://www.w3.org/2000/svg" width="63" height="54" viewBox="0 0 63 54" fill="none">
<path opacity="0.9" fill-rule="evenodd" clip-rule="evenodd" d="M0 20C0 8.95431 8.9555 0 20.0027 0H42.0056C53.0527 0 62.0082 8.9543 62.0082 20V21.1111C62.0082 23.3202 60.2172 25.1111 58.0077 25.1111C55.7983 25.1111 54.0072 23.3202 54.0072 21.1111V20C54.0072 13.3726 48.6339 8 42.0056 8H20.0027C13.3744 8 8.00106 13.3726 8.00106 20V30C8.00106 36.6274 13.3744 42 20.0027 42H21.0028C23.2122 42 25.0033 43.7909 25.0033 46C25.0033 48.2091 23.2122 50 21.0028 50H20.0027C8.9555 50 0 41.0457 0 30V20Z" fill="url(#paint0_linear_2538_143)"/>
<path d="M32.9991 28.2862C33.1081 28.5773 33.1545 28.8882 33.1361 29.1986C33.1361 30.2891 32.16 30.9712 31.6719 31.176C31.1109 31.3835 30.4908 31.3597 29.9473 31.1104C29.4043 30.8616 28.9821 30.407 28.7757 29.8473L26.0109 22.422V34.5357H25.9758L25.8523 51.769C25.8478 52.3616 25.6085 52.9289 25.1867 53.3467C24.7644 53.7644 24.1939 53.9989 23.5995 53.9989H23.5828C22.9848 53.9949 22.4134 53.7541 21.9938 53.3301C21.5743 52.9056 21.3409 52.3329 21.3454 51.7368L21.4778 34.5368H18.6442L18.5207 51.7701C18.5162 52.3627 18.2769 52.93 17.8551 53.3478C17.4329 53.7655 16.8623 54 16.2679 54H16.2513C15.6536 53.996 15.0822 53.7552 14.6627 53.3307C14.2431 52.9066 14.0097 52.3334 14.0137 51.7378L14.135 34.5378V23.0848L11.3445 29.9158C11.1237 30.4563 10.7005 30.8897 10.1643 31.1242C9.62806 31.3587 9.0219 31.3753 8.47346 31.1714C8.47346 31.1714 7.56714 30.6935 7.2589 30.1087C6.95066 29.5238 6.91686 28.8325 7.16742 28.2206L13.2273 13.3827C13.3963 12.9694 13.6851 12.615 14.0569 12.3657C14.4287 12.1164 14.8667 11.9834 15.3146 11.9834H25.3655C25.8252 11.9834 26.274 12.124 26.6512 12.3859C27.0284 12.6478 27.3159 13.0184 27.4759 13.4483L32.9991 28.2862Z" fill="#3C3C40"/>
<path d="M24.3665 6.28177C24.3665 8.64632 22.4431 10.5635 20.0709 10.5635C17.6983 10.5635 15.7754 8.64632 15.7754 6.28177C15.7754 3.91722 17.6983 2 20.0709 2C22.4431 2 24.3665 3.91722 24.3665 6.28177" fill="#3C3C40"/>
<path d="M44.7758 39.6174C46.0994 39.2178 48.1601 38.4865 49.8605 37.3977C49.7946 36.5123 50.0797 35.5246 50.2009 34.9225C50.3913 33.9676 50.1373 33.4225 49.628 32.0574C49.5363 31.8119 49.1214 29.0863 48.2925 29.0018C47.4749 28.9187 46.3834 31.6751 46.3834 31.6751C46.3834 31.6751 44.0287 31.6751 43.7472 32.7259C43.4087 33.9879 42.1073 34.6745 42.0567 34.8587C41.861 35.5695 42.2054 37.4992 43.3369 37.7938C44.0274 37.9734 44.5274 38.8717 44.7758 39.6175L44.7758 39.6174Z" fill="#3C3C40"/>
<path d="M59.0095 49.8649C60.2684 50.6578 62.5556 47.2797 60.6591 46.141C59.4648 45.4243 59.333 45.2062 58.9959 44.6499C58.1851 43.3159 59.2469 39.5864 61.2918 39.106C62.8116 38.7498 62.9106 40.1467 62.0755 40.6027C60.0929 41.7822 59.9266 43.762 61.2762 44.7272C62.0391 45.2729 62.5768 45.662 62.9093 46.8786C63.3788 48.5943 61.9699 51.3239 59.2628 52.182C59.2628 52.182 57.7573 52.5207 57.4795 51.9037" fill="#5B87E0"/>
<path d="M50.4372 38.7471C50.3279 38.6464 50.2402 38.5334 50.1653 38.4131C49.2504 38.9101 46.5008 40.3673 44.9756 40.7848C45.5988 43.7232 45.2428 51.1427 45.2614 51.4607C45.2869 51.9319 44.9799 52.2252 45.2077 52.6009C45.5551 53.1757 46.2379 53.2298 47.0436 53.084C47.8496 52.9358 53.8499 54.6002 57.6089 53.027C62.2207 50.2476 54.5269 40.3518 50.4369 38.7469L50.4372 38.7471Z" fill="#5B87E0"/>
<defs>
<linearGradient id="paint0_linear_2538_143" x1="38.7552" y1="5.09365e-08" x2="47.7587" y2="69.5536" gradientUnits="userSpaceOnUse">
<stop stop-color="#EE4266"/>
<stop offset="1" stop-color="#FA5E7E"/>
</linearGradient>
</defs>
</svg>