<svg width="25" height="26" viewBox="0 0 25 26" fill="none" xmlns="http://www.w3.org/2000/svg">
<circle cx="12.5" cy="13" r="12.5" fill="#5B87E0"/>
<path d="M13.5414 9.1862L16.3137 11.9582L10.8688 17.4037C10.7171 17.5554 10.5285 17.665 10.3215 17.7214L7.5185 18.4857C7.44864 18.5046 7.37502 18.5048 7.30507 18.4861C7.23513 18.4675 7.17135 18.4307 7.1202 18.3795C7.06904 18.3283 7.03232 18.2645 7.01375 18.1945C6.99518 18.1246 6.99542 18.0509 7.01445 17.9811L7.77875 15.1784C7.83524 14.9714 7.94477 14.7828 8.09652 14.6311L13.5403 9.1862H13.5414ZM17.4259 8.0741C17.7935 8.4417 18 8.94026 18 9.46012C18 9.97997 17.7935 10.4785 17.4259 10.8461L16.8944 11.3775L14.1221 8.6055L14.6536 8.0741C15.0212 7.70651 15.5198 7.5 16.0397 7.5C16.5596 7.5 17.0582 7.70651 17.4259 8.0741Z" fill="white"/>
</svg>
