<svg width="59" height="59" viewBox="0 0 59 59" fill="none" xmlns="http://www.w3.org/2000/svg">
<rect width="59" height="59" rx="15" fill="#1A1B1D" fill-opacity="0.8"/>
<path fill-rule="evenodd" clip-rule="evenodd" d="M23.522 15.087C25.0683 15.0158 25.5613 15 29.5 15C33.4387 15 33.9317 15.0171 35.4766 15.087C37.0215 15.1569 38.0761 15.4034 38.9988 15.7606C39.965 16.1257 40.8416 16.6965 41.5666 17.4347C42.3048 18.1584 42.8743 19.0336 43.2381 20.0012C43.5966 20.9239 43.8418 21.9785 43.913 23.5207C43.9842 25.0696 44 25.5626 44 29.5C44 33.4387 43.9829 33.9317 43.913 35.478C43.8431 37.0202 43.5966 38.0748 43.2381 38.9975C42.8743 39.9652 42.3039 40.8419 41.5666 41.5666C40.8416 42.3048 39.965 42.8743 38.9988 43.2381C38.0761 43.5966 37.0215 43.8418 35.4793 43.913C33.9317 43.9842 33.4387 44 29.5 44C25.5613 44 25.0683 43.9829 23.522 43.913C21.9798 43.8431 20.9252 43.5966 20.0025 43.2381C19.0349 42.8742 18.1581 42.3038 17.4334 41.5666C16.6957 40.8425 16.1248 39.9662 15.7606 38.9988C15.4034 38.0761 15.1582 37.0215 15.087 35.4793C15.0158 33.9304 15 33.4374 15 29.5C15 25.5613 15.0171 25.0683 15.087 23.5234C15.1569 21.9785 15.4034 20.9239 15.7606 20.0012C16.1254 19.0337 16.6967 18.1575 17.4347 17.4334C18.1584 16.6958 19.0343 16.125 20.0012 15.7606C20.9239 15.4034 21.9785 15.1582 23.5207 15.087H23.522ZM35.3593 17.697C33.8302 17.6271 33.3715 17.6126 29.5 17.6126C25.6285 17.6126 25.1698 17.6271 23.6407 17.697C22.2263 17.7616 21.4591 17.9975 20.9476 18.1966C20.2714 18.4602 19.7876 18.7726 19.2801 19.2801C18.7991 19.7482 18.4288 20.3179 18.1966 20.9476C17.9975 21.4591 17.7616 22.2263 17.697 23.6407C17.6271 25.1698 17.6126 25.6285 17.6126 29.5C17.6126 33.3715 17.6271 33.8302 17.697 35.3593C17.7616 36.7737 17.9975 37.5409 18.1966 38.0524C18.4286 38.6811 18.799 39.2519 19.2801 39.7199C19.7481 40.201 20.3189 40.5714 20.9476 40.8034C21.4591 41.0025 22.2263 41.2384 23.6407 41.303C25.1698 41.3729 25.6272 41.3874 29.5 41.3874C33.3728 41.3874 33.8302 41.3729 35.3593 41.303C36.7737 41.2384 37.5409 41.0025 38.0524 40.8034C38.7286 40.5398 39.2124 40.2274 39.7199 39.7199C40.201 39.2519 40.5714 38.6811 40.8034 38.0524C41.0025 37.5409 41.2384 36.7737 41.303 35.3593C41.3729 33.8302 41.3874 33.3715 41.3874 29.5C41.3874 25.6285 41.3729 25.1698 41.303 23.6407C41.2384 22.2263 41.0025 21.4591 40.8034 20.9476C40.5398 20.2714 40.2274 19.7876 39.7199 19.2801C39.2518 18.7991 38.6821 18.4289 38.0524 18.1966C37.5409 17.9975 36.7737 17.7616 35.3593 17.697ZM27.648 33.97C28.6823 34.4005 29.834 34.4586 30.9064 34.1344C31.9788 33.8101 32.9054 33.1236 33.5278 32.192C34.1503 31.2605 34.4301 30.1418 34.3193 29.0269C34.2086 27.912 33.7142 26.8702 32.9207 26.0793C32.4148 25.5738 31.8031 25.1867 31.1297 24.9459C30.4563 24.7051 29.7378 24.6166 29.0261 24.6868C28.3144 24.757 27.6271 24.9841 27.0137 25.3519C26.4002 25.7196 25.876 26.2187 25.4786 26.8133C25.0813 27.408 24.8207 28.0833 24.7157 28.7908C24.6107 29.4982 24.6638 30.2201 24.8713 30.9045C25.0787 31.589 25.4354 32.2189 25.9155 32.749C26.3956 33.279 26.9873 33.696 27.648 33.97ZM24.2299 24.2299C24.922 23.5378 25.7436 22.9888 26.6478 22.6143C27.5521 22.2397 28.5213 22.047 29.5 22.047C30.4787 22.047 31.4479 22.2397 32.3522 22.6143C33.2564 22.9888 34.078 23.5378 34.7701 24.2299C35.4622 24.922 36.0112 25.7436 36.3857 26.6478C36.7603 27.5521 36.953 28.5213 36.953 29.5C36.953 30.4787 36.7603 31.4479 36.3857 32.3522C36.0112 33.2564 35.4622 34.078 34.7701 34.7701C33.3724 36.1678 31.4767 36.953 29.5 36.953C27.5233 36.953 25.6276 36.1678 24.2299 34.7701C22.8322 33.3724 22.047 31.4767 22.047 29.5C22.047 27.5233 22.8322 25.6276 24.2299 24.2299ZM38.606 23.1569C38.7775 22.9951 38.9148 22.8006 39.0098 22.5848C39.1047 22.369 39.1554 22.1363 39.1589 21.9006C39.1623 21.6648 39.1184 21.4308 39.0298 21.2123C38.9411 20.9939 38.8096 20.7954 38.6429 20.6287C38.4761 20.462 38.2777 20.3304 38.0592 20.2418C37.8407 20.1531 37.6067 20.1092 37.371 20.1127C37.1352 20.1161 36.9026 20.1668 36.6868 20.2618C36.471 20.3567 36.2764 20.494 36.1146 20.6655C35.8 20.9991 35.6277 21.4421 35.6344 21.9006C35.6411 22.3591 35.8262 22.7969 36.1504 23.1211C36.4747 23.4453 36.9125 23.6304 37.371 23.6371C37.8294 23.6438 38.2725 23.4715 38.606 23.1569Z" fill="white"/>
</svg>
