<svg width="125" height="31" viewBox="0 0 125 31" fill="none" xmlns="http://www.w3.org/2000/svg">
<g clip-path="url(#clip0_6980_1997)">
<path d="M54.4199 18.9404C54.5208 18.9968 54.6161 19.0775 54.7057 19.1837C54.7953 19.2898 54.8463 19.4438 54.8576 19.6448H44.5703V17.5494C44.5703 16.9127 44.6939 16.3341 44.941 15.8147C45.1882 15.2953 45.5862 14.8905 46.1361 14.5994L46.9106 14.1805L47.1124 14.0631L47.702 13.7616L48.4764 13.3427L49.2678 12.9238C49.3914 12.8572 49.4951 12.751 49.5791 12.6054C49.663 12.4608 49.697 12.3152 49.68 12.1697C49.663 12.025 49.5847 11.8963 49.4442 11.7846C49.3036 11.6728 49.0706 11.6174 48.7452 11.6174H44.5703C44.5816 11.4164 44.6288 11.2624 44.7137 11.1562C44.7976 11.0501 44.891 10.9693 44.992 10.913C45.1155 10.8576 45.2495 10.8238 45.3957 10.8125H53.4936C53.6955 10.8125 53.8889 10.8632 54.0747 10.9637C54.2596 11.0642 54.4256 11.207 54.5718 11.3911C54.717 11.5751 54.835 11.7959 54.9255 12.0532C55.0151 12.3105 55.0604 12.5951 55.0604 12.9079C55.0604 13.5447 54.934 14.1232 54.6812 14.6426C54.4284 15.162 54.0332 15.5677 53.4946 15.8579L52.7032 16.2768L52.5013 16.3942L51.9287 16.6957L51.1373 17.1146L50.3629 17.5504C50.2394 17.6067 50.1384 17.6988 50.0601 17.8265C49.9818 17.9552 49.9422 18.0867 49.9422 18.22V18.8399H54.0162C54.1615 18.8512 54.2963 18.885 54.4199 18.9404Z" fill="#EE4266"/>
<path d="M68.3531 11.5203C68.2786 12.7864 68.222 13.9773 68.2597 14.9447C68.3163 17.9417 69.5124 18.8349 68.2408 18.8715C65.9977 18.9269 65.4186 15.1306 65.3997 11.1662C64.9517 10.9427 64.6706 10.6638 64.6706 10.2918C64.6706 9.97533 64.8573 10.0495 65.3997 10.1434C65.4563 7.42632 65.7176 4.78339 65.8478 3.35016C63.7169 5.24829 61.9407 7.89123 61.9407 9.21269C61.9407 10.3294 61.1748 10.5717 61.1748 9.30567C61.1748 6.97926 63.2679 3.79628 65.9968 1.80516C66.0534 1.69339 66.1836 1.60041 66.3892 1.545C67.7909 0.614242 69.3237 0 70.8188 0C78.913 0 73.642 10.6271 68.3521 11.5203H68.3531ZM69.119 3.21961C69.1379 3.53612 68.7455 6.66274 68.4832 9.86356C71.53 8.07719 73.4175 1.15335 70.2406 1.15335C69.5491 1.15335 68.8011 1.37688 68.0531 1.78637C68.6512 2.1583 69.119 2.77254 69.119 3.21961Z" fill="#3C3C40"/>
<path d="M83.6433 11.7252C83.55 12.1534 81.7181 18.556 80.1287 19.1139C80.0721 19.1515 79.9608 19.1703 79.8297 19.1703C78.0724 19.1703 77.6432 15.5412 77.5112 15.5412C77.3621 15.5412 76.6509 18.3701 75.1747 18.3701C73.6985 18.3701 72.5015 17.3839 72.5015 14.7964C72.5015 12.3582 73.8475 8.375 76.6141 8.375C78.5393 8.375 79.9033 8.375 79.9033 11.0921C79.9033 11.3523 79.2307 11.5758 79.2307 11.1663C79.2307 10.7568 79.0996 9.23062 78.4082 9.23062C76.5764 9.23062 74.9502 12.5432 74.9502 15.9685C74.9502 16.6569 75.0247 17.7737 75.586 17.7737C76.1472 17.7737 77.3244 13.8835 77.3244 12.9161C77.3244 12.5441 77.3244 11.8736 78.4459 11.8736C79.5675 11.8736 80.0533 12.3948 80.0533 12.7855V13.0833C80.1089 14.3484 79.9967 17.9221 80.6136 17.9221C81.006 17.9221 83.0623 12.0407 83.1934 11.6312C83.3057 11.2405 83.7358 11.2593 83.6424 11.7242L83.6433 11.7252Z" fill="#3C3C40"/>
<path d="M81.6421 6.17877C81.6421 5.22924 82.4457 5.2668 83.3796 5.2668C84.3134 5.2668 85.2859 6.38352 85.2859 7.09075C85.2859 8.76535 81.6411 7.10953 81.6411 6.17877H81.6421ZM87.8101 12.9345C87.5856 13.8089 86.0528 18.2016 84.7624 18.2016H84.7256C82.2957 18.2016 81.9967 14.7209 81.9967 13.0087C81.9967 10.8495 82.2024 10.068 82.2024 9.60313C82.2024 8.78414 84.5577 9.51015 84.5577 10.4409C84.5577 11.1106 84.4454 12.2273 84.4454 13.0284C84.4454 15.0195 84.8378 16.2668 85.1557 16.974C85.9226 16.5645 87.2677 13.3825 87.3988 12.8979C87.5299 12.433 87.8846 12.6377 87.8101 12.9354V12.9345Z" fill="#3C3C40"/>
<path d="M94.2958 15.4103C94.2958 18.2204 94.6514 18.0532 94.6514 18.5923C94.6514 19.1314 91.8292 18.7416 91.8292 15.5962C91.8292 13.53 92.2216 11.0551 92.4829 9.62192C91.6603 11.6882 90.2398 17.0849 89.5106 18.1462C89.4917 18.2392 89.455 18.2946 89.3616 18.3321H89.305C89.2493 18.3509 89.1739 18.3697 89.0814 18.3697C86.3526 18.3697 86.6138 12.0413 86.6138 11.7624C86.6138 11.4271 86.4082 11.5576 86.4082 11.2223C86.4082 10.887 89.1559 10.7011 89.1559 11.9108C89.1559 12.3015 89.0814 14.3114 89.0814 14.9256C89.0814 15.4093 89.1182 15.8376 89.1748 16.2095C89.8851 13.8455 91.4934 8.96917 92.8385 8.20653C92.8752 8.1699 92.9318 8.15112 92.9875 8.13233C93.062 8.11355 93.1186 8.0957 93.1931 8.0957C93.3054 8.0957 93.4167 8.0957 93.5487 8.11449C93.8478 8.11449 94.0157 8.15112 94.0713 8.20747C94.6693 8.37465 95.2495 8.72873 95.2495 9.17579C95.2495 10.069 94.2958 13.9958 94.2958 15.4112V15.4103Z" fill="#3C3C40"/>
<path d="M107.529 5.80717C106.015 6.27207 102.707 6.79334 99.6593 7.03565C99.1924 9.6598 98.6689 12.7498 98.6689 14.5737C98.6689 19.5243 100.295 19.9338 99.1736 19.9338C98.052 19.9338 96.3702 17.7558 96.3702 13.6984C96.3702 11.8003 96.7258 9.36207 97.0984 7.16526C96.2381 7.18405 95.4533 7.14648 94.8185 7.07228C92.9678 6.84875 91.6406 5.95556 90.7058 5.32254C90.3134 5.06237 90.5191 4.82006 90.7804 4.87641C92.6311 5.24834 94.9864 5.41646 97.3974 5.49065L97.5096 4.93276C97.7898 3.46196 98.0143 2.34525 98.0143 1.93575C98.0143 0.149377 100.295 1.30272 100.295 2.69839C100.295 3.07031 100.183 3.83389 100.033 4.87641L99.9206 5.50944C103.135 5.49065 106.108 5.36104 107.566 5.36104C108.108 5.37983 107.996 5.65877 107.528 5.80811L107.529 5.80717Z" fill="#3C3C40"/>
<path d="M100.332 6.17877C100.332 5.22924 101.136 5.2668 102.07 5.2668C103.004 5.2668 103.976 6.38352 103.976 7.09075C103.976 8.76535 100.332 7.10953 100.332 6.17877H100.332ZM106.501 12.9345C106.276 13.8089 104.743 18.2016 103.453 18.2016H103.416C100.986 18.2016 100.687 14.7209 100.687 13.0087C100.687 10.8495 100.893 10.068 100.893 9.60313C100.893 8.78414 103.248 9.51015 103.248 10.4409C103.248 11.1106 103.136 12.2273 103.136 13.0284C103.136 15.0195 103.528 16.2668 103.846 16.974C104.613 16.5645 105.958 13.3825 106.089 12.8979C106.22 12.433 106.575 12.6377 106.501 12.9354V12.9345Z" fill="#3C3C40"/>
<path d="M112.987 15.4103C112.987 18.2204 113.342 18.0532 113.342 18.5923C113.342 19.1314 110.52 18.7416 110.52 15.5962C110.52 13.53 110.912 11.0551 111.174 9.62192C110.351 11.6882 108.931 17.0849 108.202 18.1462C108.183 18.2392 108.146 18.2946 108.052 18.3321H107.996C107.94 18.3509 107.865 18.3697 107.772 18.3697C105.043 18.3697 105.305 12.0413 105.305 11.7624C105.305 11.4271 105.099 11.5576 105.099 11.2223C105.099 10.887 107.847 10.7011 107.847 11.9108C107.847 12.3015 107.772 14.3114 107.772 14.9256C107.772 15.4093 107.809 15.8376 107.866 16.2095C108.576 13.8455 110.184 8.96917 111.529 8.20653C111.566 8.1699 111.623 8.15112 111.678 8.13233C111.753 8.11355 111.81 8.0957 111.884 8.0957C111.996 8.0957 112.108 8.0957 112.24 8.11449C112.539 8.11449 112.707 8.15112 112.762 8.20747C113.36 8.37465 113.94 8.72873 113.94 9.17579C113.94 10.069 112.987 13.9958 112.987 15.4112V15.4103Z" fill="#3C3C40"/>
<path d="M124.817 25.0894C123.621 27.6206 115.414 31.8451 111.471 30.0024C110.648 29.6117 108.517 27.6196 108.966 26.3179C109.713 24.215 115.321 23.8609 115.097 24.3446C114.873 24.8095 111.078 24.8283 110.181 26.7274C108.929 29.3891 121.976 27.9747 123.863 23.9727C124.162 23.3218 123.92 22.5207 122.911 22.0558C121.546 21.404 119.902 21.3861 118.481 21.5533C118.424 21.6463 118.35 21.7017 118.313 21.7017C118.239 21.7017 118.182 21.6641 118.126 21.5899C116.426 21.8323 115.08 22.2784 114.874 22.1854C114.594 22.0548 114.033 21.1429 114.426 20.2873C114.744 19.6176 116.127 19.3753 117.715 19.3753V19.2635C117.715 19.0212 117.715 18.7235 117.734 18.3891H117.715C116.407 18.3891 114.556 17.1052 114.556 13.7729C114.556 11.1675 117.21 7.27734 118.183 7.27734C119.79 7.27734 120.015 8.63638 120.015 9.02709C120.015 9.4178 116.463 11.0933 116.463 15.6344C116.463 17.1606 117.061 17.7007 117.791 17.4959C117.865 16.398 117.996 15.3001 118.146 15.3001C118.576 15.3001 118.856 15.8401 119.024 16.5473C119.847 15.5236 120.538 13.756 120.538 11.5404C120.538 11.1121 121.753 11.2981 121.753 12.6947C121.753 13.7926 120.763 16.6967 119.137 17.8876C119.137 18.2971 119.08 18.8737 119.005 19.4326C120.557 19.5631 122.071 19.8787 122.819 20.2328C125.099 21.2941 125.23 24.1972 124.819 25.0904L124.817 25.0894Z" fill="#3C3C40"/>
<path d="M1.00269 16.0048V19.8743H0V10.6738H2.50626C3.4533 10.6738 4.18622 10.9058 4.70313 11.3698C5.22005 11.8337 5.4785 12.4903 5.4785 13.3393C5.4785 14.0475 5.17854 14.6692 4.57957 15.2036C3.97965 15.738 3.12222 16.0048 2.00539 16.0048H1.00269ZM1.00269 15.2412H1.9752C2.72982 15.2412 3.32974 15.0627 3.77402 14.7068C4.21829 14.3508 4.43996 13.8728 4.43996 13.2745C4.43996 12.6405 4.2598 12.1756 3.90041 11.8798C3.54103 11.5839 2.9562 11.4365 2.14593 11.4365H1.00269V15.2412Z" fill="#3C3C40"/>
<path d="M6.72559 10.6738H7.72828V14.7951H12.3041V10.6738H13.3068V19.8743H12.3041V15.5586H7.72828V19.8743H6.72559V10.6738Z" fill="#3C3C40"/>
<path d="M18.7541 20.021C17.4486 20.021 16.4431 19.5711 15.7375 18.6704C15.032 17.7706 14.6792 16.5779 14.6792 15.0948C14.6792 13.7565 15.0773 12.6445 15.8734 11.7597C16.6695 10.875 17.6533 10.4326 18.8249 10.4326C20.102 10.4326 21.0915 10.875 21.7905 11.7597C22.4904 12.6445 22.8404 13.8128 22.8404 15.2648C22.8404 16.6154 22.4527 17.7453 21.6792 18.6554C20.9048 19.5655 19.9294 20.0201 18.7541 20.0201V20.021ZM18.8069 19.1757C19.5738 19.1757 20.2605 18.8235 20.868 18.1191C21.4754 17.4147 21.7792 16.375 21.7792 15.0019C21.7792 14.1256 21.5415 13.2859 21.0661 12.4829C20.5907 11.6808 19.8511 11.2788 18.8494 11.2788C17.8476 11.2788 17.1223 11.6376 16.5705 12.3561C16.0177 13.0746 15.7423 13.9894 15.7423 15.1005C15.7423 16.4079 16.0328 17.4138 16.6148 18.1182C17.1968 18.8226 17.9278 19.1748 18.8079 19.1748L18.8069 19.1757Z" fill="#3C3C40"/>
<path d="M29.6612 11.5191H26.7899V19.8743H25.7872V11.5191H22.9272V10.6738H29.6612V11.5191Z" fill="#3C3C40"/>
<path d="M33.9069 20.021C32.6015 20.021 31.5959 19.5711 30.8904 18.6704C30.1848 17.7706 29.832 16.5779 29.832 15.0948C29.832 13.7565 30.2301 12.6445 31.0262 11.7597C31.8223 10.875 32.8062 10.4326 33.9777 10.4326C35.2549 10.4326 36.2444 10.875 36.9433 11.7597C37.6432 12.6445 37.9932 13.8128 37.9932 15.2648C37.9932 16.6154 37.6055 17.7453 36.832 18.6554C36.0576 19.5655 35.0823 20.0201 33.9069 20.0201V20.021ZM33.9598 19.1757C34.7266 19.1757 35.4133 18.8235 36.0208 18.1191C36.6283 17.4147 36.932 16.375 36.932 15.0019C36.932 14.1256 36.6943 13.2859 36.2189 12.4829C35.7435 11.6808 35.004 11.2788 34.0022 11.2788C33.0005 11.2788 32.2751 11.6376 31.7233 12.3561C31.1705 13.0746 30.8951 13.9894 30.8951 15.1005C30.8951 16.4079 31.1856 17.4138 31.7676 18.1182C32.3496 18.8226 33.0806 19.1748 33.9607 19.1748L33.9598 19.1757Z" fill="#3C3C40"/>
</g>
<defs>
<clipPath id="clip0_6980_1997">
<rect width="125" height="30.4538" fill="white"/>
</clipPath>
</defs>
</svg>