<svg width="13" height="13" viewBox="0 0 13 13" fill="none" xmlns="http://www.w3.org/2000/svg">
<path fill-rule="evenodd" clip-rule="evenodd" d="M0.439341 9.44285C-0.146446 10.0286 -0.146447 10.9784 0.439339 11.5642C1.02512 12.15 1.97487 12.15 2.56066 11.5642L6.00177 8.12307L9.44288 11.5642C10.0287 12.15 10.9784 12.15 11.5642 11.5642C12.15 10.9784 12.15 10.0286 11.5642 9.44285L8.12309 6.00176L11.5642 2.56066C12.15 1.97488 12.15 1.02513 11.5642 0.439342C10.9784 -0.146446 10.0287 -0.146447 9.44288 0.439339L6.00177 3.88044L2.56066 0.439339C1.97487 -0.146447 1.02512 -0.146446 0.439339 0.439342C-0.146447 1.02513 -0.146446 1.97488 0.439341 2.56066L3.88045 6.00176L0.439341 9.44285Z" fill="#F25C7B"/>
</svg>
