<svg width="91" height="35" viewBox="0 0 91 35" fill="none" xmlns="http://www.w3.org/2000/svg">
<path d="M29.258 14.664C29.0527 14.4027 28.782 14.1973 28.446 14.048C28.1193 13.8893 27.802 13.81 27.494 13.81C27.3353 13.81 27.172 13.824 27.004 13.852C26.8453 13.88 26.7007 13.936 26.57 14.02C26.4393 14.0947 26.3273 14.1973 26.234 14.328C26.15 14.4493 26.108 14.608 26.108 14.804C26.108 14.972 26.1407 15.112 26.206 15.224C26.2807 15.336 26.3833 15.434 26.514 15.518C26.654 15.602 26.8173 15.6813 27.004 15.756C27.1907 15.8213 27.4007 15.8913 27.634 15.966C27.97 16.078 28.32 16.204 28.684 16.344C29.048 16.4747 29.3793 16.652 29.678 16.876C29.9767 17.1 30.224 17.38 30.42 17.716C30.616 18.0427 30.714 18.4533 30.714 18.948C30.714 19.5173 30.6067 20.012 30.392 20.432C30.1867 20.8427 29.9067 21.1833 29.552 21.454C29.1973 21.7247 28.7913 21.9253 28.334 22.056C27.8767 22.1867 27.4053 22.252 26.92 22.252C26.2107 22.252 25.5247 22.1307 24.862 21.888C24.1993 21.636 23.6487 21.2813 23.21 20.824L24.778 19.228C25.0207 19.5267 25.338 19.7787 25.73 19.984C26.1313 20.18 26.528 20.278 26.92 20.278C27.0973 20.278 27.27 20.2593 27.438 20.222C27.606 20.1847 27.7507 20.124 27.872 20.04C28.0027 19.956 28.1053 19.844 28.18 19.704C28.2547 19.564 28.292 19.396 28.292 19.2C28.292 19.0133 28.2453 18.8547 28.152 18.724C28.0587 18.5933 27.9233 18.4767 27.746 18.374C27.578 18.262 27.3633 18.164 27.102 18.08C26.85 17.9867 26.5607 17.8887 26.234 17.786C25.9167 17.6833 25.604 17.562 25.296 17.422C24.9973 17.282 24.7267 17.1047 24.484 16.89C24.2507 16.666 24.0593 16.4 23.91 16.092C23.77 15.7747 23.7 15.392 23.7 14.944C23.7 14.3933 23.812 13.922 24.036 13.53C24.26 13.138 24.554 12.816 24.918 12.564C25.282 12.312 25.6927 12.13 26.15 12.018C26.6073 11.8967 27.0693 11.836 27.536 11.836C28.096 11.836 28.6653 11.9387 29.244 12.144C29.832 12.3493 30.3453 12.6527 30.784 13.054L29.258 14.664ZM42.7935 22H40.4275L38.4675 15.294H38.4255L36.4655 22H34.0855L31.2715 12.088H33.8475L35.4155 18.682H35.4575L37.2215 12.088H39.7135L41.4915 18.682H41.5335L43.1295 12.088H45.6215L42.7935 22ZM46.649 22V12.088H49.057V22H46.649ZM58.624 15.14C58.624 15.7187 58.5167 16.2087 58.302 16.61C58.0873 17.002 57.798 17.3193 57.434 17.562C57.07 17.8047 56.65 17.982 56.174 18.094C55.698 18.206 55.2033 18.262 54.69 18.262H53.5V22H51.106V12.088H54.746C55.2873 12.088 55.7913 12.144 56.258 12.256C56.734 12.3587 57.1447 12.5313 57.49 12.774C57.8447 13.0073 58.12 13.32 58.316 13.712C58.5213 14.0947 58.624 14.5707 58.624 15.14ZM56.23 15.154C56.23 14.9207 56.1833 14.7293 56.09 14.58C55.9967 14.4307 55.8707 14.314 55.712 14.23C55.5533 14.146 55.3713 14.09 55.166 14.062C54.97 14.034 54.7647 14.02 54.55 14.02H53.5V16.358H54.508C54.732 16.358 54.9467 16.3393 55.152 16.302C55.3573 16.2647 55.5393 16.1993 55.698 16.106C55.866 16.0127 55.9967 15.8913 56.09 15.742C56.1833 15.5833 56.23 15.3873 56.23 15.154ZM60.0611 22V12.088H66.7251V14.118H62.3711V15.98H66.4871V17.898H62.3711V19.956H66.9771V22H60.0611Z" fill="white"/>
<path d="M77 22.8066L82 17.4033L77 12" stroke="white" stroke-width="2" stroke-linecap="round" stroke-linejoin="round"/>
<path d="M14 22.8066L9 17.4033L14 12" stroke="white" stroke-width="2" stroke-linecap="round" stroke-linejoin="round"/>
<path d="M86 21.8066L90 17.4016L86 12.9966" stroke="white" stroke-width="2" stroke-linecap="round" stroke-linejoin="round"/>
<path d="M5 21.8066L1 17.4016L5 12.9966" stroke="white" stroke-width="2" stroke-linecap="round" stroke-linejoin="round"/>
</svg>
