<svg width="59" height="59" viewBox="0 0 59 59" fill="none" xmlns="http://www.w3.org/2000/svg">
<rect width="59" height="59" rx="15" fill="#1A1B1D" fill-opacity="0.8"/>
<path d="M30.1316 15.0245C31.7008 15 33.261 15.0145 34.8195 15C34.9139 16.8498 35.5739 18.7339 36.9174 20.0417C38.2582 21.3822 40.1547 21.9957 42 22.2033V27.0692C40.2707 27.0121 38.5334 26.6496 36.9642 25.8991C36.2807 25.5874 35.6441 25.1859 35.0209 24.7753C35.0128 28.3063 35.0353 31.8327 34.9984 35.3491C34.9049 37.0385 34.3518 38.7196 33.377 40.1117C31.8087 42.4291 29.0867 43.9399 26.2909 43.987C24.576 44.0858 22.863 43.6146 21.4017 42.7463C18.98 41.3071 17.2759 38.6725 17.0277 35.8449C16.9964 35.246 16.9916 34.646 17.0133 34.0468C17.2291 31.7475 18.3577 29.5479 20.1094 28.0516C22.095 26.3088 24.8764 25.4786 27.4806 25.9698C27.5049 27.7598 27.4339 29.5479 27.4339 31.3378C26.2442 30.9499 24.8539 31.0587 23.8144 31.7865C23.0538 32.2914 22.4791 33.0343 22.1786 33.9009C21.9304 34.5135 22.0015 35.1941 22.0159 35.8449C22.3009 37.8278 24.193 39.4945 26.2127 39.3142C27.5517 39.2997 28.8349 38.5166 29.5327 37.3702C29.7584 36.9687 30.0111 36.5581 30.0246 36.0859C30.1424 33.9244 30.0957 31.772 30.1101 29.6104C30.1199 24.7391 30.0957 19.8813 30.1325 15.0254L30.1316 15.0245Z" fill="white"/>
</svg>
