<svg width="25" height="29" viewBox="0 0 25 29" fill="none" xmlns="http://www.w3.org/2000/svg">
<path d="M13.1316 0.0244701C14.7008 0 16.261 0.0145008 17.8195 0C17.9139 1.84975 18.5739 3.73395 19.9174 5.04174C21.2582 6.38215 23.1547 6.99572 25 7.20326V12.0692C23.2707 12.0121 21.5334 11.6496 19.9642 10.8991C19.2807 10.5874 18.6441 10.1859 18.0209 9.77533C18.0128 13.3063 18.0353 16.8327 17.9984 20.3491C17.9049 22.0385 17.3518 23.7196 16.377 25.1117C14.8087 27.4291 12.0867 28.9399 9.29092 28.987C7.57604 29.0858 5.86296 28.6146 4.40167 27.7463C1.97998 26.3071 0.275892 23.6725 0.0276979 20.8449C-0.0035648 20.246 -0.0083656 19.646 0.0133098 19.0468C0.229131 16.7475 1.3577 14.5479 3.10944 13.0516C5.095 11.3088 7.87639 10.4786 10.4806 10.9698C10.5049 12.7598 10.4339 14.5479 10.4339 16.3378C9.24416 15.9499 7.85391 16.0587 6.81437 16.7865C6.05382 17.2914 5.47907 18.0343 5.17863 18.9009C4.93043 19.5135 5.00148 20.1941 5.01586 20.8449C5.30093 22.8278 7.19296 24.4945 9.21269 24.3142C10.5517 24.2997 11.8349 23.5166 12.5327 22.3702C12.7584 21.9687 13.0111 21.5581 13.0246 21.0859C13.1424 18.9244 13.0957 16.772 13.1101 14.6104C13.1199 9.73908 13.0957 4.88132 13.1325 0.0253764L13.1316 0.0244701Z" fill="#3C3C40"/>
</svg>
