<svg width="53" height="80" viewBox="0 0 53 80" fill="none" xmlns="http://www.w3.org/2000/svg">
<path d="M27 33.9998C31.5094 33.9998 35.8338 32.2089 39.0221 29.0193C42.2101 25.8306 44.0006 21.506 44 16.9967C43.9994 12.488 42.2071 8.16336 39.0177 4.97596C35.8283 1.78839 31.5031 -0.00129453 26.9937 7.02549e-07C22.485 0.00189806 18.161 1.79487 14.9742 4.98486C11.7866 8.17421 9.99757 12.5001 10 17.0088C10.007 21.5149 11.8005 25.8339 14.9875 29.0189C18.1744 32.2038 22.4945 33.9955 27 34V33.9998Z" fill="#5B87E0"/>
<path d="M6.95074 80H46.0496C47.8926 80 49.6611 79.2752 50.9642 77.9856C52.2679 76.6967 53 74.9473 53 73.1242V71.5511C52.823 64.7155 49.9539 58.218 45.0029 53.4441C40.0525 48.6714 33.413 46 26.5008 46C19.5873 46 12.9478 48.6714 7.9971 53.4441C3.04676 58.2175 0.177031 64.715 0 71.5511V73.1242C0 74.9473 0.732141 76.6966 2.03578 77.9856C3.33943 79.2752 5.10736 80 6.95106 80H6.95074Z" fill="#5B87E0"/>
</svg>
