<svg width="31" height="21" viewBox="0 0 31 21" fill="none" xmlns="http://www.w3.org/2000/svg">
<path d="M30.3509 3.2949C30.1754 2.65904 29.8335 2.08336 29.3616 1.62906C28.8764 1.16079 28.2817 0.82583 27.6336 0.655789C25.2082 0.00650436 15.491 0.00650451 15.491 0.00650451C11.44 -0.0403061 7.38998 0.165579 3.36384 0.622997C2.71576 0.805601 2.12216 1.14805 1.63583 1.61988C1.15797 2.08684 0.811855 2.66267 0.631046 3.29359C0.196708 5.67003 -0.0143237 8.08301 0.000797088 10.5C-0.0147008 12.9148 0.195813 15.327 0.631046 17.7064C0.80798 18.3347 1.15281 18.9079 1.63195 19.3709C2.1111 19.834 2.70777 20.1684 3.36384 20.3455C5.82156 20.9935 15.491 20.9935 15.491 20.9935C19.5471 21.0404 23.6023 20.8345 27.6336 20.377C28.2817 20.2069 28.8764 19.872 29.3616 19.4037C29.8395 18.9407 30.1791 18.3649 30.3496 17.7379C30.7953 15.3624 31.012 12.9484 30.9966 10.5302C31.0301 8.10171 30.8137 5.67635 30.3509 3.29359V3.2949ZM12.4017 14.9912V6.01009L20.4865 10.5013L12.4017 14.9912Z" fill="#3C3C40"/>
</svg>
