<svg width="59" height="59" viewBox="0 0 59 59" fill="none" xmlns="http://www.w3.org/2000/svg">
<rect width="59" height="59" rx="15" fill="#1A1B1D" fill-opacity="0.8"/>
<path d="M44.3509 22.2949C44.1754 21.659 43.8335 21.0834 43.3616 20.6291C42.8764 20.1608 42.2817 19.8258 41.6336 19.6558C39.2082 19.0065 29.491 19.0065 29.491 19.0065C25.44 18.9597 21.39 19.1656 17.3638 19.623C16.7158 19.8056 16.1222 20.148 15.6358 20.6199C15.158 21.0868 14.8119 21.6627 14.631 22.2936C14.1967 24.67 13.9857 27.083 14.0008 29.5C13.9853 31.9148 14.1958 34.327 14.631 36.7064C14.808 37.3347 15.1528 37.9079 15.632 38.3709C16.1111 38.834 16.7078 39.1684 17.3638 39.3455C19.8216 39.9935 29.491 39.9935 29.491 39.9935C33.5471 40.0404 37.6023 39.8345 41.6336 39.377C42.2817 39.2069 42.8764 38.872 43.3616 38.4037C43.8395 37.9407 44.1791 37.3649 44.3496 36.7379C44.7953 34.3624 45.012 31.9484 44.9966 29.5302C45.0301 27.1017 44.8137 24.6764 44.3509 22.2936V22.2949ZM26.4017 33.9912V25.0101L34.4865 29.5013L26.4017 33.9912Z" fill="white"/>
</svg>
