<svg width="22" height="22" viewBox="0 0 22 22" fill="none" xmlns="http://www.w3.org/2000/svg">
<circle cx="11" cy="11" r="11" fill="#4A4AEB" fill-opacity="0.9"/>
<path d="M10.512 13.56C10.448 13.0907 10.4747 12.6747 10.592 12.312C10.7093 11.9493 10.8747 11.6187 11.088 11.32C11.312 11.0213 11.5413 10.7387 11.776 10.472C12.0107 10.2053 12.208 9.944 12.368 9.688C12.528 9.432 12.608 9.16 12.608 8.872C12.608 8.488 12.4907 8.17867 12.256 7.944C12.032 7.70933 11.7173 7.592 11.312 7.592C10.9813 7.592 10.6827 7.66667 10.416 7.816C10.1493 7.96533 9.89867 8.168 9.664 8.424L8.64 7.48C8.992 7.07467 9.41333 6.744 9.904 6.488C10.3947 6.22133 10.9387 6.088 11.536 6.088C12.368 6.088 13.0507 6.312 13.584 6.76C14.128 7.208 14.4 7.86933 14.4 8.744C14.4 9.14933 14.3147 9.512 14.144 9.832C13.984 10.152 13.7813 10.4507 13.536 10.728C13.3013 11.0053 13.0667 11.2827 12.832 11.56C12.5973 11.8373 12.4107 12.136 12.272 12.456C12.1333 12.776 12.0853 13.144 12.128 13.56H10.512ZM11.328 17.192C10.9973 17.192 10.7147 17.0747 10.48 16.84C10.256 16.6053 10.144 16.3067 10.144 15.944C10.144 15.5813 10.256 15.2827 10.48 15.048C10.7147 14.8133 10.9973 14.696 11.328 14.696C11.6693 14.696 11.952 14.8133 12.176 15.048C12.4107 15.2827 12.528 15.5813 12.528 15.944C12.528 16.3067 12.4107 16.6053 12.176 16.84C11.952 17.0747 11.6693 17.192 11.328 17.192Z" fill="white"/>
</svg>
