<svg width="26" height="27" viewBox="0 0 26 27" fill="none" xmlns="http://www.w3.org/2000/svg">
<path d="M13.5405 24.5247C13.1624 24.3282 12.7844 24.129 12.4063 23.9325C11.4973 23.4571 10.591 22.9817 9.68206 22.5063C8.58 21.93 7.4753 21.3536 6.37329 20.7747C5.42411 20.278 4.47223 19.7814 3.523 19.2847C3.06181 19.043 2.60329 18.7907 2.13677 18.5596C2.1314 18.5569 2.12336 18.5516 2.118 18.549C2.29497 18.8544 2.47194 19.1598 2.6489 19.4653V18.2727V15.4256V11.9809V8.99037C2.6489 8.507 2.65962 8.02363 2.6489 7.54027V7.52168C2.10996 7.82711 1.57366 8.13253 1.03472 8.43795C1.41279 8.63715 1.79087 8.83368 2.16894 9.03287C3.07792 9.50828 3.98419 9.98368 4.89317 10.4591C5.99522 11.0354 7.09993 11.6144 8.20194 12.1907C9.15112 12.6874 10.103 13.1867 11.0522 13.6833C11.5134 13.925 11.9719 14.1773 12.4385 14.4084C12.4438 14.411 12.4519 14.4164 12.4572 14.419C12.2803 14.1136 12.1033 13.8082 11.9263 13.5027V14.6926V17.537V20.9791V23.9669C11.9263 24.4503 11.9183 24.9337 11.9263 25.417V25.4356C11.9263 25.9907 12.4197 26.5246 12.9989 26.498C13.5807 26.4714 14.0714 26.0306 14.0714 25.4356V24.2458V21.4013V17.9593V14.9714C14.0714 14.4881 14.0794 14.0047 14.0714 13.5213V13.5027C14.0714 13.1415 13.8703 12.7591 13.5405 12.5865C13.1624 12.3873 12.7844 12.1907 12.4063 11.9915C11.4973 11.5161 10.591 11.0407 9.68206 10.5653C8.58 9.98901 7.4753 9.41002 6.37329 8.8337C5.42411 8.33702 4.47223 7.83772 3.523 7.3411C3.06181 7.09941 2.60064 6.85244 2.13677 6.61602C2.1314 6.61337 2.12336 6.60806 2.118 6.6054C1.77479 6.4248 1.37793 6.40621 1.03472 6.6054C0.707595 6.79397 0.503819 7.14719 0.503819 7.52168V8.71419V11.5613V15.006V17.9966C0.503819 18.4799 0.495775 18.9633 0.503819 19.4467V19.4653C0.503819 19.8265 0.704922 20.2089 1.03472 20.3815C1.41279 20.5781 1.79087 20.7773 2.16894 20.9738C3.07792 21.4492 3.98419 21.9246 4.89317 22.4C5.99522 22.9763 7.09993 23.5526 8.20194 24.1316C9.15112 24.6283 10.103 25.1249 11.0522 25.6216C11.5134 25.8633 11.9746 26.1103 12.4385 26.3467C12.4438 26.3493 12.4519 26.3546 12.4572 26.3573C12.7093 26.4901 13.0042 26.5406 13.2831 26.4635C13.5325 26.3945 13.8006 26.2059 13.9239 25.9749C14.1867 25.4888 14.0687 24.8036 13.5405 24.5248L13.5405 24.5247Z" fill="#5B87E0"/>
<path d="M23.882 18.5485C23.504 18.745 23.1259 18.9442 22.7478 19.1407C21.8388 19.6161 20.9326 20.0915 20.0236 20.5669C18.9215 21.1433 17.8168 21.7196 16.7148 22.2986C15.7656 22.7952 14.8138 23.2919 13.8645 23.7885C13.4033 24.0302 12.9341 24.2639 12.4783 24.5136C12.4729 24.5163 12.4649 24.5216 12.4595 24.5242C12.9985 24.8297 13.5348 25.1351 14.0737 25.4405V24.2507V21.4062V17.9642V14.9763C14.0737 14.4929 14.0844 14.0096 14.0737 13.5262V13.5076C13.8967 13.813 13.7198 14.1185 13.5428 14.4239C13.9209 14.2247 14.2989 14.0282 14.677 13.829C15.586 13.3536 16.4923 12.8782 17.4012 12.4028C18.5033 11.8264 19.608 11.2474 20.71 10.6711C21.6592 10.1745 22.6111 9.67516 23.5603 9.17853C24.0215 8.93684 24.4908 8.70313 24.9465 8.45346C24.9519 8.4508 24.9599 8.44549 24.9653 8.44283C24.4264 8.1374 23.8901 7.83198 23.3511 7.52656V8.71907V11.5662V15.0109V18.0014C23.3511 18.4848 23.3431 18.9682 23.3511 19.4515V19.4701C23.3511 20.0252 23.8445 20.5591 24.4237 20.5325C25.0055 20.5059 25.4962 20.0651 25.4962 19.4701V18.2776V15.4305V11.9858V8.99525C25.4962 8.51188 25.5043 8.02852 25.4962 7.54515V7.52656C25.4962 7.15208 25.2924 6.79886 24.9653 6.61028C24.6221 6.41109 24.2252 6.42968 23.882 6.61028C23.504 6.80948 23.1259 7.00601 22.7478 7.2052C21.8388 7.68061 20.9326 8.15601 20.0236 8.63141C18.9215 9.20773 17.8168 9.78672 16.7148 10.363C15.7656 10.8597 14.8138 11.359 13.8645 11.8556C13.4033 12.0973 12.9341 12.331 12.4783 12.5807C12.4729 12.5834 12.4649 12.5887 12.4595 12.5913C12.1297 12.764 11.9286 13.1464 11.9286 13.5076V14.6975V17.5419V20.984V23.9718C11.9286 24.4552 11.9206 24.9386 11.9286 25.4219V25.4405C11.9286 25.815 12.1324 26.1682 12.4595 26.3568C12.8027 26.556 13.1996 26.5374 13.5428 26.3568C13.9209 26.1603 14.2989 25.9611 14.677 25.7645C15.586 25.2891 16.4923 24.8137 17.4012 24.3383C18.5033 23.762 19.608 23.1857 20.71 22.6067C21.6592 22.11 22.6111 21.6134 23.5603 21.1167C24.0215 20.875 24.4908 20.644 24.9465 20.3916C24.9519 20.389 24.9599 20.3837 24.9653 20.381C25.4613 20.1207 25.6544 19.3957 25.3514 18.9283C25.0243 18.429 24.4156 18.2722 23.882 18.5485V18.5485Z" fill="#5B87E0"/>
<path d="M23.8826 6.60822C23.5045 6.80741 23.1265 7.00395 22.7484 7.20314C21.8394 7.67855 20.9331 8.15395 20.0242 8.62935C18.9221 9.20567 17.8174 9.78466 16.7154 10.361C15.7662 10.8577 14.8143 11.357 13.8651 11.8536C13.4039 12.0953 12.9347 12.329 12.4789 12.5787C12.4735 12.5813 12.4655 12.5866 12.4601 12.5893H13.5434C13.1653 12.3901 12.7872 12.1936 12.4092 11.9944C11.5002 11.5189 10.5939 11.0436 9.68493 10.5681C8.58287 9.99183 7.47816 9.41284 6.37616 8.83652C5.42698 8.33984 4.4751 7.84054 3.52587 7.34392C3.06468 7.10223 2.60616 6.84992 2.13964 6.61884C2.13427 6.61619 2.12623 6.61088 2.12087 6.60822V8.44344C2.49894 8.2469 2.87701 8.04772 3.25509 7.85119C4.16406 7.37579 5.07034 6.90039 5.97931 6.42498C7.08137 5.84866 8.18608 5.26967 9.28808 4.69335C10.2373 4.19668 11.1891 3.70005 12.1384 3.20075C12.5996 2.95907 13.0688 2.72535 13.5246 2.47568C13.53 2.47302 13.538 2.46771 13.5434 2.46505H12.4601C12.8382 2.66159 13.2162 2.86078 13.5943 3.05731C14.5033 3.53271 15.4096 4.00811 16.3185 4.48351C17.4206 5.05983 18.5253 5.63883 19.6273 6.21515C20.5765 6.71182 21.5284 7.20845 22.4776 7.70774C22.9388 7.94943 23.4 8.1964 23.8638 8.43282C23.8692 8.43547 23.8772 8.44079 23.8826 8.44344C24.1346 8.57624 24.4296 8.6267 24.7085 8.54968C24.9578 8.48062 25.226 8.29206 25.3493 8.06102C25.6121 7.56969 25.4941 6.88443 24.9632 6.60824C24.5798 6.40905 24.1963 6.2072 23.8129 6.00803C22.9012 5.53262 21.9922 5.05455 21.0806 4.57915C19.9732 4.00016 18.8658 3.42117 17.7584 2.84217C16.8118 2.3455 15.8653 1.85155 14.9188 1.35487C14.463 1.11584 14.0098 0.868833 13.5513 0.640432C13.1786 0.45452 12.8086 0.451864 12.4386 0.640432C12.3876 0.666991 12.3394 0.693552 12.2884 0.717451C12.0524 0.839621 11.8165 0.964448 11.5805 1.08662C10.7198 1.53813 9.8564 1.98964 8.99567 2.43848C7.9017 3.01213 6.80499 3.5885 5.70563 4.16215C4.71355 4.68004 3.72412 5.20061 2.73204 5.71851C2.1904 6.00269 1.64876 6.28687 1.10712 6.5684C1.08299 6.58168 1.05617 6.59496 1.03204 6.60824C0.332234 6.97475 0.334881 8.07694 1.03204 8.44346C1.41548 8.6453 1.79893 8.8445 2.18235 9.04634C3.09402 9.52441 4.00299 9.99982 4.91466 10.4779C6.02207 11.0569 7.12947 11.6385 8.23687 12.2175C9.1834 12.7142 10.1299 13.2081 11.0764 13.7048C11.5322 13.9438 11.9854 14.1908 12.4439 14.4219C12.8166 14.6078 13.1866 14.6105 13.5567 14.4219C13.6076 14.3953 13.6559 14.3688 13.7068 14.3449C13.9428 14.2227 14.1787 14.0979 14.4147 13.9757C15.2755 13.5242 16.1388 13.0727 16.9996 12.6212C18.0962 12.0475 19.1956 11.4712 20.2922 10.8975C21.2843 10.3796 22.2738 9.85905 23.2658 9.34116C23.8075 9.05697 24.3491 8.7728 24.8908 8.4886C24.9149 8.47532 24.9417 8.46204 24.9658 8.44876C25.4619 8.18848 25.655 7.46343 25.3519 6.99599C25.0248 6.48873 24.4162 6.32934 23.8826 6.60822L23.8826 6.60822Z" fill="#5B87E0"/>
<path d="M7.82665 11.4362C8.20472 11.237 8.5828 11.0405 8.96087 10.8413C9.86984 10.3659 10.7761 9.89048 11.6851 9.41508C12.7872 8.83876 13.8919 8.25977 14.9939 7.68344C15.943 7.18677 16.8949 6.68747 17.8441 6.19085C18.3053 5.94916 18.7746 5.71544 19.2304 5.46577C19.2358 5.46312 19.2438 5.45781 19.2492 5.45515C19.7452 5.19487 19.9383 4.46981 19.6353 4.00238C19.3108 3.50308 18.6995 3.34374 18.1686 3.61993C17.7905 3.81912 17.4124 4.01565 17.0344 4.21485C16.1254 4.69026 15.2191 5.16565 14.3101 5.64106C13.2081 6.21738 12.1034 6.79637 11.0014 7.37269C10.0522 7.86936 9.1003 8.36866 8.15107 8.86529C7.68988 9.10697 7.22062 9.34069 6.76484 9.59036C6.75948 9.59302 6.75143 9.59833 6.74607 9.60098C6.25003 9.86126 6.05695 10.5863 6.35995 11.0538C6.6844 11.5557 7.29575 11.7151 7.82665 11.4362Z" fill="#5B87E0"/>
</svg>
