<svg width="23" height="23" viewBox="0 0 23 23" fill="none" xmlns="http://www.w3.org/2000/svg">
<circle cx="11.5" cy="11.5" r="11.5" fill="#DEDEE0"/>
<path d="M10.012 14.06C9.948 13.5907 9.97467 13.1747 10.092 12.812C10.2093 12.4493 10.3747 12.1187 10.588 11.82C10.812 11.5213 11.0413 11.2387 11.276 10.972C11.5107 10.7053 11.708 10.444 11.868 10.188C12.028 9.932 12.108 9.66 12.108 9.372C12.108 8.988 11.9907 8.67867 11.756 8.444C11.532 8.20933 11.2173 8.092 10.812 8.092C10.4813 8.092 10.1827 8.16667 9.916 8.316C9.64933 8.46533 9.39867 8.668 9.164 8.924L8.14 7.98C8.492 7.57467 8.91333 7.244 9.404 6.988C9.89467 6.72133 10.4387 6.588 11.036 6.588C11.868 6.588 12.5507 6.812 13.084 7.26C13.628 7.708 13.9 8.36933 13.9 9.244C13.9 9.64933 13.8147 10.012 13.644 10.332C13.484 10.652 13.2813 10.9507 13.036 11.228C12.8013 11.5053 12.5667 11.7827 12.332 12.06C12.0973 12.3373 11.9107 12.636 11.772 12.956C11.6333 13.276 11.5853 13.644 11.628 14.06H10.012ZM10.828 17.692C10.4973 17.692 10.2147 17.5747 9.98 17.34C9.756 17.1053 9.644 16.8067 9.644 16.444C9.644 16.0813 9.756 15.7827 9.98 15.548C10.2147 15.3133 10.4973 15.196 10.828 15.196C11.1693 15.196 11.452 15.3133 11.676 15.548C11.9107 15.7827 12.028 16.0813 12.028 16.444C12.028 16.8067 11.9107 17.1053 11.676 17.34C11.452 17.5747 11.1693 17.692 10.828 17.692Z" fill="white"/>
</svg>
