<svg width="34" height="36" viewBox="0 0 34 36" fill="none" xmlns="http://www.w3.org/2000/svg">
<rect width="34" height="35.4965" rx="8" fill="url(#paint0_linear_14069_760)"/>
<path d="M15.55 8.52954C15.9558 8.18756 16.4693 8 17 8C17.5307 8 18.0442 8.18756 18.45 8.52954L25.2 14.2245C25.708 14.6515 26 15.2805 26 15.9445V25.7465C26 26.2107 25.8156 26.6558 25.4874 26.984C25.1592 27.3122 24.7141 27.4965 24.25 27.4965H21.25C20.7859 27.4965 20.3408 27.3122 20.0126 26.984C19.6844 26.6558 19.5 26.2107 19.5 25.7465V20.7465C19.5 20.5476 19.421 20.3569 19.2803 20.2162C19.1397 20.0756 18.9489 19.9965 18.75 19.9965H15.25C15.0511 19.9965 14.8603 20.0756 14.7197 20.2162C14.579 20.3569 14.5 20.5476 14.5 20.7465V25.7465C14.5 26.2107 14.3156 26.6558 13.9874 26.984C13.6592 27.3122 13.2141 27.4965 12.75 27.4965H9.75C9.52019 27.4965 9.29262 27.4513 9.0803 27.3633C8.86798 27.2754 8.67507 27.1465 8.51256 26.984C8.35006 26.8215 8.22116 26.6286 8.13321 26.4162C8.04527 26.2039 8 25.9763 8 25.7465V15.9435C8 15.2805 8.292 14.6515 8.8 14.2235L15.55 8.52954Z" fill="white"/>
<defs>
<linearGradient id="paint0_linear_14069_760" x1="21.25" y1="3.61614e-08" x2="29.4347" y2="48.8339" gradientUnits="userSpaceOnUse">
<stop stop-color="#EE4266"/>
<stop offset="1" stop-color="#FA5E7E"/>
</linearGradient>
</defs>
</svg>
