<svg width="40" height="40" viewBox="0 0 40 40" fill="none" xmlns="http://www.w3.org/2000/svg">
<rect width="40" height="40" rx="15" fill="#FF0000"/>
<path d="M30.0684 15.1157C29.9494 14.6846 29.7176 14.2943 29.3977 13.9863C29.0687 13.6688 28.6655 13.4417 28.2261 13.3264C26.5818 12.8862 19.9939 12.8862 19.9939 12.8862C17.2474 12.8545 14.5017 12.9941 11.7721 13.3042C11.3327 13.428 10.9303 13.6602 10.6006 13.9801C10.2766 14.2966 10.0419 14.687 9.91934 15.1148C9.62488 16.7259 9.48181 18.3618 9.49206 20.0005C9.48155 21.6376 9.62427 23.273 9.91934 24.8862C10.0393 25.3121 10.2731 25.7008 10.5979 26.0147C10.9228 26.3286 11.3273 26.5553 11.7721 26.6754C13.4383 27.1147 19.9939 27.1147 19.9939 27.1147C22.7438 27.1465 25.493 27.0069 28.2261 26.6967C28.6655 26.5815 29.0687 26.3544 29.3977 26.0369C29.7217 25.723 29.9519 25.3326 30.0675 24.9075C30.3697 23.297 30.5166 21.6604 30.5062 20.0209C30.5289 18.3745 30.3822 16.7302 30.0684 15.1148V15.1157ZM17.8995 23.0454V16.9565L23.3806 20.0014L17.8995 23.0454Z" fill="white"/>
</svg>
