<svg width="20" height="20" viewBox="0 0 20 20" fill="none" xmlns="http://www.w3.org/2000/svg">
<path fill="#3C3C40" d="M19.25 11C19.4312 11 19.6063 11.0656 19.7429 11.1848C19.8795 11.3039 19.9684 11.4684 19.993 11.648L20 11.75V16.75C20.0001 17.5801 19.6824 18.3788 19.1123 18.9822C18.5422 19.5856 17.7628 19.948 16.934 19.995L16.75 20H12.082C12.618 19.615 13.055 19.1 13.347 18.501L16.75 18.5C17.1894 18.5 17.6126 18.3347 17.9357 18.037C18.2588 17.7392 18.4581 17.3309 18.494 16.893L18.5 16.75V11.75C18.5 11.5511 18.579 11.3603 18.7197 11.2197C18.8603 11.079 19.0511 11 19.25 11ZM7.447 15.165L7.561 15.268L11.646 19.354L11.669 19.373C11.1126 19.7814 10.4402 20.0011 9.75 20H3.25C2.55949 20.0013 1.88668 19.7816 1.33 19.373L1.354 19.353L5.439 15.268L5.553 15.165C5.82055 14.9472 6.15501 14.8283 6.5 14.8283C6.845 14.8283 7.17945 14.9472 7.447 15.165ZM9.75 7C10.1768 7 10.5994 7.08406 10.9937 7.24739C11.388 7.41072 11.7463 7.65011 12.0481 7.9519C12.3499 8.25369 12.5893 8.61197 12.7526 9.00628C12.9159 9.40059 13 9.8232 13 10.25V16.75C13 17.468 12.767 18.132 12.373 18.67L12.353 18.646L8.268 14.561L8.138 14.439C7.68458 14.0458 7.10481 13.8288 6.50462 13.8277C5.90443 13.8266 5.32387 14.0414 4.869 14.433L4.732 14.561L0.646004 18.646L0.627004 18.669C0.21865 18.1126 -0.00105264 17.4402 3.79208e-06 16.75V10.25C3.79208e-06 9.8232 0.0840675 9.40059 0.247395 9.00628C0.410723 8.61197 0.650116 8.25369 0.951907 7.9519C1.5614 7.34241 2.38805 7 3.25 7H9.75ZM9 10C8.73479 10 8.48043 10.1054 8.2929 10.2929C8.10536 10.4804 8 10.7348 8 11C8 11.2652 8.10536 11.5196 8.2929 11.7071C8.48043 11.8946 8.73479 12 9 12C9.26522 12 9.51957 11.8946 9.70711 11.7071C9.89465 11.5196 10 11.2652 10 11C10 10.7348 9.89465 10.4804 9.70711 10.2929C9.51957 10.1054 9.26522 10 9 10ZM16.75 6.97518e-09C17.5801 -5.43467e-05 18.3788 0.317554 18.9822 0.887672C19.5856 1.45779 19.948 2.23719 19.995 3.066L20 3.25V8.25C19.9999 8.44002 19.9278 8.62294 19.798 8.76179C19.6683 8.90064 19.4907 8.98507 19.3011 8.99803C19.1115 9.01098 18.9241 8.95148 18.7767 8.83157C18.6293 8.71165 18.5329 8.54025 18.507 8.352L18.5 8.25V3.25C18.5 2.81081 18.3348 2.38768 18.0373 2.06461C17.7398 1.74154 17.3317 1.54214 16.894 1.506L16.75 1.5H11.75C11.56 1.49994 11.3771 1.42776 11.2382 1.29803C11.0994 1.1683 11.0149 0.990702 11.002 0.80112C10.989 0.611538 11.0485 0.424108 11.1684 0.276701C11.2884 0.129294 11.4598 0.0329014 11.648 0.00699998L11.75 6.97518e-09H16.75ZM8.25 6.97518e-09C8.44003 5.82496e-05 8.62294 0.0722446 8.7618 0.201973C8.90065 0.331701 8.98508 0.509298 8.99803 0.69888C9.01098 0.888462 8.95149 1.07589 8.83157 1.2233C8.71165 1.37071 8.54025 1.4671 8.352 1.493L8.25 1.5H3.25C2.81081 1.50002 2.38769 1.66517 2.06461 1.96268C1.74154 2.26019 1.54214 2.6683 1.506 3.106L1.5 3.25V6.652C0.900004 6.944 0.386004 7.382 3.79208e-06 7.918V3.25C-5.05616e-05 2.41986 0.317558 1.62117 0.887676 1.01777C1.45779 0.414367 2.2372 0.0519987 3.066 0.00500012L3.25 6.97518e-09H8.25Z" />
</svg>
