<svg width="40" height="40" viewBox="0 0 40 40" fill="none" xmlns="http://www.w3.org/2000/svg">
<rect width="40" height="40" rx="15" fill="url(#paint0_linear_3489_888)"/>
<rect width="40" height="40" rx="15" fill="url(#paint1_linear_3489_888)"/>
<path fill-rule="evenodd" clip-rule="evenodd" d="M15.9472 10.2289C16.9954 10.1806 17.3297 10.1699 20 10.1699C22.6703 10.1699 23.0046 10.1815 24.052 10.2289C25.0994 10.2763 25.8143 10.4434 26.4399 10.6856C27.0949 10.9331 27.6892 11.3201 28.1808 11.8206C28.6812 12.3112 29.0673 12.9046 29.314 13.5606C29.557 14.1861 29.7233 14.9011 29.7715 15.9467C29.8198 16.9968 29.8305 17.331 29.8305 20.0004C29.8305 22.6708 29.8189 23.005 29.7715 24.0533C29.7242 25.0989 29.557 25.8138 29.314 26.4394C29.0673 27.0955 28.6806 27.6899 28.1808 28.1812C27.6892 28.6817 27.0949 29.0677 26.4399 29.3144C25.8143 29.5575 25.0994 29.7237 24.0537 29.772C23.0046 29.8202 22.6703 29.8309 20 29.8309C17.3297 29.8309 16.9954 29.8193 15.9472 29.772C14.9015 29.7246 14.1866 29.5575 13.561 29.3144C12.905 29.0677 12.3106 28.681 11.8192 28.1812C11.3191 27.6903 10.9321 27.0962 10.6851 26.4403C10.443 25.8147 10.2767 25.0998 10.2285 24.0542C10.1802 23.0041 10.1695 22.6699 10.1695 20.0004C10.1695 17.3301 10.1811 16.9959 10.2285 15.9485C10.2758 14.9011 10.443 14.1861 10.6851 13.5606C10.9325 12.9047 11.3198 12.3106 11.8201 11.8197C12.3108 11.3196 12.9046 10.9326 13.5601 10.6856C14.1857 10.4434 14.9007 10.2772 15.9463 10.2289H15.9472ZM23.9724 11.9984C22.9357 11.951 22.6247 11.9412 20 11.9412C17.3753 11.9412 17.0643 11.951 16.0276 11.9984C15.0687 12.0422 14.5485 12.2022 14.2018 12.3371C13.7433 12.5158 13.4153 12.7276 13.0713 13.0717C12.7451 13.389 12.4941 13.7753 12.3367 14.2022C12.2017 14.549 12.0418 15.0691 11.998 16.028C11.9506 17.0647 11.9408 17.3757 11.9408 20.0004C11.9408 22.6252 11.9506 22.9362 11.998 23.9728C12.0418 24.9318 12.2017 25.4519 12.3367 25.7986C12.494 26.2249 12.7451 26.6119 13.0713 26.9292C13.3885 27.2553 13.7755 27.5065 14.2018 27.6638C14.5485 27.7987 15.0687 27.9587 16.0276 28.0025C17.0643 28.0498 17.3744 28.0597 20 28.0597C22.6256 28.0597 22.9357 28.0498 23.9724 28.0025C24.9313 27.9587 25.4515 27.7987 25.7982 27.6638C26.2567 27.485 26.5847 27.2732 26.9287 26.9292C27.2549 26.6119 27.506 26.2249 27.6633 25.7986C27.7983 25.4519 27.9582 24.9318 28.002 23.9728C28.0494 22.9362 28.0592 22.6252 28.0592 20.0004C28.0592 17.3757 28.0494 17.0647 28.002 16.028C27.9582 15.0691 27.7983 14.549 27.6633 14.2022C27.4846 13.7438 27.2728 13.4158 26.9287 13.0717C26.6114 12.7456 26.2251 12.4946 25.7982 12.3371C25.4515 12.2022 24.9313 12.0422 23.9724 11.9984ZM18.7444 23.0309C19.4456 23.3228 20.2264 23.3622 20.9535 23.1424C21.6806 22.9225 22.3087 22.4571 22.7307 21.8255C23.1528 21.194 23.3424 20.4355 23.2673 19.6797C23.1923 18.9238 22.8571 18.2175 22.3191 17.6813C21.9761 17.3386 21.5615 17.0761 21.1049 16.9129C20.6483 16.7496 20.1612 16.6897 19.6787 16.7373C19.1962 16.7848 18.7302 16.9388 18.3143 17.1881C17.8985 17.4374 17.543 17.7758 17.2736 18.179C17.0043 18.5821 16.8276 19.04 16.7564 19.5196C16.6852 19.9992 16.7212 20.4886 16.8619 20.9527C17.0025 21.4167 17.2443 21.8437 17.5698 22.2031C17.8953 22.5625 18.2965 22.8452 18.7444 23.0309ZM16.4271 16.4275C16.8963 15.9583 17.4533 15.5861 18.0663 15.3322C18.6794 15.0782 19.3364 14.9475 20 14.9475C20.6636 14.9475 21.3206 15.0782 21.9337 15.3322C22.5467 15.5861 23.1037 15.9583 23.5729 16.4275C24.0422 16.8967 24.4143 17.4537 24.6683 18.0668C24.9222 18.6798 25.0529 19.3369 25.0529 20.0004C25.0529 20.664 24.9222 21.321 24.6683 21.9341C24.4143 22.5471 24.0422 23.1042 23.5729 23.5734C22.6253 24.521 21.3401 25.0533 20 25.0533C18.6599 25.0533 17.3747 24.521 16.4271 23.5734C15.4795 22.6258 14.9471 21.3405 14.9471 20.0004C14.9471 18.6603 15.4795 17.3751 16.4271 16.4275ZM26.1736 15.7C26.2898 15.5903 26.3829 15.4584 26.4473 15.3121C26.5117 15.1658 26.5461 15.0081 26.5484 14.8483C26.5507 14.6885 26.521 14.5298 26.4609 14.3817C26.4008 14.2336 26.3116 14.099 26.1985 13.986C26.0855 13.873 25.951 13.7838 25.8029 13.7237C25.6547 13.6636 25.4961 13.6338 25.3362 13.6361C25.1764 13.6385 25.0187 13.6728 24.8724 13.7372C24.7261 13.8016 24.5942 13.8947 24.4845 14.011C24.2712 14.2371 24.1544 14.5375 24.1589 14.8483C24.1635 15.1591 24.289 15.4559 24.5088 15.6758C24.7286 15.8956 25.0254 16.0211 25.3362 16.0256C25.6471 16.0301 25.9474 15.9133 26.1736 15.7Z" fill="white"/>
<defs>
<linearGradient id="paint0_linear_3489_888" x1="40" y1="-9" x2="7" y2="37.5" gradientUnits="userSpaceOnUse">
<stop stop-color="#4466C9"/>
<stop offset="0.338542" stop-color="#D43D94"/>
<stop offset="0.729167" stop-color="#FF6C42"/>
<stop offset="1" stop-color="#FFD954"/>
</linearGradient>
<linearGradient id="paint1_linear_3489_888" x1="8" y1="5.30481e-07" x2="17.5" y2="26" gradientUnits="userSpaceOnUse">
<stop stop-color="#4367C9"/>
<stop offset="1" stop-color="#EE4B60" stop-opacity="0"/>
</linearGradient>
</defs>
</svg>
