<svg width="23" height="23" viewBox="0 0 23 23" fill="none" xmlns="http://www.w3.org/2000/svg">
<circle cx="11.5" cy="11.5" r="11.5" fill="#D9E0F2" fill-opacity="0.5"/>
<path d="M10.34 14.34C10.26 13.7533 10.2933 13.2333 10.44 12.78C10.5867 12.3267 10.7933 11.9133 11.06 11.54C11.34 11.1667 11.6267 10.8133 11.92 10.48C12.2133 10.1467 12.46 9.82 12.66 9.5C12.86 9.18 12.96 8.84 12.96 8.48C12.96 8 12.8133 7.61333 12.52 7.32C12.24 7.02667 11.8467 6.88 11.34 6.88C10.9267 6.88 10.5533 6.97334 10.22 7.16C9.88667 7.34667 9.57333 7.6 9.28 7.92L8 6.74C8.44 6.23333 8.96667 5.82 9.58 5.5C10.1933 5.16667 10.8733 5 11.62 5C12.66 5 13.5133 5.28 14.18 5.84C14.86 6.4 15.2 7.22667 15.2 8.32C15.2 8.82667 15.0933 9.28 14.88 9.68C14.68 10.08 14.4267 10.4533 14.12 10.8C13.8267 11.1467 13.5333 11.4933 13.24 11.84C12.9467 12.1867 12.7133 12.56 12.54 12.96C12.3667 13.36 12.3067 13.82 12.36 14.34H10.34ZM11.36 18.88C10.9467 18.88 10.5933 18.7333 10.3 18.44C10.02 18.1467 9.88 17.7733 9.88 17.32C9.88 16.8667 10.02 16.4933 10.3 16.2C10.5933 15.9067 10.9467 15.76 11.36 15.76C11.7867 15.76 12.14 15.9067 12.42 16.2C12.7133 16.4933 12.86 16.8667 12.86 17.32C12.86 17.7733 12.7133 18.1467 12.42 18.44C12.14 18.7333 11.7867 18.88 11.36 18.88Z" fill="#807E8C"/>
</svg>
