<svg width="25" height="25" viewBox="0 0 25 25" fill="none" xmlns="http://www.w3.org/2000/svg">
<rect width="25" height="25" rx="12.5" fill="#5B87E0"/>
<path fill-rule="evenodd" clip-rule="evenodd" d="M12.5 7C11.6716 7 11 7.67157 11 8.5V11L8.5 11C7.67157 11 7 11.6716 7 12.5C7 13.3284 7.67157 14 8.5 14H11V16.5C11 17.3284 11.6716 18 12.5 18C13.3284 18 14 17.3284 14 16.5V14H16.5C17.3284 14 18 13.3284 18 12.5C18 11.6716 17.3284 11 16.5 11L14 11V8.5C14 7.67157 13.3284 7 12.5 7Z" fill="white"/>
</svg>
