<svg width="30" height="30" viewBox="0 0 30 30" fill="none" xmlns="http://www.w3.org/2000/svg">
<rect width="30" height="30" rx="15" fill="white"/>
<path d="M15 13.5C15.9284 13.5 16.8187 13.1312 17.4751 12.4746C18.1315 11.8181 18.5001 10.9277 18.5 9.99932C18.4999 9.07105 18.1309 8.18069 17.4742 7.52446C16.8176 6.8682 15.9271 6.49973 14.9987 6.5C14.0704 6.50039 13.1802 6.86953 12.5241 7.5263C11.8678 8.18293 11.4995 9.07355 11.5 10.0018C11.5014 10.9295 11.8707 11.8187 12.5268 12.4745C13.183 13.1302 14.0724 13.4991 15 13.5V13.5Z" fill="#3C3C40"/>
<path d="M10.9426 23.5H19.0575C19.44 23.5 19.807 23.3508 20.0775 23.0853C20.348 22.8199 20.5 22.4597 20.5 22.0844V21.7605C20.4633 20.3532 19.8678 19.0155 18.8402 18.0326C17.8128 17.05 16.4348 16.5 15.0002 16.5C13.5653 16.5 12.1873 17.05 11.1598 18.0326C10.1323 19.0154 9.53674 20.3531 9.5 21.7605V22.0844C9.5 22.4597 9.65195 22.8199 9.92252 23.0853C10.1931 23.3508 10.56 23.5 10.9427 23.5H10.9426Z" fill="#3C3C40"/>
</svg>
