<svg width="16" height="20" viewBox="0 0 16 20" fill="none" xmlns="http://www.w3.org/2000/svg">
<path fill="#6C6C73" fill-rule="evenodd" clip-rule="evenodd" d="M13.7142 7.50006V6.25001C13.7142 2.78843 11.1428 0 7.99992 0C4.83505 0 2.28564 2.81251 2.28564 6.25001V7.50006C1.01091 7.50006 0 8.62987 0 9.99998V15C0 17.7643 2.04388 20 4.57143 20H11.4286C13.956 20 16 17.7645 16 15V9.99998C16 8.60575 14.9891 7.49989 13.7144 7.49989L13.7142 7.50006ZM9.14278 14.6635V16.2501C9.14278 16.9472 8.63732 17.5002 7.99988 17.5002C7.3626 17.5002 6.85699 16.9473 6.85699 16.2501V14.6395C6.17571 14.2069 5.71409 13.4136 5.71409 12.4762C5.71409 11.0819 6.74706 9.97624 7.99973 9.97624C9.27445 9.97624 10.2854 11.1061 10.2854 12.4762C10.2855 13.4376 9.82406 14.2309 9.14278 14.6635ZM11.2088 7.50006H4.76919C4.63735 7.11541 4.54935 6.68279 4.54935 6.25001C4.54935 4.1827 6.08777 2.50005 7.97788 2.50005C9.86799 2.50005 11.4064 4.1827 11.4064 6.25001C11.4285 6.68279 11.3406 7.09145 11.2088 7.50006H11.2088Z" />
</svg>
