<svg width="15" height="15" viewBox="0 0 15 15" fill="none" xmlns="http://www.w3.org/2000/svg">
<path fill-rule="evenodd" clip-rule="evenodd" d="M0.43927 11.443C-0.146478 12.0288 -0.146415 12.9785 0.43941 13.5643C1.02523 14.15 1.97498 14.15 2.56073 13.5642L7.00178 9.12252L11.4428 13.5642C12.0286 14.15 12.9783 14.15 13.5641 13.5643C14.15 12.9785 14.15 12.0288 13.5643 11.443L9.12368 7.00178L13.5643 2.56059C14.15 1.97476 14.15 1.02502 13.5641 0.43927C12.9783 -0.146478 12.0286 -0.146416 11.4428 0.43941L7.00178 4.88104L2.56073 0.43941C1.97498 -0.146416 1.02523 -0.146478 0.43941 0.43927C-0.146415 1.02502 -0.146478 1.97476 0.43927 2.56059L4.87988 7.00178L0.43927 11.443Z" fill="#3C3C40"/>
</svg>
