<svg width="100" height="100" viewBox="0 0 100 100" fill="none" xmlns="http://www.w3.org/2000/svg">
<g clip-path="url(#clip0_1006_87)">
<path d="M0.000143711 49.9996C-0.0177263 57.4207 1.63119 64.751 4.82518 71.4495V71.4495C8.0619 78.263 12.7981 84.256 18.6791 88.9797C24.5602 93.7034 31.4337 97.0354 38.7849 98.7262C46.1362 100.417 53.7747 100.423 61.1286 98.7434C68.4824 97.0639 75.361 93.7424 81.2493 89.0278V89.0278C87.0734 84.3817 91.7813 78.4886 95.0264 71.7822C98.2714 65.0759 99.9711 57.7271 100 50.2769V50.2769V50.1898C100 50.129 100 50.0683 100 50.0049C100 43.4387 98.7074 36.9367 96.1947 30.8702C93.682 24.8038 89.9989 19.2917 85.3557 14.6488C80.7126 10.0059 75.2003 6.32309 69.1337 3.8107C63.0671 1.29831 56.5651 0.00553215 49.9988 0.00622586C40.6381 0.0100646 31.4661 2.6394 23.5251 7.59544C15.584 12.5515 9.19226 19.6355 5.07607 28.0427V28.0427C1.72024 34.8747 -0.0166416 42.388 0.000143711 49.9996V49.9996ZM39.0864 5.50737L46.2539 14.6319L55.8618 26.8595H10.4716C13.5867 21.581 17.7206 16.9749 22.6327 13.3092C27.5448 9.64345 33.137 6.9914 39.0837 5.50737H39.0864ZM70.1916 45.1218L66.1958 62.6129L60.1348 65.5443L60.0926 65.5654L49.9962 70.4328L33.8335 62.6393L29.8166 45.098L33.4083 40.5925L41.0143 31.056H58.9728L70.1916 45.1218ZM77.1717 13.1265L72.4628 34.5183L71.314 39.7422L43.7239 4.61737C45.8042 4.33143 47.9016 4.1876 50.0015 4.18689C59.7838 4.15484 69.3141 7.28804 77.169 13.1186L77.1717 13.1265ZM95.7957 48.9327L70.9707 60.4895L74.4911 45.069C74.5302 44.8957 74.547 44.7182 74.5413 44.5408L80.7951 16.1214C85.3995 20.2777 89.1052 25.3318 91.6844 30.973C94.2636 36.6142 95.6618 42.7233 95.7931 48.9247L95.7957 48.9327ZM79.6647 84.9131L54.7605 72.7806L61.9307 69.3236L95.6637 53.6125C95.1999 59.6287 93.547 65.4931 90.8007 70.866C88.0544 76.2389 84.2693 81.0134 79.6647 84.9131ZM35.1329 67.9212L41.9175 71.1881L75.9225 87.7627C68.3054 93.0341 59.2541 95.841 49.9909 95.8045C47.1494 95.8013 44.3142 95.5361 41.5213 95.0122L41.2176 93.7181L35.1329 67.9212ZM9.18805 70.8263L26.4652 49.2628L29.9724 64.5645C30.0093 64.7296 30.067 64.8893 30.1441 65.0399L30.1969 65.2723L36.9604 93.9267C31.0165 92.1399 25.4938 89.1734 20.722 85.2044C15.9503 81.2354 12.0275 76.3453 9.18805 70.8263V70.8263ZM4.19399 50.0076C4.17688 43.4712 5.57233 37.0083 8.28484 31.0613H35.6505L30.1335 37.9806L7.26014 66.5241C5.21914 61.2546 4.1793 55.6506 4.19399 49.9996V50.0076Z" fill="#EE4266"/>
</g>
<defs>
<clipPath id="clip0_1006_87">
<rect width="100" height="100" fill="white"/>
</clipPath>
</defs>
</svg>
