<svg width="40" height="38" viewBox="0 0 40 38" fill="none" xmlns="http://www.w3.org/2000/svg">
<path d="M31.2541 0.577255C30.0624 0.177378 28.8091 0.000317658 27.5538 0.000317658C24.7884 -0.0195767 22.1047 0.895565 19.8944 2.5846C19.7154 2.44733 19.4965 2.32597 19.2976 2.20859C19.0986 2.08724 18.7405 1.79081 18.4421 1.63166L17.6861 1.29345C17.2882 1.07461 16.8725 0.915459 16.4328 0.774209C16.393 0.73641 16.3333 0.694632 16.2537 0.656832H16.1364C14.9606 0.256955 13.7471 0.038117 12.4937 0.000317658H12.2749C11.7178 0.000317658 11.1628 0.038117 10.6037 0.119684H10.365C9.76817 0.197272 9.17333 0.336533 8.5964 0.535477C1.1738 2.96458 -1.47215 11.0218 0.775914 18.0644C2.04915 21.6633 4.10026 24.928 6.76611 27.6117C10.6435 31.3519 14.883 34.6543 19.4368 37.4793L19.9541 37.7996L20.4515 37.4992C24.9894 34.6543 29.205 31.3519 33.0466 27.6316C35.7303 24.9479 37.7795 21.6633 39.0328 18.0644C41.2431 11.0218 38.5971 2.96458 31.2541 0.577255Z" fill="url(#paint0_radial_347_509)"/>
<path d="M25.6645 9.59302C25.0592 9.3899 24.4226 9.29997 23.7849 9.29997C22.3803 9.28986 21.0171 9.75471 19.8944 10.6126C19.8034 10.5429 19.6923 10.4813 19.5912 10.4217C19.4902 10.36 19.3083 10.2094 19.1567 10.1286L18.7727 9.95681C18.5706 9.84565 18.3594 9.76481 18.1361 9.69306C18.1159 9.67386 18.0855 9.65264 18.0451 9.63344H17.9855C17.3883 9.43032 16.7718 9.31917 16.1352 9.29997H16.0241C15.7411 9.29997 15.4592 9.31917 15.1752 9.3606H15.0539C14.7508 9.40001 14.4486 9.47075 14.1556 9.5718C10.3853 10.8057 9.04129 14.8983 10.1832 18.4756C10.8299 20.3036 11.8718 21.9619 13.2259 23.3251C15.1954 25.2249 17.3489 26.9024 19.662 28.3374L19.9247 28.5001L20.1773 28.3475C22.4824 26.9024 24.6237 25.2249 26.575 23.3352C27.9382 21.972 28.9791 20.3036 29.6157 18.4756C30.7384 14.8983 29.3944 10.8057 25.6645 9.59302Z" fill="#F25C7B"/>
<defs>
<radialGradient id="paint0_radial_347_509" cx="0" cy="0" r="1" gradientUnits="userSpaceOnUse" gradientTransform="translate(19.8946 18.8998) rotate(90) scale(18.8998 19.8946)">
<stop stop-color="#F25C7B" stop-opacity="0.5"/>
<stop offset="1" stop-color="#F25C7B" stop-opacity="0"/>
</radialGradient>
</defs>
</svg>
