<svg width="48" height="50" viewBox="0 0 48 50" fill="none" xmlns="http://www.w3.org/2000/svg">
<path opacity="0.9" d="M14.3791 26.6946C13.2402 27.4388 12.8929 28.9896 13.799 29.9981C15.3515 31.7263 17.2963 33.0624 19.479 33.8809C22.4268 34.9863 25.6487 35.0874 28.6581 34.1691C31.6675 33.2507 34.301 31.3627 36.161 28.7903C38.0209 26.2178 39.0063 23.1004 38.9684 19.909C38.9304 16.7175 37.8712 13.6253 35.9506 11.0992C34.03 8.57309 31.3523 6.7503 28.3219 5.90608C25.2915 5.06185 22.073 5.24203 19.1523 6.41941C16.9947 7.28919 15.0862 8.66828 13.5768 10.4282C12.6864 11.4664 13.0613 13.0082 14.2128 13.7212C15.375 14.4408 16.8834 14.0295 17.8718 13.0677C18.7586 12.2047 19.8064 11.5176 20.9623 11.0516C22.8931 10.2732 25.0208 10.1541 27.0241 10.7122C29.0274 11.2703 30.7975 12.4753 32.0672 14.1453C33.3368 15.8152 34.0371 17.8594 34.0622 19.9692C34.0873 22.079 33.4359 24.1398 32.2063 25.8404C30.9767 27.541 29.2358 28.7891 27.2463 29.3962C25.2569 30.0032 23.127 29.9364 21.1782 29.2057C19.9974 28.7629 18.9218 28.0908 18.0076 27.2352C17.0177 26.3087 15.5192 25.9497 14.3791 26.6946Z" fill="#D9E0F2" fill-opacity="0.5"/>
<rect x="23.1233" y="32.3945" width="7.70776" height="4.98201" fill="white"/>
<path d="M47.1014 23.8557C46.7284 23.8817 34.6849 24.2092 35.3856 26.7002C36.7875 28.8354 37.8381 28.8354 37.8385 29.9029C37.839 30.9705 35.3861 31.6822 36.0868 32.7498C37.228 34.4886 37.4771 34.9591 38.9699 36.343C41.6746 35.921 44.4134 35.6712 47.1689 35.6197C47.6267 35.611 48 35.2235 48 34.7586L47.9997 24.7166C47.9997 24.4755 47.9063 24.2517 47.7282 24.088C47.5589 23.9244 47.3302 23.8384 47.1014 23.8557Z" fill="#3C3C40"/>
<path d="M40.9911 38.7995L34.6544 37.4867V30.3389C34.8155 30.4852 35.0106 30.5714 35.214 30.5714C35.4344 30.5714 35.6547 30.4852 35.8158 30.3129C36.1466 29.977 36.1466 29.4345 35.8158 29.0986L34.4085 27.6605H34.3999L27.4049 20.5469C27.0742 20.2109 26.5316 20.2109 26.2009 20.5469L19.2059 27.6605H19.1973L17.79 29.0986C17.4593 29.4346 17.4593 29.977 17.79 30.3129C18.1122 30.6402 18.6211 30.6402 18.9514 30.3389V37.4867H6.45396C5.98767 37.4867 5.6062 37.8742 5.6062 38.3478C5.6062 38.8214 5.98767 39.2089 6.45396 39.2089C6.45396 39.2089 26.2763 38.7995 33.9841 39.5113C41.6918 40.223 46.5972 43.0127 46.5972 43.0127C47.0635 43.0127 47.4449 42.6252 47.4449 42.1516C47.4449 41.678 45.1954 39.8671 40.9911 38.7995ZM29.6597 37.4867H23.9451V33.9473C23.9451 33.4737 24.318 33.0862 24.7928 33.0862H28.8116C29.2864 33.0862 29.6594 33.4737 29.6594 33.9473L29.6597 37.4867Z" fill="#5B87E0"/>
<path d="M25.4619 49.9994C21.1977 47.95 15.9573 46.0552 9.86121 45.0045L6.17282 44.4968C4.45141 44.3072 2.67104 44.1954 0.831081 44.1608C0.372962 44.1522 0 43.7647 0 43.2998V33.2578C0 33.0167 0.0929797 32.7928 0.271116 32.6292C0.440732 32.4656 0.669623 32.3794 0.898506 32.3967C1.11926 32.405 22.2569 33.9469 35.9081 49.9994H25.4619Z" fill="#3C3C40"/>
</svg>
