<svg width="50" height="51" viewBox="0 0 50 51" fill="none" xmlns="http://www.w3.org/2000/svg">
<path opacity="0.9" fill-rule="evenodd" clip-rule="evenodd" d="M0 15.8536C0 7.0979 7.1561 0 15.9836 0H34.0164C42.8439 0 50 7.0979 50 15.8536V33.7397C50 42.4954 42.8439 49.5933 34.0164 49.5933H15.9836C7.1561 49.5933 0 42.4954 0 33.7397V15.8536ZM15.9836 5.69104C10.325 5.69104 5.7377 10.241 5.7377 15.8536V33.7397C5.7377 39.3523 10.325 43.9023 15.9836 43.9023H34.0164C39.675 43.9023 44.2623 39.3523 44.2623 33.7397V15.8536C44.2623 10.241 39.675 5.69104 34.0164 5.69104H15.9836Z" fill="#D9E0F2" fill-opacity="0.5"/>
<path d="M34.7211 29.0961C34.8101 29.3327 34.8481 29.5856 34.8328 29.8378C34.8328 30.3673 34.4904 30.8344 34.3192 31.0018C34.1292 31.1992 33.8967 31.3509 33.6391 31.4455C33.1817 31.6142 32.6761 31.5949 32.233 31.3922C31.7903 31.1899 31.446 30.8203 31.2778 30.3652L29.0236 24.3284V34.1769H28.995L28.8943 48.1877C28.8906 48.6695 28.6955 49.1307 28.3516 49.4704C28.0074 49.81 27.5422 50.0006 27.0576 50.0006H27.044C26.5564 49.9973 26.0906 49.8016 25.7485 49.4568C25.4064 49.1118 25.2161 48.6461 25.2198 48.1615L25.3278 34.1778H23.0175L22.9168 48.1886C22.9132 48.6704 22.7181 49.1316 22.3742 49.4712C22.0299 49.8109 21.5647 50.0015 21.0801 50.0015H21.0665C20.5793 49.9982 20.1134 49.8025 19.7713 49.4574C19.4292 49.1126 19.2389 48.6466 19.2422 48.1623L19.3411 34.1786V24.8673L17.066 30.421C16.886 30.8603 16.541 31.2128 16.1037 31.4034C15.6665 31.594 15.1723 31.6075 14.7252 31.4417C14.7252 31.4417 13.9863 31.0532 13.7349 30.5777C13.4836 30.1022 13.4561 29.5402 13.6604 29.0428L18.601 16.9794C18.7388 16.6434 18.9743 16.3553 19.2774 16.1526C19.5805 15.9499 19.9376 15.8418 20.3029 15.8418H28.4974C28.8722 15.8418 29.2382 15.9561 29.5457 16.169C29.8532 16.3819 30.0876 16.6832 30.2181 17.0327L34.7211 29.0961Z" fill="#3C3C40"/>
<path d="M27.6826 11.2057C27.6826 13.1281 26.1145 14.6868 24.1804 14.6868C22.246 14.6868 20.6782 13.1281 20.6782 11.2057C20.6782 9.28332 22.246 7.72461 24.1804 7.72461C26.1145 7.72461 27.6826 9.28332 27.6826 11.2057Z" fill="#5B87E0"/>
</svg>
