<svg width="48" height="48" viewBox="0 0 48 48" fill="none" xmlns="http://www.w3.org/2000/svg">
<path d="M40.2251 27.5113C42.0318 27.9012 43.8448 26.7571 43.9266 24.921C44.0654 21.809 43.4579 18.6919 42.1334 15.8338C40.3392 11.9624 37.3267 8.77645 33.5508 6.75708C29.7749 4.73772 25.4406 3.99456 21.2024 4.63984C16.9643 5.28512 13.0523 7.2838 10.0574 10.3341C7.06247 13.3843 5.14714 17.3205 4.60064 21.5483C4.05415 25.7761 4.90616 30.0658 7.02803 33.7698C9.14989 37.4738 12.4264 40.3908 16.3627 42.0804C19.2688 43.3278 22.418 43.8562 25.544 43.6432C27.3884 43.5174 28.4951 41.6879 28.0594 39.9018C27.6237 38.1156 25.8006 37.0651 23.9522 37.0312C22.2637 37.0002 20.5864 36.6438 19.0165 35.9699C16.4143 34.8529 14.2483 32.9245 12.8456 30.476C11.4429 28.0274 10.8796 25.1915 11.2409 22.3966C11.6022 19.6018 12.8684 16.9996 14.8482 14.9832C16.8281 12.9667 19.4142 11.6455 22.2159 11.2189C25.0177 10.7923 27.883 11.2836 30.3791 12.6185C32.8753 13.9535 34.8668 16.0596 36.0528 18.6189C36.7684 20.1629 37.1674 21.8213 37.2393 23.4987C37.318 25.3349 38.4185 27.1214 40.2251 27.5113Z" fill="#D9E0F2" fill-opacity="0.5"/>
<path d="M19.6049 27.4532C21.23 26.9654 23.7603 26.0726 25.8481 24.7434C25.7672 23.6625 26.1173 22.4567 26.2661 21.7216C26.4999 20.5558 26.1881 19.8904 25.5627 18.2238C25.4501 17.9241 24.9406 14.5966 23.9229 14.4935C22.919 14.3919 21.5788 17.7571 21.5788 17.7571C21.5788 17.7571 18.6876 17.7571 18.3419 19.0399C17.9263 20.5807 16.3284 21.4188 16.2662 21.6438C16.0259 22.5115 16.4488 24.8674 17.8382 25.227C18.6859 25.4463 19.2999 26.5429 19.6049 27.4534L19.6049 27.4532Z" fill="#5B87E0"/>
<path d="M37.082 39.9639C38.6279 40.9319 41.4366 36.8078 39.1077 35.4176C37.6411 34.5426 37.4792 34.2764 37.0653 33.5973C36.0696 31.9687 37.3735 27.4155 39.8847 26.829C41.751 26.3941 41.8726 28.0996 40.8471 28.6562C38.4124 30.0963 38.2082 32.5132 39.8656 33.6916C40.8024 34.3578 41.4627 34.8328 41.8709 36.3181C42.4475 38.4127 40.7174 41.745 37.393 42.7927C37.393 42.7927 35.5442 43.2061 35.2031 42.4529" fill="#3C3C40"/>
<path d="M26.5568 26.3911C26.4227 26.2682 26.3149 26.1302 26.223 25.9834C25.0996 26.5902 21.7236 28.3692 19.8508 28.8789C20.616 32.4662 20.1789 41.5241 20.2017 41.9124C20.233 42.4876 19.8561 42.8456 20.1359 43.3043C20.5624 44.0061 21.4007 44.0721 22.39 43.8941C23.3797 43.7133 30.7472 45.7452 35.3626 43.8245C41.0252 40.4314 31.5784 28.3502 26.5565 26.3909L26.5568 26.3911Z" fill="#3C3C40"/>
</svg>
