<svg xmlns="http://www.w3.org/2000/svg" width="52" height="51" fill="none" xmlns:v="https://vecta.io/nano"><path opacity=".9" fill-rule="evenodd" d="M4.225 14.203C4.225 6.359 10.531 0 18.31 0h15.493c7.779 0 14.084 6.359 14.084 14.203v4.261a2.83 2.83 0 0 1-2.817 2.841 2.83 2.83 0 0 1-2.817-2.841v-4.261c0-4.706-3.783-8.522-8.451-8.522H18.31c-4.667 0-8.451 3.815-8.451 8.522v15.623c0 4.706 3.783 8.522 8.451 8.522h.704a2.83 2.83 0 1 1 0 5.681h-.704c-7.779 0-14.084-6.359-14.084-14.203V14.203z" fill="#d9e0f2" fill-opacity=".5"/><path d="M39.085 50C45.673 50 51 44.617 51 37.993s-5.327-12.007-11.916-12.007-11.915 5.384-11.915 12.007S32.496 50 39.085 50z" fill="url(#A)" stroke="#fff" stroke-width="2"/><path d="M18.306 30.74a1.59 1.59 0 0 1 .096.648l-.444 1.017a1.56 1.56 0 0 1-.587.388c-.395.147-.832.131-1.214-.046a1.59 1.59 0 0 1-.825-.897l-1.947-5.273v8.602h-.025l-.087 12.238a1.6 1.6 0 0 1-.469 1.12 1.58 1.58 0 0 1-1.118.463h-.012a1.58 1.58 0 0 1-1.119-.475 1.6 1.6 0 0 1-.457-1.131l.093-12.215H8.198l-.087 12.238a1.6 1.6 0 0 1-.469 1.12 1.58 1.58 0 0 1-1.118.463h-.012a1.58 1.58 0 0 1-1.119-.475 1.6 1.6 0 0 1-.457-1.131l.085-12.215v-8.133l-1.965 4.851a1.59 1.59 0 0 1-.831.858c-.378.166-.804.178-1.191.033 0 0-.638-.339-.855-.755a1.6 1.6 0 0 1-.064-1.341l4.267-10.537c.119-.294.322-.545.584-.722a1.58 1.58 0 0 1 .886-.271h7.077a1.58 1.58 0 0 1 .905.286c.266.186.468.449.581.755l3.889 10.537z" fill="#3c3c40"/><path d="M12.228 15.113c0 1.679-1.354 3.041-3.025 3.041s-3.025-1.361-3.025-3.041 1.354-3.041 3.025-3.041 3.025 1.361 3.025 3.041" fill="#5b87e0"/><path d="M41.227 34.582c.525.123 1.496-.16 1.911.264v-.002c.141.137.141.356.147.556-.009.411-.013 1.091-.292 1.415s-1.034.439-1.433.482c-.239.028-.481.023-.721.042-.211.017-.421.053-.626.106-.147.031-.286.091-.408.177-.534.415-.311 1.394-.4 1.984-.131.76-.344 1.503-.636 2.215-.561 1.437-1.291 2.816-1.642 4.325a2.27 2.27 0 0 0-.074.73.59.59 0 0 0 .35.212c.089.01.179.013.268.01a.93.93 0 0 1 .846.702c.026.247-.002.497-.083.732-.046.118-.11.197-.188.197h-2.816c-.095-.131-.152-.285-.165-.446l-.031-.263-.083-.905c-.098-1.357-.14-2.748-.02-4.109-2.008.305-4.995.797-6.868.658a.57.57 0 0 0-.249.021c-.125.053-.194.185-.256.304-.422.8-1.093 1.439-1.909 1.821-.341.158-.713.276-.983.538s-.389.736-.132 1.011a.84.84 0 0 0 .094.082h.177c.32.019.59.244.669.556.033.147-.023.731-.214.731h-1.659c-.009.001-.018.001-.026 0v.001l-.552-.065c-.607-1.292.049-2.782.362-4.176.264-1.176.308-2.621.286-3.826l-3.061.236c-.432-.002-.88-.01-1.287-.131l-1.914-.931c-.267-.236-.784-.698-.694-1.101.127-.572.846-.48 1.252-.286l1.564.931c1.174.466 2.558.278 3.669-.267.935-.458 1.83-1.054 2.846-1.263.818-.166 1.661-.072 2.495-.051 1.255.033 3.462-.11 4.683-.409l.387-.105c-5.368-.473-9.498-1.788-12.138-2.883l-3.105-1.421.424-1.022 3.141 1.442c2.768 1.143 7.216 2.532 13.053 2.879.217-.358.374-.77.53-1.163a8.57 8.57 0 0 1 1.173-2.081.4.4 0 0 1 .125-.119c.056-.023.115-.034.175-.033.845-.046 1.719-.09 2.538.157.421.127.584.209.74.618.115.296.199.618.476.806a.83.83 0 0 0 .287.119z" fill="#3c3c40"/><defs><linearGradient id="A" x1="39.085" y1="26.986" x2="39.085" y2="59.625" gradientUnits="userSpaceOnUse"><stop stop-color="#d9e0f2"/><stop offset="1" stop-color="#d9e0f2" stop-opacity="0"/></linearGradient></defs></svg>