<svg width="43" height="50" viewBox="0 0 43 50" fill="none" xmlns="http://www.w3.org/2000/svg">
<path opacity="0.9" fill-rule="evenodd" clip-rule="evenodd" d="M11.1949 5.19798C15.2276 -1.73265 25.3092 -1.73267 29.3419 5.19797L39.1175 21.9986C43.1501 28.9292 38.1093 37.5925 30.044 37.5925H10.4928C2.42749 37.5925 -2.61336 28.9292 1.4193 21.9986L11.1949 5.19798ZM23.2929 8.66329C21.9487 6.35309 18.5881 6.35308 17.2439 8.6633L7.46828 25.4639C6.12407 27.7741 7.80434 30.6619 10.4928 30.6619H30.044C32.7324 30.6619 34.4127 27.7741 33.0685 25.4639L23.2929 8.66329Z" fill="#D9E0F2" fill-opacity="0.5"/>
<path d="M29.4113 28.5186C29.5026 28.7618 29.5417 29.0216 29.526 29.2808C29.526 29.8248 29.1743 30.3048 28.9985 30.4768C28.8033 30.6797 28.5645 30.8355 28.2999 30.9327C27.8301 31.1061 27.3108 31.0862 26.8557 30.8779C26.4009 30.6701 26.0473 30.2903 25.8745 29.8227L23.5592 23.6197V33.7394H23.5298L23.4264 48.1359C23.4226 48.6309 23.2222 49.1049 22.869 49.4539C22.5154 49.8029 22.0375 49.9988 21.5398 49.9988H21.5258C21.025 49.9954 20.5465 49.7942 20.1952 49.44C19.8438 49.0854 19.6483 48.607 19.6521 48.109L19.7631 33.7403H17.3901L17.2867 48.1368C17.2829 48.6318 17.0825 49.1058 16.7293 49.4548C16.3757 49.8038 15.8979 49.9997 15.4001 49.9997H15.3861C14.8857 49.9963 14.4071 49.7951 14.0558 49.4405C13.7045 49.0862 13.509 48.6074 13.5124 48.1098L13.6139 33.7411V24.1734L11.277 29.88C11.0922 30.3315 10.7378 30.6936 10.2887 30.8895C9.83965 31.0854 9.33204 31.0992 8.87276 30.9289C8.87276 30.9289 8.11378 30.5297 7.85564 30.0411C7.59751 29.5525 7.5692 28.9749 7.77903 28.4638L12.8537 16.0684C12.9953 15.7231 13.2372 15.427 13.5485 15.2188C13.8598 15.0105 14.2267 14.8994 14.6018 14.8994H23.0187C23.4037 14.8994 23.7795 15.0169 24.0954 15.2356C24.4113 15.4544 24.6521 15.764 24.786 16.1231L29.4113 28.5186Z" fill="#3C3C40"/>
<path d="M22.182 10.1365C22.182 12.1118 20.5713 13.7135 18.5848 13.7135C16.5979 13.7135 14.9875 12.1118 14.9875 10.1365C14.9875 8.16119 16.5979 6.55957 18.5848 6.55957C20.5713 6.55957 22.182 8.16119 22.182 10.1365Z" fill="#5B87E0"/>
<path d="M42.9274 39.2869C42.9836 39.4365 43.0076 39.5964 42.998 39.7559C42.998 40.0907 42.7815 40.386 42.6733 40.4919C42.5532 40.6167 42.4062 40.7127 42.2434 40.7725C41.9543 40.8792 41.6347 40.8669 41.3546 40.7387C41.0748 40.6108 40.8572 40.3771 40.7508 40.0894L39.326 36.2721V39.9935H39.3079L39.2443 48.8529C39.242 49.1575 39.1187 49.4492 38.9013 49.6639C38.6837 49.8787 38.3896 49.9992 38.0833 49.9992H38.0747C37.7666 49.9971 37.4721 49.8734 37.2559 49.6554C37.0397 49.4372 36.9194 49.1427 36.9217 48.8363L36.99 39.994H35.5297L35.466 48.8534C35.4637 49.1581 35.3404 49.4497 35.123 49.6645C34.9054 49.8792 34.6114 49.9998 34.3051 49.9998H34.2965C33.9885 49.9977 33.694 49.8739 33.4778 49.6557C33.2616 49.4377 33.1413 49.143 33.1434 48.8368L33.2059 39.9945V34.9627L32.0554 34.1274C31.2958 33.5758 31.2135 33.7097 29.9506 32.4566C28.6878 31.2035 28.6876 31.2036 29.1085 31.2035C29.5294 31.2033 29.9506 30.7859 29.9506 30.3682C29.9506 29.9505 30.3713 29.5326 31.2136 30.368L33.2059 31.9115C33.2929 31.699 33.3183 31.6211 33.7393 31.2034C34.1602 30.7857 36.2185 30.9058 36.4493 30.9058H38.9934C39.2303 30.9058 39.4616 30.9781 39.656 31.1127C39.8504 31.2474 39.9986 31.4379 40.081 31.6589L42.9274 39.2869Z" fill="#3C3C40"/>
<path d="M39.6324 25.3555C39.6324 26.9702 38.313 28.2794 36.6857 28.2794C35.0581 28.2794 33.739 26.9702 33.739 25.3555C33.739 23.7408 35.0581 22.4316 36.6857 22.4316C38.313 22.4316 39.6324 23.7408 39.6324 25.3555Z" fill="#5B87E0"/>
</svg>
