<svg width="36" height="36" viewBox="0 0 36 36" fill="none" xmlns="http://www.w3.org/2000/svg">
<path opacity="0.3" fill-rule="evenodd" clip-rule="evenodd" d="M17.9982 32.9266L11.7477 35.999L8.90384 29.5652L2.16858 27.8382L4.06243 21.0535L0 15.3379L5.74536 11.3781L6.2505 4.34497L13.163 5.06493L17.9982 0L22.837 5.05773L29.7495 4.33777L30.2546 11.3709L36 15.3307L31.9358 21.0481L33.8296 27.8328L27.0944 29.5598L24.2505 35.9936L17.9982 32.9266Z" fill="#5B87E0"/>
<path fill-rule="evenodd" clip-rule="evenodd" d="M21.7009 12.3726L11.5483 23.3475L13.9411 25.7774L24.0901 14.7979L21.7009 12.3726Z" fill="#1A1B1D"/>
<path opacity="0.3" fill-rule="evenodd" clip-rule="evenodd" d="M15.9678 13.4037C15.9678 14.0154 15.7892 14.6135 15.4545 15.1221C15.1198 15.6308 14.6441 16.0273 14.0875 16.2614C13.531 16.4955 12.9185 16.5567 12.3277 16.4374C11.7368 16.318 11.1941 16.0234 10.7681 15.5909C10.3421 15.1583 10.052 14.6071 9.9345 14.0071C9.81698 13.4071 9.8773 12.7852 10.1078 12.22C10.3384 11.6548 10.7288 11.1717 11.2297 10.8318C11.7306 10.492 12.3195 10.3105 12.9219 10.3105C13.322 10.3103 13.7182 10.3902 14.0878 10.5455C14.4575 10.7009 14.7933 10.9287 15.0762 11.216C15.3591 11.5033 15.5835 11.8443 15.7365 12.2197C15.8895 12.5951 15.9681 12.9974 15.9678 13.4037Z" fill="#1A1B1D"/>
<path opacity="0.3" fill-rule="evenodd" clip-rule="evenodd" d="M23.0747 26.8069C22.4723 26.8069 21.8834 26.6255 21.3825 26.2856C20.8816 25.9457 20.4912 25.4626 20.2607 24.8974C20.0301 24.3322 19.9698 23.7103 20.0873 23.1103C20.2049 22.5103 20.495 21.9591 20.9209 21.5266C21.3469 21.094 21.8897 20.7994 22.4805 20.68C23.0714 20.5607 23.6838 20.6219 24.2404 20.8561C24.7969 21.0902 25.2727 21.4866 25.6074 21.9953C25.942 22.504 26.1207 23.102 26.1207 23.7137C26.1207 24.5341 25.7998 25.3208 25.2285 25.9009C24.6573 26.481 23.8826 26.8069 23.0747 26.8069Z" fill="#1A1B1D"/>
</svg>
