<svg width="36" height="36" viewBox="0 0 36 36" fill="none" xmlns="http://www.w3.org/2000/svg">
<path fill-rule="evenodd" clip-rule="evenodd" d="M16.4445 11.25H16.575C16.7616 11.2491 16.9418 11.3177 17.0805 11.4425C17.2192 11.5673 17.3064 11.7394 17.325 11.925L18 18.75L22.875 21.534C22.9893 21.6 23.0841 21.6949 23.1499 21.8092C23.2158 21.9235 23.2503 22.0531 23.25 22.185V22.5C23.25 22.5881 23.2297 22.675 23.1907 22.754C23.1516 22.833 23.0949 22.9019 23.0248 22.9553C22.9548 23.0088 22.8734 23.0454 22.787 23.0623C22.7005 23.0792 22.6113 23.0759 22.5263 23.0528L15.6 21.1628C15.4318 21.1169 15.2849 21.0139 15.1844 20.8714C15.0839 20.7289 15.0363 20.5558 15.0495 20.382L15.699 11.9423C15.7136 11.7543 15.7983 11.5787 15.9365 11.4504C16.0746 11.3221 16.256 11.2506 16.4445 11.25Z" fill="#1A1B1D"/>
<path opacity="0.3" fill-rule="evenodd" clip-rule="evenodd" d="M11.085 4.25251C14.3661 2.85975 18.023 2.62268 21.4564 3.58013C24.8899 4.53758 27.8963 6.63279 29.9832 9.52247C32.0701 12.4121 33.1137 15.9249 32.9429 19.4853C32.7722 23.0457 31.3972 26.4425 29.0434 29.1192C26.6896 31.7959 23.4964 33.5938 19.9871 34.2182C16.4777 34.8427 12.8604 34.2568 9.72763 32.5564C6.59488 30.8561 4.13253 28.1421 2.74401 24.8593C1.35549 21.5764 1.12315 17.9192 2.08504 14.487L4.97254 15.3C4.20498 18.0404 4.37749 20.9589 5.46252 23.5898C6.54756 26.2206 8.48258 28.4122 10.9588 29.8148C13.435 31.2174 16.3096 31.7501 19.124 31.3279C21.9383 30.9057 24.5302 29.553 26.4858 27.4856C28.4415 25.4182 29.6483 22.7553 29.9137 19.9219C30.179 17.0884 29.4876 14.2478 27.9497 11.8532C26.4119 9.45866 24.1163 7.64826 21.4292 6.71091C18.7422 5.77356 15.8186 5.7633 13.125 6.68176L14.9115 8.81026C15.0009 8.91684 15.0589 9.04618 15.079 9.18383C15.0991 9.32148 15.0806 9.462 15.0254 9.5897C14.9702 9.7174 14.8806 9.82724 14.7666 9.90694C14.6526 9.98664 14.5187 10.0331 14.3798 10.041L7.07929 10.455C6.96265 10.4616 6.84609 10.4408 6.7389 10.3943C6.63172 10.3479 6.53686 10.277 6.4619 10.1874C6.38694 10.0978 6.33395 9.99196 6.30715 9.87826C6.28035 9.76455 6.28048 9.64616 6.30754 9.53251L8.00029 2.43601C8.03296 2.30171 8.1021 2.17905 8.20009 2.08157C8.29808 1.98409 8.4211 1.91559 8.55557 1.88362C8.69004 1.85165 8.83072 1.85746 8.9621 1.90041C9.09347 1.94336 9.21042 2.02178 9.30004 2.12701L11.085 4.25251Z" fill="#5B87E0"/>
</svg>
