<svg width="36" height="23" viewBox="0 0 36 23" fill="none" xmlns="http://www.w3.org/2000/svg">
<path d="M2 10C1.17157 10 0.5 10.6716 0.5 11.5C0.5 12.3284 1.17157 13 2 13V10ZM35.0607 12.5607C35.6464 11.9749 35.6464 11.0251 35.0607 10.4393L25.5147 0.893398C24.9289 0.307611 23.9792 0.307611 23.3934 0.893398C22.8076 1.47919 22.8076 2.42893 23.3934 3.01472L31.8787 11.5L23.3934 19.9853C22.8076 20.5711 22.8076 21.5208 23.3934 22.1066C23.9792 22.6924 24.9289 22.6924 25.5147 22.1066L35.0607 12.5607ZM2 13H34V10H2V13Z" fill="#18181A"/>
</svg>
