<svg width="63" height="63" viewBox="0 0 63 63" fill="none" xmlns="http://www.w3.org/2000/svg">
<path d="M52.3749 36.0316C54.7273 36.5422 57.0879 35.0438 57.1944 32.639C57.3751 28.5632 56.5842 24.4807 54.8595 20.7375C52.5235 15.6671 48.601 11.4945 43.6846 8.84973C38.7682 6.20496 33.1248 5.23165 27.6065 6.07678C22.0882 6.9219 16.9947 9.53957 13.0951 13.5345C9.19555 17.5294 6.7017 22.6847 5.99014 28.2218C5.27858 33.7589 6.38794 39.3772 9.15071 44.2283C11.9135 49.0794 16.1796 52.8998 21.305 55.1127C25.0888 56.7464 29.1891 57.4385 33.2594 57.1594C35.6609 56.9948 37.1019 54.5987 36.5346 52.2593C35.9672 49.92 33.5935 48.5441 31.1868 48.4997C28.9883 48.4592 26.8044 47.9923 24.7603 47.1098C21.3721 45.6469 18.5519 43.1213 16.7255 39.9143C14.8991 36.7074 14.1657 32.9933 14.6361 29.3329C15.1065 25.6724 16.7551 22.2644 19.333 19.6235C21.9109 16.9825 25.2781 15.2521 28.9261 14.6934C32.5741 14.1347 36.3048 14.7781 39.5549 16.5265C42.8051 18.2749 45.3981 21.0333 46.9424 24.3852C47.8741 26.4073 48.3936 28.5793 48.4872 30.7762C48.5897 33.1812 50.0226 35.5209 52.3749 36.0316Z" fill="#D9E0F2" fill-opacity="0.5"/>
<path d="M25.5266 35.9568C27.6426 35.3179 30.9372 34.1487 33.6556 32.4078C33.5502 30.9921 34.006 29.4128 34.1998 28.4502C34.5042 26.9233 34.0982 26.0517 33.2839 23.8691C33.1373 23.4765 32.4739 19.1185 31.1488 18.9834C29.8417 18.8504 28.0967 23.2578 28.0967 23.2578C28.0967 23.2578 24.3322 23.2578 23.8821 24.9378C23.341 26.9558 21.2604 28.0536 21.1795 28.3482C20.8666 29.4846 21.4172 32.5701 23.2262 33.0411C24.3301 33.3283 25.1295 34.7645 25.5266 35.9571L25.5266 35.9568Z" fill="#AAAAAD"/>
<path d="M48.2823 52.3419C50.2952 53.6097 53.9523 48.2084 50.9198 46.3876C49.0102 45.2417 48.7995 44.893 48.2606 44.0036C46.9641 41.8706 48.6619 35.9074 51.9315 35.1392C54.3616 34.5696 54.5199 36.8033 53.1847 37.5323C50.0145 39.4183 49.7487 42.5839 51.9067 44.1272C53.1264 44.9997 53.9862 45.6218 54.5178 47.5671C55.2685 50.3104 53.0158 54.6747 48.6873 56.0469C48.6873 56.0469 46.2801 56.5883 45.8359 55.6018" fill="#969699"/>
<path d="M34.5782 34.5653C34.4035 34.4042 34.2632 34.2236 34.1436 34.0312C32.6808 34.8259 28.2851 37.156 25.8467 37.8235C26.843 42.5218 26.2739 54.3849 26.3036 54.8935C26.3443 55.6469 25.8536 56.1157 26.2178 56.7165C26.7731 57.6356 27.8647 57.722 29.1528 57.4889C30.4414 57.2521 40.0342 59.9132 46.0437 57.3978C53.4167 52.9538 41.1166 37.1311 34.5777 34.565L34.5782 34.5653Z" fill="#969699"/>
</svg>