<svg width="84" height="84" viewBox="0 0 84 84" fill="none" xmlns="http://www.w3.org/2000/svg">
<path opacity="0.9" fill-rule="evenodd" clip-rule="evenodd" d="M12 28C12 16.9543 20.9543 8 32 8H54C65.0457 8 74 16.9543 74 28V34C74 36.2091 72.2091 38 70 38C67.7909 38 66 36.2091 66 34V28C66 21.3726 60.6274 16 54 16H32C25.3726 16 20 21.3726 20 28V50C20 56.6274 25.3726 62 32 62H33C35.2091 62 37 63.7909 37 66C37 68.2091 35.2091 70 33 70H32C20.9543 70 12 61.0457 12 50V28Z" fill="url(#paint0_linear_2170_96)"/>
<circle cx="61.5" cy="61.5" r="16.5" fill="#5B87E0" stroke="white" stroke-width="2"/>
<path d="M31.9946 51.2862C32.1037 51.5773 32.1501 51.8881 32.1316 52.1985L31.5017 53.6302C31.2687 53.8727 30.9835 54.0596 30.6677 54.1759C30.1067 54.3835 29.4867 54.3597 28.9433 54.1104C28.4003 53.8615 27.9782 53.4069 27.7718 52.8472L25.0074 45.4219V57.5356H24.9722L24.8488 74.769C24.8443 75.3615 24.605 75.9289 24.1833 76.3466C23.7611 76.7644 23.1906 76.9989 22.5963 76.9989H22.5796C21.9817 76.9948 21.4104 76.754 20.9909 76.33C20.5714 75.9055 20.338 75.3328 20.3425 74.7367L20.4749 57.5367H17.6417L17.5182 74.7701C17.5137 75.3626 17.2745 75.9299 16.8527 76.3477C16.4305 76.7655 15.86 77 15.2657 77H15.249C14.6515 76.9959 14.0802 76.7551 13.6607 76.3306C13.2412 75.9065 13.0078 75.3334 13.0118 74.7377L13.133 57.5377V46.0848L10.3429 52.9158C10.1222 53.4562 9.69908 53.8897 9.16288 54.1242C8.62673 54.3586 8.02065 54.3753 7.47229 54.1713C7.47229 54.1713 6.56609 53.6935 6.25789 53.1086C5.94969 52.5237 5.91589 51.8324 6.16642 51.2206L12.2255 36.3826C12.3944 35.9693 12.6833 35.6149 13.055 35.3656C13.4267 35.1163 13.8647 34.9833 14.3125 34.9833H24.362C24.8217 34.9833 25.2705 35.1239 25.6476 35.3858C26.0248 35.6477 26.3122 36.0183 26.4722 36.4482L31.9946 51.2862Z" fill="#3C3C40" stroke="white" stroke-width="0.5"/>
<mask id="path-4-inside-1_2170_96" fill="white">
<path d="M23.3634 29.2818C23.3634 31.6463 21.4403 33.5635 19.0684 33.5635C16.6961 33.5635 14.7734 31.6463 14.7734 29.2818C14.7734 26.9172 16.6961 25 19.0684 25C21.4403 25 23.3634 26.9172 23.3634 29.2818Z"/>
</mask>
<path d="M23.3634 29.2818C23.3634 31.6463 21.4403 33.5635 19.0684 33.5635C16.6961 33.5635 14.7734 31.6463 14.7734 29.2818C14.7734 26.9172 16.6961 25 19.0684 25C21.4403 25 23.3634 26.9172 23.3634 29.2818Z" fill="#3C3C40"/>
<path d="M22.3634 29.2818C22.3634 31.0911 20.8909 32.5635 19.0684 32.5635V34.5635C21.9896 34.5635 24.3634 32.2015 24.3634 29.2818H22.3634ZM19.0684 32.5635C17.2456 32.5635 15.7734 31.0912 15.7734 29.2818H13.7734C13.7734 32.2014 16.1467 34.5635 19.0684 34.5635V32.5635ZM15.7734 29.2818C15.7734 27.4723 17.2456 26 19.0684 26V24C16.1467 24 13.7734 26.3621 13.7734 29.2818H15.7734ZM19.0684 26C20.8909 26 22.3634 27.4724 22.3634 29.2818H24.3634C24.3634 26.362 21.9896 24 19.0684 24V26Z" fill="#3C3C40" mask="url(#path-4-inside-1_2170_96)"/>
<path d="M66.9159 57.4349L66.9005 57.4194C66.844 57.3622 66.7486 57.3081 66.5815 57.2714C66.4127 57.2343 66.206 57.2224 65.9619 57.224C65.8417 57.2248 65.7189 57.2286 65.5912 57.233L65.5522 57.2344C65.4387 57.2383 65.3208 57.2424 65.2063 57.2441C64.9598 57.2478 64.6844 57.242 64.4363 57.1855C64.2315 57.1428 64.0372 57.0621 63.8633 56.9493L63.8564 56.9448L63.8565 56.9448C63.5638 56.7479 63.3865 56.4874 63.2643 56.2427C63.1811 56.0762 63.1096 55.8839 63.0511 55.7267C63.0307 55.6718 63.0119 55.6212 62.9947 55.5775L62.9936 55.5747C62.8991 55.3297 62.8289 55.2521 62.7708 55.2074C62.6931 55.1477 62.5716 55.0953 62.2658 55.0036C61.199 54.6841 60.0461 54.7374 58.8318 54.8024L58.8132 54.8034L58.7945 54.8031C58.7925 54.803 58.7905 54.803 58.7886 54.8031L58.7833 54.8107L58.7746 54.822C58.1128 55.6794 57.5752 56.6245 57.1775 57.6304L57.1766 57.6329C57.1575 57.6804 57.1383 57.7285 57.1188 57.7773C56.9178 58.2807 56.6921 58.8457 56.386 59.3455L56.2294 59.6012L55.9302 59.5836C47.5792 59.0911 41.2077 57.1193 37.2356 55.4931L37.2267 55.4894L37.2179 55.4854L33.2268 53.6688L33.0111 54.1845L36.9697 55.981C40.6794 57.5054 46.4918 59.3404 54.0505 60.0014L54.1522 60.978C53.9593 61.0365 53.7655 61.088 53.5746 61.1338C51.7821 61.5688 48.6014 61.7703 46.7948 61.7235C46.7947 61.7235 46.7946 61.7235 46.7945 61.7235L46.8075 61.2236C46.5502 61.2171 46.2923 61.2058 46.0343 61.1944C45.1047 61.1536 44.1737 61.1127 43.2645 61.2955L66.9159 57.4349ZM66.9159 57.4349C66.9169 57.4368 66.918 57.4389 66.9192 57.4415C66.9255 57.455 66.9338 57.4785 66.9412 57.5174C66.9572 57.6012 66.9599 57.6963 66.9641 57.8407L66.9643 57.8496C66.9639 57.8675 66.9635 57.8856 66.9631 57.9038C66.9567 58.1873 66.9494 58.5109 66.9054 58.8195C66.8556 59.1687 66.7705 59.3993 66.6713 59.5137C66.5786 59.6207 66.3421 59.7447 65.9649 59.8465C65.6139 59.9413 65.2344 59.9934 64.9605 60.0229L64.9571 60.0233C64.8074 60.0405 64.653 60.0481 64.4833 60.0545C64.4577 60.0555 64.4315 60.0565 64.4049 60.0575C64.2614 60.0627 64.1058 60.0684 63.9512 60.0804L63.9497 60.0805C63.6248 60.1068 63.3034 60.1604 62.9881 60.2405C62.7188 60.2979 62.4629 60.4081 62.236 60.566L62.2259 60.573L62.2162 60.5805C61.6509 61.0164 61.534 61.7113 61.5015 62.2508C61.4873 62.486 61.488 62.728 61.4887 62.9442C61.4888 62.9857 61.4889 63.0262 61.4889 63.0655C61.489 63.3206 61.4845 63.5255 61.4601 63.6902C61.2807 64.7217 60.9884 65.7311 60.5887 66.6989L60.5886 66.6988L60.5855 66.7067C60.3413 67.3274 60.0793 67.9284 59.8133 68.5388C59.6467 68.921 59.4784 69.3069 59.312 69.7035C58.8881 70.7138 58.4926 71.7574 58.2337 72.857C58.13 73.2413 58.0897 73.6402 58.114 74.0375L58.1237 74.1956L58.2226 74.3193C58.4217 74.5681 58.7031 74.737 59.0151 74.7971L59.0357 74.8011L59.0565 74.8033C59.1965 74.8183 59.3382 74.8243 59.48 74.821C59.8178 74.8486 60.1024 75.08 60.1986 75.4005C60.2197 75.6422 60.1933 75.8854 60.121 76.1159H56.6068C56.5887 76.0611 56.5771 76.0043 56.5723 75.9464L56.5707 75.9272L56.5676 75.9081C56.555 75.8303 56.5473 75.7573 56.5383 75.6723C56.5346 75.6375 56.5308 75.6007 56.5262 75.5607L56.526 75.5585C56.4771 75.1436 56.4413 74.7275 56.4105 74.3061C56.2717 72.4073 56.2145 70.4788 56.381 68.6L56.4371 67.9668L55.8085 68.0615C55.5991 68.093 55.3829 68.1258 55.1611 68.1595C52.3331 68.589 48.5816 69.1586 46.1809 68.9849C45.9945 68.9621 45.8057 68.9795 45.6269 69.0357L45.6051 69.0425L45.584 69.0513C45.385 69.1344 45.2509 69.2724 45.1615 69.3916C45.0785 69.5023 45.0157 69.6228 44.9747 69.7014L44.9722 69.7062C44.9719 69.7068 44.9716 69.7074 44.9712 69.708C44.4228 70.737 43.5529 71.5602 42.4927 72.0519C42.3927 72.0978 42.2905 72.1412 42.1805 72.188C42.1665 72.1939 42.1523 72.1999 42.1381 72.206C42.0144 72.2586 41.8817 72.3157 41.7502 72.3788C41.4877 72.5047 41.2059 72.6657 40.9595 72.903C40.6918 73.1606 40.5018 73.5161 40.439 73.884C40.3757 74.2551 40.4368 74.6922 40.7542 75.0297L40.7541 75.0298L40.7635 75.0393C40.8213 75.0975 40.8843 75.1529 40.9519 75.2035L41.0851 75.303H41.2514H41.4854C41.7111 75.3213 41.9008 75.4774 41.9626 75.6928C41.9629 75.6968 41.9634 75.7029 41.9637 75.7114C41.9648 75.7359 41.9648 75.7698 41.9628 75.8109C41.9589 75.894 41.9477 75.9901 41.9297 76.0776C41.9268 76.0913 41.924 76.1041 41.9211 76.116H39.7919H39.782C39.7499 76.1117 39.7177 76.1073 39.6855 76.1028C39.5591 76.0855 39.433 76.0683 39.3165 76.0543C39.0597 75.3493 39.0772 74.5763 39.231 73.7273C39.3172 73.2516 39.4433 72.7664 39.5794 72.2663C39.6019 72.1835 39.6247 72.1003 39.6477 72.0165C39.7617 71.6006 39.8786 71.174 39.9736 70.7542L39.9736 70.7541C40.3617 69.0378 40.4235 66.9539 40.3923 65.2465L40.3828 64.7283L39.8652 64.7564C39.7945 64.7602 39.5571 64.7832 39.228 64.8149C38.8922 64.8474 38.461 64.889 38.0139 64.929C37.1023 65.0106 36.1049 65.0875 35.5458 65.0876C34.9414 65.0854 34.3872 65.0713 33.897 64.9338L31.2789 63.6708C31.0955 63.5088 30.8775 63.3092 30.7111 63.0963C30.5095 62.8383 30.4921 62.698 30.5025 62.652L30.5029 62.6502C30.5234 62.5586 30.5579 62.5223 30.5862 62.5012C30.6232 62.4736 30.6907 62.444 30.8039 62.4329C31.0343 62.4103 31.3317 62.4771 31.5586 62.5811M66.9159 57.4349L31 64.0914C30.6215 63.759 29.8861 63.1081 30.015 62.5412C30.1947 61.7362 31.2167 61.8647 31.7921 62.1383M39.4413 63.5236C39.7823 63.3579 40.118 63.1806 40.4457 63.007L40.4844 62.9865C40.801 62.8188 41.1099 62.6551 41.4213 62.5017C42.0692 62.1825 42.7032 61.9205 43.3638 61.7856L39.2227 63.0739M39.4413 63.5236L39.2227 63.0739M39.4413 63.5236C39.4413 63.5236 39.4414 63.5236 39.4415 63.5235L39.2227 63.0739M39.4413 63.5236C37.773 64.3352 35.6597 64.6348 33.8303 63.9147L33.7935 63.9002L33.7593 63.88L31.5586 62.5811M39.2227 63.0739C37.6457 63.8412 35.6807 64.1058 34.0135 63.4495L31.7921 62.1383M31.5586 62.5811C31.5649 62.584 31.5712 62.5869 31.5774 62.5898L31.7921 62.1383M31.5586 62.5811L31.5379 62.5689L31.7921 62.1383M41.8794 76.2414C41.8794 76.2415 41.8796 76.241 41.8802 76.24C41.8802 76.2401 41.8802 76.2402 41.8801 76.2402C41.8797 76.241 41.8794 76.2414 41.8794 76.2414ZM56.074 75.988C56.0591 75.8956 56.0493 75.8028 56.0397 75.7126C56.0363 75.6803 56.033 75.6484 56.0294 75.6169L56.074 75.988ZM58.6131 74.007C58.7374 74.1624 58.9136 74.2684 59.1096 74.3061L58.6131 74.007Z" fill="#3C3C40" stroke="#3C3C40"/>
<defs>
<linearGradient id="paint0_linear_2170_96" x1="50.75" y1="8" x2="64.474" y2="93.4884" gradientUnits="userSpaceOnUse">
<stop stop-color="#EE4266"/>
<stop offset="1" stop-color="#FA5E7E"/>
</linearGradient>
</defs>
</svg>