<svg width="62" height="62" viewBox="0 0 62 62" fill="none" xmlns="http://www.w3.org/2000/svg">
<rect x="4" y="4" width="54" height="54" rx="16" stroke="#D9E0F2" stroke-opacity="0.5" stroke-width="7"/>
<path d="M42.8597 36.2862C42.9682 36.5773 43.0146 36.8883 42.996 37.1986C42.996 37.8498 42.5782 38.4244 42.3694 38.6302C42.1375 38.8731 41.8539 39.0597 41.5396 39.176C40.9816 39.3835 40.3648 39.3597 39.8242 39.1104C39.2841 38.8616 38.8641 38.407 38.6588 37.8473L35.9088 30.422V42.5357H35.8738L35.751 59.769C35.7465 60.3616 35.5085 60.9289 35.0889 61.3467C34.6689 61.7644 34.1014 61.9989 33.5101 61.9989H33.4936C32.8988 61.9949 32.3304 61.7541 31.9131 61.3301C31.4958 60.9056 31.2636 60.3329 31.268 59.7368L31.3998 42.5368H28.5813L28.4585 59.7701C28.454 60.3627 28.216 60.93 27.7964 61.3478C27.3764 61.7655 26.8089 62 26.2176 62H26.201C25.6066 61.996 25.0382 61.7552 24.6209 61.3307C24.2036 60.9066 23.9714 60.3334 23.9754 59.7378L24.096 42.5378V31.0848L21.3204 37.9158C21.1008 38.4563 20.6799 38.8897 20.1465 39.1242C19.6131 39.3587 19.0102 39.3753 18.4646 39.1714C18.4646 39.1714 17.5632 38.6935 17.2566 38.1087C16.95 37.5238 16.9163 36.8325 17.1656 36.2206L23.1931 21.3827C23.3612 20.9694 23.6486 20.615 24.0184 20.3657C24.3881 20.1164 24.8238 19.9834 25.2694 19.9834H35.2667C35.724 19.9834 36.1705 20.124 36.5457 20.3859C36.9208 20.6478 37.2068 21.0184 37.3659 21.4483L42.8597 36.2862Z" fill="#969699"/>
<path d="M34.2729 14.2818C34.2729 16.6463 32.3598 18.5635 30.0002 18.5635C27.6402 18.5635 25.7275 16.6463 25.7275 14.2818C25.7275 11.9172 27.6402 10 30.0002 10C32.3598 10 34.2729 11.9172 34.2729 14.2818" fill="#AAAAAD"/>
</svg>