<svg width="84" height="84" viewBox="0 0 84 84" fill="none" xmlns="http://www.w3.org/2000/svg">
<path opacity="0.9" fill-rule="evenodd" clip-rule="evenodd" d="M12 28C12 16.9543 20.9543 8 32 8H54C65.0457 8 74 16.9543 74 28V34C74 36.2091 72.2091 38 70 38C67.7909 38 66 36.2091 66 34V28C66 21.3726 60.6274 16 54 16H32C25.3726 16 20 21.3726 20 28V50C20 56.6274 25.3726 62 32 62H33C35.2091 62 37 63.7909 37 66C37 68.2091 35.2091 70 33 70H32C20.9543 70 12 61.0457 12 50V28Z" fill="#D9E0F2" fill-opacity="0.5"/>
<circle cx="61.5" cy="61.5" r="16.5" fill="#D9E0F2" fill-opacity="0.5" stroke="white" stroke-width="2"/>
<path d="M31.9946 51.2862C32.1037 51.5773 32.1501 51.8881 32.1316 52.1985L31.5017 53.6302C31.2687 53.8727 30.9835 54.0596 30.6677 54.1759C30.1067 54.3835 29.4867 54.3597 28.9433 54.1104C28.4003 53.8615 27.9782 53.4069 27.7718 52.8472L25.0074 45.4219V57.5356H24.9722L24.8488 74.769C24.8443 75.3615 24.605 75.9289 24.1833 76.3466C23.7611 76.7644 23.1906 76.9989 22.5963 76.9989H22.5796C21.9817 76.9948 21.4104 76.754 20.9909 76.33C20.5714 75.9055 20.338 75.3328 20.3425 74.7367L20.4749 57.5367H17.6417L17.5182 74.7701C17.5137 75.3626 17.2745 75.9299 16.8527 76.3477C16.4305 76.7655 15.86 77 15.2657 77H15.249C14.6515 76.9959 14.0802 76.7551 13.6607 76.3306C13.2412 75.9065 13.0078 75.3334 13.0118 74.7377L13.133 57.5377V46.0848L10.3429 52.9158C10.1222 53.4562 9.69908 53.8897 9.16288 54.1242C8.62673 54.3586 8.02065 54.3753 7.47229 54.1713C7.47229 54.1713 6.56609 53.6935 6.25789 53.1086C5.94969 52.5237 5.91589 51.8324 6.16642 51.2206L12.2255 36.3826C12.3944 35.9693 12.6833 35.6149 13.055 35.3656C13.4267 35.1163 13.8647 34.9833 14.3125 34.9833H24.362C24.8217 34.9833 25.2705 35.1239 25.6476 35.3858C26.0248 35.6477 26.3122 36.0183 26.4722 36.4482L31.9946 51.2862Z" fill="#969699" stroke="white" stroke-width="0.5"/>
<path d="M23.3634 29.2818C23.3634 31.6463 21.4403 33.5635 19.0684 33.5635C16.6961 33.5635 14.7734 31.6463 14.7734 29.2818C14.7734 26.9172 16.6961 25 19.0684 25C21.4403 25 23.3634 26.9172 23.3634 29.2818Z" fill="#AAAAAD"/>
<path d="M64.5428 56.697C65.2889 56.8699 66.6678 56.4724 67.2562 57.068L67.2563 57.0657C67.4564 57.2584 67.4564 57.567 67.4645 57.8482C67.451 58.4263 67.4456 59.384 67.0491 59.8413C66.6525 60.2986 65.5805 60.459 65.0141 60.52C64.6739 60.5591 64.331 60.5524 63.99 60.5789C63.6899 60.6032 63.3929 60.653 63.1014 60.7276C62.8932 60.7707 62.6959 60.8552 62.5215 60.9764C61.7636 61.5609 62.0795 62.9395 61.9538 63.7701C61.7681 64.8396 61.4653 65.8862 61.0508 66.8898C60.2545 68.9139 59.2173 70.8548 58.7185 72.9796C58.6275 73.3138 58.5919 73.6611 58.6131 74.007C58.7374 74.1624 58.9136 74.2684 59.1096 74.3061C59.2358 74.3196 59.3633 74.3246 59.4903 74.3205C60.064 74.3542 60.5501 74.754 60.6921 75.3092C60.7295 75.6569 60.6894 76.0091 60.5736 76.3392C60.5078 76.5054 60.4177 76.6159 60.3068 76.6159H56.3083C56.174 76.4318 56.0929 76.2148 56.074 75.988C56.0537 75.8626 56.0429 75.7364 56.0294 75.6169C55.9794 75.192 55.9429 74.7679 55.9118 74.3425C55.7721 72.4312 55.7131 70.4727 55.883 68.5559C53.0316 68.9853 48.7898 69.6785 46.1308 69.4826C46.0119 69.4664 45.8911 69.4768 45.7767 69.5127C45.5992 69.5868 45.5014 69.7728 45.4135 69.9413C44.8138 71.0674 43.8622 71.9681 42.7023 72.5058C42.2183 72.7281 41.6893 72.8943 41.3063 73.2631C40.9229 73.632 40.7539 74.2995 41.1184 74.6871C41.1599 74.7289 41.2045 74.768 41.2514 74.803H41.5023C41.9565 74.8295 42.3404 75.1471 42.4517 75.5864C42.4986 75.7935 42.4197 76.616 42.1476 76.616H39.7919C39.7793 76.6169 39.7667 76.6169 39.7545 76.616L39.7549 76.6169C39.4319 76.5734 39.1484 76.5316 38.9718 76.5248C38.1098 74.7055 39.0416 72.6068 39.4859 70.6438C39.8604 68.9881 39.9235 66.9532 39.8924 65.2557C39.6279 65.27 36.7156 65.5876 35.545 65.5876C34.9317 65.5854 34.2955 65.5732 33.7179 65.4025L31 64.0914C30.6215 63.759 29.8861 63.1081 30.015 62.5412C30.1947 61.7362 31.2167 61.8647 31.7921 62.1383L34.0135 63.4495C35.6807 64.1058 37.6457 63.8412 39.2227 63.0739C40.5511 62.4284 41.8208 61.5902 43.2645 61.2955C44.4261 61.0619 45.6233 61.1935 46.8075 61.2236C48.59 61.2699 51.7234 61.0687 53.4573 60.6478C53.6406 60.6037 53.8249 60.5548 54.007 60.4995C46.3846 59.8329 40.5197 57.9812 36.7713 56.44L32.3626 54.4393L32.9645 53L37.425 55.0303C41.355 56.6394 47.6723 58.5957 55.9596 59.0844C56.2683 58.5804 56.4904 58.0001 56.7125 57.4466C57.1275 56.397 57.6885 55.4109 58.3788 54.5165C58.4252 54.4487 58.4856 54.3917 58.5563 54.3494C58.6352 54.3171 58.7199 54.3014 58.805 54.3032C60.0045 54.2389 61.2454 54.1761 62.4093 54.5246C63.0068 54.7039 63.2379 54.8189 63.4601 55.3947C63.6236 55.8111 63.7421 56.2653 64.1355 56.5299C64.2594 56.6103 64.3978 56.6673 64.5428 56.697Z" fill="#AAAAAD"/>
</svg>