<svg width="60" height="64" viewBox="0 0 60 64" fill="none" xmlns="http://www.w3.org/2000/svg">
<path d="M23.9378 10.5C26.6321 5.83333 33.3679 5.83333 36.0622 10.5L49.9186 34.5C52.6129 39.1667 49.245 45 43.8564 45H16.1436C10.755 45 7.38711 39.1667 10.0814 34.5L23.9378 10.5Z" stroke="#D9E0F2" stroke-opacity="0.5" stroke-width="7"/>
<path d="M40.8597 38.2862C40.9682 38.5773 41.0146 38.8883 40.996 39.1986C40.996 39.8498 40.5782 40.4244 40.3694 40.6302C40.1375 40.8731 39.8539 41.0597 39.5396 41.176C38.9816 41.3835 38.3648 41.3597 37.8242 41.1104C37.2841 40.8616 36.8641 40.407 36.6588 39.8473L33.9088 32.422V44.5357H33.8738L33.751 61.769C33.7465 62.3616 33.5085 62.9289 33.0889 63.3467C32.6689 63.7644 32.1014 63.9989 31.5101 63.9989H31.4936C30.8988 63.9949 30.3304 63.7541 29.9131 63.3301C29.4958 62.9056 29.2636 62.3329 29.268 61.7368L29.3998 44.5368H26.5813L26.4585 61.7701C26.454 62.3627 26.216 62.93 25.7964 63.3478C25.3764 63.7655 24.8089 64 24.2176 64H24.201C23.6066 63.996 23.0382 63.7552 22.6209 63.3307C22.2036 62.9066 21.9714 62.3334 21.9754 61.7378L22.096 44.5378V33.0848L19.3204 39.9158C19.1008 40.4563 18.6799 40.8897 18.1465 41.1242C17.6131 41.3587 17.0102 41.3753 16.4646 41.1714C16.4646 41.1714 15.5632 40.6935 15.2566 40.1087C14.95 39.5238 14.9163 38.8325 15.1656 38.2206L21.1931 23.3827C21.3612 22.9694 21.6486 22.615 22.0184 22.3657C22.3881 22.1164 22.8238 21.9834 23.2694 21.9834H33.2667C33.724 21.9834 34.1705 22.124 34.5457 22.3859C34.9208 22.6478 35.2068 23.0184 35.3659 23.4483L40.8597 38.2862Z" fill="#969699"/>
<path d="M32.2729 16.2818C32.2729 18.6463 30.3598 20.5635 28.0002 20.5635C25.6402 20.5635 23.7275 18.6463 23.7275 16.2818C23.7275 13.9172 25.6402 12 28.0002 12C30.3598 12 32.2729 13.9172 32.2729 16.2818Z" fill="#AAAAAD"/>
<path d="M56.9136 51.1762C56.9803 51.3553 57.0089 51.5467 56.9975 51.7376C56.9975 52.1384 56.7404 52.492 56.6118 52.6186C56.4691 52.7681 56.2946 52.8829 56.1012 52.9545C55.7578 53.0822 55.3782 53.0676 55.0456 52.9141C54.7132 52.761 54.4547 52.4813 54.3284 52.1368L52.6361 47.5674V52.022H52.6145L52.539 62.6271C52.5362 62.9918 52.3897 63.3409 52.1315 63.598C51.8731 63.8551 51.5238 63.9994 51.16 63.9994H51.1498C50.7838 63.9969 50.434 63.8487 50.1772 63.5878C49.9204 63.3266 49.7775 62.9741 49.7802 62.6073L49.8613 52.0227H48.1269L48.0513 62.6278C48.0485 62.9924 47.902 63.3416 47.6438 63.5987C47.3854 63.8557 47.0361 64 46.6723 64H46.6621C46.2963 63.9976 45.9465 63.8494 45.6897 63.5882C45.4329 63.3272 45.29 62.9744 45.2925 62.6079L45.3667 52.0233V46L44.0002 45C43.098 44.3397 43.0002 44.5 41.5002 43C40.0002 41.5 40.0001 41.5002 40.5 41.5C40.9999 41.4998 41.5001 41.0001 41.5001 40.5001C41.5001 40.0001 41.9999 39.4999 43.0003 40.4999L45.3667 42.3475C45.4701 42.0932 45.5003 41.9999 46.0003 41.4999C46.5003 40.9999 48.945 41.1437 49.2192 41.1437H52.241C52.5224 41.1437 52.7971 41.2302 53.028 41.3914C53.2589 41.5525 53.4349 41.7806 53.5328 42.0451L56.9136 51.1762Z" fill="#969699"/>
<mask id="path-5-outside-1_1718_62" maskUnits="userSpaceOnUse" x="45" y="30" width="9" height="9" fill="black">
<rect fill="white" x="45" y="30" width="9" height="9"/>
<path d="M53 34.5C53 36.4328 51.4328 38 49.5 38C47.5668 38 46 36.4328 46 34.5C46 32.5672 47.5668 31 49.5 31C51.4328 31 53 32.5672 53 34.5Z"/>
</mask>
<path d="M53 34.5C53 36.4328 51.4328 38 49.5 38C47.5668 38 46 36.4328 46 34.5C46 32.5672 47.5668 31 49.5 31C51.4328 31 53 32.5672 53 34.5Z" fill="#AAAAAD"/>
<path d="M52 34.5C52 35.8805 50.8805 37 49.5 37V39C51.9851 39 54 36.9851 54 34.5H52ZM49.5 37C48.1191 37 47 35.8806 47 34.5H45C45 36.985 47.0144 39 49.5 39V37ZM47 34.5C47 33.1194 48.1191 32 49.5 32V30C47.0144 30 45 32.015 45 34.5H47ZM49.5 32C50.8805 32 52 33.1195 52 34.5H54C54 32.0149 51.9851 30 49.5 30V32Z" fill="white" mask="url(#path-5-outside-1_1718_62)"/>
</svg>